<svg xmlns="http://www.w3.org/2000/svg" xmlns:xlink="http://www.w3.org/1999/xlink" width="920" height="258" viewBox="0 0 920 258">
  <defs>
    <clipPath id="clip-path">
      <rect id="Rectángulo_980" data-name="Rectángulo 980" width="17.918" height="45.629" fill="none"/>
    </clipPath>
  </defs>
  <g id="Grupo_3610" data-name="Grupo 3610" transform="translate(-112 -1611)">
    <rect id="Rectángulo_972" data-name="Rectángulo 972" width="920" height="258" transform="translate(112 1611)" fill="#3caea4"/>
    <path id="Trazado_1716" data-name="Trazado 1716" d="M0,115.207,920,.934V141H0Z" transform="translate(112 1726)" fill="#dedede" opacity="0.251"/>
    <path id="Trazado_1997" data-name="Trazado 1997" d="M2354.81,1367.76l264.619,63.228,27.627,6.6Z" transform="translate(-1632.582 407.594)" fill="#272727"/>
    <g id="Grupo_3024" data-name="Grupo 3024" transform="translate(491 1653.454)">
      <path id="Trazado_1564" data-name="Trazado 1564" d="M147.433,350.18l-2.376-1.538c.243-.378,24.9-37.835,66.5-43.806,27.915-4,56.9,6.755,86.153,31.984l-1.848,2.144c-28.6-24.664-56.819-35.2-83.876-31.33C171.671,313.408,147.671,349.813,147.433,350.18Z" transform="translate(-145.057 -304.02)" fill="#f4564b"/>
      <g id="Grupo_3023" data-name="Grupo 3023" transform="translate(138.681 20.898)">
        <path id="Trazado_1565" data-name="Trazado 1565" d="M243.042,334.273l10.355-4.742,3.775-10.745,11.291,24.492Z" transform="translate(-243.042 -318.786)" fill="#f4564b"/>
      </g>
    </g>
    <g id="Grupo_3116" data-name="Grupo 3116" transform="translate(547.927 1707.505)">
      <rect id="Rectángulo_864" data-name="Rectángulo 864" width="4.407" height="0.04" transform="translate(71.795 61.007)" fill="#fff"/>
      <path id="Trazado_1660" data-name="Trazado 1660" d="M203.236,473.37H395.072a6.913,6.913,0,0,0,5.784-10.714,2.176,2.176,0,0,1-1.046.276H176.688l4.253,4.6a2.179,2.179,0,0,1-.1,3.117l-2.976,2.717h25.371Z" transform="translate(-127.034 -412.364)" fill="#59b5a9"/>
      <path id="Trazado_1661" data-name="Trazado 1661" d="M398.976,462.051a2.176,2.176,0,0,0,1.046-.276h0c-.015-.022-.025-.047-.04-.069a6.92,6.92,0,0,0-5.714-3.025H352.631a2.152,2.152,0,0,1-.908.206h-178.8l2.924,3.164h223.13Z" transform="translate(-126.199 -411.483)" fill="#fff"/>
      <path id="Trazado_1662" data-name="Trazado 1662" d="M345.235,428.942v15.636h-94.3a2.143,2.143,0,0,0-1.642-.763,5.665,5.665,0,0,1-.576-11.3l71.558-7.4a2.171,2.171,0,0,0-.444-4.32l-71.566,7.4a9.992,9.992,0,0,0-8.087,14.056,9.424,9.424,0,0,0,.965,1.681c.156.226.319.436.49.646H167.218c-.047,0-.086.008-.132.008l-1.136-1.222.132-.156a13.016,13.016,0,0,0,1.105-14.4,13.215,13.215,0,0,0-2.351-3.02c-.054-.054-.132-.07-.187-.117,15.309-1.245,46.808-3.471,81.264-5.837.327.031.646.086.973.086a9.618,9.618,0,0,0,2.444-.319c30.292-2.07,62.507-4.226,87.81-5.892a19.2,19.2,0,0,1,2.109,1.642,18.328,18.328,0,0,1,5.985,13.589Z" transform="translate(-124.365 -401.513)" fill="#ffcb96"/>
      <path id="Trazado_1663" data-name="Trazado 1663" d="M147.543,431.63a7.438,7.438,0,0,0-1.823,3.569,6.386,6.386,0,0,0-.212,3.378,5.241,5.241,0,0,0,.481,1.21l3.171-3.171a2.061,2.061,0,0,1,1.578-.636,2.17,2.17,0,0,1,1.551.7l6.4,6.923a8.657,8.657,0,0,0-1.13-11.2,2.121,2.121,0,0,1-.535-.9,2.151,2.151,0,0,1,.425-2.112c-3.737.318-6.072.551-6.677.678A7.412,7.412,0,0,0,147.543,431.63Z" transform="translate(-120.089 -404.989)" fill="#ffcb96"/>
      <path id="Trazado_1664" data-name="Trazado 1664" d="M268.936,415.852l-.108.007a5.577,5.577,0,0,0,3.019-.206l-.161.011Z" transform="translate(-147.46 -401.944)" fill="#fff"/>
      <path id="Trazado_1665" data-name="Trazado 1665" d="M443.333,411.756a15.8,15.8,0,0,0-9.064-3.975,14.5,14.5,0,0,0-7.492,1.482,13.936,13.936,0,0,0-6.67,7.563,13.4,13.4,0,0,0-.324,8c.732,2.6,2.16,4.227,4.753,7.186a42.408,42.408,0,0,0,5.439,5.175,16.347,16.347,0,0,0,19.249-16.219v-.021A19.019,19.019,0,0,0,443.333,411.756Z" transform="translate(-180.821 -400.19)" fill="#ffcb96"/>
      <path id="Trazado_1666" data-name="Trazado 1666" d="M430.868,450.992a2.116,2.116,0,0,0,2.124.261,20.57,20.57,0,0,1-2.291-.393C430.758,450.9,430.812,450.949,430.868,450.992Z" transform="translate(-183.345 -409.749)" fill="#fff"/>
      <path id="Trazado_1668" data-name="Trazado 1668" d="M423.678,431.1c-2.593-2.959-4.022-4.588-4.753-7.186a13.4,13.4,0,0,1,.324-8,13.936,13.936,0,0,1,6.67-7.563,14.5,14.5,0,0,1,7.492-1.482,15.8,15.8,0,0,1,9.063,3.975,19.02,19.02,0,0,1,5.891,9.193c.01.034.019.068.029.1,0-.014,0-.027,0-.041a16.484,16.484,0,1,0-19.224,16.223l-.056-.044A42.412,42.412,0,0,1,423.678,431.1Z" transform="translate(-179.962 -399.276)" fill="#fff"/>
      <rect id="Rectángulo_865" data-name="Rectángulo 865" width="4.209" height="62.262" transform="translate(250.279 65.389)" fill="#fff"/>
      <path id="Trazado_1669" data-name="Trazado 1669" d="M172.292,482.052h-1.134l-3.075,2.808v59.454h4.209Z" transform="translate(-125.126 -416.663)" fill="#fff"/>
      <path id="Trazado_1670" data-name="Trazado 1670" d="M428.372,439.543a20.861,20.861,0,0,0,23.13-20.684c0-.223-.026-.44-.033-.662a20.808,20.808,0,1,0-25.387,20.953A20.555,20.555,0,0,0,428.372,439.543Zm2.31-4.206a16.47,16.47,0,1,1,16.478-16.479c0,.014,0,.027,0,.041A16.5,16.5,0,0,1,430.682,435.337Z" transform="translate(-178.725 -398.039)" fill="#272727"/>
      <path id="Trazado_1671" data-name="Trazado 1671" d="M380.957,442.22H338.1V426.794a22.786,22.786,0,0,0-24.75-22.688l-68.087,5.254-64.88,5.184-36.347,2.623A14.134,14.134,0,0,0,133.562,439.4l-20.034,20.034a2.17,2.17,0,0,0-.093,2.973l19.956,22.672a2.189,2.189,0,0,0,1.51.732h.125a2.185,2.185,0,0,0,1.463-.568L151.5,471.524v57.7a2.172,2.172,0,0,0,2.171,2.171h8.585a2.172,2.172,0,0,0,2.171-2.171V464.753h194.4v64.476A2.172,2.172,0,0,0,361,531.4h8.577a2.172,2.172,0,0,0,2.172-2.171V464.753h9.207a11.266,11.266,0,1,0,0-22.532ZM144.365,421.5l45.7-3.305,35.869-2.594a2.105,2.105,0,0,0,.856-.249l16.531-1.487,70.391-5.433a18.17,18.17,0,0,1,11.955,3.129,19.2,19.2,0,0,1,2.109,1.642,18.328,18.328,0,0,1,5.985,13.589V442.43h-94.3a2.143,2.143,0,0,0-1.642-.763,5.665,5.665,0,0,1-.576-11.3l71.558-7.4a2.171,2.171,0,0,0-.444-4.32l-71.566,7.4A9.992,9.992,0,0,0,228.7,440.1a9.426,9.426,0,0,0,.965,1.681c.156.226.319.436.49.646H155.744c-.047,0-.086.008-.132.008l-1.136-1.222.132-.156a13.016,13.016,0,0,0,1.105-14.4,13.215,13.215,0,0,0-2.351-3.02c-.054-.054-.132-.07-.187-.117a2.153,2.153,0,0,0-2.888.179.437.437,0,0,1-.039.062,2.243,2.243,0,0,0,.109,3.012,8.655,8.655,0,0,1,1.129,11.2l-6.4-6.927a2.159,2.159,0,0,0-1.549-.693,2.083,2.083,0,0,0-1.58.63l-3.168,3.176-2.094,2.094a8.422,8.422,0,0,1-.584-1.152,9.774,9.774,0,0,1,8.25-13.6Zm15.722,105.555h-4.242V467.562l3.074-2.81h1.167Zm-24.9-46.512-17.154-19.489h.008l25.4-25.4,18.687,20.228.031.031Zm232.218,46.512h-4.234v-62.3h4.234Zm13.55-66.647H163.675l.047-.039,2.973-2.716a2.163,2.163,0,0,0,.708-1.51,2.115,2.115,0,0,0-.342-1.261,2.246,2.246,0,0,0-.233-.3l-4.289-4.647-2.926-3.16h178.8a2.114,2.114,0,0,0,.911-.21h41.632a6.918,6.918,0,0,1,5.713,3.028l.047.07a6.906,6.906,0,0,1-5.76,10.749Z" transform="translate(-112.891 -399.366)" fill="#272727"/>
      <path id="Trazado_1672" data-name="Trazado 1672" d="M332.055,412.8c-25.3,1.666-57.517,3.822-87.809,5.892a9.618,9.618,0,0,1-2.444.319c-.327,0-.646-.054-.973-.086-34.456,2.366-65.954,4.592-81.264,5.837a2.153,2.153,0,0,0-2.888.179.434.434,0,0,1-.039.062c-3.736.319-6.071.553-6.678.677a7.39,7.39,0,0,0-3.222,1.564,7.472,7.472,0,0,0-1.829,3.565,6.488,6.488,0,0,0-.21,3.378,5.27,5.27,0,0,0,.483,1.214l-2.094,2.094a8.428,8.428,0,0,1-.584-1.152,9.774,9.774,0,0,1,8.25-13.6l81.567-5.9a2.1,2.1,0,0,0,.856-.249l16.531-1.487,70.391-5.433A18.17,18.17,0,0,1,332.055,412.8Z" transform="translate(-119.28 -400.601)" fill="#fff"/>
    </g>
    <g id="Grupo_3559" data-name="Grupo 3559" transform="translate(-218.053 1601.418)">
      <path id="Trazado_2336" data-name="Trazado 2336" d="M962.124,412.727l-1.325-.441c.028-.085.1-.265.212-.531,4.848-11.678,5.159-22.829.873-31.4-7.775-15.55-8.73-26.361-7.751-38.764l1.392.11c-.96,12.164-.023,22.769,7.608,38.03,4.469,8.938,4.174,20.5-.832,32.559-.091.219-.154.366-.177.436" transform="translate(-11.122 -189.281)" fill="#fff"/>
      <path id="Trazado_2337" data-name="Trazado 2337" d="M946.288,271.076c.437,1.047-.32,1.862,1.716,3.461s3.782,1.076,4.305.64,2.618-4.189,1.92-4.276-7.941.175-7.941.175" transform="translate(-5.81 -139.392)" fill="#353535"/>
      <path id="Trazado_2338" data-name="Trazado 2338" d="M944.955,81.245s.447-.263,1.2-.757,1.818-1.228,3.095-2.111c.638-.442,1.328-.925,2.07-1.417s1.524-1.018,2.362-1.517a23.969,23.969,0,0,1,2.665-1.429,9.99,9.99,0,0,1,1.5-.538,5.163,5.163,0,0,1,.829-.143,2.778,2.778,0,0,1,.446,0l.114.007.029,0h.014l.048.008.047.01.186.039.371.084c.126.034.261.083.39.125.258.089.533.17.764.27.484.19.962.385,1.424.6.935.4,1.822.868,2.685,1.3s1.68.89,2.454,1.321,1.5.85,2.166,1.247c2.667,1.573,4.374,2.761,4.374,2.761l-1.282-.59-3.359-1.589-4.735-2.243c-.866-.405-1.769-.8-2.682-1.2-.457-.2-.919-.384-1.384-.559-.237-.1-.451-.155-.675-.231-.112-.035-.217-.077-.336-.107l-.372-.08-.185-.042-.047-.01c-.036-.006.036.005.025,0h-.028l-.075-.005a1.821,1.821,0,0,0-.311,0,4.126,4.126,0,0,0-.665.106,8.962,8.962,0,0,0-1.356.47,29.065,29.065,0,0,0-2.606,1.291c-1.673.923-3.217,1.858-4.564,2.617s-2.486,1.369-3.3,1.752c-.406.194-.735.328-.956.42l-.341.138" transform="translate(-4.87)" fill="#ced8db"/>
      <path id="Trazado_2339" data-name="Trazado 2339" d="M971.167,98.175c-.748-.935-5.238.935-17.212.561s-15.958-1.309-15.9.187c.083,2.23.056,11.716.032,21.793-.008,3.547-.016,7.166-.019,10.568,0,3.6,0,6.964.016,9.736.022,4.019.068,6.8.158,7.292.1.539,1.825.821,4.383.96,7.216.4,21.056-.342,23.68.349a4.828,4.828,0,0,0,2.79.173c1.21-.471,1.441-2.183.952-5.973-.348-2.7.033-12.561.464-22.434.5-11.351,1.059-22.714.659-23.214" transform="translate(0 -17.349)" fill="#ced8db"/>
      <path id="Trazado_2340" data-name="Trazado 2340" d="M972.149,174.859a10.91,10.91,0,0,0-2.463-1.091,7.607,7.607,0,0,0-4.428.029c-6.969,1.951-14.826,4.562-21.265,1.625a13.244,13.244,0,0,1-2.092-1.19c-.008,3.309-.015,6.685-.017,9.859,0,3.362,0,6.5.014,9.083.02,3.749.064,6.345.147,6.8.091.5,1.7.766,4.089.9,6.732.369,19.643-.319,22.091.326a4.5,4.5,0,0,0,2.6.162c1.129-.439,1.344-2.036.888-5.572-.324-2.517.031-11.719.433-20.929" transform="translate(-2.703 -70.649)" fill="#3acce6"/>
      <path id="Trazado_2341" data-name="Trazado 2341" d="M972.734,104.085c-.7-.873-4.887.873-16.057.524s-14.887-1.221-14.835.175c.077,2.08.052,10.93.03,20.332a13.3,13.3,0,0,0,2.092,1.19c.5-1.487,1.066-2.962,1.717-4.418-.652,1.456-1.219,2.931-1.717,4.418,6.439,2.936,14.3.326,21.265-1.625a7.563,7.563,0,0,1,4.414-.029c-.082-.924-.252-1.846-.252-2.763v0c0,.917.17,1.839.252,2.763a10.967,10.967,0,0,1,2.47,1.091c.463-10.589.994-21.19.621-21.657" transform="translate(-2.673 -21.531)" fill="#d9e7ed"/>
      <path id="Trazado_2342" data-name="Trazado 2342" d="M947.727,117.068h6.632a1.335,1.335,0,1,0,0-2.65h-6.632a1.335,1.335,0,1,0,0,2.65" transform="translate(-5.766 -28.996)" fill="#c62e2e"/>
      <path id="Trazado_2343" data-name="Trazado 2343" d="M954.36,173.418h-6.633a1.472,1.472,0,1,0,0,2.944h6.633a1.473,1.473,0,1,0,0-2.944" transform="translate(-5.766 -70.624)" fill="#c62e2e"/>
      <path id="Trazado_2344" data-name="Trazado 2344" d="M954.36,238.418h-6.633a1.624,1.624,0,0,0,0,3.239h6.633a1.624,1.624,0,0,0,0-3.239" transform="translate(-5.766 -116.485)" fill="#c62e2e"/>
      <path id="Trazado_2345" data-name="Trazado 2345" d="M949.114,209.89h3.021a.828.828,0,0,0,.71-.8.638.638,0,0,0-.2-.485.68.68,0,0,0-.5-.188H949.1a.642.642,0,0,0-.5.125.9.9,0,0,0-.2.591.785.785,0,0,0,.71.756" transform="translate(-7.303 -95.318)" fill="#c62e2e"/>
      <path id="Trazado_2346" data-name="Trazado 2346" d="M952.65,144.744c-.13-.135-.313-.327-.5-.327H949.1c-.188,0-.371.192-.5.327a.65.65,0,0,0-.2.49.694.694,0,0,0,.71.656h3.021a.694.694,0,0,0,.71-.655.65.65,0,0,0-.2-.49" transform="translate(-7.303 -50.162)" fill="#c62e2e"/>
      <path id="Trazado_2347" data-name="Trazado 2347" d="M952.65,130.74c-.13-.135-.313-.323-.5-.323H949.1c-.188,0-.371.188-.5.323a.655.655,0,0,0-.2.492.7.7,0,0,0,.71.658h3.021a.7.7,0,0,0,.71-.658.654.654,0,0,0-.2-.492" transform="translate(-7.303 -40.284)" fill="#c62e2e"/>
      <path id="Trazado_2348" data-name="Trazado 2348" d="M949.1,159.418a.674.674,0,0,0-.5.184.815.815,0,0,0-.2.561.757.757,0,0,0,.71.727h3.021a.771.771,0,0,0,.711-.742.706.706,0,0,0-.7-.731Z" transform="translate(-7.303 -60.746)" fill="#c62e2e"/>
      <path id="Trazado_2349" data-name="Trazado 2349" d="M949.114,194.876h3.021c.379,0,.7-.459.71-.831a.6.6,0,0,0-.2-.469.667.667,0,0,0-.5-.172H949.1c-.188,0-.371-.041-.5.094a.939.939,0,0,0-.2.606.8.8,0,0,0,.71.772" transform="translate(-7.303 -84.721)" fill="#c62e2e"/>
      <path id="Trazado_2350" data-name="Trazado 2350" d="M949.114,225.89h3.021a.739.739,0,0,0,.514-1.24.721.721,0,0,0-.5-.232H949.1a.7.7,0,0,0-.5.213.783.783,0,0,0-.2.546.743.743,0,0,0,.71.712" transform="translate(-7.303 -106.607)" fill="#c62e2e"/>
      <path id="Trazado_2351" data-name="Trazado 2351" d="M1002.1,78.343c-.666-.4-1.391-.818-2.166-1.246s-1.593-.883-2.454-1.321-1.75-.9-2.685-1.3c-.462-.211-.939-.407-1.423-.6-.232-.1-.507-.182-.765-.271-.13-.041-.264-.091-.39-.124l-.371-.084-.186-.04-.047-.01-.049-.008h-.014l-.029,0-.114-.007a2.712,2.712,0,0,0-.446,0c-.085.006-.165.021-.247.032.093.36.174.725.246,1.093.023,0,.047-.007.069-.008a1.826,1.826,0,0,1,.311,0l.075,0h.019l.031.007.185.042.372.08c.119.03.224.072.337.107.223.077.437.133.674.231.465.175.928.357,1.384.559.913.395,1.816.792,2.682,1.2l4.735,2.243,3.359,1.589,1.282.59s-1.707-1.187-4.374-2.761" transform="translate(-37.157 0)" fill="#ced8db"/>
      <g id="Grupo_3558" data-name="Grupo 3558" transform="translate(951.784 83.799)">
        <g id="Grupo_3557" data-name="Grupo 3557" transform="translate(0 0)" clip-path="url(#clip-path)">
          <path id="Trazado_2352" data-name="Trazado 2352" d="M984.686,109.363c6.082,1.8,16.388-.816,16.864-.415,2.624,2.214-.414,21.318-.968,27.316s.553,17.657-.553,18.255-7.539-16.819-7.539-16.819,5.88-.138,6.571-13.27.138-9.953.138-9.953Z" transform="translate(-984.686 -108.906)" fill="#fff"/>
        </g>
      </g>
      <path id="Trazado_2353" data-name="Trazado 2353" d="M953.09,301.1h-4.24a1.08,1.08,0,0,1-1.08-1.08V284.373a1.08,1.08,0,0,1,1.08-1.08h4.24a1.08,1.08,0,0,1,1.08,1.08v15.643a1.08,1.08,0,0,1-1.08,1.08" transform="translate(-6.856 -148.147)" fill="#f2f2f2"/>
    </g>
    <path id="Trazado_2397" data-name="Trazado 2397" d="M545.483,162.569a8.5,8.5,0,0,0,.5-6.827c-.788-2.541-4-7.83-3.584-7.964q1.477-.469,2.932-.993c7.954-2.865,25.542-8.505,48.944-41.242.155-.216.306-.435.458-.654,1.111-1.62,2.285-3.551,3.085-4.906q.467-.8.925-1.6s-26.335,34.5-67.126,46.922c3.344,4.8,3.983,13.03,6.014,19.579A6.285,6.285,0,0,0,545.483,162.569Z" transform="translate(-219.824 1639.8)" fill="#d3cfcf"/>
    <path id="Trazado_2398" data-name="Trazado 2398" d="M533,158.486a9.105,9.105,0,0,0,.525-.937,10.046,10.046,0,0,0,.909-3.081c.014-.106.026-.211.036-.316v-.015c.01-.1.019-.2.026-.308v0c.01-.131.017-.263.022-.395v-.021c.005-.133.008-.267.009-.4V153c0-.121,0-.241,0-.362l0-.085c0-.123-.009-.247-.016-.371a15.55,15.55,0,0,0-.422-2.747q-.11-.454-.244-.9a24.166,24.166,0,0,0-2.2-5.06c-.081-.142-.164-.283-.247-.423-.056-.095-.113-.188-.171-.282l-.073-.12c-.074-.12-.15-.24-.225-.359l-.018-.028q-.123-.193-.249-.384-.456-.688-.95-1.348l-.01-.014q-.485-.647-1.008-1.266l-.031-.037q-.25-.294-.509-.582l-.069-.076q-.242-.267-.49-.527l-.043-.046q-.256-.267-.521-.527l-.116-.114c-.178-.173-.357-.345-.54-.515-.527-.486-1.07-.967-1.632-1.423.25-.006.5-.017.752-.031.167-.009.335-.017.5-.029q1.314-.093,2.615-.288a38.261,38.261,0,0,0,5.635-1.295q1.511-.467,2.979-1.042.245-.1.488-.194a51.219,51.219,0,0,0,11.378-6.49,89.853,89.853,0,0,0,12.573-11.687q1.5-1.646,2.963-3.323,3.3-3.774,6.415-7.7,1.039-1.307,2.058-2.628c1.682-2.188,3.219-4.467,4.71-6.777q.638-.99,1.268-1.987.276-.435.552-.872c1.286-2.035,2.568-4.074,3.911-6.078q2.582-3.848,5.051-7.161,1.124-1.509,2.227-2.914.87-1.313,1.8-2.6.467-.646.95-1.284.241-.32.487-.637A65.462,65.462,0,0,1,609.1,56.11a60.886,60.886,0,0,1,11-5.905s-13.979,5.187-24.825,13.334c-1.387,1.042-2.722,2.133-3.97,3.266h0q-.453.411-.891.831c-.05.048-.453.433-1.087,1.059-.726.717-1.755,1.752-2.906,2.961-3.1,3.263-7.093,7.607-8.408,8.719-7.306,5.49-18.279,11.59-34.48,16.154-10.739,3.025-22.18,2.727-33.219,1.291-10.106-1.314-20.574-3.877-29.325-9.28a39.871,39.871,0,0,1-5.946-4.435c-2.045-1.864-3.9-3.921-5.774-5.95a43.2,43.2,0,0,0-6.913-6.333q.2.163.4.329a23.549,23.549,0,0,1,7.85,11.364,39.121,39.121,0,0,1,1.024,7.2,12.868,12.868,0,0,0,1.955,6.5c2.555,3.49,9.655,5.624,13.483,6.9l0-.025c.577.11,1.155.209,1.739.29,1.571.216,48.271,12.388,88.517-22.636l-.971.976-.318.32-.672.677-.349.352-.657.663-.349.351-.727.735-.262.264-.929.939-.822.829-.194.2-1.069,1.079c-3.666,3.7-7.446,7.478-11.359,11.238l-.071.068q-1.5,1.439-3.024,2.872l-.3.278q-.734.686-1.471,1.37c-20.56,19.014-48.385,22.656-48.385,22.656a8.657,8.657,0,0,1,6.385,3.9c40.792-12.427,67.127-46.922,67.127-46.922l.009-.009c-.124.221-.465.817-.934,1.612-.8,1.355-1.974,3.286-3.085,4.906-.151.218-.3.438-.458.654-23.4,32.736-40.99,38.377-48.944,41.242q-1.457.526-2.931.993c-.42.134,2.8,5.423,3.584,7.964a8.5,8.5,0,0,1-.5,6.827,6.285,6.285,0,0,1-7.854,2.313,25.815,25.815,0,0,0,1.513,3.878c4.637,9.275,11.748,4.792,12.556,4.932a8.889,8.889,0,0,0,.922-1.116C532.864,158.687,532.93,158.587,533,158.486Z" transform="translate(-199.999 1653.589)" fill="#c9c8c7"/>
    <path id="Trazado_2399" data-name="Trazado 2399" d="M506.681,70.083a129.749,129.749,0,0,0,30.643,9.969c9.734,1.719,20.121,1.867,29.307-2.239,4.143-1.852,7.742-4.667,11.4-7.308,1.675-1.21,6.429-5.181,11.37-9.085.634-.626,1.037-1.011,1.087-1.059q.438-.42.891-.831h0c1.248-1.133,2.583-2.224,3.97-3.266l-4.779.686c-5.273.755-10.552,1.585-15.864,2a68.379,68.379,0,0,1-26.273-3.167,127.533,127.533,0,0,1-24.279-11.153c-7.956-4.547-15.65-9.534-23.589-14.109-1.995-1.149-4-2.295-6.048-3.345a21.666,21.666,0,0,0-6.038-2.227,10.218,10.218,0,0,0-5.725.6q.7.055,1.413.169a35.82,35.82,0,0,1,10.844,4.046c3.687,1.948,7.264,4.113,10.876,6.2q5.623,3.244,11.246,6.489c7.2,4.141,14.356,8.5,21.917,11.972a60.913,60.913,0,0,0,18.931,5.571,60.315,60.315,0,0,1-14.526-.894,104.688,104.688,0,0,1-21.113-6.48c-6.883-2.816-13.609-6-20.47-8.864-4.063-1.7-8.189-3.335-12.4-4.678a12.757,12.757,0,0,1-3.264,3.688c6.64,2.238,12.779,5.784,18.694,9.52,7.269,4.591,14.389,8.989,22.291,12.459a76.209,76.209,0,0,0,23.918,6.56,70.9,70.9,0,0,0,12.371-.012c2.068-.188,4.13-.43,6.178-.771.728-.121,1.474-.237,2.219-.369a31.637,31.637,0,0,1-5.711,2.66,37.5,37.5,0,0,1-11.556,1.772,82.721,82.721,0,0,1-24.675-3.9,155.807,155.807,0,0,1-22.442-9.172c-7.081-3.385-14.138-6.889-21.548-9.511a71.475,71.475,0,0,0-11.165-3.081c-1.442-.259-2.92-.5-4.41-.677a17.432,17.432,0,0,0-2.3.993,11.909,11.909,0,0,0-5.452,5.516,52.54,52.54,0,0,1,14.617,2.392C487.527,60.278,496.916,65.671,506.681,70.083Z" transform="translate(-200.074 1660.865)" fill="#eae9e8"/>
    <path id="Trazado_2400" data-name="Trazado 2400" d="M489.057,59.21c7.41,2.622,14.467,6.126,21.548,9.511a155.805,155.805,0,0,0,22.442,9.172,82.721,82.721,0,0,0,24.675,3.9,37.5,37.5,0,0,0,11.556-1.772,31.634,31.634,0,0,0,5.711-2.66c-.745.132-1.491.248-2.219.369-2.049.341-4.11.583-6.178.771a70.9,70.9,0,0,1-12.371.012,76.208,76.208,0,0,1-23.918-6.56c-7.9-3.47-15.022-7.868-22.291-12.459-5.915-3.736-12.054-7.283-18.694-9.52a17.774,17.774,0,0,1-4.935,2.657c-3.513,1.254-7.378,1.574-10.9,2.817,1.49.175,2.969.418,4.41.677A71.475,71.475,0,0,1,489.057,59.21Z" transform="translate(-203.185 1653.655)" fill="#dbdbdb"/>
    <path id="Trazado_2401" data-name="Trazado 2401" d="M619.063,68.979q-.245.318-.487.637-.484.638-.95,1.284-.934,1.291-1.8,2.6-1.1,1.406-2.227,2.914-2.472,3.319-5.051,7.161c-1.344,2-2.626,4.043-3.911,6.078q-.276.436-.552.872-.631,1-1.268,1.987c-1.491,2.31-3.028,4.59-4.71,6.777q-1.017,1.322-2.058,2.628-3.117,3.923-6.415,7.7-1.466,1.678-2.963,3.323a89.853,89.853,0,0,1-12.573,11.687,51.219,51.219,0,0,1-11.378,6.49q-.243.1-.488.194-1.468.574-2.979,1.042a38.261,38.261,0,0,1-5.635,1.295q-1.3.194-2.615.288c-.168.012-.335.021-.5.029-.251.014-.5.024-.752.031.562.456,1.106.937,1.632,1.423.183.169.363.341.54.515l.116.114q.264.26.521.527l.043.046q.248.26.49.527l.069.076q.258.288.509.582l.031.037q.522.619,1.008,1.266l.01.014q.495.66.95,1.348c7.178-.815,22.083-5.27,38.3-26.493,20.711-27.1,26.356-57.688,62.565-68.679a65.214,65.214,0,0,0-11.417,3.5,60.888,60.888,0,0,0-11,5.905A65.46,65.46,0,0,0,619.063,68.979Z" transform="translate(-225.013 1654.992)" fill="#fff"/>
    <path id="Trazado_2402" data-name="Trazado 2402" d="M652.922,85.02q-.658,1.131-1.286,2.266l-.04.072q-.2.363-.4.726l-.064.118q-.191.35-.378.7l-.059.111c-.138.258-.269.513-.405.771a49.353,49.353,0,0,1,9.892-9.632,66.9,66.9,0,0,1,24.923-11.24,70.4,70.4,0,0,1,28.329-.644,82.244,82.244,0,0,1,26.494,10.1,88.129,88.129,0,0,1,15.283,11.021,75.2,75.2,0,0,0-17.584-15.044,74.527,74.527,0,0,0-29-11.39,62.609,62.609,0,0,0-30.089,2.64,54.362,54.362,0,0,0-21.756,14.343q-1.422,1.534-2.714,3.179-.364.593-.719,1.189C653.2,84.545,653.061,84.782,652.922,85.02Z" transform="translate(-253.793 1650.154)" fill="#c9c8c7"/>
    <path id="Trazado_2403" data-name="Trazado 2403" d="M596.339,113.337c-16.217,21.223-31.123,25.678-38.3,26.493q.126.192.249.384l.018.028c.076.119.151.239.226.359l.073.12c.057.094.114.187.171.282.083.14.166.281.247.423a24.163,24.163,0,0,1,2.2,5.06q.134.45.244.9a15.55,15.55,0,0,1,.422,2.747c.007.124.012.248.016.371l0,.085c0,.121,0,.241,0,.362v.006c0,.134,0,.268-.009.4v.021q-.008.2-.022.395h0c14.107-4.868,23.16-8.688,31.171-17.472a60,60,0,0,0,4.714-5.914q1.163-1.651,2.323-3.494a136.166,136.166,0,0,0,7.125-13.062c13.68-28.18,11.8-34.5,34.529-53.982,22.5-19.29,57.89-11.852,58.585-11.7h.012a124.908,124.908,0,0,0-13.809-2.426,85.586,85.586,0,0,0-27.627.931C622.7,55.649,617.05,86.233,596.339,113.337Z" transform="translate(-227.387 1655.64)" fill="#eae9e8"/>
    <path id="Trazado_2404" data-name="Trazado 2404" d="M609.666,115.557q.253-.5.5-1c.064-.128.127-.256.19-.385q.263-.534.523-1.071l.137-.282q.326-.677.648-1.354.263-.557.525-1.114l.029-.063q.251-.534.5-1.069l.053-.113q.238-.514.473-1.028c.025-.054.05-.108.074-.162q.227-.5.452-.992l.091-.2q.218-.481.435-.963c.036-.078.071-.156.106-.234q.212-.471.423-.942l.113-.253q.21-.471.419-.941l.109-.244q.226-.507.451-1.016l.038-.086q.407-.916.812-1.834.526-1.191,1.054-2.38.242-.548.486-1.095c.107-.2.216-.4.324-.6.036-.067.073-.136.109-.2.073-.136.146-.272.218-.41l.133-.251.2-.378.145-.278.188-.363.155-.3.179-.348c.056-.109.111-.218.167-.328l.16-.313c.064-.126.128-.252.193-.38l.068-.133c.373-.737.756-1.5,1.146-2.271.254-.5.51-1.011.772-1.528.121-.238.244-.478.366-.719.223-.439.448-.877.677-1.322.135-.262.273-.525.41-.789.151-.289.3-.575.451-.867l.013-.016c.136-.258.268-.512.405-.771l.059-.111q.187-.35.378-.7l.063-.118q.2-.363.4-.726l.04-.072q.625-1.134,1.286-2.266c.139-.239.283-.475.425-.714q.354-.6.719-1.189l-.044.054q.238-.39.481-.777l.044-.069q.216-.345.436-.686l.088-.137q.2-.312.406-.621c.037-.056.073-.113.111-.169q.253-.38.509-.757a65.217,65.217,0,0,1,40.4-27.514,77.018,77.018,0,0,1,30.233-.8c-.695-.148-36.08-7.586-58.585,11.7-22.728,19.482-20.849,25.8-34.529,53.982a136.179,136.179,0,0,1-7.125,13.062q-1.163,1.846-2.323,3.494a59.989,59.989,0,0,1-4.714,5.914c-8.011,8.784-17.064,12.6-31.171,17.472h0c-.008.1-.016.206-.026.308v.015c-.011.106-.023.211-.036.316a10.045,10.045,0,0,1-.909,3.081,9.117,9.117,0,0,1-.525.937c-.065.1-.131.2-.2.3a8.888,8.888,0,0,1-.921,1.116,41.6,41.6,0,0,0,7.5-1.982,68.447,68.447,0,0,0,8.514-3.236,53.783,53.783,0,0,0,12.426-8.166c7.618-6.635,13.5-15.016,18.42-23.779q1.122-2,2.173-4.036.348-.671.689-1.346Z" transform="translate(-227.877 1655.007)" fill="#fff"/>
    <path id="Trazado_2405" data-name="Trazado 2405" d="M723.718,122.325a38.2,38.2,0,0,0-14.542-13.15,28.312,28.312,0,0,0-9.409-2.828,62.156,62.156,0,0,0-10.763-.14,63.055,63.055,0,0,0-12.6,2.306c-6.174,1.808-11.834,4.3-11.625,4.168q1.262-.812,2.545-1.592a83.548,83.548,0,0,1,10.757-5.659,60.329,60.329,0,0,1,11.567-3.607c7.955-1.6,16.373-1.465,24.016,1.458a41.449,41.449,0,0,1,16.706,12.034,46.98,46.98,0,0,1,5.786,8.588c1.528,2.933,2.729,6.039,4.49,8.849a12.206,12.206,0,0,0,7.251,5.789q.278.072.558.131a2.022,2.022,0,0,0,2.453-1.844v-.022a14.5,14.5,0,0,0-1.4-6.23A58.685,58.685,0,0,0,746.745,125,71.1,71.1,0,0,0,740.087,115,70.365,70.365,0,0,0,722.1,98.98,61.916,61.916,0,0,0,674.574,91.3a67.825,67.825,0,0,0-12.686,4.732c-5.784,2.8-10.721,5.921-10.592,5.772a83.91,83.91,0,0,1,10.368-7.878,69.066,69.066,0,0,1,12.677-6.5,77.148,77.148,0,0,1,26.839-3.266,62.819,62.819,0,0,1,25.759,6.929A53.2,53.2,0,0,1,737.406,98.3a58.775,58.775,0,0,1,8.878,10.109,95.32,95.32,0,0,1,7.1,11.749q1.564,3.059,2.884,6.233.176.418.349.838h0l.161-.123.017-.013.152-.121.028-.023c.1-.083.2-.168.289-.258l.028-.027c.044-.044.088-.089.13-.136l.019-.022q.058-.065.111-.135l.019-.024c.038-.051.074-.1.11-.158l.022-.036c.036-.056.07-.115.1-.177a4.224,4.224,0,0,0,.41-2.215,18.607,18.607,0,0,0-1.106-4.551,44.734,44.734,0,0,0-4.013-8.728A55.828,55.828,0,0,0,740.5,96,67.861,67.861,0,0,0,706.2,81.432a66.569,66.569,0,0,0-36.21,5.548c-3.862,1.78-20.1,11.865-32.505,21.049q-.528,1.189-1.054,2.38-.406.918-.812,1.834l-.019.045a23.9,23.9,0,0,0,6.358-1.639,27.957,27.957,0,0,0,7.364-4.348q1-.822,1.917-1.74a20.111,20.111,0,0,1-2.735,4.109,20.564,20.564,0,0,1-2.5,2.447,7.878,7.878,0,0,0-2.35,2.191,2.444,2.444,0,0,0,.416,2.669,3.8,3.8,0,0,0,3.08,1.222,19.109,19.109,0,0,0,3.784-.622q1.94-.436,3.846-1.011,2.244-.679,4.424-1.549a45.735,45.735,0,0,1-21.682,7.572,43.647,43.647,0,0,1-6.193.076q-.322.678-.648,1.354l-.137.282q-.26.536-.523,1.071c-.063.128-.126.256-.19.385q-.248.5-.5,1l-.192.383q-.342.675-.689,1.346,1.771-.015,3.54-.121a59.769,59.769,0,0,0,17.271-3.561,85.381,85.381,0,0,0,9.81-3.655c7.689-3.322,15.282-7.293,23.742-8.58a40.224,40.224,0,0,1,19.948,2.251,38.408,38.408,0,0,1,16.1,11.269c4.961,6.01,7.289,13.445,9.069,20.746.223.915.438,1.832.651,2.75a29.184,29.184,0,0,0,1.091-8.093A34.328,34.328,0,0,0,723.718,122.325Z" transform="translate(-247.54 1644.804)" fill="#c9c8c7"/>
    <path id="Trazado_2406" data-name="Trazado 2406" d="M636.28,122.834l-.108.244q-.209.471-.419.941l-.114.253q-.211.471-.423.942c-.035.078-.07.156-.106.234q-.216.482-.435.963l-.091.2q-.225.5-.452.992c-.024.054-.049.108-.074.162q-.236.514-.473,1.028l-.053.113q-.247.535-.5,1.069l-.029.063q-.261.558-.525,1.114a43.649,43.649,0,0,0,6.193-.076,45.735,45.735,0,0,0,21.682-7.572q-2.179.866-4.424,1.549-1.9.575-3.846,1.011a19.111,19.111,0,0,1-3.784.622,3.8,3.8,0,0,1-3.08-1.222,2.444,2.444,0,0,1-.416-2.669,7.878,7.878,0,0,1,2.35-2.191,20.555,20.555,0,0,0,2.5-2.447,20.108,20.108,0,0,0,2.735-4.109q-.914.915-1.916,1.74a27.958,27.958,0,0,1-7.364,4.348,23.9,23.9,0,0,1-6.358,1.639l-.019.041Q636.506,122.327,636.28,122.834Z" transform="translate(-248.695 1635.315)" fill="#bfbebe"/>
    <path id="Trazado_2407" data-name="Trazado 2407" d="M746.276,45.217c-2.722-.525-5.463-.943-8.218-1.216a124.914,124.914,0,0,1,13.809,2.426C750.011,45.988,748.149,45.578,746.276,45.217Z" transform="translate(-278.914 1655.365)" fill="#cacaca"/>
    <path id="Trazado_2408" data-name="Trazado 2408" d="M530.052,52.927a104.689,104.689,0,0,0,21.113,6.48,60.314,60.314,0,0,0,14.526.894,60.913,60.913,0,0,1-18.931-5.571c-7.561-3.472-14.712-7.831-21.917-11.972q-5.628-3.234-11.246-6.489c-3.612-2.083-7.188-4.249-10.876-6.2a35.82,35.82,0,0,0-10.844-4.046q-.709-.115-1.413-.169a7.981,7.981,0,0,0-.912.463,7.5,7.5,0,0,1,6.438,1.741c2.719,2.517,3.2,6.758,1.814,10.073a11.117,11.117,0,0,1-.622,1.253c4.212,1.343,8.338,2.981,12.4,4.678C516.443,46.929,523.169,50.111,530.052,52.927Z" transform="translate(-207.784 1660.559)" fill="#fff"/>
    <path id="Trazado_2409" data-name="Trazado 2409" d="M566.7,119.19l.3-.278q1.526-1.433,3.024-2.872l.071-.068c3.913-3.759,7.693-7.542,11.359-11.238-1.994,1.682-3.546,2.981-4.1,3.425-25.076,20.235-57.137,22.184-73.514,21.1a24.2,24.2,0,0,1-.731,4.141c-.454,1.777-1.325,3.764-.306,5.5.824,1.4,1.829,4.41,14.041,4.323,0,0,27.825-3.642,48.385-22.657Q565.971,119.877,566.7,119.19Z" transform="translate(-211.442 1637.981)" fill="#eae9e8"/>
    <path id="Trazado_2410" data-name="Trazado 2410" d="M575.826,105.2c.55-.445,2.1-1.743,4.1-3.425l1.068-1.079.194-.2.822-.829.929-.939.262-.264.727-.735.349-.351.657-.663.349-.352.672-.677.318-.32.971-.976c-40.247,35.024-86.947,22.852-88.518,22.636-.584-.081-1.162-.18-1.739-.29l0,.025a5.94,5.94,0,0,1,.749.249,6.6,6.6,0,0,1,2.663,2.027,10.039,10.039,0,0,1,1.918,7.257C518.689,127.384,550.75,125.435,575.826,105.2Z" transform="translate(-209.911 1640.941)" fill="#fff"/>
    <path id="Trazado_2411" data-name="Trazado 2411" d="M463.911,82.9c1.876,2.029,3.729,4.086,5.774,5.95a39.871,39.871,0,0,0,5.946,4.435c8.751,5.4,19.22,7.966,29.325,9.28,11.038,1.435,22.48,1.734,33.219-1.291,16.2-4.564,27.174-10.664,34.48-16.154,1.314-1.111,5.3-5.455,8.408-8.719,1.151-1.21,2.18-2.244,2.906-2.961-4.941,3.9-9.7,7.875-11.37,9.085-3.656,2.641-7.254,5.456-11.4,7.308-9.186,4.106-19.573,3.959-29.307,2.239A129.748,129.748,0,0,1,501.251,82.1c-9.765-4.411-19.154-9.8-29.449-12.941a52.54,52.54,0,0,0-14.617-2.392,35.3,35.3,0,0,0-13.542,2.373q1.564.669,3.119,1.38c.884-.12,1.794-.208,2.792-.249,3.46-.142,7.562-.56,10.992-.1a87.6,87.6,0,0,1,20.286,5.658c6.6,2.6,12.987,6.43,19.457,9.335a150.586,150.586,0,0,0,19.691,7.61,74.6,74.6,0,0,0,10.23,2.256,29.7,29.7,0,0,0,10.007.081q.279-.057.557-.123a15.123,15.123,0,0,1-6.308,2.161,49.607,49.607,0,0,1-10.36.411,72.5,72.5,0,0,1-10.353-1.425,67.887,67.887,0,0,1-9.9-2.735,74.541,74.541,0,0,1-9.268-4.378c-2.969-1.592-5.926-3.2-8.936-4.715a79.206,79.206,0,0,0-18.661-7.067,47.136,47.136,0,0,0-10.571-1.13c.195.148.39.3.581.451A43.2,43.2,0,0,1,463.911,82.9Z" transform="translate(-194.644 1648.85)" fill="#dbdbdb"/>
    <path id="Trazado_2412" data-name="Trazado 2412" d="M486.9,85.59c3.01,1.515,5.968,3.123,8.936,4.715a74.54,74.54,0,0,0,9.268,4.378,67.888,67.888,0,0,0,9.9,2.735,72.5,72.5,0,0,0,10.353,1.425,49.606,49.606,0,0,0,10.36-.411,15.123,15.123,0,0,0,6.308-2.161q-.277.066-.557.123a29.7,29.7,0,0,1-10.007-.081,74.6,74.6,0,0,1-10.23-2.256,150.587,150.587,0,0,1-19.691-7.61c-6.47-2.905-12.856-6.732-19.457-9.335A87.6,87.6,0,0,0,461.8,71.454c-3.43-.464-7.532-.046-10.992.1-1,.041-1.908.129-2.792.249a50.494,50.494,0,0,1,9.654,5.594,47.136,47.136,0,0,1,10.571,1.13A79.206,79.206,0,0,1,486.9,85.59Z" transform="translate(-195.895 1647.568)" fill="#eae9e8"/>
    <path id="Trazado_2413" data-name="Trazado 2413" d="M805.738,57.421a9.015,9.015,0,0,0-.448-3.252,3.334,3.334,0,0,0-2.747-2.09,7.887,7.887,0,0,0-3.328.522c-1.26.4-2.534.756-3.826,1.043a45.725,45.725,0,0,1-7.752,1,71.46,71.46,0,0,1-15.948-1.236c-8.932-1.6-17.592-4.37-26.412-6.458h-.012a77.018,77.018,0,0,0-30.233.8c.223-.014.446-.028.669-.039l.513-.025.133-.006q.318-.014.636-.025h0l.652-.019a42.028,42.028,0,0,1,7.147-.2,76.75,76.75,0,0,1,11.584,1.2,123.116,123.116,0,0,1,22.61,6.639c3.664,1.419,7.272,2.966,10.873,4.535a107.366,107.366,0,0,0,11.059,4.29c6.8,2.1,14.345,2.922,21.161.422a20.859,20.859,0,0,0,3.38-1.6A34.016,34.016,0,0,0,805.738,57.421Z" transform="translate(-272.323 1654.837)" fill="#c9c8c7"/>
    <path id="Trazado_2414" data-name="Trazado 2414" d="M781.956,64.734a107.372,107.372,0,0,1-11.059-4.29c-3.6-1.569-7.209-3.116-10.873-4.535a123.115,123.115,0,0,0-22.61-6.639,76.751,76.751,0,0,0-11.584-1.2,42.028,42.028,0,0,0-7.147.2c.261-.006.522-.011.783-.015h.006c.246,0,.492,0,.738,0h.063q.337,0,.675,0h.115q.385,0,.771.013.488.012.977.029l.333.014c.215.009.429.018.644.029l.4.023c.191.011.38.021.571.033l.435.031c.179.012.359.024.538.039l.455.037.515.044.471.045.5.049c.162.016.323.035.485.053l.479.054.5.061.463.059.512.069.445.062.527.077.426.066.542.086.405.068c.187.031.373.063.56.1l.382.069.582.107.35.068.608.12.314.065.643.135.26.057c.231.051.463.1.693.154l.183.043c.256.059.513.118.768.181l.042.01a82.275,82.275,0,0,1,8.115,2.415l0,0q.436.154.87.313l.025.009q.428.157.854.319l.034.013q.424.161.847.326l.036.014q.423.166.844.337l.031.012q.425.172.848.349l.017.007q.429.18.857.363,1.145.348,2.276.735a96.085,96.085,0,0,1,16.318,7.845c5.121,2.917,10.3,5.841,15.958,7.591a27.639,27.639,0,0,0,15.791.621,20.6,20.6,0,0,0,2.075-.717,14.891,14.891,0,0,0,2.709-6.458c.056-.308.1-.617.148-.926a20.864,20.864,0,0,1-3.38,1.6C796.3,67.656,788.752,66.838,781.956,64.734Z" transform="translate(-273.368 1654.219)" fill="#bfbebe"/>
    <path id="Trazado_2415" data-name="Trazado 2415" d="M798.823,73.789c-5.659-1.749-10.837-4.674-15.958-7.591a96.084,96.084,0,0,0-16.318-7.845q-1.131-.388-2.276-.735c.236.1.47.2.705.308s.5.221.747.333A85.427,85.427,0,0,1,778.5,65.315c.284.193,11.315,9.007,19.018,16.222,1.814,1.7,3.6,3.416,5.283,5.066a6.005,6.005,0,0,1,.485-4.6,7.95,7.95,0,0,1,4.073-2.949c1.817-.724,3.7-1.274,5.459-2.151a11.061,11.061,0,0,0,3.868-3.208,20.589,20.589,0,0,1-2.075.717A27.639,27.639,0,0,1,798.823,73.789Z" transform="translate(-286.417 1651.468)" fill="#b5b1b1"/>
    <path id="Trazado_2416" data-name="Trazado 2416" d="M765.421,128.772c.055-.044.11-.086.165-.127l.055-.042.037-.028.1-.079h0q-.173-.42-.349-.838-1.324-3.171-2.884-6.233a95.32,95.32,0,0,0-7.1-11.749,58.775,58.775,0,0,0-8.878-10.109A53.2,53.2,0,0,0,736.1,92.357a62.819,62.819,0,0,0-25.759-6.929A77.148,77.148,0,0,0,683.5,88.694a69.066,69.066,0,0,0-12.677,6.5,83.91,83.91,0,0,0-10.368,7.878c-.129.148,4.807-2.971,10.592-5.772a67.825,67.825,0,0,1,12.686-4.732,61.916,61.916,0,0,1,47.529,7.679,70.365,70.365,0,0,1,17.983,16.023,71.1,71.1,0,0,1,6.659,9.994,58.687,58.687,0,0,1,2.764,5.578,14.5,14.5,0,0,1,1.4,6.23v.022a2.022,2.022,0,0,1-2.453,1.844q-.279-.059-.558-.131a12.206,12.206,0,0,1-7.251-5.789c-1.76-2.81-2.961-5.916-4.49-8.849a46.98,46.98,0,0,0-5.786-8.588,41.449,41.449,0,0,0-16.706-12.034c-7.642-2.924-16.061-3.056-24.016-1.458a60.329,60.329,0,0,0-11.567,3.607,83.548,83.548,0,0,0-10.757,5.659q-1.284.778-2.545,1.592c-.208.133,5.451-2.36,11.625-4.168a63.055,63.055,0,0,1,12.6-2.306,62.156,62.156,0,0,1,10.763.14,28.312,28.312,0,0,1,9.409,2.828,38.2,38.2,0,0,1,14.542,13.15,34.328,34.328,0,0,1,5.949,18.17,29.184,29.184,0,0,1-1.091,8.093c.011.051.024.1.036.155a.8.8,0,0,0,.418.517c.158-.373.316-.745.469-1.119a17.5,17.5,0,0,0,1.345-5,38.523,38.523,0,0,0,.053-5.347,35.586,35.586,0,0,0-4.43-16.155,34.226,34.226,0,0,0-10.115-11.021,38.416,38.416,0,0,0-16.544-6.31,51.326,51.326,0,0,0-15.946,1.161c.7-.251,1.407-.485,2.121-.7q1.011-.3,2.031-.545a.254.254,0,0,1,.106-.061,30.884,30.884,0,0,1,8.885-1.258,37.174,37.174,0,0,1,8.839.938,42.1,42.1,0,0,1,24.323,16.953,44.112,44.112,0,0,1,3.858,6.678c1.242,2.643,2.316,5.361,3.576,8a14.194,14.194,0,0,0,3.57,5.066c1.6-.143,3.236-.185,4.775-.436a15.073,15.073,0,0,0,6.021-2.235,19.328,19.328,0,0,0,.1-2.047c-.016-4.039-1.5-7.98-3.233-11.59A64.481,64.481,0,0,0,727.577,95.17a62.442,62.442,0,0,0-23.149-5.834,59.931,59.931,0,0,0-12.275.5c-4.057.612-12.3,2.649-12.142,2.581.945-.4,1.907-.757,2.852-1.157a45.648,45.648,0,0,1,11.389-2.926,48.854,48.854,0,0,1,6.911-.63,66.819,66.819,0,0,1,7.223.125,65.405,65.405,0,0,1,14.218,2.283,69.541,69.541,0,0,1,23.33,12.179,62.1,62.1,0,0,1,18.836,28.559,3.316,3.316,0,0,1,.094-1.267A1.622,1.622,0,0,1,765.421,128.772Z" transform="translate(-256.702 1643.541)" fill="#bfbebe"/>
    <path id="Trazado_2417" data-name="Trazado 2417" d="M759.819,144.3c-1.26-2.635-2.334-5.353-3.576-8a44.112,44.112,0,0,0-3.858-6.678,42.1,42.1,0,0,0-24.323-16.953,37.174,37.174,0,0,0-8.839-.938,30.884,30.884,0,0,0-8.885,1.258.254.254,0,0,0-.106.061q-1.019.247-2.031.545c-.714.211-1.42.444-2.121.7a51.326,51.326,0,0,1,15.946-1.161,38.416,38.416,0,0,1,16.544,6.31,34.226,34.226,0,0,1,10.115,11.021,35.586,35.586,0,0,1,4.43,16.155,38.523,38.523,0,0,1-.053,5.347,17.5,17.5,0,0,1-1.345,5c-.153.374-.31.747-.469,1.119a.986.986,0,0,0,1.338-.3c1.29-2.52,2.77-5.295,5.323-6.894a12.109,12.109,0,0,1,5.479-1.527A14.194,14.194,0,0,1,759.819,144.3Z" transform="translate(-269.76 1635.979)" fill="#b5b1b1"/>
    <path id="Trazado_2418" data-name="Trazado 2418" d="M753.777,103.226a69.541,69.541,0,0,0-23.33-12.179,65.405,65.405,0,0,0-14.218-2.283A66.819,66.819,0,0,0,709,88.639a48.854,48.854,0,0,0-6.911.63A45.649,45.649,0,0,0,690.7,92.195c-.944.4-1.906.757-2.852,1.157-.16.068,8.085-1.969,12.142-2.581a59.93,59.93,0,0,1,12.275-.5,62.442,62.442,0,0,1,23.149,5.834,64.481,64.481,0,0,1,30.419,30.322c1.737,3.61,3.217,7.551,3.233,11.59a19.328,19.328,0,0,1-.1,2.047,9.648,9.648,0,0,0,2.434-2.333,7.061,7.061,0,0,0,1.4-4.207c-.009-.517-.136-1.137-.185-1.746a62.1,62.1,0,0,0-18.836-28.559Z" transform="translate(-264.543 1642.601)" fill="#b5b1b1"/>
    <path id="Trazado_2419" data-name="Trazado 2419" d="M743.248,62.658A85.423,85.423,0,0,0,730.47,55.6q-.373-.169-.747-.333c-.235-.1-.47-.206-.705-.308q-.428-.184-.857-.363l-.017-.007q-.423-.177-.848-.349l-.031-.012q-.422-.171-.844-.337l-.036-.014q-.423-.165-.847-.326l-.034-.013q-.426-.162-.854-.319l-.025-.009q-.435-.158-.87-.313l0,0a82.277,82.277,0,0,0-8.115-2.415l-.042-.01c-.255-.062-.512-.121-.768-.181l-.183-.043c-.231-.053-.462-.1-.693-.154l-.26-.057-.643-.135-.314-.065-.608-.12-.35-.068-.582-.107-.382-.069c-.186-.034-.373-.065-.56-.1l-.405-.068-.542-.086-.426-.066-.527-.077-.445-.062-.512-.069-.463-.059-.5-.061-.479-.054c-.162-.018-.323-.036-.485-.053l-.5-.049-.471-.045-.515-.044-.455-.037c-.179-.014-.359-.026-.538-.039l-.435-.031c-.191-.012-.38-.022-.571-.033l-.4-.023c-.215-.011-.429-.019-.644-.029l-.333-.014q-.488-.017-.977-.029-.385-.009-.771-.013h-.115q-.338,0-.675,0H698c-.246,0-.492,0-.738,0h-.006c-.261,0-.522.009-.783.015l-.652.019h0q-.318.011-.636.025l-.133.006-.513.025c-.223.011-.446.025-.669.039a65.217,65.217,0,0,0-40.4,27.514q-.257.377-.509.757c-.038.056-.074.113-.111.169q-.2.309-.406.621l-.088.137q-.219.342-.436.686l-.044.069q-.243.388-.481.777l.044-.054q1.292-1.642,2.714-3.179a54.363,54.363,0,0,1,21.756-14.343,62.609,62.609,0,0,1,30.089-2.64,74.527,74.527,0,0,1,29,11.39,75.2,75.2,0,0,1,17.584,15.044A88.128,88.128,0,0,0,737.3,74.4a82.244,82.244,0,0,0-26.494-10.1,70.4,70.4,0,0,0-28.329.644,66.9,66.9,0,0,0-24.923,11.24,49.354,49.354,0,0,0-9.892,9.632l-.013.016c-.153.291-.3.577-.451.867-.137.263-.276.527-.41.789-.23.445-.454.883-.677,1.322-.122.239-.246.481-.366.719-.262.517-.518,1.024-.772,1.528-.389.773-.773,1.535-1.146,2.271l-.068.133c-.064.128-.128.253-.193.38l-.16.313c-.056.111-.111.219-.167.328l-.179.348-.155.3-.188.363-.145.278-.2.378-.133.251c-.073.138-.146.275-.218.41-.036.068-.073.137-.109.2-.108.2-.217.4-.324.6q-.244.547-.486,1.095c12.4-9.184,28.643-19.269,32.505-21.049a66.57,66.57,0,0,1,36.21-5.548,67.861,67.861,0,0,1,34.307,14.564,55.828,55.828,0,0,1,12.6,14.49,44.734,44.734,0,0,1,4.013,8.728,18.607,18.607,0,0,1,1.106,4.551,4.224,4.224,0,0,1-.41,2.215c-.032.062-.066.121-.1.177l-.022.036c-.036.055-.072.107-.11.158l-.019.024q-.054.07-.111.135l-.019.022c-.042.046-.086.092-.13.136l-.028.027c-.092.09-.189.175-.289.258l-.028.023-.152.121-.017.013-.161.123h0l-.1.079-.037.028-.055.042c-.055.041-.11.084-.165.127a1.622,1.622,0,0,0-.556.806,5.036,5.036,0,0,0,1.363.2,6.037,6.037,0,0,0,2.206-.337,8.183,8.183,0,0,0,2.492-1.413,8.525,8.525,0,0,0,1.876-6.083c-.031-2.028-.334-4.054-.206-6.08a95.19,95.19,0,0,0-12.551-20.432A89.1,89.1,0,0,0,737.637,68.74a83.156,83.156,0,0,0-20.559-10.967A81.407,81.407,0,0,0,705.7,54.565a52.2,52.2,0,0,0-8.227-.782c-3.966-.03-7.8.493-7.582.413a28.284,28.284,0,0,1,3-.922,44.565,44.565,0,0,1,12.633-1.4A58.213,58.213,0,0,1,718.281,53.9a76.424,76.424,0,0,1,23.39,11.111,130.664,130.664,0,0,1,19.923,17.479c4.011,4.206,7.891,8.553,11.676,12.977.078-.032.156-.064.235-.094a6.938,6.938,0,0,1,4.079-.425,4.6,4.6,0,0,1,1.019.385c.009-.114-4.844-5.3-11.054-11.391-1.685-1.65-3.468-3.367-5.283-5.066C754.563,71.665,743.532,62.85,743.248,62.658Z" transform="translate(-251.162 1654.125)" fill="#dbdbdb"/>
    <path id="Trazado_2420" data-name="Trazado 2420" d="M761.234,66.423a76.424,76.424,0,0,0-23.39-11.111,58.214,58.214,0,0,0-12.755-2.026,44.565,44.565,0,0,0-12.633,1.4,28.284,28.284,0,0,0-3,.922c-.214.08,3.615-.443,7.582-.413a52.2,52.2,0,0,1,8.227.782,81.407,81.407,0,0,1,11.374,3.208A83.156,83.156,0,0,1,757.2,70.148a89.1,89.1,0,0,1,16.869,16.113,95.19,95.19,0,0,1,12.551,20.432c.019-.286.045-.572.082-.857a12.8,12.8,0,0,1,1.929-5.525,9.16,9.16,0,0,1,4.2-3.432c-3.784-4.424-7.664-8.772-11.676-12.977A130.665,130.665,0,0,0,761.234,66.423Z" transform="translate(-270.725 1652.717)" fill="#eae9e8"/>
  </g>
</svg>
