<svg xmlns="http://www.w3.org/2000/svg" xmlns:xlink="http://www.w3.org/1999/xlink" width="920" height="258" viewBox="0 0 920 258">
  <defs>
    <clipPath id="clip-path">
      <rect id="Rectángulo_980" data-name="Rectángulo 980" width="17.918" height="45.629" fill="none"/>
    </clipPath>
  </defs>
  <g id="Grupo_3611" data-name="Grupo 3611" transform="translate(-112 -2058)">
    <g id="Grupo_3583" data-name="Grupo 3583">
      <rect id="Rectángulo_981" data-name="Rectángulo 981" width="920" height="258" transform="translate(112 2058)" fill="#3caea4"/>
      <path id="Trazado_2355" data-name="Trazado 2355" d="M0,115.207,920,.934V141H0Z" transform="translate(112 2173)" fill="#dedede" opacity="0.251"/>
    </g>
    <path id="Trazado_2362" data-name="Trazado 2362" d="M2354.81,1367.76l264.619,63.228,27.627,6.6Z" transform="translate(-1740.582 851.594)" fill="#272727"/>
    <g id="Grupo_3561" data-name="Grupo 3561" transform="translate(248.927 2151.505)">
      <rect id="Rectángulo_864" data-name="Rectángulo 864" width="4.407" height="0.04" transform="translate(71.795 61.007)" fill="#fff"/>
      <path id="Trazado_1660" data-name="Trazado 1660" d="M203.236,473.37H395.072a6.913,6.913,0,0,0,5.784-10.714,2.176,2.176,0,0,1-1.046.276H176.688l4.253,4.6a2.179,2.179,0,0,1-.1,3.117l-2.976,2.717h25.371Z" transform="translate(-127.034 -412.364)" fill="#59b5a9"/>
      <path id="Trazado_1661" data-name="Trazado 1661" d="M398.976,462.051a2.176,2.176,0,0,0,1.046-.276h0c-.015-.022-.025-.047-.04-.069a6.92,6.92,0,0,0-5.714-3.025H352.631a2.152,2.152,0,0,1-.908.206h-178.8l2.924,3.164h223.13Z" transform="translate(-126.199 -411.483)" fill="#fff"/>
      <path id="Trazado_1662" data-name="Trazado 1662" d="M345.235,428.942v15.636h-94.3a2.143,2.143,0,0,0-1.642-.763,5.665,5.665,0,0,1-.576-11.3l71.558-7.4a2.171,2.171,0,0,0-.444-4.32l-71.566,7.4a9.992,9.992,0,0,0-8.087,14.056,9.424,9.424,0,0,0,.965,1.681c.156.226.319.436.49.646H167.218c-.047,0-.086.008-.132.008l-1.136-1.222.132-.156a13.016,13.016,0,0,0,1.105-14.4,13.215,13.215,0,0,0-2.351-3.02c-.054-.054-.132-.07-.187-.117,15.309-1.245,46.808-3.471,81.264-5.837.327.031.646.086.973.086a9.618,9.618,0,0,0,2.444-.319c30.292-2.07,62.507-4.226,87.81-5.892a19.2,19.2,0,0,1,2.109,1.642,18.328,18.328,0,0,1,5.985,13.589Z" transform="translate(-124.365 -401.513)" fill="#ffcb96"/>
      <path id="Trazado_1663" data-name="Trazado 1663" d="M147.543,431.63a7.438,7.438,0,0,0-1.823,3.569,6.386,6.386,0,0,0-.212,3.378,5.241,5.241,0,0,0,.481,1.21l3.171-3.171a2.061,2.061,0,0,1,1.578-.636,2.17,2.17,0,0,1,1.551.7l6.4,6.923a8.657,8.657,0,0,0-1.13-11.2,2.121,2.121,0,0,1-.535-.9,2.151,2.151,0,0,1,.425-2.112c-3.737.318-6.072.551-6.677.678A7.412,7.412,0,0,0,147.543,431.63Z" transform="translate(-120.089 -404.989)" fill="#ffcb96"/>
      <path id="Trazado_1664" data-name="Trazado 1664" d="M268.936,415.852l-.108.007a5.577,5.577,0,0,0,3.019-.206l-.161.011Z" transform="translate(-147.46 -401.944)" fill="#fff"/>
      <path id="Trazado_1665" data-name="Trazado 1665" d="M443.333,411.756a15.8,15.8,0,0,0-9.064-3.975,14.5,14.5,0,0,0-7.492,1.482,13.936,13.936,0,0,0-6.67,7.563,13.4,13.4,0,0,0-.324,8c.732,2.6,2.16,4.227,4.753,7.186a42.408,42.408,0,0,0,5.439,5.175,16.347,16.347,0,0,0,19.249-16.219v-.021A19.019,19.019,0,0,0,443.333,411.756Z" transform="translate(-180.821 -400.19)" fill="#ffcb96"/>
      <path id="Trazado_1666" data-name="Trazado 1666" d="M430.868,450.992a2.116,2.116,0,0,0,2.124.261,20.57,20.57,0,0,1-2.291-.393C430.758,450.9,430.812,450.949,430.868,450.992Z" transform="translate(-183.345 -409.749)" fill="#fff"/>
      <path id="Trazado_1668" data-name="Trazado 1668" d="M423.678,431.1c-2.593-2.959-4.022-4.588-4.753-7.186a13.4,13.4,0,0,1,.324-8,13.936,13.936,0,0,1,6.67-7.563,14.5,14.5,0,0,1,7.492-1.482,15.8,15.8,0,0,1,9.063,3.975,19.02,19.02,0,0,1,5.891,9.193c.01.034.019.068.029.1,0-.014,0-.027,0-.041a16.484,16.484,0,1,0-19.224,16.223l-.056-.044A42.412,42.412,0,0,1,423.678,431.1Z" transform="translate(-179.962 -399.276)" fill="#fff"/>
      <rect id="Rectángulo_865" data-name="Rectángulo 865" width="4.209" height="62.262" transform="translate(250.279 65.389)" fill="#fff"/>
      <path id="Trazado_1669" data-name="Trazado 1669" d="M172.292,482.052h-1.134l-3.075,2.808v59.454h4.209Z" transform="translate(-125.126 -416.663)" fill="#fff"/>
      <path id="Trazado_1670" data-name="Trazado 1670" d="M428.372,439.543a20.861,20.861,0,0,0,23.13-20.684c0-.223-.026-.44-.033-.662a20.808,20.808,0,1,0-25.387,20.953A20.555,20.555,0,0,0,428.372,439.543Zm2.31-4.206a16.47,16.47,0,1,1,16.478-16.479c0,.014,0,.027,0,.041A16.5,16.5,0,0,1,430.682,435.337Z" transform="translate(-178.725 -398.039)" fill="#272727"/>
      <path id="Trazado_1671" data-name="Trazado 1671" d="M380.957,442.22H338.1V426.794a22.786,22.786,0,0,0-24.75-22.688l-68.087,5.254-64.88,5.184-36.347,2.623A14.134,14.134,0,0,0,133.562,439.4l-20.034,20.034a2.17,2.17,0,0,0-.093,2.973l19.956,22.672a2.189,2.189,0,0,0,1.51.732h.125a2.185,2.185,0,0,0,1.463-.568L151.5,471.524v57.7a2.172,2.172,0,0,0,2.171,2.171h8.585a2.172,2.172,0,0,0,2.171-2.171V464.753h194.4v64.476A2.172,2.172,0,0,0,361,531.4h8.577a2.172,2.172,0,0,0,2.172-2.171V464.753h9.207a11.266,11.266,0,1,0,0-22.532ZM144.365,421.5l81.567-5.9a2.105,2.105,0,0,0,.856-.249l16.531-1.487,70.391-5.433a18.17,18.17,0,0,1,11.955,3.129,19.2,19.2,0,0,1,2.109,1.642,18.328,18.328,0,0,1,5.985,13.589V442.43h-94.3a2.143,2.143,0,0,0-1.642-.763,5.665,5.665,0,0,1-.576-11.3l71.558-7.4a2.171,2.171,0,0,0-.444-4.32l-71.566,7.4A9.992,9.992,0,0,0,228.7,440.1a9.426,9.426,0,0,0,.965,1.681c.156.226.319.436.49.646H155.744c-.047,0-.086.008-.132.008l-1.136-1.222.132-.156a13.016,13.016,0,0,0,1.105-14.4,13.215,13.215,0,0,0-2.351-3.02c-.054-.054-.132-.07-.187-.117a2.153,2.153,0,0,0-2.888.179.437.437,0,0,1-.039.062,2.243,2.243,0,0,0,.109,3.012,8.655,8.655,0,0,1,1.129,11.2l-6.4-6.927a2.159,2.159,0,0,0-1.549-.693,2.083,2.083,0,0,0-1.58.63l-3.168,3.176-2.094,2.094a8.422,8.422,0,0,1-.584-1.152,9.774,9.774,0,0,1,8.25-13.6Zm15.722,105.555h-4.242V467.562l3.074-2.81h1.167Zm-24.9-46.512-17.154-19.489h.008l25.4-25.4,18.687,20.228.031.031Zm232.218,46.512h-4.234v-62.3h4.234Zm13.55-66.647H163.675l.047-.039,2.973-2.716a2.163,2.163,0,0,0,.708-1.51,2.115,2.115,0,0,0-.342-1.261,2.246,2.246,0,0,0-.233-.3l-4.289-4.647-2.926-3.16h178.8a2.114,2.114,0,0,0,.911-.21h41.632a6.918,6.918,0,0,1,5.713,3.028l.047.07a6.906,6.906,0,0,1-5.76,10.749Z" transform="translate(-112.891 -399.366)" fill="#272727"/>
      <path id="Trazado_1672" data-name="Trazado 1672" d="M332.055,412.8c-25.3,1.666-57.517,3.822-87.809,5.892a9.618,9.618,0,0,1-2.444.319c-.327,0-.646-.054-.973-.086-34.456,2.366-65.954,4.592-81.264,5.837a2.153,2.153,0,0,0-2.888.179.434.434,0,0,1-.039.062c-3.736.319-6.071.553-6.678.677a7.39,7.39,0,0,0-3.222,1.564,7.472,7.472,0,0,0-1.829,3.565,6.488,6.488,0,0,0-.21,3.378,5.27,5.27,0,0,0,.483,1.214l-2.094,2.094a8.428,8.428,0,0,1-.584-1.152,9.774,9.774,0,0,1,8.25-13.6l81.567-5.9a2.1,2.1,0,0,0,.856-.249l16.531-1.487,70.391-5.433A18.17,18.17,0,0,1,332.055,412.8Z" transform="translate(-119.28 -400.601)" fill="#fff"/>
    </g>
    <g id="Rectángulo_982" data-name="Rectángulo 982" transform="translate(641 2215)" fill="#fff" stroke="#272727" stroke-width="4">
      <path d="M0,0H12a0,0,0,0,1,0,0V67a3,3,0,0,1-3,3H3a3,3,0,0,1-3-3V0A0,0,0,0,1,0,0Z" stroke="none"/>
      <path d="M4,2H8a2,2,0,0,1,2,2V67a1,1,0,0,1-1,1H3a1,1,0,0,1-1-1V4A2,2,0,0,1,4,2Z" fill="none"/>
    </g>
    <g id="Rectángulo_983" data-name="Rectángulo 983" transform="translate(849 2215)" fill="#fff" stroke="#272727" stroke-width="4">
      <path d="M0,0H12a0,0,0,0,1,0,0V69a3,3,0,0,1-3,3H3a3,3,0,0,1-3-3V0A0,0,0,0,1,0,0Z" stroke="none"/>
      <path d="M4,2H8a2,2,0,0,1,2,2V69a1,1,0,0,1-1,1H3a1,1,0,0,1-1-1V4A2,2,0,0,1,4,2Z" fill="none"/>
    </g>
    <rect id="Rectángulo_984" data-name="Rectángulo 984" width="249" height="4" transform="translate(630 2200)" fill="#fff"/>
    <g id="Rectángulo_985" data-name="Rectángulo 985" transform="translate(626 2196)" fill="none" stroke="#272727" stroke-width="5">
      <rect width="257" height="23" rx="11.5" stroke="none"/>
      <rect x="2.5" y="2.5" width="252" height="18" rx="9" fill="none"/>
    </g>
    <g id="Grupo_3562" data-name="Grupo 3562" transform="translate(337.943 1777.434)">
      <g id="Grupo_3024" data-name="Grupo 3024" transform="translate(145.057 304.02)">
        <path id="Trazado_1564" data-name="Trazado 1564" d="M147.433,350.18l-2.376-1.538c.243-.378,24.9-37.835,66.5-43.806,27.915-4,56.9,6.755,86.153,31.984l-1.848,2.144c-28.6-24.664-56.819-35.2-83.876-31.33C171.671,313.408,147.671,349.813,147.433,350.18Z" transform="translate(-145.057 -304.02)" fill="#f4564b"/>
        <g id="Grupo_3023" data-name="Grupo 3023" transform="translate(138.681 20.898)">
          <path id="Trazado_1565" data-name="Trazado 1565" d="M243.042,334.273l10.355-4.742,3.775-10.745,11.291,24.492Z" transform="translate(-243.042 -318.786)" fill="#f4564b"/>
        </g>
      </g>
    </g>
    <g id="Grupo_3563" data-name="Grupo 3563" transform="translate(542.009 1205.124) rotate(90)">
      <path id="Trazado_2336" data-name="Trazado 2336" d="M962.124,412.727l-1.325-.441c.028-.085.1-.265.212-.531,4.848-11.678,5.159-22.829.873-31.4-7.775-15.55-8.73-26.361-7.751-38.764l1.392.11c-.96,12.164-.023,22.769,7.608,38.03,4.469,8.938,4.174,20.5-.832,32.559-.091.219-.154.366-.177.436" transform="translate(-11.122 -189.281)" fill="#fff"/>
      <path id="Trazado_2337" data-name="Trazado 2337" d="M946.288,271.076c.437,1.047-.32,1.862,1.716,3.461s3.782,1.076,4.305.64,2.618-4.189,1.92-4.276-7.941.175-7.941.175" transform="translate(-5.81 -139.392)" fill="#353535"/>
      <path id="Trazado_2338" data-name="Trazado 2338" d="M944.955,81.245s.447-.263,1.2-.757,1.818-1.228,3.095-2.111c.638-.442,1.328-.925,2.07-1.417s1.524-1.018,2.362-1.517a23.969,23.969,0,0,1,2.665-1.429,9.99,9.99,0,0,1,1.5-.538,5.163,5.163,0,0,1,.829-.143,2.778,2.778,0,0,1,.446,0l.114.007.029,0h.014l.048.008.047.01.186.039.371.084c.126.034.261.083.39.125.258.089.533.17.764.27.484.19.962.385,1.424.6.935.4,1.822.868,2.685,1.3s1.68.89,2.454,1.321,1.5.85,2.166,1.247c2.667,1.573,4.374,2.761,4.374,2.761l-1.282-.59-3.359-1.589-4.735-2.243c-.866-.405-1.769-.8-2.682-1.2-.457-.2-.919-.384-1.384-.559-.237-.1-.451-.155-.675-.231-.112-.035-.217-.077-.336-.107l-.372-.08-.185-.042-.047-.01c-.036-.006.036.005.025,0h-.028l-.075-.005a1.821,1.821,0,0,0-.311,0,4.126,4.126,0,0,0-.665.106,8.962,8.962,0,0,0-1.356.47,29.065,29.065,0,0,0-2.606,1.291c-1.673.923-3.217,1.858-4.564,2.617s-2.486,1.369-3.3,1.752c-.406.194-.735.328-.956.42l-.341.138" transform="translate(-4.87)" fill="#ced8db"/>
      <path id="Trazado_2339" data-name="Trazado 2339" d="M971.167,98.175c-.748-.935-5.238.935-17.212.561s-15.958-1.309-15.9.187c.083,2.23.056,11.716.032,21.793-.008,3.547-.016,7.166-.019,10.568,0,3.6,0,6.964.016,9.736.022,4.019.068,6.8.158,7.292.1.539,1.825.821,4.383.96,7.216.4,21.056-.342,23.68.349a4.828,4.828,0,0,0,2.79.173c1.21-.471,1.441-2.183.952-5.973-.348-2.7.033-12.561.464-22.434.5-11.351,1.059-22.714.659-23.214" transform="translate(0 -17.349)" fill="#ced8db"/>
      <path id="Trazado_2340" data-name="Trazado 2340" d="M972.149,174.859a10.91,10.91,0,0,0-2.463-1.091,7.607,7.607,0,0,0-4.428.029c-6.969,1.951-14.826,4.562-21.265,1.625a13.244,13.244,0,0,1-2.092-1.19c-.008,3.309-.015,6.685-.017,9.859,0,3.362,0,6.5.014,9.083.02,3.749.064,6.345.147,6.8.091.5,1.7.766,4.089.9,6.732.369,19.643-.319,22.091.326a4.5,4.5,0,0,0,2.6.162c1.129-.439,1.344-2.036.888-5.572-.324-2.517.031-11.719.433-20.929" transform="translate(-2.703 -70.649)" fill="#3acce6"/>
      <path id="Trazado_2341" data-name="Trazado 2341" d="M972.734,104.085c-.7-.873-4.887.873-16.057.524s-14.887-1.221-14.835.175c.077,2.08.052,10.93.03,20.332a13.3,13.3,0,0,0,2.092,1.19c.5-1.487,1.066-2.962,1.717-4.418-.652,1.456-1.219,2.931-1.717,4.418,6.439,2.936,14.3.326,21.265-1.625a7.563,7.563,0,0,1,4.414-.029c-.082-.924-.252-1.846-.252-2.763v0c0,.917.17,1.839.252,2.763a10.967,10.967,0,0,1,2.47,1.091c.463-10.589.994-21.19.621-21.657" transform="translate(-2.673 -21.531)" fill="#d9e7ed"/>
      <path id="Trazado_2342" data-name="Trazado 2342" d="M947.727,117.068h6.632a1.335,1.335,0,1,0,0-2.65h-6.632a1.335,1.335,0,1,0,0,2.65" transform="translate(-5.766 -28.996)" fill="#c62e2e"/>
      <path id="Trazado_2343" data-name="Trazado 2343" d="M954.36,173.418h-6.633a1.472,1.472,0,1,0,0,2.944h6.633a1.473,1.473,0,1,0,0-2.944" transform="translate(-5.766 -70.624)" fill="#c62e2e"/>
      <path id="Trazado_2344" data-name="Trazado 2344" d="M954.36,238.418h-6.633a1.624,1.624,0,0,0,0,3.239h6.633a1.624,1.624,0,0,0,0-3.239" transform="translate(-5.766 -116.485)" fill="#c62e2e"/>
      <path id="Trazado_2345" data-name="Trazado 2345" d="M949.114,209.89h3.021a.828.828,0,0,0,.71-.8.638.638,0,0,0-.2-.485.68.68,0,0,0-.5-.188H949.1a.642.642,0,0,0-.5.125.9.9,0,0,0-.2.591.785.785,0,0,0,.71.756" transform="translate(-7.303 -95.318)" fill="#c62e2e"/>
      <path id="Trazado_2346" data-name="Trazado 2346" d="M952.65,144.744c-.13-.135-.313-.327-.5-.327H949.1c-.188,0-.371.192-.5.327a.65.65,0,0,0-.2.49.694.694,0,0,0,.71.656h3.021a.694.694,0,0,0,.71-.655.65.65,0,0,0-.2-.49" transform="translate(-7.303 -50.162)" fill="#c62e2e"/>
      <path id="Trazado_2347" data-name="Trazado 2347" d="M952.65,130.74c-.13-.135-.313-.323-.5-.323H949.1c-.188,0-.371.188-.5.323a.655.655,0,0,0-.2.492.7.7,0,0,0,.71.658h3.021a.7.7,0,0,0,.71-.658.654.654,0,0,0-.2-.492" transform="translate(-7.303 -40.284)" fill="#c62e2e"/>
      <path id="Trazado_2348" data-name="Trazado 2348" d="M949.1,159.418a.674.674,0,0,0-.5.184.815.815,0,0,0-.2.561.757.757,0,0,0,.71.727h3.021a.771.771,0,0,0,.711-.742.706.706,0,0,0-.7-.731Z" transform="translate(-7.303 -60.746)" fill="#c62e2e"/>
      <path id="Trazado_2349" data-name="Trazado 2349" d="M949.114,194.876h3.021c.379,0,.7-.459.71-.831a.6.6,0,0,0-.2-.469.667.667,0,0,0-.5-.172H949.1c-.188,0-.371-.041-.5.094a.939.939,0,0,0-.2.606.8.8,0,0,0,.71.772" transform="translate(-7.303 -84.721)" fill="#c62e2e"/>
      <path id="Trazado_2350" data-name="Trazado 2350" d="M949.114,225.89h3.021a.739.739,0,0,0,.514-1.24.721.721,0,0,0-.5-.232H949.1a.7.7,0,0,0-.5.213.783.783,0,0,0-.2.546.743.743,0,0,0,.71.712" transform="translate(-7.303 -106.607)" fill="#c62e2e"/>
      <path id="Trazado_2351" data-name="Trazado 2351" d="M1002.1,78.343c-.666-.4-1.391-.818-2.166-1.246s-1.593-.883-2.454-1.321-1.75-.9-2.685-1.3c-.462-.211-.939-.407-1.423-.6-.232-.1-.507-.182-.765-.271-.13-.041-.264-.091-.39-.124l-.371-.084-.186-.04-.047-.01-.049-.008h-.014l-.029,0-.114-.007a2.712,2.712,0,0,0-.446,0c-.085.006-.165.021-.247.032.093.36.174.725.246,1.093.023,0,.047-.007.069-.008a1.826,1.826,0,0,1,.311,0l.075,0h.019l.031.007.185.042.372.08c.119.03.224.072.337.107.223.077.437.133.674.231.465.175.928.357,1.384.559.913.395,1.816.792,2.682,1.2l4.735,2.243,3.359,1.589,1.282.59s-1.707-1.187-4.374-2.761" transform="translate(-37.157 0)" fill="#ced8db"/>
      <g id="Grupo_3558" data-name="Grupo 3558" transform="translate(951.784 83.799)">
        <g id="Grupo_3557" data-name="Grupo 3557" transform="translate(0 0)" clip-path="url(#clip-path)">
          <path id="Trazado_2352" data-name="Trazado 2352" d="M984.686,109.363c6.082,1.8,16.388-.816,16.864-.415,2.624,2.214-.414,21.318-.968,27.316s.553,17.657-.553,18.255-7.539-16.819-7.539-16.819,5.88-.138,6.571-13.27.138-9.953.138-9.953Z" transform="translate(-984.686 -108.906)" fill="#fff"/>
        </g>
      </g>
      <path id="Trazado_2353" data-name="Trazado 2353" d="M953.09,301.1h-4.24a1.08,1.08,0,0,1-1.08-1.08V284.373a1.08,1.08,0,0,1,1.08-1.08h4.24a1.08,1.08,0,0,1,1.08,1.08v15.643a1.08,1.08,0,0,1-1.08,1.08" transform="translate(-6.856 -148.147)" fill="#f2f2f2"/>
    </g>
    <g id="Grupo_3587" data-name="Grupo 3587" transform="translate(35.254 1546.128)" opacity="0.758">
      <path id="Trazado_2421" data-name="Trazado 2421" d="M320.687,647.308q-1.283-.228-2.566-.464Q319.4,647.082,320.687,647.308Z" fill="#d8d8d8"/>
      <path id="Trazado_2422" data-name="Trazado 2422" d="M325.28,648.091q-1.777-.286-3.56-.6Q323.5,647.8,325.28,648.091Z" fill="#d8d8d8"/>
      <path id="Trazado_2423" data-name="Trazado 2423" d="M540.346,683.571q-3.878-1.949-8.247-3.732c-17.623-7.162-38.029-11.146-55.885-12.1-4.891-.26-9.6-.3-14.115-.165-4.787.14-9.374.454-14.134.618-9.391.324-19.658-.237-29.835-.762-19.369-1-39.281-2.33-60.11-5.854a310.371,310.371,0,0,1-49.783-12.806,289.605,289.605,0,0,0,45.023,9.9,340.028,340.028,0,0,0,59.02,2.987c18.293-.609,35.015-2.877,55.246-1.617a192.13,192.13,0,0,1,28.46,4.038,187.94,187.94,0,0,1,28.033,8.208,54.23,54.23,0,0,1,11.5,5.992c.166.117.33.235.494.354a43.073,43.073,0,0,0-6.883-5.913c-4.546-2.959-10.392-5.749-14.977-8.714q-1.789-.618-3.607-1.205c-5.246-1.694-10.642-3.182-16.071-4.439a190.466,190.466,0,0,0-19.539-3.484q-2.689-.332-5.336-.576-4.716-.43-9.134-.529-2.947-.072-5.773-.015-1.413.027-2.8.082-2.769.111-5.425.325l-.881.073q-1.282.111-2.541.24-1.693.171-3.356.365l-.025,0-.024,0c-2.364.277-4.688.582-7.009.891-3.353.445-6.7.9-10.145,1.273q-3.154.347-6.434.6-4.59.351-9.4.517-2.748.094-5.563.128c-4.658.055-9.458-.017-14.368-.219-5.893-.242-11.946-.67-18.1-1.285q-1.541-.155-3.088-.323l-1.551-.174q-5.433-.62-10.951-1.432-2.339-.345-4.684-.726l-1.172-.192q-3.418-.569-6.845-1.214l-.394-.074-.394-.075q-5.208-.992-10.416-2.156-1.734-.387-3.468-.793l-.892-.211q-1.122-.266-2.241-.539-5.031-1.229-10.037-2.61l-.445-.124q-1.149-.318-2.294-.646-1.777-.506-3.55-1.03,1.128.246,2.254.484-1.127-.238-2.254-.484h0q2.251.491,4.5.954l.516.107.959.2q2.977.6,5.948,1.153,1.289.238,2.577.466c.339.06.679.123,1.019.182q1.783.31,3.563.6,2.592.418,5.159.778c5.133.718,10.182,1.257,15.1,1.607q.82.059,1.636.109,2.447.154,4.848.245c1.146.043,2.279.073,3.406.1l1.01.018c.948.016,1.893.028,2.829.032h-.143c1.718.008,3.41-.009,5.089-.039h-.083l.36-.007c3.87-.073,7.643-.237,11.344-.465l.082-.005-.023,0c5.883-.363,11.591-.878,17.224-1.431-.175.018-.354.032-.529.049.591-.057,1.186-.113,1.775-.171l1.119-.112,1.118-.111,2.276-.228,2.491-.251c12.462-1.252,25.111-2.449,39.359-2.149q1.5.031,3.021.085,3.04.109,6.16.314,1.56.1,3.138.233,1.634.135,3.284.3.825.081,1.654.17c2.761.293,5.546.63,8.33.963a169.962,169.962,0,0,0,19.435,1.592q.753,0,1.486-.02c1.468-.037,2.877-.131,4.211-.293,6.984-.85,10.453-3.6,12.244-6.76.084-.149.163-.3.239-.451.034-.068.069-.136.1-.2a21.333,21.333,0,0,0-1.189-3.471c-5.073-3.512-12.217-6.662-19.865-8.9-9.475-2.772-19.129-3.9-28.133-4.611-10.524-.836-20.62-1.039-31.434-2.307a181.083,181.083,0,0,1-28.474-6.079c-9.452-2.71-18.672-5.8-27.943-8.788-9.357-3.016-18.9-5.793-28.544-8.209q-8.481-2.125-16.958-3.835c-.311-.059-.622-.119-.933-.177l-.344-.065-.744-.137-.423-.078-.709-.129-.455-.082-.693-.123-.469-.083q-.342-.062-.684-.12l-.478-.083-.678-.117-.481-.081-.675-.114-.484-.081-.672-.111-.476-.077-.682-.11-.38-.061q-.7-.111-1.394-.218l-.478-.074-.61-.092-.548-.083-.6-.088-.563-.082-.585-.084-.572-.082-.578-.08-.577-.08-.57-.078-.586-.078-.56-.074-.6-.077-.544-.07-.62-.077-.522-.064-.674-.081-.463-.056-.962-.11-.354-.04-.938-.1-.429-.045-.7-.074-.476-.048-.654-.066-.491-.048-.637-.06-.495-.046-.631-.056-.493-.043-.631-.053-.488-.04-.637-.05-.476-.037-.66-.048-.447-.032-.719-.048-.384-.025-1.03-.063-.065,0h0a147.977,147.977,0,0,1,23.088.493c3.629.33,7.334.761,11.09,1.274q1.408.192,2.827.4c7.089,1.037,14.338,2.349,21.594,3.816q2.9.586,5.8,1.2,1.449.309,2.9.623l1.446.316c6.746,1.48,13.433,3.048,19.937,4.606q4.671,1.119,9.348,2.244l1.559.373c12.994,3.109,26.017,6.146,39.014,8.571,4.018.749,8.075,1.448,12.118,2.067l1.516.228q1.515.223,3.025.432c5.032.693,10.011,1.244,14.832,1.6q1.446.105,2.873.186.714.04,1.421.075c3.774.181,7.427.224,10.906.1h.008c.314-.011.627-.025.938-.039l.19-.009q.45-.022.9-.05l.193-.012q.439-.027.875-.06l.07-.005c.291-.022.58-.047.868-.072l.208-.019c.281-.026.559-.054.836-.083l.206-.022c.264-.029.527-.059.786-.091l.111-.014q.4-.051.8-.107l.206-.029q.395-.057.782-.12l.184-.031c.254-.042.507-.086.756-.132l.059-.01c.18-.034.356-.07.533-.106-1.3-.123-2.623-.261-3.939-.407s-2.627-.3-3.921-.445q-5.416-.624-10.909-1.41-1.83-.262-3.667-.542c-9.585-1.459-19.272-3.256-28.958-5.234q-9.306-1.9-18.606-3.984l-1.86-.415c-13.021-2.913-26.037-5.988-39.054-8.928-13.41-3.029-26.906-5.937-40.287-8.328q-1.824-.326-3.646-.638-7.287-1.251-14.511-2.263-4.743-.659-9.411-1.178t-9.247-.9q-5.5-.453-10.854-.7-3.6-.165-7.126-.261c-5.725-.162-11.357-.22-16.991-.282l-1.988-.022q-2.984-.034-5.978-.08-3.481-.056-7-.155-1.509-.043-3.026-.1-1.012-.038-2.028-.079c-6.774-.281-13.7-.755-20.873-1.578-2.328-.267-4.8-.6-7.3-1.025s-5.031-.952-7.473-1.608h0q-1.122-.1-2.248-.205l-.2-.019q-1.1-.1-2.2-.208h0c-6.89-.662-13.835-1.417-20.763-2.15q-3.165-.333-6.347-.7l-.235-.084q.612.418,1.257.832c5.376,1.941,11.1,3.614,16.667,5.035,9.555,2.439,19.187,4.362,28.769,6.32,11.477,2.346,22.962,4.646,34.4,6.66,10.532,1.856,20.957,3.382,31.34,4.789,20.136,2.729,40.318,5.087,60.9,9.286,10.176,2.076,20.135,4.672,30.106,7.618,9.587,2.833,19.2,5.8,29.015,7.971a141.451,141.451,0,0,0,14.534,2.462c5.533.63,10.838.9,16.16,1.222,9.008.542,18.737,1.294,28.477,4.1q.78.223,1.545.465a54.082,54.082,0,0,0-7.416-.305c-4.875.084-9.647.256-14.59.277-9.96.043-20.239-.2-30.771-.8a211.55,211.55,0,0,1-32.063-4.1c-10.716-2.252-21.415-5.179-32.012-8.04-5.2-1.4-10.389-2.848-15.486-4.454-5.168-1.63-10.077-3.5-15.121-5.258a129.364,129.364,0,0,0-14.531-4.188c-5.112-1.143-10.213-2-15.284-2.852-19.894-3.325-39.686-6.127-59.726-10.1-9.894-1.959-19.831-4.214-29.628-6.932-8.207-2.276-17.016-4.935-24.011-8.386,4.056,2.475,8.831,4.831,13.33,7.2,3.924,2.062,7.646,4.176,11.205,6.327,3.712,1.31,7.47,2.577,11.275,3.775q1.14.36,2.287.711,2.295.7,4.609,1.366c3.41.977,6.843,1.889,10.286,2.77l1.476.376c3.938,1,7.886,1.963,11.823,2.946,11.448,2.857,22.926,5.778,34.232,9.055q.708.2,1.413.411,4.939,1.448,9.828,2.995,4.072,1.293,8.108,2.671,2.712.927,5.391,1.894,4.016,1.449,7.925,2.989,2.6,1.026,5.139,2.093,1.268.534,2.516,1.078,1.141.5,2.266,1,3.373,1.518,6.577,3.116,3.321,1.659,6.421,3.394.814.456,1.612.917c.519.3,1.029.6,1.537.905,2.2,1.314,4.334,2.647,6.763,3.9q.372.192.753.382c.845.422,1.716.838,2.585,1.251l.781.371c.858.408,1.7.789,2.6,1.137.179.069.361.138.546.2.37.134.751.262,1.149.385,1.236.382,2.5.73,3.773,1.039q.636.155,1.274.3h0c-2.763-.23-5.607-.623-8.5-1.139l-.667-.122q-.669-.123-1.341-.255l-.672-.134q-.672-.137-1.348-.28-1.012-.216-2.029-.448-.678-.155-1.358-.316c-4.754-1.129-9.552-2.5-14.246-3.936l-1.338-.414-.667-.208c-3.551-1.111-7.028-2.251-10.368-3.348q-3.119-1.025-6.257-2.04-.786-.254-1.572-.5c-5.769-1.836-11.605-3.576-17.558-4.989q-2.592-.615-5.166-1.132l-.858-.17c-7.141-1.4-14.177-2.311-21.138-3.1q-2.568-.293-5.131-.578l-1.709-.192c-6.836-.77-13.676-1.565-20.657-2.621q-1-.151-2.008-.31-2.213-.349-4.437-.733c-.539-.093-1.078-.186-1.618-.283.636,3.6.013,6.988.952,10.666q.144.559.334,1.126c3.766.511,7.605,1.2,11.37,2,15.177,3.257,29.435,8.356,43.213,13.747,13.859,5.422,27.486,11.1,42.176,15.781a336.079,336.079,0,0,0,40.859,10.149c27.837,5.134,55.039,6.909,78.112,5.435,12.972-.828,24.439-2.888,38.463-2.835a168.668,168.668,0,0,1,41.666,5.481,130.868,130.868,0,0,1,17.064,5.769,51.577,51.577,0,0,1,5.017,1.732C541.611,685.365,541.205,684.686,540.346,683.571ZM342.05,629.72a169.631,169.631,0,0,1-23.01-8.962c-6.986-3.317-13.953-6.957-22.355-9.261-4.711-1.292-9.487-2.14-14.212-3.038q-7.368-1.4-14.751-3.02c-9.74-2.131-19.433-4.56-29.111-7.064q-1.488-.386-2.972-.776-1.92-.571-3.833-1.151-7.077-2.144-14.09-4.387l.87.229c-.167-.158.05-.311.5-.2,2.309.567,4.621,1.113,6.932,1.665,9.466,2.26,18.976,4.227,28.424,5.926,9.338,1.678,18.451,2.9,27.678,4.246,4.515.659,9.046,1.45,13.625,2.53,4.188.987,8.338,2.222,12.381,3.534,8.206,2.662,16.055,5.7,24.191,8.442a309.856,309.856,0,0,0,49.1,12.07,240.382,240.382,0,0,0,46.482,3.241c14.938-.581,29.818-3.435,48.9,1.848a2.247,2.247,0,0,1,.571.239,86.3,86.3,0,0,0-9.966-1.017,70.829,70.829,0,0,0-9.539.329c-6.609.666-12.132,2.061-18,3.212-.175.034-.242.1-.234.173-1.461.224-2.965.419-4.533.575-3.877.386-7.99.59-12.2.694a274.614,274.614,0,0,1-55.644-3.99A218.277,218.277,0,0,1,342.05,629.72Z" fill="#d8d8d8"/>
      <path id="Trazado_2424" data-name="Trazado 2424" d="M486.806,623.186a85.184,85.184,0,0,1-15.091,1.613q-2.187.059-4.452.041-1.133-.009-2.282-.035-1.723-.04-3.485-.119-1.174-.052-2.363-.122t-2.391-.154c-7.214-.511-14.783-1.447-22.433-2.672-5.737-.919-11.521-2-17.235-3.185q-2.856-.592-5.686-1.217c-15.814-3.491-31.519-7.691-47.246-11.719q-1.348-.347-2.7-.689-2.024-.516-4.046-1.025-1.348-.34-2.7-.676-2.023-.505-4.048-1t-4.051-.983q-1.352-.324-2.7-.643-2.364-.558-4.732-1.1-4.736-1.08-9.483-2.077-2.373-.5-4.751-.969-.809-.16-1.618-.317l-.327-.063q-.747-.144-1.494-.284,8.477,1.72,16.958,3.835c9.643,2.416,19.187,5.193,28.544,8.209,9.271,2.988,18.491,6.078,27.943,8.788a181.083,181.083,0,0,0,28.474,6.079c10.814,1.268,20.91,1.471,31.434,2.307,9,.715,18.658,1.839,28.133,4.611,7.648,2.238,14.792,5.388,19.865,8.9q-.244-.554-.53-1.116c-2.01-3.933-11.9-12-14.761-13.841A1.992,1.992,0,0,0,486.806,623.186Z" fill="#e2e2e2"/>
      <path id="Trazado_2425" data-name="Trazado 2425" d="M503.933,642.2c-.076.151-.155.3-.239.451-1.791,3.164-5.26,5.91-12.244,6.76-1.334.162-2.743.256-4.211.293q-.734.02-1.486.02a169.962,169.962,0,0,1-19.435-1.592c-2.784-.333-5.569-.67-8.33-.963q-.83-.089-1.654-.17-1.65-.165-3.284-.3-1.578-.129-3.138-.233-3.118-.207-6.16-.314-1.521-.054-3.021-.085c-14.248-.3-26.9.9-39.359,2.149l-2.491.251-2.276.228-1.118.111-1.119.112-1.246.122c-5.633.553-11.341,1.068-17.224,1.431l-.059,0c-3.7.228-7.474.392-11.344.465l-.277.006c-1.679.03-3.371.047-5.089.039q-.7,0-1.4-.011c-.425-.005-.857-.015-1.285-.022l-1.01-.018c-.18,0-.356-.005-.535-.009q-1.425-.035-2.871-.088-2.4-.09-4.848-.245-.816-.051-1.636-.109c-4.922-.35-9.971-.889-15.1-1.607q-2.565-.359-5.159-.778-1.777-.286-3.56-.6h0c-.34-.059-.68-.122-1.019-.182l-.011,0q-1.283-.228-2.566-.464h0q-2.97-.551-5.948-1.153l-.959-.2-.516-.107q-.993-.206-1.987-.414l-.261-.056q-1.127-.238-2.254-.484,1.773.525,3.55,1.03,1.146.327,2.294.646l.445.124q5,1.38,10.037,2.61,1.121.274,2.241.539l.892.211q1.734.4,3.468.793,5.205,1.163,10.416,2.156l.394.075.394.074q3.424.645,6.845,1.214l1.172.192q2.345.381,4.684.726,5.512.812,10.951,1.432l1.551.174q1.548.168,3.088.323c6.159.615,12.212,1.043,18.1,1.285,4.91.2,9.71.274,14.368.219q2.814-.035,5.563-.128,4.811-.166,9.4-.517,3.279-.251,6.434-.6c3.446-.377,6.792-.828,10.145-1.273,2.321-.309,4.645-.614,7.009-.891l.024,0,.025,0q1.662-.193,3.356-.365,1.26-.128,2.541-.24l.881-.073q2.658-.211,5.425-.325,1.385-.055,2.8-.082,2.826-.054,5.773.015,4.422.106,9.134.529,2.645.242,5.336.576a190.466,190.466,0,0,1,19.539,3.484c5.429,1.257,10.825,2.745,16.071,4.439q1.816.586,3.607,1.205c-.825-.534-1.608-1.074-2.336-1.621q-2.415-.9-4.884-1.753a198.161,198.161,0,0,0-22.706-6.452q-1.377-.29-2.751-.567-2.751-.54-5.508-.972a158.872,158.872,0,0,0-35.1-1.356c-10.954.71-20.948,2.158-31.55,3.138-5.269.487-10.684.868-16.4.98-2.2.044-7.789.184-13.816.044-6.64-.155-13.775-.6-16.634-.745-.6-.03,20.018-.916,29.4-1.818,8.312-.8,16.3-1.836,24.55-2.685a263.338,263.338,0,0,1,26.5-1.487,188.071,188.071,0,0,1,29.141,2.164q1.218.186,2.441.394c8.853,1.106,17.957,2.418,25.435,1.79a33.406,33.406,0,0,0,5.237-.833,30.06,30.06,0,0,1-.275-3.27,34.311,34.311,0,0,0-.855-6.967c-.033.068-.067.135-.1.2Z" fill="#c9c8c7"/>
      <path id="Trazado_2426" data-name="Trazado 2426" d="M504.035,641.991h0c-.033.068-.067.135-.1.2C503.968,642.126,504,642.059,504.035,641.991Z" fill="#d8d8d8"/>
      <path id="Trazado_2427" data-name="Trazado 2427" d="M474.493,651.271q-1.223-.207-2.441-.394a188.071,188.071,0,0,0-29.141-2.164,263.338,263.338,0,0,0-26.5,1.487c-8.246.849-16.238,1.886-24.55,2.685-9.378.9-29.993,1.788-29.4,1.818,2.859.144,9.994.59,16.634.745,6.027.14,11.613,0,13.816-.044,5.717-.112,11.132-.493,16.4-.98,10.6-.98,20.6-2.428,31.55-3.138a158.872,158.872,0,0,1,35.1,1.356q2.756.429,5.508.972,1.374.277,2.751.567a198.161,198.161,0,0,1,22.706,6.452q2.471.852,4.884,1.753c-.588-.441-1.141-.887-1.648-1.339a14.04,14.04,0,0,1-5.008-8.819,33.406,33.406,0,0,1-5.237.833C492.45,653.689,483.346,652.377,474.493,651.271Z" fill="#bcbcbc"/>
      <path id="Trazado_2428" data-name="Trazado 2428" d="M197.289,584.888c9.8,2.718,19.734,4.973,29.628,6.932,20.04,3.969,39.832,6.771,59.726,10.1,5.071.848,10.172,1.709,15.284,2.852a129.364,129.364,0,0,1,14.531,4.188c5.044,1.762,9.953,3.628,15.121,5.258,5.1,1.606,10.289,3.051,15.486,4.454,10.6,2.861,21.3,5.788,32.012,8.04a211.55,211.55,0,0,0,32.063,4.1c10.532.593,20.811.839,30.771.8,4.943-.021,9.715-.193,14.59-.277a54.082,54.082,0,0,1,7.416.305q-.765-.24-1.545-.465c-9.74-2.8-19.469-3.555-28.477-4.1-5.322-.321-10.627-.592-16.16-1.222a141.451,141.451,0,0,1-14.534-2.462c-9.815-2.169-19.428-5.138-29.015-7.971-9.971-2.946-19.93-5.542-30.106-7.618-20.585-4.2-40.767-6.557-60.9-9.286-10.383-1.407-20.808-2.933-31.34-4.789-11.436-2.014-22.921-4.314-34.4-6.66-9.582-1.958-19.214-3.881-28.769-6.32-5.566-1.421-11.291-3.094-16.667-5.035-.288-.1-.576-.208-.862-.313.057.031.112.063.17.094q.955.52,1.967,1.017C180.273,579.953,189.082,582.612,197.289,584.888ZM271.451,597.8q7.064,1.166,14.107,2.264c5.266.61,10.523,1.208,15.839,1.917,11.126,1.482,22.427,3.272,33.793,5.8q.783.174,1.567.353,2.384.476,4.774.981c10.9,2.307,21.813,5.015,32.545,8.1,5.439,1.563,10.764,3.256,16.126,4.945a136.139,136.139,0,0,0,16.455,4.169,102.937,102.937,0,0,0,15.639,1.652c5.307.136,10.375-.047,16.288.931A148.533,148.533,0,0,1,423,629.09c-5.527-.153-11.534-.72-15.356-1.116-9.622-1-19.447-2.4-29.414-4.367s-19.986-4.4-29.8-7.272c-9.309-2.723-18.463-5.706-27.74-8.483q-3.232-.968-6.515-1.856c-2.739-.588-5.479-1.132-8.215-1.65-5.728-1.086-11.451-2.089-17.169-3.117-5.759-1.035-11.515-2.074-17.264-3.066C270.982,598.069,270.911,597.711,271.451,597.8Z" fill="#c9c8c7"/>
      <path id="Trazado_2429" data-name="Trazado 2429" d="M524.019,672.288a187.94,187.94,0,0,0-28.033-8.208,192.13,192.13,0,0,0-28.46-4.038c-20.231-1.26-36.953,1.008-55.246,1.617a340.028,340.028,0,0,1-59.02-2.987,289.605,289.605,0,0,1-45.023-9.9,310.371,310.371,0,0,0,49.783,12.806c20.829,3.524,40.741,4.853,60.11,5.854,10.177.525,20.444,1.086,29.835.762,4.76-.164,9.347-.478,14.134-.618,4.517-.133,9.224-.1,14.115.165,17.856.951,38.262,4.935,55.885,12.1q4.379,1.777,8.247,3.732a60.978,60.978,0,0,0-4.329-4.937c-.164-.119-.328-.237-.494-.354A54.23,54.23,0,0,0,524.019,672.288Z" fill="#e8e8e8"/>
      <path id="Trazado_2430" data-name="Trazado 2430" d="M422.9,639.8c4.215-.1,8.328-.308,12.2-.694,1.568-.156,3.072-.351,4.533-.575-.008-.076.059-.139.234-.173,5.872-1.151,11.4-2.546,18-3.212a70.829,70.829,0,0,1,9.539-.329,86.3,86.3,0,0,1,9.966,1.017,2.247,2.247,0,0,0-.571-.239c-19.087-5.283-33.967-2.429-48.9-1.848A240.382,240.382,0,0,1,381.42,630.5a309.856,309.856,0,0,1-49.1-12.07c-8.136-2.739-15.985-5.78-24.191-8.442-4.043-1.312-8.193-2.547-12.381-3.534-4.579-1.08-9.11-1.871-13.625-2.53-9.227-1.347-18.34-2.568-27.678-4.246-9.448-1.7-18.958-3.666-28.424-5.926-2.311-.552-4.623-1.1-6.932-1.665-.451-.111-.668.042-.5.2l-.87-.229q7.017,2.237,14.09,4.387,1.914.581,3.833,1.151,1.485.39,2.972.776c9.678,2.5,19.371,4.933,29.111,7.064q7.379,1.614,14.751,3.02c4.725.9,9.5,1.746,14.212,3.038,8.4,2.3,15.369,5.944,22.355,9.261a169.631,169.631,0,0,0,23.01,8.962,218.277,218.277,0,0,0,25.2,6.087A274.614,274.614,0,0,0,422.9,639.8Z" fill="#e8e8e8"/>
      <path id="Trazado_2431" data-name="Trazado 2431" d="M228.171,617.217q1.006.158,2.008.31c6.981,1.056,13.821,1.851,20.657,2.621l1.709.192q2.563.288,5.131.578c6.961.792,14,1.7,21.138,3.1l.858.17q2.574.519,5.166,1.132c5.953,1.413,11.789,3.153,17.558,4.989q.786.25,1.572.5,3.14,1.01,6.257,2.04c3.339,1.1,6.817,2.237,10.368,3.348l.667.208,1.338.414c4.694,1.44,9.492,2.807,14.246,3.936q.68.16,1.358.316,1.017.231,2.029.448.675.144,1.348.28l.672.134q.672.132,1.341.255l.667.122c2.89.516,5.734.909,8.5,1.139q-.639-.142-1.274-.3c-1.273-.309-2.537-.657-3.773-1.039-.4-.123-.779-.251-1.149-.385-.185-.067-.367-.136-.546-.2-.9-.348-1.74-.729-2.6-1.137l-.781-.371c-.869-.413-1.74-.829-2.585-1.251q-.381-.191-.753-.382c-2.429-1.251-4.565-2.584-6.763-3.9-.508-.3-1.018-.605-1.537-.905s-1.069-.613-1.612-.917q-3.093-1.733-6.421-3.394-3.2-1.6-6.577-3.116-1.123-.507-2.266-1-1.248-.545-2.516-1.078-2.535-1.066-5.139-2.093-3.9-1.541-7.925-2.989-2.677-.968-5.391-1.894-4.03-1.377-8.108-2.671-4.885-1.551-9.828-2.995-.706-.206-1.413-.411c-11.3-3.277-22.784-6.2-34.232-9.055-3.937-.983-7.885-1.947-11.823-2.946l-1.476-.376c-3.443-.881-6.876-1.793-10.286-2.77q-2.314-.664-4.609-1.366-1.146-.351-2.287-.711c-3.8-1.2-7.563-2.465-11.275-3.775q4.921,2.976,9.449,6.036,2.277,1.533,4.2,3.092c7.035,1.6,14.085,3.067,21.12,4.555,10.733,2.271,21.382,4.72,32.016,7.634,10.162,2.784,20.207,5.932,29.969,9.329,5.747,2,13.649,5.817,36.762,16.091-10.6-3.4-38.466-15.214-49.414-17.414-8.331-1.674-19.688-3.82-27.912-5.03-9.1-1.339-18.1-2.265-27.3-3.881-2.265-.4-4.593-.859-6.927-1.39a18.031,18.031,0,0,1,1.155,3.418,14.384,14.384,0,0,1,1.185,3.736c.54.1,1.079.19,1.618.283Q225.957,616.867,228.171,617.217Z" fill="#c9c8c7"/>
      <path id="Trazado_2432" data-name="Trazado 2432" d="M352.756,643.456h0Z" fill="#c9c8c7"/>
      <path id="Trazado_2433" data-name="Trazado 2433" d="M254,614.318c8.224,1.21,19.581,3.356,27.912,5.03,10.948,2.2,38.809,14.015,49.414,17.414-23.113-10.274-31.015-14.091-36.762-16.091-9.762-3.4-19.807-6.545-29.969-9.329-10.634-2.914-21.283-5.363-32.016-7.634-7.035-1.488-14.085-2.954-21.12-4.555a29.77,29.77,0,0,1,7.9,9.022c.15.293.288.583.418.872,2.334.531,4.662.992,6.927,1.39C235.9,612.053,244.9,612.979,254,614.318Z" fill="#bcbcbc"/>
      <path id="Trazado_2434" data-name="Trazado 2434" d="M271.526,598.163c5.749.992,11.505,2.031,17.264,3.066,5.718,1.028,11.441,2.031,17.169,3.117,2.736.518,5.476,1.062,8.215,1.65q3.277.885,6.515,1.856c9.277,2.777,18.431,5.76,27.74,8.483,9.814,2.869,19.819,5.3,29.8,7.272s19.792,3.371,29.414,4.367c3.822.4,9.829.963,15.356,1.116a148.533,148.533,0,0,0,15.585-.182c-5.913-.978-10.981-.8-16.288-.931a102.937,102.937,0,0,1-15.639-1.652,136.139,136.139,0,0,1-16.455-4.169c-5.362-1.689-10.687-3.382-16.126-4.945-10.732-3.084-21.645-5.792-32.545-8.1q-2.391-.505-4.774-.981-.783-.178-1.567-.353c-11.366-2.525-22.667-4.315-33.793-5.8-5.316-.709-10.573-1.307-15.839-1.917q-7.047-1.112-14.107-2.264C270.911,597.711,270.982,598.069,271.526,598.163Z" fill="#bcbcbc"/>
      <path id="Trazado_2435" data-name="Trazado 2435" d="M486.414,617.315l-.071.028.07-.028a130.962,130.962,0,0,1-13.779-.894c-14.994-1.692-30.825-5.038-46.186-8.365-15.88-3.441-31.743-7.187-47.617-10.743-15.854-3.552-31.738-6.886-47.53-9.621q-9.018-1.562-17.879-2.769-2.973-.493-5.946-.973c-.773-.066-1.548-.134-2.319-.2l-.086-.007q-1.082-.088-2.162-.173l-.2-.015q-1.016-.078-2.028-.153l-.308-.023-1.893-.135-.419-.03L296.3,583.1l-.515-.034-1.675-.105-.579-.037-1.671-.1-.552-.032q-1.1-.063-2.2-.121c-6.949-.366-13.8-.611-20.6-.8q-3.4-.1-6.789-.18-4.551-.2-8.786-.4-10.587-.5-19.19-.962-1.721-.093-3.36-.185-3.28-.182-6.24-.358-8.878-.528-14.856-.991l-.061-.005-1.477-.117-.4-.032-1.193-.1-.35-.03-1.312-.112-.212-.018-1.532-.135h-.009c2.442.656,4.972,1.181,7.473,1.608s4.975.758,7.3,1.025c7.176.823,14.1,1.3,20.873,1.578q1.016.042,2.028.079,1.517.054,3.026.1,3.521.1,7,.155,3,.048,5.978.08l1.988.022c5.634.062,11.266.12,16.991.282q3.536.1,7.126.261,5.355.248,10.854.7,4.58.378,9.247.9t9.411,1.178q7.22,1,14.511,2.263,1.821.312,3.646.638c13.381,2.391,26.877,5.3,40.287,8.328,13.017,2.94,26.033,6.015,39.054,8.928l1.86.415q9.3,2.069,18.606,3.984c9.686,1.978,19.373,3.775,28.958,5.234q1.837.281,3.667.542,5.49.786,10.909,1.41c1.294.148,2.606.3,3.921.445s2.634.284,3.939.407h0c-.177.036-.353.072-.533.106l-.059.01c-.249.046-.5.09-.756.132l-.184.031q-.387.063-.782.12l-.206.029q-.4.055-.8.107l-.111.014c-.259.032-.522.062-.786.091l-.206.022c-.277.029-.555.057-.836.083l-.208.019c-.288.025-.577.05-.868.072l-.07.005q-.435.033-.875.06l-.193.012q-.445.027-.9.05l-.19.009c-.311.014-.624.028-.938.039h-.008c-3.479.125-7.132.082-10.906-.1q-.708-.035-1.421-.075-1.426-.081-2.873-.186c-4.821-.352-9.8-.9-14.832-1.6q-1.511-.207-3.025-.432l-1.516-.228c-4.043-.619-8.1-1.318-12.118-2.067-13-2.425-26.02-5.462-39.014-8.571l-1.559-.373q-4.677-1.122-9.348-2.244c-6.5-1.558-13.191-3.126-19.937-4.606l-1.446-.316q-1.447-.315-2.9-.623-2.9-.617-5.8-1.2c-7.256-1.467-14.505-2.779-21.594-3.816q-1.417-.207-2.827-.4c-3.756-.513-7.461-.944-11.09-1.274A147.977,147.977,0,0,0,286.6,591.2h0l.065,0,1.03.063.384.025.719.048.447.032.66.048.476.037.637.05.488.04.631.053.493.043.631.056.495.046.637.06.491.048.654.066.476.048.7.074.429.045.938.1.354.04.962.11.463.056.674.081.522.064.62.077.544.07.6.077.56.074.586.078.57.078.577.08.578.08.572.082.585.084.563.082.6.088.548.083.61.092.478.074q.7.108,1.394.218l.38.061.682.11.476.077.672.111.484.081.675.114.481.081.678.117.478.083q.342.059.684.12l.469.083.693.123.455.082.709.129.423.078.744.137.344.065c.311.058.622.118.933.177q.747.141,1.494.284l.327.063q.81.157,1.618.317,2.378.471,4.751.969,4.748.993,9.483,2.077,2.367.54,4.732,1.1,1.352.32,2.7.643,2.027.486,4.051.983t4.048,1q1.35.336,2.7.676,2.023.508,4.046,1.025,1.348.344,2.7.689c15.727,4.028,31.432,8.228,47.246,11.719q2.828.624,5.686,1.217c5.714,1.185,11.5,2.266,17.235,3.185,7.65,1.225,15.219,2.161,22.433,2.672q1.2.086,2.391.154t2.363.122q1.761.08,3.485.119,1.15.026,2.282.035,2.264.016,4.452-.041a85.184,85.184,0,0,0,15.091-1.613,1.992,1.992,0,0,1,.749.377,16.844,16.844,0,0,0,2.054-1.156,8.676,8.676,0,0,0,3.9-5.371c-.266.024-.532.046-.8.067C490.71,617.261,488.6,617.327,486.414,617.315Z" fill="#c9c8c7"/>
      <path id="Trazado_2436" data-name="Trazado 2436" d="M202.738,578.24Z" fill="#c9c8c7"/>
      <path id="Trazado_2437" data-name="Trazado 2437" d="M490.943,613.425c-.372.039-.751.073-1.141.1-1.114.079-2.27.124-3.461.139q-.894.012-1.813,0c-2.049-.022-4.189-.124-6.379-.281q-1.621-.115-3.275-.268-2-.187-4.034-.423t-4.065-.5c-1.355-.177-2.708-.363-4.051-.554s-2.676-.387-3.993-.583q-3.271-.489-6.56-1.037c-5.347-.888-10.721-1.883-16.1-2.948q-3.114-.617-6.229-1.264-2.055-.425-4.109-.856c-5.531-1.169-11.064-2.387-16.6-3.617L403.6,600.1c-14.915-3.33-29.831-6.673-44.711-9.344q-1.01-.181-2.016-.358l-.565-.1q-.777-.137-1.554-.27l-.52-.089-1.988-.336-.376-.062q-.814-.137-1.63-.269l-.643-.1-1.507-.242-.521-.083q-.955-.153-1.91-.3l-.649-.1-1.339-.2-.761-.115-1.413-.21-.791-.116-1.581-.229-.866-.123-1.086-.152-.912-.127q-.615-.086-1.231-.168-.719-.1-1.436-.193l-.942-.125-1.064-.139-.816-.1q-1.959-.25-3.913-.487l-.619-.074q-.624-.075-1.247-.148l-.484-.057q-2.118-.248-4.228-.477l-.384-.042q-3.054-.332-6.089-.627l-.175-.017q-2.318-.225-4.622-.43H309c-.51-.046-1.018-.087-1.527-.131q2.971.48,5.946.973,8.855,1.2,17.879,2.769c15.792,2.735,31.676,6.069,47.53,9.621,15.874,3.556,31.737,7.3,47.617,10.743,15.361,3.327,31.192,6.673,46.186,8.365a130.962,130.962,0,0,0,13.779.894h0c2.187.012,4.3-.054,6.3-.212.264-.021.53-.043.8-.067a11.252,11.252,0,0,0,.162-3.828c-.006-.059-.014-.119-.021-.179q-.632.125-1.308.223T490.943,613.425Zm-3.272,3.28h0l0,0Zm.294-.167c-.067.039-.134.078-.2.116h0l.2-.117Zm.147-.088.135-.083-.135.083Zm.467-.3c-.024.017-.049.033-.074.049l.075-.049Zm.292-.207-.009.006.013-.009Z" fill="#bcbcbc"/>
      <path id="Trazado_2438" data-name="Trazado 2438" d="M519.261,677.754a168.668,168.668,0,0,0-41.666-5.481c-14.024-.053-25.491,2.007-38.463,2.835-23.073,1.474-50.275-.3-78.112-5.435a336.079,336.079,0,0,1-40.859-10.149c-14.69-4.681-28.317-10.359-42.176-15.781-13.778-5.391-28.036-10.49-43.213-13.747-3.765-.807-7.6-1.492-11.37-2a28.453,28.453,0,0,0,3.273,6.4l.672.066a167.168,167.168,0,0,1,25.281,4.949,253.791,253.791,0,0,1,25.074,8.063c8.1,3.081,15.9,6.378,23.859,9.557,8.306,3.318,16.736,6.578,25.329,9.666a87.021,87.021,0,0,0,9.5,2.911c-1.862-.293-3.737-.629-5.594-.987-4.946-.953-9.875-2.167-14.786-3.45-9.735-2.544-19.476-5.311-29.287-6.918-9.411-1.541-18.881-2.289-26.707-1.732a38.89,38.89,0,0,0-9.419,1.668,13.933,13.933,0,0,0-4.347,2.285c3.669,5.236,6.654,9.505,6.99,9.294,8.621-5.433,27.646-4.694,45.816-2.552,10.456,1.232,21.108,2.88,31.623,4.239q15.888,2.054,31.529,3.614c20.774,2.069,41.184,3.449,60.2,3.3,18.647-.143,35.76-1.687,54.557-1.688a274.019,274.019,0,0,1,31.527,1.7c5.531.637,11.175,1.511,16.858,2.616,3.624.7,7.39,1.477,10.981,2.529A130.868,130.868,0,0,0,519.261,677.754Z" fill="#c9c8c7"/>
      <path id="Trazado_2439" data-name="Trazado 2439" d="M260.014,656.515c7.826-.557,17.3.191,26.707,1.732,9.811,1.607,19.552,4.374,29.287,6.918,4.911,1.283,9.84,2.5,14.786,3.45,1.857.358,3.732.694,5.594.987a87.021,87.021,0,0,1-9.5-2.911c-8.593-3.088-17.023-6.348-25.329-9.666-7.96-3.179-15.761-6.476-23.859-9.557a253.791,253.791,0,0,0-25.074-8.063,167.168,167.168,0,0,0-25.281-4.949l-.672-.066c2.553,3.9,5.967,7.881,9.155,11.81,3.014,3.712,7.011,9.407,10.418,14.268a13.933,13.933,0,0,1,4.347-2.285A38.89,38.89,0,0,1,260.014,656.515Z" fill="#bcbcbc"/>
      <path id="Trazado_2440" data-name="Trazado 2440" d="M200.289,578.016l.2.019q1.126.1,2.248.205h.009l1.532.135.212.018,1.312.112.35.03,1.193.1.4.032,1.477.117.061.005q5.972.46,14.856.991,2.96.176,6.24.358,1.64.091,3.36.185,8.6.463,19.19.962,4.236.2,8.786.4,3.39.084,6.789.18c6.8.194,13.65.439,20.6.8q1.1.059,2.2.121l.552.032,1.671.1.579.037,1.675.105.515.034,1.768.119.419.03,1.893.135.308.023q1.012.073,2.028.153l.2.015q1.08.084,2.162.173l.086.007c.771.063,1.546.131,2.319.2.509.044,1.017.085,1.527.131h.006q2.305.206,4.622.43l.175.017q3.035.3,6.089.627l.384.042q2.109.229,4.228.477l.484.057q.624.072,1.247.148l.619.074q1.953.237,3.913.487l.816.1,1.064.139.942.125q.717.094,1.436.193.615.082,1.231.168l.912.127,1.086.152.866.123,1.581.229.791.116,1.413.21.761.115,1.339.2.649.1q.954.148,1.91.3l.521.083,1.507.242.643.1q.814.133,1.63.269l.376.062,1.988.336.52.089q.777.133,1.554.27l.565.1q1.006.177,2.016.358c14.88,2.671,29.8,6.014,44.711,9.344l5.534,1.234c5.535,1.23,11.068,2.448,16.6,3.617q2.054.434,4.109.856,3.114.643,6.229,1.264c5.381,1.065,10.755,2.06,16.1,2.948q3.288.546,6.56,1.037,1.976.294,3.993.583c1.343.191,2.7.377,4.051.554s2.713.345,4.065.5,2.7.3,4.034.423q1.654.155,3.275.268c2.19.157,4.33.259,6.379.281q.919.011,1.813,0c1.191-.015,2.347-.06,3.461-.139.39-.028.769-.062,1.141-.1q.722-.074,1.4-.173t1.308-.223c5.8-1.138,8.739-3.806,8.62-7.267-.124-3.63-3.508-7.884-8.717-11.912a6.2,6.2,0,0,1-.556,4.818c-1.877,3.258-6.706,5.565-13.317,6.7-7.921,1.361-18.218.847-28.683-.415-10.824-1.3-21.984-3.286-33.039-5.336-22.211-4.118-44.547-8.939-66.655-12.489-11.136-1.789-22.109-3.2-32.813-4.092-11.386-.946-22.495-1.477-33.585-2.03q-16.122-.805-32.084-1.414l-3.629-.042c-28.077-.322-51.049-1.743-51.1-1.744h0Q199.193,577.915,200.289,578.016Z" fill="#e8e8e8"/>
      <path id="Trazado_2441" data-name="Trazado 2441" d="M318.488,583.038c10.7.89,21.677,2.3,32.813,4.092,22.108,3.55,44.444,8.371,66.655,12.489,11.055,2.05,22.215,4.032,33.039,5.336,10.465,1.262,20.762,1.776,28.683.415,6.611-1.137,11.44-3.444,13.317-6.7a6.2,6.2,0,0,0,.556-4.818c-1.118-.864-2.318-1.718-3.589-2.552a8.816,8.816,0,0,1-1.337,1.847c-6.513,6.99-26.48,7.807-46.346,5.492-24.077-2.806-47.662-7.8-71.949-11.591-39.6-6.189-72.663-6.923-117.511-7.452q15.961.609,32.084,1.414C295.993,581.561,307.1,582.092,318.488,583.038Z" fill="#d8d8d8"/>
    </g>
    <path id="Trazado_2442" data-name="Trazado 2442" d="M345.235,428.942v15.636h-94.3a2.143,2.143,0,0,0-1.642-.763,5.665,5.665,0,0,1-.576-11.3l71.558-7.4a2.171,2.171,0,0,0-.444-4.32l-71.566,7.4a9.992,9.992,0,0,0-8.087,14.056,9.424,9.424,0,0,0,.965,1.681c.156.226.319.436.49.646H167.218c-.047,0-.086.008-.132.008l-1.136-1.222.132-.156a13.016,13.016,0,0,0,1.105-14.4,13.215,13.215,0,0,0-2.351-3.02c-.054-.054-.132-.07-.187-.117,15.309-1.245,46.808-3.471,81.264-5.837.327.031.646.086.973.086a9.618,9.618,0,0,0,2.444-.319c30.292-2.07,62.507-4.226,87.81-5.892a19.2,19.2,0,0,1,2.109,1.642,18.328,18.328,0,0,1,5.985,13.589Z" transform="translate(482.562 1746.992)" fill="#fff"/>
    <path id="Trazado_2443" data-name="Trazado 2443" d="M443.333,411.756a15.8,15.8,0,0,0-9.064-3.975,14.5,14.5,0,0,0-7.492,1.482,13.936,13.936,0,0,0-6.67,7.563,13.4,13.4,0,0,0-.324,8c.732,2.6,2.16,4.227,4.753,7.186a42.408,42.408,0,0,0,5.439,5.175,16.347,16.347,0,0,0,19.249-16.219v-.021A19.019,19.019,0,0,0,443.333,411.756Z" transform="translate(426.106 1748.315)" fill="#fff"/>
    <g id="Grupo_3589" data-name="Grupo 3589" transform="translate(893.009 1216.124) rotate(90)">
      <path id="Trazado_2336-2" data-name="Trazado 2336" d="M962.124,412.727l-1.325-.441c.028-.085.1-.265.212-.531,4.848-11.678,5.159-22.829.873-31.4-7.775-15.55-8.73-26.361-7.751-38.764l1.392.11c-.96,12.164-.023,22.769,7.608,38.03,4.469,8.938,4.174,20.5-.832,32.559-.091.219-.154.366-.177.436" transform="translate(-11.122 -189.281)" fill="#fff"/>
      <path id="Trazado_2337-2" data-name="Trazado 2337" d="M946.288,271.076c.437,1.047-.32,1.862,1.716,3.461s3.782,1.076,4.305.64,2.618-4.189,1.92-4.276-7.941.175-7.941.175" transform="translate(-5.81 -139.392)" fill="#353535"/>
      <path id="Trazado_2338-2" data-name="Trazado 2338" d="M944.955,81.245s.447-.263,1.2-.757,1.818-1.228,3.095-2.111c.638-.442,1.328-.925,2.07-1.417s1.524-1.018,2.362-1.517a23.969,23.969,0,0,1,2.665-1.429,9.99,9.99,0,0,1,1.5-.538,5.163,5.163,0,0,1,.829-.143,2.778,2.778,0,0,1,.446,0l.114.007.029,0h.014l.048.008.047.01.186.039.371.084c.126.034.261.083.39.125.258.089.533.17.764.27.484.19.962.385,1.424.6.935.4,1.822.868,2.685,1.3s1.68.89,2.454,1.321,1.5.85,2.166,1.247c2.667,1.573,4.374,2.761,4.374,2.761l-1.282-.59-3.359-1.589-4.735-2.243c-.866-.405-1.769-.8-2.682-1.2-.457-.2-.919-.384-1.384-.559-.237-.1-.451-.155-.675-.231-.112-.035-.217-.077-.336-.107l-.372-.08-.185-.042-.047-.01c-.036-.006.036.005.025,0h-.028l-.075-.005a1.821,1.821,0,0,0-.311,0,4.126,4.126,0,0,0-.665.106,8.962,8.962,0,0,0-1.356.47,29.065,29.065,0,0,0-2.606,1.291c-1.673.923-3.217,1.858-4.564,2.617s-2.486,1.369-3.3,1.752c-.406.194-.735.328-.956.42l-.341.138" transform="translate(-4.87)" fill="#ced8db"/>
      <path id="Trazado_2339-2" data-name="Trazado 2339" d="M971.167,98.175c-.748-.935-5.238.935-17.212.561s-15.958-1.309-15.9.187c.083,2.23.056,11.716.032,21.793-.008,3.547-.016,7.166-.019,10.568,0,3.6,0,6.964.016,9.736.022,4.019.068,6.8.158,7.292.1.539,1.825.821,4.383.96,7.216.4,21.056-.342,23.68.349a4.828,4.828,0,0,0,2.79.173c1.21-.471,1.441-2.183.952-5.973-.348-2.7.033-12.561.464-22.434.5-11.351,1.059-22.714.659-23.214" transform="translate(0 -17.349)" fill="#ced8db"/>
      <path id="Trazado_2340-2" data-name="Trazado 2340" d="M972.149,174.859a10.91,10.91,0,0,0-2.463-1.091,7.607,7.607,0,0,0-4.428.029c-6.969,1.951-14.826,4.562-21.265,1.625a13.244,13.244,0,0,1-2.092-1.19c-.008,3.309-.015,6.685-.017,9.859,0,3.362,0,6.5.014,9.083.02,3.749.064,6.345.147,6.8.091.5,1.7.766,4.089.9,6.732.369,19.643-.319,22.091.326a4.5,4.5,0,0,0,2.6.162c1.129-.439,1.344-2.036.888-5.572-.324-2.517.031-11.719.433-20.929" transform="translate(-2.703 -70.649)" fill="#3acce6"/>
      <path id="Trazado_2341-2" data-name="Trazado 2341" d="M972.734,104.085c-.7-.873-4.887.873-16.057.524s-14.887-1.221-14.835.175c.077,2.08.052,10.93.03,20.332a13.3,13.3,0,0,0,2.092,1.19c.5-1.487,1.066-2.962,1.717-4.418-.652,1.456-1.219,2.931-1.717,4.418,6.439,2.936,14.3.326,21.265-1.625a7.563,7.563,0,0,1,4.414-.029c-.082-.924-.252-1.846-.252-2.763v0c0,.917.17,1.839.252,2.763a10.967,10.967,0,0,1,2.47,1.091c.463-10.589.994-21.19.621-21.657" transform="translate(-2.673 -21.531)" fill="#d9e7ed"/>
      <path id="Trazado_2342-2" data-name="Trazado 2342" d="M947.727,117.068h6.632a1.335,1.335,0,1,0,0-2.65h-6.632a1.335,1.335,0,1,0,0,2.65" transform="translate(-5.766 -28.996)" fill="#c62e2e"/>
      <path id="Trazado_2343-2" data-name="Trazado 2343" d="M954.36,173.418h-6.633a1.472,1.472,0,1,0,0,2.944h6.633a1.473,1.473,0,1,0,0-2.944" transform="translate(-5.766 -70.624)" fill="#c62e2e"/>
      <path id="Trazado_2344-2" data-name="Trazado 2344" d="M954.36,238.418h-6.633a1.624,1.624,0,0,0,0,3.239h6.633a1.624,1.624,0,0,0,0-3.239" transform="translate(-5.766 -116.485)" fill="#c62e2e"/>
      <path id="Trazado_2345-2" data-name="Trazado 2345" d="M949.114,209.89h3.021a.828.828,0,0,0,.71-.8.638.638,0,0,0-.2-.485.68.68,0,0,0-.5-.188H949.1a.642.642,0,0,0-.5.125.9.9,0,0,0-.2.591.785.785,0,0,0,.71.756" transform="translate(-7.303 -95.318)" fill="#c62e2e"/>
      <path id="Trazado_2346-2" data-name="Trazado 2346" d="M952.65,144.744c-.13-.135-.313-.327-.5-.327H949.1c-.188,0-.371.192-.5.327a.65.65,0,0,0-.2.49.694.694,0,0,0,.71.656h3.021a.694.694,0,0,0,.71-.655.65.65,0,0,0-.2-.49" transform="translate(-7.303 -50.162)" fill="#c62e2e"/>
      <path id="Trazado_2347-2" data-name="Trazado 2347" d="M952.65,130.74c-.13-.135-.313-.323-.5-.323H949.1c-.188,0-.371.188-.5.323a.655.655,0,0,0-.2.492.7.7,0,0,0,.71.658h3.021a.7.7,0,0,0,.71-.658.654.654,0,0,0-.2-.492" transform="translate(-7.303 -40.284)" fill="#c62e2e"/>
      <path id="Trazado_2348-2" data-name="Trazado 2348" d="M949.1,159.418a.674.674,0,0,0-.5.184.815.815,0,0,0-.2.561.757.757,0,0,0,.71.727h3.021a.771.771,0,0,0,.711-.742.706.706,0,0,0-.7-.731Z" transform="translate(-7.303 -60.746)" fill="#c62e2e"/>
      <path id="Trazado_2349-2" data-name="Trazado 2349" d="M949.114,194.876h3.021c.379,0,.7-.459.71-.831a.6.6,0,0,0-.2-.469.667.667,0,0,0-.5-.172H949.1c-.188,0-.371-.041-.5.094a.939.939,0,0,0-.2.606.8.8,0,0,0,.71.772" transform="translate(-7.303 -84.721)" fill="#c62e2e"/>
      <path id="Trazado_2350-2" data-name="Trazado 2350" d="M949.114,225.89h3.021a.739.739,0,0,0,.514-1.24.721.721,0,0,0-.5-.232H949.1a.7.7,0,0,0-.5.213.783.783,0,0,0-.2.546.743.743,0,0,0,.71.712" transform="translate(-7.303 -106.607)" fill="#c62e2e"/>
      <path id="Trazado_2351-2" data-name="Trazado 2351" d="M1002.1,78.343c-.666-.4-1.391-.818-2.166-1.246s-1.593-.883-2.454-1.321-1.75-.9-2.685-1.3c-.462-.211-.939-.407-1.423-.6-.232-.1-.507-.182-.765-.271-.13-.041-.264-.091-.39-.124l-.371-.084-.186-.04-.047-.01-.049-.008h-.014l-.029,0-.114-.007a2.712,2.712,0,0,0-.446,0c-.085.006-.165.021-.247.032.093.36.174.725.246,1.093.023,0,.047-.007.069-.008a1.826,1.826,0,0,1,.311,0l.075,0h.019l.031.007.185.042.372.08c.119.03.224.072.337.107.223.077.437.133.674.231.465.175.928.357,1.384.559.913.395,1.816.792,2.682,1.2l4.735,2.243,3.359,1.589,1.282.59s-1.707-1.187-4.374-2.761" transform="translate(-37.157 0)" fill="#ced8db"/>
      <g id="Grupo_3558-2" data-name="Grupo 3558" transform="translate(951.784 83.799)">
        <g id="Grupo_3557-2" data-name="Grupo 3557" transform="translate(0 0)" clip-path="url(#clip-path)">
          <path id="Trazado_2352-2" data-name="Trazado 2352" d="M984.686,109.363c6.082,1.8,16.388-.816,16.864-.415,2.624,2.214-.414,21.318-.968,27.316s.553,17.657-.553,18.255-7.539-16.819-7.539-16.819,5.88-.138,6.571-13.27.138-9.953.138-9.953Z" transform="translate(-984.686 -108.906)" fill="#fff"/>
        </g>
      </g>
      <path id="Trazado_2353-2" data-name="Trazado 2353" d="M953.09,301.1h-4.24a1.08,1.08,0,0,1-1.08-1.08V284.373a1.08,1.08,0,0,1,1.08-1.08h4.24a1.08,1.08,0,0,1,1.08,1.08v15.643a1.08,1.08,0,0,1-1.08,1.08" transform="translate(-6.856 -148.147)" fill="#f2f2f2"/>
    </g>
    <g id="Grupo_3588" data-name="Grupo 3588" transform="translate(156 -398.321)" opacity="0.758">
      <path id="Trazado_2381" data-name="Trazado 2381" d="M2549.939,998.185c4.3-5.383-1.387,8.176-.645,7.49-.163,3.946-.836,9.661-3.074,12.052-2.764,2.951-6.948,4.6-12.333,5.724a717.332,717.332,0,0,1-108.1,4.215,8.281,8.281,0,0,1-4.35-2.114,4.153,4.153,0,0,1-3.3,2.646c-30.35-.584-60.588-.86-91.437-2.82A4.18,4.18,0,0,1,2324.5,1023c-.533.974-.717,2.178-2.224,2.515,0,0-22.793-1.659-29.543-2.952s-9.771-4.38-9.771-4.38a22.286,22.286,0,0,1-9.387-6.089c-1.363-10.861-1.427-19.642-.45-24.959,1.337-7.276,6.559-6.464,8.044-3.144,1.359,3.037,5.066,9.521,11.564,11.718,7.255,2.452,26.913.273,28,0a86.989,86.989,0,0,0,11.593.055c12.307-.763,25.685-2.87,36.27-1.47,16.712-4.241,35.656-14.584,50.035-12.446,1.044.214,6.148-1.6,7.263-1.783.618-2.289,49.828.823,52.126,3.984,3,.559,11.131,1.808,13.286-.487a33.77,33.77,0,0,1,16.2-8.957c4.258-1.054,8.832-.615,13.445.03,6.106.852,12.257,2.66,17.621,7.719C2541.65,985.264,2545.051,989.24,2549.939,998.185Z" transform="translate(-1815.92 1566.054)" fill="#fff" opacity="0.733"/>
    </g>
  </g>
</svg>
