<svg xmlns="http://www.w3.org/2000/svg" width="920" height="258" viewBox="0 0 920 258">
  <g id="Grupo_3614" data-name="Grupo 3614" transform="translate(-112 -3444)">
    <rect id="Rectángulo_992" data-name="Rectángulo 992" width="920" height="258" transform="translate(112 3444)" fill="#3caea4"/>
    <path id="Trazado_2445" data-name="Trazado 2445" d="M0,115.207,920,.934V141H0Z" transform="translate(112 3559)" fill="#dedede" opacity="0.251"/>
    <g id="Grupo_3383" data-name="Grupo 3383" transform="translate(267.207 3290.444)">
      <path id="Trazado_2004" data-name="Trazado 2004" d="M191.125,384.608c-1.879,5.8-3.421,11.735-4.839,17.68-.668,2.771-1.312,5.549-1.944,8.314q-.984,4.263-1.891,8.544v.006q-2.18,10.237-3.953,20.534-.541,3.147-1.046,6.287c-1.383,8.515-2.57,17.047-3.64,25.6a.035.035,0,0,0-.006.024q-.736,5.85-1.4,11.706H135.793c.225-2.192.408-4.319.526-6.329,1.14-19.919.756-39.419,4.562-59.019,1.832-9.425,6.86-16.918,9.378-26.189,1.17-4.3,2.47-8.568,3.906-12.787,1.14-3.362,2.151-6.984,4.154-9.969.148-.219.3-.431.455-.638.053-.083.112-.16.177-.242.118-.16.242-.313.372-.467a.082.082,0,0,0,.018-.024c.077-.095.154-.189.236-.278.142-.171.29-.337.443-.5.089-.095.177-.189.266-.272.13-.142.26-.272.4-.4.3-.3.609-.573.928-.845.183-.154.372-.307.561-.455.065-.053.136-.1.2-.154.183-.136.366-.272.555-.4.053-.041.1-.077.154-.112.248-.171.5-.337.75-.49a18.755,18.755,0,0,1,12.716-2.606h.006c.024.006.041.006.065.012a18.432,18.432,0,0,1,14.908,13.6A17.857,17.857,0,0,1,191.125,384.608Z" transform="translate(0 -72.759)" fill="#e6eaec"/>
      <path id="Trazado_2005" data-name="Trazado 2005" d="M163.831,365.687c-.012.012-.018.03-.03.041v.006c-.065.1-.136.2-.2.3v.006c-.095.16-.189.313-.278.479a14.4,14.4,0,0,0-1.389,9.939,28.821,28.821,0,0,1,.012,3.847c0,.16-.012.325-.024.485a41.582,41.582,0,0,1-1.259,4.839c-.408,1.294-.875,2.57-1.383,3.835-4.479,9.821-11.144,19.057-12.923,29.775-3.853,23.222,5.129,22.129,1.909,44.377a97.129,97.129,0,0,0-4.319,10.211,54.436,54.436,0,0,0-2.086,11.428h-6.069c.225-2.192.408-4.319.526-6.328,1.14-19.919.756-39.419,4.562-59.019,1.832-9.425,6.86-16.917,9.378-26.189,1.17-4.3,2.47-8.568,3.906-12.787,1.14-3.362,2.151-6.984,4.154-9.969.148-.219.3-.431.455-.638.053-.083.112-.16.177-.242.118-.16.242-.313.372-.467a.081.081,0,0,0,.018-.024c.077-.095.154-.189.236-.278.142-.171.29-.337.443-.5.089-.095.177-.189.266-.272.13-.142.26-.272.4-.4.3-.3.609-.573.928-.845.183-.154.372-.307.561-.455.065-.053.136-.1.2-.154.183-.136.366-.272.555-.4.053-.041.1-.077.154-.112C163.329,366.006,163.577,365.841,163.831,365.687Z" transform="translate(0 -74.715)" fill="#ced4db"/>
      <path id="Trazado_2006" data-name="Trazado 2006" d="M182.721,365.467c.022-.116.044-.234.066-.351a18.362,18.362,0,0,0-2.105,1.422A10.945,10.945,0,0,1,182.721,365.467Z" transform="translate(-18.364 -74.482)" fill="#c3cbd3"/>
      <path id="Trazado_2007" data-name="Trazado 2007" d="M442.676,483.863H406.354c-.035-.343-.071-.691-.106-1.034q-1.214-11.549-2.866-23.11c-1.554-10.825-3.421-21.621-5.637-32.3-1.844-8.887-3.717-17.751-5.986-26.543-1.052-4.059-2.133-8.107-3.315-12.125-.892-3.037-1.885-5.921-1.749-9.135a18.256,18.256,0,0,1,10.359-15.553c.207-.1.414-.189.62-.278.479-.207.957-.39,1.448-.549.112-.041.225-.077.343-.112a18.253,18.253,0,0,1,3.008-.668q.4-.053.8-.089a18.776,18.776,0,0,1,13.059,3.7,18.1,18.1,0,0,1,3.28,3.238,17.736,17.736,0,0,1,2.6,4.5,204.353,204.353,0,0,1,6.961,21.71c2.334,8.639,7.162,16.971,8.81,25.757,3.445,18.336,2.807,37.209,4.16,55.793Q442.4,480.536,442.676,483.863Z" transform="translate(-102.638 -73.322)" fill="#e6eaec"/>
      <path id="Trazado_2008" data-name="Trazado 2008" d="M415.1,478.984a40.478,40.478,0,0,0,.78,4.934h-9.531c-.035-.343-.071-.691-.106-1.034q-1.214-11.549-2.866-23.11c-1.554-10.825-3.421-21.621-5.637-32.3-1.844-8.887-3.717-17.751-5.986-26.543-1.052-4.06-2.133-8.107-3.315-12.125-.892-3.037-1.885-5.921-1.749-9.135a18.256,18.256,0,0,1,10.359-15.553c.207-.1.414-.189.62-.278.479-.207.957-.39,1.448-.55.112-.041.225-.077.343-.112a18.253,18.253,0,0,1,3.008-.668q.4-.053.8-.089a79.638,79.638,0,0,0-3.285,14.282c-.815,5.98-1.383,12.563.4,18.448.7,2.34,2.712,8.013,5,14.43,3.9,10.926,8.615,23.991,9.106,26.331,1,4.845,3.545,9.224,4.633,14.028.118,1.773-2.476,14.093-3.25,18.6A39.6,39.6,0,0,0,415.1,478.984Z" transform="translate(-102.638 -73.378)" fill="#ced4db"/>
      <path id="Trazado_2009" data-name="Trazado 2009" d="M317.492,233.418c-1.26,0-2.228,1.436-2.586,2.054l-.019.032-.3.607,1.308-16.536-8.225-10.962-17.319-6.918h-5.716l-17.32,6.918-8.225,10.962,1.308,16.536-.3-.607-.019-.032c-.358-.617,1.146,21.46,3.414,21.46a2.641,2.641,0,0,0,.472-.043q.1.408.2.811c.739,2.976,1.34,5.472,1.714,7.044A14.715,14.715,0,0,0,267.8,269.3c1.06,1.651,2.836.349,5.277,3.4,4.528,5.656,9.845,6.041,10.069,6.055l.033,0H291.8l.032,0c.225-.014,5.541-.4,10.07-6.055,2.44-3.048,4.217-1.746,5.277-3.4a14.714,14.714,0,0,0,1.927-4.553c.372-1.564.971-4.056,1.714-7.044q.1-.4.2-.811a2.642,2.642,0,0,0,.472.043h0c2.267,0,3.47-2.876,3.6-3.207C315.093,253.724,318.009,233.418,317.492,233.418Z" transform="translate(-50.44 -7.626)" fill="#d4885f"/>
      <path id="Trazado_2010" data-name="Trazado 2010" d="M317.74,391.077c-2.05,4.7-3.469,7.859-3.469,7.859l1.465,42.338.833,24.144H188.4l.408-11.729,1.241-36.027.65-18.726s-9.809-20.3-15.038-33.144c-.2-.49-.4-.975-.579-1.442-.449-1.135-.857-2.2-1.205-3.161-.077-.219-.154-.425-.225-.632-.2-.579-.39-1.123-.544-1.619q-.275-.86-.425-1.525c-.024-.083-.041-.165-.059-.248s-.035-.16-.047-.23-.03-.148-.041-.219a6.663,6.663,0,0,1-.089-1.111c0-.148.006-.3.018-.449,0-.071.006-.136.012-.207.006-.1.018-.2.03-.307s.03-.23.047-.349c.006-.035.012-.065.018-.1.024-.148.053-.3.089-.455s.065-.3.106-.449.083-.3.13-.455q.053-.186.124-.372a13.411,13.411,0,0,1,1.3-2.683.082.082,0,0,0,.018-.024c.095-.148.189-.3.29-.443a16.531,16.531,0,0,1,1.01-1.335c.124-.148.248-.3.384-.443q.594-.665,1.294-1.312c7.15-6.589,16.315-12.421,25.6-15.251l10.7-2.919,4.006-1.087.957-.266,2.659-.721.9-.248,7.268-1.98,1.59-.437,3.711-1.01,1.182-.319,2.848-.78,7.132-1.944.414-.112,5.513-1.5.685-.189v-.26l.4.13.39-.13v.26l6.139,1.7.49.136,5.755,1.59h.006l5.4,1.495,2.594.715,2.683.745,1.749.484,5.791,1.6,3.345.928,1,.278,3.35.922,10.66,2.949a64.77,64.77,0,0,1,23.991,13.384,37.854,37.854,0,0,1,5.744,6.482c.709,1.016,1.081,1.655,1.081,1.655C332.2,357.567,322.934,379.212,317.74,391.077Z" transform="translate(-14.993 -54.878)" fill="#e6eaec"/>
      <path id="Trazado_2011" data-name="Trazado 2011" d="M222.137,331.64l-19.22,5.242c-9.291,2.828-18.454,8.661-25.607,15.249-3.95,3.638-5.238,7.746-4.782,10.494a47.309,47.309,0,0,0,2.55,7.635,55.18,55.18,0,0,1,8.078-13.2,45.8,45.8,0,0,1,14.558-11.71c5.229-2.676,10.816-4.541,16.261-6.714a51.471,51.471,0,0,0,6.376-3.4,11.962,11.962,0,0,1,1.876-.971c-.054-.415-.093-.835-.112-1.259A11.4,11.4,0,0,1,222.137,331.64Z" transform="translate(-14.992 -60.787)" fill="#ced4db"/>
      <path id="Trazado_2012" data-name="Trazado 2012" d="M207.651,534.974h-8.208l.4-11.706,1.247-36.051q.514.479,1.081.922c.071.1.136.189.207.29a29.7,29.7,0,0,1,.857,3.522c.177,1.9.248,3.8.254,5.7.041,5.885-.485,11.765-.2,17.662a60.543,60.543,0,0,0,4.077,18.927C207.462,534.483,207.556,534.725,207.651,534.974Z" transform="translate(-26.039 -124.433)" fill="#ced4db"/>
      <path id="Trazado_2013" data-name="Trazado 2013" d="M217.134,468.388c7.1-1.936,25.821-12.265,25.106-16.138S206.529,471.28,217.134,468.388Z" transform="translate(-32.459 -109.947)" fill="#ced4db"/>
      <path id="Trazado_2014" data-name="Trazado 2014" d="M214.929,431.444c-5.809,3.228-5.164,23.239-5.164,23.239C215.859,440.692,220.739,428.217,214.929,431.444Z" transform="translate(-30.253 -101.406)" fill="#ced4db"/>
      <path id="Trazado_2015" data-name="Trazado 2015" d="M295.777,303.37v-.257l-.857.129-.858-.129v.257l-15.441,2.316-3.4,19.728,2.807,2.166a27.776,27.776,0,0,0,34.595-.526l2-1.64-3.4-19.728Z" transform="translate(-57.04 -49.116)" fill="#fff"/>
      <path id="Trazado_2016" data-name="Trazado 2016" d="M307.094,273.067c-4.059,0-8.073-.092-9.388-1.267-1.986-1.773-3.44-2.924-4.857-2.918-.784,0-2.536,1.145-4.522,2.918-1.315,1.175-5.329,1.267-9.388,1.267s-8.9,4.567-8.326,12.707c.557,7.89,5.042,14.084,21.781,13.831h1.244c16.74.254,21.224-5.94,21.781-13.831C315.994,277.634,311.154,273.067,307.094,273.067Z" transform="translate(-55.136 -35.112)" fill="#086f79"/>
      <path id="Trazado_2017" data-name="Trazado 2017" d="M284.611,304.389c-.089,0-.177,0-.266,0s-.177,0-.265,0c-12.788-.287-26.226-10.33-26.226-10.33l-8.483,25.175,33.95,9.833v.594l1.025-.3,1.025.3v-.594l33.95-9.833-8.483-25.175S297.4,304.1,284.611,304.389Z" transform="translate(-46.465 -45.412)" fill="#e6eaec"/>
      <g id="Grupo_3379" data-name="Grupo 3379" transform="translate(209.718 215.545)">
        <path id="Trazado_2018" data-name="Trazado 2018" d="M314.189,242.057c-1.507-.912-2.681-1.582-7.292-2.017-.1-.009-.2-.014-.293-.014H273.152c-.1,0-.2,0-.293.014-4.611.435-5.785,1.106-7.292,2.017-5.244,3.171-3.515,23.12,11.924,23.549,6.093.17,7.965-4.73,9.817-8.17a2.926,2.926,0,0,1,5.138,0c1.852,3.44,3.725,8.34,9.817,8.17C317.7,265.176,319.434,245.228,314.189,242.057Z" transform="translate(-261.715 -238.852)" fill="#5a84a0" opacity="0.5"/>
        <path id="Trazado_2019" data-name="Trazado 2019" d="M313.979,240.241c-1.763-1.067-3.168-1.746-7.792-2.182-.131-.012-.269-.018-.4-.018H272.336c-.132,0-.269.007-.4.019-4.622.436-6.025,1.115-7.789,2.182-2.982,1.8-4.085,7.5-2.566,13.259,2.006,7.6,7.637,12.26,15.064,12.466,6.25.161,8.614-4.416,10.349-7.768.181-.349.358-.691.534-1.019a1.753,1.753,0,0,1,3.073,0c.177.328.353.669.534,1.019,1.7,3.29,4.022,7.773,10.007,7.773.112,0,.227,0,.342,0,7.428-.206,13.06-4.867,15.065-12.466C318.064,247.744,316.962,242.044,313.979,240.241Zm.3,12.66c-.828,3.139-3.74,10.467-12.862,10.72-4.772.14-6.512-3.24-8.2-6.5-.186-.36-.369-.713-.551-1.052a4.1,4.1,0,0,0-7.2,0c-.183.339-.365.691-.551,1.052-1.688,3.262-3.431,6.63-8.2,6.5-9.122-.253-12.033-7.581-12.862-10.72-1.326-5.023-.289-9.564,1.512-10.652,1.378-.834,2.374-1.436,6.792-1.854.061-.005.125-.008.186-.008h33.452c.061,0,.125,0,.183.008,4.421.417,5.417,1.02,6.8,1.854C314.565,243.337,315.6,247.877,314.276,252.9Z" transform="translate(-260.898 -238.04)" fill="#194868"/>
      </g>
      <path id="Trazado_2020" data-name="Trazado 2020" d="M313.047,248.632c.617-14.862,13.361-65.579-30.2-65.568,0,0-.172-.006-.261-.005s-.172-.005-.261-.005v.011c-38.43,1.044-30.022,43.408-28.718,66.089.473,8.225-6.212,21.121-6.212,21.121,5.689,13.863,32.364,20.82,35.245,20.462,2.882.358,31.46-6.295,37.04-20.157C319.68,270.58,312.705,256.863,313.047,248.632ZM294.829,261.9c-8.04,6.538-18.637,3.135-23.754,0-13.353-8.182-15.841-35.892-14.864-45.179.545-5.174,16.567-9.969,27.163-10.091,7.146-.083,26.406,6.09,26.95,11.265C311.3,227.179,309.352,250.085,294.829,261.9Z" transform="translate(-45.656 0)" fill="#e6eaec"/>
      <path id="Trazado_2021" data-name="Trazado 2021" d="M313.034,266.863c-5.579,6.665-12.9,12.336-21.23,15.03-8.932,2.888-19.658,1.086-26.3-5.86-5.488-5.742-6.743-13.481-6.851-21.125-.06-4.3-.2-8.609-.321-12.914-2.227-9.2-2.618-18.588-2.125-23.279.135-1.276,1.214-2.53,2.918-3.7,1.254-9.612,3.943-18.99,9.282-27.084-22.224,10.036-15.92,43.819-14.805,63.215.473,8.225-6.212,21.121-6.212,21.121,5.689,13.863,32.364,20.82,35.245,20.462,2.882.358,31.46-6.295,37.04-20.157a91.2,91.2,0,0,1-3.959-9.278A44.035,44.035,0,0,1,313.034,266.863Z" transform="translate(-45.656 -1.998)" fill="#c3cbd3"/>
      <g id="Grupo_3380" data-name="Grupo 3380" transform="translate(204.877 204.639)">
        <path id="Trazado_2022" data-name="Trazado 2022" d="M313.554,219.584h-49.2a4.1,4.1,0,0,0-4.1,4.1v53.35a7.079,7.079,0,0,0,7.079,7.079h43.238a7.079,7.079,0,0,0,7.079-7.079V223.68A4.1,4.1,0,0,0,313.554,219.584Z" transform="translate(-255.794 -219.584)" fill="#e6eaec" opacity="0.3"/>
        <path id="Trazado_2023" data-name="Trazado 2023" d="M347.548,219.584h-3.694c.008.2.016.389.016.584v59.962a15.739,15.739,0,0,1-.523,3.978h1.217a7.079,7.079,0,0,0,7.079-7.079V223.68A4.1,4.1,0,0,0,347.548,219.584Z" transform="translate(-289.787 -219.584)" fill="#e6eaec" opacity="0.5"/>
        <path id="Trazado_2024" data-name="Trazado 2024" d="M279.815,219.647v64.461h15.9V219.584h-15.9C279.813,219.605,279.815,219.626,279.815,219.647Z" transform="translate(-263.796 -219.584)" fill="#e6eaec" opacity="0.5"/>
        <rect id="Rectángulo_948" data-name="Rectángulo 948" width="65.744" height="3.974" transform="translate(0 0)" fill="#087593"/>
      </g>
      <rect id="Rectángulo_949" data-name="Rectángulo 949" width="7.038" height="119.805" transform="translate(234.355 290.735)" fill="#086f79"/>
      <g id="Grupo_3381" data-name="Grupo 3381" transform="translate(197.335 267.406)">
        <path id="Trazado_2025" data-name="Trazado 2025" d="M279.349,345.576c-20.518-2.173-33.6-19.593-33.733-19.77l-5.673,4.167c.612.835,15.265,20.463,39.327,22.669l.546.05.535-.118c1.091-.241,26.867-6.09,39.8-22.169l-5.484-4.413C304.226,338.973,282.938,344.688,279.349,345.576Z" transform="translate(-239.943 -325.806)" fill="#086f79"/>
      </g>
      <g id="Grupo_3382" data-name="Grupo 3382" transform="translate(233.41 183.058)">
        <rect id="Rectángulo_950" data-name="Rectángulo 950" width="7.039" height="21.619" fill="#086f79"/>
      </g>
    </g>
    <g id="Grupo_3594" data-name="Grupo 3594" transform="translate(-1306.083 2018.505)">
      <g id="Grupo_3149" data-name="Grupo 3149" transform="translate(1906.083 1482.992)" opacity="0.8">
        <circle id="Elipse_552" data-name="Elipse 552" cx="68.32" cy="68.32" r="68.32" transform="translate(0 27.474) rotate(-11.599)" fill="#fff"/>
      </g>
      <g id="Grupo_3150" data-name="Grupo 3150" transform="translate(1942.04 1515.832)">
        <path id="Trazado_1811" data-name="Trazado 1811" d="M2010.635,1635.192v-24.91a17.185,17.185,0,0,1-2.448-6.107l-1.619-1.62a2.828,2.828,0,0,0-.267-.316l-22.912-22.911a2.677,2.677,0,0,0-3.786,3.785l17.389,17.39-1.682,1.683-19.6-19.6a2.677,2.677,0,0,0-3.786,3.786l19.6,19.6-1.682,1.682-18.968-18.967a2.677,2.677,0,1,0-3.786,3.786l18.968,18.967-1.683,1.683-14.55-14.551a2.677,2.677,0,0,0-3.786,3.786l14.55,14.551-.023.024,11.717,11.785a14.1,14.1,0,0,0,8.193,4.292l16.1,16.1,13.916-13.916h-19.852Z" transform="translate(-1965.253 -1553.463)" fill="#005c78"/>
        <path id="Trazado_1812" data-name="Trazado 1812" d="M2081.894,1573.216c-1.16,0-2.759.684-4.938,2.787-3.019,2.915-5.008,3.522-6.14,3.522a1.926,1.926,0,0,1-1.182-.31v-3.6a2.673,2.673,0,0,0,.035-.413v-32.4a2.677,2.677,0,0,0-5.355,0v24.593h-2.379v-27.717a2.677,2.677,0,0,0-5.354,0v27.717h-2.38v-26.824a2.677,2.677,0,1,0-5.354,0v26.824h-2.38v-20.577a2.677,2.677,0,1,0-5.355,0v20.577h-.033l-.048,16.619a14.112,14.112,0,0,0,2.759,8.829V1615.6h23.2v-19.559a13.373,13.373,0,0,0,3.576-3.076l14.123-17.363S2084.059,1573.216,2081.894,1573.216Z" transform="translate(-1995.283 -1536.997)" fill="#005c78"/>
      </g>
    </g>
  </g>
</svg>
