<svg xmlns="http://www.w3.org/2000/svg" width="920" height="258" viewBox="0 0 920 258">
  <g id="Grupo_3616" data-name="Grupo 3616" transform="translate(-112 -1168)">
    <g id="Grupo_3596" data-name="Grupo 3596" transform="translate(0 -443)">
      <rect id="Rect치ngulo_972" data-name="Rect치ngulo 972" width="920" height="258" transform="translate(112 1611)" fill="#3caea4"/>
      <path id="Trazado_1716" data-name="Trazado 1716" d="M0,115.207,920,.934V141H0Z" transform="translate(112 1726)" fill="#dedede" opacity="0.251"/>
    </g>
    <circle id="Elipse_575" data-name="Elipse 575" cx="86.5" cy="86.5" r="86.5" transform="translate(492 1218)" fill="#d3ebed"/>
    <rect id="Rect치ngulo_964" data-name="Rect치ngulo 964" width="290" height="220" transform="translate(420 1190)" fill="none"/>
    <g id="Grupo_3553" data-name="Grupo 3553" transform="translate(185 -197.814)">
      <path id="Trazado_2325" data-name="Trazado 2325" d="M376.852,211.419a2.339,2.339,0,0,0,2.339-2.338,25.716,25.716,0,0,1,51.432,0c0,10.506-6.523,17.138-13.427,24.159-5.472,5.564-11.132,11.316-13.419,19.174-1.733,5.955-7.335,9.4-13.028,8.015a10.771,10.771,0,0,1-5.9-17.143,2.338,2.338,0,0,0-3.663-2.905,15.441,15.441,0,0,0,8.453,24.592,14.934,14.934,0,0,0,3.544.427,15.908,15.908,0,0,0,15.08-11.679c1.958-6.725,6.962-11.814,12.26-17.2,7.262-7.383,14.771-15.017,14.771-27.437a30.392,30.392,0,0,0-60.785,0A2.337,2.337,0,0,0,376.852,211.419Z" transform="translate(-25.3 1217.252)" fill="#272727"/>
      <path id="Trazado_2326" data-name="Trazado 2326" d="M402.563,195.573c4.11,0,7.278.979,9.416,2.912s3.227,4.844,3.227,8.652a2,2,0,0,0,4.008,0c0-4.987-1.53-8.9-4.548-11.625-2.9-2.619-6.971-3.946-12.1-3.946a16.469,16.469,0,0,0-12.105,5.5c-4.936,5.317-7.242,13.765-6.494,23.788a1.907,1.907,0,0,0,.053.306c.489,5.439,4.664,9.7,9.727,9.7,5.391,0,9.778-4.832,9.778-10.771s-4.387-10.769-9.778-10.769a9.1,9.1,0,0,0-5.43,1.82A21.7,21.7,0,0,1,393.4,199.79,12.512,12.512,0,0,1,402.563,195.573Zm-8.819,17.752c3.182,0,5.771,3.033,5.771,6.762s-2.589,6.762-5.771,6.762-5.77-3.033-5.77-6.762S390.564,213.326,393.744,213.326Z" transform="translate(-23.06 1220.35)" fill="#272727"/>
    </g>
    <g id="Grupo_3554" data-name="Grupo 3554" transform="translate(115 -102)">
      <path id="Trazado_2327" data-name="Trazado 2327" d="M479.634,252.771a32.56,32.56,0,0,0,6.764-.717,11.887,11.887,0,0,0,4.144,1.759,15.586,15.586,0,0,0,7.077,0,11.879,11.879,0,0,0,4.144-1.759,32.568,32.568,0,0,0,6.764.717c3.908,0,9.278-.735,12.669-4.235a11.13,11.13,0,0,0,2.975-8.44c-.282-8.831-7.374-12.681-11.611-14.982-.523-.284-1.018-.552-1.469-.812a5.106,5.106,0,0,1-2.459-4.087l-2.95-29.234c-.464-8.355-6.283-13.052-11.533-13.231l-.068,0-.069,0c-5.25.179-11.069,4.876-11.532,13.231l-2.947,29.185a5.134,5.134,0,0,1-2.462,4.136c-.452.26-.947.528-1.47.812-4.237,2.3-11.329,6.151-11.611,14.982a11.124,11.124,0,0,0,2.976,8.439C470.357,252.036,475.726,252.771,479.634,252.771Zm36.148-7.3a3.486,3.486,0,0,0,.414-3.283,2.687,2.687,0,0,0-1.879-1.671c-2.532-.738-6.9.876-9.39,2.846a15.951,15.951,0,0,0-3.629,4.1c-1.09,1.64-1.748,2.63-4.4,3.251a12.392,12.392,0,0,1-5.627,0c-2.656-.621-3.314-1.611-4.4-3.251a15.951,15.951,0,0,0-3.629-4.1c-2.495-1.97-6.865-3.581-9.389-2.846a2.689,2.689,0,0,0-1.88,1.671,3.486,3.486,0,0,0,.414,3.283c2.3,3.246,10.691,3.592,12.747,3.628.029.044.06.086.089.129-4.5.884-11.509.972-15.366-2.125A8.022,8.022,0,0,1,467,240.192c.227-7.108,5.9-10.188,10.041-12.436.546-.3,1.063-.577,1.534-.848a8.094,8.094,0,0,0,3.954-6.441l2.954-29.277c.261-4.925,3.376-10.256,8.568-10.436,5.259.18,8.374,5.511,8.638,10.483l2.95,29.206a8.109,8.109,0,0,0,3.955,6.465c.471.271.988.551,1.534.848,4.142,2.248,9.814,5.328,10.041,12.436a8.022,8.022,0,0,1-2.853,6.909c-3.857,3.1-10.866,3.009-15.366,2.125.029-.044.06-.085.089-.129C505.088,249.061,513.48,248.716,515.782,245.469Zm-10.969,1.2a12.306,12.306,0,0,1,1.571-1.467,12.076,12.076,0,0,1,6.49-2.529,2.854,2.854,0,0,1,.784.094c.085.025.285.093.318.187a1.135,1.135,0,0,1-.112,1.152C512.76,245.67,508.354,246.44,504.813,246.673Zm-21.465,0c-3.541-.232-7.947-1-9.051-2.563a1.133,1.133,0,0,1-.112-1.151c.033-.094.233-.162.318-.187a2.853,2.853,0,0,1,.784-.094,12.067,12.067,0,0,1,6.49,2.529A12.373,12.373,0,0,1,483.348,246.672Z" transform="translate(-25.3 1217.252)" fill="#272727"/>
      <path id="Trazado_2328" data-name="Trazado 2328" d="M494.126,185.741a1.229,1.229,0,0,0-1.238,1.148,1.194,1.194,0,0,0,1.148,1.238c2.541.1,4.2,3.181,4.346,6.16l1.2,13.233a1.192,1.192,0,0,0,1.187,1.086c.037,0,.073,0,.109,0a1.194,1.194,0,0,0,1.081-1.3l-1.2-13.183C500.576,190.174,498.186,185.9,494.126,185.741Z" transform="translate(-25.3 1217.252)" fill="#272727"/>
    </g>
    <path id="Trazado_2329" data-name="Trazado 2329" d="M258.313,213.858c.005.04.009.078.016.117a1.855,1.855,0,0,0,.14.459,2.271,2.271,0,0,0,.188.32c.509.694,12.743,16.994,37.211,16.994s36.7-16.3,37.211-16.994a1.87,1.87,0,0,0,.173-.294,1.765,1.765,0,0,0,.155-.485c.007-.039.012-.078.016-.117a1.874,1.874,0,0,0,.005-.4c0-.025,0-.05,0-.074a1.924,1.924,0,0,0-.123-.447c-.014-.035-.032-.069-.049-.1a1.839,1.839,0,0,0-.209-.34c-.014-.018-.021-.04-.036-.058a92.817,92.817,0,0,0-8.021-8.3c-6.279-5.708-11.527-8.6-15.6-8.6-3.3,0-8.425,2.146-12.145,3.947a3.145,3.145,0,0,1-2.75,0c-3.721-1.8-8.848-3.947-12.144-3.947-4.072,0-9.32,2.894-15.6,8.6a92.985,92.985,0,0,0-8.021,8.3c-.015.018-.022.04-.036.058a1.845,1.845,0,0,0-.209.341c-.017.034-.034.066-.048.1a1.832,1.832,0,0,0-.123.447c0,.024,0,.049,0,.073A1.95,1.95,0,0,0,258.313,213.858Zm6.137,1.666H327.3a45.873,45.873,0,0,1-62.851,0Zm17.9-16.223c1.985,0,5.814,1.3,10.5,3.57a6.885,6.885,0,0,0,6.033,0c4.688-2.269,8.516-3.57,10.5-3.57,5.155,0,13.186,7.359,17.97,12.454h-62.98C269.162,206.66,277.193,199.3,282.349,199.3Z" transform="translate(342.7 1061.252)" fill="#272727"/>
    <path id="Trazado_2332" data-name="Trazado 2332" d="M1196.13,991.9a26.571,26.571,0,0,1-8.36,1.249c-7.935,0-13.465-2.865-13.465-5.437v-2.444a17.408,17.408,0,0,0,7.033,2.933,1.257,1.257,0,0,0,.517-2.46c-4.445-.935-7.55-2.928-7.55-4.849v-2.448a17.4,17.4,0,0,0,7.033,2.934,1.257,1.257,0,1,0,.518-2.46c-4.446-.935-7.551-2.929-7.551-4.849v-2.448a17.405,17.405,0,0,0,7.033,2.933,1.257,1.257,0,1,0,.518-2.46c-4.446-.935-7.551-2.929-7.551-4.849v-14.82a13.845,13.845,0,0,0,3.561,1.93v5.108a1.257,1.257,0,0,0,2.514,0v-4.328a30.988,30.988,0,0,0,7.391.844c5.792,0,10.675-1.383,13.466-3.554v9.679a1.257,1.257,0,1,0,2.514,0V948.034c0-4.533-6.869-7.951-15.979-7.951s-15.979,3.418-15.979,7.951v39.681c0,4.533,6.869,7.951,15.979,7.951a29.108,29.108,0,0,0,9.163-1.38,1.257,1.257,0,0,0-.8-2.382Zm-8.36-49.307c7.936,0,13.466,2.865,13.466,5.437s-5.53,5.437-13.466,5.437-13.465-2.865-13.465-5.437S1179.835,942.6,1187.771,942.6Z" transform="translate(-658.792 356.753)" fill="#3caea4"/>
  </g>
</svg>
