<svg xmlns="http://www.w3.org/2000/svg" width="920" height="369" viewBox="0 0 920 369">
  <g id="Grupo_3608" data-name="Grupo 3608" transform="translate(-110 -1760)">
    <rect id="Rectángulo_877" data-name="Rectángulo 877" width="920" height="284" transform="translate(110 1845)" fill="#3caea4"/>
    <path id="Trazado_1716" data-name="Trazado 1716" d="M0,115.207,920,.934V141H0Z" transform="translate(110 1988)" fill="#dedede" opacity="0.251"/>
    <g id="Grupo_3086" data-name="Grupo 3086" transform="translate(249.109 1499.136)">
      <rect id="Rectángulo_864" data-name="Rectángulo 864" width="6.558" height="0.059" transform="translate(219.721 488.817)" fill="#fff"/>
      <path id="Trazado_1660" data-name="Trazado 1660" d="M216.191,478.6H501.643a10.286,10.286,0,0,0,8.607-15.942,3.237,3.237,0,0,1-1.557.41H176.688l6.329,6.85a3.242,3.242,0,0,1-.149,4.638l-4.429,4.043h37.752Z" transform="translate(10.088 10.218)" fill="#59b5a9"/>
      <path id="Trazado_1661" data-name="Trazado 1661" d="M509.289,463.7a3.237,3.237,0,0,0,1.557-.41h0c-.022-.032-.037-.07-.059-.1a10.3,10.3,0,0,0-8.5-4.5H440.329a3.2,3.2,0,0,1-1.352.306H172.921l4.351,4.708H509.289Z" transform="translate(9.493 9.59)" fill="#fff"/>
      <path id="Trazado_1662" data-name="Trazado 1662" d="M433.359,436.375v23.267H293.04a3.188,3.188,0,0,0-2.444-1.135,8.43,8.43,0,0,1-.857-16.816l106.478-11.014a3.231,3.231,0,0,0-.66-6.428l-106.49,11.014a14.868,14.868,0,0,0-12.033,20.916,14.025,14.025,0,0,0,1.436,2.5c.232.336.475.649.73.961H168.472c-.069,0-.127.012-.2.012l-1.691-1.818.2-.232a19.368,19.368,0,0,0,1.645-21.425,19.664,19.664,0,0,0-3.5-4.493c-.081-.081-.2-.1-.278-.174,22.78-1.853,69.65-5.165,120.92-8.686.486.046.961.127,1.448.127a14.312,14.312,0,0,0,3.637-.475c45.074-3.081,93.009-6.289,130.66-8.767a28.571,28.571,0,0,1,3.139,2.444,27.273,27.273,0,0,1,8.906,20.221Z" transform="translate(8.185 2.478)" fill="#ffcb96"/>
      <path id="Trazado_1663" data-name="Trazado 1663" d="M148.609,432.723a11.068,11.068,0,0,0-2.712,5.31,9.5,9.5,0,0,0-.315,5.026,7.8,7.8,0,0,0,.716,1.8l4.718-4.718a3.067,3.067,0,0,1,2.348-.946,3.229,3.229,0,0,1,2.308,1.039l9.52,10.3a12.881,12.881,0,0,0-1.682-16.665,3.156,3.156,0,0,1-.8-1.34,3.2,3.2,0,0,1,.632-3.142c-5.561.474-9.035.82-9.936,1.009A11.029,11.029,0,0,0,148.609,432.723Z" transform="translate(5.134 4.957)" fill="#ffcb96"/>
      <path id="Trazado_1664" data-name="Trazado 1664" d="M268.989,415.949l-.161.01a8.3,8.3,0,0,0,4.492-.307l-.24.016Z" transform="translate(24.658 2.785)" fill="#fff"/>
      <path id="Trazado_1665" data-name="Trazado 1665" d="M455.054,413.714a23.507,23.507,0,0,0-13.486-5.915A21.574,21.574,0,0,0,430.419,410a20.737,20.737,0,0,0-9.925,11.254,19.932,19.932,0,0,0-.482,11.907c1.089,3.866,3.214,6.29,7.073,10.693a63.109,63.109,0,0,0,8.093,7.7,24.325,24.325,0,0,0,28.643-24.133v-.031A28.3,28.3,0,0,0,455.054,413.714Z" transform="translate(48.455 1.535)" fill="#ffcb96"/>
      <path id="Trazado_1666" data-name="Trazado 1666" d="M430.949,451.057a3.149,3.149,0,0,0,3.161.388,30.6,30.6,0,0,1-3.408-.585C430.786,450.924,430.865,450.993,430.949,451.057Z" transform="translate(50.255 8.353)" fill="#fff"/>
      <path id="Trazado_1668" data-name="Trazado 1668" d="M427.7,444.51c-3.859-4.4-5.984-6.827-7.073-10.693a19.932,19.932,0,0,1,.482-11.907,20.737,20.737,0,0,1,9.925-11.254,21.574,21.574,0,0,1,11.148-2.205,23.507,23.507,0,0,1,13.486,5.915,28.3,28.3,0,0,1,8.766,13.68c.015.051.028.1.043.152,0-.021,0-.041,0-.061a24.528,24.528,0,1,0-28.6,24.14l-.083-.066A63.109,63.109,0,0,1,427.7,444.51Z" transform="translate(47.842 0.882)" fill="#fff"/>
      <rect id="Rectángulo_865" data-name="Rectángulo 865" width="6.263" height="92.645" transform="translate(485.305 495.338)" fill="#fff"/>
      <path id="Trazado_1669" data-name="Trazado 1669" d="M174.346,482.052h-1.687l-4.576,4.178V574.7h6.263Z" transform="translate(8.728 13.285)" fill="#fff"/>
      <path id="Trazado_1670" data-name="Trazado 1670" d="M437.4,459.8a31.041,31.041,0,0,0,34.417-30.778c0-.332-.039-.654-.05-.984A30.963,30.963,0,1,0,434,459.213,30.6,30.6,0,0,0,437.4,459.8Zm3.437-6.258a24.508,24.508,0,1,1,24.519-24.52c0,.021,0,.041,0,.061A24.545,24.545,0,0,1,440.842,453.539Z" transform="translate(46.96)" fill="#272727"/>
      <path id="Trazado_1671" data-name="Trazado 1671" d="M511.773,460.861H448.006V437.906a33.905,33.905,0,0,0-36.828-33.759l-101.313,7.817-96.542,7.713-54.085,3.9a21.032,21.032,0,0,0-15.588,33.076l-29.81,29.81a3.229,3.229,0,0,0-.139,4.424l29.694,33.736a3.257,3.257,0,0,0,2.247,1.089h.185A3.251,3.251,0,0,0,148,524.87l22.34-20.406v85.864a3.232,3.232,0,0,0,3.231,3.231H186.35a3.232,3.232,0,0,0,3.231-3.231v-95.94H478.847v95.94a3.232,3.232,0,0,0,3.231,3.231h12.763a3.232,3.232,0,0,0,3.231-3.231v-95.94h13.7a16.764,16.764,0,1,0,0-33.528ZM159.725,430.031,281.1,421.253a3.132,3.132,0,0,0,1.274-.371l24.6-2.212,104.741-8.084a27.037,27.037,0,0,1,17.789,4.656,28.574,28.574,0,0,1,3.139,2.444,27.272,27.272,0,0,1,8.906,20.221v23.267H301.225a3.188,3.188,0,0,0-2.444-1.135,8.43,8.43,0,0,1-.857-16.816L404.4,432.208a3.231,3.231,0,0,0-.66-6.428l-106.49,11.014a14.868,14.868,0,0,0-12.033,20.916,14.027,14.027,0,0,0,1.436,2.5c.232.336.475.649.73.961H176.656c-.069,0-.127.012-.2.012l-1.691-1.818.2-.232a19.368,19.368,0,0,0,1.645-21.425,19.664,19.664,0,0,0-3.5-4.493c-.081-.081-.2-.1-.278-.174a3.2,3.2,0,0,0-4.3.266.649.649,0,0,1-.058.093,3.337,3.337,0,0,0,.162,4.482,12.878,12.878,0,0,1,1.679,16.665l-9.52-10.307a3.212,3.212,0,0,0-2.3-1.031,3.1,3.1,0,0,0-2.351.938l-4.714,4.725-3.115,3.115a12.535,12.535,0,0,1-.869-1.714,14.543,14.543,0,0,1,12.276-20.244ZM183.119,587.1h-6.312V498.569l4.575-4.181h1.737Zm-37.049-69.21-25.525-29h.012l37.79-37.79,27.807,30.1.046.046ZM491.61,587.1h-6.3V494.388h6.3Zm20.163-99.171H188.458l.069-.058,4.424-4.042a3.219,3.219,0,0,0,1.054-2.247,3.147,3.147,0,0,0-.51-1.876,3.341,3.341,0,0,0-.347-.452l-6.381-6.914-4.355-4.7H448.47a3.145,3.145,0,0,0,1.355-.313h61.948a10.293,10.293,0,0,1,8.5,4.505l.069.1a10.277,10.277,0,0,1-8.57,15.994Z" transform="translate(0 0.946)" fill="#272727"/>
      <path id="Trazado_1672" data-name="Trazado 1672" d="M424.942,414.361c-37.651,2.478-85.586,5.686-130.66,8.767a14.312,14.312,0,0,1-3.637.475c-.486,0-.961-.081-1.448-.127-51.27,3.521-98.14,6.833-120.92,8.686a3.2,3.2,0,0,0-4.3.266.65.65,0,0,1-.058.093c-5.559.475-9.033.822-9.937,1.008a11,11,0,0,0-4.795,2.328,11.118,11.118,0,0,0-2.722,5.3,9.655,9.655,0,0,0-.313,5.026,7.842,7.842,0,0,0,.718,1.807l-3.115,3.115a12.535,12.535,0,0,1-.869-1.714,14.543,14.543,0,0,1,12.276-20.244l121.372-8.779a3.131,3.131,0,0,0,1.274-.371l24.6-2.212L407.153,409.7A27.038,27.038,0,0,1,424.942,414.361Z" transform="translate(4.557 1.828)" fill="#fff"/>
    </g>
    <g id="Grupo_3087" data-name="Grupo 3087" transform="translate(194 1035)">
      <path id="Sustracción_1" data-name="Sustracción 1" d="M8.107,16.213A8.106,8.106,0,0,1,2.374,2.374,8.106,8.106,0,1,1,13.838,13.838,8.052,8.052,0,0,1,8.107,16.213Zm1.823-3.661a1.681,1.681,0,0,0-.474.07c-.683.2-1.117.783-.967,1.294a1.013,1.013,0,0,0,1.041.632,1.671,1.671,0,0,0,.474-.07c.683-.2,1.118-.782.968-1.293A1.013,1.013,0,0,0,9.929,12.552ZM3.88,11.12a.821.821,0,0,0-.614.244.859.859,0,0,0-.2.757,1.531,1.531,0,0,0,.47.835,1.481,1.481,0,0,0,.992.432.82.82,0,0,0,.613-.244,1.17,1.17,0,0,0-.274-1.593A1.48,1.48,0,0,0,3.88,11.12Zm9.893-2.958A1.249,1.249,0,0,0,12.7,9.212a1.17,1.17,0,0,0,.634,1.487.716.716,0,0,0,.174.021A1.25,1.25,0,0,0,14.582,9.67a1.532,1.532,0,0,0-.059-.956.858.858,0,0,0-.575-.53A.737.737,0,0,0,13.773,8.163ZM8.108,6.509A1.6,1.6,0,0,0,7.169,9.4a1.6,1.6,0,1,0,.939-2.89ZM2.682,5.494A1.245,1.245,0,0,0,1.612,6.55a1.169,1.169,0,0,0,.643,1.482.735.735,0,0,0,.17.02A1.245,1.245,0,0,0,3.495,7a1.169,1.169,0,0,0-.643-1.482A.74.74,0,0,0,2.682,5.494ZM11.7,2.814a.816.816,0,0,0-.608.24,1.168,1.168,0,0,0,.264,1.594,1.479,1.479,0,0,0,1,.437.83.83,0,0,0,.608-.239,1.168,1.168,0,0,0-.265-1.594A1.477,1.477,0,0,0,11.7,2.814ZM6.645,1.641a1.671,1.671,0,0,0-.484.073c-.683.206-1.114.789-.96,1.3a1.011,1.011,0,0,0,1.035.625,1.671,1.671,0,0,0,.483-.073,1.536,1.536,0,0,0,.794-.536.857.857,0,0,0,.165-.764A1.008,1.008,0,0,0,6.645,1.641Z" transform="translate(259.282 851.488)" fill="#11808a" stroke="rgba(0,0,0,0)" stroke-miterlimit="10" stroke-width="1"/>
      <g id="Grupo_3064" data-name="Grupo 3064" transform="translate(254.993 847.199)">
        <path id="Trazado_1684" data-name="Trazado 1684" d="M290.75,194.174c-.121-.4-1-.492-1.962-.2s-1.644.851-1.523,1.253c.077.254.456.384.968.371a1.479,1.479,0,0,1,.526.132c.721.536.935,3.1.935,3.1l.977-.295s-1.253-2.255-.935-3.1a1.365,1.365,0,0,1,.347-.374C290.557,194.778,290.831,194.441,290.75,194.174Z" transform="translate(-280.079 -193.802)" fill="#11808a"/>
        <path id="Trazado_1685" data-name="Trazado 1685" d="M253.608,244.467c-.16-.2-.678-.05-1.157.334s-.736.858-.576,1.058c.1.126.346.113.633-.011a.9.9,0,0,1,.328-.046c.531.139,1.238,1.541,1.238,1.541l.486-.39s-1.225-.99-1.238-1.541a.834.834,0,0,1,.111-.291C253.637,244.853,253.715,244.6,253.608,244.467Z" transform="translate(-247.109 -240.876)" fill="#11808a"/>
        <path id="Trazado_1686" data-name="Trazado 1686" d="M362.664,214.663c.028-.255-.444-.515-1.054-.582s-1.127.086-1.155.341c-.018.161.165.324.455.44a.9.9,0,0,1,.264.2c.277.473-.214,1.965-.214,1.965l.62.068s-.166-1.566.214-1.965a.836.836,0,0,1,.284-.128C362.411,214.957,362.645,214.833,362.664,214.663Z" transform="translate(-348.212 -212.663)" fill="#11808a"/>
        <path id="Trazado_1687" data-name="Trazado 1687" d="M451.166,263.728c.2-.161.05-.679-.334-1.157s-.858-.736-1.058-.576c-.126.1-.113.346.011.633a.9.9,0,0,1,.046.328c-.139.531-1.541,1.238-1.541,1.238l.39.486s.99-1.225,1.541-1.238a.835.835,0,0,1,.291.111C450.78,263.756,451.033,263.834,451.166,263.728Z" transform="translate(-429.966 -257.228)" fill="#11808a"/>
        <path id="Trazado_1688" data-name="Trazado 1688" d="M480.116,372.783c.255.028.515-.444.582-1.054s-.086-1.127-.341-1.155c-.161-.018-.324.165-.44.455a.9.9,0,0,1-.2.264c-.473.277-1.965-.214-1.965-.214l-.067.62s1.566-.166,1.965.214a.836.836,0,0,1,.128.284C479.823,372.53,479.947,372.764,480.116,372.783Z" transform="translate(-457.325 -358.331)" fill="#11808a"/>
        <path id="Trazado_1689" data-name="Trazado 1689" d="M435.025,461.285c.161.2.678.05,1.157-.334s.736-.858.576-1.058c-.1-.126-.346-.113-.633.011a.9.9,0,0,1-.328.046c-.531-.138-1.238-1.541-1.238-1.541l-.486.39s1.225.99,1.238,1.541a.834.834,0,0,1-.111.291C435,460.9,434.918,461.152,435.025,461.285Z" transform="translate(-416.733 -440.085)" fill="#11808a"/>
        <path id="Trazado_1690" data-name="Trazado 1690" d="M332.964,490.234c-.028.255.444.515,1.055.582s1.127-.086,1.155-.341c.018-.161-.165-.324-.455-.44a.9.9,0,0,1-.264-.2c-.277-.473.214-1.965.214-1.965l-.62-.068s.166,1.566-.214,1.965a.836.836,0,0,1-.284.128C333.217,489.941,332.983,490.065,332.964,490.234Z" transform="translate(-322.625 -467.444)" fill="#11808a"/>
        <path id="Trazado_1691" data-name="Trazado 1691" d="M234.348,445.144c-.2.16-.05.678.334,1.157s.858.736,1.058.576c.126-.1.113-.346-.011-.633a.9.9,0,0,1-.046-.328c.138-.531,1.541-1.238,1.541-1.238l-.39-.486s-.99,1.225-1.541,1.238a.834.834,0,0,1-.291-.111C234.733,445.115,234.48,445.037,234.348,445.144Z" transform="translate(-230.757 -426.852)" fill="#11808a"/>
        <path id="Trazado_1692" data-name="Trazado 1692" d="M204.545,343.083c-.255-.028-.515.444-.582,1.054s.086,1.127.341,1.155c.161.018.324-.165.44-.455a.9.9,0,0,1,.2-.264c.473-.277,1.965.214,1.965.214l.068-.62s-1.566.166-1.965-.214a.833.833,0,0,1-.128-.284C204.838,343.336,204.714,343.1,204.545,343.083Z" transform="translate(-202.544 -332.745)" fill="#11808a"/>
        <path id="Trazado_1693" data-name="Trazado 1693" d="M413.575,206.2c.2-.37-.359-1.055-1.244-1.53s-1.765-.561-1.963-.191c-.125.234.051.594.422.947a1.48,1.48,0,0,1,.279.465c.131.889-1.531,2.853-1.531,2.853l.9.483s.709-2.48,1.531-2.853a1.367,1.367,0,0,1,.51-.02C413.012,206.489,413.443,206.444,413.575,206.2Z" transform="translate(-393.896 -203.524)" fill="#11808a"/>
        <path id="Trazado_1694" data-name="Trazado 1694" d="M473.757,300.869c.4-.121.492-1,.2-1.962s-.851-1.644-1.253-1.523c-.254.077-.384.456-.371.968a1.481,1.481,0,0,1-.132.526c-.536.721-3.1.935-3.1.935l.295.977s2.255-1.253,3.1-.935a1.365,1.365,0,0,1,.374.347C473.154,300.676,473.491,300.95,473.757,300.869Z" transform="translate(-449.338 -290.198)" fill="#11808a"/>
        <path id="Trazado_1695" data-name="Trazado 1695" d="M462.382,423.694c.37.2,1.055-.359,1.53-1.244s.561-1.765.191-1.963c-.234-.125-.594.051-.947.422a1.478,1.478,0,0,1-.465.279c-.889.131-2.853-1.531-2.853-1.531l-.483.9s2.48.709,2.853,1.531a1.367,1.367,0,0,1,.02.51C462.092,423.131,462.136,423.562,462.382,423.694Z" transform="translate(-440.265 -404.016)" fill="#11808a"/>
        <path id="Trazado_1696" data-name="Trazado 1696" d="M387.386,483.875c.121.4,1,.492,1.962.2s1.645-.851,1.523-1.253c-.077-.254-.456-.384-.968-.371a1.478,1.478,0,0,1-.526-.132c-.721-.536-.935-3.1-.935-3.1l-.977.295s1.253,2.255.935,3.1a1.367,1.367,0,0,1-.347.374C387.579,483.272,387.305,483.609,387.386,483.875Z" transform="translate(-373.266 -459.456)" fill="#11808a"/>
        <path id="Trazado_1697" data-name="Trazado 1697" d="M256.974,472.5c-.2.37.359,1.055,1.244,1.53s1.765.561,1.963.191c.125-.234-.051-.594-.422-.947a1.478,1.478,0,0,1-.279-.465c-.131-.889,1.531-2.853,1.531-2.853l-.9-.483s-.709,2.48-1.531,2.853a1.364,1.364,0,0,1-.51.019C257.537,472.211,257.105,472.255,256.974,472.5Z" transform="translate(-251.861 -450.384)" fill="#11808a"/>
        <path id="Trazado_1698" data-name="Trazado 1698" d="M184.055,397.5c-.4.121-.492,1-.2,1.962s.851,1.645,1.253,1.523c.254-.077.384-.456.371-.968a1.479,1.479,0,0,1,.132-.526c.536-.721,3.1-.935,3.1-.935l-.295-.977s-2.255,1.253-3.1.934a1.364,1.364,0,0,1-.374-.347C184.659,397.7,184.322,397.424,184.055,397.5Z" transform="translate(-183.683 -383.385)" fill="#11808a"/>
        <path id="Trazado_1699" data-name="Trazado 1699" d="M196.079,267.093c-.37-.2-1.055.359-1.53,1.244s-.561,1.765-.191,1.963c.234.126.594-.051.947-.422a1.481,1.481,0,0,1,.465-.279c.889-.131,2.853,1.531,2.853,1.531l.483-.9s-2.48-.709-2.853-1.531a1.365,1.365,0,0,1-.02-.51C196.37,267.656,196.325,267.224,196.079,267.093Z" transform="translate(-193.405 -261.98)" fill="#11808a"/>
      </g>
    </g>
    <g id="Grupo_3088" data-name="Grupo 3088" transform="translate(418 1193)">
      <path id="Sustracción_1-2" data-name="Sustracción 1" d="M12.351,24.7A12.35,12.35,0,0,1,3.618,3.617,12.35,12.35,0,1,1,21.083,21.082,12.266,12.266,0,0,1,12.351,24.7Zm2.777-5.577a2.561,2.561,0,0,0-.722.106c-1.041.308-1.7,1.192-1.474,1.972a1.544,1.544,0,0,0,1.586.963,2.546,2.546,0,0,0,.723-.107c1.041-.308,1.7-1.192,1.474-1.97A1.543,1.543,0,0,0,15.128,19.122ZM5.912,16.941a1.251,1.251,0,0,0-.936.372,1.309,1.309,0,0,0-.3,1.154,2.333,2.333,0,0,0,.716,1.272,2.257,2.257,0,0,0,1.511.658,1.25,1.25,0,0,0,.934-.372A1.782,1.782,0,0,0,7.421,17.6,2.255,2.255,0,0,0,5.912,16.941Zm15.072-4.506a1.9,1.9,0,0,0-1.633,1.6,1.782,1.782,0,0,0,.965,2.265,1.091,1.091,0,0,0,.265.032,1.9,1.9,0,0,0,1.634-1.6,2.334,2.334,0,0,0-.09-1.457,1.308,1.308,0,0,0-.875-.807A1.123,1.123,0,0,0,20.984,12.435Zm-8.63-2.519a2.433,2.433,0,0,0-1.43,4.4,2.433,2.433,0,1,0,1.43-4.4ZM4.086,8.37a1.9,1.9,0,0,0-1.63,1.608,1.78,1.78,0,0,0,.979,2.258,1.12,1.12,0,0,0,.259.03,1.9,1.9,0,0,0,1.63-1.608A1.781,1.781,0,0,0,4.346,8.4,1.127,1.127,0,0,0,4.086,8.37ZM17.82,4.287a1.244,1.244,0,0,0-.926.365,1.779,1.779,0,0,0,.4,2.428,2.254,2.254,0,0,0,1.516.666,1.264,1.264,0,0,0,.927-.365,1.78,1.78,0,0,0-.4-2.428A2.251,2.251,0,0,0,17.82,4.287ZM10.125,2.5a2.546,2.546,0,0,0-.737.111c-1.041.313-1.7,1.2-1.463,1.98A1.541,1.541,0,0,0,9.5,5.544a2.545,2.545,0,0,0,.736-.111,2.34,2.34,0,0,0,1.21-.816A1.306,1.306,0,0,0,11.7,3.453,1.536,1.536,0,0,0,10.125,2.5Z" transform="translate(261.527 853.733)" fill="#11808a" stroke="rgba(0,0,0,0)" stroke-miterlimit="10" stroke-width="1"/>
      <g id="Grupo_3064-2" data-name="Grupo 3064" transform="translate(254.993 847.199)">
        <path id="Trazado_1684-2" data-name="Trazado 1684" d="M292.582,194.369c-.185-.612-1.523-.75-2.989-.308s-2.505,1.3-2.321,1.909c.117.387.695.584,1.474.566a2.254,2.254,0,0,1,.8.2c1.1.817,1.424,4.722,1.424,4.722l1.489-.449s-1.908-3.435-1.424-4.722a2.079,2.079,0,0,1,.528-.57C292.288,195.288,292.7,194.775,292.582,194.369Z" transform="translate(-276.324 -193.802)" fill="#11808a"/>
        <path id="Trazado_1685-2" data-name="Trazado 1685" d="M254.54,244.513c-.245-.3-1.034-.076-1.763.509s-1.122,1.307-.877,1.611c.155.192.527.172.964-.017a1.372,1.372,0,0,1,.5-.07c.809.211,1.886,2.347,1.886,2.347l.74-.595s-1.866-1.508-1.886-2.348a1.271,1.271,0,0,1,.169-.444C254.584,245.1,254.7,244.715,254.54,244.513Z" transform="translate(-244.639 -239.042)" fill="#11808a"/>
        <path id="Trazado_1686-2" data-name="Trazado 1686" d="M363.821,214.976c.042-.388-.677-.785-1.606-.886s-1.717.131-1.76.519c-.027.245.251.494.694.67a1.374,1.374,0,0,1,.4.3c.423.721-.326,2.994-.326,2.994l.944.1s-.253-2.386.326-2.994a1.272,1.272,0,0,1,.433-.194C363.437,215.423,363.793,215.234,363.821,214.976Z" transform="translate(-341.804 -211.928)" fill="#11808a"/>
        <path id="Trazado_1687-2" data-name="Trazado 1687" d="M452.671,264.659c.3-.245.076-1.034-.509-1.763s-1.307-1.122-1.611-.877c-.193.155-.172.527.017.964a1.371,1.371,0,0,1,.07.5c-.211.809-2.347,1.886-2.347,1.886l.595.74s1.508-1.866,2.348-1.886a1.272,1.272,0,0,1,.443.169C452.084,264.7,452.469,264.822,452.671,264.659Z" transform="translate(-420.374 -254.758)" fill="#11808a"/>
        <path id="Trazado_1688-2" data-name="Trazado 1688" d="M481.388,373.94c.388.042.785-.677.886-1.606s-.131-1.717-.519-1.76c-.245-.027-.494.251-.67.694a1.374,1.374,0,0,1-.3.4c-.721.423-2.994-.326-2.994-.326l-.1.944s2.386-.253,2.993.326a1.275,1.275,0,0,1,.194.433C480.941,373.555,481.13,373.912,481.388,373.94Z" transform="translate(-446.668 -351.923)" fill="#11808a"/>
        <path id="Trazado_1689-2" data-name="Trazado 1689" d="M435.523,462.79c.245.3,1.034.076,1.763-.509s1.122-1.307.877-1.611c-.155-.192-.527-.172-.964.017a1.371,1.371,0,0,1-.5.07c-.809-.211-1.886-2.347-1.886-2.347l-.74.595s1.866,1.508,1.886,2.348a1.271,1.271,0,0,1-.169.443C435.479,462.2,435.361,462.588,435.523,462.79Z" transform="translate(-407.657 -430.493)" fill="#11808a"/>
        <path id="Trazado_1690-2" data-name="Trazado 1690" d="M332.965,491.507c-.042.388.677.785,1.606.886s1.717-.131,1.76-.519c.027-.245-.251-.494-.694-.67a1.374,1.374,0,0,1-.4-.3c-.423-.721.326-2.994.326-2.994l-.944-.1s.253,2.386-.326,2.994a1.273,1.273,0,0,1-.433.194C333.349,491.06,332.993,491.249,332.965,491.507Z" transform="translate(-317.214 -456.787)" fill="#11808a"/>
        <path id="Trazado_1691-2" data-name="Trazado 1691" d="M234.394,445.642c-.3.245-.076,1.034.509,1.763s1.307,1.122,1.611.877c.192-.155.172-.527-.017-.964a1.374,1.374,0,0,1-.07-.5c.211-.809,2.347-1.886,2.347-1.886l-.595-.74s-1.508,1.866-2.348,1.886a1.271,1.271,0,0,1-.444-.169C234.982,445.6,234.6,445.48,234.394,445.642Z" transform="translate(-228.923 -417.776)" fill="#11808a"/>
        <path id="Trazado_1692-2" data-name="Trazado 1692" d="M204.858,343.084c-.388-.042-.785.677-.886,1.606s.131,1.717.519,1.76c.245.027.494-.251.67-.694a1.376,1.376,0,0,1,.3-.4c.721-.423,2.994.326,2.994.326l.1-.944s-2.386.253-2.994-.327a1.269,1.269,0,0,1-.194-.433C205.3,343.469,205.115,343.112,204.858,343.084Z" transform="translate(-201.81 -327.333)" fill="#11808a"/>
        <path id="Trazado_1693-2" data-name="Trazado 1693" d="M415.688,207.22c.3-.564-.546-1.607-1.9-2.331s-2.688-.855-2.991-.291c-.191.356.078.9.643,1.442a2.255,2.255,0,0,1,.425.708c.2,1.355-2.332,4.346-2.332,4.346l1.37.735s1.08-3.778,2.332-4.346a2.082,2.082,0,0,1,.777-.03C414.83,207.662,415.488,207.594,415.688,207.22Z" transform="translate(-385.709 -203.145)" fill="#11808a"/>
        <path id="Trazado_1694-2" data-name="Trazado 1694" d="M476.193,302.7c.612-.185.75-1.523.308-2.989s-1.3-2.505-1.909-2.321c-.387.117-.584.695-.565,1.474a2.257,2.257,0,0,1-.2.8c-.817,1.1-4.722,1.424-4.722,1.424l.449,1.489s3.435-1.908,4.722-1.424a2.08,2.08,0,0,1,.57.528C475.274,302.407,475.787,302.823,476.193,302.7Z" transform="translate(-438.992 -286.443)" fill="#11808a"/>
        <path id="Trazado_1695-2" data-name="Trazado 1695" d="M463.966,425.807c.564.3,1.607-.546,2.331-1.9s.854-2.688.291-2.991c-.356-.191-.9.078-1.442.643a2.253,2.253,0,0,1-.708.425c-1.355.2-4.346-2.332-4.346-2.332l-.735,1.37s3.778,1.08,4.346,2.332a2.085,2.085,0,0,1,.03.777C463.524,424.949,463.592,425.607,463.966,425.807Z" transform="translate(-430.272 -395.828)" fill="#11808a"/>
        <path id="Trazado_1696-2" data-name="Trazado 1696" d="M387.393,486.311c.185.612,1.523.75,2.989.308s2.505-1.3,2.321-1.909c-.117-.387-.695-.584-1.474-.566a2.252,2.252,0,0,1-.8-.2c-1.1-.817-1.424-4.722-1.424-4.722l-1.489.449s1.908,3.435,1.424,4.722a2.083,2.083,0,0,1-.528.57C387.687,485.392,387.271,485.9,387.393,486.311Z" transform="translate(-365.883 -449.11)" fill="#11808a"/>
        <path id="Trazado_1697-2" data-name="Trazado 1697" d="M256.995,474.085c-.3.563.546,1.607,1.9,2.331s2.688.855,2.991.291c.191-.356-.078-.9-.643-1.443a2.251,2.251,0,0,1-.425-.708c-.2-1.355,2.332-4.346,2.332-4.346l-1.37-.736s-1.08,3.778-2.332,4.346a2.078,2.078,0,0,1-.777.03C257.853,473.643,257.2,473.711,256.995,474.085Z" transform="translate(-249.206 -440.391)" fill="#11808a"/>
        <path id="Trazado_1698-2" data-name="Trazado 1698" d="M184.25,397.512c-.612.185-.75,1.523-.308,2.989s1.3,2.505,1.909,2.321c.387-.117.584-.694.566-1.474a2.253,2.253,0,0,1,.2-.8c.817-1.1,4.722-1.424,4.722-1.424l-.449-1.489s-3.435,1.908-4.722,1.424a2.079,2.079,0,0,1-.57-.528C185.169,397.806,184.656,397.39,184.25,397.512Z" transform="translate(-183.683 -376.002)" fill="#11808a"/>
        <path id="Trazado_1699-2" data-name="Trazado 1699" d="M197.1,267.114c-.563-.3-1.607.546-2.331,1.9s-.855,2.689-.291,2.991c.356.191.9-.078,1.442-.643a2.256,2.256,0,0,1,.708-.425c1.355-.2,4.346,2.332,4.346,2.332l.735-1.37s-3.778-1.08-4.346-2.332a2.079,2.079,0,0,1-.03-.777C197.543,267.972,197.475,267.314,197.1,267.114Z" transform="translate(-193.026 -259.325)" fill="#11808a"/>
      </g>
    </g>
    <g id="Grupo_3089" data-name="Grupo 3089" transform="translate(434 1036.791)">
      <path id="Sustracción_1-3" data-name="Sustracción 1" d="M7.187,14.373A7.186,7.186,0,0,1,2.105,2.1,7.186,7.186,0,1,1,12.268,12.268,7.138,7.138,0,0,1,7.187,14.373ZM8.8,11.127a1.49,1.49,0,0,0-.42.062c-.606.179-.991.694-.858,1.147a.9.9,0,0,0,.923.56,1.481,1.481,0,0,0,.42-.062c.606-.179.991-.693.858-1.147A.9.9,0,0,0,8.8,11.127ZM3.44,9.858a.728.728,0,0,0-.544.216.762.762,0,0,0-.173.671,1.357,1.357,0,0,0,.416.74,1.313,1.313,0,0,0,.879.383.727.727,0,0,0,.543-.216,1.037,1.037,0,0,0-.243-1.412A1.312,1.312,0,0,0,3.44,9.858Zm8.77-2.622a1.107,1.107,0,0,0-.95.93,1.037,1.037,0,0,0,.562,1.318.635.635,0,0,0,.154.018,1.108,1.108,0,0,0,.951-.93,1.358,1.358,0,0,0-.052-.848.761.761,0,0,0-.509-.47A.654.654,0,0,0,12.211,7.236ZM7.188,5.77a1.416,1.416,0,0,0-.832,2.562A1.416,1.416,0,1,0,7.188,5.77Zm-4.811-.9a1.1,1.1,0,0,0-.949.936A1.036,1.036,0,0,0,2,7.121a.652.652,0,0,0,.151.018A1.1,1.1,0,0,0,3.1,6.2a1.036,1.036,0,0,0-.57-1.314A.656.656,0,0,0,2.378,4.871Zm7.991-2.376a.724.724,0,0,0-.539.213,1.035,1.035,0,0,0,.234,1.413,1.311,1.311,0,0,0,.882.388.736.736,0,0,0,.539-.212,1.036,1.036,0,0,0-.235-1.413A1.31,1.31,0,0,0,10.369,2.494ZM5.892,1.455a1.482,1.482,0,0,0-.429.065c-.606.182-.987.7-.851,1.152a.9.9,0,0,0,.918.555,1.481,1.481,0,0,0,.428-.065,1.362,1.362,0,0,0,.7-.475.76.76,0,0,0,.146-.677A.894.894,0,0,0,5.892,1.455Z" transform="translate(258.795 851.001)" fill="#11808a" stroke="rgba(0,0,0,0)" stroke-miterlimit="10" stroke-width="1"/>
      <g id="Grupo_3064-3" data-name="Grupo 3064" transform="translate(254.993 847.199)">
        <path id="Trazado_1684-3" data-name="Trazado 1684" d="M290.353,194.132c-.107-.356-.886-.437-1.739-.179s-1.458.755-1.35,1.111c.068.225.4.34.858.329a1.312,1.312,0,0,1,.466.117c.639.475.829,2.748.829,2.748l.867-.261s-1.11-2-.828-2.748a1.209,1.209,0,0,1,.307-.332C290.182,194.667,290.424,194.368,290.353,194.132Z" transform="translate(-280.893 -193.802)" fill="#11808a"/>
        <path id="Trazado_1685-3" data-name="Trazado 1685" d="M253.406,244.457c-.142-.177-.6-.044-1.026.3s-.653.761-.51.938c.09.112.307.1.561-.01a.8.8,0,0,1,.291-.041c.471.123,1.1,1.366,1.1,1.366l.431-.346s-1.086-.878-1.1-1.366a.74.74,0,0,1,.1-.258C253.432,244.8,253.5,244.574,253.406,244.457Z" transform="translate(-247.645 -241.273)" fill="#11808a"/>
        <path id="Trazado_1686-3" data-name="Trazado 1686" d="M362.413,214.6c.025-.226-.394-.457-.935-.516s-1,.076-1.024.3c-.016.143.146.288.4.39a.8.8,0,0,1,.234.177c.246.42-.19,1.742-.19,1.742l.549.06s-.147-1.388.19-1.742a.74.74,0,0,1,.252-.113C362.189,214.856,362.4,214.746,362.413,214.6Z" transform="translate(-349.601 -212.822)" fill="#11808a"/>
        <path id="Trazado_1687-3" data-name="Trazado 1687" d="M450.839,263.525c.177-.142.044-.6-.3-1.026s-.761-.653-.938-.51c-.112.09-.1.307.01.561a.8.8,0,0,1,.041.291c-.123.471-1.366,1.1-1.366,1.1l.346.431s.878-1.086,1.366-1.1a.741.741,0,0,1,.258.1C450.5,263.551,450.722,263.62,450.839,263.525Z" transform="translate(-432.045 -257.764)" fill="#11808a"/>
        <path id="Trazado_1688-3" data-name="Trazado 1688" d="M479.84,372.532c.226.025.457-.394.516-.935s-.076-1-.3-1.024c-.143-.016-.288.146-.39.4a.8.8,0,0,1-.177.234c-.42.246-1.742-.19-1.742-.19l-.06.549s1.388-.147,1.742.19a.742.742,0,0,1,.113.252C479.58,372.308,479.69,372.516,479.84,372.532Z" transform="translate(-459.636 -359.72)" fill="#11808a"/>
        <path id="Trazado_1689-3" data-name="Trazado 1689" d="M434.917,460.958c.142.177.6.044,1.026-.3s.653-.761.51-.938c-.09-.112-.307-.1-.561.01a.8.8,0,0,1-.291.041c-.471-.123-1.1-1.366-1.1-1.366l-.431.346s1.086.878,1.1,1.366a.74.74,0,0,1-.1.258C434.891,460.616,434.822,460.841,434.917,460.958Z" transform="translate(-418.701 -442.164)" fill="#11808a"/>
        <path id="Trazado_1690-3" data-name="Trazado 1690" d="M332.964,489.959c-.025.226.394.457.935.516s1-.076,1.024-.3c.016-.143-.146-.288-.4-.39a.8.8,0,0,1-.234-.177c-.246-.42.19-1.742.19-1.742l-.549-.06s.147,1.388-.19,1.742a.74.74,0,0,1-.252.113C333.188,489.7,332.981,489.809,332.964,489.959Z" transform="translate(-323.799 -469.755)" fill="#11808a"/>
        <path id="Trazado_1691-3" data-name="Trazado 1691" d="M234.338,445.036c-.177.142-.044.6.3,1.026s.761.653.938.51c.112-.09.1-.307-.01-.561a.8.8,0,0,1-.041-.291c.123-.471,1.366-1.1,1.366-1.1l-.346-.431s-.878,1.086-1.366,1.1a.741.741,0,0,1-.258-.1C234.68,445.01,234.455,444.941,234.338,445.036Z" transform="translate(-231.154 -428.82)" fill="#11808a"/>
        <path id="Trazado_1692-3" data-name="Trazado 1692" d="M204.477,343.083c-.226-.025-.457.394-.516.935s.076,1,.3,1.024c.143.016.288-.146.39-.4a.8.8,0,0,1,.177-.234c.42-.246,1.742.19,1.742.19l.06-.549s-1.388.147-1.742-.19a.738.738,0,0,1-.113-.252C204.737,343.307,204.627,343.1,204.477,343.083Z" transform="translate(-202.704 -333.918)" fill="#11808a"/>
        <path id="Trazado_1693-3" data-name="Trazado 1693" d="M413.116,205.977c.176-.328-.318-.935-1.1-1.357s-1.564-.5-1.74-.169c-.111.207.045.526.374.839a1.312,1.312,0,0,1,.247.412c.116.788-1.357,2.529-1.357,2.529l.8.428s.628-2.2,1.357-2.529a1.211,1.211,0,0,1,.452-.017C412.617,206.234,413,206.194,413.116,205.977Z" transform="translate(-395.671 -203.606)" fill="#11808a"/>
        <path id="Trazado_1694-3" data-name="Trazado 1694" d="M473.229,300.472c.356-.107.437-.886.179-1.739s-.755-1.458-1.111-1.35c-.225.068-.34.4-.329.858a1.314,1.314,0,0,1-.117.466c-.475.639-2.748.829-2.748.829l.261.867s2-1.11,2.748-.828a1.212,1.212,0,0,1,.332.307C472.694,300.3,472.993,300.543,473.229,300.472Z" transform="translate(-451.582 -291.012)" fill="#11808a"/>
        <path id="Trazado_1695-3" data-name="Trazado 1695" d="M462.038,423.235c.328.176.935-.318,1.357-1.1s.5-1.564.169-1.74c-.207-.111-.526.045-.839.374a1.311,1.311,0,0,1-.412.247c-.788.116-2.529-1.357-2.529-1.357l-.428.8s2.2.628,2.529,1.357a1.213,1.213,0,0,1,.017.452C461.781,422.736,461.821,423.119,462.038,423.235Z" transform="translate(-442.432 -405.791)" fill="#11808a"/>
        <path id="Trazado_1696-3" data-name="Trazado 1696" d="M387.384,483.347c.107.356.886.436,1.739.179s1.458-.755,1.351-1.111c-.068-.225-.4-.34-.858-.329a1.31,1.31,0,0,1-.466-.117c-.639-.475-.829-2.748-.829-2.748l-.867.261s1.11,2,.828,2.748a1.212,1.212,0,0,1-.307.332C387.555,482.812,387.313,483.111,387.384,483.347Z" transform="translate(-374.867 -461.7)" fill="#11808a"/>
        <path id="Trazado_1697-3" data-name="Trazado 1697" d="M256.969,472.157c-.176.328.318.935,1.1,1.357s1.564.5,1.74.169c.111-.207-.045-.526-.374-.839a1.31,1.31,0,0,1-.247-.412c-.116-.788,1.357-2.529,1.357-2.529l-.8-.428s-.628,2.2-1.357,2.529a1.208,1.208,0,0,1-.452.017C257.468,471.9,257.086,471.94,256.969,472.157Z" transform="translate(-252.437 -452.551)" fill="#11808a"/>
        <path id="Trazado_1698-3" data-name="Trazado 1698" d="M184.013,397.5c-.356.107-.437.886-.179,1.739s.755,1.458,1.111,1.35c.225-.068.34-.4.329-.858a1.312,1.312,0,0,1,.117-.466c.475-.639,2.748-.829,2.748-.829l-.261-.867s-2,1.11-2.748.828a1.21,1.21,0,0,1-.332-.307C184.548,397.674,184.249,397.432,184.013,397.5Z" transform="translate(-183.683 -384.986)" fill="#11808a"/>
        <path id="Trazado_1699-3" data-name="Trazado 1699" d="M195.858,267.088c-.328-.176-.935.318-1.357,1.1s-.5,1.564-.169,1.74c.207.111.526-.045.839-.374a1.313,1.313,0,0,1,.412-.247c.788-.116,2.529,1.357,2.529,1.357l.428-.8s-2.2-.628-2.529-1.357a1.209,1.209,0,0,1-.017-.452C196.115,267.587,196.075,267.2,195.858,267.088Z" transform="translate(-193.487 -262.556)" fill="#11808a"/>
      </g>
    </g>
    <g id="Grupo_3105" data-name="Grupo 3105" transform="translate(0 -113)">
      <g id="Grupo_3055" data-name="Grupo 3055" transform="translate(244.953 1984.793)" opacity="0.8">
        <ellipse id="Elipse_530" data-name="Elipse 530" cx="49.193" cy="49.193" rx="49.193" ry="49.193" transform="matrix(0.977, -0.215, 0.215, 0.977, 0, 21.106)" fill="#fff"/>
      </g>
      <g id="Grupo_3098" data-name="Grupo 3098" transform="translate(75.776 913.25)">
        <path id="Trazado_1717" data-name="Trazado 1717" d="M241.732,1117.091a5.02,5.02,0,0,0-.693.782,4.844,4.844,0,0,0-.849,1.657c-.317,1.355,1.059,2.215,2.114,2.673a12.746,12.746,0,0,0,5.79.789l.142-.007" transform="translate(-25.159 -14.823)" fill="none" stroke="#3caea4" stroke-linecap="round" stroke-linejoin="round" stroke-width="2"/>
        <path id="Trazado_1718" data-name="Trazado 1718" d="M225.059,1107.472a22.935,22.935,0,0,1-5.272-.685c-3.156-.8-5.267-2.131-8.323-3.2a15.381,15.381,0,0,0-7.652-.238,1.493,1.493,0,0,1-1.058-.169,1.085,1.085,0,0,1-.529-.725h0a2.358,2.358,0,0,1,1.952-2.324,17.114,17.114,0,0,1,7.547.561" transform="translate(0 -3.439)" fill="none" stroke="#3caea4" stroke-linecap="round" stroke-linejoin="round" stroke-width="2"/>
        <g id="Grupo_3090" data-name="Grupo 3090" transform="translate(202.693 1103.547)">
          <path id="Trazado_1719" data-name="Trazado 1719" d="M212.187,1135.228v-4.807a1.266,1.266,0,0,1,.8-1.176,2.646,2.646,0,0,0,.923-.6,9.551,9.551,0,0,0,1.031-1.718h0" transform="translate(-209.304 -1124.895)" fill="none" stroke="#3caea4" stroke-linecap="round" stroke-linejoin="round" stroke-width="2"/>
          <path id="Trazado_1720" data-name="Trazado 1720" d="M204.685,1120.892a3.049,3.049,0,0,0-1.033,1.7,5.159,5.159,0,0,0,.111,1.674q.021.1.044.2a11.348,11.348,0,0,1,.368,2.688c.015,2.393.043,6.967.043,6.967h0" transform="translate(-203.619 -1120.892)" fill="none" stroke="#3caea4" stroke-linecap="round" stroke-linejoin="round" stroke-width="2"/>
        </g>
        <g id="Grupo_3091" data-name="Grupo 3091" transform="translate(245.619 1103.541)">
          <path id="Trazado_1721" data-name="Trazado 1721" d="M331.173,1126.946a9.509,9.509,0,0,0,1.025,1.712,2.65,2.65,0,0,0,.923.6,1.267,1.267,0,0,1,.8,1.177v4.807" transform="translate(-331.173 -1124.903)" fill="none" stroke="#3caea4" stroke-linecap="round" stroke-linejoin="round" stroke-width="2"/>
          <path id="Trazado_1722" data-name="Trazado 1722" d="M344.785,1120.874a3.162,3.162,0,0,1,1.016,1.7,5.252,5.252,0,0,1-.11,1.673c-.014.068-.029.135-.046.2a11.261,11.261,0,0,0-.367,2.689c-.014,2.393-.043,6.969-.043,6.969" transform="translate(-340.204 -1120.874)" fill="none" stroke="#3caea4" stroke-linecap="round" stroke-linejoin="round" stroke-width="2"/>
        </g>
        <path id="Trazado_1723" data-name="Trazado 1723" d="M270.637,1142.817s-.546-28.159-.546-28.995a.544.544,0,0,1,.758-.5,2.878,2.878,0,0,0,1.182.209" transform="translate(-45.028 -12.294)" fill="none" stroke="#3caea4" stroke-linecap="round" stroke-linejoin="round" stroke-width="2"/>
        <path id="Trazado_1724" data-name="Trazado 1724" d="M236.567,1126.6a4.2,4.2,0,0,0-1.138,1.149,3.972,3.972,0,0,0-.667,2.942c.753,2.914,7.38,3.134,7.667,3.141a14.27,14.27,0,0,0,2.332-.136" transform="translate(-21.538 -21.132)" fill="none" stroke="#3caea4" stroke-linecap="round" stroke-linejoin="round" stroke-width="2"/>
        <path id="Trazado_1725" data-name="Trazado 1725" d="M231.05,1138.3v0a5.581,5.581,0,0,0-1.521,2.458,3.683,3.683,0,0,0,.111,3,2.841,2.841,0,0,0,1.37,1.037,18.264,18.264,0,0,0,7.04,1.241,22.3,22.3,0,0,0,3.075-.349" transform="translate(-17.934 -28.896)" fill="none" stroke="#3caea4" stroke-linecap="round" stroke-linejoin="round" stroke-width="2"/>
        <path id="Trazado_1726" data-name="Trazado 1726" d="M236.977,1161.683c-.561-.006-1.4-.029-2.408-.111a16.505,16.505,0,0,1-4.037-.667,3.785,3.785,0,0,1-2.3-1.408,3.285,3.285,0,0,1-.37-1.852,5.537,5.537,0,0,1,.741-2.661" transform="translate(-17.011 -39.964)" fill="none" stroke="#3caea4" stroke-linecap="round" stroke-linejoin="round" stroke-width="2"/>
        <path id="Trazado_1727" data-name="Trazado 1727" d="M232.477,1175.808c-.393,2.788,1.195,3.695,1.195,3.695,1.148.418,2.527.7,3.435.028,1.2-.887.424-2.574,1.4-5.667a9.229,9.229,0,0,1,2.667-4.453,3.393,3.393,0,0,1,1.742-.791,2.638,2.638,0,0,1,.476-.017h1.964" transform="translate(-20.031 -48.996)" fill="none" stroke="#3caea4" stroke-linecap="round" stroke-linejoin="round" stroke-width="2"/>
        <path id="Trazado_1728" data-name="Trazado 1728" d="M236.168,1174.522a10.209,10.209,0,0,1-6.548-1.333s-1.072-.53-.631-3.6" transform="translate(-17.687 -49.654)" fill="none" stroke="#3caea4" stroke-linecap="round" stroke-linejoin="round" stroke-width="2"/>
        <path id="Trazado_1729" data-name="Trazado 1729" d="M236.641,1184.679s-3.69.6-5.468-1.118c0,0-1.2-.667-.514-3.278" transform="translate(-18.727 -56.749)" fill="none" stroke="#3caea4" stroke-linecap="round" stroke-linejoin="round" stroke-width="2"/>
        <path id="Trazado_1730" data-name="Trazado 1730" d="M287.01,1122.977a13.181,13.181,0,0,0,6.1-.773c1.055-.459,2.431-1.319,2.114-2.673a4.843,4.843,0,0,0-.849-1.657,5,5,0,0,0-.694-.782" transform="translate(-56.253 -14.823)" fill="none" stroke="#3caea4" stroke-linecap="round" stroke-linejoin="round" stroke-width="2"/>
        <path id="Trazado_1731" data-name="Trazado 1731" d="M275.856,1113.531a2.878,2.878,0,0,0,1.182-.209.544.544,0,0,1,.758.5c0,.836-.436,28.995-.436,28.995" transform="translate(-48.853 -12.294)" fill="none" stroke="#3caea4" stroke-linecap="round" stroke-linejoin="round" stroke-width="2"/>
        <path id="Trazado_1732" data-name="Trazado 1732" d="M288.45,1133.754a14.188,14.188,0,0,0,1.873.078c.287-.007,6.914-.227,7.667-3.141a3.972,3.972,0,0,0-.667-2.942,4.2,4.2,0,0,0-1.138-1.149" transform="translate(-57.209 -21.132)" fill="none" stroke="#3caea4" stroke-linecap="round" stroke-linejoin="round" stroke-width="2"/>
        <path id="Trazado_1733" data-name="Trazado 1733" d="M289.09,1145.8a22.181,22.181,0,0,0,2.433.24,18.264,18.264,0,0,0,7.04-1.241,2.841,2.841,0,0,0,1.37-1.037,3.683,3.683,0,0,0,.111-3,5.581,5.581,0,0,0-1.521-2.458v0" transform="translate(-57.633 -28.896)" fill="none" stroke="#3caea4" stroke-linecap="round" stroke-linejoin="round" stroke-width="2"/>
        <path id="Trazado_1734" data-name="Trazado 1734" d="M296.768,1161.683c.561-.006,1.4-.029,2.408-.111a16.5,16.5,0,0,0,4.037-.667,3.785,3.785,0,0,0,2.3-1.408,3.285,3.285,0,0,0,.37-1.852,5.537,5.537,0,0,0-.741-2.661" transform="translate(-62.727 -39.964)" fill="none" stroke="#3caea4" stroke-linecap="round" stroke-linejoin="round" stroke-width="2"/>
        <path id="Trazado_1735" data-name="Trazado 1735" d="M293.658,1175.584c.393,2.788-1.195,3.695-1.195,3.695-1.148.418-2.527.7-3.435.028-1.2-.887-.424-2.574-1.4-5.667a9.942,9.942,0,0,0-2.072-3.89,4.568,4.568,0,0,0-2.965-1.477,3.635,3.635,0,0,0-.38-.01h-1.459" transform="translate(-52.098 -48.772)" fill="none" stroke="#3caea4" stroke-linecap="round" stroke-linejoin="round" stroke-width="2"/>
        <path id="Trazado_1736" data-name="Trazado 1736" d="M301.181,1174.522a10.209,10.209,0,0,0,6.548-1.333s1.072-.53.631-3.6" transform="translate(-65.655 -49.654)" fill="none" stroke="#3caea4" stroke-linecap="round" stroke-linejoin="round" stroke-width="2"/>
        <path id="Trazado_1737" data-name="Trazado 1737" d="M302.864,1184.679s3.69.6,5.468-1.118c0,0,1.2-.667.514-3.278" transform="translate(-66.772 -56.749)" fill="none" stroke="#3caea4" stroke-linecap="round" stroke-linejoin="round" stroke-width="2"/>
        <path id="Trazado_1738" data-name="Trazado 1738" d="M274.047,1128.443s-.327.9-1.862.873c-1.535.028-1.862-.873-1.862-.873" transform="translate(-45.181 -22.354)" fill="none" stroke="#3caea4" stroke-linecap="round" stroke-linejoin="round" stroke-width="2"/>
        <path id="Trazado_1739" data-name="Trazado 1739" d="M270.585,1142.824a1.967,1.967,0,0,0,1.458.492h.632a2.078,2.078,0,0,0,1.488-.492" transform="translate(-45.356 -31.896)" fill="none" stroke="#3caea4" stroke-linecap="round" stroke-linejoin="round" stroke-width="2"/>
        <path id="Trazado_1740" data-name="Trazado 1740" d="M270.881,1158.038a2.328,2.328,0,0,0,1.323.321h.7a2.292,2.292,0,0,0,1.373-.353" transform="translate(-45.552 -41.969)" fill="none" stroke="#3caea4" stroke-linecap="round" stroke-linejoin="round" stroke-width="2"/>
        <path id="Trazado_1741" data-name="Trazado 1741" d="M271.432,1186.618a2.371,2.371,0,0,0,1.27.289h.7a2.459,2.459,0,0,0,1.091-.2" transform="translate(-45.918 -60.952)" fill="none" stroke="#3caea4" stroke-linecap="round" stroke-linejoin="round" stroke-width="2"/>
        <path id="Trazado_1742" data-name="Trazado 1742" d="M271.178,1173.075a2.935,2.935,0,0,0,1.295.239h.831a2.991,2.991,0,0,0,1.095-.16" transform="translate(-45.749 -51.967)" fill="none" stroke="#3caea4" stroke-linecap="round" stroke-linejoin="round" stroke-width="2"/>
        <g id="Grupo_3093" data-name="Grupo 3093" transform="translate(223.131 1141.42)">
          <g id="Grupo_3092" data-name="Grupo 3092" transform="translate(1.249 0)">
            <path id="Trazado_1743" data-name="Trazado 1743" d="M268.062,1234.986v-1.249a.307.307,0,0,1,.308-.307h4.655a.323.323,0,0,1,.323.323l.048,1.487" transform="translate(-268.062 -1233.43)" fill="none" stroke="#3caea4" stroke-linecap="round" stroke-linejoin="round" stroke-width="2"/>
            <path id="Trazado_1744" data-name="Trazado 1744" d="M274.524,1238.808H273.4v1.083a.474.474,0,0,1-.473.473h-4.386a.474.474,0,0,1-.473-.473h0" transform="translate(-268.062 -1236.998)" fill="none" stroke="#3caea4" stroke-linecap="round" stroke-linejoin="round" stroke-width="2"/>
          </g>
          <path id="Trazado_1745" data-name="Trazado 1745" d="M264.351,1238.055H265.6v1.336" transform="translate(-264.351 -1236.498)" fill="none" stroke="#3caea4" stroke-linecap="round" stroke-linejoin="round" stroke-width="2"/>
        </g>
        <g id="Grupo_3094" data-name="Grupo 3094" transform="translate(222.874 1135.946)">
          <path id="Trazado_1746" data-name="Trazado 1746" d="M274.894,1221.567h-1.5v1.411a.474.474,0,0,1-.473.474h-4.386a.474.474,0,0,1-.473-.474h0" transform="translate(-266.555 -1220.085)" fill="none" stroke="#3caea4" stroke-linecap="round" stroke-linejoin="round" stroke-width="2"/>
          <path id="Trazado_1747" data-name="Trazado 1747" d="M263.585,1218.646h1.291a.216.216,0,0,0,.216-.216v-.958a.308.308,0,0,1,.308-.308h4.655a.323.323,0,0,1,.323.323l.048,1.159" transform="translate(-263.585 -1217.164)" fill="none" stroke="#3caea4" stroke-linecap="round" stroke-linejoin="round" stroke-width="2"/>
        </g>
        <g id="Grupo_3095" data-name="Grupo 3095" transform="translate(222.874 1130.523)">
          <path id="Trazado_1748" data-name="Trazado 1748" d="M274.894,1205.454h-1.5v1.411a.474.474,0,0,1-.473.474h-4.386a.474.474,0,0,1-.473-.474h0" transform="translate(-266.555 -1203.972)" fill="none" stroke="#3caea4" stroke-linecap="round" stroke-linejoin="round" stroke-width="2"/>
          <path id="Trazado_1749" data-name="Trazado 1749" d="M263.585,1202.533h1.291a.216.216,0,0,0,.216-.216v-.958a.307.307,0,0,1,.308-.308h4.655a.323.323,0,0,1,.323.323l.048,1.159" transform="translate(-263.585 -1201.051)" fill="none" stroke="#3caea4" stroke-linecap="round" stroke-linejoin="round" stroke-width="2"/>
        </g>
        <g id="Grupo_3096" data-name="Grupo 3096" transform="translate(208.599 1150.437)">
          <path id="Trazado_1750" data-name="Trazado 1750" d="M226.964,1273.324l.2-3.781a20.348,20.348,0,0,1,.762-4.555,2.266,2.266,0,0,1,.192-.523,1.378,1.378,0,0,1,.167-.229c.338-.392.554-.536.691-.709a1.423,1.423,0,0,0,.206-1.053c-.054-.388-.2-.336-1.116-1.568a1.668,1.668,0,0,0-.661-.578.986.986,0,0,0-.454-.1,1.18,1.18,0,0,0-.64.277c-.619.413-1.1.607-1.127,1.046,0,.041-1.621.524-1.742.577a3.684,3.684,0,0,0-2.195,1.829,1.608,1.608,0,0,0,.061,1.139,2.527,2.527,0,0,0,.78,1.111c.614.406,1.432.059,1.632,1,.238,1.126.68,5.92.708,6.273" transform="translate(-221.166 -1260.224)" fill="none" stroke="#3caea4" stroke-linecap="round" stroke-linejoin="round" stroke-width="2"/>
          <path id="Trazado_1751" data-name="Trazado 1751" d="M232.832,1264.159a2.886,2.886,0,0,0,0,1.7" transform="translate(-228.818 -1262.835)" fill="none" stroke="#3caea4" stroke-linecap="round" stroke-linejoin="round" stroke-width="2"/>
        </g>
        <g id="Grupo_3097" data-name="Grupo 3097" transform="translate(237.172 1150.476)">
          <path id="Trazado_1752" data-name="Trazado 1752" d="M308.31,1273.441l-.2-3.781a20.334,20.334,0,0,0-.762-4.555,2.274,2.274,0,0,0-.192-.523,1.367,1.367,0,0,0-.167-.23c-.338-.392-.554-.537-.691-.709a1.425,1.425,0,0,1-.206-1.053c.055-.388.2-.336,1.116-1.568a1.672,1.672,0,0,1,.661-.578.993.993,0,0,1,.454-.1,1.183,1.183,0,0,1,.64.277c.619.413,1.1.607,1.127,1.046,0,.041,1.621.524,1.742.577a3.683,3.683,0,0,1,2.195,1.829,1.607,1.607,0,0,1-.061,1.139,2.522,2.522,0,0,1-.78,1.111c-.613.406-1.432.059-1.632,1-.238,1.126-.68,5.92-.708,6.273" transform="translate(-306.073 -1260.341)" fill="none" stroke="#3caea4" stroke-linecap="round" stroke-linejoin="round" stroke-width="2"/>
          <path id="Trazado_1753" data-name="Trazado 1753" d="M316.807,1262.89a2.885,2.885,0,0,1,0,1.7" transform="translate(-313.194 -1262.032)" fill="none" stroke="#3caea4" stroke-linecap="round" stroke-linejoin="round" stroke-width="2"/>
        </g>
        <path id="Trazado_1754" data-name="Trazado 1754" d="M244.266,1225.531l-1.743,1.14c-1.369.788-.884,1.869-.487,2.681a8.157,8.157,0,0,0,1.008,1.861,3.6,3.6,0,0,0,1.617,1,1.647,1.647,0,0,1,.871.71h0a1.629,1.629,0,0,1,.159,1.4,12.726,12.726,0,0,1-2.278,3.713,1.509,1.509,0,0,1-2.283.037,9.438,9.438,0,0,1-1.2-1.736,31.061,31.061,0,0,1-1.11-3.149,8.413,8.413,0,0,0-2.129-2.99,41.845,41.845,0,0,1-3.9-5.045,3.9,3.9,0,0,1-.572-2.088,6.005,6.005,0,0,1,4.089-5.711,3.349,3.349,0,0,1,2.981.372l1.377.917" transform="translate(-19.898 -81.218)" fill="none" stroke="#3caea4" stroke-linecap="round" stroke-linejoin="round" stroke-width="2"/>
        <path id="Trazado_1755" data-name="Trazado 1755" d="M284.5,1218.646l1.377-.917a3.348,3.348,0,0,1,2.981-.372,6.005,6.005,0,0,1,4.088,5.711,3.917,3.917,0,0,1-.575,2.088,41.329,41.329,0,0,1-3.9,5.045,8.447,8.447,0,0,0-2.128,2.99,30.411,30.411,0,0,1-1.11,3.149,9.308,9.308,0,0,1-1.2,1.742,1.513,1.513,0,0,1-2.282-.044,12.674,12.674,0,0,1-2.3-3.784,1.475,1.475,0,0,1,.139-1.257l.085-.139a1.524,1.524,0,0,1,.829-.643,3.6,3.6,0,0,0,1.617-1,8.157,8.157,0,0,0,1.008-1.861c.4-.813.882-1.893-.487-2.681l-1.743-1.14" transform="translate(-51.181 -81.218)" fill="none" stroke="#3caea4" stroke-linecap="round" stroke-linejoin="round" stroke-width="2"/>
        <path id="Trazado_1756" data-name="Trazado 1756" d="M202.224,1107.421v2.555a2.041,2.041,0,0,0,2.041,2.041h3a2.319,2.319,0,0,0,2,2.313,4.064,4.064,0,0,1,2.46,1.079" transform="translate(0 -8.407)" fill="none" stroke="#3caea4" stroke-linecap="round" stroke-linejoin="round" stroke-width="2"/>
        <path id="Trazado_1757" data-name="Trazado 1757" d="M294.817,1100.691a17.125,17.125,0,0,1,7.548-.559,2.355,2.355,0,0,1,1.951,2.321,1.074,1.074,0,0,1-.527.725,1.475,1.475,0,0,1-1.06.169,15.4,15.4,0,0,0-7.653.24c-3.055,1.069-5.166,2.4-8.323,3.2a22.808,22.808,0,0,1-5.268.683" transform="translate(-52.587 -3.441)" fill="none" stroke="#3caea4" stroke-linecap="round" stroke-linejoin="round" stroke-width="2"/>
        <path id="Trazado_1758" data-name="Trazado 1758" d="M330.6,1107.421v2.555a2.041,2.041,0,0,1-2.041,2.041h-3a2.319,2.319,0,0,1-2,2.313,4.064,4.064,0,0,0-2.46,1.079" transform="translate(-78.874 -8.407)" fill="none" stroke="#3caea4" stroke-linecap="round" stroke-linejoin="round" stroke-width="2"/>
        <path id="Trazado_1759" data-name="Trazado 1759" d="M267.721,1099.014v-.612l-.768-.485-.615-.364a1.021,1.021,0,0,1-.358-1.4l.536-.9a1.02,1.02,0,0,1,1.238-.435l.961.362a1.4,1.4,0,0,0,.987,0l.961-.362a1.02,1.02,0,0,1,1.238.435l.536.9a1.021,1.021,0,0,1-.358,1.4l-.615.364-.671.451v.645" transform="translate(-42.206)" fill="none" stroke="#3caea4" stroke-linecap="round" stroke-linejoin="round" stroke-width="2"/>
        <line id="Línea_4" data-name="Línea 4" y1="1.627" transform="translate(224.38 1137.211)" fill="none" stroke="#3caea4" stroke-linecap="round" stroke-linejoin="round" stroke-width="2"/>
        <line id="Línea_5" data-name="Línea 5" y1="1.627" transform="translate(224.38 1131.789)" fill="none" stroke="#3caea4" stroke-linecap="round" stroke-linejoin="round" stroke-width="2"/>
      </g>
    </g>
    <g id="Grupo_3106" data-name="Grupo 3106" transform="translate(-35 -163)">
      <g id="Grupo_3103" data-name="Grupo 3103" transform="translate(835.953 2132.793)" opacity="0.8">
        <ellipse id="Elipse_530-2" data-name="Elipse 530" cx="49.193" cy="49.193" rx="49.193" ry="49.193" transform="matrix(0.977, -0.215, 0.215, 0.977, 0, 21.106)" fill="#fff"/>
      </g>
      <g id="Grupo_3102" data-name="Grupo 3102" transform="translate(-1165.1 2015.407)">
        <g id="Grupo_3101" data-name="Grupo 3101" transform="translate(2027.897 142.828)">
          <g id="Grupo_3100" data-name="Grupo 3100" transform="translate(0 41.102)">
            <path id="Trazado_1760" data-name="Trazado 1760" d="M2046.257,297.271l-3.09,2.018s.269,1.864-2.6,3.813c-.9.613-2.3,1.495-3.455,2.219a9.3,9.3,0,0,1-7.963.972q-.213-.074-.419-.157a6.787,6.787,0,0,1-.833-.389l11-7.183,4.465-2.917" transform="translate(-2027.897 -289.894)" fill="none" stroke="#3caea4" stroke-linecap="round" stroke-linejoin="round" stroke-width="2"/>
            <path id="Trazado_1761" data-name="Trazado 1761" d="M2085.919,276.884l-7.334,4.791a.669.669,0,0,0,.042,1.145l2.95,1.635a.669.669,0,0,0,.69-.025l5-3.265" transform="translate(-2062.833 -276.884)" fill="none" stroke="#3caea4" stroke-linecap="round" stroke-linejoin="round" stroke-width="2"/>
          </g>
          <line id="Línea_6" data-name="Línea 6" x2="1.485" y2="2.275" transform="translate(60.618 13.716)" fill="none" stroke="#3caea4" stroke-linecap="round" stroke-linejoin="round" stroke-width="2"/>
          <path id="Trazado_1762" data-name="Trazado 1762" d="M2073.84,192.278l-4.534-5.086a7.9,7.9,0,0,1-1.735-3.067.047.047,0,0,0-.006-.022,9.56,9.56,0,0,1-.338-3.179,9.434,9.434,0,0,1,.74-3.108L2073,166.035a7.064,7.064,0,0,1,4.443-3.986l22.187-6.727a24.205,24.205,0,0,0,6.2-2.89l2.583-1.685,4.251,6.516" transform="translate(-2055.156 -148.319)" fill="none" stroke="#3caea4" stroke-linecap="round" stroke-linejoin="round" stroke-width="2"/>
          <path id="Trazado_1763" data-name="Trazado 1763" d="M2093.087,236.011a19.358,19.358,0,0,0-4.612-6.812s2.524-1.647,4.769-7.839c0,0,9.349-.764,10.74-1.815l-.95-1.457" transform="translate(-2069.902 -195.014)" fill="none" stroke="#3caea4" stroke-linecap="round" stroke-linejoin="round" stroke-width="2"/>
          <path id="Trazado_1764" data-name="Trazado 1764" d="M2100.664,225.248a2.732,2.732,0,0,1-1.488-1.554" transform="translate(-2077.322 -198.9)" fill="none" stroke="#3caea4" stroke-linecap="round" stroke-linejoin="round" stroke-width="2"/>
          <path id="Trazado_1765" data-name="Trazado 1765" d="M2085.626,254.242s-1.1.289-1.26-.037" transform="translate(-2067.052 -220.057)" fill="none" stroke="#3caea4" stroke-linecap="round" stroke-linejoin="round" stroke-width="2"/>
          <path id="Trazado_1766" data-name="Trazado 1766" d="M2114.146,234.419a10.2,10.2,0,0,1-5.621.748,15.755,15.755,0,0,1-4.075,5.668,7.3,7.3,0,0,0-1.221,5.164" transform="translate(-2080.083 -206.337)" fill="none" stroke="#3caea4" stroke-linecap="round" stroke-linejoin="round" stroke-width="2"/>
          <path id="Trazado_1767" data-name="Trazado 1767" d="M2107.11,288.216a5.045,5.045,0,0,1,1.582,1.931,2,2,0,0,1-.778,2.108,2.072,2.072,0,0,1-2.057.155c-.9-.415-1.8-.806-2.707-1.208l-2-.893" transform="translate(-2078.69 -243.64)" fill="none" stroke="#3caea4" stroke-linecap="round" stroke-linejoin="round" stroke-width="2"/>
          <path id="Trazado_1768" data-name="Trazado 1768" d="M2125.14,271.361a.274.274,0,0,1,.043.019c2.166.9,2.221,1.567,2.267,2.178a1.911,1.911,0,0,1-.955,1.783,2.036,2.036,0,0,1-1.183.248l-3.126-.22-1.433-.385" transform="translate(-2092.283 -231.953)" fill="none" stroke="#3caea4" stroke-linecap="round" stroke-linejoin="round" stroke-width="2"/>
          <path id="Trazado_1769" data-name="Trazado 1769" d="M2141.5,262.431l.84.634a1.706,1.706,0,0,1,.427.984,1.883,1.883,0,0,1-.457,1.381,1.975,1.975,0,0,1-1.813.607l-.86-.139h-.005l-.066-.022" transform="translate(-2105.327 -225.76)" fill="none" stroke="#3caea4" stroke-linecap="round" stroke-linejoin="round" stroke-width="2"/>
          <path id="Trazado_1770" data-name="Trazado 1770" d="M2118.682,235.314s-.737-.307-.875-.682" transform="translate(-2090.24 -206.485)" fill="none" stroke="#3caea4" stroke-linecap="round" stroke-linejoin="round" stroke-width="2"/>
          <path id="Trazado_1771" data-name="Trazado 1771" d="M2104.481,254.637a1.137,1.137,0,0,1-1.278-.312" transform="translate(-2080.114 -220.14)" fill="none" stroke="#3caea4" stroke-linecap="round" stroke-linejoin="round" stroke-width="2"/>
          <path id="Trazado_1772" data-name="Trazado 1772" d="M2113.534,167.36s2.525,2.005-2.712,6.711c0,0-10.685,8.763-8.2,13.231a2.039,2.039,0,0,0,2.816.595c.066-.043.126-.09.188-.14l3.7-3.684c1.042-.951,2.459-2.184,4.211-3.535a52.039,52.039,0,0,1,6.492-4.335c2.892-1.605,6.126-2.509,8.925-4.3,3.829-2.445,6.518-5.948,9.259-9.484a14.807,14.807,0,0,1,3.34-3.6l.269.413a1.38,1.38,0,0,0,1.909.4l.451-.294a1.38,1.38,0,0,0,.4-1.91l-9.119-13.976a1.379,1.379,0,0,0-1.909-.4l-.451.294a1.38,1.38,0,0,0-.4,1.909" transform="translate(-2079.451 -142.828)" fill="none" stroke="#3caea4" stroke-linecap="round" stroke-linejoin="round" stroke-width="2"/>
        </g>
        <line id="Línea_7" data-name="Línea 7" x2="3.202" transform="translate(2077.871 200.821)" fill="none" stroke="#3caea4" stroke-linecap="round" stroke-linejoin="round" stroke-width="2"/>
        <line id="Línea_8" data-name="Línea 8" x2="3.202" transform="translate(2084.178 200.821)" fill="none" stroke="#3caea4" stroke-linecap="round" stroke-linejoin="round" stroke-width="2"/>
        <line id="Línea_9" data-name="Línea 9" x2="3.202" transform="translate(2039.425 200.821)" fill="none" stroke="#3caea4" stroke-linecap="round" stroke-linejoin="round" stroke-width="2"/>
        <line id="Línea_10" data-name="Línea 10" x2="3.202" transform="translate(2045.84 200.821)" fill="none" stroke="#3caea4" stroke-linecap="round" stroke-linejoin="round" stroke-width="2"/>
        <line id="Línea_11" data-name="Línea 11" x2="3.202" transform="translate(2052.254 200.821)" fill="none" stroke="#3caea4" stroke-linecap="round" stroke-linejoin="round" stroke-width="2"/>
        <line id="Línea_12" data-name="Línea 12" x2="3.202" transform="translate(2058.669 200.821)" fill="none" stroke="#3caea4" stroke-linecap="round" stroke-linejoin="round" stroke-width="2"/>
        <line id="Línea_13" data-name="Línea 13" x2="3.202" transform="translate(2065.083 200.821)" fill="none" stroke="#3caea4" stroke-linecap="round" stroke-linejoin="round" stroke-width="2"/>
        <line id="Línea_14" data-name="Línea 14" x2="3.202" transform="translate(2071.498 200.821)" fill="none" stroke="#3caea4" stroke-linecap="round" stroke-linejoin="round" stroke-width="2"/>
      </g>
    </g>
    <g id="Grupo_3113" data-name="Grupo 3113" transform="translate(-34 -251.549)">
      <g id="Grupo_3111" data-name="Grupo 3111" transform="translate(474 2011.549)">
        <g id="Grupo_3107" data-name="Grupo 3107" transform="translate(40.583 0)">
          <path id="Trazado_1773" data-name="Trazado 1773" d="M226.6,298.207a78.994,78.994,0,0,0,57.186,75.915c0,3.949-.152-11.349,1.654,155.993a20.112,20.112,0,0,0,40.221,0c1.806-167.312,1.654-152.044,1.654-155.993A78.961,78.961,0,1,0,226.6,298.207Zm13.8,0a65.15,65.15,0,1,1,65.147,65.153A65.144,65.144,0,0,1,240.409,298.207Z" transform="translate(-226.605 -219.256)" fill="#1a364e"/>
          <path id="Trazado_1774" data-name="Trazado 1774" d="M259.642,316.2a65.15,65.15,0,1,0,65.147-65.147A65.148,65.148,0,0,0,259.642,316.2Z" transform="translate(-245.838 -237.766)" fill="#fff" opacity="0.11"/>
          <path id="Trazado_1775" data-name="Trazado 1775" d="M433.6,790.329c-1.5,2.476-5.718,11.073,1.208,17.695a6.656,6.656,0,0,0,4.908,2.008,20.054,20.054,0,0,0,3.994-11.807L444.99,679.8l-.065,5.926-5.545,5.463c-8.368,9.141-6.8,17.412-5.1,23.092.713,2.373,3.194,3.7,5.468,3.874l-.729.691c-8.727,9.533-7.1,18.163-5.316,24.083.822,2.742,3.907,4.157,6.464,4.064a.228.228,0,0,0,.06-.005l-.022,1.992c-5.648,5.12-10.289,11.562-10.817,22.4-.44,9.021,6.845,10.86,10.426,10.866C439.816,782.238,435.109,787.853,433.6,790.329Z" transform="translate(-344.647 -487.364)" opacity="0.12"/>
        </g>
        <path id="Trazado_1776" data-name="Trazado 1776" d="M275.146,660.321c-.167,1.316.861,5.925.861,5.925s1.717,13.914,2.449,31.518c.714,17.374-7.576,37.936-7.793,38.475h-.017l.008.038a32.273,32.273,0,0,1-2.879,5.532,45.162,45.162,0,0,1-9.418,10.642,19.924,19.924,0,0,0,10.082,3.15c.242.009.493.013.744.013.572,0-13.68,16.994-17.073,21.03H164.126c9.652-22.626,22.079-51.758,28.417-66.629,11.261-26.42,12.991-47.667,14.938-57.282s3.268-21.118,12.456-27.494S247.56,602.63,247.56,602.63l.075.451.05,4.379.088,8.043c.531-3.869,5.515-21.982,7.091-26.625,1.354-3.986,2.49-7.25,2.628-7.58,4.429-10.772,15.239-8.72,15.239-8.72,12.33,1.722,13.179,11.725,12.853,16.981C285.492,590.989,276.663,648.275,275.146,660.321Z" transform="translate(-149.649 -424.855)" fill="#11808a"/>
        <path id="Trazado_1777" data-name="Trazado 1777" d="M356.09,1027.469H342.736c9.882-17.06,19.6-24.193,19.6-24.193a19.968,19.968,0,0,0,10.826,3.163C373.736,1006.439,359.483,1023.433,356.09,1027.469Z" transform="translate(-253.628 -675.681)" fill="#11808a"/>
        <g id="Grupo_3108" data-name="Grupo 3108" transform="translate(8.486 209.138)">
          <path id="Trazado_1778" data-name="Trazado 1778" d="M149.787,876.487h10.235c13.983-36.488,30.1-79.081,37.119-102.114,5.474-17.972,8.674-57.845,6.987-54.384-2.8,5.773-3.781,12.52-4.995,18.527-1.943,9.62-3.673,30.862-14.936,57.285C176.432,814.017,159.532,853.64,149.787,876.487Z" transform="translate(-149.787 -719.776)" fill="#0e737c"/>
          <path id="Trazado_1779" data-name="Trazado 1779" d="M373.823,818.907s17.356-2.442,24.93-15.756c-.383-3.893-.666-6.18-.666-6.18S395.848,812.278,373.823,818.907Z" transform="translate(-280.212 -764.716)" fill="#0e737c"/>
        </g>
        <g id="Grupo_3109" data-name="Grupo 3109" transform="translate(129.388 179.104)">
          <path id="Trazado_1780" data-name="Trazado 1780" d="M464.915,887.4s5.87,10.084,5.418,16.18-3.687,10.837-5.418,13.546-11.214,14.3-18.137,7.676-2.709-15.218-1.2-17.693,6.21-8.092,6.21-8.092Z" transform="translate(-441.341 -787.325)" fill="#11808a"/>
          <path id="Trazado_1781" data-name="Trazado 1781" d="M449.58,850.152a5.7,5.7,0,0,0,1.617-.178c2.444-.788,17.014-13.516,18.161-14.9,1.126-1.36,2.131-3.7,3.061-8.877,1.882-10.461-5.268-22.728-5.268-22.728l-17.06,2.459-.118,10.963c-5.648,5.121-10.291,11.564-10.818,22.4C438.716,848.307,446,850.149,449.58,850.152Z" transform="translate(-439.137 -738.463)" fill="#11808a"/>
          <path id="Trazado_1782" data-name="Trazado 1782" d="M461.8,821.682a9.056,9.056,0,0,0,1.328.045,22.373,22.373,0,0,0,9.1-2.86c1.141-.7,6.237-3.049,10.47-7-.374-.9-.735-1.695-1.057-2.375a54.26,54.26,0,0,1-9.413,6.06,22.062,22.062,0,0,1-9.044,2.857l-.021,1.985C462.726,820.8,462.23,821.263,461.8,821.682Z" transform="translate(-452.332 -741.974)" opacity="0.12"/>
          <path id="Trazado_1783" data-name="Trazado 1783" d="M459.512,903.791a12.172,12.172,0,0,0,1.93.163,5.709,5.709,0,0,0,1.617-.178c1.613-.521,8.507-6.24,13.338-10.467-.319-.659-.617-1.252-.879-1.755-4.75,4.121-10.942,9.211-12.46,9.7a5.7,5.7,0,0,1-1.617.177S460.6,902.442,459.512,903.791Z" transform="translate(-450.998 -789.745)" opacity="0.12"/>
          <path id="Trazado_1784" data-name="Trazado 1784" d="M447.544,757.581c.822,2.739,3.909,4.154,6.465,4.064a22.39,22.39,0,0,0,9.1-2.86c2.309-1.406,20.855-9.633,15.539-24.082-5.334-14.488-20.14-21.189-24.047-22.724l-.218,20.078-1.523,1.443C444.132,743.032,445.768,751.66,447.544,757.581Z" transform="translate(-443.21 -685.203)" fill="#11808a"/>
          <path id="Trazado_1785" data-name="Trazado 1785" d="M449.008,691.626c.788,2.627,3.748,3.984,6.2,3.9a21.459,21.459,0,0,0,8.729-2.742c2.214-1.348,20-9.237,14.9-23.092-5.115-13.893-19.312-20.318-23.058-21.79l-.21,19.252-1.461,1.383C445.737,677.675,447.3,685.948,449.008,691.626Z" transform="translate(-444.096 -647.898)" fill="#11808a"/>
          <path id="Trazado_1786" data-name="Trazado 1786" d="M458.674,752.176a7.129,7.129,0,0,0,2.947.551,21.49,21.49,0,0,0,8.73-2.743c1.144-.693,6.434-3.132,10.584-7.239-.451-.578-.921-1.133-1.4-1.672a51.179,51.179,0,0,1-9.185,5.949,21.435,21.435,0,0,1-8.73,2.743,6.779,6.779,0,0,1-.732-.015l-.728.686C459.625,751.02,459.132,751.6,458.674,752.176Z" transform="translate(-450.51 -702.14)" opacity="0.12"/>
          <path id="Trazado_1787" data-name="Trazado 1787" d="M466.591,686.057a35.454,35.454,0,0,1,9.628-5.682,36.478,36.478,0,0,0-9.6,3.6Z" transform="translate(-455.119 -666.805)" fill="#0e737c"/>
        </g>
        <path id="Trazado_1788" data-name="Trazado 1788" d="M380.78,1006.545a19.991,19.991,0,0,0,11.133,3.363c.294,0,.582-.006.876-.022,1.649-2.068,2.688-3.444,2.525-3.444-.25,0-.5-.005-.745-.011a19.994,19.994,0,0,1-10.083-3.151A39.926,39.926,0,0,0,380.78,1006.545Z" transform="translate(-275.776 -675.683)" opacity="0.12"/>
        <path id="Trazado_1789" data-name="Trazado 1789" d="M328.751,677.985l-8.949-4.959,9.2,3.758c2.555-12.482,4.116-19.684,4-30.19l-.01-.871c.74-.642,1.154-1.006,1.154-1.006l.076.451c.062,5.527.032,2.841.136,12.422-.963,6.965-2.579,17.455-4.065,21.531-2.552,7.008-16.922,23.386-17.439,23.969C314.073,701.3,328.21,680.474,328.751,677.985Z" transform="translate(-236.233 -466.942)" fill="#0e737c"/>
        <g id="Grupo_3110" data-name="Grupo 3110" transform="translate(0 327.678)">
          <path id="Trazado_1790" data-name="Trazado 1790" d="M149.526,1037.183h51.093l5.12-24.268-49.107-9.441Z" transform="translate(-141.149 -1003.475)" fill="#fff"/>
          <path id="Trazado_1791" data-name="Trazado 1791" d="M271.8,1050.336h51.1l3.123-14.827-49.107-9.44Z" transform="translate(-212.335 -1016.628)" fill="#fff"/>
          <path id="Trazado_1792" data-name="Trazado 1792" d="M191.21,1043.589l-3.761,18.243H129.478l6.009-28.956Z" transform="translate(-129.478 -1020.591)" fill="#ebeef0"/>
          <path id="Trazado_1793" data-name="Trazado 1793" d="M327.7,1069.225l-1.475,7.534h-58l3.761-18.243Z" transform="translate(-210.247 -1035.517)" fill="#ebeef0"/>
        </g>
      </g>
      <circle id="Elipse_543" data-name="Elipse 543" cx="66" cy="66" r="66" transform="translate(528 2024.549)" fill="#fff" opacity="0.642"/>
    </g>
  </g>
</svg>
