<svg xmlns="http://www.w3.org/2000/svg" xmlns:xlink="http://www.w3.org/1999/xlink" width="920" height="258" viewBox="0 0 920 258">
  <defs>
    <clipPath id="clip-path">
      <rect id="Rectángulo_980" data-name="Rectángulo 980" width="17.918" height="45.629" fill="none"/>
    </clipPath>
  </defs>
  <g id="Grupo_3612" data-name="Grupo 3612" transform="translate(-112 -2507)">
    <rect id="Rectángulo_986" data-name="Rectángulo 986" width="920" height="258" transform="translate(112 2507)" fill="#3caea4"/>
    <path id="Trazado_2380" data-name="Trazado 2380" d="M0,115.207,920,.934V141H0Z" transform="translate(112 2622)" fill="#dedede" opacity="0.251"/>
    <g id="Grupo_3571" data-name="Grupo 3571" transform="translate(-191)">
      <path id="Trazado_2387" data-name="Trazado 2387" d="M2354.81,1367.76l264.619,63.228,27.627,6.6Z" transform="translate(-1916.582 1300.594)" fill="#272727"/>
      <g id="Rectángulo_987" data-name="Rectángulo 987" transform="translate(465 2664)" fill="#fff" stroke="#272727" stroke-width="4">
        <path d="M0,0H12a0,0,0,0,1,0,0V67a3,3,0,0,1-3,3H3a3,3,0,0,1-3-3V0A0,0,0,0,1,0,0Z" stroke="none"/>
        <path d="M4,2H8a2,2,0,0,1,2,2V67a1,1,0,0,1-1,1H3a1,1,0,0,1-1-1V4A2,2,0,0,1,4,2Z" fill="none"/>
      </g>
      <g id="Rectángulo_988" data-name="Rectángulo 988" transform="translate(673 2664)" fill="#fff" stroke="#272727" stroke-width="4">
        <path d="M0,0H12a0,0,0,0,1,0,0V69a3,3,0,0,1-3,3H3a3,3,0,0,1-3-3V0A0,0,0,0,1,0,0Z" stroke="none"/>
        <path d="M4,2H8a2,2,0,0,1,2,2V69a1,1,0,0,1-1,1H3a1,1,0,0,1-1-1V4A2,2,0,0,1,4,2Z" fill="none"/>
      </g>
      <rect id="Rectángulo_989" data-name="Rectángulo 989" width="249" height="4" transform="translate(454 2649)" fill="#fff"/>
      <g id="Rectángulo_990" data-name="Rectángulo 990" transform="translate(450 2645)" fill="none" stroke="#272727" stroke-width="5">
        <rect width="257" height="23" rx="11.5" stroke="none"/>
        <rect x="2.5" y="2.5" width="252" height="18" rx="9" fill="none"/>
      </g>
    </g>
    <g id="Grupo_3572" data-name="Grupo 3572" transform="translate(152 -1)" opacity="0.7">
      <path id="Trazado_2381" data-name="Trazado 2381" d="M2570,995.03c4.613-4.681,12.659-8.634,22.98-7.49.263,4.629-3.342,11.71-2.873,13.515.33,1.268,3.544,4.474,5.18,6.932-7.036-.847-10.029,2.642-15.112,1.39-5.189-1.278-11.664-7.237-10.867-7.833-.175,3.431-.9,8.4-3.3,10.481-2.964,2.566-7.451,4-13.226,4.978a947.336,947.336,0,0,1-115.924,3.666,9.814,9.814,0,0,1-4.665-1.838,4.376,4.376,0,0,1-3.535,2.3c-32.547-.508-64.974-.747-98.055-2.452a4.091,4.091,0,0,1-2.365-2.066c-.572.847-.769,1.894-2.385,2.187,0,0-24.442-1.443-31.681-2.567s-10.478-3.809-10.478-3.809a25.032,25.032,0,0,1-10.067-5.3c-1.462-9.446-.825-21.952.222-26.576,1.434-6.328,7.033-5.621,8.626-2.734,1.457,2.641,5.433,8.28,12.4,10.19,7.78,2.133,28.156,5.108,29.319,4.87,2.242.063,3.838,1.6,4.882,4.383,1.8-1.727,2.262-3.977,7.55-4.335,13.2-.664,27.544-2.5,38.9-1.278,17.921-3.688,38.237-12.683,53.656-10.824,1.119.186,2.257-.042,3.331,1.206,1.888-1.97,3.262-2.6,4.458-2.757.663-1.991,53.435.715,55.9,3.465,3.218.487,11.937,1.572,14.248-.423,3.953-3.414,10.208-6.349,17.376-7.789,4.566-.917,9.471-.534,14.419.026,6.548.741,13.144,2.314,18.9,6.713C2561.111,983.792,2564.758,987.25,2570,995.03Z" transform="translate(-1845.276 1624.8)" fill="#fff"/>
      <path id="Trazado_2382" data-name="Trazado 2382" d="M2591.858,1119.658c-16.516-.025-1.8,28.167-65.6,13.124-7.5,3.1-41.621,14.627-71.227-7.181l-1.585.016s-21.222,12.786-57.512,13.248-44.051-9.231-44.051-9.231l-1.274,2.577s-8.162,6.559-17.015,5.311-18.858-3.766-25.583-16.9c-1.974-2.105-1.463-.2-1.4.924.7,11.847-7.468,11.35-7.493,11.357a28.4,28.4,0,0,0,7.612,3.392s3.239,2.685,10.478,3.809,31.681,2.567,31.681,2.567c1.616-.293,1.813-1.341,2.385-2.188a4.092,4.092,0,0,0,2.364,2.067c34.584-.376,65.019-.018,97.566.49a4.376,4.376,0,0,0,3.536-2.3,9.809,9.809,0,0,0,4.665,1.838c43.4-.6,79.606.943,116.414-1.7,5.774-.975,10.261-2.413,13.225-4.979,2.332-2.019,3.076-6.756,3.277-10.171a2.905,2.905,0,0,0,.536.839v-1.57s4.983-1.414,7.484-1.1c4.383.557,12.218,5.14,12.218,5.14s-2.771-2.973-2.77-4.829c0-1.96,2.927-5.1,2.927-5.1a19.007,19.007,0,0,1-4.642,2.732c-4.494,1.2-13.951-.157-13.951-.157Z" transform="translate(-1868.173 1498.655)" fill="#e7e7e7"/>
      <path id="Trazado_2383" data-name="Trazado 2383" d="M2687.468,1134.458a3.228,3.228,0,0,1,2.609.516c-1.805,7.407-1.146,14.92-1.25,22.4a3.877,3.877,0,0,1-1.933.023C2686.51,1150.048,2685.741,1142.9,2687.468,1134.458Z" transform="translate(-2204.791 1485.39)" fill="#aab9c0"/>
      <path id="Trazado_2384" data-name="Trazado 2384" d="M2573,998.172c-9.357.188-17.261,7.9-20.768,7.827,5.837.627,14.114-7.665,22.658-7.76A16.81,16.81,0,0,0,2573,998.172Zm-75.973,2.8c-2.61.176-13.3-.537-15.607,2.431l-.1,1.387C2484.466,1000.451,2494.068,1002.067,2497.031,1000.976Zm-24.785,2.192a46.421,46.421,0,0,0-8.946,1c4.159-.4,11.892-.869,12.723,1.3l-.264-1.365C2475.331,1003.453,2473.968,1003.2,2472.246,1003.168Zm16.663,1.276c-2.388.073-6.52.678-7.3,1.522-.217.24-.647.856-.588,1.23.253-1.278,8.07-2.722,9.451-2.661a2.733,2.733,0,0,0-.656-.088C2489.556,1004.434,2489.25,1004.433,2488.909,1004.443Zm-15.935,1a26.146,26.146,0,0,0-3.909.286c1.4.044,6.345.052,6.716,1.018.015-.378-.486-.94-.729-1.153A9.16,9.16,0,0,0,2472.974,1005.441Zm65.45.365c1.881.914,8.925,2.465,9.419.077-.217.278-1.224.4-2.825.43A37.34,37.34,0,0,1,2538.424,1005.806Zm67.229,1.411c2.368,1.407,8.094,7.3,8.466,9.595l.019-1.592C2613.373,1013.306,2608.357,1007.733,2605.654,1007.217Zm-117.313,0c-1.873-.027-6.093.182-7.107.607a.971.971,0,0,0-.316.915c.286-1.133,6.507-1.26,8.066-1.5C2488.828,1007.233,2488.608,1007.224,2488.34,1007.221Zm-14.4.447a25.766,25.766,0,0,0-3.817.729c1.576.049,4.838-.865,5.256.226a.972.972,0,0,0-.422-.872,2.451,2.451,0,0,0-.5-.081A4.557,4.557,0,0,0,2473.936,1007.668Zm156.541,3c-3.588.057-9.9,2.712-11.1,4.221l-.1,1.387c.568-2.25,8.629-5.2,11.876-5.584A6.111,6.111,0,0,0,2630.477,1010.668Zm-159.984.867a23.611,23.611,0,0,0,4.514.622c.073-.293.205-.36.05-.566C2474.34,1011.58,2471.376,1011.534,2470.493,1011.535Zm10.077.456c-.173.192-.046.27,0,.569a38.692,38.692,0,0,0,5.815-.173C2485.5,1012.31,2481.283,1012.042,2480.57,1011.991Zm-13.635,1.19a53.639,53.639,0,0,0,8,.935c.1-.406.286-.5.069-.785C2474.017,1013.316,2468.159,1013.18,2466.935,1013.181Zm13.424.416c-.24.265-.064.374,0,.788,1.521-.39,6.6.062,8.056-.24C2487.2,1014.037,2481.347,1013.667,2480.359,1013.6Zm127.66.094c1.357.327,6.2,3.829,6.369,4.85a2.082,2.082,0,0,0-.479-1.278C2613.087,1015.663,2609.124,1013.69,2608.019,1013.69Zm-242.67.893c2.98.876,6.878,1.255,7.25,3.546l.019-1.39C2371.852,1014.825,2368.052,1015.1,2365.349,1014.583Zm28.7.058c-2.738.28-14.678.592-15.607,2.432l-.1,1.385C2378.9,1016.208,2391,1015.256,2394.044,1014.641Zm232.035.219a17.679,17.679,0,0,0-6.55,1.517,1.836,1.836,0,0,0-.3,1.23C2619.484,1016.6,2624.7,1015.068,2626.079,1014.86Zm-151,.5c-.6.021-4.158.113-4.9.15a32.55,32.55,0,0,0,4.881.328C2475.114,1015.591,2475.223,1015.529,2475.084,1015.363Zm5.161.168c-.152.154-.048.225-.021.478a32.558,32.558,0,0,0,4.89.1C2484.379,1016,2480.844,1015.6,2480.245,1015.531Zm121.671.187c-.92-.016-1.858.043-2.483.043,1.533.37,4.914.139,5.1,1.293a.973.973,0,0,0-.238-.939A5.85,5.85,0,0,0,2601.916,1015.718Zm-235.88,1.4c1.357.327,6.2,1.344,6.368,2.365a2.082,2.082,0,0,0-.479-1.277A22.644,22.644,0,0,0,2366.035,1017.116Zm21.24.389a50.653,50.653,0,0,0-8.861,1.431c-.217.24-.647.856-.588,1.23C2378.079,1019.163,2385.895,1017.714,2387.275,1017.505Zm231.779,1.01c-.173.192-.048.269,0,.568a38.711,38.711,0,0,0,5.816-.173C2623.989,1018.833,2619.767,1018.566,2619.053,1018.516Zm-12.634,1.144a53.643,53.643,0,0,0,8.005.937c.1-.406.286-.5.07-.785C2613.5,1019.8,2607.644,1019.659,2606.42,1019.66Zm12.619.15c-.24.265-.064.375,0,.789,1.522-.39,6.6.062,8.056-.24C2625.876,1020.252,2620.027,1019.88,2619.039,1019.81Zm-249.514.2c-.921-.016-1.858.043-2.483.043,1.533.37,4.912.14,5.1,1.293a.974.974,0,0,0-.236-.939A5.853,5.853,0,0,0,2369.525,1020.011Zm11.972.662a12.061,12.061,0,0,0-3.414.329.974.974,0,0,0-.317.916c.286-1.133,5.65-.893,7.209-1.129C2384.353,1020.735,2382.92,1020.667,2381.5,1020.673Zm237.449.7c-.152.154-.049.225-.021.478a32.532,32.532,0,0,0,4.891.1C2623.081,1021.85,2619.546,1021.45,2618.947,1021.377Zm-4.828.094c-.6.02-4.157.113-4.9.15a32.537,32.537,0,0,0,4.881.327C2614.149,1021.7,2614.26,1021.637,2614.119,1021.471Zm4.969.983a1.022,1.022,0,0,0,.025,1.016,9.831,9.831,0,0,0,4.521,1.707C2622.15,1024.445,2619.014,1023.68,2619.088,1022.454Zm-5.255.235a40.869,40.869,0,0,1-7.571,4.038c3.524-.506,6.114-2.5,7.485-3.07C2614.037,1023.336,2613.913,1023.189,2613.834,1022.69Zm-133.489.362c-.142.163-.035.227.008.478a32.5,32.5,0,0,0,4.887-.2C2484.5,1023.273,2480.947,1023.087,2480.345,1023.051Zm-5.284.1c-.6.057-4.144.364-4.882.446a32.571,32.571,0,0,0,4.892.031C2475.1,1023.382,2475.209,1023.314,2475.061,1023.156Zm143.764.674a1.152,1.152,0,0,0-.1,1.142c.793,1.2,5.741,3.937,8.494,4.318C2625.281,1028.443,2618.584,1025.192,2618.824,1023.83Zm-251.6.881a23.622,23.622,0,0,0,4.514.621c.073-.293.206-.36.05-.566C2371.067,1024.754,2368.1,1024.71,2367.22,1024.711Zm246.614.021c-2.491,1.861-6.014,6.649-9.3,7.159,3.466.245,7.847-5.617,9.218-6.19C2614.037,1025.38,2613.913,1025.232,2613.834,1024.732Zm-236.731.492c-.173.191-.046.27,0,.569a38.7,38.7,0,0,0,5.815-.173C2382.038,1025.542,2377.817,1025.275,2377.1,1025.224Zm97.98.309c-.6.021-4.158.113-4.9.151a32.546,32.546,0,0,0,4.88.327C2475.113,1025.762,2475.223,1025.7,2475.083,1025.534Zm5.278.226c-.152.154-.05.225-.022.478a32.578,32.578,0,0,0,4.891.1C2484.494,1026.233,2480.96,1025.832,2480.36,1025.76Zm-116.617.678a53.633,53.633,0,0,0,8.006.937c.1-.406.284-.5.068-.785C2370.825,1026.574,2364.968,1026.437,2363.743,1026.438Zm13.08.45c-.24.265-.064.374,0,.787,1.521-.39,6.6.063,8.056-.239C2383.661,1027.329,2377.813,1026.958,2376.823,1026.888Zm236.75.15c-.569,2.25-5.365,7.684-14.506,9.193,8.763-.641,13.116-4.523,14.4-7.692A2.961,2.961,0,0,0,2613.573,1027.038Zm20.829,1.22c-2.19-.011-3.846,1.031-5.675,1.235,2.4.035,5.381-1.008,7.285-1.036A6.976,6.976,0,0,0,2634.4,1028.258Zm-262.959.28c-.6.02-4.158.113-4.9.15a32.54,32.54,0,0,0,4.88.327C2371.473,1028.766,2371.583,1028.7,2371.443,1028.537Zm5.451.284c-.152.154-.05.225-.023.478a32.586,32.586,0,0,0,4.891.1C2381.026,1029.294,2377.493,1028.894,2376.894,1028.822Zm-50.814,3.207a34.99,34.99,0,0,0,3.95,1.423c6.913,1.678,11.941.228,16.111.019C2340.231,1031.91,2337.239,1034.884,2326.079,1032.029Zm45.869.206c-.3,1.19-4.009.161-5.646.408,1.307.115,4.1,1.062,5.313.552A1.021,1.021,0,0,0,2371.948,1032.235Zm5,.059a1.022,1.022,0,0,0,.249.987c1.168.613,3.126-.129,4.438-.13C2380.023,1032.763,2377.142,1033.506,2376.946,1032.294Zm103.967,1.277a1.021,1.021,0,0,0,.319.966c1.21.527,3.11-.353,4.418-.449C2484.015,1033.817,2481.2,1034.765,2480.912,1033.571Zm-5.03.137c-.214,1.208-5.026.564-6.642.929,1.312.02,5.2.649,6.379.053A1.021,1.021,0,0,0,2475.883,1033.708Zm-98.89.726a1.152,1.152,0,0,0,.28,1.111c1.317.69,7.175.259,8.653.258C2384.111,1035.365,2377.214,1035.8,2376.992,1034.433Zm-5.084.025c-.339,1.341-5.321.117-7.166.4,1.472.129,5.421,1.26,6.792.687A1.149,1.149,0,0,0,2371.908,1034.458Zm109.286,1.078a1.151,1.151,0,0,0,.359,1.089c1.363.594,10.035-.177,11.508-.285C2491.221,1036.035,2481.514,1036.882,2481.194,1035.537Zm-5.109.431c-.242,1.362-9.692.5-11.513.911,1.478.023,9.89.867,11.217.2A1.151,1.151,0,0,0,2476.085,1035.968Zm-103.224.188c-.569,2.25-10.581.176-13.677.643,2.471.217,10.746,2.137,13.048,1.174A1.932,1.932,0,0,0,2372.861,1036.156Zm3.762.25a1.933,1.933,0,0,0,.469,1.866c2.21,1.159,11.991-.2,14.471-.2C2388.52,1037.333,2376.88,1039.738,2376.623,1036.406Zm104.753,1.125a1.932,1.932,0,0,0,.6,1.827c2.288,1,11.342-.669,13.816-.849C2492.706,1038,2481.912,1039.79,2481.376,1037.531Zm-4.586.472c-.405,2.286-10.542.936-13.6,1.626,2.48.038,10.873,1.359,13.1.233A1.933,1.933,0,0,0,2476.79,1038Z" transform="translate(-1891.61 1603.772)" fill="#aab9c0"/>
      <path id="Trazado_2385" data-name="Trazado 2385" d="M3474.073,1024.806c1.386-.3,1.815-.529,2.518-.2-2.627,7.289-1.031,31.788-.432,39.369a3.874,3.874,0,0,1-1.933.024C3472.52,1056.3,3470.842,1032.931,3474.073,1024.806Z" transform="translate(-2887.854 1580.934)" fill="#aab9c0"/>
      <path id="Trazado_2386" data-name="Trazado 2386" d="M4534.858,1119.716c1.192,4.26.553,5.86.329,10.6a3.988,3.988,0,0,0,1.974.105c.1-2.528,1.156-6.656.451-10.559A3.04,3.04,0,0,0,4534.858,1119.716Z" transform="translate(-3811.487 1498.349)" fill="#aab9c0"/>
    </g>
    <g id="Grupo_3573" data-name="Grupo 3573" transform="translate(152)">
      <path id="Trazado_2387-2" data-name="Trazado 2387" d="M2354.81,1367.76l264.619,63.228,27.627,6.6Z" transform="translate(-1916.582 1300.594)" fill="#272727"/>
      <g id="Rectángulo_987-2" data-name="Rectángulo 987" transform="translate(465 2664)" fill="#fff" stroke="#272727" stroke-width="4">
        <path d="M0,0H12a0,0,0,0,1,0,0V67a3,3,0,0,1-3,3H3a3,3,0,0,1-3-3V0A0,0,0,0,1,0,0Z" stroke="none"/>
        <path d="M4,2H8a2,2,0,0,1,2,2V67a1,1,0,0,1-1,1H3a1,1,0,0,1-1-1V4A2,2,0,0,1,4,2Z" fill="none"/>
      </g>
      <g id="Rectángulo_988-2" data-name="Rectángulo 988" transform="translate(673 2664)" fill="#fff" stroke="#272727" stroke-width="4">
        <path d="M0,0H12a0,0,0,0,1,0,0V69a3,3,0,0,1-3,3H3a3,3,0,0,1-3-3V0A0,0,0,0,1,0,0Z" stroke="none"/>
        <path d="M4,2H8a2,2,0,0,1,2,2V69a1,1,0,0,1-1,1H3a1,1,0,0,1-1-1V4A2,2,0,0,1,4,2Z" fill="none"/>
      </g>
      <rect id="Rectángulo_989-2" data-name="Rectángulo 989" width="249" height="4" transform="translate(454 2649)" fill="#fff"/>
      <g id="Rectángulo_990-2" data-name="Rectángulo 990" transform="translate(450 2645)" fill="none" stroke="#272727" stroke-width="5">
        <rect width="257" height="23" rx="11.5" stroke="none"/>
        <rect x="2.5" y="2.5" width="252" height="18" rx="9" fill="none"/>
      </g>
    </g>
    <g id="Grupo_3574" data-name="Grupo 3574" transform="matrix(0.809, 0.588, -0.588, 0.809, 261.432, 2418.544)">
      <line id="Línea_78" data-name="Línea 78" x2="10.906" y2="12.862" transform="translate(67.419 132.667)" fill="none" stroke="#272727" stroke-miterlimit="10" stroke-width="3"/>
      <path id="Trazado_2303" data-name="Trazado 2303" d="M63.054,134.275l8.729-6.547V119h-37.1l-7.738,9.028a3.784,3.784,0,0,0,2.872,6.248Z" transform="translate(0 2.364)" fill="none" stroke="#272727" stroke-miterlimit="10" stroke-width="3"/>
      <path id="Trazado_2304" data-name="Trazado 2304" d="M55.369,126v23.873a13.243,13.243,0,0,0,7.6,11.982l8.275,3.9a6.548,6.548,0,0,1,3.76,5.925v28.519a6.546,6.546,0,0,1-6.547,6.547H33.547A6.546,6.546,0,0,1,27,200.195v-15.6a101.285,101.285,0,0,1,8.729-41.132V126" transform="translate(1.139 10.64)" fill="none" stroke="#272727" stroke-miterlimit="10" stroke-width="3"/>
      <line id="Línea_79" data-name="Línea 79" x2="8.729" transform="translate(71.783 125.729)" fill="none" stroke="#272727" stroke-miterlimit="10" stroke-width="3"/>
      <line id="Línea_80" data-name="Línea 80" x2="19.64" transform="translate(36.868 154.097)" fill="none" stroke="#272727" stroke-miterlimit="10" stroke-width="3"/>
      <line id="Línea_81" data-name="Línea 81" x2="19.64" transform="translate(36.868 145.368)" fill="none" stroke="#272727" stroke-miterlimit="10" stroke-width="3"/>
      <line id="Línea_82" data-name="Línea 82" x2="4.364" transform="translate(87.058 121.364)" fill="none" stroke="#272727" stroke-miterlimit="10" stroke-width="3"/>
      <line id="Línea_83" data-name="Línea 83" x2="4.364" transform="translate(87.058 130.093)" fill="none" stroke="#272727" stroke-miterlimit="10" stroke-width="3"/>
      <line id="Línea_84" data-name="Línea 84" x2="4.364" transform="translate(95.787 125.729)" fill="none" stroke="#272727" stroke-miterlimit="10" stroke-width="3"/>
      <line id="Línea_85" data-name="Línea 85" x2="4.364" transform="translate(95.787 117)" fill="none" stroke="#272727" stroke-miterlimit="10" stroke-width="3"/>
      <line id="Línea_86" data-name="Línea 86" x2="4.364" transform="translate(95.787 134.458)" fill="none" stroke="#272727" stroke-miterlimit="10" stroke-width="3"/>
      <line id="Línea_87" data-name="Línea 87" x2="4.364" transform="translate(104.516 125.729)" fill="none" stroke="#272727" stroke-miterlimit="10" stroke-width="3"/>
      <line id="Línea_88" data-name="Línea 88" x2="4.364" transform="translate(104.516 117)" fill="none" stroke="#272727" stroke-miterlimit="10" stroke-width="3"/>
      <line id="Línea_89" data-name="Línea 89" x2="4.364" transform="translate(104.516 134.458)" fill="none" stroke="#272727" stroke-miterlimit="10" stroke-width="3"/>
      <circle id="Elipse_580" data-name="Elipse 580" cx="13.093" cy="13.093" r="13.093" transform="translate(39.05 180.284)" fill="none" stroke="#272727" stroke-miterlimit="10" stroke-width="3"/>
    </g>
    <g id="Grupo_3575" data-name="Grupo 3575" transform="matrix(-0.809, 0.588, -0.588, -0.809, 980.747, 2609.713)">
      <line id="Línea_78-2" data-name="Línea 78" y1="12.862" x2="10.906" transform="translate(41.382 71.852)" fill="none" stroke="#272727" stroke-miterlimit="10" stroke-width="3"/>
      <path id="Trazado_2303-2" data-name="Trazado 2303" d="M37.018,0l8.729,6.547v8.729H8.65L.911,6.248A3.784,3.784,0,0,1,3.783,0Z" transform="translate(0 80.741)" fill="none" stroke="#272727" stroke-miterlimit="10" stroke-width="3"/>
      <path id="Trazado_2304-2" data-name="Trazado 2304" d="M28.369,80.741V56.868a13.243,13.243,0,0,1,7.6-11.982l8.275-3.9a6.548,6.548,0,0,0,3.76-5.925V6.547A6.546,6.546,0,0,0,41.462,0H6.547A6.546,6.546,0,0,0,0,6.547v15.6A101.285,101.285,0,0,0,8.729,63.284V80.741" transform="translate(2.103 0)" fill="none" stroke="#272727" stroke-miterlimit="10" stroke-width="3"/>
      <line id="Línea_79-2" data-name="Línea 79" x2="8.729" transform="translate(45.747 91.652)" fill="none" stroke="#272727" stroke-miterlimit="10" stroke-width="3"/>
      <line id="Línea_80-2" data-name="Línea 80" x2="19.64" transform="translate(10.832 63.284)" fill="none" stroke="#272727" stroke-miterlimit="10" stroke-width="3"/>
      <line id="Línea_81-2" data-name="Línea 81" x2="19.64" transform="translate(10.832 72.012)" fill="none" stroke="#272727" stroke-miterlimit="10" stroke-width="3"/>
      <line id="Línea_82-2" data-name="Línea 82" x2="4.364" transform="translate(61.022 96.017)" fill="none" stroke="#272727" stroke-miterlimit="10" stroke-width="3"/>
      <line id="Línea_83-2" data-name="Línea 83" x2="4.364" transform="translate(61.022 87.288)" fill="none" stroke="#272727" stroke-miterlimit="10" stroke-width="3"/>
      <line id="Línea_84-2" data-name="Línea 84" x2="4.364" transform="translate(69.751 91.652)" fill="none" stroke="#272727" stroke-miterlimit="10" stroke-width="3"/>
      <line id="Línea_85-2" data-name="Línea 85" x2="4.364" transform="translate(69.751 100.381)" fill="none" stroke="#272727" stroke-miterlimit="10" stroke-width="3"/>
      <line id="Línea_86-2" data-name="Línea 86" x2="4.364" transform="translate(69.751 82.923)" fill="none" stroke="#272727" stroke-miterlimit="10" stroke-width="3"/>
      <line id="Línea_87-2" data-name="Línea 87" x2="4.364" transform="translate(78.48 91.652)" fill="none" stroke="#272727" stroke-miterlimit="10" stroke-width="3"/>
      <line id="Línea_88-2" data-name="Línea 88" x2="4.364" transform="translate(78.48 100.381)" fill="none" stroke="#272727" stroke-miterlimit="10" stroke-width="3"/>
      <line id="Línea_89-2" data-name="Línea 89" x2="4.364" transform="translate(78.48 82.924)" fill="none" stroke="#272727" stroke-miterlimit="10" stroke-width="3"/>
      <ellipse id="Elipse_580-2" data-name="Elipse 580" cx="13.093" cy="13.093" rx="13.093" ry="13.093" transform="translate(13.014 10.911)" fill="none" stroke="#272727" stroke-miterlimit="10" stroke-width="3"/>
    </g>
    <path id="Trazado_2389" data-name="Trazado 2389" d="M345.235,428.942v15.636h-94.3a2.143,2.143,0,0,0-1.642-.763,5.665,5.665,0,0,1-.576-11.3l71.558-7.4a2.171,2.171,0,0,0-.444-4.32l-71.566,7.4a9.992,9.992,0,0,0-8.087,14.056,9.424,9.424,0,0,0,.965,1.681c.156.226.319.436.49.646H167.218c-.047,0-.086.008-.132.008l-1.136-1.222.132-.156a13.016,13.016,0,0,0,1.105-14.4,13.215,13.215,0,0,0-2.351-3.02c-.054-.054-.132-.07-.187-.117,15.309-1.245,46.808-3.471,81.264-5.837.327.031.646.086.973.086a9.618,9.618,0,0,0,2.444-.319c30.292-2.07,62.507-4.226,87.81-5.892a19.2,19.2,0,0,1,2.109,1.642,18.328,18.328,0,0,1,5.985,13.589Z" transform="translate(122.562 2194.992)" fill="#fff"/>
    <path id="Trazado_2390" data-name="Trazado 2390" d="M147.543,431.63a7.438,7.438,0,0,0-1.823,3.569,6.386,6.386,0,0,0-.212,3.378,5.241,5.241,0,0,0,.481,1.21l3.171-3.171a2.061,2.061,0,0,1,1.578-.636,2.17,2.17,0,0,1,1.551.7l6.4,6.923a8.657,8.657,0,0,0-1.13-11.2,2.121,2.121,0,0,1-.535-.9,2.151,2.151,0,0,1,.425-2.112c-3.737.318-6.072.551-6.677.678A7.412,7.412,0,0,0,147.543,431.63Z" transform="translate(126.838 2191.517)" fill="#fff"/>
    <path id="Trazado_2391" data-name="Trazado 2391" d="M443.333,411.756a15.8,15.8,0,0,0-9.064-3.975,14.5,14.5,0,0,0-7.492,1.482,13.936,13.936,0,0,0-6.67,7.563,13.4,13.4,0,0,0-.324,8c.732,2.6,2.16,4.227,4.753,7.186a42.408,42.408,0,0,0,5.439,5.175,16.347,16.347,0,0,0,19.249-16.219v-.021A19.019,19.019,0,0,0,443.333,411.756Z" transform="translate(66.106 2196.315)" fill="#fff"/>
    <path id="Trazado_2473" data-name="Trazado 2473" d="M1.977-15.705H6.864a9.419,9.419,0,0,1,4.85.951,3.309,3.309,0,0,1,1.509,3.024,3.81,3.81,0,0,1-.661,2.31,2.639,2.639,0,0,1-1.756,1.085v.107A3.46,3.46,0,0,1,12.96-6.982a4.054,4.054,0,0,1,.661,2.428A4,4,0,0,1,12.069-1.2,6.713,6.713,0,0,1,7.853,0H1.977Zm3.33,6.22H7.24A3.535,3.535,0,0,0,9.2-9.9a1.563,1.563,0,0,0,.607-1.386,1.387,1.387,0,0,0-.661-1.294,4.246,4.246,0,0,0-2.089-.392H5.307Zm0,2.643V-2.75h2.17a3.219,3.219,0,0,0,2.03-.526,1.943,1.943,0,0,0,.655-1.611q0-1.955-2.793-1.955Zm13.8.816a5.041,5.041,0,0,0,.585,2.7,2.094,2.094,0,0,0,1.907.913,2.06,2.06,0,0,0,1.885-.908,5.113,5.113,0,0,0,.575-2.7,4.961,4.961,0,0,0-.58-2.675,2.1,2.1,0,0,0-1.9-.892,2.091,2.091,0,0,0-1.891.886A4.956,4.956,0,0,0,19.11-6.026Zm8.3,0a6.454,6.454,0,0,1-1.547,4.587A5.609,5.609,0,0,1,21.56.215a6.026,6.026,0,0,1-3.051-.757,5.039,5.039,0,0,1-2.03-2.175,7.31,7.31,0,0,1-.709-3.309A6.418,6.418,0,0,1,17.306-10.6a5.641,5.641,0,0,1,4.318-1.633,6.06,6.06,0,0,1,3.051.752,5.019,5.019,0,0,1,2.03,2.159A7.242,7.242,0,0,1,27.414-6.026ZM33.4,0H30.121V-16.715H33.4ZM45.214-3.566A3.307,3.307,0,0,1,43.93-.752a6.343,6.343,0,0,1-3.84.967A12.062,12.062,0,0,1,37.855.038a8.451,8.451,0,0,1-1.729-.521V-3.19a11.421,11.421,0,0,0,2.057.72,8.33,8.33,0,0,0,2.014.29q1.783,0,1.783-1.031a.861.861,0,0,0-.236-.628,3.426,3.426,0,0,0-.816-.548q-.58-.306-1.547-.714a9.717,9.717,0,0,1-2.036-1.074A3.024,3.024,0,0,1,36.4-7.31a3.741,3.741,0,0,1-.3-1.574,2.853,2.853,0,0,1,1.241-2.476,6.044,6.044,0,0,1,3.518-.875,9.986,9.986,0,0,1,4.222.945L44.1-8.927q-.9-.387-1.687-.634a5.3,5.3,0,0,0-1.6-.247q-1.45,0-1.45.784a.922.922,0,0,0,.467.763,12.708,12.708,0,0,0,2.046.956,9.507,9.507,0,0,1,2.063,1.063A3.145,3.145,0,0,1,44.9-5.1,3.5,3.5,0,0,1,45.214-3.566ZM55.4,0l-.634-1.633h-.086a4.839,4.839,0,0,1-1.7,1.445,5.5,5.5,0,0,1-2.283.4,3.691,3.691,0,0,1-2.723-.988,3.8,3.8,0,0,1-.994-2.814,3.169,3.169,0,0,1,1.337-2.82,7.75,7.75,0,0,1,4.034-1l2.084-.064V-8a1.633,1.633,0,0,0-1.869-1.826,8.518,8.518,0,0,0-3.384.87l-1.085-2.213a9.763,9.763,0,0,1,4.6-1.085A5.727,5.727,0,0,1,56.4-11.2,3.891,3.891,0,0,1,57.686-8V0Zm-.967-5.564-1.268.043a4.059,4.059,0,0,0-2.127.516,1.619,1.619,0,0,0-.7,1.439q0,1.386,1.59,1.386a2.518,2.518,0,0,0,1.821-.655,2.3,2.3,0,0,0,.682-1.74ZM76.646,0,75.507-3.738H69.781L68.643,0H65.055L70.6-15.77h4.071L80.233,0ZM74.712-6.531q-1.579-5.081-1.778-5.747t-.285-1.053q-.354,1.375-2.03,6.8Zm13.922-5.7a3.885,3.885,0,0,1,3.33,1.66,7.615,7.615,0,0,1,1.2,4.549,7.482,7.482,0,0,1-1.241,4.608A4.016,4.016,0,0,1,88.548.215a3.983,3.983,0,0,1-3.319-1.536H85L84.455,0h-2.5V-16.715h3.276v3.889q0,.741-.129,2.374h.129A3.79,3.79,0,0,1,88.634-12.235ZM87.581-9.614a2.069,2.069,0,0,0-1.772.747,4.287,4.287,0,0,0-.58,2.465v.354A5.06,5.06,0,0,0,85.8-3.276a2.051,2.051,0,0,0,1.821.838,1.827,1.827,0,0,0,1.606-.929,5.03,5.03,0,0,0,.6-2.7,4.765,4.765,0,0,0-.6-2.659A1.886,1.886,0,0,0,87.581-9.614Zm8.153-5.5q0-1.6,1.783-1.6t1.783,1.6a1.56,1.56,0,0,1-.446,1.187,1.874,1.874,0,0,1-1.337.424Q95.734-13.5,95.734-15.114ZM99.15,0H95.874V-12.01H99.15Zm8.411-9.9a2.078,2.078,0,0,0-1.633.661,3.058,3.058,0,0,0-.677,1.875h4.6a2.731,2.731,0,0,0-.634-1.875A2.146,2.146,0,0,0,107.562-9.9ZM108.023.215a6.2,6.2,0,0,1-4.533-1.6,6.06,6.06,0,0,1-1.633-4.533,6.666,6.666,0,0,1,1.509-4.667,5.374,5.374,0,0,1,4.173-1.649,5.29,5.29,0,0,1,3.964,1.45,5.486,5.486,0,0,1,1.418,4.007v1.59h-7.745A3.154,3.154,0,0,0,106-3.008a2.91,2.91,0,0,0,2.17.784,9.008,9.008,0,0,0,2.052-.226,10.266,10.266,0,0,0,2.02-.72V-.634a7.693,7.693,0,0,1-1.837.639A11.582,11.582,0,0,1,108.023.215Zm14.266-12.45a5.284,5.284,0,0,1,1.106.1l-.247,3.072a3.753,3.753,0,0,0-.967-.107,3.474,3.474,0,0,0-2.444.806,2.912,2.912,0,0,0-.875,2.256V0h-3.276V-12.01h2.481l.483,2.02h.161a4.515,4.515,0,0,1,1.509-1.627A3.722,3.722,0,0,1,122.289-12.235Zm8.347,9.84a7.1,7.1,0,0,0,2.063-.376V-.333a7.354,7.354,0,0,1-3.008.548,3.681,3.681,0,0,1-2.863-.994,4.325,4.325,0,0,1-.9-2.981V-9.55h-1.568v-1.386l1.8-1.1.945-2.535h2.095v2.557h3.362v2.46h-3.362v5.79a1.279,1.279,0,0,0,.392,1.031A1.547,1.547,0,0,0,130.636-2.4ZM142.753,0l-.634-1.633h-.086a4.839,4.839,0,0,1-1.7,1.445,5.5,5.5,0,0,1-2.283.4,3.691,3.691,0,0,1-2.723-.988,3.8,3.8,0,0,1-.994-2.814,3.169,3.169,0,0,1,1.337-2.82,7.749,7.749,0,0,1,4.034-1l2.084-.064V-8a1.633,1.633,0,0,0-1.869-1.826,8.518,8.518,0,0,0-3.384.87l-1.085-2.213a9.763,9.763,0,0,1,4.6-1.085,5.727,5.727,0,0,1,3.706,1.053A3.891,3.891,0,0,1,145.041-8V0Zm-.967-5.564-1.268.043a4.059,4.059,0,0,0-2.127.516,1.619,1.619,0,0,0-.7,1.439q0,1.386,1.59,1.386a2.518,2.518,0,0,0,1.821-.655,2.3,2.3,0,0,0,.682-1.74Z" transform="translate(319 2584)" fill="#fff"/>
    <path id="Trazado_2474" data-name="Trazado 2474" d="M1.977-15.705H6.864a9.419,9.419,0,0,1,4.85.951,3.309,3.309,0,0,1,1.509,3.024,3.81,3.81,0,0,1-.661,2.31,2.639,2.639,0,0,1-1.756,1.085v.107A3.46,3.46,0,0,1,12.96-6.982a4.054,4.054,0,0,1,.661,2.428A4,4,0,0,1,12.069-1.2,6.713,6.713,0,0,1,7.853,0H1.977Zm3.33,6.22H7.24A3.535,3.535,0,0,0,9.2-9.9a1.563,1.563,0,0,0,.607-1.386,1.387,1.387,0,0,0-.661-1.294,4.246,4.246,0,0,0-2.089-.392H5.307Zm0,2.643V-2.75h2.17a3.219,3.219,0,0,0,2.03-.526,1.943,1.943,0,0,0,.655-1.611q0-1.955-2.793-1.955Zm13.8.816a5.041,5.041,0,0,0,.585,2.7,2.094,2.094,0,0,0,1.907.913,2.06,2.06,0,0,0,1.885-.908,5.113,5.113,0,0,0,.575-2.7,4.961,4.961,0,0,0-.58-2.675,2.1,2.1,0,0,0-1.9-.892,2.091,2.091,0,0,0-1.891.886A4.956,4.956,0,0,0,19.11-6.026Zm8.3,0a6.454,6.454,0,0,1-1.547,4.587A5.609,5.609,0,0,1,21.56.215a6.026,6.026,0,0,1-3.051-.757,5.039,5.039,0,0,1-2.03-2.175,7.31,7.31,0,0,1-.709-3.309A6.418,6.418,0,0,1,17.306-10.6a5.641,5.641,0,0,1,4.318-1.633,6.06,6.06,0,0,1,3.051.752,5.019,5.019,0,0,1,2.03,2.159A7.242,7.242,0,0,1,27.414-6.026ZM33.4,0H30.121V-16.715H33.4ZM45.214-3.566A3.307,3.307,0,0,1,43.93-.752a6.343,6.343,0,0,1-3.84.967A12.062,12.062,0,0,1,37.855.038a8.451,8.451,0,0,1-1.729-.521V-3.19a11.421,11.421,0,0,0,2.057.72,8.33,8.33,0,0,0,2.014.29q1.783,0,1.783-1.031a.861.861,0,0,0-.236-.628,3.426,3.426,0,0,0-.816-.548q-.58-.306-1.547-.714a9.717,9.717,0,0,1-2.036-1.074A3.024,3.024,0,0,1,36.4-7.31a3.741,3.741,0,0,1-.3-1.574,2.853,2.853,0,0,1,1.241-2.476,6.044,6.044,0,0,1,3.518-.875,9.986,9.986,0,0,1,4.222.945L44.1-8.927q-.9-.387-1.687-.634a5.3,5.3,0,0,0-1.6-.247q-1.45,0-1.45.784a.922.922,0,0,0,.467.763,12.708,12.708,0,0,0,2.046.956,9.507,9.507,0,0,1,2.063,1.063A3.145,3.145,0,0,1,44.9-5.1,3.5,3.5,0,0,1,45.214-3.566ZM55.4,0l-.634-1.633h-.086a4.839,4.839,0,0,1-1.7,1.445,5.5,5.5,0,0,1-2.283.4,3.691,3.691,0,0,1-2.723-.988,3.8,3.8,0,0,1-.994-2.814,3.169,3.169,0,0,1,1.337-2.82,7.75,7.75,0,0,1,4.034-1l2.084-.064V-8a1.633,1.633,0,0,0-1.869-1.826,8.518,8.518,0,0,0-3.384.87l-1.085-2.213a9.763,9.763,0,0,1,4.6-1.085A5.727,5.727,0,0,1,56.4-11.2,3.891,3.891,0,0,1,57.686-8V0Zm-.967-5.564-1.268.043a4.059,4.059,0,0,0-2.127.516,1.619,1.619,0,0,0-.7,1.439q0,1.386,1.59,1.386a2.518,2.518,0,0,0,1.821-.655,2.3,2.3,0,0,0,.682-1.74ZM74.143,0H70.823V-9.088l.032-1.493.054-1.633q-.827.827-1.149,1.085l-1.8,1.45-1.6-2,5.06-4.028h2.729ZM91.975-13.159a3.393,3.393,0,0,0-2.911,1.413A6.572,6.572,0,0,0,88.032-7.81q0,5.253,3.942,5.253a12.462,12.462,0,0,0,4.007-.827V-.591a11.127,11.127,0,0,1-4.318.806,6.586,6.586,0,0,1-5.242-2.079,8.8,8.8,0,0,1-1.815-5.967,9.744,9.744,0,0,1,.892-4.292,6.444,6.444,0,0,1,2.562-2.825,7.579,7.579,0,0,1,3.916-.983,10.568,10.568,0,0,1,4.6,1.106L95.5-12.117a17.782,17.782,0,0,0-1.772-.73A5.288,5.288,0,0,0,91.975-13.159ZM104.038-9.9a2.078,2.078,0,0,0-1.633.661,3.058,3.058,0,0,0-.677,1.875h4.6a2.731,2.731,0,0,0-.634-1.875A2.146,2.146,0,0,0,104.038-9.9ZM104.5.215a6.2,6.2,0,0,1-4.533-1.6,6.06,6.06,0,0,1-1.633-4.533,6.666,6.666,0,0,1,1.509-4.667,5.374,5.374,0,0,1,4.173-1.649,5.29,5.29,0,0,1,3.964,1.45A5.486,5.486,0,0,1,109.4-6.778v1.59h-7.745a3.154,3.154,0,0,0,.827,2.181,2.91,2.91,0,0,0,2.17.784,9.008,9.008,0,0,0,2.052-.226,10.266,10.266,0,0,0,2.02-.72V-.634a7.693,7.693,0,0,1-1.837.639A11.582,11.582,0,0,1,104.5.215Zm14.266-12.45a5.284,5.284,0,0,1,1.106.1l-.247,3.072a3.753,3.753,0,0,0-.967-.107,3.474,3.474,0,0,0-2.444.806,2.912,2.912,0,0,0-.875,2.256V0h-3.276V-12.01h2.481l.483,2.02h.161a4.515,4.515,0,0,1,1.509-1.627A3.722,3.722,0,0,1,118.766-12.235Zm9.99,0a5.284,5.284,0,0,1,1.106.1l-.247,3.072a3.753,3.753,0,0,0-.967-.107,3.474,3.474,0,0,0-2.444.806,2.912,2.912,0,0,0-.875,2.256V0h-3.276V-12.01h2.481l.483,2.02h.161a4.515,4.515,0,0,1,1.509-1.627A3.722,3.722,0,0,1,128.756-12.235ZM139.67,0l-.634-1.633h-.086a4.839,4.839,0,0,1-1.7,1.445,5.5,5.5,0,0,1-2.283.4,3.691,3.691,0,0,1-2.723-.988,3.8,3.8,0,0,1-.994-2.814,3.169,3.169,0,0,1,1.337-2.82,7.749,7.749,0,0,1,4.034-1l2.084-.064V-8a1.633,1.633,0,0,0-1.869-1.826,8.518,8.518,0,0,0-3.384.87l-1.085-2.213a9.763,9.763,0,0,1,4.6-1.085,5.727,5.727,0,0,1,3.706,1.053A3.891,3.891,0,0,1,141.958-8V0ZM138.7-5.564l-1.268.043a4.059,4.059,0,0,0-2.127.516,1.619,1.619,0,0,0-.7,1.439q0,1.386,1.59,1.386a2.518,2.518,0,0,0,1.821-.655,2.3,2.3,0,0,0,.682-1.74ZM149.134.215a3.9,3.9,0,0,1-3.325-1.644A7.556,7.556,0,0,1,144.6-5.983a7.563,7.563,0,0,1,1.23-4.6,4,4,0,0,1,3.389-1.649,3.918,3.918,0,0,1,3.459,1.762h.107a13.394,13.394,0,0,1-.247-2.4v-3.846h3.287V0h-2.514l-.634-1.558h-.14A3.749,3.749,0,0,1,149.134.215Zm1.149-2.61a2.22,2.22,0,0,0,1.842-.73,4.249,4.249,0,0,0,.639-2.481v-.354a4.911,4.911,0,0,0-.6-2.771,2.214,2.214,0,0,0-1.939-.838,1.923,1.923,0,0,0-1.7.929,4.958,4.958,0,0,0-.607,2.7,4.7,4.7,0,0,0,.612,2.659A2,2,0,0,0,150.283-2.4ZM166.88,0l-.634-1.633h-.086a4.839,4.839,0,0,1-1.7,1.445,5.5,5.5,0,0,1-2.283.4,3.691,3.691,0,0,1-2.723-.988,3.8,3.8,0,0,1-.994-2.814,3.169,3.169,0,0,1,1.337-2.82,7.749,7.749,0,0,1,4.034-1l2.084-.064V-8a1.633,1.633,0,0,0-1.869-1.826,8.518,8.518,0,0,0-3.384.87l-1.085-2.213a9.763,9.763,0,0,1,4.6-1.085,5.727,5.727,0,0,1,3.706,1.053A3.891,3.891,0,0,1,169.168-8V0Zm-.967-5.564-1.268.043a4.059,4.059,0,0,0-2.127.516,1.619,1.619,0,0,0-.7,1.439q0,1.386,1.59,1.386a2.518,2.518,0,0,0,1.821-.655,2.3,2.3,0,0,0,.682-1.74Z" transform="translate(653 2584)" fill="#fff"/>
    <g id="Grupo_3592" data-name="Grupo 3592" transform="translate(540.009 1661.124) rotate(90)">
      <path id="Trazado_2336" data-name="Trazado 2336" d="M962.124,412.727l-1.325-.441c.028-.085.1-.265.212-.531,4.848-11.678,5.159-22.829.873-31.4-7.775-15.55-8.73-26.361-7.751-38.764l1.392.11c-.96,12.164-.023,22.769,7.608,38.03,4.469,8.938,4.174,20.5-.832,32.559-.091.219-.154.366-.177.436" transform="translate(-11.122 -189.281)" fill="#fff"/>
      <path id="Trazado_2337" data-name="Trazado 2337" d="M946.288,271.076c.437,1.047-.32,1.862,1.716,3.461s3.782,1.076,4.305.64,2.618-4.189,1.92-4.276-7.941.175-7.941.175" transform="translate(-5.81 -139.392)" fill="#353535"/>
      <path id="Trazado_2338" data-name="Trazado 2338" d="M944.955,81.245s.447-.263,1.2-.757,1.818-1.228,3.095-2.111c.638-.442,1.328-.925,2.07-1.417s1.524-1.018,2.362-1.517a23.969,23.969,0,0,1,2.665-1.429,9.99,9.99,0,0,1,1.5-.538,5.163,5.163,0,0,1,.829-.143,2.778,2.778,0,0,1,.446,0l.114.007.029,0h.014l.048.008.047.01.186.039.371.084c.126.034.261.083.39.125.258.089.533.17.764.27.484.19.962.385,1.424.6.935.4,1.822.868,2.685,1.3s1.68.89,2.454,1.321,1.5.85,2.166,1.247c2.667,1.573,4.374,2.761,4.374,2.761l-1.282-.59-3.359-1.589-4.735-2.243c-.866-.405-1.769-.8-2.682-1.2-.457-.2-.919-.384-1.384-.559-.237-.1-.451-.155-.675-.231-.112-.035-.217-.077-.336-.107l-.372-.08-.185-.042-.047-.01c-.036-.006.036.005.025,0h-.028l-.075-.005a1.821,1.821,0,0,0-.311,0,4.126,4.126,0,0,0-.665.106,8.962,8.962,0,0,0-1.356.47,29.065,29.065,0,0,0-2.606,1.291c-1.673.923-3.217,1.858-4.564,2.617s-2.486,1.369-3.3,1.752c-.406.194-.735.328-.956.42l-.341.138" transform="translate(-4.87)" fill="#ced8db"/>
      <path id="Trazado_2339" data-name="Trazado 2339" d="M971.167,98.175c-.748-.935-5.238.935-17.212.561s-15.958-1.309-15.9.187c.083,2.23.056,11.716.032,21.793-.008,3.547-.016,7.166-.019,10.568,0,3.6,0,6.964.016,9.736.022,4.019.068,6.8.158,7.292.1.539,1.825.821,4.383.96,7.216.4,21.056-.342,23.68.349a4.828,4.828,0,0,0,2.79.173c1.21-.471,1.441-2.183.952-5.973-.348-2.7.033-12.561.464-22.434.5-11.351,1.059-22.714.659-23.214" transform="translate(0 -17.349)" fill="#ced8db"/>
      <path id="Trazado_2340" data-name="Trazado 2340" d="M972.149,174.859a10.91,10.91,0,0,0-2.463-1.091,7.607,7.607,0,0,0-4.428.029c-6.969,1.951-14.826,4.562-21.265,1.625a13.244,13.244,0,0,1-2.092-1.19c-.008,3.309-.015,6.685-.017,9.859,0,3.362,0,6.5.014,9.083.02,3.749.064,6.345.147,6.8.091.5,1.7.766,4.089.9,6.732.369,19.643-.319,22.091.326a4.5,4.5,0,0,0,2.6.162c1.129-.439,1.344-2.036.888-5.572-.324-2.517.031-11.719.433-20.929" transform="translate(-2.703 -70.649)" fill="#3acce6"/>
      <path id="Trazado_2341" data-name="Trazado 2341" d="M972.734,104.085c-.7-.873-4.887.873-16.057.524s-14.887-1.221-14.835.175c.077,2.08.052,10.93.03,20.332a13.3,13.3,0,0,0,2.092,1.19c.5-1.487,1.066-2.962,1.717-4.418-.652,1.456-1.219,2.931-1.717,4.418,6.439,2.936,14.3.326,21.265-1.625a7.563,7.563,0,0,1,4.414-.029c-.082-.924-.252-1.846-.252-2.763v0c0,.917.17,1.839.252,2.763a10.967,10.967,0,0,1,2.47,1.091c.463-10.589.994-21.19.621-21.657" transform="translate(-2.673 -21.531)" fill="#d9e7ed"/>
      <path id="Trazado_2342" data-name="Trazado 2342" d="M947.727,117.068h6.632a1.335,1.335,0,1,0,0-2.65h-6.632a1.335,1.335,0,1,0,0,2.65" transform="translate(-5.766 -28.996)" fill="#c62e2e"/>
      <path id="Trazado_2343" data-name="Trazado 2343" d="M954.36,173.418h-6.633a1.472,1.472,0,1,0,0,2.944h6.633a1.473,1.473,0,1,0,0-2.944" transform="translate(-5.766 -70.624)" fill="#c62e2e"/>
      <path id="Trazado_2344" data-name="Trazado 2344" d="M954.36,238.418h-6.633a1.624,1.624,0,0,0,0,3.239h6.633a1.624,1.624,0,0,0,0-3.239" transform="translate(-5.766 -116.485)" fill="#c62e2e"/>
      <path id="Trazado_2345" data-name="Trazado 2345" d="M949.114,209.89h3.021a.828.828,0,0,0,.71-.8.638.638,0,0,0-.2-.485.68.68,0,0,0-.5-.188H949.1a.642.642,0,0,0-.5.125.9.9,0,0,0-.2.591.785.785,0,0,0,.71.756" transform="translate(-7.303 -95.318)" fill="#c62e2e"/>
      <path id="Trazado_2346" data-name="Trazado 2346" d="M952.65,144.744c-.13-.135-.313-.327-.5-.327H949.1c-.188,0-.371.192-.5.327a.65.65,0,0,0-.2.49.694.694,0,0,0,.71.656h3.021a.694.694,0,0,0,.71-.655.65.65,0,0,0-.2-.49" transform="translate(-7.303 -50.162)" fill="#c62e2e"/>
      <path id="Trazado_2347" data-name="Trazado 2347" d="M952.65,130.74c-.13-.135-.313-.323-.5-.323H949.1c-.188,0-.371.188-.5.323a.655.655,0,0,0-.2.492.7.7,0,0,0,.71.658h3.021a.7.7,0,0,0,.71-.658.654.654,0,0,0-.2-.492" transform="translate(-7.303 -40.284)" fill="#c62e2e"/>
      <path id="Trazado_2348" data-name="Trazado 2348" d="M949.1,159.418a.674.674,0,0,0-.5.184.815.815,0,0,0-.2.561.757.757,0,0,0,.71.727h3.021a.771.771,0,0,0,.711-.742.706.706,0,0,0-.7-.731Z" transform="translate(-7.303 -60.746)" fill="#c62e2e"/>
      <path id="Trazado_2349" data-name="Trazado 2349" d="M949.114,194.876h3.021c.379,0,.7-.459.71-.831a.6.6,0,0,0-.2-.469.667.667,0,0,0-.5-.172H949.1c-.188,0-.371-.041-.5.094a.939.939,0,0,0-.2.606.8.8,0,0,0,.71.772" transform="translate(-7.303 -84.721)" fill="#c62e2e"/>
      <path id="Trazado_2350" data-name="Trazado 2350" d="M949.114,225.89h3.021a.739.739,0,0,0,.514-1.24.721.721,0,0,0-.5-.232H949.1a.7.7,0,0,0-.5.213.783.783,0,0,0-.2.546.743.743,0,0,0,.71.712" transform="translate(-7.303 -106.607)" fill="#c62e2e"/>
      <path id="Trazado_2351" data-name="Trazado 2351" d="M1002.1,78.343c-.666-.4-1.391-.818-2.166-1.246s-1.593-.883-2.454-1.321-1.75-.9-2.685-1.3c-.462-.211-.939-.407-1.423-.6-.232-.1-.507-.182-.765-.271-.13-.041-.264-.091-.39-.124l-.371-.084-.186-.04-.047-.01-.049-.008h-.014l-.029,0-.114-.007a2.712,2.712,0,0,0-.446,0c-.085.006-.165.021-.247.032.093.36.174.725.246,1.093.023,0,.047-.007.069-.008a1.826,1.826,0,0,1,.311,0l.075,0h.019l.031.007.185.042.372.08c.119.03.224.072.337.107.223.077.437.133.674.231.465.175.928.357,1.384.559.913.395,1.816.792,2.682,1.2l4.735,2.243,3.359,1.589,1.282.59s-1.707-1.187-4.374-2.761" transform="translate(-37.157 0)" fill="#ced8db"/>
      <g id="Grupo_3558" data-name="Grupo 3558" transform="translate(951.784 83.799)">
        <g id="Grupo_3557" data-name="Grupo 3557" transform="translate(0 0)" clip-path="url(#clip-path)">
          <path id="Trazado_2352" data-name="Trazado 2352" d="M984.686,109.363c6.082,1.8,16.388-.816,16.864-.415,2.624,2.214-.414,21.318-.968,27.316s.553,17.657-.553,18.255-7.539-16.819-7.539-16.819,5.88-.138,6.571-13.27.138-9.953.138-9.953Z" transform="translate(-984.686 -108.906)" fill="#fff"/>
        </g>
      </g>
      <path id="Trazado_2353" data-name="Trazado 2353" d="M953.09,301.1h-4.24a1.08,1.08,0,0,1-1.08-1.08V284.373a1.08,1.08,0,0,1,1.08-1.08h4.24a1.08,1.08,0,0,1,1.08,1.08v15.643a1.08,1.08,0,0,1-1.08,1.08" transform="translate(-6.856 -148.147)" fill="#f2f2f2"/>
    </g>
    <g id="Grupo_3570" data-name="Grupo 3570" transform="translate(-202 49.679)" opacity="0.758">
      <path id="Trazado_2381-2" data-name="Trazado 2381" d="M2549.939,998.185c4.3-5.383-1.387,8.176-.645,7.49-.163,3.946-.836,9.661-3.074,12.052-2.764,2.951-6.948,4.6-12.333,5.724a717.332,717.332,0,0,1-108.1,4.215,8.281,8.281,0,0,1-4.35-2.114,4.153,4.153,0,0,1-3.3,2.646c-30.35-.584-60.588-.86-91.437-2.82A4.18,4.18,0,0,1,2324.5,1023c-.533.974-.717,2.178-2.224,2.515,0,0-22.793-1.659-29.543-2.952s-9.771-4.38-9.771-4.38a22.286,22.286,0,0,1-9.387-6.089c-1.363-10.861-1.427-19.642-.45-24.959,1.337-7.276,6.559-6.464,8.044-3.144,1.359,3.037,5.066,9.521,11.564,11.718,7.255,2.452,26.913.273,28,0a86.989,86.989,0,0,0,11.593.055c12.307-.763,25.685-2.87,36.27-1.47,16.712-4.241,35.656-14.584,50.035-12.446,1.044.214,6.148-1.6,7.263-1.783.618-2.289,49.828.823,52.126,3.984,3,.559,11.131,1.808,13.286-.487a33.77,33.77,0,0,1,16.2-8.957c4.258-1.054,8.832-.615,13.445.03,6.106.852,12.257,2.66,17.621,7.719C2541.65,985.264,2545.051,989.24,2549.939,998.185Z" transform="translate(-1815.92 1566.054)" fill="#fff" opacity="0.733"/>
    </g>
  </g>
</svg>
