<svg xmlns="http://www.w3.org/2000/svg" width="920" height="258" viewBox="0 0 920 258">
  <g id="Grupo_3615" data-name="Grupo 3615" transform="translate(-112 -3908)">
    <rect id="Rectángulo_993" data-name="Rectángulo 993" width="920" height="258" transform="translate(112 3908)" fill="#3caea4"/>
    <path id="Trazado_2447" data-name="Trazado 2447" d="M387.688-55.521V141h-509.12Z" transform="translate(644.313 4023)" fill="#dedede" opacity="0.251"/>
    <g id="Grupo_3599" data-name="Grupo 3599" transform="translate(-29.611 2808.351)" opacity="0.84">
      <path id="Trazado_2449" data-name="Trazado 2449" d="M344.557,1228.674H506.7a12.168,12.168,0,0,1,10.977,6.655h0c10.631,15.211,21.175,30.509,31.719,45.72q20.483,5.7,40.881,11.582c7.346,2.506,10.976,6.741,11.063,12.446v33.1a8.1,8.1,0,0,1-8.124,8.038H344.557a12.338,12.338,0,0,1-12.273-12.359v-92.91a12.32,12.32,0,0,1,12.273-12.273Z" fill="#fff" fill-rule="evenodd"/>
      <path id="Trazado_2450" data-name="Trazado 2450" d="M343.952,1346.216a12.4,12.4,0,0,1-11.668-12.359v-92.91a12.322,12.322,0,0,1,11.668-12.273Z" fill="#ebebeb" fill-rule="evenodd"/>
      <g id="Grupo_3597" data-name="Grupo 3597" transform="translate(423.552 1242.07)">
        <path id="Trazado_2451" data-name="Trazado 2451" d="M1498.033,1403.324v26.966a3.579,3.579,0,0,0,3.63,3.543h55.228V1399.78h-55.228A3.579,3.579,0,0,0,1498.033,1403.324Z" transform="translate(-1498.033 -1399.78)" fill="#62b19e"/>
        <path id="Trazado_2452" data-name="Trazado 2452" d="M2367.072,1399.78h-33.361v34.053h57.042Z" transform="translate(-2268.285 -1399.78)" fill="#62b19e"/>
      </g>
      <g id="Grupo_3598" data-name="Grupo 3598" transform="translate(423.552 1269.295)">
        <path id="Trazado_2453" data-name="Trazado 2453" d="M1498.033,1750.8a3.579,3.579,0,0,0,3.63,3.544h55.228v-6.828h-58.857Z" transform="translate(-1498.033 -1747.519)" fill="#54a08e"/>
        <path id="Trazado_2454" data-name="Trazado 2454" d="M2386,1747.519h-52.289v6.828h57.042Z" transform="translate(-2268.285 -1747.519)" fill="#54a08e"/>
      </g>
      <path id="Trazado_2455" data-name="Trazado 2455" d="M3513.815,2012.466l8.9,2.593c7.346,2.506,10.976,6.741,11.063,12.446v3.284h-10.371a9.628,9.628,0,0,1-9.594-9.594Z" transform="translate(-2932.446 -722.428)" fill="#555353" fill-rule="evenodd"/>
      <path id="Trazado_2456" data-name="Trazado 2456" d="M601.334,2547.87v6.223a8.1,8.1,0,0,1-8.124,8.038H344.557a12.338,12.338,0,0,1-12.273-12.359v-1.9Z" transform="translate(0 -1215.915)" fill="#818181" fill-rule="evenodd"/>
      <path id="Trazado_2457" data-name="Trazado 2457" d="M679.284,2328.554H653.529a25.712,25.712,0,1,1,51.425,0Z" transform="translate(-296.094 -990.031)" fill="#818181" fill-rule="evenodd"/>
      <path id="Trazado_2458" data-name="Trazado 2458" d="M761.7,2392.215a18.712,18.712,0,1,1-18.755,18.755,18.738,18.738,0,0,1,18.755-18.755Z" transform="translate(-378.51 -1072.446)" fill="#313130" fill-rule="evenodd"/>
      <path id="Trazado_2459" data-name="Trazado 2459" d="M863.452,2501.507a10.155,10.155,0,1,1-10.112,10.2,10.144,10.144,0,0,1,10.112-10.2Zm0,5.358a4.84,4.84,0,1,1-4.84,4.84,4.832,4.832,0,0,1,4.84-4.84Z" transform="translate(-480.262 -1173.181)" fill="#989898" fill-rule="evenodd"/>
      <path id="Trazado_2460" data-name="Trazado 2460" d="M2910.328,2328.554h-25.755a25.712,25.712,0,1,1,51.425,0Z" transform="translate(-2352.468 -990.031)" fill="#818181" fill-rule="evenodd"/>
      <path id="Trazado_2461" data-name="Trazado 2461" d="M2992.747,2392.215a18.712,18.712,0,1,1-18.755,18.755,18.738,18.738,0,0,1,18.755-18.755Z" transform="translate(-2434.886 -1072.446)" fill="#313130" fill-rule="evenodd"/>
      <path id="Trazado_2462" data-name="Trazado 2462" d="M3094.5,2501.507a10.155,10.155,0,1,1-10.112,10.2,10.144,10.144,0,0,1,10.112-10.2Zm0,5.358a4.84,4.84,0,1,1-4.84,4.84,4.832,4.832,0,0,1,4.84-4.84Z" transform="translate(-2536.635 -1173.181)" fill="#989898" fill-rule="evenodd"/>
      <path id="Trazado_2465" data-name="Trazado 2465" d="M2253.1,1909.8h0a3.283,3.283,0,0,1,3.284,3.284v37.6a3.283,3.283,0,0,1-3.284,3.284h0a3.283,3.283,0,0,1-3.284-3.284v-37.6a3.283,3.283,0,0,1,3.284-3.284Z" transform="translate(-1767.402 -627.799)" fill="#ebebeb" fill-rule="evenodd"/>
      <path id="Trazado_2466" data-name="Trazado 2466" d="M1386.6,1909.8h0a3.283,3.283,0,0,1,3.284,3.284v37.6a3.283,3.283,0,0,1-3.284,3.284h0a3.357,3.357,0,0,1-3.37-3.284v-37.6a3.357,3.357,0,0,1,3.37-3.284Z" transform="translate(-968.664 -627.799)" fill="#ebebeb" fill-rule="evenodd"/>
      <rect id="Rectángulo_994" data-name="Rectángulo 994" width="241.739" height="7.606" transform="translate(332.284 1295.569)" fill="#4b4b4b"/>
      <rect id="Rectángulo_995" data-name="Rectángulo 995" width="11.668" height="7.606" transform="translate(332.284 1295.569)" fill="#777"/>
    </g>
    <g id="Grupo_3604" data-name="Grupo 3604" transform="translate(-25 7)">
      <g id="Grupo_3603" data-name="Grupo 3603">
        <g id="Grupo_3601" data-name="Grupo 3601" transform="translate(-48 -10)" opacity="0.43">
          <g id="Rectángulo_997" data-name="Rectángulo 997" transform="translate(863 4070)" fill="#fff" stroke="#0e737b" stroke-width="4">
            <path d="M24,0h0A24,24,0,0,1,48,24V50a0,0,0,0,1,0,0H0a0,0,0,0,1,0,0V24A24,24,0,0,1,24,0Z" stroke="none"/>
            <path d="M24,2h0A22,22,0,0,1,46,24V47.353a.647.647,0,0,1-.647.647H2.647A.647.647,0,0,1,2,47.353V24A22,22,0,0,1,24,2Z" fill="none"/>
          </g>
          <g id="Rectángulo_999" data-name="Rectángulo 999" transform="translate(844 4117)" fill="#fff" stroke="#0e737b" stroke-width="4">
            <rect width="87" height="13" rx="6.5" stroke="none"/>
            <rect x="2" y="2" width="83" height="9" rx="4.5" fill="none"/>
          </g>
          <path id="Trazado_2467" data-name="Trazado 2467" d="M802.13,1471.535h5.584v6.2h6.128v5.584h-6.128v6.2H802.13v-6.2h-6.2v-5.584h6.2Z" transform="translate(82.989 2616.7)" fill="#0e737b" fill-rule="evenodd"/>
        </g>
        <g id="Grupo_3602" data-name="Grupo 3602" transform="translate(30 -10)" opacity="0.43">
          <g id="Rectángulo_997-2" data-name="Rectángulo 997" transform="translate(863 4070)" fill="#fff" stroke="#0e737b" stroke-width="4">
            <path d="M24,0h0A24,24,0,0,1,48,24V50a0,0,0,0,1,0,0H0a0,0,0,0,1,0,0V24A24,24,0,0,1,24,0Z" stroke="none"/>
            <path d="M24,2h0A22,22,0,0,1,46,24V47.353a.647.647,0,0,1-.647.647H2.647A.647.647,0,0,1,2,47.353V24A22,22,0,0,1,24,2Z" fill="none"/>
          </g>
          <g id="Rectángulo_999-2" data-name="Rectángulo 999" transform="translate(844 4117)" fill="#fff" stroke="#0e737b" stroke-width="4">
            <rect width="87" height="13" rx="6.5" stroke="none"/>
            <rect x="2" y="2" width="83" height="9" rx="4.5" fill="none"/>
          </g>
          <path id="Trazado_2467-2" data-name="Trazado 2467" d="M802.13,1471.535h5.584v6.2h6.128v5.584h-6.128v6.2H802.13v-6.2h-6.2v-5.584h6.2Z" transform="translate(82.989 2616.7)" fill="#0e737b" fill-rule="evenodd"/>
        </g>
        <g id="Grupo_3600" data-name="Grupo 3600" transform="translate(-13 -8)">
          <g id="Rectángulo_997-3" data-name="Rectángulo 997" transform="translate(865 4070)" fill="#fff" stroke="#0e737b" stroke-width="4">
            <path d="M27,0h0A27,27,0,0,1,54,27V56a0,0,0,0,1,0,0H0a0,0,0,0,1,0,0V27A27,27,0,0,1,27,0Z" stroke="none"/>
            <path d="M27,2h0A25,25,0,0,1,52,27V53.265a.735.735,0,0,1-.735.735H2.735A.735.735,0,0,1,2,53.265V27A25,25,0,0,1,27,2Z" fill="none"/>
          </g>
          <g id="Rectángulo_999-3" data-name="Rectángulo 999" transform="translate(844 4122)" fill="#fff" stroke="#0e737b" stroke-width="4">
            <rect width="97" height="15" rx="7.5" stroke="none"/>
            <rect x="2" y="2" width="93" height="11" rx="5.5" fill="none"/>
          </g>
          <path id="Trazado_2467-3" data-name="Trazado 2467" d="M802.854,1471.535h6.236v6.92h6.844v6.236H809.09v6.92h-6.236v-6.92h-6.92v-6.236h6.92Z" transform="translate(87.066 2618.83)" fill="#0e737b" fill-rule="evenodd"/>
        </g>
      </g>
    </g>
  </g>
</svg>
