<svg xmlns="http://www.w3.org/2000/svg" width="920" height="402.366" viewBox="0 0 920 402.366">
  <g id="Grupo_3617" data-name="Grupo 3617" transform="translate(-111 -4635.634)">
    <rect id="Rectángulo_1000" data-name="Rectángulo 1000" width="920" height="258" transform="translate(111 4780)" fill="#3caea4"/>
    <path id="Trazado_2469" data-name="Trazado 2469" d="M0,115.207,920,.934V141H0Z" transform="translate(111 4895)" fill="#dedede" opacity="0.251"/>
    <g id="Grupo_3180" data-name="Grupo 3180" transform="translate(418 4635.634)">
      <g id="Grupo_3179" data-name="Grupo 3179" transform="translate(0 0)">
        <g id="Grupo_3161" data-name="Grupo 3161" transform="translate(242.351 95.44)">
          <g id="Grupo_3157" data-name="Grupo 3157" transform="translate(0 77.746)">
            <path id="Trazado_1818" data-name="Trazado 1818" d="M1755.817,923.747s-.065,8,4.2,5.5,9.726-13.778,9.726-13.778Z" transform="translate(-1671.908 -891.382)" fill="#52afb6"/>
            <g id="Grupo_3156" data-name="Grupo 3156" transform="translate(0 13.749)">
              <rect id="Rectángulo_883" data-name="Rectángulo 883" width="2.687" height="98.009" transform="translate(8.453 75.301) rotate(-125.898)" fill="#efefef"/>
              <path id="Trazado_1819" data-name="Trazado 1819" d="M1984.53,1071.928l1.575,2.176-6.688,4.174-.942-1.3Z" transform="translate(-1978.475 -998.207)" fill="#6d6f72"/>
              <rect id="Rectángulo_884" data-name="Rectángulo 884" width="6.135" height="28.569" rx="3.067" transform="translate(85.418 21.721) rotate(-125.898)" fill="#135781"/>
              <rect id="Rectángulo_885" data-name="Rectángulo 885" width="4.965" height="2.134" rx="1.067" transform="translate(7.749 77.218) rotate(-125.898)" fill="#6d6f72"/>
            </g>
            <path id="Trazado_1820" data-name="Trazado 1820" d="M1742.125,856.02l8.218,8.188c-2.869,1.337-4.2,4.646-4.945,7.721s-1.27,6.4-3.381,8.758c-.972,1.086-2.742,1.877-3.814.891-1.774-1.633,1.471-5.97-.33-7.573l-16.073,11.6S1720.22,868.16,1742.125,856.02Z" transform="translate(-1638.716 -856.02)" fill="#52afb6"/>
          </g>
          <g id="Grupo_3160" data-name="Grupo 3160" transform="translate(99.813)">
            <g id="Grupo_3158" data-name="Grupo 3158">
              <path id="Trazado_1821" data-name="Trazado 1821" d="M1608.541,686.1c-2.956,11.12-10.8,20.234-18.916,28.045a255.679,255.679,0,0,1-33.58,26.766c-8.66,5.9-18.081,11.617-28.547,12.174a15.005,15.005,0,0,1-14.513-8.515c-2.6-5.024-1.68-9.891,3.114-13.222a29.3,29.3,0,0,1,7.58-3.382c5.994-2,11.113-4.855,16.77-7.625,15.759-7.714,26-21.541,27.25-22.081l31.31-34.145Z" transform="translate(-1511.565 -664.116)" fill="#edeeef"/>
            </g>
            <g id="Grupo_3159" data-name="Grupo 3159" transform="translate(4.686 70.09)">
              <path id="Trazado_1822" data-name="Trazado 1822" d="M1696.5,867s12.6.709,12.331-2.923S1696.5,867,1696.5,867Z" transform="translate(-1691.47 -852.507)" fill="#e0e1e3"/>
              <path id="Trazado_1823" data-name="Trazado 1823" d="M1706.787,856.768s11.778-4.214,10.753-6.468S1706.787,856.768,1706.787,856.768Z" transform="translate(-1704.404 -844.741)" fill="#e0e1e3"/>
              <path id="Trazado_1824" data-name="Trazado 1824" d="M1720.482,846.509s9.75-7.085,7.238-9.135S1720.482,846.509,1720.482,846.509Z" transform="translate(-1720.482 -837.123)" fill="#e0e1e3"/>
            </g>
          </g>
        </g>
        <g id="Grupo_3163" data-name="Grupo 3163" transform="translate(478.325 69.942)">
          <rect id="Rectángulo_886" data-name="Rectángulo 886" width="15.581" height="25.521" rx="5.45" transform="matrix(-0.128, -0.992, 0.992, -0.128, 6.888, 18.715)" fill="#ab2e60"/>
          <path id="Trazado_1825" data-name="Trazado 1825" d="M1290.618,629.445l29.215-3.614s9.883-1.313,10.981,10.091l10.13,81.727s-.863,6.083-7.923,6.634l-40.131,4.005Z" transform="translate(-1290.618 -615.816)" fill="#ffd400"/>
          <g id="Grupo_3162" data-name="Grupo 3162" transform="translate(10.315 13.5)">
            <circle id="Elipse_554" data-name="Elipse 554" cx="9.217" cy="9.217" r="9.217" transform="translate(13.034 26.069) rotate(-135)" fill="#52afb6"/>
            <ellipse id="Elipse_555" data-name="Elipse 555" cx="5.208" cy="5.208" rx="5.208" ry="5.208" transform="translate(8.031 18.44) rotate(-92.212)" fill="#fff"/>
          </g>
        </g>
        <path id="Trazado_1826" data-name="Trazado 1826" d="M1412.52,735.9s10.636-2.335,9.339-17.9l-4.67-83.272s1.038-19.975-25.163-10.9Z" transform="translate(-934.4 -543.307)" fill="#ab2e60"/>
        <g id="Grupo_3176" data-name="Grupo 3176" transform="translate(346.465)">
          <g id="Grupo_3175" data-name="Grupo 3175">
            <g id="Grupo_3167" data-name="Grupo 3167" transform="translate(67.576 212.086)">
              <g id="Grupo_3164" data-name="Grupo 3164" transform="translate(0 137.765)">
                <path id="Trazado_1827" data-name="Trazado 1827" d="M1470.641,1297.212c-.981,5.136-6.7,7.956-11.906,8.468s-10.549-.465-15.634.752-10.039,5.883-8.887,10.983c.679,3.007,3.335,5.254,6.236,6.3s6.051,1.09,9.134,1.124l28.26.313c3.6.04,7.625-.079,10.187-2.615,2.614-2.586,2.726-6.731,2.37-10.392s-2.993-7.638-1.337-10.921Z" transform="translate(-1434.046 -1295.138)" fill="#174043"/>
                <path id="Trazado_1828" data-name="Trazado 1828" d="M1469.121,1292.094c-.981,5.135-6.7,7.956-11.906,8.468s-10.548-.465-15.633.753-10.039,5.883-8.887,10.983c.679,3.007,3.335,5.254,6.236,6.3s6.051,1.09,9.134,1.124l28.26.313c3.605.04,7.625-.079,10.188-2.614,2.614-2.586,2.726-6.731,2.37-10.391s-.968-7.566.689-10.849Z" transform="translate(-1432.452 -1292.094)" fill="#52afb6"/>
                <path id="Trazado_1829" data-name="Trazado 1829" d="M1455.714,1300.389c4.822-.818,9.717-3.581,10.618-8.3l5.276,1.053,5.78,3.372S1463.129,1308.742,1455.714,1300.389Z" transform="translate(-1429.663 -1292.094)" fill="#1e272a"/>
                <path id="Trazado_1830" data-name="Trazado 1830" d="M1514.98,1316.307s-5.7-.208-5.452,1.059S1514.98,1316.307,1514.98,1316.307Z" transform="translate(-1489.053 -1306.49)" fill="#21a2a9"/>
                <path id="Trazado_1831" data-name="Trazado 1831" d="M1507.385,1320.959s-4.541,3.448-3.548,4.273S1507.385,1320.959,1507.385,1320.959Z" transform="translate(-1479.099 -1309.265)" fill="#21a2a9"/>
                <path id="Trazado_1832" data-name="Trazado 1832" d="M1491.555,1323.471s-1.22,5.571.071,5.554S1491.555,1323.471,1491.555,1323.471Z" transform="translate(-1458.765 -1310.759)" fill="#21a2a9"/>
                <path id="Trazado_1833" data-name="Trazado 1833" d="M1474.384,1322.016s1.238,5.566,2.4,5.008S1474.384,1322.016,1474.384,1322.016Z" transform="translate(-1436.857 -1309.894)" fill="#21a2a9"/>
                <path id="Trazado_1834" data-name="Trazado 1834" d="M1459.353,1316.911s3.164,4.744,4.048,3.8S1459.353,1316.911,1459.353,1316.911Z" transform="translate(-1417.255 -1306.857)" fill="#21a2a9"/>
              </g>
              <g id="Grupo_3166" data-name="Grupo 3166" transform="translate(14.484)">
                <path id="Trazado_1835" data-name="Trazado 1835" d="M1466.339,952.04a436.51,436.51,0,0,0-5.247,58.129c-.444,19.053,1.046,37.9,2.075,56.841.27,4.983,1.066,10,1.594,14.96.43,4.04.788,8.452-1.224,11.873-2.728,4.638-8.508,5.469-13.541,5.842a39,39,0,0,1-9.309-.054,13.851,13.851,0,0,1-8.275-4.295c-2.716-3.111-3.51-7.433-3.625-11.594-.132-4.734-.168-8.922-.7-13.655q-5.195-45.96-10.389-91.92Z" transform="translate(-1417.694 -952.04)" fill="#edeeef"/>
                <g id="Grupo_3165" data-name="Grupo 3165" transform="translate(15.487 125.607)">
                  <path id="Trazado_1836" data-name="Trazado 1836" d="M1427.375,1285.094s29.493,8.553,25.534-13.489C1452.909,1271.6,1446.844,1288.282,1427.375,1285.094Z" transform="translate(-1424.038 -1267.747)" fill="#e0e1e3"/>
                  <path id="Trazado_1837" data-name="Trazado 1837" d="M1444.3,1274.97c-4.639.452,9.475.286,13.489-2.084a18.6,18.6,0,0,0,8.34-10.8S1459.777,1273.462,1444.3,1274.97Z" transform="translate(-1443.377 -1262.082)" fill="#e0e1e3"/>
                </g>
              </g>
            </g>
            <g id="Grupo_3168" data-name="Grupo 3168" transform="translate(3.248 354.156)">
              <path id="Trazado_1838" data-name="Trazado 1838" d="M1629.425,1307.838c-.981,5.135-6.7,7.956-11.906,8.468s-10.549-.465-15.633.753-10.039,5.883-8.887,10.983c.679,3.007,3.335,5.254,6.236,6.3s6.051,1.09,9.134,1.124l28.26.313c3.6.04,7.624-.079,10.187-2.614,2.614-2.586,2.726-6.732,2.37-10.392s-2.993-7.638-1.337-10.922Z" transform="translate(-1592.83 -1305.764)" fill="#174043"/>
              <path id="Trazado_1839" data-name="Trazado 1839" d="M1627.905,1302.719c-.981,5.136-6.7,7.956-11.906,8.468s-10.548-.465-15.633.752-10.039,5.883-8.887,10.983c.679,3.007,3.335,5.254,6.236,6.3s6.052,1.09,9.134,1.124l28.26.313c3.6.04,7.625-.079,10.188-2.614,2.614-2.586,2.726-6.731,2.37-10.391s-.968-7.566.689-10.849Z" transform="translate(-1591.236 -1302.719)" fill="#52afb6"/>
              <path id="Trazado_1840" data-name="Trazado 1840" d="M1614.5,1311.015c4.822-.818,9.717-3.581,10.618-8.3l5.276,1.054,5.78,3.372S1621.913,1319.367,1614.5,1311.015Z" transform="translate(-1588.447 -1302.719)" fill="#1e272a"/>
              <path id="Trazado_1841" data-name="Trazado 1841" d="M1673.764,1326.933s-5.7-.208-5.452,1.059S1673.764,1326.933,1673.764,1326.933Z" transform="translate(-1647.837 -1317.116)" fill="#21a2a9"/>
              <path id="Trazado_1842" data-name="Trazado 1842" d="M1666.169,1331.584s-4.541,3.449-3.548,4.273S1666.169,1331.584,1666.169,1331.584Z" transform="translate(-1637.883 -1319.89)" fill="#21a2a9"/>
              <path id="Trazado_1843" data-name="Trazado 1843" d="M1650.338,1334.1s-1.219,5.57.071,5.554S1650.338,1334.1,1650.338,1334.1Z" transform="translate(-1617.549 -1321.385)" fill="#21a2a9"/>
              <path id="Trazado_1844" data-name="Trazado 1844" d="M1633.168,1332.641s1.238,5.566,2.4,5.009S1633.168,1332.641,1633.168,1332.641Z" transform="translate(-1595.641 -1320.519)" fill="#21a2a9"/>
              <path id="Trazado_1845" data-name="Trazado 1845" d="M1618.136,1327.536s3.164,4.744,4.048,3.8S1618.136,1327.536,1618.136,1327.536Z" transform="translate(-1576.039 -1317.482)" fill="#21a2a9"/>
            </g>
            <g id="Grupo_3171" data-name="Grupo 3171" transform="translate(28.113)">
              <path id="Trazado_1846" data-name="Trazado 1846" d="M1529.592,492.718l4.166-8.629.479-8.331,23.919-4.463-1.785,29.456Z" transform="translate(-1500.897 -453.973)" fill="#fdaf75"/>
              <path id="Trazado_1847" data-name="Trazado 1847" d="M1569.858,499.451c0,1.408-.824,2.549-1.84,2.549s-1.84-1.141-1.84-2.549.824-2.549,1.84-2.549S1569.858,498.043,1569.858,499.451Z" transform="translate(-1527.421 -469.205)" fill="#4e2a0e"/>
              <g id="Grupo_3169" data-name="Grupo 3169" transform="translate(27.085 38.745)">
                <rect id="Rectángulo_887" data-name="Rectángulo 887" width="3.955" height="7.612" transform="translate(5.445 12.362) rotate(168.058)" fill="#52afb6"/>
                <path id="Trazado_1848" data-name="Trazado 1848" d="M1549.415,546.868s-9.082-6.627-9.082-22.694l24.1,2.678S1566.828,545.76,1549.415,546.868Z" transform="translate(-1538.723 -524.174)" fill="#75bcc2"/>
                <path id="Trazado_1849" data-name="Trazado 1849" d="M1569.677,538.447l-18-2.874,17.582,4.142Z" transform="translate(-1548.449 -530.955)" fill="#52afb6"/>
                <path id="Trazado_1850" data-name="Trazado 1850" d="M1576.455,557.517l-10.672-7.761,9.851,8.657Z" transform="translate(-1560.943 -539.392)" fill="#52afb6"/>
              </g>
              <g id="Grupo_3170" data-name="Grupo 3170">
                <path id="Trazado_1851" data-name="Trazado 1851" d="M1413.095,751.756a308.111,308.111,0,0,1,10.123-45.671c3.739-12.339,7.081-24.511,12.069-36.349,5.357-12.715,10.391-25.582,14.457-38.774,3.749-12.165,4.052-21.942,1.207-34.1-2.983-12.742-5.386-25.74-5.1-38.88.31-14.09,4.01-28.489,12.446-39.958,6.771-9.205,8.589-18.285-3.853-23.188a17.053,17.053,0,0,1-6.66-4.864c17.385-4.921,14.423-39.654,14.423-39.654h-18.86c5.062-15.4,21.387-25.473,37.4-20.509,12.915,4,21.688,16.779,20.334,30.163-.71,7.014-3.531,13.52-5.036,20.358s-4.951,14.782-.766,20.058c10.673,13.458,13.886,26.3,14.95,40.8,1.246,16.993,3.732,33.867,4.656,50.891,1.134,20.883,3.171,48.875-10.419,66.247-14.64,18.715-29.039,37.84-39.822,59.1-8.991,17.729-16.558,36.317-15.3,56.406.308,4.937-.12,10.473-3.733,13.853-3.372,3.154-8.45,3.436-13.068,3.4-5.419-.038-11.079-.332-15.789-3.012C1405.271,781.554,1411.6,762.2,1413.095,751.756Z" transform="translate(-1410.009 -428.537)" fill="#fff"/>
                <path id="Trazado_1852" data-name="Trazado 1852" d="M1430.4,736.481a25.8,25.8,0,0,1-7.919-2.586,23.868,23.868,0,0,1-12.35-22.7,23.457,23.457,0,0,1,5.6-13c3.359-3.929,8.986-5.006,11.979-8.634,4.042-4.9,9.99-8.639,11.768-14.737,1.418-4.864-.248-10.144-2.855-14.489s-6.119-8.078-8.892-12.319c-2.848-4.354-3.873-9.429-2.6-13.892a14.046,14.046,0,0,1,6.939-8.45c4.414-2.478,9.687-2.9,14.745-2.7q1.475.058,2.954.19c6.732,10.945,9.06,21.746,9.935,33.67,1.246,16.993,3.732,33.867,4.656,50.891.327,6.021.729,12.632.809,19.41.02,1.665-8.621,4.94-9.864,5.405a70,70,0,0,1-13.594,3.857A36.1,36.1,0,0,1,1430.4,736.481Z" transform="translate(-1359.484 -544.176)" fill="#edeeef"/>
                <path id="Trazado_1853" data-name="Trazado 1853" d="M1452.349,710.852s-48.771-5.82-48.062-74.094c0,0-1.182-28.585,18.9-27.64,0,0,12.387-.293,13.4,9.067,0,0-7.493-6.7-16-2.689,0,0-17.2,1.9-5.387,48.675,0,0,11.487,38.859,37.149,36.285Z" transform="translate(-1344.32 -535.946)" fill="#ffd400"/>
                <path id="Trazado_1854" data-name="Trazado 1854" d="M1580.276,1291.76s30.8,8.931,26.662-14.085C1606.938,1277.675,1600.6,1295.089,1580.276,1291.76Z" transform="translate(-1570.594 -933.665)" fill="#edeeef"/>
                <path id="Trazado_1855" data-name="Trazado 1855" d="M1597.951,1281.189c-4.844.472,9.894.3,14.085-2.176a19.424,19.424,0,0,0,8.708-11.282S1614.109,1279.614,1597.951,1281.189Z" transform="translate(-1590.788 -927.75)" fill="#edeeef"/>
              </g>
              <path id="Trazado_1856" data-name="Trazado 1856" d="M1560.649,509.126c.088,0,.175,0,.264-.006a6.721,6.721,0,0,0,5.451-3.866,15.14,15.14,0,0,0,1.351-6.169,57.829,57.829,0,0,0-.723-12.815l-2,.339a55.815,55.815,0,0,1,.7,12.365,13.364,13.364,0,0,1-1.131,5.353,4.77,4.77,0,0,1-3.741,2.767c-2.325.13-4.222-2.085-5.776-4.246-1.832-2.546-4.059-5.27-7.3-5.367l-.06,2.027c2.316.07,4.091,2.274,5.712,4.525C1555.11,506.418,1557.474,509.126,1560.649,509.126Z" transform="translate(-1517.873 -462.882)" fill="#fff"/>
              <path id="Trazado_1857" data-name="Trazado 1857" d="M1513.123,476.095h-67.8V465.226h64.511S1512.94,472.069,1513.123,476.095Z" transform="translate(-1421.724 -450.362)" fill="#ffd400"/>
              <path id="Trazado_1858" data-name="Trazado 1858" d="M1558.8,531.364h21.827V483.781h-1.014V530.35h-19.8v-45.1H1558.8Z" transform="translate(-1535.206 -461.4)" fill="#ffd400"/>
            </g>
            <g id="Grupo_3172" data-name="Grupo 3172" transform="translate(0 96.277)">
              <path id="Trazado_1859" data-name="Trazado 1859" d="M1478.193,901.956s-19,8.823-66.2,7.625l-2.444,7.717s40.087,2.961,67.777-6.271Z" transform="translate(-1344.189 -806.437)" fill="#ffd400"/>
              <path id="Trazado_1860" data-name="Trazado 1860" d="M1386.768,831.785a33.309,33.309,0,0,0,13.178-2.856c15.743-6.851,28.111-25.4,21.557-44.569-2.475-7.242-6.1-12.476-10.781-15.555-3.323-2.186-7.643-3.308-12.218-4.5-8.2-2.128-15.937-4.137-17.237-12.012-.737-4.466.185-7.619,2.82-9.641,9.33-7.153,38.4,1.206,48.387,5.739,1.875.851,3.763,1.791,5.589,2.7,8.833,4.4,17.966,8.95,29.1,5.2,9.065-3.053,16.27-11.594,19.272-22.847,6.313-23.664-3.153-46.621-12.52-66.282a1.73,1.73,0,1,0-3.123,1.488c9.1,19.1,18.312,41.373,12.3,63.9-2.662,9.978-9.189,17.818-17.034,20.461-9.773,3.29-17.876-.745-26.455-5.018-1.853-.924-3.77-1.879-5.7-2.754-6.085-2.761-39.587-14.791-51.922-5.334-3.69,2.83-5.08,7.187-4.128,12.949,1.667,10.094,11.29,12.592,19.781,14.8,4.29,1.114,8.341,2.165,11.186,4.037,4.022,2.647,7.188,7.285,9.409,13.784,5.908,17.284-5.359,34.053-19.664,40.278-10.693,4.655-25.131,4-33.584-11.784-4.147-7.745-3.759-15.813-3.349-24.356.382-7.951.777-16.174-2.81-24.059a29.756,29.756,0,0,0-40.922-13.937,1.73,1.73,0,1,0,1.611,3.062,26.294,26.294,0,0,1,36.163,12.307c3.239,7.123,2.882,14.574,2.5,22.462-.415,8.636-.844,17.566,3.755,26.154C1368.291,827.484,1377.65,831.785,1386.768,831.785Z" transform="translate(-1316.974 -666.182)" fill="#2e4e5c"/>
            </g>
            <g id="Grupo_3174" data-name="Grupo 3174" transform="translate(69.319 77.862)">
              <path id="Trazado_1861" data-name="Trazado 1861" d="M1524.931,868.181A41.009,41.009,0,0,1,1505.2,890.2c-1.786.946-4,1.8-6.327.965a6.445,6.445,0,0,1-4.024-4.829,8.779,8.779,0,0,1,1.143-5.23,38.7,38.7,0,0,1,8.3-11.282c-1.96-1.948-5.736.235-7.728-1.692-1.2-1.164-.471-2.729.663-3.491,2.463-1.656,6.152-1.66,9.541-1.917s6.99-1.029,8.238-3.556Z" transform="translate(-1494.772 -762.568)" fill="#52afb6"/>
              <path id="Trazado_1862" data-name="Trazado 1862" d="M1380.423,621.562c6.231,1.817,11.206,6.554,15.6,11.422,6.6,7.309,12.485,15.258,18.357,23.191,4.178,5.645,8.557,11.9,8.331,18.981-.257,8.023-6.3,14.443-11.956,20.01l-23.271,22.912c-3.77,3.712-7.611,7.477-12.264,9.928s-10.317,3.444-15.144,1.377c-5.471-2.342-12.055-11.884-9.465-18.053,1.065-2.535,3.083-4.5,5.049-6.391,5.039-4.845,9.742-10.419,15.462-14.313,5.794-3.944,11.463-9.447,12.035-16.541.512-6.363-3.261-12.277-7.622-16.846s-9.513-8.442-12.979-13.752C1353.594,629.754,1365.982,617.352,1380.423,621.562Z" transform="translate(-1333.925 -620.728)" fill="#fff"/>
              <g id="Grupo_3173" data-name="Grupo 3173" transform="translate(20.865 89.307)">
                <path id="Trazado_1863" data-name="Trazado 1863" d="M1473.8,871.783s12.908.727,12.633-2.995S1473.8,871.783,1473.8,871.783Z" transform="translate(-1468.642 -856.931)" fill="#edeeef"/>
                <path id="Trazado_1864" data-name="Trazado 1864" d="M1484.334,861.3s12.067-4.318,11.017-6.626S1484.334,861.3,1484.334,861.3Z" transform="translate(-1481.893 -848.975)" fill="#edeeef"/>
                <path id="Trazado_1865" data-name="Trazado 1865" d="M1498.365,850.786s9.988-7.259,7.415-9.359S1498.365,850.786,1498.365,850.786Z" transform="translate(-1498.365 -841.17)" fill="#edeeef"/>
              </g>
            </g>
          </g>
        </g>
        <g id="Grupo_3178" data-name="Grupo 3178" transform="translate(0 267.705)">
          <g id="Grupo_3177" data-name="Grupo 3177" transform="translate(0 99.297)">
            <ellipse id="Elipse_556" data-name="Elipse 556" cx="116.29" cy="9.893" rx="116.29" ry="9.893" fill="#d5e8f7"/>
          </g>
          <path id="Trazado_1866" data-name="Trazado 1866" d="M1999.23,1200.5a.371.371,0,0,0,.351-.25l.645-1.872a.371.371,0,1,0-.7-.242l-.645,1.872a.371.371,0,0,0,.351.492Zm1.29-3.744a.371.371,0,0,0,.351-.25l.645-1.871a.371.371,0,0,0-.7-.241l-.644,1.871a.371.371,0,0,0,.23.472A.361.361,0,0,0,2000.52,1196.756Zm1.29-3.743a.371.371,0,0,0,.351-.25l.644-1.872a.371.371,0,1,0-.7-.241l-.645,1.872a.371.371,0,0,0,.23.472A.366.366,0,0,0,2001.81,1193.013Zm1.29-3.743a.371.371,0,0,0,.351-.25l.645-1.872a.371.371,0,0,0-.7-.242l-.645,1.872a.371.371,0,0,0,.23.472A.359.359,0,0,0,2003.1,1189.27Zm1.289-3.743a.372.372,0,0,0,.351-.25l.644-1.872a.371.371,0,1,0-.7-.241l-.645,1.872a.371.371,0,0,0,.23.472A.358.358,0,0,0,2004.388,1185.527Zm1.29-3.743a.37.37,0,0,0,.351-.25l.645-1.872a.371.371,0,1,0-.7-.242l-.645,1.872a.371.371,0,0,0,.23.471A.362.362,0,0,0,2005.678,1181.783Zm1.289-3.744a.371.371,0,0,0,.351-.25l.645-1.871a.371.371,0,1,0-.7-.241l-.645,1.871a.371.371,0,0,0,.23.472A.359.359,0,0,0,2006.967,1178.039Zm1.29-3.743a.371.371,0,0,0,.351-.25l.645-1.872a.371.371,0,1,0-.7-.242l-.645,1.872a.371.371,0,0,0,.351.492Zm1.289-3.744a.371.371,0,0,0,.351-.25l.645-1.871a.371.371,0,1,0-.7-.241l-.645,1.871a.371.371,0,0,0,.23.472A.362.362,0,0,0,2009.546,1170.553Zm1.289-3.743a.371.371,0,0,0,.351-.25l.645-1.872a.371.371,0,1,0-.7-.241l-.645,1.872a.371.371,0,0,0,.351.492Zm1.29-3.743a.37.37,0,0,0,.351-.25l.645-1.872a.371.371,0,1,0-.7-.241l-.645,1.872a.371.371,0,0,0,.23.472A.358.358,0,0,0,2012.125,1163.066Zm1.29-3.743a.371.371,0,0,0,.351-.25l.645-1.872a.371.371,0,0,0-.7-.241l-.645,1.872a.371.371,0,0,0,.351.492Zm1.29-3.743a.371.371,0,0,0,.351-.25l.645-1.872a.371.371,0,1,0-.7-.242l-.645,1.872a.371.371,0,0,0,.23.472A.36.36,0,0,0,2014.7,1155.579Zm1.289-3.744a.371.371,0,0,0,.351-.25l.645-1.871a.371.371,0,0,0-.7-.241l-.645,1.871a.371.371,0,0,0,.23.472A.359.359,0,0,0,2015.992,1151.836Zm1.29-3.743a.371.371,0,0,0,.351-.25l.645-1.872a.371.371,0,1,0-.7-.242l-.645,1.872a.371.371,0,0,0,.351.492Zm1.29-3.744a.371.371,0,0,0,.351-.25l.645-1.871a.371.371,0,0,0-.7-.241l-.645,1.871a.371.371,0,0,0,.23.472A.358.358,0,0,0,2018.571,1144.349Zm1.29-3.743a.372.372,0,0,0,.351-.25l.644-1.872a.371.371,0,1,0-.7-.242l-.645,1.872a.371.371,0,0,0,.23.472A.366.366,0,0,0,2019.861,1140.606Zm1.29-3.744a.371.371,0,0,0,.351-.25l.645-1.872a.371.371,0,0,0-.7-.241l-.645,1.872a.37.37,0,0,0,.23.472A.358.358,0,0,0,2021.151,1136.862Zm1.289-3.743a.372.372,0,0,0,.351-.25l.645-1.871a.371.371,0,1,0-.7-.242l-.645,1.871a.371.371,0,0,0,.351.492Zm1.289-3.743a.37.37,0,0,0,.351-.25l.645-1.872a.371.371,0,0,0-.7-.242l-.645,1.872a.372.372,0,0,0,.23.472A.361.361,0,0,0,2023.729,1129.376Zm1.289-3.744a.371.371,0,0,0,.351-.25l.645-1.872a.371.371,0,0,0-.7-.241l-.645,1.871a.371.371,0,0,0,.23.472A.363.363,0,0,0,2025.018,1125.632Zm1.29-3.743a.371.371,0,0,0,.351-.25l.645-1.872a.371.371,0,1,0-.7-.242l-.645,1.872a.371.371,0,0,0,.351.492Zm1.29-3.743a.371.371,0,0,0,.351-.25l.645-1.872a.371.371,0,1,0-.7-.241l-.645,1.872a.371.371,0,0,0,.23.472A.363.363,0,0,0,2027.6,1118.146Zm1.289-3.744a.372.372,0,0,0,.351-.25l.645-1.872a.371.371,0,1,0-.7-.242l-.645,1.872a.371.371,0,0,0,.351.492Zm1.29-3.743a.37.37,0,0,0,.351-.25l.645-1.872a.371.371,0,1,0-.7-.241l-.645,1.872a.371.371,0,0,0,.23.472A.364.364,0,0,0,2030.176,1110.659Zm1.289-3.743a.371.371,0,0,0,.351-.25l.645-1.871a.371.371,0,1,0-.7-.242l-.645,1.871a.371.371,0,0,0,.23.472A.367.367,0,0,0,2031.465,1106.915Zm1.29-3.743a.37.37,0,0,0,.351-.25l.644-1.872a.371.371,0,0,0-.7-.242l-.644,1.872a.371.371,0,0,0,.23.472A.361.361,0,0,0,2032.755,1103.172Zm1.289-3.743a.371.371,0,0,0,.351-.25l.645-1.872a.371.371,0,1,0-.7-.241l-.645,1.872a.372.372,0,0,0,.351.492Zm1.289-3.744a.371.371,0,0,0,.351-.25l.645-1.872a.371.371,0,1,0-.7-.242l-.645,1.872a.371.371,0,0,0,.23.471A.36.36,0,0,0,2035.333,1095.685Zm1.29-3.743a.371.371,0,0,0,.351-.25l.645-1.872a.371.371,0,1,0-.7-.241l-.645,1.872a.371.371,0,0,0,.23.472A.358.358,0,0,0,2036.623,1091.942Z" transform="translate(-1795.916 -1089.328)" fill="#fff"/>
          <path id="Trazado_1867" data-name="Trazado 1867" d="M1999.23,1202.006a.371.371,0,0,0,.334-.209l.707-1.46a.371.371,0,0,0-.668-.324l-.707,1.46a.371.371,0,0,0,.333.533Zm1.569-3.242a.371.371,0,0,0,.335-.21l.862-1.782a.371.371,0,1,0-.668-.323l-.862,1.782a.372.372,0,0,0,.333.533Zm1.725-3.564a.37.37,0,0,0,.334-.209l.863-1.782a.371.371,0,1,0-.668-.323l-.862,1.782a.37.37,0,0,0,.172.5A.365.365,0,0,0,2002.524,1195.2Zm1.724-3.564a.37.37,0,0,0,.334-.209l.863-1.782a.371.371,0,1,0-.668-.324l-.863,1.782a.371.371,0,0,0,.333.533Zm1.725-3.564a.371.371,0,0,0,.335-.209l.862-1.782a.371.371,0,1,0-.668-.324l-.863,1.782a.372.372,0,0,0,.333.533Zm1.725-3.564a.369.369,0,0,0,.334-.209l.863-1.781a.371.371,0,0,0-.668-.324l-.863,1.782a.37.37,0,0,0,.333.533Zm1.725-3.563a.371.371,0,0,0,.335-.209l.862-1.782a.371.371,0,1,0-.668-.324l-.863,1.782a.371.371,0,0,0,.333.533Zm1.725-3.564a.371.371,0,0,0,.335-.209l.862-1.782a.371.371,0,1,0-.668-.324l-.862,1.782a.371.371,0,0,0,.333.533Zm1.725-3.564a.371.371,0,0,0,.334-.209l.863-1.782a.371.371,0,0,0-.668-.324l-.863,1.782a.371.371,0,0,0,.333.533Zm1.725-3.564a.37.37,0,0,0,.335-.209l.863-1.782a.371.371,0,1,0-.668-.324l-.863,1.782a.371.371,0,0,0,.333.533Zm1.725-3.564a.371.371,0,0,0,.335-.209l.862-1.782a.371.371,0,1,0-.668-.323l-.862,1.782a.371.371,0,0,0,.333.532Zm1.725-3.564a.37.37,0,0,0,.334-.209l.862-1.782a.371.371,0,0,0-.668-.324l-.862,1.783a.37.37,0,0,0,.333.532Zm1.725-3.563a.37.37,0,0,0,.335-.209l.862-1.782a.371.371,0,0,0-.668-.324l-.863,1.782a.371.371,0,0,0,.333.533ZM2021.5,1156a.371.371,0,0,0,.335-.21l.862-1.782a.371.371,0,0,0-.668-.323l-.862,1.782a.372.372,0,0,0,.333.533Zm1.725-3.564a.37.37,0,0,0,.334-.21l.862-1.782a.371.371,0,0,0-.668-.323l-.862,1.782a.371.371,0,0,0,.334.533Zm1.725-3.564a.37.37,0,0,0,.334-.209l.862-1.782a.371.371,0,0,0-.668-.324l-.863,1.782a.371.371,0,0,0,.334.533Zm1.725-3.564a.371.371,0,0,0,.335-.209l.862-1.782a.371.371,0,0,0-.668-.324l-.862,1.781a.372.372,0,0,0,.333.533Zm1.725-3.564a.369.369,0,0,0,.334-.209l.863-1.782a.371.371,0,0,0-.668-.324l-.862,1.782a.371.371,0,0,0,.173.5A.367.367,0,0,0,2028.4,1141.745Zm1.724-3.563a.37.37,0,0,0,.334-.209l.863-1.782a.371.371,0,1,0-.668-.324l-.863,1.782a.371.371,0,0,0,.334.533Zm1.725-3.564a.371.371,0,0,0,.335-.209l.863-1.781a.371.371,0,0,0-.668-.324l-.863,1.781a.371.371,0,0,0,.334.533Zm1.725-3.563a.37.37,0,0,0,.334-.209l.863-1.782a.371.371,0,1,0-.668-.324l-.863,1.782a.371.371,0,0,0,.333.533Zm1.725-3.564a.371.371,0,0,0,.335-.209l.863-1.782a.371.371,0,1,0-.668-.324l-.863,1.782a.372.372,0,0,0,.333.533Zm1.725-3.564a.371.371,0,0,0,.335-.209l.862-1.782a.371.371,0,0,0-.668-.324l-.863,1.782a.371.371,0,0,0,.333.533Zm1.725-3.563a.37.37,0,0,0,.334-.209l.863-1.782a.371.371,0,1,0-.668-.324l-.862,1.782a.37.37,0,0,0,.333.533Zm1.725-3.563a.37.37,0,0,0,.335-.209l.862-1.782a.371.371,0,0,0-.668-.324l-.863,1.782a.372.372,0,0,0,.333.533Zm1.725-3.564a.371.371,0,0,0,.335-.209l.862-1.783a.371.371,0,0,0-.668-.323l-.862,1.782a.371.371,0,0,0,.333.533Zm1.725-3.564a.371.371,0,0,0,.334-.209l.862-1.781a.371.371,0,1,0-.668-.324l-.862,1.781a.371.371,0,0,0,.333.533Zm1.725-3.564a.37.37,0,0,0,.335-.209l.862-1.782a.371.371,0,1,0-.668-.323l-.863,1.781a.372.372,0,0,0,.333.533Zm1.725-3.564a.371.371,0,0,0,.334-.209l.862-1.782a.371.371,0,1,0-.668-.323l-.862,1.782a.371.371,0,0,0,.333.533Zm1.725-3.564a.37.37,0,0,0,.334-.209l.862-1.782a.371.371,0,1,0-.668-.323l-.862,1.782a.371.371,0,0,0,.333.532Zm1.725-3.563a.371.371,0,0,0,.334-.209l.862-1.782a.371.371,0,0,0-.667-.324l-.862,1.782a.371.371,0,0,0,.333.533Zm1.725-3.564a.371.371,0,0,0,.334-.209l.862-1.783a.371.371,0,0,0-.668-.323l-.862,1.782a.372.372,0,0,0,.333.533Z" transform="translate(-1812.056 -1089.328)" fill="#fff"/>
          <path id="Trazado_1868" data-name="Trazado 1868" d="M1999.23,1201.182a.371.371,0,0,0,.311-.168l1.081-1.658a.371.371,0,1,0-.621-.405l-1.081,1.658a.37.37,0,0,0,.109.513A.362.362,0,0,0,1999.23,1201.182Zm2.162-3.317a.372.372,0,0,0,.311-.169l1.081-1.658a.371.371,0,1,0-.621-.405l-1.081,1.658a.371.371,0,0,0,.31.574Zm2.163-3.317a.37.37,0,0,0,.311-.169l1.08-1.658a.371.371,0,1,0-.621-.4l-1.08,1.658a.371.371,0,0,0,.31.574Zm2.162-3.316a.37.37,0,0,0,.311-.169l1.081-1.659a.371.371,0,0,0-.622-.405l-1.081,1.659a.371.371,0,0,0,.31.574Zm2.162-3.317a.37.37,0,0,0,.311-.168l1.081-1.658a.371.371,0,0,0-.622-.405l-1.081,1.658a.37.37,0,0,0,.108.513A.366.366,0,0,0,2007.878,1187.915Zm2.162-3.317a.371.371,0,0,0,.311-.169l1.081-1.658a.371.371,0,0,0-.621-.405l-1.081,1.658a.371.371,0,0,0,.109.513A.365.365,0,0,0,2010.04,1184.6Zm2.162-3.317a.371.371,0,0,0,.312-.169l1.081-1.658a.371.371,0,1,0-.622-.4l-1.081,1.658a.371.371,0,0,0,.109.513A.367.367,0,0,0,2012.2,1181.281Zm2.163-3.316a.37.37,0,0,0,.311-.169l1.081-1.659a.371.371,0,0,0-.622-.405l-1.081,1.659a.371.371,0,0,0,.31.574Zm2.162-3.317a.37.37,0,0,0,.311-.169l1.081-1.658a.371.371,0,0,0-.622-.405l-1.081,1.658a.37.37,0,0,0,.108.513A.366.366,0,0,0,2016.526,1174.648Zm2.162-3.317a.37.37,0,0,0,.311-.169l1.081-1.658a.371.371,0,1,0-.622-.405l-1.081,1.658a.371.371,0,0,0,.31.574Zm2.162-3.317a.37.37,0,0,0,.311-.169l1.081-1.658a.371.371,0,1,0-.621-.4l-1.082,1.658a.371.371,0,0,0,.109.513A.364.364,0,0,0,2020.85,1168.014Zm2.163-3.316a.371.371,0,0,0,.311-.169l1.08-1.659a.371.371,0,0,0-.621-.405l-1.081,1.659a.371.371,0,0,0,.31.574Zm2.162-3.317a.37.37,0,0,0,.311-.169l1.081-1.658a.371.371,0,0,0-.622-.405l-1.081,1.658a.37.37,0,0,0,.108.513A.364.364,0,0,0,2025.175,1161.38Zm2.162-3.317a.371.371,0,0,0,.311-.168l1.081-1.658a.371.371,0,0,0-.621-.405l-1.081,1.658a.371.371,0,0,0,.31.574Zm2.162-3.317a.37.37,0,0,0,.311-.169l1.081-1.658a.371.371,0,0,0-.621-.4l-1.081,1.658a.371.371,0,0,0,.108.513A.366.366,0,0,0,2029.5,1154.747Zm2.162-3.316a.369.369,0,0,0,.311-.169l1.081-1.659a.371.371,0,1,0-.621-.405l-1.081,1.659a.37.37,0,0,0,.109.513A.366.366,0,0,0,2031.66,1151.43Zm2.162-3.317a.37.37,0,0,0,.312-.169l1.081-1.658a.371.371,0,1,0-.621-.405l-1.081,1.658a.37.37,0,0,0,.108.513A.363.363,0,0,0,2033.822,1148.113Zm2.162-3.317a.372.372,0,0,0,.311-.169l1.081-1.658a.371.371,0,0,0-.622-.405l-1.081,1.658a.371.371,0,0,0,.31.574Zm2.162-3.317a.371.371,0,0,0,.311-.168l1.081-1.659a.371.371,0,0,0-.622-.4l-1.08,1.658a.371.371,0,0,0,.31.574Zm2.162-3.316a.37.37,0,0,0,.311-.169l1.081-1.659a.371.371,0,0,0-.622-.405L2040,1137.59a.371.371,0,0,0,.31.574Zm2.162-3.317a.371.371,0,0,0,.312-.168l1.08-1.658a.371.371,0,1,0-.621-.405l-1.081,1.658a.37.37,0,0,0,.108.513A.364.364,0,0,0,2042.47,1134.846Zm2.162-3.317a.372.372,0,0,0,.312-.169l1.081-1.658a.371.371,0,1,0-.622-.405l-1.081,1.658a.37.37,0,0,0,.108.513A.366.366,0,0,0,2044.632,1131.529Zm2.162-3.316a.371.371,0,0,0,.311-.168l1.081-1.659a.371.371,0,0,0-.622-.4l-1.081,1.659a.371.371,0,0,0,.31.574Zm2.162-3.317a.37.37,0,0,0,.311-.169l1.081-1.659a.371.371,0,0,0-.622-.405l-1.081,1.659a.371.371,0,0,0,.108.513A.367.367,0,0,0,2048.957,1124.9Zm2.162-3.317a.37.37,0,0,0,.311-.169l1.082-1.658a.371.371,0,0,0-.622-.405l-1.081,1.658a.371.371,0,0,0,.108.513A.365.365,0,0,0,2051.118,1121.579Zm2.162-3.317a.372.372,0,0,0,.312-.169l1.08-1.658a.371.371,0,1,0-.621-.405l-1.081,1.658a.372.372,0,0,0,.311.574Zm2.162-3.316a.371.371,0,0,0,.312-.169l1.081-1.659a.371.371,0,1,0-.621-.405l-1.081,1.659a.371.371,0,0,0,.31.574Zm2.163-3.317a.37.37,0,0,0,.311-.169L2059,1109.8a.371.371,0,1,0-.622-.4l-1.08,1.659a.371.371,0,0,0,.31.574Zm2.162-3.317a.37.37,0,0,0,.311-.169l1.081-1.658a.371.371,0,1,0-.621-.405l-1.081,1.658a.37.37,0,0,0,.108.513A.364.364,0,0,0,2059.767,1108.312Zm2.162-3.317a.37.37,0,0,0,.311-.169l1.081-1.658a.371.371,0,1,0-.621-.405l-1.081,1.658a.371.371,0,0,0,.31.574Zm2.162-3.316a.372.372,0,0,0,.312-.169l1.081-1.659a.371.371,0,0,0-.622-.405l-1.081,1.659a.371.371,0,0,0,.109.513A.364.364,0,0,0,2064.091,1101.679Zm2.162-3.317a.372.372,0,0,0,.312-.169l1.081-1.659a.371.371,0,1,0-.622-.4l-1.081,1.659a.371.371,0,0,0,.31.574Zm2.163-3.317a.371.371,0,0,0,.311-.169l1.081-1.658a.371.371,0,0,0-.622-.405l-1.081,1.658a.37.37,0,0,0,.108.513A.363.363,0,0,0,2068.415,1095.045Zm2.162-3.317a.37.37,0,0,0,.311-.169l1.081-1.658a.371.371,0,0,0-.622-.405l-1.081,1.658a.37.37,0,0,0,.108.513A.365.365,0,0,0,2070.577,1091.728Z" transform="translate(-1830.307 -1089.327)" fill="#fff"/>
          <path id="Trazado_1869" data-name="Trazado 1869" d="M1999.23,1201.323a.37.37,0,0,0,.286-.135l1.264-1.524a.371.371,0,0,0-.571-.474l-1.264,1.524a.372.372,0,0,0,.286.608Zm2.527-3.048a.371.371,0,0,0,.286-.135l1.264-1.524a.371.371,0,0,0-.571-.474l-1.264,1.525a.371.371,0,0,0,.286.608Zm2.527-3.048a.371.371,0,0,0,.286-.135l1.264-1.524a.371.371,0,1,0-.571-.474l-1.264,1.524a.371.371,0,0,0,.049.523A.367.367,0,0,0,2004.284,1195.227Zm2.527-3.048a.371.371,0,0,0,.286-.135l1.263-1.524a.371.371,0,1,0-.571-.474l-1.263,1.524a.371.371,0,0,0,.286.608Zm2.527-3.048a.37.37,0,0,0,.286-.134l1.263-1.524a.371.371,0,1,0-.571-.474l-1.263,1.524a.371.371,0,0,0,.286.608Zm2.527-3.048a.37.37,0,0,0,.286-.135l1.263-1.524a.371.371,0,1,0-.571-.474l-1.263,1.524a.371.371,0,0,0,.286.608Zm2.527-3.048a.371.371,0,0,0,.286-.134l1.263-1.524a.371.371,0,1,0-.571-.474l-1.263,1.524a.371.371,0,0,0,.285.608Zm2.526-3.048a.369.369,0,0,0,.286-.135l1.264-1.524a.371.371,0,0,0-.571-.474l-1.264,1.524a.371.371,0,0,0,.286.608Zm2.527-3.048a.369.369,0,0,0,.285-.135l1.264-1.524a.371.371,0,1,0-.571-.474l-1.264,1.524a.372.372,0,0,0,.286.608Zm2.527-3.048a.369.369,0,0,0,.286-.135l1.264-1.524a.371.371,0,1,0-.571-.474l-1.264,1.524a.371.371,0,0,0,.286.608Zm2.527-3.048a.37.37,0,0,0,.286-.134l1.263-1.525a.371.371,0,1,0-.571-.474l-1.263,1.524a.371.371,0,0,0,.286.608Zm2.527-3.048a.371.371,0,0,0,.286-.134l1.263-1.524a.371.371,0,1,0-.571-.474l-1.263,1.524a.371.371,0,0,0,.286.608Zm2.527-3.048a.371.371,0,0,0,.286-.134l1.264-1.524a.371.371,0,0,0-.571-.474l-1.264,1.524a.371.371,0,0,0,.286.608Zm2.527-3.048a.371.371,0,0,0,.286-.134l1.263-1.524a.371.371,0,0,0-.571-.474l-1.263,1.524a.371.371,0,0,0,.286.608Zm2.526-3.048a.37.37,0,0,0,.286-.134l1.264-1.524a.371.371,0,0,0-.571-.474l-1.263,1.524a.371.371,0,0,0,.286.608Zm2.527-3.048a.37.37,0,0,0,.286-.134l1.264-1.524a.371.371,0,0,0-.571-.474l-1.264,1.524a.371.371,0,0,0,.286.608Zm2.527-3.047a.371.371,0,0,0,.286-.135l1.264-1.525a.371.371,0,0,0-.571-.474l-1.264,1.525a.372.372,0,0,0,.286.608Zm2.527-3.048a.372.372,0,0,0,.286-.134l1.263-1.524a.371.371,0,1,0-.571-.474l-1.263,1.524a.371.371,0,0,0,.286.608Zm2.527-3.048a.371.371,0,0,0,.286-.135l1.263-1.524a.371.371,0,1,0-.571-.474l-1.263,1.524a.371.371,0,0,0,.286.608Zm2.527-3.048a.372.372,0,0,0,.286-.135l1.263-1.525a.371.371,0,1,0-.571-.474l-1.263,1.524a.371.371,0,0,0,.286.608Zm2.527-3.048a.373.373,0,0,0,.286-.134l1.263-1.524a.371.371,0,1,0-.571-.474l-1.263,1.524a.371.371,0,0,0,.285.608Zm2.527-3.048a.371.371,0,0,0,.286-.135l1.263-1.524a.371.371,0,0,0-.571-.474l-1.263,1.524a.372.372,0,0,0,.286.608Zm2.527-3.048a.37.37,0,0,0,.286-.135l1.264-1.524a.371.371,0,1,0-.571-.474l-1.264,1.524a.372.372,0,0,0,.286.608Zm2.527-3.048a.37.37,0,0,0,.286-.135l1.263-1.524a.371.371,0,1,0-.571-.474l-1.263,1.524a.371.371,0,0,0,.285.608Zm2.527-3.048a.37.37,0,0,0,.285-.135l1.263-1.524a.371.371,0,1,0-.571-.474l-1.263,1.524a.371.371,0,0,0,.286.608Zm2.527-3.048a.37.37,0,0,0,.285-.135l1.263-1.524a.371.371,0,1,0-.571-.474l-1.263,1.524a.371.371,0,0,0,.286.608Zm2.527-3.048a.37.37,0,0,0,.286-.134l1.263-1.524a.371.371,0,1,0-.571-.474l-1.263,1.524a.371.371,0,0,0,.286.608Zm2.526-3.048a.369.369,0,0,0,.286-.134l1.264-1.524a.371.371,0,1,0-.571-.474l-1.264,1.524a.371.371,0,0,0,.285.608Zm2.527-3.048a.37.37,0,0,0,.285-.134l1.264-1.525a.371.371,0,1,0-.571-.474l-1.264,1.525a.371.371,0,0,0,.286.608Zm2.527-3.048a.371.371,0,0,0,.286-.134l1.264-1.524a.371.371,0,0,0-.571-.474l-1.264,1.524a.371.371,0,0,0,.286.608Zm2.527-3.048a.372.372,0,0,0,.286-.134l1.263-1.524a.371.371,0,1,0-.571-.474l-1.263,1.524a.371.371,0,0,0,.285.608Zm2.527-3.048a.371.371,0,0,0,.286-.134l1.263-1.525a.371.371,0,0,0-.571-.474l-1.263,1.525a.371.371,0,0,0,.286.608Zm2.527-3.048a.371.371,0,0,0,.285-.134l1.263-1.524a.371.371,0,0,0-.571-.474l-1.263,1.524a.371.371,0,0,0,.286.608Zm2.527-3.048a.372.372,0,0,0,.286-.134l1.263-1.524a.371.371,0,1,0-.572-.474l-1.263,1.524a.371.371,0,0,0,.286.608Zm2.526-3.047a.372.372,0,0,0,.286-.135l1.263-1.525a.371.371,0,0,0-.571-.474l-1.264,1.524a.372.372,0,0,0,.285.608Zm2.527-3.048a.37.37,0,0,0,.285-.135l1.264-1.524a.371.371,0,0,0-.571-.474l-1.264,1.524a.372.372,0,0,0,.286.608Zm2.527-3.048a.371.371,0,0,0,.286-.135l1.264-1.524a.371.371,0,0,0-.571-.474l-1.264,1.524a.372.372,0,0,0,.286.608Z" transform="translate(-1850.109 -1089.327)" fill="#fff"/>
          <path id="Trazado_1870" data-name="Trazado 1870" d="M1999.231,1202.006a.368.368,0,0,0,.261-.108l.3-.3a.371.371,0,1,0-.523-.527l-.3.3a.371.371,0,0,0,.261.634Zm1.7-1.693a.368.368,0,0,0,.261-.108l1.4-1.4a.371.371,0,0,0-.523-.527l-1.4,1.4a.371.371,0,0,0,.261.634Zm2.808-2.791a.368.368,0,0,0,.262-.108l1.4-1.4a.371.371,0,1,0-.523-.527l-1.4,1.4a.371.371,0,0,0,.261.634Zm2.808-2.791a.369.369,0,0,0,.261-.108l1.4-1.4a.371.371,0,1,0-.523-.527l-1.4,1.4a.371.371,0,0,0,.261.635Zm2.808-2.792a.369.369,0,0,0,.262-.108l1.4-1.4a.371.371,0,0,0-.523-.527l-1.4,1.4a.371.371,0,0,0,.261.634Zm2.809-2.791a.368.368,0,0,0,.261-.108l1.4-1.4a.371.371,0,0,0-.523-.527l-1.4,1.4a.371.371,0,0,0,.262.634Zm2.808-2.79a.368.368,0,0,0,.261-.108l1.4-1.4a.371.371,0,1,0-.523-.527l-1.4,1.4a.372.372,0,0,0,.262.635Zm2.808-2.791a.368.368,0,0,0,.262-.108l1.4-1.4a.371.371,0,1,0-.523-.527l-1.4,1.4a.371.371,0,0,0,.261.635Zm2.808-2.791a.368.368,0,0,0,.262-.108l1.4-1.4a.371.371,0,1,0-.523-.527l-1.4,1.4a.371.371,0,0,0,.261.634Zm2.808-2.791a.369.369,0,0,0,.262-.108l1.4-1.4a.371.371,0,0,0-.523-.527l-1.4,1.4a.371.371,0,0,0,.261.635Zm2.809-2.791a.37.37,0,0,0,.261-.108l1.4-1.4a.371.371,0,0,0-.523-.527l-1.4,1.4a.371.371,0,0,0,.262.635Zm2.808-2.791a.368.368,0,0,0,.261-.108l1.4-1.4a.371.371,0,0,0-.523-.527l-1.4,1.4a.371.371,0,0,0,.262.634Zm2.808-2.791a.369.369,0,0,0,.262-.108l1.4-1.4a.371.371,0,1,0-.523-.527l-1.4,1.4a.371.371,0,0,0,.261.635Zm2.809-2.791a.369.369,0,0,0,.261-.108l1.4-1.4a.371.371,0,1,0-.523-.527l-1.4,1.4a.371.371,0,0,0,.261.635Zm2.808-2.791a.368.368,0,0,0,.261-.108l1.4-1.4a.371.371,0,1,0-.523-.527l-1.4,1.4a.371.371,0,0,0,.261.634Zm2.809-2.791a.369.369,0,0,0,.261-.108l1.4-1.4a.371.371,0,0,0-.523-.527l-1.4,1.4a.371.371,0,0,0,.262.634Zm2.808-2.791a.37.37,0,0,0,.261-.108l1.4-1.4a.371.371,0,0,0-.523-.527l-1.4,1.4a.371.371,0,0,0,.262.635Zm2.808-2.791a.369.369,0,0,0,.261-.108l1.4-1.4a.371.371,0,1,0-.523-.527l-1.4,1.4a.371.371,0,0,0,.261.634Zm2.809-2.791a.367.367,0,0,0,.261-.108l1.4-1.4a.371.371,0,1,0-.523-.527l-1.4,1.4a.371.371,0,0,0,.262.635Zm2.808-2.791a.368.368,0,0,0,.262-.108l1.4-1.4a.371.371,0,0,0-.523-.527l-1.4,1.4a.371.371,0,0,0,.261.634Zm2.808-2.791a.369.369,0,0,0,.262-.108l1.4-1.4a.371.371,0,0,0-.523-.527l-1.4,1.4a.371.371,0,0,0,.261.635Zm2.808-2.791a.368.368,0,0,0,.261-.108l1.4-1.4a.371.371,0,1,0-.523-.527l-1.4,1.4a.371.371,0,0,0,.262.634Zm2.808-2.791a.369.369,0,0,0,.261-.108l1.4-1.4a.371.371,0,0,0-.523-.527l-1.4,1.4a.371.371,0,0,0,.262.635Zm2.808-2.791a.368.368,0,0,0,.261-.108l1.4-1.4a.371.371,0,0,0-.523-.527l-1.4,1.4a.371.371,0,0,0,.261.635Zm2.808-2.791a.368.368,0,0,0,.261-.108l1.4-1.4a.371.371,0,1,0-.523-.527l-1.4,1.4a.371.371,0,0,0,.261.634Zm2.808-2.791a.369.369,0,0,0,.262-.108l1.4-1.4a.371.371,0,1,0-.522-.527l-1.4,1.4a.371.371,0,0,0,.261.634Zm2.808-2.791a.37.37,0,0,0,.262-.108l1.4-1.4a.371.371,0,1,0-.522-.527l-1.4,1.4a.371.371,0,0,0,.261.635Zm2.809-2.791a.367.367,0,0,0,.261-.108l1.4-1.4a.371.371,0,0,0-.523-.527l-1.4,1.4a.371.371,0,0,0,.262.634Zm2.808-2.79a.366.366,0,0,0,.261-.108l1.4-1.4a.371.371,0,1,0-.523-.527l-1.4,1.4a.371.371,0,0,0,.262.635Zm2.808-2.791a.37.37,0,0,0,.261-.108l1.4-1.4a.371.371,0,0,0-.523-.527l-1.4,1.4a.371.371,0,0,0,.262.635Zm2.808-2.791a.368.368,0,0,0,.262-.108l1.4-1.4a.371.371,0,0,0-.523-.527l-1.4,1.4a.371.371,0,0,0,.261.634Zm2.808-2.791a.368.368,0,0,0,.262-.108l1.4-1.4a.371.371,0,1,0-.523-.527l-1.4,1.4a.371.371,0,0,0,.261.634Zm2.809-2.79a.368.368,0,0,0,.261-.108l1.4-1.4a.371.371,0,0,0-.523-.527l-1.4,1.4a.371.371,0,0,0,.262.634ZM2090.8,1111a.37.37,0,0,0,.261-.108l1.4-1.4a.371.371,0,0,0-.523-.527l-1.4,1.4a.372.372,0,0,0,.262.635Zm2.808-2.791a.37.37,0,0,0,.261-.108l1.4-1.4a.371.371,0,0,0-.523-.527l-1.4,1.4a.371.371,0,0,0,.262.635Zm2.808-2.791a.369.369,0,0,0,.262-.108l1.4-1.4a.371.371,0,0,0-.523-.527l-1.4,1.4a.371.371,0,0,0,.261.635Zm2.808-2.791a.368.368,0,0,0,.262-.108l1.4-1.4a.371.371,0,1,0-.523-.527l-1.4,1.4a.371.371,0,0,0,.261.634Zm2.809-2.791a.369.369,0,0,0,.261-.108l1.4-1.4a.371.371,0,0,0-.523-.527l-1.4,1.4a.371.371,0,0,0,.262.634Zm2.808-2.791a.367.367,0,0,0,.261-.108l1.4-1.4a.371.371,0,0,0-.523-.527l-1.4,1.4a.371.371,0,0,0,.262.634Zm2.808-2.791a.371.371,0,0,0,.261-.108l1.4-1.4a.371.371,0,0,0-.523-.527l-1.4,1.4a.371.371,0,0,0,.262.635Zm2.808-2.791a.367.367,0,0,0,.261-.108l1.4-1.4a.371.371,0,1,0-.523-.527l-1.4,1.4a.371.371,0,0,0,.261.635Z" transform="translate(-1870.506 -1089.327)" fill="#fff"/>
          <path id="Trazado_1871" data-name="Trazado 1871" d="M1999.23,1202.005a.368.368,0,0,0,.237-.086l.833-.691a.371.371,0,0,0-.474-.571l-.832.691a.371.371,0,0,0,.237.657Zm2.356-1.955a.37.37,0,0,0,.237-.086l1.523-1.264a.371.371,0,1,0-.474-.571l-1.523,1.264a.372.372,0,0,0,.237.657Zm3.047-2.528a.371.371,0,0,0,.237-.085l1.523-1.264a.371.371,0,0,0-.474-.572l-1.523,1.264a.371.371,0,0,0,.237.657Zm3.047-2.528a.368.368,0,0,0,.236-.086l1.523-1.264a.371.371,0,1,0-.474-.571l-1.523,1.264a.371.371,0,0,0,.237.657Zm3.046-2.528a.371.371,0,0,0,.237-.086l1.524-1.264a.371.371,0,0,0-.474-.572l-1.524,1.264a.371.371,0,0,0,.237.657Zm3.047-2.529a.368.368,0,0,0,.237-.085l1.523-1.264a.371.371,0,1,0-.474-.571l-1.523,1.264a.371.371,0,0,0,.237.656Zm3.047-2.528a.371.371,0,0,0,.237-.086l1.523-1.264a.371.371,0,0,0-.474-.571l-1.524,1.264a.372.372,0,0,0,.237.657Zm3.046-2.528a.37.37,0,0,0,.237-.085l1.523-1.264a.371.371,0,1,0-.474-.571l-1.523,1.264a.371.371,0,0,0,.237.657Zm3.047-2.528a.368.368,0,0,0,.237-.086l1.524-1.264a.371.371,0,1,0-.474-.571l-1.524,1.264a.371.371,0,0,0,.237.657Zm3.047-2.528a.369.369,0,0,0,.237-.086l1.523-1.264a.371.371,0,1,0-.474-.571l-1.523,1.264a.371.371,0,0,0,.237.657Zm3.047-2.528a.369.369,0,0,0,.237-.085l1.524-1.264a.371.371,0,1,0-.474-.571l-1.524,1.264a.371.371,0,0,0,.237.657Zm3.047-2.529a.368.368,0,0,0,.237-.085l1.523-1.264a.371.371,0,1,0-.474-.572l-1.523,1.264a.371.371,0,0,0,.237.657Zm3.047-2.528a.368.368,0,0,0,.237-.085l1.524-1.264a.371.371,0,0,0-.474-.571l-1.523,1.264a.371.371,0,0,0,.237.657Zm3.047-2.528a.37.37,0,0,0,.237-.086l1.523-1.264a.371.371,0,0,0-.474-.572l-1.523,1.265a.371.371,0,0,0,.237.657Zm3.047-2.528a.367.367,0,0,0,.237-.086l1.523-1.264a.371.371,0,1,0-.474-.571l-1.523,1.264a.371.371,0,0,0,.237.657Zm3.047-2.529a.371.371,0,0,0,.237-.086l1.523-1.264a.371.371,0,0,0-.474-.571L2044,1164a.371.371,0,0,0,.237.657Zm3.047-2.528a.369.369,0,0,0,.237-.085l1.524-1.265a.371.371,0,0,0-.474-.571l-1.524,1.264a.371.371,0,0,0,.236.657Zm3.047-2.528a.369.369,0,0,0,.237-.085l1.523-1.264a.371.371,0,0,0-.474-.571l-1.523,1.265a.371.371,0,0,0,.237.657Zm3.047-2.529a.369.369,0,0,0,.237-.086l1.523-1.264a.371.371,0,1,0-.474-.571l-1.523,1.264a.371.371,0,0,0,.237.657Zm3.047-2.528a.37.37,0,0,0,.237-.086l1.523-1.264a.371.371,0,0,0-.474-.571l-1.524,1.264a.371.371,0,0,0,.237.657Zm3.047-2.528a.369.369,0,0,0,.237-.085l1.523-1.264a.371.371,0,1,0-.474-.572l-1.523,1.265a.371.371,0,0,0,.237.657Zm3.047-2.528a.369.369,0,0,0,.237-.085l1.524-1.264a.371.371,0,0,0-.474-.571l-1.523,1.264a.371.371,0,0,0,.237.657Zm3.047-2.528a.37.37,0,0,0,.237-.086l1.523-1.264a.371.371,0,1,0-.474-.571l-1.523,1.263a.371.371,0,0,0,.237.657Zm3.047-2.528a.368.368,0,0,0,.237-.085l1.524-1.264a.371.371,0,0,0-.474-.571l-1.524,1.264a.371.371,0,0,0,.237.657Zm3.046-2.528a.369.369,0,0,0,.237-.085l1.523-1.264a.371.371,0,1,0-.474-.571l-1.523,1.264a.371.371,0,0,0,.237.657Zm3.047-2.529a.367.367,0,0,0,.237-.086l1.523-1.264a.371.371,0,1,0-.474-.571l-1.523,1.264a.371.371,0,0,0,.237.657Zm3.047-2.528a.37.37,0,0,0,.237-.086l1.523-1.264a.371.371,0,1,0-.474-.571l-1.523,1.264a.371.371,0,0,0,.237.657Zm3.047-2.528a.369.369,0,0,0,.237-.085l1.523-1.265a.371.371,0,1,0-.474-.571l-1.523,1.264a.371.371,0,0,0,.237.657Zm3.047-2.528a.369.369,0,0,0,.237-.085l1.523-1.264a.371.371,0,0,0-.474-.571l-1.524,1.264a.371.371,0,0,0,.237.657Zm3.047-2.528a.368.368,0,0,0,.237-.085l1.523-1.264a.371.371,0,1,0-.473-.572l-1.523,1.264a.371.371,0,0,0,.237.657Zm3.046-2.528a.37.37,0,0,0,.237-.086l1.523-1.264a.371.371,0,0,0-.474-.571l-1.524,1.264a.371.371,0,0,0,.237.657Zm3.047-2.528a.371.371,0,0,0,.237-.086l1.523-1.264a.371.371,0,1,0-.474-.571l-1.523,1.264a.371.371,0,0,0,.237.657Zm3.047-2.529a.368.368,0,0,0,.237-.085l1.524-1.264a.371.371,0,0,0-.474-.571l-1.524,1.264a.371.371,0,0,0,.237.657Zm3.047-2.528a.37.37,0,0,0,.237-.085l1.523-1.264a.371.371,0,1,0-.474-.571l-1.523,1.265a.371.371,0,0,0,.237.657Zm3.047-2.528a.368.368,0,0,0,.236-.086l1.524-1.264a.371.371,0,0,0-.474-.571l-1.523,1.264a.371.371,0,0,0,.237.657Zm3.046-2.528a.369.369,0,0,0,.237-.086l1.524-1.264a.371.371,0,1,0-.474-.571l-1.523,1.264a.371.371,0,0,0,.237.657Zm3.047-2.528a.368.368,0,0,0,.237-.085l1.524-1.265a.371.371,0,0,0-.474-.571l-1.523,1.264a.371.371,0,0,0,.237.657Zm3.047-2.528a.368.368,0,0,0,.237-.085l1.523-1.264a.371.371,0,0,0-.474-.571l-1.523,1.264a.371.371,0,0,0,.237.657Zm3.047-2.529a.368.368,0,0,0,.237-.086l1.523-1.264a.371.371,0,1,0-.474-.571l-1.523,1.264a.371.371,0,0,0,.237.657Zm3.047-2.528a.37.37,0,0,0,.237-.085l1.523-1.265a.371.371,0,0,0-.473-.571l-1.523,1.265a.371.371,0,0,0,.237.657Zm3.047-2.528a.369.369,0,0,0,.236-.086l1.523-1.264a.371.371,0,1,0-.473-.571l-1.523,1.264a.371.371,0,0,0,.237.657Zm3.046-2.528a.369.369,0,0,0,.237-.085l1.524-1.264a.371.371,0,0,0-.474-.571l-1.524,1.265a.371.371,0,0,0,.237.657Zm3.047-2.528a.369.369,0,0,0,.237-.085l1.523-1.264a.371.371,0,1,0-.474-.571l-1.523,1.264a.371.371,0,0,0,.237.657Zm3.047-2.528a.37.37,0,0,0,.237-.085l1.523-1.265a.371.371,0,0,0-.474-.571l-1.524,1.264a.371.371,0,0,0,.237.657Zm3.046-2.528a.369.369,0,0,0,.237-.085l1.523-1.264a.371.371,0,1,0-.474-.571l-1.523,1.264a.371.371,0,0,0,.237.657Z" transform="translate(-1892.771 -1089.327)" fill="#fff"/>
          <path id="Trazado_1872" data-name="Trazado 1872" d="M1999.231,1202.005a.376.376,0,0,0,.212-.066l1.233-.861a.371.371,0,1,0-.425-.609l-1.234.861a.371.371,0,0,0,.213.676Zm2.856-1.994a.37.37,0,0,0,.212-.067l1.623-1.133a.371.371,0,1,0-.425-.609l-1.623,1.133a.371.371,0,0,0,.213.676Zm3.246-2.267a.373.373,0,0,0,.212-.067l1.623-1.133a.371.371,0,1,0-.425-.609l-1.622,1.133a.371.371,0,0,0,.213.676Zm3.246-2.267a.37.37,0,0,0,.212-.067l1.623-1.133a.371.371,0,0,0-.425-.609l-1.623,1.134a.371.371,0,0,0,.213.676Zm3.246-2.267a.37.37,0,0,0,.212-.067l1.623-1.133a.371.371,0,1,0-.425-.609l-1.623,1.133a.371.371,0,0,0,.213.676Zm3.246-2.267a.371.371,0,0,0,.212-.067l1.623-1.133a.371.371,0,1,0-.425-.609l-1.623,1.133a.371.371,0,0,0,.214.676Zm3.246-2.267a.369.369,0,0,0,.212-.067l1.623-1.134a.371.371,0,0,0-.425-.609L2018.1,1188a.371.371,0,0,0,.213.676Zm3.246-2.267a.371.371,0,0,0,.212-.067l1.623-1.134a.372.372,0,1,0-.426-.609l-1.622,1.134a.371.371,0,0,0,.213.676Zm3.246-2.267a.37.37,0,0,0,.212-.067l1.623-1.134a.371.371,0,0,0-.425-.609l-1.623,1.134a.371.371,0,0,0,.213.676Zm3.246-2.267a.37.37,0,0,0,.212-.067l1.623-1.134a.371.371,0,0,0-.425-.609l-1.623,1.133a.371.371,0,0,0,.213.676Zm3.246-2.267a.371.371,0,0,0,.212-.067l1.623-1.134a.371.371,0,1,0-.425-.609l-1.622,1.134a.371.371,0,0,0,.213.675Zm3.246-2.267a.369.369,0,0,0,.212-.066l1.623-1.134a.371.371,0,0,0-.425-.609l-1.623,1.134a.371.371,0,0,0,.213.675Zm3.246-2.267a.37.37,0,0,0,.212-.066l1.623-1.134a.371.371,0,1,0-.425-.609l-1.623,1.134a.371.371,0,0,0,.213.675Zm3.246-2.267a.37.37,0,0,0,.212-.066l1.623-1.134a.371.371,0,1,0-.425-.609l-1.624,1.134a.371.371,0,0,0,.214.675Zm3.246-2.267a.37.37,0,0,0,.212-.066l1.623-1.134a.371.371,0,0,0-.425-.609l-1.623,1.133a.371.371,0,0,0,.213.676Zm3.246-2.267a.372.372,0,0,0,.212-.066l1.623-1.134a.371.371,0,0,0-.426-.609l-1.623,1.133a.371.371,0,0,0,.213.676Zm3.246-2.267a.369.369,0,0,0,.212-.067l1.623-1.134a.371.371,0,0,0-.425-.609l-1.623,1.133a.371.371,0,0,0,.213.676Zm3.246-2.267a.37.37,0,0,0,.212-.067l1.623-1.133a.371.371,0,1,0-.425-.609l-1.623,1.133a.371.371,0,0,0,.213.676Zm3.246-2.267a.372.372,0,0,0,.212-.067l1.623-1.133a.371.371,0,1,0-.425-.609l-1.624,1.133a.371.371,0,0,0,.213.676Zm3.247-2.267a.37.37,0,0,0,.212-.067l1.623-1.133a.371.371,0,1,0-.425-.609l-1.623,1.133a.371.371,0,0,0,.213.676Zm3.246-2.267a.37.37,0,0,0,.212-.067l1.623-1.134a.371.371,0,1,0-.425-.609l-1.623,1.134a.371.371,0,0,0,.213.676Zm3.246-2.267a.37.37,0,0,0,.212-.067l1.623-1.133a.371.371,0,1,0-.425-.609L2066.8,1154a.371.371,0,0,0,.213.676Zm3.246-2.267a.37.37,0,0,0,.212-.067l1.623-1.133a.371.371,0,1,0-.425-.609l-1.623,1.133a.371.371,0,0,0,.213.676Zm3.246-2.267a.372.372,0,0,0,.212-.067l1.624-1.133a.371.371,0,1,0-.425-.609l-1.623,1.133a.371.371,0,0,0,.213.676Zm3.246-2.267a.37.37,0,0,0,.212-.067l1.623-1.133a.371.371,0,0,0-.425-.609l-1.623,1.134a.371.371,0,0,0,.213.676Zm3.246-2.267a.37.37,0,0,0,.212-.067l1.623-1.133a.371.371,0,0,0-.425-.609l-1.623,1.134a.371.371,0,0,0,.213.676Zm3.247-2.267a.373.373,0,0,0,.212-.067l1.622-1.133a.371.371,0,1,0-.425-.609l-1.623,1.133a.371.371,0,0,0,.213.676Zm3.246-2.267a.369.369,0,0,0,.212-.067l1.623-1.134a.371.371,0,0,0-.425-.609l-1.623,1.134a.371.371,0,0,0,.213.676Zm3.246-2.267a.371.371,0,0,0,.212-.067l1.624-1.134a.371.371,0,0,0-.426-.609l-1.623,1.134a.371.371,0,0,0,.213.676Zm3.246-2.267a.371.371,0,0,0,.212-.067l1.623-1.134a.371.371,0,0,0-.425-.609l-1.623,1.134a.371.371,0,0,0,.213.676Zm3.246-2.267a.371.371,0,0,0,.212-.067l1.623-1.133a.371.371,0,1,0-.425-.609l-1.623,1.134a.371.371,0,0,0,.213.676Zm3.247-2.268a.371.371,0,0,0,.212-.066l1.623-1.134a.371.371,0,0,0-.425-.609l-1.623,1.134a.371.371,0,0,0,.213.675Zm3.246-2.267a.367.367,0,0,0,.212-.067l1.623-1.134a.371.371,0,0,0-.425-.609l-1.623,1.134a.371.371,0,0,0,.213.675Zm3.246-2.267a.37.37,0,0,0,.212-.067l1.624-1.134a.371.371,0,0,0-.426-.609l-1.623,1.134a.371.371,0,0,0,.213.675Zm3.247-2.267a.372.372,0,0,0,.212-.067l1.622-1.134a.371.371,0,1,0-.425-.609l-1.623,1.134a.371.371,0,0,0,.213.675Zm3.246-2.267a.369.369,0,0,0,.212-.066l1.623-1.134a.371.371,0,0,0-.425-.609l-1.623,1.134a.371.371,0,0,0,.213.675Zm3.246-2.267a.371.371,0,0,0,.212-.066l1.623-1.134a.371.371,0,0,0-.425-.609l-1.623,1.134a.371.371,0,0,0,.213.675Zm3.246-2.267a.369.369,0,0,0,.212-.067l1.623-1.134a.371.371,0,0,0-.425-.609l-1.623,1.134a.371.371,0,0,0,.213.675Zm3.246-2.267a.372.372,0,0,0,.212-.066l1.624-1.134a.371.371,0,0,0-.425-.609l-1.624,1.133a.371.371,0,0,0,.213.676Zm3.246-2.267a.375.375,0,0,0,.212-.066l1.623-1.134a.371.371,0,0,0-.425-.609l-1.623,1.133a.371.371,0,0,0,.213.676Zm3.246-2.267a.373.373,0,0,0,.212-.067l1.623-1.133a.371.371,0,0,0-.425-.609l-1.623,1.133a.371.371,0,0,0,.213.676Zm3.246-2.267a.373.373,0,0,0,.212-.067l1.623-1.133a.371.371,0,0,0-.426-.609l-1.623,1.133a.371.371,0,0,0,.213.676Zm3.246-2.267a.373.373,0,0,0,.212-.067l1.623-1.133a.371.371,0,1,0-.425-.609l-1.623,1.133a.371.371,0,0,0,.213.676Zm3.246-2.267a.37.37,0,0,0,.212-.067l1.624-1.133a.371.371,0,0,0-.426-.609l-1.624,1.133a.371.371,0,0,0,.213.676Zm3.246-2.267a.371.371,0,0,0,.212-.067l1.623-1.134a.371.371,0,1,0-.425-.609l-1.623,1.134a.371.371,0,0,0,.213.676Zm3.246-2.267a.369.369,0,0,0,.212-.067l1.623-1.133a.371.371,0,1,0-.425-.609l-1.623,1.133a.371.371,0,0,0,.213.676Zm3.246-2.267a.373.373,0,0,0,.213-.067l1.623-1.133a.371.371,0,1,0-.425-.609l-1.623,1.133a.371.371,0,0,0,.213.676Zm3.246-2.267a.374.374,0,0,0,.212-.067l1.623-1.133a.371.371,0,1,0-.425-.609l-1.623,1.133a.371.371,0,0,0,.213.676Zm3.246-2.267a.369.369,0,0,0,.212-.067l1.624-1.133a.371.371,0,0,0-.425-.609l-1.624,1.133a.371.371,0,0,0,.213.676Zm3.246-2.267a.373.373,0,0,0,.212-.067l1.623-1.133a.372.372,0,0,0-.426-.609l-1.623,1.133a.371.371,0,0,0,.213.676Z" transform="translate(-1918.168 -1089.327)" fill="#fff"/>
          <path id="Trazado_1873" data-name="Trazado 1873" d="M1999.231,1201.776a.366.366,0,0,0,.192-.054l1.694-1.025a.371.371,0,0,0-.384-.635l-1.694,1.025a.371.371,0,0,0,.192.689Zm3.388-2.05a.372.372,0,0,0,.191-.053l1.694-1.025a.371.371,0,1,0-.384-.635l-1.694,1.025a.371.371,0,0,0,.193.689Zm3.387-2.05a.371.371,0,0,0,.192-.054l1.694-1.025a.371.371,0,0,0-.385-.635l-1.694,1.025a.371.371,0,0,0,.193.689Zm3.388-2.049a.369.369,0,0,0,.191-.054l1.694-1.025a.371.371,0,1,0-.385-.635l-1.694,1.026a.371.371,0,0,0,.193.689Zm3.387-2.05a.375.375,0,0,0,.192-.053l1.693-1.025a.371.371,0,0,0-.385-.635l-1.693,1.025a.371.371,0,0,0,.193.689Zm3.387-2.05a.372.372,0,0,0,.192-.054l1.694-1.025a.371.371,0,1,0-.385-.635l-1.694,1.025a.371.371,0,0,0,.193.689Zm3.387-2.05a.371.371,0,0,0,.192-.054l1.694-1.025a.371.371,0,0,0-.385-.635l-1.693,1.025a.371.371,0,0,0,.193.689Zm3.388-2.05a.372.372,0,0,0,.191-.053l1.693-1.025a.371.371,0,1,0-.384-.635l-1.694,1.025a.371.371,0,0,0,.193.689Zm3.387-2.049a.372.372,0,0,0,.192-.054l1.693-1.025a.371.371,0,0,0-.385-.635l-1.693,1.025a.371.371,0,0,0,.193.689Zm3.387-2.05a.368.368,0,0,0,.192-.054l1.693-1.025a.371.371,0,1,0-.384-.635l-1.694,1.025a.371.371,0,0,0,.193.689Zm3.387-2.05a.372.372,0,0,0,.192-.054l1.694-1.025a.371.371,0,0,0-.385-.635l-1.693,1.025a.371.371,0,0,0,.193.689Zm3.387-2.05a.368.368,0,0,0,.192-.054l1.694-1.025a.371.371,0,1,0-.383-.635l-1.694,1.025a.371.371,0,0,0,.192.689Zm3.388-2.05a.371.371,0,0,0,.192-.054l1.694-1.025a.371.371,0,0,0-.385-.635l-1.693,1.025a.371.371,0,0,0,.193.689Zm3.388-2.05a.374.374,0,0,0,.192-.053l1.693-1.025a.371.371,0,1,0-.385-.635l-1.694,1.025a.371.371,0,0,0,.193.689Zm3.387-2.05a.371.371,0,0,0,.192-.054l1.693-1.024a.371.371,0,0,0-.385-.635l-1.693,1.025a.371.371,0,0,0,.193.689Zm3.387-2.05a.363.363,0,0,0,.191-.054l1.695-1.024a.371.371,0,0,0-.384-.635l-1.694,1.025a.371.371,0,0,0,.192.688Zm3.387-2.05a.372.372,0,0,0,.192-.053l1.694-1.025a.371.371,0,0,0-.384-.635l-1.694,1.025a.371.371,0,0,0,.192.689Zm3.388-2.049a.37.37,0,0,0,.192-.054l1.694-1.025a.371.371,0,1,0-.385-.635l-1.694,1.025a.371.371,0,0,0,.193.689Zm3.387-2.05a.374.374,0,0,0,.192-.053l1.693-1.025a.371.371,0,0,0-.385-.635l-1.693,1.025a.371.371,0,0,0,.193.689Zm3.388-2.05a.372.372,0,0,0,.191-.053l1.694-1.025a.371.371,0,0,0-.385-.635l-1.693,1.025a.371.371,0,0,0,.193.689Zm3.387-2.049a.374.374,0,0,0,.192-.054l1.694-1.025a.371.371,0,0,0-.385-.635l-1.694,1.025a.371.371,0,0,0,.193.689Zm3.387-2.05a.371.371,0,0,0,.192-.054l1.694-1.025a.371.371,0,0,0-.384-.635l-1.694,1.025a.371.371,0,0,0,.192.689Zm3.388-2.05a.376.376,0,0,0,.192-.054l1.693-1.025a.371.371,0,1,0-.385-.635l-1.693,1.025a.371.371,0,0,0,.193.689Zm3.387-2.05a.372.372,0,0,0,.192-.054l1.694-1.025a.371.371,0,0,0-.385-.635l-1.694,1.025a.371.371,0,0,0,.193.689Zm3.388-2.05a.369.369,0,0,0,.191-.054l1.694-1.025a.371.371,0,0,0-.385-.635l-1.694,1.026a.371.371,0,0,0,.193.689Zm3.387-2.05a.372.372,0,0,0,.192-.054l1.694-1.025a.371.371,0,0,0-.385-.635l-1.694,1.025a.371.371,0,0,0,.193.689Zm3.388-2.05a.37.37,0,0,0,.192-.054l1.694-1.025a.371.371,0,1,0-.385-.635l-1.694,1.025a.371.371,0,0,0,.193.689Zm3.387-2.05a.371.371,0,0,0,.192-.054l1.694-1.025a.371.371,0,0,0-.385-.635l-1.693,1.025a.371.371,0,0,0,.193.688Zm3.388-2.05a.373.373,0,0,0,.191-.053l1.693-1.025a.371.371,0,1,0-.384-.635l-1.694,1.025a.371.371,0,0,0,.193.689Zm3.387-2.049a.369.369,0,0,0,.192-.054l1.693-1.025a.371.371,0,1,0-.385-.635l-1.693,1.025a.371.371,0,0,0,.193.689Zm3.387-2.05a.372.372,0,0,0,.192-.054l1.694-1.024a.371.371,0,0,0-.384-.635l-1.695,1.025a.371.371,0,0,0,.193.689Zm3.388-2.05a.371.371,0,0,0,.191-.053l1.694-1.025a.371.371,0,1,0-.384-.635l-1.694,1.025a.371.371,0,0,0,.193.689Zm3.387-2.049a.372.372,0,0,0,.192-.054l1.693-1.025a.371.371,0,1,0-.385-.635l-1.693,1.024a.371.371,0,0,0,.193.689Zm3.387-2.05a.373.373,0,0,0,.192-.053l1.694-1.025a.371.371,0,0,0-.385-.635l-1.694,1.025a.371.371,0,0,0,.193.689Zm3.387-2.05a.373.373,0,0,0,.192-.053l1.693-1.025a.371.371,0,0,0-.385-.635l-1.694,1.025a.371.371,0,0,0,.193.689Zm3.387-2.05a.367.367,0,0,0,.192-.054l1.694-1.024a.371.371,0,0,0-.384-.635l-1.694,1.025a.371.371,0,0,0,.192.689Zm3.388-2.05a.37.37,0,0,0,.191-.053l1.694-1.025a.371.371,0,1,0-.384-.635l-1.694,1.024a.371.371,0,0,0,.193.689Zm3.387-2.049a.373.373,0,0,0,.192-.053l1.694-1.025a.371.371,0,0,0-.385-.635l-1.694,1.024a.371.371,0,0,0,.193.689Zm3.388-2.049a.371.371,0,0,0,.192-.054l1.694-1.025a.371.371,0,1,0-.385-.635l-1.694,1.025a.371.371,0,0,0,.193.689Zm3.387-2.05a.371.371,0,0,0,.192-.054l1.693-1.025a.371.371,0,1,0-.385-.635l-1.693,1.026a.371.371,0,0,0,.193.688Zm3.387-2.05a.372.372,0,0,0,.192-.054l1.694-1.025a.371.371,0,1,0-.385-.635l-1.694,1.025a.371.371,0,0,0,.193.689Zm3.387-2.05a.371.371,0,0,0,.192-.054l1.694-1.025a.371.371,0,0,0-.385-.635l-1.694,1.025a.371.371,0,0,0,.193.689Zm3.387-2.05a.369.369,0,0,0,.192-.054l1.693-1.025a.371.371,0,1,0-.384-.635l-1.694,1.025a.371.371,0,0,0,.192.689Zm3.388-2.05a.375.375,0,0,0,.192-.054l1.693-1.025a.371.371,0,1,0-.385-.635l-1.693,1.025a.371.371,0,0,0,.193.689Zm3.387-2.05a.37.37,0,0,0,.192-.054l1.694-1.025a.371.371,0,1,0-.385-.635l-1.694,1.025a.371.371,0,0,0,.193.689Zm3.387-2.05a.371.371,0,0,0,.192-.053l1.694-1.025a.371.371,0,0,0-.385-.635l-1.694,1.025a.371.371,0,0,0,.193.689Zm3.387-2.05a.37.37,0,0,0,.192-.053l1.694-1.024a.371.371,0,0,0-.384-.635l-1.694,1.024a.371.371,0,0,0,.192.689Zm3.388-2.05a.371.371,0,0,0,.192-.054l1.693-1.025a.371.371,0,1,0-.385-.635l-1.693,1.025a.371.371,0,0,0,.193.689Zm3.387-2.05a.374.374,0,0,0,.192-.053l1.694-1.025a.371.371,0,1,0-.385-.635l-1.693,1.025a.371.371,0,0,0,.193.689Zm3.388-2.05a.376.376,0,0,0,.192-.053l1.693-1.025a.371.371,0,0,0-.385-.635l-1.693,1.025a.371.371,0,0,0,.193.689Zm3.387-2.05a.366.366,0,0,0,.191-.054l1.694-1.024a.371.371,0,0,0-.384-.635l-1.694,1.025a.371.371,0,0,0,.192.689Zm3.387-2.05a.373.373,0,0,0,.192-.053l1.694-1.025a.371.371,0,0,0-.384-.635l-1.694,1.025a.371.371,0,0,0,.192.689Zm3.388-2.049a.371.371,0,0,0,.191-.054l1.694-1.025a.371.371,0,0,0-.385-.635l-1.693,1.025a.371.371,0,0,0,.193.689Zm3.387-2.05a.372.372,0,0,0,.192-.054l1.694-1.025a.371.371,0,0,0-.385-.635l-1.693,1.025a.371.371,0,0,0,.193.689Zm3.388-2.05a.371.371,0,0,0,.191-.053l1.694-1.025a.371.371,0,0,0-.384-.635l-1.694,1.025a.371.371,0,0,0,.193.689Z" transform="translate(-1942.491 -1089.327)" fill="#fff"/>
          <path id="Trazado_1874" data-name="Trazado 1874" d="M1999.231,1197.831a.369.369,0,0,0,.172-.043l1.752-.921a.371.371,0,0,0-.345-.658l-1.753.921a.371.371,0,0,0,.173.7Zm3.5-1.842a.366.366,0,0,0,.172-.042l1.753-.921a.371.371,0,1,0-.345-.657l-1.753.921a.371.371,0,0,0,.173.7Zm3.505-1.842a.369.369,0,0,0,.172-.043l1.753-.921a.371.371,0,0,0-.345-.657l-1.752.92a.371.371,0,0,0,.173.7Zm3.5-1.842a.364.364,0,0,0,.172-.043l1.753-.921a.371.371,0,0,0-.345-.657l-1.752.921a.371.371,0,0,0,.173.7Zm3.5-1.842a.373.373,0,0,0,.172-.042l1.752-.921a.371.371,0,1,0-.345-.657l-1.753.921a.371.371,0,0,0,.173.7Zm3.5-1.842a.367.367,0,0,0,.172-.043l1.752-.921a.371.371,0,1,0-.345-.658l-1.752.921a.371.371,0,0,0,.173.7Zm3.5-1.842a.368.368,0,0,0,.172-.043l1.753-.921a.371.371,0,1,0-.345-.657l-1.753.921a.371.371,0,0,0,.173.7Zm3.5-1.843a.365.365,0,0,0,.172-.043l1.753-.921a.371.371,0,1,0-.345-.657l-1.752.921a.371.371,0,0,0,.173.7Zm3.505-1.842a.368.368,0,0,0,.172-.043l1.752-.921a.371.371,0,1,0-.345-.657l-1.752.921a.371.371,0,0,0,.173.7Zm3.5-1.843a.365.365,0,0,0,.172-.043l1.753-.921a.371.371,0,0,0-.345-.657l-1.753.921a.371.371,0,0,0,.173.7Zm3.5-1.842a.365.365,0,0,0,.172-.043l1.753-.921a.371.371,0,0,0-.345-.657l-1.752.921a.371.371,0,0,0,.173.7Zm3.505-1.843a.367.367,0,0,0,.172-.043l1.752-.92a.371.371,0,0,0-.345-.658l-1.752.921a.371.371,0,0,0,.173.7Zm3.5-1.842a.367.367,0,0,0,.172-.042l1.752-.921a.371.371,0,1,0-.345-.657l-1.752.921a.371.371,0,0,0,.173.7Zm3.5-1.842a.373.373,0,0,0,.172-.043l1.752-.921a.371.371,0,1,0-.345-.657l-1.752.921a.371.371,0,0,0,.173.7Zm3.5-1.842a.369.369,0,0,0,.172-.043l1.752-.921a.371.371,0,1,0-.345-.657l-1.752.921a.371.371,0,0,0,.173.7Zm3.5-1.842a.372.372,0,0,0,.172-.043l1.752-.921a.371.371,0,1,0-.345-.657l-1.752.921a.371.371,0,0,0,.173.7Zm3.5-1.843a.366.366,0,0,0,.172-.042l1.752-.921a.371.371,0,0,0-.345-.657l-1.752.921a.371.371,0,0,0,.173.7Zm3.5-1.842a.371.371,0,0,0,.172-.043l1.752-.921a.371.371,0,1,0-.345-.657l-1.751.921a.371.371,0,0,0,.173.7Zm3.5-1.843a.368.368,0,0,0,.172-.042l1.752-.921a.371.371,0,0,0-.345-.657l-1.752.921a.371.371,0,0,0,.173.7Zm3.5-1.842a.372.372,0,0,0,.172-.043l1.753-.921a.371.371,0,0,0-.345-.657l-1.752.921a.371.371,0,0,0,.173.7Zm3.505-1.843a.365.365,0,0,0,.172-.042l1.752-.921a.371.371,0,0,0-.345-.657l-1.751.921a.371.371,0,0,0,.173.7Zm3.5-1.842a.369.369,0,0,0,.172-.043l1.752-.921a.371.371,0,1,0-.345-.657l-1.752.921a.371.371,0,0,0,.173.7Zm3.5-1.842a.372.372,0,0,0,.172-.043l1.752-.921a.371.371,0,0,0-.345-.657l-1.752.921a.371.371,0,0,0,.173.7Zm3.5-1.843a.364.364,0,0,0,.172-.043l1.752-.921a.371.371,0,0,0-.345-.657l-1.752.921a.371.371,0,0,0,.173.7Zm3.5-1.842a.369.369,0,0,0,.172-.042l1.753-.921a.371.371,0,0,0-.345-.657l-1.753.921a.371.371,0,0,0,.174.7Zm3.5-1.842a.365.365,0,0,0,.172-.043l1.752-.921a.371.371,0,1,0-.345-.657l-1.752.921a.371.371,0,0,0,.173.7Zm3.5-1.842a.372.372,0,0,0,.172-.043l1.752-.921a.371.371,0,0,0-.345-.658l-1.752.921a.371.371,0,0,0,.173.7Zm3.5-1.843a.367.367,0,0,0,.172-.043l1.752-.92a.371.371,0,0,0-.345-.658l-1.753.921a.371.371,0,0,0,.173.7Zm3.5-1.842a.371.371,0,0,0,.172-.042l1.753-.921a.371.371,0,0,0-.345-.657l-1.752.921a.371.371,0,0,0,.173.7Zm3.505-1.843a.364.364,0,0,0,.172-.043l1.752-.92a.371.371,0,0,0-.345-.658l-1.752.921a.371.371,0,0,0,.173.7Zm3.5-1.842a.369.369,0,0,0,.172-.042l1.752-.921a.371.371,0,1,0-.345-.657l-1.752.921a.371.371,0,0,0,.173.7Zm3.5-1.842a.366.366,0,0,0,.172-.043l1.752-.921a.371.371,0,0,0-.345-.658l-1.752.921a.371.371,0,0,0,.173.7Zm3.5-1.842a.368.368,0,0,0,.172-.042l1.752-.921a.371.371,0,1,0-.345-.657l-1.752.921a.371.371,0,0,0,.173.7Zm3.5-1.842a.363.363,0,0,0,.172-.043l1.753-.921a.371.371,0,0,0-.345-.658l-1.752.921a.371.371,0,0,0,.173.7Zm3.5-1.842a.366.366,0,0,0,.172-.042l1.753-.921a.371.371,0,1,0-.345-.657l-1.752.921a.371.371,0,0,0,.173.7Zm3.5-1.842a.373.373,0,0,0,.172-.043l1.752-.921a.371.371,0,1,0-.345-.658l-1.752.921a.371.371,0,0,0,.173.7Zm3.5-1.843a.367.367,0,0,0,.172-.042l1.753-.921a.371.371,0,1,0-.345-.657l-1.753.921a.371.371,0,0,0,.173.7Zm3.5-1.842a.371.371,0,0,0,.172-.043l1.752-.921a.371.371,0,1,0-.345-.657l-1.753.921a.371.371,0,0,0,.173.7Zm3.5-1.843a.366.366,0,0,0,.172-.042l1.752-.921a.371.371,0,1,0-.345-.657l-1.752.921a.371.371,0,0,0,.173.7Zm3.5-1.842a.372.372,0,0,0,.172-.043l1.752-.921a.371.371,0,1,0-.345-.657l-1.753.921a.371.371,0,0,0,.173.7Zm3.5-1.842a.368.368,0,0,0,.172-.042l1.752-.921a.371.371,0,1,0-.344-.658l-1.753.921a.371.371,0,0,0,.173.7Zm3.5-1.842a.371.371,0,0,0,.172-.043l1.752-.921a.371.371,0,1,0-.345-.657l-1.752.921a.371.371,0,0,0,.173.7Zm3.5-1.842a.365.365,0,0,0,.172-.042l1.752-.921a.371.371,0,1,0-.345-.657l-1.752.921a.371.371,0,0,0,.173.7Zm3.5-1.842a.37.37,0,0,0,.172-.042l1.753-.921a.371.371,0,0,0-.345-.657l-1.752.921a.371.371,0,0,0,.173.7Zm3.5-1.842a.367.367,0,0,0,.172-.042l1.752-.921a.371.371,0,1,0-.345-.657l-1.752.921a.371.371,0,0,0,.173.7Zm3.5-1.842a.372.372,0,0,0,.172-.043l1.752-.921a.371.371,0,0,0-.345-.657l-1.752.92a.371.371,0,0,0,.173.7Zm3.5-1.842a.366.366,0,0,0,.172-.043l1.752-.921a.371.371,0,0,0-.345-.658l-1.752.921a.371.371,0,0,0,.173.7Zm3.505-1.842a.367.367,0,0,0,.172-.042l1.752-.921a.371.371,0,1,0-.345-.657l-1.752.921a.371.371,0,0,0,.173.7Zm3.5-1.843a.371.371,0,0,0,.172-.042l1.752-.921a.371.371,0,0,0-.345-.658l-1.752.921a.371.371,0,0,0,.173.7Zm3.5-1.842a.367.367,0,0,0,.172-.043l1.752-.921a.371.371,0,1,0-.345-.657l-1.753.921a.371.371,0,0,0,.173.7Zm3.5-1.842a.371.371,0,0,0,.172-.042l1.752-.921a.371.371,0,1,0-.345-.657l-1.752.921a.371.371,0,0,0,.173.7Zm3.5-1.842a.365.365,0,0,0,.172-.043l1.752-.921a.371.371,0,0,0-.345-.657l-1.752.921a.371.371,0,0,0,.173.7Zm3.5-1.842a.372.372,0,0,0,.172-.042l1.753-.921a.371.371,0,0,0-.345-.657l-1.752.92a.371.371,0,0,0,.173.7Zm3.5-1.842a.366.366,0,0,0,.172-.043l1.752-.921a.371.371,0,1,0-.345-.657l-1.752.921a.371.371,0,0,0,.173.7Zm3.5-1.842a.372.372,0,0,0,.172-.043l1.753-.921a.371.371,0,0,0-.345-.657l-1.753.92a.371.371,0,0,0,.173.7Zm3.5-1.842a.366.366,0,0,0,.172-.042l1.752-.921a.371.371,0,0,0-.345-.657l-1.753.921a.371.371,0,0,0,.173.7Zm3.505-1.842a.368.368,0,0,0,.172-.042l1.752-.921a.371.371,0,1,0-.345-.657l-1.752.921a.371.371,0,0,0,.173.7Zm3.5-1.842a.367.367,0,0,0,.172-.043l1.752-.921a.371.371,0,1,0-.345-.658l-1.753.921a.371.371,0,0,0,.173.7Zm3.5-1.842a.366.366,0,0,0,.172-.042l1.753-.921a.371.371,0,1,0-.345-.657l-1.752.921a.371.371,0,0,0,.173.7Z" transform="translate(-1962.897 -1089.327)" fill="#fff"/>
        </g>
      </g>
    </g>
    <g id="Grupo_3371" data-name="Grupo 3371" transform="translate(-23 790.011)" opacity="0.879">
      <path id="Trazado_1971" data-name="Trazado 1971" d="M1443.036,791.646c-.125.242-.2.385-.2.385s.557.347,1.455.877A9.2,9.2,0,0,1,1443.036,791.646Z" transform="translate(-1030.885 3266.144)" fill="#42727d" opacity="0.2"/>
      <path id="Trazado_1973" data-name="Trazado 1973" d="M997.548,717.4l-16.51-9.541c-8.545-4.938-16.108-7.579-19.877-1.9-2.392,3.605.065,9.068,5.488,12.2l27.815,16.074c5.423,3.134,11.758,2.752,14.15-.853C1012.383,727.7,1006.093,722.336,997.548,717.4Z" transform="translate(-687.879 3329.326)" fill="#fffffc"/>
      <g id="Grupo_3365" data-name="Grupo 3365" transform="translate(273.307 4146.167)">
        <rect id="Rectángulo_941" data-name="Rectángulo 941" width="16.814" height="42.213" transform="translate(17.263 10.695)" fill="#fffffc"/>
        <rect id="Rectángulo_942" data-name="Rectángulo 942" width="16.814" height="46.744" transform="translate(299.727 10.695)" fill="#fffffc"/>
        <rect id="Rectángulo_943" data-name="Rectángulo 943" width="296.435" height="29.393" transform="translate(20.106 10.695)" fill="#fffffc"/>
        <g id="Grupo_3359" data-name="Grupo 3359" transform="translate(0 49.074)">
          <g id="Grupo_3356" data-name="Grupo 3356" transform="translate(17.268)">
            <g id="Grupo_3355" data-name="Grupo 3355">
              <path id="Trazado_1974" data-name="Trazado 1974" d="M1023.2,1291.1a16.8,16.8,0,0,0,16.8-16.8v-7.445h-16.8Z" transform="translate(-1023.197 -1266.851)" fill="#fff"/>
            </g>
          </g>
          <g id="Grupo_3357" data-name="Grupo 3357" transform="translate(0 8.445)">
            <circle id="Elipse_558" data-name="Elipse 558" cx="13.845" cy="13.845" r="13.845" transform="translate(0 27.677) rotate(-88.253)" fill="#1c5161"/>
          </g>
          <g id="Grupo_3358" data-name="Grupo 3358" transform="translate(5.313 13.758)">
            <path id="Trazado_1975" data-name="Trazado 1975" d="M990.814,1314.417a8.947,8.947,0,1,0,8.947,8.948A8.948,8.948,0,0,0,990.814,1314.417Z" transform="translate(-981.867 -1314.417)" fill="#95c7d6"/>
          </g>
        </g>
        <g id="Grupo_3364" data-name="Grupo 3364" transform="translate(282.502 49.074)">
          <g id="Grupo_3361" data-name="Grupo 3361" transform="translate(17.249)">
            <g id="Grupo_3360" data-name="Grupo 3360">
              <path id="Trazado_1976" data-name="Trazado 1976" d="M1999.82,1291.1a16.8,16.8,0,0,0,16.8-16.8v-7.445h-16.8Z" transform="translate(-1999.82 -1266.851)" fill="#fff"/>
            </g>
          </g>
          <g id="Grupo_3362" data-name="Grupo 3362" transform="translate(0 8.464)">
            <circle id="Elipse_559" data-name="Elipse 559" cx="13.845" cy="13.845" r="13.845" transform="translate(0 27.678) rotate(-88.333)" fill="#1c5161"/>
          </g>
          <g id="Grupo_3363" data-name="Grupo 3363" transform="translate(5.295 13.758)">
            <path id="Trazado_1977" data-name="Trazado 1977" d="M1967.437,1314.417a8.947,8.947,0,1,0,8.947,8.948A8.947,8.947,0,0,0,1967.437,1314.417Z" transform="translate(-1958.49 -1314.417)" fill="#95c7d6"/>
          </g>
        </g>
        <rect id="Rectángulo_944" data-name="Rectángulo 944" width="265.65" height="10.695" transform="translate(34.077)" fill="#cfe1e6"/>
      </g>
      <g id="Grupo_3366" data-name="Grupo 3366" transform="translate(245.235 4032.701)">
        <path id="Trazado_1978" data-name="Trazado 1978" d="M1225.731,771.2h-243.1l-95.946-64.1a13.013,13.013,0,1,0-14.457,21.642l104.016,69.581h248.266c7.187,0,14.233-6.925,14.233-14.111A13.014,13.014,0,0,0,1225.731,771.2Z" transform="translate(-866.443 -704.906)" fill="#b3d8e3"/>
      </g>
      <g id="Grupo_3367" data-name="Grupo 3367" transform="translate(245.238 4040.539)" opacity="0.6">
        <path id="Trazado_1979" data-name="Trazado 1979" d="M1225.738,790.457H1001.881a10.081,10.081,0,0,1,.329,1.933c.388,4.9-1.823,10.019-6.362,12.267-4.469,2.213-9.547,1.7-14.242.546a78.93,78.93,0,0,1-12.746-4.692c-4.181-1.841-8.262-3.905-12.287-6.064-6.332-3.4-12.474-7.106-18.678-10.725-11.228-6.549-22.643-12.713-33.547-19.811-12.658-8.24-25.162-17.431-35.109-28.892a8.448,8.448,0,0,1-1.71-3.017,13.016,13.016,0,0,0,4.708,16l104.016,69.581h248.266c7.187,0,14.233-6.925,14.233-14.111A13.014,13.014,0,0,0,1225.738,790.457Z" transform="translate(-866.454 -732.003)" fill="#95c7d6"/>
      </g>
      <g id="Grupo_3368" data-name="Grupo 3368" transform="translate(262.114 4075.093)">
        <path id="Trazado_1980" data-name="Trazado 1980" d="M924.8,855.237l46.351,62.682,5.3-3.768L930.1,851.469Z" transform="translate(-924.797 -851.469)" fill="#fffffc"/>
      </g>
      <rect id="Rectángulo_945" data-name="Rectángulo 945" width="420.016" height="13.013" transform="translate(219.48 4133.153)" fill="#fffffc"/>
      <g id="Grupo_3369" data-name="Grupo 3369" transform="translate(232.222 4050.306)">
        <path id="Trazado_1981" data-name="Trazado 1981" d="M1215.724,841.3H944.048L832.84,767a7.321,7.321,0,0,0-8.133,12.175l114.9,76.761h276.116a7.32,7.32,0,0,0,0-14.64Z" transform="translate(-821.452 -765.773)" fill="#fffffc"/>
      </g>
      <path id="Trazado_1982" data-name="Trazado 1982" d="M2195.9,827.243a5.684,5.684,0,0,0-5.684,5.684v72.4h11.368v-72.4A5.683,5.683,0,0,0,2195.9,827.243Z" transform="translate(-1562.086 3240.843)" fill="#fffffc"/>
      <path id="Trazado_1983" data-name="Trazado 1983" d="M745.475,607.4a7.9,7.9,0,0,0-7.9,7.9V749.068h15.808V615.3A7.9,7.9,0,0,0,745.475,607.4Z" transform="translate(-529.612 3397.098)" fill="#fffffc"/>
      <path id="Trazado_1985" data-name="Trazado 1985" d="M1383.922,958.03a101.952,101.952,0,0,1-22.624-.762,9.428,9.428,0,0,1-4.1-1.328,7.488,7.488,0,0,1-.994-.436v17.121h50.334q-.109-11.242-.265-22.484C1400.271,955.461,1391.9,957.3,1383.922,958.03Z" transform="translate(-969.312 3153.493)" fill="#95c7d6" opacity="0.3"/>
      <g id="Grupo_3370" data-name="Grupo 3370" transform="translate(220.836 4075.608)">
        <path id="Trazado_1986" data-name="Trazado 1986" d="M998.466,853.247H801.859a19.793,19.793,0,0,0-19.771,19.771v37.774a3.254,3.254,0,0,0,3.253,3.253h229.641a3.253,3.253,0,0,0,3.254-3.253V873.018A19.793,19.793,0,0,0,998.466,853.247Zm13.263,54.292H788.595V873.018a13.279,13.279,0,0,1,13.264-13.264H998.466a13.279,13.279,0,0,1,13.263,13.264Z" transform="translate(-782.088 -853.247)" fill="#fffffc"/>
      </g>
    </g>
  </g>
</svg>
