<svg id="Capa_1" data-name="Capa 1" xmlns="http://www.w3.org/2000/svg" viewBox="0 0 542.74 454.05"><defs><style>.cls-1,.cls-2,.cls-3{fill:#fefefe;}.cls-1{opacity:0.64;}.cls-1,.cls-11,.cls-13,.cls-2,.cls-21,.cls-24,.cls-32,.cls-34,.cls-38,.cls-41,.cls-43,.cls-45,.cls-5,.cls-7{isolation:isolate;}.cls-13,.cls-2,.cls-38,.cls-43,.cls-45{opacity:0.5;}.cls-4{fill:#e8eff2;}.cls-5{fill:#5999a8;}.cls-21,.cls-5{opacity:0.1;}.cls-6{fill:#28a2db;}.cls-18,.cls-7{fill:#42727d;}.cls-17,.cls-7{opacity:0.2;}.cls-8{fill:#d69674;}.cls-9{fill:#17b0c7;}.cls-10{fill:#00a0a6;}.cls-11,.cls-12,.cls-13{fill:#fff;}.cls-11,.cls-34,.cls-41{opacity:0.3;}.cls-14{fill:#c0e1e3;}.cls-15{fill:#be1622;}.cls-16{fill:#2e9fd4;}.cls-19{fill:#cfe1e6;}.cls-20{fill:#623e3b;}.cls-22{fill:#fffffc;}.cls-23{fill:#bceaf2;}.cls-24{opacity:0.07;}.cls-25{fill:#127d9d;}.cls-26{fill:#a6b1ba;}.cls-27{fill:#1c5161;}.cls-28,.cls-32,.cls-34{fill:#95c7d6;}.cls-29{fill:#879299;}.cls-30{fill:#b3d8e3;}.cls-31,.cls-32{opacity:0.6;}.cls-33{fill:#f0f9fb;}.cls-35{fill:none;}.cls-36,.cls-41,.cls-45{fill:#eaeef0;}.cls-37,.cls-38{fill:#d6dce2;}.cls-39{fill:#ccd3db;}.cls-40{fill:#db9165;}.cls-42{fill:#00758a;}.cls-43{fill:#6791af;}.cls-44{fill:#1c547a;}.cls-46{fill:#0082a3;}.cls-47{fill:#235670;}.cls-48{fill:#006173;}.cls-49{fill:#00808a;}</style></defs><g id="Grupo_1454" data-name="Grupo 1454"><g id="Grupo_1448" data-name="Grupo 1448"><path id="Trazado_7440" data-name="Trazado 7440" class="cls-1" d="M109.7,193.2c9.68,96.21,157.37,266.17,256.49,256.2S478.34,253.31,468.66,157.1,370.79-9,271.66,1,100,97,109.7,193.2Z" transform="translate(0 0)"/><path id="Trazado_7441" data-name="Trazado 7441" class="cls-2" d="M74,350.29c25.74,55.43,142.46,73.71,238.86,58s249-87.3,227.92-216.56c-8.19-50.31-61.5-140.55-260.55-81.18C169.74,143.51,38.43,273.72,74,350.29Z" transform="translate(0 0)"/><path id="Trazado_7442" data-name="Trazado 7442" class="cls-3" d="M29.72,186.75c0,96.39,173.48,201.66,269.18,201.66S497.43,283.14,497.43,186.75,457.06,25.1,315.73,98.18C230.59,142.2,29.72,90.36,29.72,186.75Z" transform="translate(0 0)"/><path id="Trazado_7444" data-name="Trazado 7444" class="cls-2" d="M57.38,304.79c5.5-10.23-3.91-40.37-19.14-48.56s-30.53,8.67-36,18.91S4.6,300.3,19.84,308.49,51.89,315,57.38,304.79Z" transform="translate(0 0)"/><path id="Trazado_7445" data-name="Trazado 7445" class="cls-2" d="M458.59,47c-3.42,6.36,4,25.9,14.63,31.63S493.74,74,497.15,67.66s-2.45-16.14-13.1-21.86S462,40.61,458.59,47Z" transform="translate(0 0)"/></g><g id="Grupo_1450" data-name="Grupo 1450"><g id="Grupo_1169" data-name="Grupo 1169"><g id="Grupo_1135" data-name="Grupo 1135"><path id="Trazado_6202" data-name="Trazado 6202" class="cls-4" d="M184.13,110.14a5,5,0,0,1,6.8,1.88h0l.06.11,2.4,4.25c.41.7.83,1.39,1.24,2.08l1.25,2.08,1.28,2c.44.68.85,1.37,1.3,2l1.33,2c.44.67.9,1.31,1.36,2s.9,1.3,1.37,1.92l1.41,1.88c.47.62,1,1.22,1.44,1.83s1,1.18,1.46,1.77l0,0c.23-.35.45-.7.66-1.07a41.5,41.5,0,0,0,3.53-8.19,72.06,72.06,0,0,0,2.29-9.38c.28-1.61.52-3.24.71-4.87.1-.81.18-1.62.25-2.42l.09-1.18,0-.56v-.42h0v0a13.29,13.29,0,0,1,.18-1.56,12,12,0,0,1,23.56,4,1.55,1.55,0,0,0,0,.21l0,.29-.05.27-.05.23-.09.43-.18.81c-.12.53-.24,1-.37,1.56-.26,1-.52,2-.81,3-.56,2-1.18,4-1.86,5.94a94,94,0,0,1-4.9,11.62c-1,1.91-2.05,3.81-3.24,5.68a53.45,53.45,0,0,1-4,5.5c-.74.89-1.53,1.77-2.37,2.63a35.25,35.25,0,0,1-2.67,2.48,31.58,31.58,0,0,1-3,2.28,33.08,33.08,0,0,1-3.36,2l-.73.37a7.91,7.91,0,0,1-8.85-1.24l-.18-.16-.09-.08,0,0,0,0-.19-.19-.18-.19-.16-.17-.58-.65-.5-.61c-.17-.2-.33-.41-.48-.6-.3-.4-.62-.8-.9-1.19l-.84-1.17c-.27-.39-.52-.78-.78-1.17s-.52-.78-.76-1.17c-.48-.78-1-1.55-1.42-2.34s-.92-1.55-1.33-2.34-.85-1.56-1.26-2.34l-1.19-2.36c-.4-.78-.75-1.57-1.13-2.36s-.75-1.58-1.09-2.37l-1.05-2.37c-.35-.79-.66-1.6-1-2.39l-1-2.38-.92-2.4-.91-2.4-1.7-4.8A5,5,0,0,1,184.13,110.14Z" transform="translate(0 0)"/><path id="Trazado_6203" data-name="Trazado 6203" class="cls-5" d="M187.86,125.19c4.11,6.35,7.48,14,13.95,18.33a10.8,10.8,0,0,0,8.42,1.56c3.67-.81,6.19-4,7.31-7.43,1.38-4.23.5-8.63.83-13a70.46,70.46,0,0,1,2.18-8.09,46.35,46.35,0,0,0,2.12-11,7.26,7.26,0,0,0-3.7-6.55,11.95,11.95,0,0,1,19.15,11.52l-.05.28,0,.28-.05.23-.08.43-.18.81c-.12.53-.25,1-.38,1.56-.25,1-.52,2-.8,3-.57,2-1.19,4-1.87,5.93a92,92,0,0,1-4.9,11.63c-1,1.91-2,3.81-3.23,5.68a56.63,56.63,0,0,1-4,5.5c-.75.89-1.54,1.77-2.37,2.63s-1.73,1.68-2.67,2.48a33,33,0,0,1-3,2.28,32.09,32.09,0,0,1-3.35,1.95l-.74.37a7.89,7.89,0,0,1-8.85-1.23l-.17-.16-.09-.08,0,0,0,0-.18-.18-.18-.19c-.07-.06-.12-.13-.17-.18l-.57-.64-.5-.61-.49-.6-.9-1.19-.83-1.17c-.28-.39-.53-.78-.79-1.17s-.52-.78-.75-1.17c-.48-.78-1-1.55-1.43-2.34s-.92-1.55-1.33-2.34-.85-1.56-1.26-2.34l-1.19-2.36c-.4-.78-.75-1.58-1.13-2.36s-.75-1.58-1.09-2.37l-1-2.38c-.36-.78-.66-1.59-1-2.38l-1-2.38-.91-2.4c-.3-.8-.62-1.6-.91-2.4l-1.71-4.81a5,5,0,0,1-.21-2.54A68.77,68.77,0,0,0,187.86,125.19Z" transform="translate(0 0)"/><path id="Trazado_6204" data-name="Trazado 6204" class="cls-6" d="M214.27,331.81a39.34,39.34,0,0,0,8.5-5.86l10.46.12s3.92,8.93,1.47,12.15H210.83S210.21,333.64,214.27,331.81Z" transform="translate(0 0)"/><path id="Trazado_6205" data-name="Trazado 6205" class="cls-7" d="M228.89,333.49a7.6,7.6,0,0,0,.16-7.46l4.18.05s3.92,8.92,1.47,12.14H224.59A15.56,15.56,0,0,0,228.89,333.49Z" transform="translate(0 0)"/><path id="Trazado_6206" data-name="Trazado 6206" class="cls-6" d="M252.12,331.81a21.35,21.35,0,0,0,7.11-5.87l11.84.13s3.92,8.92,1.47,12.15H248.67S248.05,333.64,252.12,331.81Z" transform="translate(0 0)"/><path id="Trazado_6207" data-name="Trazado 6207" class="cls-7" d="M266.42,331.62a8.27,8.27,0,0,0-.63-5.6l5.28.06s3.92,8.92,1.47,12.15H262.28A11.79,11.79,0,0,0,266.42,331.62Z" transform="translate(0 0)"/><path id="Trazado_6208" data-name="Trazado 6208" class="cls-4" d="M260.7,98.51c9.15,3.94,11.61,13.64,10.37,22.08l-10.55,45.69-36.43,2.63s-7.08-38.42-7.27-44.67-2.29-13.92-.71-18.24C222.6,88.23,243.63,91.17,260.7,98.51Z" transform="translate(0 0)"/><path id="Trazado_6209" data-name="Trazado 6209" class="cls-4" d="M244.48,208.86c-2.79,7.78-9.89,61.8-8.22,97.08.68,14.36-3,20.14-3,20.14L222.76,326s-5.95,0-8.56-38.61a494.58,494.58,0,0,1,3.36-95.23C224.17,175.5,244.48,208.86,244.48,208.86Z" transform="translate(0 0)"/><path id="Trazado_6210" data-name="Trazado 6210" class="cls-4" d="M260.3,164.31c12.39,21.65,9.31,46.34,9,48.79-.23,13-1.27,26.2-1.18,38.18.16,20.37,5.07,39.57,5.26,56.27.17,14.86-2.28,18.53-2.28,18.53l-11-.14c-9.55-9.07-19.7-83.36-22.75-107.33-12,1.74-22.78,3.22-22.78,3.22s3.75-50.24,9.57-58.87C231.34,152.21,260.3,164.31,260.3,164.31Z" transform="translate(0 0)"/><path id="Trazado_6211" data-name="Trazado 6211" class="cls-5" d="M241.85,162.48c6.23-9,8.68-20.23,9.25-30.43a38.65,38.65,0,0,0,11.38-9.36c2.87-3.58,5.51-7.44,5.68-12.2a11.42,11.42,0,0,0-1.76-6.15,24,24,0,0,0-1.53-2.07l-.7-.9a3,3,0,0,0-.16-.25,10.25,10.25,0,0,0-1.59-1.76c7.74,4.36,9.81,13.35,8.66,21.23l-10.56,45.7-33,11C229.33,176.34,240.66,164.18,241.85,162.48Z" transform="translate(0 0)"/><path id="Trazado_6212" data-name="Trazado 6212" class="cls-5" d="M224.25,324.25a7.68,7.68,0,0,0,4.5-2.15,7.43,7.43,0,0,0,2-3.46,98.54,98.54,0,0,0,1.52-18.7c-1.56-39.67,6.78-88.34,7.5-89.62.3-.53.6-1,.92-1.56-.73,9.72-1,19.48-1,29.23-2.4,20.43-4.41,47.38-3.43,67.95.68,14.36-3,20.13-3,20.13L222.77,326s-.83,0-2-2A8.42,8.42,0,0,0,224.25,324.25Z" transform="translate(0 0)"/><path id="Trazado_6213" data-name="Trazado 6213" class="cls-5" d="M263.63,187.34c-1.7-6-4.92-12.4-10.81-15a21.54,21.54,0,0,0,5.11-9c1.49.55,2.38.92,2.38.92,12.39,21.65,9.31,46.33,9,48.79-.23,13-1.27,26.2-1.17,38.18.16,20.37,5.07,39.57,5.25,56.27.17,14.86-2.28,18.53-2.28,18.53l-11-.14c-2.05-1.95-4.13-6.92-6.17-13.75a8.06,8.06,0,0,0,8.15,2.73c3.45-.78,5.59-4.23,5.75-7.56.38-7.54-1-15-2.1-22.44a84.91,84.91,0,0,1-.77-11.15c0-3.38.19-6.76.35-10.14.84-17.31,2.08-34.65,1.44-52C266.4,203.55,265.86,195.15,263.63,187.34Z" transform="translate(0 0)"/><path id="Trazado_6214" data-name="Trazado 6214" class="cls-4" d="M237.65,49.59c9.26,0,18.5,1.86,19,19.63.56,21.8-8.4,29.87-8.4,29.87s-7.14,4-18.55-2.27c-5.31-2.92-6.07-26.92-5.72-31.74C224.58,56.37,224.81,49.56,237.65,49.59Z" transform="translate(0 0)"/><path id="Trazado_6215" data-name="Trazado 6215" class="cls-5" d="M225.46,66.86a29.71,29.71,0,0,0,6.62-1.08c1.08,0,2.17-.1,3.25-.18a31,31,0,0,0,8-1.28,10.69,10.69,0,0,0,5.32-3.58c1.6-2.07,2.53-5.21,1.51-7.78-.07-.17-.14-.35-.22-.52,3.76,2.61,6.37,7.54,6.61,16.78.57,21.8-8.4,29.87-8.4,29.87s-7.13,4-18.54-2.27c-4.82-2.65-5.89-22.66-5.79-29.95C224.4,66.89,224.93,66.89,225.46,66.86Z" transform="translate(0 0)"/><path id="Trazado_6216" data-name="Trazado 6216" class="cls-8" d="M244.6,66.62s2.63,5.95,1.14,11.63-4.48,12.62-10.08,13.07-9.38-5.72-9.93-9.58.12-15.25.12-15.25C231.5,59.07,244.6,66.62,244.6,66.62Z" transform="translate(0 0)"/><path id="Trazado_6217" data-name="Trazado 6217" class="cls-9" d="M245.73,78.26s-2,14.08-11.72,13-8.55-13.71-8.55-13.71S228.86,70.79,245.73,78.26Z" transform="translate(0 0)"/><g id="Grupo_1129" data-name="Grupo 1129"><path id="Trazado_6218" data-name="Trazado 6218" class="cls-10" d="M261.39,162.69l.94,2.23c-5.87,2.45-12.68,3.24-19,3.24a91.6,91.6,0,0,1-20.61-2.38l.2-2.44C223.13,163.4,246.09,169.09,261.39,162.69Z" transform="translate(0 0)"/></g><g id="Grupo_1130" data-name="Grupo 1130"><path id="Trazado_6219" data-name="Trazado 6219" class="cls-10" d="M252.39,93.4l1,2.2a33.06,33.06,0,0,1-13.66,3.07,28.11,28.11,0,0,1-13.66-3.44,8.66,8.66,0,0,0,.71-2.39C228.87,94.12,239,99.43,252.39,93.4Z" transform="translate(0 0)"/></g><g id="Grupo_1131" data-name="Grupo 1131"><path id="Trazado_6220" data-name="Trazado 6220" class="cls-10" d="M228.29,124.49c.3-16.8,4.2-27.86,4.37-28.33l2.27.82c0,.11-3.94,11.15-4.23,27.55,0,2.07-.13,4.8-.24,8-.68,19.15-2.79,54.9,4.37,69.87h-1.22c-7.41-15.51-6.25-50.6-5.57-70C228.16,129.25,228.25,126.54,228.29,124.49Z" transform="translate(0 0)"/></g><path id="Trazado_6221" data-name="Trazado 6221" class="cls-4" d="M219.43,180.76c1.27-1.06,34.16-21.7,34.2-21.79s-3.93-35.74-4.84-42.32a11.34,11.34,0,0,1,20.81-7.91c2.57,4.12,1.83,9.86,1.91,14.49.12,7.25.05,29.5-.14,36.74-.16,6.13-4.65,10.19-8.53,13.2-10.58,8.26-28,14.34-41.33,15.23C217,188.7,216,183.64,219.43,180.76Z" transform="translate(0 0)"/><path id="Trazado_6222" data-name="Trazado 6222" class="cls-5" d="M236.73,183a47.53,47.53,0,0,0,12-5.72c3.27-2.2,6.19-4.87,9.29-7.3a38.38,38.38,0,0,0,8.33-8.26,13.66,13.66,0,0,0,2.35-7.3c.08-2.05,1.79-36.19-.48-47.45a11.34,11.34,0,0,1,1.35,1.75c2.56,4.12,1.83,9.86,1.91,14.5.12,7.24.05,29.5-.14,36.74-.16,6.12-4.66,10.18-8.53,13.2-10.59,8.26-28,14.34-41.33,15.22a4,4,0,0,1-3-.85,7.24,7.24,0,0,0,1.6-.27C222.55,186.57,234.24,183.8,236.73,183Z" transform="translate(0 0)"/><g id="Grupo_1133" data-name="Grupo 1133"><path id="Trazado_6223" data-name="Trazado 6223" class="cls-11" d="M247.37,93.52s-6.21,5.65-14.58,5-8.43-4.66-8.43-4.66l-1.27-28,26.68.27Z" transform="translate(0 0)"/><g id="Grupo_1132" data-name="Grupo 1132"><path id="Trazado_6224" data-name="Trazado 6224" class="cls-12" d="M223.09,65.3h0l26.67.27a.6.6,0,0,1,.6.6.09.09,0,0,1,0,0L248,93.58a.58.58,0,0,1-.19.39,22.11,22.11,0,0,1-13.7,5.25c-.44,0-.89,0-1.34,0-8.82-.65-9-5.07-9-5.24l-1.26-28a.59.59,0,0,1,.17-.45A.62.62,0,0,1,223.09,65.3ZM225,93.88s.24,3.52,7.87,4.08c7.25.53,12.91-3.86,14-4.73l2.32-26.46-25.39-.26Z" transform="translate(0 0)"/></g><path id="Trazado_6225" data-name="Trazado 6225" class="cls-13" d="M226.94,74.81c-.53,4.7-1.28,9.39-1.93,14.08l-.66,4.85L223.09,65.9l4.75,0C227.55,68.9,227.27,71.86,226.94,74.81Z" transform="translate(0 0)"/><path id="Trazado_6226" data-name="Trazado 6226" class="cls-13" d="M244.71,66.11l5,.06-2.39,27.35a22.12,22.12,0,0,1-6.52,3.8c.36-2.65.73-5.31,1.1-8C243,81.63,244,73.89,244.71,66.11Z" transform="translate(0 0)"/><path id="Trazado_6227" data-name="Trazado 6227" class="cls-14" d="M256,62.2l.46,3.63s-19.17,1.69-34.43.76l.12-3.89S236.71,62.8,256,62.2Z" transform="translate(0 0)"/></g><path id="Trazado_6228" data-name="Trazado 6228" class="cls-6" d="M206.57,183.32H217l1.66,2.87c1.81,9.27-8.33,7.26-8.33,7.26l-4.24,3.74-4-1.49a65.54,65.54,0,0,1-1.21-6.69C200.85,187.69,206.57,183.32,206.57,183.32Z" transform="translate(0 0)"/><path id="Trazado_6229" data-name="Trazado 6229" class="cls-7" d="M207.86,191.57c.07-.29.15-.57.23-.86v-.07l.13-.14.06,0,.25-.08c1.38-.37,2.82-.47,4.23-.71a14.69,14.69,0,0,0,5.18-2,8,8,0,0,0,.84-.6c1,8.2-8.47,6.33-8.47,6.33l-3,2.62a7.15,7.15,0,0,0,.46-2.46Q207.8,192.59,207.86,191.57Z" transform="translate(0 0)"/><path id="Trazado_6230" data-name="Trazado 6230" class="cls-6" d="M221.51,184.15a5.09,5.09,0,0,1,0,4.25l-2.67.44-7.59-5.52,7.87-1.86S220.46,181.88,221.51,184.15Z" transform="translate(0 0)"/><g id="Grupo_1134" data-name="Grupo 1134"><path id="Trazado_6231" data-name="Trazado 6231" class="cls-6" d="M178.09,94.35A4,4,0,0,1,176.21,93c-.53-.88-.07-1.36-.07-1.36s4.15-.48,5.47.22,4.83,5.25,5,5.66c1.3,2.66,1.9,11.72,1.9,11.72l.93,2.16.23.52a4.12,4.12,0,0,1-1.5,5.15l-.06,0a4.15,4.15,0,0,1-6.23-2.35l-.52-1.9a11.74,11.74,0,0,1-3.23-3.43c-.3-.92-2-5.48-2-5.48s1.22-2,2-3A49,49,0,0,1,182,97.39l-1.55-2.58Z" transform="translate(0 0)"/><path id="Trazado_6232" data-name="Trazado 6232" class="cls-7" d="M179.33,106.88a9.21,9.21,0,0,0,3.95,2.4,7.9,7.9,0,0,0,3.74.24,9.61,9.61,0,0,0,1.51-.3v.06l.94,2.16.23.52a4.14,4.14,0,0,1-1.51,5.15l-.05,0a4.12,4.12,0,0,1-6.23-2.36l-.53-1.9a11.88,11.88,0,0,1-3.23-3.43c-.3-.91-2-5.48-2-5.48s.34-.56.78-1.23A10.65,10.65,0,0,0,179.33,106.88Z" transform="translate(0 0)"/><path id="Trazado_6233" data-name="Trazado 6233" class="cls-6" d="M173.89,93.89s2-.13,2.21-.14S179.78,95,179.78,95l2.74,2.58-1.84,3-3.77-3.72-1.61-.52s-1.58-.41-1.83-1.14A1.2,1.2,0,0,1,173.89,93.89Z" transform="translate(0 0)"/><path id="Trazado_6234" data-name="Trazado 6234" class="cls-6" d="M173.46,96.71c.25-.07,3.17-.14,3.17-.14l2.44,1.63,1.06,2.16-2,.67-2.44-2.1s-1.77,0-2.27-.08a1.1,1.1,0,0,1-1-1.19.19.19,0,0,0,0-.08C172.67,96.67,173.22,96.78,173.46,96.71Z" transform="translate(0 0)"/><path id="Trazado_6235" data-name="Trazado 6235" class="cls-6" d="M174.12,99.72a4,4,0,0,1,1.86.1,15.39,15.39,0,0,1,2.29,1.72l-2.1,2.44a21.41,21.41,0,0,0-1.12-2c-.27-.32-1.38-.24-1.76-.53a1.19,1.19,0,0,1-.5-1.42A5,5,0,0,1,174.12,99.72Z" transform="translate(0 0)"/><path id="Trazado_6236" data-name="Trazado 6236" class="cls-14" d="M181.38,85.69l-.76,17.11a1.9,1.9,0,0,1-3.8-.17l.77-17.11Z" transform="translate(0 0)"/><path id="Trazado_6237" data-name="Trazado 6237" class="cls-10" d="M177.85,83l3.59.18a.49.49,0,0,1,.46.5l-.08,1.84a.49.49,0,0,1-.5.46h0l-3.64-.2a.47.47,0,0,1-.45-.5l.13-1.82A.48.48,0,0,1,177.85,83Z" transform="translate(0 0)"/><path id="Trazado_6238" data-name="Trazado 6238" class="cls-15" d="M180.17,91.05l-.45,11.7a1,1,0,0,1-1,1h0a1,1,0,0,1-1-1l.45-11.81Z" transform="translate(0 0)"/><path id="Trazado_6239" data-name="Trazado 6239" class="cls-6" d="M179.57,96.71c.19.2,4.49,4,4.71,4.1s.75,2,1.5,3a7.66,7.66,0,0,1,.89,3.25c.43,2.29-5.91-1.17-6-2a30.58,30.58,0,0,0-.37-3.58,10.8,10.8,0,0,0-2.43-2.39,2.68,2.68,0,0,1-.74-3.16C177.76,95.13,179.39,96.5,179.57,96.71Z" transform="translate(0 0)"/></g></g><g id="Grupo_1143" data-name="Grupo 1143"><g id="Grupo_1142" data-name="Grupo 1142"><path id="Trazado_6240" data-name="Trazado 6240" class="cls-4" d="M344.45,105.28A12,12,0,0,1,359,114.13v0l.16.68s0,0,0,.15l.1.59c.09.53.24,1.35.45,2.4.43,2.1,1.09,5.13,2.07,8.71a112,112,0,0,0,3.9,11.87c.83,2.08,1.76,4.17,2.79,6.16a41.41,41.41,0,0,0,3.35,5.52,24.6,24.6,0,0,0,1.84,2.24c.3.33.61.63.92.93h0l-.16-.11.05,0,.1.08,0,0-.05,0-.13-.08-.07,0-.05,0h-.12c-.09,0-.12,0-.1.05s.24.2.53.32a7.08,7.08,0,0,0,1.11.33,22.36,22.36,0,0,0,2.94.41,65.75,65.75,0,0,0,6.6.15c2.18,0,4.3-.13,6.27-.23,3.93-.21,7.27-.44,9.6-.6l3.67-.25a5.05,5.05,0,0,1,1.63,9.93h0l-3.56.94c-2.27.6-5.51,1.47-9.48,2.45-2,.49-4.16,1-6.52,1.51s-4.91,1-7.77,1.32a38.2,38.2,0,0,1-4.66.26,25.17,25.17,0,0,1-2.74-.16c-.5-.06-1-.13-1.55-.25a17.05,17.05,0,0,1-1.71-.42,14.72,14.72,0,0,1-1.91-.73c-.17-.07-.34-.16-.51-.24l-.26-.14a.68.68,0,0,1-.16-.09l-.17-.1-.35-.2-.16-.1-.05,0-.11-.06,0,0-.21-.15,0,0c-.75-.5-1.49-1-2.18-1.57a42.49,42.49,0,0,1-3.83-3.4,59.78,59.78,0,0,1-6.11-7.28c-1.77-2.47-3.32-4.94-4.72-7.35A130.18,130.18,0,0,1,341,134.18c-1.73-4-3-7.33-3.86-9.73-.42-1.2-.75-2.16-1-2.84l-.26-.8-.1-.33c-.06-.2-.12-.44-.17-.64A12.06,12.06,0,0,1,344.45,105.28Z" transform="translate(0 0)"/><path id="Trazado_6241" data-name="Trazado 6241" class="cls-5" d="M344.45,105.28a12,12,0,0,1,4.91-.16,7.85,7.85,0,0,0-1.27,1.6c-.9,1.55-1.51,4.3-.79,6,3.15,7.6,3.46,15.89,5.31,23.83,2.81,12,10.8,25.36,24,27.37,6.28.95,12.37.07,18.6-.92,4.81-.77,9.69-1.39,14.48-2.38a5,5,0,0,1-3.26,2.72h0l-3.55.94c-2.28.6-5.51,1.46-9.49,2.45-2,.49-4.16,1-6.52,1.51s-4.9,1-7.77,1.31a40.15,40.15,0,0,1-4.65.27,25,25,0,0,1-2.74-.17c-.5-.06-1-.13-1.55-.24a14.26,14.26,0,0,1-1.71-.43,14.67,14.67,0,0,1-1.91-.72l-.51-.25-.26-.13-.16-.09-.18-.1-.34-.21-.16-.1-.05,0-.11-.06,0,0-.21-.15,0,0c-.75-.5-1.48-1-2.17-1.57a42.49,42.49,0,0,1-3.83-3.4,59,59,0,0,1-6.11-7.28c-1.77-2.46-3.32-4.93-4.72-7.34A131.36,131.36,0,0,1,341,134.17c-1.73-4-3-7.33-3.86-9.73-.43-1.2-.75-2.16-1-2.84l-.26-.8-.1-.32c-.06-.2-.12-.44-.17-.65A12.05,12.05,0,0,1,344.45,105.28Z" transform="translate(0 0)"/><path id="Trazado_6242" data-name="Trazado 6242" class="cls-6" d="M345.3,326.78a39.13,39.13,0,0,0,8.48,5.87c4.05,1.82,3.43,6.41,3.43,6.41H333.38c-2.45-3.23,1.47-12.16,1.47-12.16Z" transform="translate(0 0)"/><path id="Trazado_6243" data-name="Trazado 6243" class="cls-7" d="M357.21,339.06h-2.29c.76,0,1.53-.12,2.31-.22C357.22,339,357.21,339.06,357.21,339.06Z" transform="translate(0 0)"/><path id="Trazado_6244" data-name="Trazado 6244" class="cls-7" d="M337.82,326.87a23.29,23.29,0,0,0,4.75,7.13,18.11,18.11,0,0,0,7,4.37,12.83,12.83,0,0,0,3.58.69H333.37c-2.45-3.23,1.47-12.16,1.47-12.16Z" transform="translate(0 0)"/><path id="Trazado_6245" data-name="Trazado 6245" class="cls-6" d="M308.88,326.77a21.33,21.33,0,0,0,7.09,5.88c4.06,1.82,3.44,6.41,3.44,6.41H295.57c-2.44-3.23,1.48-12.16,1.48-12.16Z" transform="translate(0 0)"/><path id="Trazado_6246" data-name="Trazado 6246" class="cls-7" d="M298.85,326.88a17.39,17.39,0,0,0,5.33,11.3c.31.3.63.59,1,.88h-9.56c-2.45-3.23,1.47-12.15,1.47-12.15Z" transform="translate(0 0)"/><path id="Trazado_6247" data-name="Trazado 6247" class="cls-4" d="M313,97.5c13.23-2.6,40.49-.45,44.87,18,1.06,4.48-1.9,11.86-2.82,18.05s-.73,20-3.13,25.39a73.64,73.64,0,0,0-4.64,13.31L305.08,170l-5.25-55C299.58,106.49,305.19,99,313,97.5Z" transform="translate(0 0)"/><path id="Trazado_6248" data-name="Trazado 6248" class="cls-5" d="M351.25,104.82a8,8,0,0,0-1.6.81l-1.19.41a28.48,28.48,0,0,1-4,1c-16,1.21-23.05-4.78-24.46-10.33C330.1,96.16,343.23,98,351.25,104.82Z" transform="translate(0 0)"/><path id="Trazado_6249" data-name="Trazado 6249" class="cls-4" d="M347.32,170.41c5.81,8.63,6.2,52.18,6.2,52.18s-53.25-7.14-55.84-8.53c0,0-2.91-27.62,8.32-49C306,165,340.07,159.65,347.32,170.41Z" transform="translate(0 0)"/><path id="Trazado_6250" data-name="Trazado 6250" class="cls-4" d="M352.55,199.11s2.44,44.67,1.29,89c-1,38.68-8.55,38.63-8.55,38.63l-10.45.12s-2-5.8-3-20.15c-2.39-32-5.42-89.35-8.21-97.14C323.6,209.61,346,182.49,352.55,199.11Z" transform="translate(0 0)"/><path id="Trazado_6251" data-name="Trazado 6251" class="cls-5" d="M308.39,117a60.88,60.88,0,0,0,10.88,4.36c.87.24,1.74.43,2.61.58C321.1,132,321,142.31,324.06,152A35.09,35.09,0,0,0,331.93,166c4.19,4.26,10.15,6.28,15.78,4.68-.27,1-.4,1.57-.4,1.57L305.08,170l-5.25-55a18.79,18.79,0,0,1,.07-2.25C302.76,114.11,305.55,115.6,308.39,117Z" transform="translate(0 0)"/><path id="Trazado_6252" data-name="Trazado 6252" class="cls-5" d="M329.36,210.66h.07c.08,3.69.5,7.39.92,10.94,1,8.28,2.3,16.44,2.16,24.81-.12,7.2-.63,14.4-.72,21.6a100.42,100.42,0,0,0,2,23.2,47,47,0,0,0,10.65,21.05,7.49,7.49,0,0,0,6.92,2.14c-2.55,12.4-6.09,12.38-6.09,12.38l-10.45.12s-2-5.8-3-20.15c-2.39-32-5.42-89.36-8.21-97.14l.73-.85A7.92,7.92,0,0,0,329.36,210.66Z" transform="translate(0 0)"/><path id="Trazado_6253" data-name="Trazado 6253" class="cls-4" d="M297.33,251.18c.17-20.78-2.56-39.17.9-59.83l33.46,20.59s-12.24,104-23.64,114.82l-11,.14s-2.44-3.67-2.27-18.54C295,291.66,297.17,271.56,297.33,251.18Z" transform="translate(0 0)"/><path id="Trazado_6254" data-name="Trazado 6254" class="cls-4" d="M344.9,55.68c12.54,2.69,13.56,11.37,12.34,20-.67,4.8-6.48,28.1-12.28,29.84-12.47,3.73-19.53-6.83-19.53-6.83s-7-4.87-1.83-26.07C327.81,55.35,335.86,53.75,344.9,55.68Z" transform="translate(0 0)"/><path id="Trazado_6255" data-name="Trazado 6255" class="cls-5" d="M334,56.12a9.34,9.34,0,0,0,1,4.64c1.08,2.4,3.7,4.33,5.8,5.73A31.44,31.44,0,0,0,348,69.92a17.62,17.62,0,0,0,9.21.81l.45-.11a34.4,34.4,0,0,1-.38,5.07c-.68,4.8-6.49,28.1-12.29,29.84-12.46,3.73-19.53-6.83-19.53-6.83s-7-4.87-1.82-26.07C326,62.78,329.64,58,334,56.12Z" transform="translate(0 0)"/><path id="Trazado_6256" data-name="Trazado 6256" class="cls-8" d="M355.08,76.67s-1.75,11.27-3.1,14.94-6.34,8.9-11.71,7.27-6.82-9-7.08-14.92,3.57-11.14,3.57-11.14S351.14,68.21,355.08,76.67Z" transform="translate(0 0)"/><path id="Trazado_6257" data-name="Trazado 6257" class="cls-9" d="M353.13,87.58s-1.55,12.59-11.24,11.59S333.19,84,333.19,84C347.75,82.5,353.13,87.58,353.13,87.58Z" transform="translate(0 0)"/><path id="Trazado_6258" data-name="Trazado 6258" class="cls-5" d="M332.1,194l.12,0a6.37,6.37,0,0,1-1.05.51l.54-.28C331.83,194.12,332,194.07,332.1,194Z" transform="translate(0 0)"/><g id="Grupo_1136" data-name="Grupo 1136"><path id="Trazado_6259" data-name="Trazado 6259" class="cls-5" d="M297.33,251.18c.17-20.78-2.56-39.17.9-59.83h0a84.55,84.55,0,0,1,5.41-21.28,15.26,15.26,0,0,0,6.87,3.55,51.37,51.37,0,0,0-7.81,17.44c-1.61,6.5-1.43,57.93-.85,68.3.6,10.85.6,21.72.33,32.58-.09,3.36-.47,6.6-.83,9.94-.39,3.66-.74,7.86.58,11.37,1.58,4.21,5.17,7.55,9.61,7.53a18.23,18.23,0,0,1-3.49,6l-11,.14s-2.45-3.67-2.28-18.55C295,291.66,297.17,271.56,297.33,251.18Z" transform="translate(0 0)"/></g><g id="Grupo_1137" data-name="Grupo 1137"><path id="Trazado_6260" data-name="Trazado 6260" class="cls-10" d="M348.46,169.93l.38,2.39a129.22,129.22,0,0,1-18.43,1.35c-9.09,0-19.64-1.09-27-5.22l1.18-2.11C319.05,174.48,348.16,170,348.46,169.93Z" transform="translate(0 0)"/></g><g id="Grupo_1138" data-name="Grupo 1138"><path id="Trazado_6261" data-name="Trazado 6261" class="cls-10" d="M349.51,100.85l-.14,2.53a24.79,24.79,0,0,1-6.76.7c-.64,0-1.31,0-2-.06-5.12-.3-12.18-1.27-19.18-7.4l1.07-2.49A29.33,29.33,0,0,0,349.51,100.85Z" transform="translate(0 0)"/></g><g id="Grupo_1139" data-name="Grupo 1139"><path id="Trazado_6262" data-name="Trazado 6262" class="cls-10" d="M341.28,132.19A102.66,102.66,0,0,0,340,102.76l2.35-.54a103.44,103.44,0,0,1,1.36,30.21c-.2,2-.42,4.75-.67,7.89-1.57,19.32-4.48,55.29-13.62,69.84h-.59c7.9-14.65,10.26-50.92,11.81-70C340.86,137,341.08,134.25,341.28,132.19Z" transform="translate(0 0)"/></g><path id="Trazado_6263" data-name="Trazado 6263" class="cls-4" d="M297.92,126c.36-4.41.77-8.06,1.08-10.63.15-1.29.29-2.3.38-3s.16-1.1.17-1.14A12,12,0,0,1,323,116.39h0s-.09.25-.26.85-.42,1.47-.73,2.61c-.62,2.27-1.48,5.56-2.4,9.51s-1.89,8.57-2.66,13.45c-.38,2.43-.71,4.93-.92,7.39-.11,1.23-.17,2.43-.21,3.61l0,.76V155l0,.52,0,.53v.43s0-.29,0-.14v0c0,.2,0,.4,0,.59A8.4,8.4,0,0,0,317,161a14.69,14.69,0,0,0,3.8,4,44.86,44.86,0,0,0,5.63,3.51c2,1.08,4,2.05,5.86,3l5.23,2.5c1.57.76,3,1.44,4.1,2s2,1,2.65,1.38l.9.48a5.05,5.05,0,0,1-4,9.23h0l-.95-.33c-.58-.19-1.48-.49-2.61-.84s-2.53-.78-4.16-1.26l-5.53-1.6c-2.05-.6-4.31-1.27-6.77-2.12a57.47,57.47,0,0,1-7.95-3.31,34.3,34.3,0,0,1-4.33-2.64,28,28,0,0,1-4.28-3.79,25,25,0,0,1-3.59-5.11,26.41,26.41,0,0,1-2.22-5.9c-.13-.5-.23-1-.33-1.49l0-.1c0,.13,0-.22,0-.2v0l0-.13-.05-.26-.1-.52-.1-.53-.09-.67-.18-1.35c-.19-1.62-.35-3.22-.43-4.76-.2-3.1-.24-6.06-.22-8.9C297.23,135.59,297.56,130.43,297.92,126Z" transform="translate(0 0)"/><path id="Trazado_6264" data-name="Trazado 6264" class="cls-5" d="M297.92,126c.36-4.41.77-8.06,1.08-10.63.15-1.29.29-2.3.38-3s.16-1.11.17-1.14a12,12,0,0,1,4.73-7.21,5,5,0,0,0-.67,1.73,207.62,207.62,0,0,0-2.5,20.81,99.76,99.76,0,0,0,.74,20.36,45.37,45.37,0,0,0,6,17.79A30.91,30.91,0,0,0,322.4,177c2.56,1.64,19.18,8.08,21.9,7.19a21.24,21.24,0,0,0,3.09.11,5,5,0,0,1-6.25,2.77h0l-.95-.33-2.61-.84c-1.14-.36-2.53-.78-4.15-1.26l-5.53-1.6c-2.06-.6-4.32-1.27-6.78-2.12a57.47,57.47,0,0,1-7.95-3.31,33.49,33.49,0,0,1-4.32-2.64,28.05,28.05,0,0,1-4.29-3.78,24.91,24.91,0,0,1-3.58-5.12,26,26,0,0,1-2.23-5.9c-.13-.5-.23-1-.33-1.49l0-.09c0,.12,0-.23,0-.2v0l0-.13-.05-.26-.1-.52-.1-.52-.09-.68-.18-1.34c-.19-1.62-.35-3.23-.43-4.77-.2-3.1-.24-6.06-.21-8.9C297.23,135.59,297.56,130.43,297.92,126Z" transform="translate(0 0)"/><g id="Grupo_1141" data-name="Grupo 1141"><path id="Trazado_6265" data-name="Trazado 6265" class="cls-11" d="M357.9,76.67l-7.15,27.12s-.91,3.95-9.21,2.77-13.17-8-13.17-8l3.44-27.26Z" transform="translate(0 0)"/><g id="Grupo_1140" data-name="Grupo 1140"><path id="Trazado_6266" data-name="Trazado 6266" class="cls-12" d="M331.21,71.21a.61.61,0,0,1,.67-.53h.05L358,76.08a.6.6,0,0,1,.47.71v0l-7.14,27.1c0,.16-.88,3.46-6.93,3.46a20.71,20.71,0,0,1-3-.23c-8.46-1.2-13.37-8-13.58-8.26a.6.6,0,0,1-.1-.43ZM341.63,106c4,.57,6.13-.11,7.21-.79a3,3,0,0,0,1.34-1.53l7-26.5L332.33,72,329,98.37c.84,1.08,5.43,6.57,12.63,7.59Z" transform="translate(0 0)"/></g><path id="Trazado_6267" data-name="Trazado 6267" class="cls-13" d="M352.26,84.57c.3-2.95.66-5.9,1-8.86l4.64,1-7.1,27c.13-1.62.25-3.25.37-4.88C351.53,94,351.79,89.29,352.26,84.57Z" transform="translate(0 0)"/><path id="Trazado_6268" data-name="Trazado 6268" class="cls-13" d="M336.75,72.3c-1,7.75-1.62,15.54-2.2,23.32-.2,2.68-.41,5.35-.61,8a22.17,22.17,0,0,1-5.57-5.1l3.44-27.26Z" transform="translate(0 0)"/><path id="Trazado_6269" data-name="Trazado 6269" class="cls-14" d="M359.51,73.75l-.71,3.83c-15.09-2.33-34.32-8.24-34.32-8.24l1.21-3.45C344.38,70.56,359.51,73.75,359.51,73.75Z" transform="translate(0 0)"/></g></g></g><path id="Trazado_6270" data-name="Trazado 6270" class="cls-16" d="M406.27,154a11.29,11.29,0,0,1,2.46-.82l1.66,7.18s-2.58,2.14-4.56-1.57C404.09,155.55,406.27,154,406.27,154Z" transform="translate(0 0)"/><g id="Grupo_1144" data-name="Grupo 1144"><path id="Trazado_6271" data-name="Trazado 6271" class="cls-6" d="M416.18,147.29a74.88,74.88,0,0,0,7.9-2s2.43,1.69-.16,3.09c-2.83,1.53-6.59,2-6,3.41s5.53-.36,5.53-.36l.47,3.64c.36,2.83-.79,4.08-3.61,4.51-3.44.52-8.7,2-11.58.12-3.92-2.58.6-7.22.6-7.22S412.66,147.9,416.18,147.29Z" transform="translate(0 0)"/></g><g id="Grupo_1145" data-name="Grupo 1145" class="cls-17"><path id="Trazado_6272" data-name="Trazado 6272" class="cls-18" d="M409.28,156a7.55,7.55,0,0,0,4.44,3.41,10.27,10.27,0,0,0,2.81.31,11,11,0,0,0,2.49-.4,10.86,10.86,0,0,0,1.27.1,7.41,7.41,0,0,0,1.24-.1,8,8,0,0,1-1.2.26c-3.44.52-8.7,2-11.58.12-2.69-1.77-1.4-4.52-.33-6.06A7.6,7.6,0,0,0,409.28,156Z" transform="translate(0 0)"/></g><path id="Trazado_6273" data-name="Trazado 6273" class="cls-6" d="M346.5,179.72s10.12-.47,11.63,0,4.26,6,4.26,6-10.58,6.6-12.94,5.38a48.29,48.29,0,0,1-6.15-4.38C341.84,182,346.5,179.72,346.5,179.72Z" transform="translate(0 0)"/><path id="Trazado_6274" data-name="Trazado 6274" class="cls-7" d="M362.22,185.39l.17.34s-.49.31-1.29.77A7.83,7.83,0,0,0,362.22,185.39Z" transform="translate(0 0)"/><path id="Trazado_6275" data-name="Trazado 6275" class="cls-7" d="M349.08,185.55c1.12.7,2.41,1.07,3.54,1.75a7.08,7.08,0,0,0,6.1.56c-3.3,1.81-7.83,4-9.27,3.25a49.12,49.12,0,0,1-6.16-4.38,5.45,5.45,0,0,1,1.49-5.75A11.67,11.67,0,0,0,349.08,185.55Z" transform="translate(0 0)"/><path id="Trazado_6276" data-name="Trazado 6276" class="cls-19" d="M452.82,175.61l14.6-8.44c7.55-4.36,14.24-6.7,17.57-1.68,2.12,3.19-.06,8-4.85,10.79l-24.59,14.21c-4.79,2.77-10.4,2.43-12.51-.75C439.71,184.71,445.27,180,452.82,175.61Z" transform="translate(0 0)"/><g id="Grupo_1150" data-name="Grupo 1150"><g id="Grupo_1149" data-name="Grupo 1149"><g id="Grupo_1146" data-name="Grupo 1146"><path id="Trazado_6277" data-name="Trazado 6277" class="cls-8" d="M435.57,170.79l15.82,3.09-4.17,6.47-4,6.12-13.48,4.58-6.9-11.93,10-1.5Z" transform="translate(0 0)"/></g><g id="Grupo_1147" data-name="Grupo 1147"><path id="Trazado_6278" data-name="Trazado 6278" class="cls-20" d="M452.23,141.2s10.25,6.08,12.82,7.79,5.4,2.68,7.34,8.34-3.34,10.92-5.55,13.31c-6.34,6.87-17.74,6.8-17.74,6.8L446.44,168l4.87-21.15Z" transform="translate(0 0)"/></g><g id="Grupo_1148" data-name="Grupo 1148"><path id="Trazado_6279" data-name="Trazado 6279" class="cls-8" d="M437.09,157.75l-1.34-1.68a.67.67,0,0,1,.1-.93.51.51,0,0,1,.16-.09l8.3-3.43,7.23-6.13,6.23,7.38a3.27,3.27,0,0,1,0,4.3c-1.12,1.47-3.35,4.73-3.35,4.73s3.21.89,3.1,2.34-3.17,5.52-6.29,3.87l-.1,4.68-2.85,5.89-10.11-5.27-5.51-3.89a1.32,1.32,0,0,1-.34-1.56Z" transform="translate(0 0)"/></g><path id="Trazado_6280" data-name="Trazado 6280" class="cls-21" d="M442.75,174.17a62.81,62.81,0,0,0,6.42-2.52S444.05,175,443,175c-1.86.17-8.08-2.7-8.08-2.7l.38-1S441.41,174.38,442.75,174.17Z" transform="translate(0 0)"/><path id="Trazado_6281" data-name="Trazado 6281" class="cls-22" d="M435,155a37.75,37.75,0,0,1,5.89-2l7.56,7.09c-6.85,3.07-4.94,11.25-4.94,11.25s-1.4,1.16-5.36.55a11,11,0,0,1-5.42-2.42C428.76,165.3,433.59,155.83,435,155Z" transform="translate(0 0)"/><path id="Trazado_6282" data-name="Trazado 6282" class="cls-23" d="M435,155a21.34,21.34,0,0,1,3.8-1.39c1.12,1,2.31,1.93,3.53,2.85.76.57,1.53,1.11,2.29,1.67.36.26.7.55,1.06.79-2-1.3-.32-.22.15.18a9.16,9.16,0,0,0,2,1.33c-4.63,2.5-4.7,7.53-4.47,9.79a4.26,4.26,0,0,0-.62,0,21.55,21.55,0,0,1-4.25.06,27,27,0,0,1-4.32-1.17l-.71-.25-.62-.28-1-.48C429.68,163.53,433.73,155.75,435,155Z" transform="translate(0 0)"/><path id="Trazado_6283" data-name="Trazado 6283" class="cls-24" d="M439.39,167.92a12,12,0,0,0,5.44-8.34,7.72,7.72,0,0,0,.27-2.53l3.3,3.09c-6.86,3.07-4.94,11.25-4.94,11.25s-1.4,1.16-5.37.55a11.08,11.08,0,0,1-5.42-2.42,6,6,0,0,1-.48-.62A9,9,0,0,0,439.39,167.92Z" transform="translate(0 0)"/><path id="Trazado_6284" data-name="Trazado 6284" class="cls-22" d="M455.36,162.22l-8.26-1.37.27-1.53Z" transform="translate(0 0)"/><path id="Trazado_6285" data-name="Trazado 6285" class="cls-22" d="M452.07,168.42l-8.61,3-.2-1.48,8-1.8Z" transform="translate(0 0)"/></g><path id="Trazado_6286" data-name="Trazado 6286" class="cls-25" d="M423.71,178.68s4.37,5.46,20.6,6.09c0,0,1.26,10.85-3.35,15.68s-30.37,22.26-34,22.26-37.81.31-37.81.31V199.25s32.72-16.45,41.67-19.85C414.76,177.89,423.71,178.68,423.71,178.68Z" transform="translate(0 0)"/><path id="Trazado_6287" data-name="Trazado 6287" class="cls-21" d="M378.47,200.64A86.28,86.28,0,0,0,400,201c6.82-.7,13.57-1.84,20.34-2.91,3.72-.38,7.61-.36,11.16-1.6a15.08,15.08,0,0,0,7.73-5.56,12.32,12.32,0,0,0,2.1-6.34c.94.07,1.93.13,3,.17,1.56.07,1.26,10.86-3.35,15.68s-30.37,22.26-34,22.26-37.82.32-37.82.32V199.24l4.8-2.4C374.79,198.6,376.46,200.34,378.47,200.64Z" transform="translate(0 0)"/></g><rect id="Rectángulo_709" data-name="Rectángulo 709" class="cls-26" x="454.84" y="272.98" width="14.86" height="37.32"/><rect id="Rectángulo_710" data-name="Rectángulo 710" class="cls-26" x="205.12" y="272.98" width="14.86" height="41.33"/><rect id="Rectángulo_711" data-name="Rectángulo 711" class="cls-26" x="205.12" y="272.98" width="262.08" height="25.99"/><g id="Grupo_1152" data-name="Grupo 1152"><g id="Grupo_1151" data-name="Grupo 1151"><path id="Trazado_6288" data-name="Trazado 6288" class="cls-26" d="M469.7,328.35a14.86,14.86,0,0,1-14.85-14.86v-6.58H469.7Z" transform="translate(0 0)"/></g></g><g id="Grupo_1153" data-name="Grupo 1153"><circle id="Elipse_518" data-name="Elipse 518" class="cls-27" cx="472.36" cy="326.98" r="12.24"/></g><g id="Grupo_1154" data-name="Grupo 1154"><path id="Trazado_6289" data-name="Trazado 6289" class="cls-28" d="M472.36,319.07a7.91,7.91,0,1,1-7.91,7.91h0a7.91,7.91,0,0,1,7.91-7.91Z" transform="translate(0 0)"/></g><g id="Grupo_1156" data-name="Grupo 1156"><g id="Grupo_1155" data-name="Grupo 1155"><path id="Trazado_6290" data-name="Trazado 6290" class="cls-26" d="M220,328.35a14.88,14.88,0,0,1-14.86-14.86v-6.58H220Z" transform="translate(0 0)"/></g></g><g id="Grupo_1157" data-name="Grupo 1157"><circle id="Elipse_519" data-name="Elipse 519" class="cls-27" cx="222.62" cy="326.98" r="12.24"/></g><g id="Grupo_1158" data-name="Grupo 1158"><path id="Trazado_6291" data-name="Trazado 6291" class="cls-28" d="M222.62,319.07a7.91,7.91,0,1,1-7.91,7.91h0A7.91,7.91,0,0,1,222.62,319.07Z" transform="translate(0 0)"/></g><rect id="Rectángulo_712" data-name="Rectángulo 712" class="cls-29" x="219.98" y="263.52" width="234.86" height="9.46"/><g id="Grupo_1159" data-name="Grupo 1159"><path id="Trazado_6292" data-name="Trazado 6292" class="cls-30" d="M192.14,221.82H407.07l84.82-56.67a11.5,11.5,0,1,1,12.78,19.13l-92,61.52H193.22c-6.35,0-12.58-6.13-12.58-12.48a11.49,11.49,0,0,1,11.49-11.5Z" transform="translate(0 0)"/></g><g id="Grupo_1160" data-name="Grupo 1160" class="cls-31"><path id="Trazado_6293" data-name="Trazado 6293" class="cls-28" d="M192.14,221.82H390.06a9,9,0,0,0-.3,1.71c-.34,4.33,1.62,8.85,5.63,10.84s8.44,1.51,12.59.48a69.48,69.48,0,0,0,11.27-4.14c3.7-1.63,7.3-3.46,10.86-5.37,5.6-3,11-6.28,16.52-9.48,9.92-5.79,20-11.24,29.65-17.51,11.2-7.29,22.25-15.41,31.05-25.54a7.69,7.69,0,0,0,1.51-2.67,11.5,11.5,0,0,1-4.17,14.14l-92,61.52H193.22c-6.35,0-12.58-6.12-12.58-12.48a11.49,11.49,0,0,1,11.49-11.5Z" transform="translate(0 0)"/></g><g id="Grupo_1161" data-name="Grupo 1161"><path id="Trazado_6294" data-name="Trazado 6294" class="cls-29" d="M494.86,204l-41,55.41-4.69-3.33,41-55.41Z" transform="translate(0 0)"/></g><rect id="Rectángulo_713" data-name="Rectángulo 713" class="cls-26" x="161.22" y="252.02" width="371.33" height="11.51"/><g id="Grupo_1162" data-name="Grupo 1162"><path id="Trazado_6295" data-name="Trazado 6295" class="cls-19" d="M172.72,245.54H412.91l98.32-65.68a6.48,6.48,0,0,1,7.19,10.77L416.83,258.49H172.72a6.47,6.47,0,0,1,0-12.94Z" transform="translate(0 0)"/></g><path id="Trazado_6296" data-name="Trazado 6296" class="cls-26" d="M166.25,194.49a5,5,0,0,1,5,5v64H161.22v-64a5,5,0,0,1,5-5Z" transform="translate(0 0)"/><path id="Trazado_6297" data-name="Trazado 6297" class="cls-26" d="M535.76,138.27a7,7,0,0,1,7,7h0V263.52h-14V145.26a7,7,0,0,1,7-7Z" transform="translate(0 0)"/><path id="Trazado_6298" data-name="Trazado 6298" class="cls-30" d="M214.49,194.59H373V245.8H180.24v-17A34.26,34.26,0,0,1,214.49,194.59Z" transform="translate(0 0)"/><path id="Trazado_6299" data-name="Trazado 6299" class="cls-32" d="M220.22,227.59a231.94,231.94,0,0,0,42,5.71c13.78.75,27.61.61,41.4.09,12.34-.46,24.67-1.26,37-1.92,8.56.35,17.12,0,25.69-.11q3.33,0,6.66,0V245.8H180.24v-17A34.09,34.09,0,0,1,184.1,213C195.13,220,207.61,224.54,220.22,227.59Z" transform="translate(0 0)"/><path id="Trazado_6300" data-name="Trazado 6300" class="cls-33" d="M384.55,189.46V245.8h-44.5q.27-28.17.86-56.34Z" transform="translate(0 0)"/><path id="Trazado_6301" data-name="Trazado 6301" class="cls-34" d="M360,232.89a89.82,89.82,0,0,0,20-.67,8.45,8.45,0,0,0,3.62-1.17,6.35,6.35,0,0,0,.88-.39V245.8H340q.1-9.95.24-19.88C345.59,230.62,353,232.25,360,232.89Z" transform="translate(0 0)"/><path id="Trazado_6302" data-name="Trazado 6302" class="cls-8" d="M359.53,184.5l25,8.58,36.24-2.7s12.27-2.89,16.31,3.47c0,0,2.12,6.93-5.12,11.4l-47.43,3.05-36.12-18.84C349.07,181.25,359.53,184.5,359.53,184.5Z" transform="translate(0 0)"/><path id="Trazado_6303" data-name="Trazado 6303" class="cls-25" d="M359.46,184.48l.07,0,25,8.58,36.23-2.7s12.27-2.89,16.31,3.47c0,0,2.13,6.93-5.11,11.4l-47.43,3.05-32.2-16.79C352.41,191.2,352.34,186.58,359.46,184.48Z" transform="translate(0 0)"/><path id="Trazado_6304" data-name="Trazado 6304" class="cls-21" d="M355.38,186.4a11.3,11.3,0,0,0,2.33,1.17l2,.76,1.17.48c1.13.45-.55-.24-.63-.27q1.9.74,3.72,1.65c2.26,1,4.5,2.12,6.76,3.17a95.45,95.45,0,0,0,13.75,5.4,59.92,59.92,0,0,0,16.26,2.2c11.45,0,22.8-2,34-4.16a6,6,0,0,0,2.63-1.31c.16,2.33-.33,6.64-5.38,9.75l-47.43,3.06-32.2-16.79A6.83,6.83,0,0,1,355.38,186.4Z" transform="translate(0 0)"/><g id="Grupo_1163" data-name="Grupo 1163"><path id="Trazado_6305" data-name="Trazado 6305" class="cls-26" d="M340.06,201.14H513.88a17.5,17.5,0,0,1,17.48,17.48V252a2.88,2.88,0,0,1-2.88,2.88h-203a2.88,2.88,0,0,1-2.88-2.88h0v-33.4A17.5,17.5,0,0,1,340.06,201.14Zm-11.72,48H525.61V218.62a11.74,11.74,0,0,0-11.73-11.72H340.06a11.73,11.73,0,0,0-11.72,11.72Z" transform="translate(0 0)"/></g><g id="Grupo_1164" data-name="Grupo 1164"><path id="Trazado_6306" data-name="Trazado 6306" class="cls-14" d="M427.8,144l-9.72,14.1a1.91,1.91,0,1,1-3.14-2.16h0l9.73-14.1Z" transform="translate(0 0)"/><path id="Trazado_6307" data-name="Trazado 6307" class="cls-10" d="M426.24,139.83l2.95,2.06a.48.48,0,0,1,.12.67h0l-1,1.51a.48.48,0,0,1-.67.13h0l-3-2.1a.49.49,0,0,1-.12-.67l1.09-1.48A.48.48,0,0,1,426.24,139.83Z" transform="translate(0 0)"/><path id="Trazado_6308" data-name="Trazado 6308" class="cls-15" d="M423.93,147.9l-6.6,9.68a1,1,0,0,1-1.35.28l0,0a1,1,0,0,1-.25-1.39l6.65-9.76Z" transform="translate(0 0)"/></g><g id="Grupo_1165" data-name="Grupo 1165"><path id="Trazado_6309" data-name="Trazado 6309" class="cls-6" d="M421.15,151.92c4.18-1.18,7.45-7.16,7.48-7.22a1.45,1.45,0,1,1,2.55,1.37h0c-.16.29-3.88,7.12-9.25,8.63a1.44,1.44,0,0,1-.78-2.78Z" transform="translate(0 0)"/></g><g id="Grupo_1166" data-name="Grupo 1166"><path id="Trazado_6310" data-name="Trazado 6310" class="cls-6" d="M421.48,154c3.67-.47,4.15-7.64,4.16-7.72a1.44,1.44,0,0,1,2.88.14c0,.4-.55,9.66-6.67,10.45h-.18a1.45,1.45,0,0,1-.19-2.88Z" transform="translate(0 0)"/></g><g id="Grupo_1167" data-name="Grupo 1167"><path id="Trazado_6311" data-name="Trazado 6311" class="cls-6" d="M420.19,156.32c2.83-.27,3.48-5.76,3.48-7.67h0a1.45,1.45,0,0,1,2.89,0c0,.41-.07,10-6.09,10.55h-.14a1.44,1.44,0,0,1-.14-2.88Z" transform="translate(0 0)"/></g><g id="Grupo_1168" data-name="Grupo 1168"><path id="Trazado_6312" data-name="Trazado 6312" class="cls-6" d="M418,157a3.35,3.35,0,0,0,3-2.54,7.08,7.08,0,0,0,.25-2.59,1.45,1.45,0,1,1,2.87-.37,9.82,9.82,0,0,1-.32,3.7,6.25,6.25,0,0,1-5.45,4.66l-.19,0A1.45,1.45,0,0,1,418,157Z" transform="translate(0 0)"/></g></g><g id="Grupo_1171" data-name="Grupo 1171"><path id="Trazado_6313" data-name="Trazado 6313" class="cls-35" d="M36.8,428.33c1-6.67,1.58-13.39,2.29-20.1,2.17-20.6,4.56-41.13,8-61.57l5.24,63.23-.61-.13c-.07,1.57-.6,6-.74,6.67l.31.07-7.71,32.19c-.43,1.77-.81,3.56-1.14,5.35H32.36c.69-3.38,1.37-6.85,2-10.93C35.23,438.19,36,433.26,36.8,428.33Z" transform="translate(0 0)"/><path id="Trazado_6314" data-name="Trazado 6314" class="cls-35" d="M173.41,351.48l3.51,7.95-3.87.29Z" transform="translate(0 0)"/><path id="Trazado_6315" data-name="Trazado 6315" class="cls-36" d="M26.94,269.9l.16-.2-.05.07Z" transform="translate(0 0)"/><path id="Trazado_6316" data-name="Trazado 6316" class="cls-36" d="M14,305.15a78.22,78.22,0,0,0,3.77-10.36c.46-1.69.95-3.38,1.45-5.06-.5,1.68-1,3.37-1.45,5.06A78.22,78.22,0,0,1,14,305.15Z" transform="translate(0 0)"/><path id="Trazado_6317" data-name="Trazado 6317" class="cls-36" d="M26,271.33h0c.09-.14.17-.29.26-.42h0Z" transform="translate(0 0)"/><path id="Trazado_6318" data-name="Trazado 6318" class="cls-36" d="M24.81,273.37c.16-.33.33-.64.5-1h0C25.14,272.73,25,273,24.81,273.37Z" transform="translate(0 0)"/><path id="Trazado_6319" data-name="Trazado 6319" class="cls-36" d="M8.85,410c.06-6.31-.53-12.65.07-19a57.29,57.29,0,0,1,2.21-12.25,101.64,101.64,0,0,1,4.53-10.71c3.38-23.35-6-22.2-2-46.57,1.87-11.24,8.86-20.93,13.57-31.24a55.91,55.91,0,0,0,2.08-6.17C35.1,298.92,45,321.08,45,321.08l2.13,25.58c-3.48,20.44-5.87,41-8,61.58-.7,6.7-1.27,13.42-2.29,20.09-.75,4.93-1.57,9.86-2.38,14.79-.68,4.06-1.36,7.54-2,10.92H10.17a59.94,59.94,0,0,1-1.34-9.52C8,433.05,8.74,421.52,8.85,410Z" transform="translate(0 0)"/><path id="Trazado_6320" data-name="Trazado 6320" class="cls-36" d="M.24,424.39C.07,422.29,0,420.17,0,418c.1-6.46,1.06-14,1.91-21.32C1.07,404,.1,411.57,0,418,0,420.18.07,422.29.24,424.39Z" transform="translate(0 0)"/><path id="Trazado_6321" data-name="Trazado 6321" class="cls-37" d="M26,271.33l.26-.42h0c.23-.35.48-.68.73-1l.11-.14C26.59,270.38,26.23,270.91,26,271.33Z" transform="translate(0 0)"/><path id="Trazado_6322" data-name="Trazado 6322" class="cls-37" d="M25.56,273.51a8.34,8.34,0,0,0-.17,3.26,48.61,48.61,0,0,0,2.68,8c.25-.6.52-1.19.8-1.76.14.37.29.75.44,1.13a56.62,56.62,0,0,1-2.08,6.17c-4.7,10.31-11.7,20-13.57,31.24-4.05,24.37,5.38,23.22,2,46.57a101.64,101.64,0,0,0-4.53,10.71,57.29,57.29,0,0,0-2.21,12.25c-.6,6.3,0,12.64-.07,19-.1,11.48-.9,23,0,34.48A58.8,58.8,0,0,0,10.16,454H2.57c-.17-3.24-.34-6.08-.46-10.3C1.92,437.18.74,430.85.24,424.4.07,422.3,0,420.18,0,418c.1-6.47,1.06-14,1.91-21.32.51-4.38,1-8.65,1.2-12.53.15-2.61.27-5.22.38-7.81.78-18.2.91-36.12,4.41-54.11a67.73,67.73,0,0,1,4.65-13.8c.47-1.1.95-2.21,1.42-3.32a80.6,80.6,0,0,0,3.77-10.36c.46-1.69.95-3.38,1.45-5.06q1.25-4.2,2.65-8.36c.6-1.76,1.16-3.6,1.84-5.38.34-.89.71-1.77,1.12-2.62.16-.33.33-.64.5-.95C25.36,272.72,25.45,273.09,25.56,273.51Z" transform="translate(0 0)"/><path id="Trazado_6323" data-name="Trazado 6323" class="cls-36" d="M32.46,263.82a67,67,0,0,1,14.76-9.9,79,79,0,0,0-16.57,11.63C31.21,265,31.82,264.39,32.46,263.82Z" transform="translate(0 0)"/><path id="Trazado_6324" data-name="Trazado 6324" class="cls-36" d="M173.4,351.48l-.35,8.24-8.68.64a1.3,1.3,0,0,0-.9.49L162.6,362l-27.85,1.6a1.78,1.78,0,0,0-1.47.94l-19.87,37V273c8.66-2.51,29.85-9.9,41.66-25l-.28-.24,7.1,1.94a68,68,0,0,1,19.65,10.1l-17.08,71.42Z" transform="translate(0 0)"/><path id="Trazado_6325" data-name="Trazado 6325" class="cls-36" d="M47.13,346.66,45,321.08s-9.91-22.16-15.7-36.93L28.86,283a58.58,58.58,0,0,1,7.68-12.08,48,48,0,0,1,15.29-12.29,162.59,162.59,0,0,1,15.5-6.43c6.24,6.83,19.76,19,38.69,21.61V415.31l-.52,1a360.62,360.62,0,0,1-53.13-6.39Zm6.75-40.3c-6.1,3.39-5.42,24.38-5.42,24.38C54.86,316.07,60,303,53.88,306.36Zm26.35,12.87c-.75-4.06-37.48,20-26.35,16.93,7.45-2,27.1-12.87,26.35-16.93Z" transform="translate(0 0)"/><path id="Trazado_6326" data-name="Trazado 6326" class="cls-36" d="M51.33,416.5a359.23,359.23,0,0,0,38.35,5.7q6.21.57,12.17.9l-.37.69a1.8,1.8,0,0,0,1.7,2.63l2.85-.19V454H42.49c.33-1.79.71-3.58,1.14-5.35Z" transform="translate(0 0)"/><path id="Trazado_6327" data-name="Trazado 6327" class="cls-36" d="M170.91,422c.37,9.52,1.25,25.8.94,32.06h-8.39c6.11-5.53,8.16-10.56,5.3-10.15-2.33.34-7.75,5.24-12.67,10.15H141.84a182,182,0,0,0,17.86-31.32Z" transform="translate(0 0)"/><path id="Trazado_6328" data-name="Trazado 6328" class="cls-36" d="M150.65,423.31c-4.89,10.13-10,22.31-13.36,30.74H113.41v-28.3Z" transform="translate(0 0)"/><path id="Trazado_6329" data-name="Trazado 6329" class="cls-36" d="M171.92,421.91l.39,0,5.26,29.82c.14.77.26,1.55.39,2.33h-.05C176.14,444.45,173.45,429.9,171.92,421.91Z" transform="translate(0 0)"/><path id="Trazado_6330" data-name="Trazado 6330" class="cls-36" d="M25.56,273.51c-.11-.42-.2-.79-.25-1.1h0v-.05s.22-.39.65-1h0c.28-.42.64-1,1.1-1.57l0-.06.28-.38A13.4,13.4,0,0,0,25.56,273.51Z" transform="translate(0 0)"/><path id="Trazado_6331" data-name="Trazado 6331" class="cls-37" d="M67.34,252.22a162.59,162.59,0,0,0-15.5,6.43,48,48,0,0,0-15.29,12.29A58.78,58.78,0,0,0,28.87,283c-.27.59-.54,1.18-.8,1.77a49.53,49.53,0,0,1-2.67-8,8.53,8.53,0,0,1,.16-3.26,13.66,13.66,0,0,1,1.82-4.18,18.84,18.84,0,0,1,3-3.57l.24-.21a78.92,78.92,0,0,1,16.56-11.63,60.25,60.25,0,0,1,10.08-4.16L63.79,248C64.34,248.72,65.53,250.25,67.34,252.22Z" transform="translate(0 0)"/><path id="Trazado_6332" data-name="Trazado 6332" class="cls-37" d="M170.9,422l1-.07c1.53,8,4.22,22.54,6,32.13h-6.06C172.15,447.78,171.28,431.51,170.9,422Z" transform="translate(0 0)"/><path id="Trazado_6333" data-name="Trazado 6333" class="cls-36" d="M159.7,422.72A182,182,0,0,1,141.84,454H137.3c3.38-8.43,8.46-20.61,13.35-30.73Z" transform="translate(0 0)"/><path id="Trazado_6334" data-name="Trazado 6334" class="cls-38" d="M159.7,422.72A182,182,0,0,1,141.84,454H137.3c3.38-8.43,8.46-20.61,13.35-30.73Z" transform="translate(0 0)"/><path id="Trazado_6335" data-name="Trazado 6335" class="cls-36" d="M163.47,454h-7.38c4.92-4.91,10.34-9.81,12.67-10.15C171.62,443.48,169.57,448.51,163.47,454Z" transform="translate(0 0)"/><path id="Trazado_6336" data-name="Trazado 6336" class="cls-38" d="M163.47,454h-7.38c4.92-4.91,10.34-9.81,12.67-10.15C171.62,443.48,169.57,448.51,163.47,454Z" transform="translate(0 0)"/><path id="Trazado_6337" data-name="Trazado 6337" class="cls-37" d="M80.23,319.23c.75,4.06-18.9,14.9-26.35,16.93C42.75,339.2,79.48,315.17,80.23,319.23Z" transform="translate(0 0)"/><path id="Trazado_6338" data-name="Trazado 6338" class="cls-37" d="M48.46,330.75s-.68-21,5.42-24.39S54.86,316.07,48.46,330.75Z" transform="translate(0 0)"/><path id="Trazado_6339" data-name="Trazado 6339" class="cls-36" d="M74,199.15c0,.43.05.86.08,1.29C74,200,74,199.58,74,199.15Z" transform="translate(0 0)"/><path id="Trazado_6340" data-name="Trazado 6340" class="cls-36" d="M73.94,181.5c.18-2.61.48-5.18.9-7.68h0C74.42,176.32,74.13,178.89,73.94,181.5Z" transform="translate(0 0)"/><path id="Trazado_6341" data-name="Trazado 6341" class="cls-36" d="M75.12,214.71c0,.41.07.81.1,1.21C75.18,215.52,75.15,215.12,75.12,214.71Z" transform="translate(0 0)"/><path id="Trazado_6342" data-name="Trazado 6342" class="cls-36" d="M74,200.51c.3,5,.72,9.75,1.08,14.17C74.76,210.26,74.34,205.46,74,200.51Z" transform="translate(0 0)"/><path id="Trazado_6343" data-name="Trazado 6343" class="cls-36" d="M70,242.77a80.14,80.14,0,0,0,4.63-13.29A80.14,80.14,0,0,1,70,242.77Z" transform="translate(0 0)"/><path id="Trazado_6344" data-name="Trazado 6344" class="cls-36" d="M73.68,191c0,2.7.13,5.41.28,8.08C73.81,196.43,73.71,193.72,73.68,191Z" transform="translate(0 0)"/><path id="Trazado_6345" data-name="Trazado 6345" class="cls-36" d="M75.83,169.17a38.28,38.28,0,0,1,5.56-12.64,38.28,38.28,0,0,0-5.56,12.64Z" transform="translate(0 0)"/><path id="Trazado_6346" data-name="Trazado 6346" class="cls-36" d="M75.53,224.22q-.07.89-.21,1.8Q75.46,225.11,75.53,224.22Z" transform="translate(0 0)"/><path id="Trazado_6347" data-name="Trazado 6347" class="cls-36" d="M73.68,189.63v0Z" transform="translate(0 0)"/><path id="Trazado_6348" data-name="Trazado 6348" class="cls-36" d="M75.52,220.11l.06,1.19Z" transform="translate(0 0)"/><path id="Trazado_6349" data-name="Trazado 6349" class="cls-36" d="M75.43,218.89l.06.84Z" transform="translate(0 0)"/><path id="Trazado_6350" data-name="Trazado 6350" class="cls-36" d="M75.28,226.28c-.14.9-.32,1.81-.52,2.72C75,228.09,75.14,227.18,75.28,226.28Z" transform="translate(0 0)"/><path id="Trazado_6351" data-name="Trazado 6351" class="cls-36" d="M75.24,216.29c0,.3.05.61.07.91C75.29,216.9,75.27,216.59,75.24,216.29Z" transform="translate(0 0)"/><path id="Trazado_6352" data-name="Trazado 6352" class="cls-36" d="M143.46,239.7c-6.37,7.8-14.73,14.45-24.25,17.6-10.2,3.38-22.45,1.27-30-6.86a24.85,24.85,0,0,1-4-5.72h49.44a7.9,7.9,0,0,0,5.57-2.3l.13-.11.1-.12a8.15,8.15,0,0,0,2.28-5.65V173.82h2.11c3.1,17.48-1,37.83-1.36,46.87-.17,4.33,1.34,10,3.06,14.85h0C145.58,237,144.55,238.36,143.46,239.7Z" transform="translate(0 0)"/><path id="Trazado_6353" data-name="Trazado 6353" class="cls-36" d="M75.34,217.62l.06.84C75.39,218.18,75.36,217.9,75.34,217.62Z" transform="translate(0 0)"/><path id="Trazado_6354" data-name="Trazado 6354" class="cls-36" d="M138,169.17H112.7V144c19,1.23,27.57,11.9,31.1,25.15Z" transform="translate(0 0)"/><path id="Trazado_6355" data-name="Trazado 6355" class="cls-36" d="M81.41,156.5a27.86,27.86,0,0,1,4.74-5.2A27.86,27.86,0,0,0,81.41,156.5Z" transform="translate(0 0)"/><path id="Trazado_6356" data-name="Trazado 6356" class="cls-36" d="M92.49,147.27a29.2,29.2,0,0,0-4.38,2.51A29.2,29.2,0,0,1,92.49,147.27Z" transform="translate(0 0)"/><path id="Trazado_6357" data-name="Trazado 6357" class="cls-36" d="M73.94,181.51c-.19,2.67-.27,5.39-.26,8.12C73.67,186.9,73.75,184.19,73.94,181.51Z" transform="translate(0 0)"/><path id="Trazado_6358" data-name="Trazado 6358" class="cls-36" d="M108.38,143.89h0Z" transform="translate(0 0)"/><path id="Trazado_6359" data-name="Trazado 6359" class="cls-36" d="M87.09,150.54l-.89.71Z" transform="translate(0 0)"/><path id="Trazado_6360" data-name="Trazado 6360" class="cls-36" d="M88.11,149.78l-.94.69Z" transform="translate(0 0)"/><path id="Trazado_6361" data-name="Trazado 6361" class="cls-36" d="M104.66,169.17h-21a68.41,68.41,0,0,1,8.87-21.9,37.49,37.49,0,0,1,12.17-3.13Z" transform="translate(0 0)"/><path id="Trazado_6362" data-name="Trazado 6362" class="cls-39" d="M148.81,242.89c-10.38,13.22-30.1,20-37.77,22.23h-5v.37C84.78,262,71.08,244.2,70,242.77a80.14,80.14,0,0,0,4.63-13.29c0-.16.08-.32.11-.48.21-.91.39-1.82.53-2.72a2.34,2.34,0,0,1,0-.26c.09-.61.16-1.2.21-1.79,0-.36,0-.72.07-1.07,0-.64,0-1.26,0-1.86,0-.39,0-.79-.07-1.19l0-.38-.06-.84,0-.43-.06-.84,0-.42c0-.3,0-.6-.07-.91,0-.12,0-.24,0-.37,0-.4-.07-.8-.1-1.21v0c-.36-4.42-.78-9.22-1.08-14.17v-.07c0-.43-.05-.86-.08-1.29v-.05c-.14-2.67-.24-5.37-.27-8.08V191c0-.45,0-.89,0-1.34h0c0-2.72.08-5.44.26-8.12h0c.19-2.62.48-5.19.9-7.69h2.33v62.73a8.19,8.19,0,0,0,8,8.18,24.79,24.79,0,0,0,4,5.71c7.58,8.13,19.83,10.24,30,6.86,9.52-3.15,17.88-9.8,24.25-17.6q1.64-2,3.06-4.17h0c1.15,3.26,2.39,6.18,3.28,8.17Z" transform="translate(0 0)"/><path id="Trazado_6363" data-name="Trazado 6363" class="cls-39" d="M83.62,169.17H75.83a38.28,38.28,0,0,1,5.56-12.64l0,0a27.86,27.86,0,0,1,4.74-5.2l0-.05.89-.71.08-.06c.31-.24.62-.47.94-.69h0a28.32,28.32,0,0,1,4.37-2.52h0A68.18,68.18,0,0,0,83.62,169.17Z" transform="translate(0 0)"/><path id="Trazado_6364" data-name="Trazado 6364" class="cls-40" d="M90.37,182H90.2c-5.28.51-6.88,1.31-8.9,2.56a7.69,7.69,0,0,0-3,4.33v-1.21c0-.21,0-.43,0-.64v-.06c0-.21,0-.41,0-.61v-.07c0-.21,0-.41,0-.62v0c0-.85.09-1.62.16-2.31l0-.16c0-.14,0-.27.08-.4s.08-.21.12-.32a2.34,2.34,0,0,1,.09-.24c.06-.13.14-.27.21-.41s0-.1.08-.14l.33-.47.06-.08a6.66,6.66,0,0,1,.44-.51l0,0A12.15,12.15,0,0,1,81.88,179h0a34.81,34.81,0,0,1,8.48-4Z" transform="translate(0 0)"/><path id="Trazado_6365" data-name="Trazado 6365" class="cls-41" d="M90.37,182H90.2c-5.28.51-6.88,1.31-8.9,2.56a7.69,7.69,0,0,0-3,4.33v-1.21c0-.21,0-.43,0-.64v-.06c0-.21,0-.41,0-.61v-.07c0-.21,0-.41,0-.62v0c0-.85.09-1.62.16-2.31l0-.16c0-.14,0-.27.08-.4s.08-.21.12-.32a2.34,2.34,0,0,1,.09-.24c.06-.13.14-.27.21-.41s0-.1.08-.14l.33-.47.06-.08a6.66,6.66,0,0,1,.44-.51l0,0A12.15,12.15,0,0,1,81.88,179h0a34.81,34.81,0,0,1,8.48-4Z" transform="translate(0 0)"/><path id="Trazado_6366" data-name="Trazado 6366" class="cls-40" d="M133.84,182.65a34.35,34.35,0,0,0-4.51-.69l-.46,0H108.53v-8.12h13.53a66.53,66.53,0,0,1,11.78,4.7Z" transform="translate(0 0)"/><path id="Trazado_6367" data-name="Trazado 6367" class="cls-41" d="M133.84,182.65a34.35,34.35,0,0,0-4.51-.69l-.46,0H108.53v-8.12h13.53a66.53,66.53,0,0,1,11.78,4.7Z" transform="translate(0 0)"/><path id="Trazado_6368" data-name="Trazado 6368" class="cls-40" d="M133.84,214.14a12.62,12.62,0,0,0-1.17-2q.6-.36,1.17-.78Z" transform="translate(0 0)"/><path id="Trazado_6369" data-name="Trazado 6369" class="cls-41" d="M133.84,214.14a12.62,12.62,0,0,0-1.17-2q.6-.36,1.17-.78Z" transform="translate(0 0)"/><path id="Trazado_6370" data-name="Trazado 6370" class="cls-40" d="M110.41,203.39a5,5,0,0,0-.66-.1h0A2.31,2.31,0,0,1,110.41,203.39Z" transform="translate(0 0)"/><path id="Trazado_6371" data-name="Trazado 6371" class="cls-41" d="M110.41,203.39a5,5,0,0,0-.66-.1h0A2.31,2.31,0,0,1,110.41,203.39Z" transform="translate(0 0)"/><path id="Trazado_6372" data-name="Trazado 6372" class="cls-40" d="M86.87,212.17a15.43,15.43,0,0,0-2.72,8.59A72.82,72.82,0,0,1,81,210.57c-.54-2.31-1-4.64-1.35-6.92A18.18,18.18,0,0,0,86.87,212.17Z" transform="translate(0 0)"/><path id="Trazado_6373" data-name="Trazado 6373" class="cls-41" d="M86.87,212.17a15.43,15.43,0,0,0-2.72,8.59A72.82,72.82,0,0,1,81,210.57c-.54-2.31-1-4.64-1.35-6.92A18.18,18.18,0,0,0,86.87,212.17Z" transform="translate(0 0)"/><path id="Trazado_6374" data-name="Trazado 6374" class="cls-42" d="M90.37,213.75v12.37c-2-1.06-3.81-2.11-5.2-3-.36-.78-.7-1.57-1-2.38a15.43,15.43,0,0,1,2.72-8.59A16.69,16.69,0,0,0,90.37,213.75Z" transform="translate(0 0)"/><path id="Trazado_6375" data-name="Trazado 6375" class="cls-41" d="M90.37,213.75v12.37c-2-1.06-3.81-2.11-5.2-3-.36-.78-.7-1.57-1-2.38a15.43,15.43,0,0,1,2.72-8.59A16.69,16.69,0,0,0,90.37,213.75Z" transform="translate(0 0)"/><path id="Trazado_6376" data-name="Trazado 6376" class="cls-42" d="M108.53,203.72a2,2,0,0,1,1.22-.43,2.84,2.84,0,0,1,.65.1,1.94,1.94,0,0,1,1.12,1c.2.38.4.78.61,1.19,2,3.86,4.6,9.1,11.43,9.1H124a17.74,17.74,0,0,0,8.72-2.48,12.62,12.62,0,0,1,1.17,2v7.26c-.48,1-1,2-1.53,3-5.31,3.11-13.94,7.27-22.3,7.46h-.56l-.92,0Z" transform="translate(0 0)"/><path id="Trazado_6377" data-name="Trazado 6377" class="cls-41" d="M108.53,203.72a2,2,0,0,1,1.22-.43,2.84,2.84,0,0,1,.65.1,1.94,1.94,0,0,1,1.12,1c.2.38.4.78.61,1.19,2,3.86,4.6,9.1,11.43,9.1H124a17.74,17.74,0,0,0,8.72-2.48,12.62,12.62,0,0,1,1.17,2v7.26c-.48,1-1,2-1.53,3-5.31,3.11-13.94,7.27-22.3,7.46h-.56l-.92,0Z" transform="translate(0 0)"/><path id="Trazado_6378" data-name="Trazado 6378" class="cls-36" d="M108.53,231.76l.92,0H110c8.36-.19,17-4.35,22.3-7.46.55-1,1.06-2,1.53-3v18.69a18.27,18.27,0,0,1-.6,4.66H108.53Z" transform="translate(0 0)"/><path id="Trazado_6379" data-name="Trazado 6379" class="cls-41" d="M108.53,231.76l.92,0H110c8.36-.19,17-4.35,22.3-7.46.55-1,1.06-2,1.53-3v18.69a18.27,18.27,0,0,1-.6,4.66H108.53Z" transform="translate(0 0)"/><path id="Trazado_6380" data-name="Trazado 6380" class="cls-40" d="M125.85,208.18c-3.86,0-7.67-.07-9.71-.89-.59-1-1.11-2-1.63-3q-.32-.63-.63-1.23a4.61,4.61,0,0,0-5.35-2.34v-16h20.55a28.28,28.28,0,0,1,4.76.77v22.41a13.85,13.85,0,0,1-3.06,2.26A7.83,7.83,0,0,0,125.85,208.18Z" transform="translate(0 0)"/><path id="Trazado_6381" data-name="Trazado 6381" class="cls-43" d="M125.85,208.18c-3.86,0-7.67-.07-9.71-.89-.59-1-1.11-2-1.63-3q-.32-.63-.63-1.23a4.61,4.61,0,0,0-5.35-2.34v-16h20.55a28.28,28.28,0,0,1,4.76.77v22.41a13.85,13.85,0,0,1-3.06,2.26A7.83,7.83,0,0,0,125.85,208.18Z" transform="translate(0 0)"/><path id="Trazado_6382" data-name="Trazado 6382" class="cls-41" d="M125.85,208.18c-3.86,0-7.67-.07-9.71-.89-.59-1-1.11-2-1.63-3q-.32-.63-.63-1.23a4.61,4.61,0,0,0-5.35-2.34v-16h20.55a28.28,28.28,0,0,1,4.76.77v22.41a13.85,13.85,0,0,1-3.06,2.26A7.83,7.83,0,0,0,125.85,208.18Z" transform="translate(0 0)"/><path id="Trazado_6383" data-name="Trazado 6383" class="cls-40" d="M88.75,210.14c-5.11-2.77-7.08-8.1-7.78-10.8-1.51-5.88-.33-11.2,1.73-12.48,1.56-1,2.7-1.67,7.67-2.16v24.35A9.77,9.77,0,0,0,88.75,210.14Z" transform="translate(0 0)"/><path id="Trazado_6384" data-name="Trazado 6384" class="cls-43" d="M88.75,210.14c-5.11-2.77-7.08-8.1-7.78-10.8-1.51-5.88-.33-11.2,1.73-12.48,1.56-1,2.7-1.67,7.67-2.16v24.35A9.77,9.77,0,0,0,88.75,210.14Z" transform="translate(0 0)"/><path id="Trazado_6385" data-name="Trazado 6385" class="cls-41" d="M88.75,210.14c-5.11-2.77-7.08-8.1-7.78-10.8-1.51-5.88-.33-11.2,1.73-12.48,1.56-1,2.7-1.67,7.67-2.16v24.35A9.77,9.77,0,0,0,88.75,210.14Z" transform="translate(0 0)"/><path id="Trazado_6386" data-name="Trazado 6386" class="cls-42" d="M90.37,210.88a14.7,14.7,0,0,1-1.62-.74,9.14,9.14,0,0,1,1.62-1.08Z" transform="translate(0 0)"/><path id="Trazado_6387" data-name="Trazado 6387" class="cls-43" d="M90.37,210.88a14.7,14.7,0,0,1-1.62-.74,9.14,9.14,0,0,1,1.62-1.08Z" transform="translate(0 0)"/><path id="Trazado_6388" data-name="Trazado 6388" class="cls-41" d="M90.37,210.88a14.7,14.7,0,0,1-1.62-.74,9.14,9.14,0,0,1,1.62-1.08Z" transform="translate(0 0)"/><path id="Trazado_6389" data-name="Trazado 6389" class="cls-42" d="M130.78,210.14a15.2,15.2,0,0,1-6.9,1.76c-4,.12-6.12-2-7.74-4.61,2,.82,5.85.89,9.71.89A7.86,7.86,0,0,1,130.78,210.14Z" transform="translate(0 0)"/><path id="Trazado_6390" data-name="Trazado 6390" class="cls-43" d="M130.78,210.14a15.2,15.2,0,0,1-6.9,1.76c-4,.12-6.12-2-7.74-4.61,2,.82,5.85.89,9.71.89A7.86,7.86,0,0,1,130.78,210.14Z" transform="translate(0 0)"/><path id="Trazado_6391" data-name="Trazado 6391" class="cls-41" d="M130.78,210.14a15.2,15.2,0,0,1-6.9,1.76c-4,.12-6.12-2-7.74-4.61,2,.82,5.85.89,9.71.89A7.86,7.86,0,0,1,130.78,210.14Z" transform="translate(0 0)"/><path id="Trazado_6392" data-name="Trazado 6392" class="cls-44" d="M108.53,200.71a4.61,4.61,0,0,1,5.35,2.34q.32.6.63,1.23c.52,1,1,2.05,1.63,3,1.61,2.63,3.74,4.73,7.74,4.61a15.23,15.23,0,0,0,6.9-1.76,13.85,13.85,0,0,0,3.06-2.26v3.51q-.57.42-1.17.78a17.63,17.63,0,0,1-8.72,2.47h-.39c-6.83,0-9.48-5.25-11.43-9.1-.2-.41-.4-.81-.6-1.19a2,2,0,0,0-1.12-1,2,2,0,0,0-.64-.11h0a1.9,1.9,0,0,0-1.21.43Z" transform="translate(0 0)"/><path id="Trazado_6393" data-name="Trazado 6393" class="cls-41" d="M108.53,200.71a4.61,4.61,0,0,1,5.35,2.34q.32.6.63,1.23c.52,1,1,2.05,1.63,3,1.61,2.63,3.74,4.73,7.74,4.61a15.23,15.23,0,0,0,6.9-1.76,13.85,13.85,0,0,0,3.06-2.26v3.51q-.57.42-1.17.78a17.63,17.63,0,0,1-8.72,2.47h-.39c-6.83,0-9.48-5.25-11.43-9.1-.2-.41-.4-.81-.6-1.19a2,2,0,0,0-1.12-1,2,2,0,0,0-.64-.11h0a1.9,1.9,0,0,0-1.21.43Z" transform="translate(0 0)"/><path id="Trazado_6394" data-name="Trazado 6394" class="cls-44" d="M81.31,184.52c2-1.25,3.62-2.05,8.9-2.56h.16v2.76c-5,.48-6.1,1.19-7.67,2.16-2.06,1.27-3.24,6.59-1.73,12.47.7,2.7,2.68,8,7.79,10.8a13.83,13.83,0,0,0,1.61.75v2.86a16.93,16.93,0,0,1-3.5-1.58,18.32,18.32,0,0,1-7.24-8.51,102.29,102.29,0,0,1-1.26-13.75h0c0-.26,0-.5,0-.76v-.29A7.6,7.6,0,0,1,81.31,184.52Z" transform="translate(0 0)"/><path id="Trazado_6395" data-name="Trazado 6395" class="cls-41" d="M81.31,184.52c2-1.25,3.62-2.05,8.9-2.56h.16v2.76c-5,.48-6.1,1.19-7.67,2.16-2.06,1.27-3.24,6.59-1.73,12.47.7,2.7,2.68,8,7.79,10.8a13.83,13.83,0,0,0,1.61.75v2.86a16.93,16.93,0,0,1-3.5-1.58,18.32,18.32,0,0,1-7.24-8.51,102.29,102.29,0,0,1-1.26-13.75h0c0-.26,0-.5,0-.76v-.29A7.6,7.6,0,0,1,81.31,184.52Z" transform="translate(0 0)"/><path id="Trazado_6396" data-name="Trazado 6396" class="cls-44" d="M133.84,185.47a28.28,28.28,0,0,0-4.76-.77H108.53v-2.75h20.34l.46,0a36.09,36.09,0,0,1,4.51.68Z" transform="translate(0 0)"/><path id="Trazado_6397" data-name="Trazado 6397" class="cls-41" d="M133.84,185.47a28.28,28.28,0,0,0-4.76-.77H108.53v-2.75h20.34l.46,0a36.09,36.09,0,0,1,4.51.68Z" transform="translate(0 0)"/><path id="Trazado_6398" data-name="Trazado 6398" class="cls-36" d="M142.72,173.82V174c0-.05,0-.09,0-.14Z" transform="translate(0 0)"/><path id="Trazado_6399" data-name="Trazado 6399" class="cls-41" d="M142.72,173.82V174c0-.05,0-.09,0-.14Z" transform="translate(0 0)"/><path id="Trazado_6400" data-name="Trazado 6400" class="cls-36" d="M78.34,188.37Z" transform="translate(0 0)"/><path id="Trazado_6401" data-name="Trazado 6401" class="cls-41" d="M78.34,188.37Z" transform="translate(0 0)"/><path id="Trazado_6402" data-name="Trazado 6402" class="cls-36" d="M81.89,179c.22-1.72.49-3.45.79-5.16h7.69V175A35.18,35.18,0,0,0,81.89,179Z" transform="translate(0 0)"/><path id="Trazado_6403" data-name="Trazado 6403" class="cls-41" d="M81.89,179c.22-1.72.49-3.45.79-5.16h7.69V175A35.18,35.18,0,0,0,81.89,179Z" transform="translate(0 0)"/><path id="Trazado_6404" data-name="Trazado 6404" class="cls-36" d="M78.35,187.64Z" transform="translate(0 0)"/><path id="Trazado_6405" data-name="Trazado 6405" class="cls-41" d="M78.35,187.64Z" transform="translate(0 0)"/><path id="Trazado_6406" data-name="Trazado 6406" class="cls-36" d="M122.06,173.82h11.78v4.69A67,67,0,0,0,122.06,173.82Z" transform="translate(0 0)"/><path id="Trazado_6407" data-name="Trazado 6407" class="cls-41" d="M122.06,173.82h11.78v4.69A67,67,0,0,0,122.06,173.82Z" transform="translate(0 0)"/><path id="Trazado_6408" data-name="Trazado 6408" class="cls-36" d="M78.4,185.62Z" transform="translate(0 0)"/><path id="Trazado_6409" data-name="Trazado 6409" class="cls-41" d="M78.4,185.62Z" transform="translate(0 0)"/><path id="Trazado_6410" data-name="Trazado 6410" class="cls-36" d="M78.88,182.19a2.34,2.34,0,0,0-.09.24A2.34,2.34,0,0,1,78.88,182.19Z" transform="translate(0 0)"/><path id="Trazado_6411" data-name="Trazado 6411" class="cls-41" d="M78.88,182.19a2.34,2.34,0,0,0-.09.24A2.34,2.34,0,0,1,78.88,182.19Z" transform="translate(0 0)"/><path id="Trazado_6412" data-name="Trazado 6412" class="cls-36" d="M79.17,181.64l-.08.15Z" transform="translate(0 0)"/><path id="Trazado_6413" data-name="Trazado 6413" class="cls-41" d="M79.17,181.64l-.08.15Z" transform="translate(0 0)"/><path id="Trazado_6414" data-name="Trazado 6414" class="cls-36" d="M79.56,181.1l-.06.08Z" transform="translate(0 0)"/><path id="Trazado_6415" data-name="Trazado 6415" class="cls-41" d="M79.56,181.1l-.06.08Z" transform="translate(0 0)"/><path id="Trazado_6416" data-name="Trazado 6416" class="cls-36" d="M80,180.56l0,0Z" transform="translate(0 0)"/><path id="Trazado_6417" data-name="Trazado 6417" class="cls-41" d="M80,180.56l0,0Z" transform="translate(0 0)"/><path id="Trazado_6418" data-name="Trazado 6418" class="cls-36" d="M78.67,182.75c0,.13-.06.27-.08.4C78.61,183,78.64,182.88,78.67,182.75Z" transform="translate(0 0)"/><path id="Trazado_6419" data-name="Trazado 6419" class="cls-41" d="M78.67,182.75c0,.13-.06.27-.08.4C78.61,183,78.64,182.88,78.67,182.75Z" transform="translate(0 0)"/><path id="Trazado_6420" data-name="Trazado 6420" class="cls-36" d="M78.37,186.26v0Z" transform="translate(0 0)"/><path id="Trazado_6421" data-name="Trazado 6421" class="cls-41" d="M78.37,186.26v0Z" transform="translate(0 0)"/><path id="Trazado_6422" data-name="Trazado 6422" class="cls-36" d="M78.36,186.94Z" transform="translate(0 0)"/><path id="Trazado_6423" data-name="Trazado 6423" class="cls-41" d="M78.36,186.94Z" transform="translate(0 0)"/><path id="Trazado_6424" data-name="Trazado 6424" class="cls-36" d="M140.22,242.43a1.31,1.31,0,0,1,.12-.11Z" transform="translate(0 0)"/><path id="Trazado_6425" data-name="Trazado 6425" class="cls-41" d="M140.22,242.43a1.31,1.31,0,0,1,.12-.11Z" transform="translate(0 0)"/><path id="Trazado_6426" data-name="Trazado 6426" class="cls-36" d="M81.35,225.7c-.06-5-.23-10.08-.36-15.13h0a72.24,72.24,0,0,0,3.16,10.18c.32.82.66,1.61,1,2.39,1.39.87,3.16,1.92,5.2,3v18.61H85.2C82.26,239,81.45,232.31,81.35,225.7Z" transform="translate(0 0)"/><path id="Trazado_6427" data-name="Trazado 6427" class="cls-41" d="M81.35,225.7c-.06-5-.23-10.08-.36-15.13h0a72.24,72.24,0,0,0,3.16,10.18c.32.82.66,1.61,1,2.39,1.39.87,3.16,1.92,5.2,3v18.61H85.2C82.26,239,81.45,232.31,81.35,225.7Z" transform="translate(0 0)"/><path id="Trazado_6428" data-name="Trazado 6428" class="cls-36" d="M142.72,236.55a8.11,8.11,0,0,1-2.28,5.65,8.35,8.35,0,0,0,2.28-5.76Z" transform="translate(0 0)"/><path id="Trazado_6429" data-name="Trazado 6429" class="cls-41" d="M142.72,236.55a8.11,8.11,0,0,1-2.28,5.65,8.35,8.35,0,0,0,2.28-5.76Z" transform="translate(0 0)"/><path id="Trazado_6430" data-name="Trazado 6430" class="cls-36" d="M78.36,189.9Z" transform="translate(0 0)"/><path id="Trazado_6431" data-name="Trazado 6431" class="cls-41" d="M78.36,189.9Z" transform="translate(0 0)"/><path id="Trazado_6432" data-name="Trazado 6432" class="cls-36" d="M78.35,189.12Z" transform="translate(0 0)"/><path id="Trazado_6433" data-name="Trazado 6433" class="cls-41" d="M78.35,189.12Z" transform="translate(0 0)"/><path id="Trazado_6434" data-name="Trazado 6434" class="cls-39" d="M82.68,173.82c-.3,1.71-.57,3.43-.79,5.16h0A12.82,12.82,0,0,0,80,180.56l0,0a6.66,6.66,0,0,0-.44.51s0,.05-.06.07a5,5,0,0,0-.33.47l-.08.15a4,4,0,0,0-.22.4l-.09.24c0,.11-.08.22-.11.32a2.83,2.83,0,0,0-.08.4,1,1,0,0,0,0,.17c-.07.68-.13,1.45-.16,2.3v0l0,.62v.06c0,.2,0,.4,0,.62V187c0,.21,0,.42,0,.64v.73h0v.76c0,.25,0,.5,0,.75h0a102.3,102.3,0,0,0,1.27,13.76c.36,2.27.81,4.6,1.36,6.91h0c.13,5,.3,10.08.36,15.12.09,6.61.9,13.28,3.85,19a8.19,8.19,0,0,1-8-8.18V173.82Z" transform="translate(0 0)"/><path id="Trazado_6435" data-name="Trazado 6435" class="cls-41" d="M82.68,173.82c-.3,1.71-.57,3.43-.79,5.16h0A12.82,12.82,0,0,0,80,180.56l0,0a6.66,6.66,0,0,0-.44.51s0,.05-.06.07a5,5,0,0,0-.33.47l-.08.15a4,4,0,0,0-.22.4l-.09.24c0,.11-.08.22-.11.32a2.83,2.83,0,0,0-.08.4,1,1,0,0,0,0,.17c-.07.68-.13,1.45-.16,2.3v0l0,.62v.06c0,.2,0,.4,0,.62V187c0,.21,0,.42,0,.64v.73h0v.76c0,.25,0,.5,0,.75h0a102.3,102.3,0,0,0,1.27,13.76c.36,2.27.81,4.6,1.36,6.91h0c.13,5,.3,10.08.36,15.12.09,6.61.9,13.28,3.85,19a8.19,8.19,0,0,1-8-8.18V173.82Z" transform="translate(0 0)"/><path id="Trazado_6436" data-name="Trazado 6436" class="cls-36" d="M140.34,242.32l.1-.12Z" transform="translate(0 0)"/><path id="Trazado_6437" data-name="Trazado 6437" class="cls-45" d="M140.34,242.32l.1-.12Z" transform="translate(0 0)"/><path id="Trazado_6438" data-name="Trazado 6438" class="cls-36" d="M140.22,242.43a8,8,0,0,1-5.58,2.3h-.1A8.16,8.16,0,0,0,140.22,242.43Z" transform="translate(0 0)"/><path id="Trazado_6439" data-name="Trazado 6439" class="cls-45" d="M140.22,242.43a8,8,0,0,1-5.58,2.3h-.1A8.16,8.16,0,0,0,140.22,242.43Z" transform="translate(0 0)"/><path id="Trazado_6440" data-name="Trazado 6440" class="cls-41" d="M140.54,187.09v0Z" transform="translate(0 0)"/><path id="Trazado_6441" data-name="Trazado 6441" class="cls-45" d="M140.54,187.09v0Z" transform="translate(0 0)"/><path id="Trazado_6442" data-name="Trazado 6442" class="cls-40" d="M133.84,211.39a18,18,0,0,0,5.2-6,71.34,71.34,0,0,1-3.87,13,15.76,15.76,0,0,0-1.32-4.3Z" transform="translate(0 0)"/><path id="Trazado_6443" data-name="Trazado 6443" class="cls-41" d="M133.84,211.39a18,18,0,0,0,5.2-6,71.34,71.34,0,0,1-3.87,13,15.76,15.76,0,0,0-1.32-4.3Z" transform="translate(0 0)"/><path id="Trazado_6444" data-name="Trazado 6444" class="cls-45" d="M133.84,211.39a18,18,0,0,0,5.2-6,71.34,71.34,0,0,1-3.87,13,15.76,15.76,0,0,0-1.32-4.3Z" transform="translate(0 0)"/><path id="Trazado_6445" data-name="Trazado 6445" class="cls-40" d="M138.23,184.51a13.46,13.46,0,0,0-4.39-1.87v-4.13c3.69,2,6.31,4.14,6.52,6.18.08.73.13,1.53.18,2.4v.12A6.68,6.68,0,0,0,138.23,184.51Z" transform="translate(0 0)"/><path id="Trazado_6446" data-name="Trazado 6446" class="cls-41" d="M138.23,184.51a13.46,13.46,0,0,0-4.39-1.87v-4.13c3.69,2,6.31,4.14,6.52,6.18.08.73.13,1.53.18,2.4v.12A6.68,6.68,0,0,0,138.23,184.51Z" transform="translate(0 0)"/><path id="Trazado_6447" data-name="Trazado 6447" class="cls-45" d="M138.23,184.51a13.46,13.46,0,0,0-4.39-1.87v-4.13c3.69,2,6.31,4.14,6.52,6.18.08.73.13,1.53.18,2.4v.12A6.68,6.68,0,0,0,138.23,184.51Z" transform="translate(0 0)"/><path id="Trazado_6448" data-name="Trazado 6448" class="cls-42" d="M135.16,218.44c-.41,1-.85,2-1.32,2.95v-7.25A15.42,15.42,0,0,1,135.16,218.44Z" transform="translate(0 0)"/><path id="Trazado_6449" data-name="Trazado 6449" class="cls-41" d="M135.16,218.44c-.41,1-.85,2-1.32,2.95v-7.25A15.42,15.42,0,0,1,135.16,218.44Z" transform="translate(0 0)"/><path id="Trazado_6450" data-name="Trazado 6450" class="cls-45" d="M135.16,218.44c-.41,1-.85,2-1.32,2.95v-7.25A15.42,15.42,0,0,1,135.16,218.44Z" transform="translate(0 0)"/><path id="Trazado_6451" data-name="Trazado 6451" class="cls-40" d="M136.84,186.87c2.06,1.27,3.24,6.59,1.73,12.47a18.57,18.57,0,0,1-4.73,8.54V185.47A10.15,10.15,0,0,1,136.84,186.87Z" transform="translate(0 0)"/><path id="Trazado_6452" data-name="Trazado 6452" class="cls-43" d="M136.84,186.87c2.06,1.27,3.24,6.59,1.73,12.47a18.57,18.57,0,0,1-4.73,8.54V185.47A10.15,10.15,0,0,1,136.84,186.87Z" transform="translate(0 0)"/><path id="Trazado_6453" data-name="Trazado 6453" class="cls-41" d="M136.84,186.87c2.06,1.27,3.24,6.59,1.73,12.47a18.57,18.57,0,0,1-4.73,8.54V185.47A10.15,10.15,0,0,1,136.84,186.87Z" transform="translate(0 0)"/><path id="Trazado_6454" data-name="Trazado 6454" class="cls-45" d="M136.84,186.87c2.06,1.27,3.24,6.59,1.73,12.47a18.57,18.57,0,0,1-4.73,8.54V185.47A10.15,10.15,0,0,1,136.84,186.87Z" transform="translate(0 0)"/><path id="Trazado_6455" data-name="Trazado 6455" class="cls-44" d="M133.84,211.39v-3.51a18.57,18.57,0,0,0,4.73-8.54c1.51-5.88.33-11.2-1.73-12.47a10.15,10.15,0,0,0-3-1.4v-2.83a13.19,13.19,0,0,1,4.38,1.87,6.64,6.64,0,0,1,2.31,2.7v0a78.1,78.1,0,0,1-1.5,18.18A18,18,0,0,1,133.84,211.39Z" transform="translate(0 0)"/><path id="Trazado_6456" data-name="Trazado 6456" class="cls-41" d="M133.84,211.39v-3.51a18.57,18.57,0,0,0,4.73-8.54c1.51-5.88.33-11.2-1.73-12.47a10.15,10.15,0,0,0-3-1.4v-2.83a13.19,13.19,0,0,1,4.38,1.87,6.64,6.64,0,0,1,2.31,2.7v0a78.1,78.1,0,0,1-1.5,18.18A18,18,0,0,1,133.84,211.39Z" transform="translate(0 0)"/><path id="Trazado_6457" data-name="Trazado 6457" class="cls-45" d="M133.84,211.39v-3.51a18.57,18.57,0,0,0,4.73-8.54c1.51-5.88.33-11.2-1.73-12.47a10.15,10.15,0,0,0-3-1.4v-2.83a13.19,13.19,0,0,1,4.38,1.87,6.64,6.64,0,0,1,2.31,2.7v0a78.1,78.1,0,0,1-1.5,18.18A18,18,0,0,1,133.84,211.39Z" transform="translate(0 0)"/><path id="Trazado_6458" data-name="Trazado 6458" class="cls-36" d="M133.84,240.08V221.39c.47-1,.91-2,1.32-2.95a70.59,70.59,0,0,0,3.88-13,78.06,78.06,0,0,0,1.5-18.17.81.81,0,0,0,0-.16c0-.87-.1-1.67-.17-2.4-.21-2-2.83-4.2-6.52-6.18v-4.69h8.87c0,.05,0,.1,0,.14v62.49a8.39,8.39,0,0,1-2.28,5.76l-.11.11a1.36,1.36,0,0,1-.12.12,8.18,8.18,0,0,1-5.68,2.3h-1.29A18.33,18.33,0,0,0,133.84,240.08Z" transform="translate(0 0)"/><path id="Trazado_6459" data-name="Trazado 6459" class="cls-41" d="M133.84,240.08V221.39c.47-1,.91-2,1.32-2.95a70.59,70.59,0,0,0,3.88-13,78.06,78.06,0,0,0,1.5-18.17.81.81,0,0,0,0-.16c0-.87-.1-1.67-.17-2.4-.21-2-2.83-4.2-6.52-6.18v-4.69h8.87c0,.05,0,.1,0,.14v62.49a8.39,8.39,0,0,1-2.28,5.76l-.11.11a1.36,1.36,0,0,1-.12.12,8.18,8.18,0,0,1-5.68,2.3h-1.29A18.33,18.33,0,0,0,133.84,240.08Z" transform="translate(0 0)"/><path id="Trazado_6460" data-name="Trazado 6460" class="cls-45" d="M133.84,240.08V221.39c.47-1,.91-2,1.32-2.95a70.59,70.59,0,0,0,3.88-13,78.06,78.06,0,0,0,1.5-18.17.81.81,0,0,0,0-.16c0-.87-.1-1.67-.17-2.4-.21-2-2.83-4.2-6.52-6.18v-4.69h8.87c0,.05,0,.1,0,.14v62.49a8.39,8.39,0,0,1-2.28,5.76l-.11.11a1.36,1.36,0,0,1-.12.12,8.18,8.18,0,0,1-5.68,2.3h-1.29A18.33,18.33,0,0,0,133.84,240.08Z" transform="translate(0 0)"/><polygon id="Rectángulo_714" data-name="Rectángulo 714" class="cls-36" points="90.37 244.73 108.53 244.73 108.53 244.73 90.37 244.73"/><polygon id="Rectángulo_715" data-name="Rectángulo 715" class="cls-45" points="90.37 244.73 108.53 244.73 108.53 244.73 90.37 244.73"/><path id="Trazado_6461" data-name="Trazado 6461" class="cls-40" d="M90.67,181.94h-.3v-7c1.22-.42,2.49-.8,3.8-1.16h14.36v8.12Z" transform="translate(0 0)"/><path id="Trazado_6462" data-name="Trazado 6462" class="cls-41" d="M90.67,181.94h-.3v-7c1.22-.42,2.49-.8,3.8-1.16h14.36v8.12Z" transform="translate(0 0)"/><path id="Trazado_6463" data-name="Trazado 6463" class="cls-45" d="M90.67,181.94h-.3v-7c1.22-.42,2.49-.8,3.8-1.16h14.36v8.12Z" transform="translate(0 0)"/><path id="Trazado_6464" data-name="Trazado 6464" class="cls-42" d="M95.58,214.64c7.14.19,9.84-5.17,11.82-9.1l.61-1.19a2.11,2.11,0,0,1,.52-.63v28c-6.54-.36-13.16-3-18.16-5.63V213.75A18.14,18.14,0,0,0,95.58,214.64Z" transform="translate(0 0)"/><path id="Trazado_6465" data-name="Trazado 6465" class="cls-41" d="M95.58,214.64c7.14.19,9.84-5.17,11.82-9.1l.61-1.19a2.11,2.11,0,0,1,.52-.63v28c-6.54-.36-13.16-3-18.16-5.63V213.75A18.14,18.14,0,0,0,95.58,214.64Z" transform="translate(0 0)"/><path id="Trazado_6466" data-name="Trazado 6466" class="cls-45" d="M95.58,214.64c7.14.19,9.84-5.17,11.82-9.1l.61-1.19a2.11,2.11,0,0,1,.52-.63v28c-6.54-.36-13.16-3-18.16-5.63V213.75A18.14,18.14,0,0,0,95.58,214.64Z" transform="translate(0 0)"/><path id="Trazado_6467" data-name="Trazado 6467" class="cls-40" d="M90.67,184.69h17.86v16a4.71,4.71,0,0,0-2.88,2.34c-.21.4-.41.81-.63,1.23-.51,1-1,2.05-1.62,3-2.05.82-5.86.89-9.71.89a7.15,7.15,0,0,0-3.32.88V184.71h.3Z" transform="translate(0 0)"/><path id="Trazado_6468" data-name="Trazado 6468" class="cls-43" d="M90.67,184.69h17.86v16a4.71,4.71,0,0,0-2.88,2.34c-.21.4-.41.81-.63,1.23-.51,1-1,2.05-1.62,3-2.05.82-5.86.89-9.71.89a7.15,7.15,0,0,0-3.32.88V184.71h.3Z" transform="translate(0 0)"/><path id="Trazado_6469" data-name="Trazado 6469" class="cls-41" d="M90.67,184.69h17.86v16a4.71,4.71,0,0,0-2.88,2.34c-.21.4-.41.81-.63,1.23-.51,1-1,2.05-1.62,3-2.05.82-5.86.89-9.71.89a7.15,7.15,0,0,0-3.32.88V184.71h.3Z" transform="translate(0 0)"/><path id="Trazado_6470" data-name="Trazado 6470" class="cls-45" d="M90.67,184.69h17.86v16a4.71,4.71,0,0,0-2.88,2.34c-.21.4-.41.81-.63,1.23-.51,1-1,2.05-1.62,3-2.05.82-5.86.89-9.71.89a7.15,7.15,0,0,0-3.32.88V184.71h.3Z" transform="translate(0 0)"/><path id="Trazado_6471" data-name="Trazado 6471" class="cls-42" d="M93.69,208.18c3.86,0,7.67-.07,9.71-.89-1.62,2.63-3.75,4.72-7.74,4.61a15.93,15.93,0,0,1-5.29-1v-1.83A7.27,7.27,0,0,1,93.69,208.18Z" transform="translate(0 0)"/><path id="Trazado_6472" data-name="Trazado 6472" class="cls-43" d="M93.69,208.18c3.86,0,7.67-.07,9.71-.89-1.62,2.63-3.75,4.72-7.74,4.61a15.93,15.93,0,0,1-5.29-1v-1.83A7.27,7.27,0,0,1,93.69,208.18Z" transform="translate(0 0)"/><path id="Trazado_6473" data-name="Trazado 6473" class="cls-41" d="M93.69,208.18c3.86,0,7.67-.07,9.71-.89-1.62,2.63-3.75,4.72-7.74,4.61a15.93,15.93,0,0,1-5.29-1v-1.83A7.27,7.27,0,0,1,93.69,208.18Z" transform="translate(0 0)"/><path id="Trazado_6474" data-name="Trazado 6474" class="cls-45" d="M93.69,208.18c3.86,0,7.67-.07,9.71-.89-1.62,2.63-3.75,4.72-7.74,4.61a15.93,15.93,0,0,1-5.29-1v-1.83A7.27,7.27,0,0,1,93.69,208.18Z" transform="translate(0 0)"/><path id="Trazado_6475" data-name="Trazado 6475" class="cls-44" d="M108.53,184.69H90.37V182h18.17Z" transform="translate(0 0)"/><path id="Trazado_6476" data-name="Trazado 6476" class="cls-41" d="M108.53,184.69H90.37V182h18.17Z" transform="translate(0 0)"/><path id="Trazado_6477" data-name="Trazado 6477" class="cls-45" d="M108.53,184.69H90.37V182h18.17Z" transform="translate(0 0)"/><path id="Trazado_6478" data-name="Trazado 6478" class="cls-44" d="M103.4,207.29c.59-1,1.11-2,1.62-3l.63-1.24a4.71,4.71,0,0,1,2.88-2.34v3a2.11,2.11,0,0,0-.52.63l-.61,1.2c-2,3.92-4.68,9.28-11.82,9.1a18.5,18.5,0,0,1-5.21-.9v-2.86a15.92,15.92,0,0,0,5.29,1C99.65,212,101.78,209.92,103.4,207.29Z" transform="translate(0 0)"/><path id="Trazado_6479" data-name="Trazado 6479" class="cls-41" d="M103.4,207.29c.59-1,1.11-2,1.62-3l.63-1.24a4.71,4.71,0,0,1,2.88-2.34v3a2.11,2.11,0,0,0-.52.63l-.61,1.2c-2,3.92-4.68,9.28-11.82,9.1a18.5,18.5,0,0,1-5.21-.9v-2.86a15.92,15.92,0,0,0,5.29,1C99.65,212,101.78,209.92,103.4,207.29Z" transform="translate(0 0)"/><path id="Trazado_6480" data-name="Trazado 6480" class="cls-45" d="M103.4,207.29c.59-1,1.11-2,1.62-3l.63-1.24a4.71,4.71,0,0,1,2.88-2.34v3a2.11,2.11,0,0,0-.52.63l-.61,1.2c-2,3.92-4.68,9.28-11.82,9.1a18.5,18.5,0,0,1-5.21-.9v-2.86a15.92,15.92,0,0,0,5.29,1C99.65,212,101.78,209.92,103.4,207.29Z" transform="translate(0 0)"/><path id="Trazado_6481" data-name="Trazado 6481" class="cls-36" d="M90.37,173.82h3.8c-1.3.35-2.57.74-3.8,1.16Z" transform="translate(0 0)"/><path id="Trazado_6482" data-name="Trazado 6482" class="cls-41" d="M90.37,173.82h3.8c-1.3.35-2.57.74-3.8,1.16Z" transform="translate(0 0)"/><path id="Trazado_6483" data-name="Trazado 6483" class="cls-45" d="M90.37,173.82h3.8c-1.3.35-2.57.74-3.8,1.16Z" transform="translate(0 0)"/><path id="Trazado_6484" data-name="Trazado 6484" class="cls-36" d="M90.37,226.12c5,2.6,11.62,5.27,18.16,5.64v13H90.37Z" transform="translate(0 0)"/><path id="Trazado_6485" data-name="Trazado 6485" class="cls-41" d="M90.37,226.12c5,2.6,11.62,5.27,18.16,5.64v13H90.37Z" transform="translate(0 0)"/><path id="Trazado_6486" data-name="Trazado 6486" class="cls-45" d="M90.37,226.12c5,2.6,11.62,5.27,18.16,5.64v13H90.37Z" transform="translate(0 0)"/><path id="Trazado_6487" data-name="Trazado 6487" class="cls-46" d="M142.71,173.82H72.08v-4.65h32.58v0h8v0h34.46v4.65Z" transform="translate(0 0)"/><path id="Trazado_6488" data-name="Trazado 6488" class="cls-42" d="M108.37,274.1l.63.06.61-.14c.25,0,1.63-.38,3.8-1V401.54L106,415.31V273.83C106.8,273.94,107.58,274,108.37,274.1Z" transform="translate(0 0)"/><path id="Trazado_6489" data-name="Trazado 6489" class="cls-42" d="M113.42,425.75V454H106V426.23Z" transform="translate(0 0)"/><path id="Trazado_6490" data-name="Trazado 6490" class="cls-42" d="M111,265.12c-1.15.34-2,.57-2.57.7-.83-.08-1.64-.2-2.44-.33v-.37Z" transform="translate(0 0)"/><path id="Trazado_6491" data-name="Trazado 6491" class="cls-42" d="M113.42,273c-2.17.63-3.56,1-3.8,1l-.61.14-.63-.06c-.79-.07-1.57-.16-2.35-.27-18.93-2.63-32.44-14.78-38.69-21.61-1.8-2-3-3.5-3.55-4.23l-.32-.43L70,242.68l.07.09h0c1.07,1.43,14.77,19.22,36,22.72.8.13,1.62.25,2.44.34.54-.14,1.42-.37,2.57-.7,7.67-2.23,27.4-9,37.77-22.24l1,.82,5,4.12.29.23C143.26,263.12,122.07,270.51,113.42,273Z" transform="translate(0 0)"/><path id="Trazado_6492" data-name="Trazado 6492" class="cls-42" d="M51.33,416.5l-.31-.06c.14-.65.67-5.11.74-6.67l.62.12a360.62,360.62,0,0,0,53.13,6.39l-3.66,6.82q-6-.35-12.18-.9A356.89,356.89,0,0,1,51.33,416.5Z" transform="translate(0 0)"/><path id="Trazado_6493" data-name="Trazado 6493" class="cls-42" d="M112.7,169.17v0h-8V143.89h8Z" transform="translate(0 0)"/><path id="Trazado_6494" data-name="Trazado 6494" class="cls-36" d="M216.68,410.71c.23-.13.44-.27.67-.41C217.12,410.44,216.91,410.58,216.68,410.71Z" transform="translate(0 0)"/><path id="Trazado_6495" data-name="Trazado 6495" class="cls-36" d="M234,372.37c-.08-.54-.18-1.09-.28-1.64C233.78,371.28,233.88,371.82,234,372.37Z" transform="translate(0 0)"/><path id="Trazado_6496" data-name="Trazado 6496" class="cls-36" d="M234.55,377.52c0-.5-.08-1-.12-1.5C234.47,376.53,234.52,377,234.55,377.52Z" transform="translate(0 0)"/><path id="Trazado_6497" data-name="Trazado 6497" class="cls-36" d="M234.21,374.1c-.06-.53-.14-1.06-.23-1.59C234.07,373,234.14,373.57,234.21,374.1Z" transform="translate(0 0)"/><path id="Trazado_6498" data-name="Trazado 6498" class="cls-36" d="M234.41,375.82c0-.51-.11-1-.18-1.55C234.3,374.79,234.36,375.31,234.41,375.82Z" transform="translate(0 0)"/><path id="Trazado_6499" data-name="Trazado 6499" class="cls-36" d="M218.76,393.88a14,14,0,0,1-2.42.09,16.15,16.15,0,0,0,.46-4.75c-.22-3-5.41-5.22-7.8-6.1l15.48-21.77a1.8,1.8,0,0,0-1.57-2.83l-24.46,1.4a1.25,1.25,0,0,0-.22-1.75,1.2,1.2,0,0,0-.87-.26l-7.08.52c-1.63-3.76-3.14-7.58-4.61-11.41-1.1-2.89-2.14-5.81-3.2-8.71-.63-1.74-1.27-3.48-1.93-5.2-.22-.58-.44-1.15-.67-1.72-.14-.37-.29-.73-.44-1.09a79.49,79.49,0,0,0-4.05-8c-.36-.61-.74-1.2-1.13-1.79a71.3,71.3,0,0,1,.07,18.46c-.44,3.67-1,7.31-1.6,10.95l4.2,9.47h0l-3.51-7.94-8.95-20.2,17.09-71.42.08-.35s18.49,9.91,28.15,45.73c4.84,18,16.87,38.94,22.22,58.28a115.51,115.51,0,0,1-1.88,20.58C229.13,389.34,223.68,393.22,218.76,393.88Zm-49.49-67.35c.09-.53.17-1.06.27-1.59a10.78,10.78,0,0,0-.27,1.59Z" transform="translate(0 0)"/><path id="Trazado_6500" data-name="Trazado 6500" class="cls-36" d="M232.48,365.31c-.15-.6-.31-1.19-.47-1.79C232.17,364.12,232.33,364.71,232.48,365.31Z" transform="translate(0 0)"/><path id="Trazado_6501" data-name="Trazado 6501" class="cls-36" d="M232.92,367.09c-.13-.58-.28-1.16-.43-1.75C232.64,365.93,232.78,366.51,232.92,367.09Z" transform="translate(0 0)"/><path id="Trazado_6502" data-name="Trazado 6502" class="cls-36" d="M233.66,370.62c-.1-.56-.21-1.11-.33-1.67C233.45,369.5,233.56,370.06,233.66,370.62Z" transform="translate(0 0)"/><path id="Trazado_6503" data-name="Trazado 6503" class="cls-36" d="M233.31,368.86c-.11-.57-.24-1.14-.38-1.71C233.07,367.72,233.2,368.29,233.31,368.86Z" transform="translate(0 0)"/><path id="Trazado_6504" data-name="Trazado 6504" class="cls-36" d="M221.83,407.21c.27-.21.52-.42.78-.64C222.35,406.79,222.1,407,221.83,407.21Z" transform="translate(0 0)"/><path id="Trazado_6505" data-name="Trazado 6505" class="cls-36" d="M233.37,390.52c.11-.38.2-.76.29-1.14C233.57,389.76,233.48,390.14,233.37,390.52Z" transform="translate(0 0)"/><path id="Trazado_6506" data-name="Trazado 6506" class="cls-36" d="M231.71,395.06c.16-.34.3-.68.44-1C232,394.38,231.87,394.72,231.71,395.06Z" transform="translate(0 0)"/><path id="Trazado_6507" data-name="Trazado 6507" class="cls-36" d="M232.9,392.05c.12-.36.23-.73.34-1.1C233.13,391.32,233,391.69,232.9,392.05Z" transform="translate(0 0)"/><path id="Trazado_6508" data-name="Trazado 6508" class="cls-36" d="M224.72,404.72l.72-.72Z" transform="translate(0 0)"/><path id="Trazado_6509" data-name="Trazado 6509" class="cls-36" d="M232.35,393.57c.14-.35.26-.71.39-1.06C232.61,392.86,232.49,393.22,232.35,393.57Z" transform="translate(0 0)"/><path id="Trazado_6510" data-name="Trazado 6510" class="cls-36" d="M223.33,406c.26-.22.5-.45.75-.68C223.83,405.53,223.59,405.76,223.33,406Z" transform="translate(0 0)"/><path id="Trazado_6511" data-name="Trazado 6511" class="cls-36" d="M228.29,400.74c.21-.28.41-.57.61-.85C228.7,400.17,228.5,400.46,228.29,400.74Z" transform="translate(0 0)"/><path id="Trazado_6512" data-name="Trazado 6512" class="cls-36" d="M226,403.42c.24-.25.46-.51.69-.77C226.47,402.91,226.25,403.17,226,403.42Z" transform="translate(0 0)"/><path id="Trazado_6513" data-name="Trazado 6513" class="cls-36" d="M229.28,399.36q.3-.45.57-.9C229.66,398.77,229.48,399.07,229.28,399.36Z" transform="translate(0 0)"/><path id="Trazado_6514" data-name="Trazado 6514" class="cls-36" d="M231,396.52c.17-.33.33-.65.48-1C231.32,395.87,231.16,396.19,231,396.52Z" transform="translate(0 0)"/><path id="Trazado_6515" data-name="Trazado 6515" class="cls-36" d="M230.18,398c.19-.31.36-.62.53-.93C230.54,397.33,230.37,397.64,230.18,398Z" transform="translate(0 0)"/><path id="Trazado_6516" data-name="Trazado 6516" class="cls-36" d="M234.33,385.79c0-.42.1-.85.14-1.28C234.43,384.94,234.39,385.37,234.33,385.79Z" transform="translate(0 0)"/><path id="Trazado_6517" data-name="Trazado 6517" class="cls-36" d="M218.51,409.58l.75-.51Z" transform="translate(0 0)"/><path id="Trazado_6518" data-name="Trazado 6518" class="cls-36" d="M220.22,408.41c.27-.18.51-.38.77-.57C220.73,408,220.49,408.23,220.22,408.41Z" transform="translate(0 0)"/><path id="Trazado_6519" data-name="Trazado 6519" class="cls-36" d="M234.61,382.54c0-.45,0-.91,0-1.36C234.64,381.63,234.63,382.09,234.61,382.54Z" transform="translate(0 0)"/><path id="Trazado_6520" data-name="Trazado 6520" class="cls-36" d="M234.51,384.18c0-.44.06-.88.08-1.33C234.57,383.3,234.54,383.74,234.51,384.18Z" transform="translate(0 0)"/><path id="Trazado_6521" data-name="Trazado 6521" class="cls-36" d="M227.2,402.1l.65-.81Z" transform="translate(0 0)"/><path id="Trazado_6522" data-name="Trazado 6522" class="cls-36" d="M234.09,387.39c.07-.41.13-.83.19-1.24C234.22,386.57,234.16,387,234.09,387.39Z" transform="translate(0 0)"/><path id="Trazado_6523" data-name="Trazado 6523" class="cls-36" d="M233.77,389q.14-.6.24-1.2Q233.91,388.37,233.77,389Z" transform="translate(0 0)"/><path id="Trazado_6524" data-name="Trazado 6524" class="cls-36" d="M234.63,379.21c0-.48,0-1-.07-1.46C234.59,378.24,234.62,378.73,234.63,379.21Z" transform="translate(0 0)"/><path id="Trazado_6525" data-name="Trazado 6525" class="cls-36" d="M234.65,380.88c0-.47,0-.94,0-1.41C234.65,380,234.66,380.42,234.65,380.88Z" transform="translate(0 0)"/><path id="Trazado_6526" data-name="Trazado 6526" class="cls-37" d="M169.27,326.53a10.78,10.78,0,0,1,.27-1.59C169.44,325.47,169.36,326,169.27,326.53Z" transform="translate(0 0)"/><path id="Trazado_6527" data-name="Trazado 6527" class="cls-37" d="M172.73,350c.6-3.64,1.15-7.28,1.6-10.94a71.82,71.82,0,0,0-.07-18.47c.38.59.77,1.18,1.13,1.79a81.58,81.58,0,0,1,4,8l.45,1.09.66,1.72c.67,1.73,1.3,3.46,1.94,5.2,1.05,2.91,2.09,5.82,3.2,8.71,1.46,3.84,3,7.65,4.6,11.42l-13.36,1Z" transform="translate(0 0)"/><path id="Trazado_6528" data-name="Trazado 6528" class="cls-37" d="M215.12,400.67a41,41,0,0,1,1.22-6.69,13,13,0,0,0,2.42-.1c4.93-.66,10.37-4.54,11.36-9.78A115.51,115.51,0,0,0,232,363.52h0c.17.6.33,1.2.48,1.79v0c.15.59.29,1.17.43,1.75v.06c.14.57.26,1.14.38,1.71l0,.09c.12.56.23,1.11.33,1.67l0,.11c.1.55.2,1.1.28,1.64a.77.77,0,0,1,0,.15c.09.53.16,1.06.23,1.58,0,.06,0,.12,0,.17.07.52.13,1,.18,1.55,0,.07,0,.14,0,.2,0,.5.09,1,.12,1.5,0,.08,0,.15,0,.23,0,.49.06,1,.07,1.46v.26c0,.47,0,.94,0,1.41a2.71,2.71,0,0,1,0,.29c0,.46,0,.91,0,1.37,0,.1,0,.21,0,.31q0,.66-.09,1.32l0,.34c0,.43-.09.86-.14,1.28l-.06.36c-.05.41-.12.83-.19,1.24,0,.13-.05.25-.08.38q-.1.6-.24,1.2c0,.14-.07.27-.1.41-.09.38-.18.76-.29,1.14,0,.15-.09.29-.13.44-.11.36-.22.73-.34,1.1-.05.15-.11.3-.16.44-.13.36-.25.71-.39,1.07-.07.15-.14.31-.2.46-.15.34-.28.68-.44,1-.07.17-.16.33-.24.49-.16.32-.31.65-.48,1l-.28.5-.53.94c-.1.17-.22.34-.33.51s-.37.6-.57.9-.26.35-.38.53-.4.57-.62.85-.29.36-.43.54-.43.55-.66.82l-.5.55c-.23.26-.45.52-.69.77l-.57.58-.72.72c-.2.2-.42.38-.63.58l-.76.68c-.23.2-.48.4-.72.59s-.51.43-.78.64-.55.42-.84.63l-.76.57c-.31.23-.65.44-1,.66l-.75.51c-.37.24-.77.48-1.16.72-.22.14-.44.28-.67.41-.63.38-1.28.74-1.95,1.1a9.35,9.35,0,0,1-5.17,1c1-1.7,2.06-3.68,2.77-4.56C213.46,406.83,214.84,405.15,215.12,400.67Z" transform="translate(0 0)"/><path id="Trazado_6529" data-name="Trazado 6529" class="cls-47" d="M170.91,422l-11.2.73-9.05.6-37.25,2.44-7.39.48-2.85.19a1.79,1.79,0,0,1-1.7-2.63l.37-.69,3.66-6.82.52-1,7.39-13.77,19.86-37a1.81,1.81,0,0,1,1.48-.94L162.6,362s35.83-2,35.85-2.06l24.46-1.4a1.79,1.79,0,0,1,1.56,2.83L209,383.12l-3.21,4.52c-3.95-.73-9.4-1.58-15.6-2.11a3.92,3.92,0,0,0-4,5.35l-6.72-2.19A3.64,3.64,0,0,0,174.8,393l0,.09a3.17,3.17,0,0,0,.35.88.41.41,0,0,0,.05.09h0l-1.25-.45a3.65,3.65,0,1,0-2.48,6.86l.08,0a4,4,0,0,0-.15.49l-.1.14.07,0a3.65,3.65,0,0,0,1.87,3.87l14.63,7.8-1.19,1.67-4.32,6.08a1.8,1.8,0,0,1-1.35.75l-8.73.58-.4,0Z" transform="translate(0 0)"/><path id="Trazado_6530" data-name="Trazado 6530" class="cls-47" d="M196,394.06c1.69.22,3.27.45,4.73.68l-.49.69Z" transform="translate(0 0)"/><path id="Trazado_6531" data-name="Trazado 6531" class="cls-42" d="M174.82,393.06a4.14,4.14,0,0,0,.35.88A4.14,4.14,0,0,1,174.82,393.06Z" transform="translate(0 0)"/><path id="Trazado_6532" data-name="Trazado 6532" class="cls-42" d="M175.23,394v0l0,0Z" transform="translate(0 0)"/><path id="Trazado_6533" data-name="Trazado 6533" class="cls-48" d="M202.32,403.71l-.13,0a3.37,3.37,0,0,1-.48-.12l-2.44-.79a3.33,3.33,0,0,0-.48-.21L175.23,394v0l-.05-.08a4.14,4.14,0,0,1-.35-.88l0-.09c0-.16-.06-.32-.08-.48C175.52,394.1,199.65,401.75,202.32,403.71Z" transform="translate(0 0)"/><g id="Grupo_1170" data-name="Grupo 1170"><path id="Trazado_6534" data-name="Trazado 6534" class="cls-42" d="M216.8,389.22c-.22-3-5.41-5.22-7.8-6.1l-3.21,4.52c-3.94-.73-9.4-1.58-15.6-2.11a3.94,3.94,0,0,0-4.25,3.58,4,4,0,0,0,.26,1.77l-6.72-2.19a3.66,3.66,0,0,0-4.76,3.8c.83,1.61,24.83,9.22,27.58,11.2h-.12a2.77,2.77,0,0,1-.48-.11l-2.44-.79a2.86,2.86,0,0,0-.47-.22L175.23,394h0l-1.24-.45a3.64,3.64,0,1,0-2.6,6.81l.11,0,.09,0a2.67,2.67,0,0,0-.15.48l.35-.49s19.67,7.59,25.38,10h0c1.14.48,1.73.74,1.48.7a13.89,13.89,0,0,1-1.39-.45h0c-5.48-1.87-24.62-9.08-25.86-9.55a3.64,3.64,0,0,0,1.87,3.87l14.63,7.8-1.19,1.68a41.51,41.51,0,0,0,4.5,4.09c1.63,1.08,10.43.6,10.8,0s4.4-1.92,5.8-3.32a14,14,0,0,0,1.74-2.46c1-1.7,2.06-3.68,2.77-4.56,1.14-1.4,2.51-3.08,2.79-7.57a41,41,0,0,1,1.22-6.69A16.16,16.16,0,0,0,216.8,389.22Zm-16.06,5.52-.49.69L196,394.05c1.68.23,6.17.92,4.72.69Z" transform="translate(0 0)"/><path id="Trazado_6535" data-name="Trazado 6535" class="cls-42" d="M174.8,393a4.11,4.11,0,0,1-.07-.47h0A4.11,4.11,0,0,0,174.8,393Z" transform="translate(0 0)"/></g><path id="Trazado_6536" data-name="Trazado 6536" class="cls-48" d="M171.79,400.48s19.67,7.59,25.38,10c1.14.47,1.72.74,1.48.69s-.66-.19-1.39-.44c-5.48-1.88-24.62-9.08-25.86-9.55l-.07,0,.1-.14Z" transform="translate(0 0)"/><path id="Trazado_6537" data-name="Trazado 6537" class="cls-49" d="M164.38,360.36l8.67-.64,3.87-.29h0l13.36-1,7.08-.53a1.25,1.25,0,0,1,1.35,1.15,1.21,1.21,0,0,1-.26.86l0,.09-6.29,7.06a1.22,1.22,0,0,1-.85.42L159.11,370H159a1.26,1.26,0,0,1-1-2l4.6-6,.86-1.13A1.26,1.26,0,0,1,164.38,360.36ZM190.56,365l3.89-4.37-29.32,2.18-3.4,4.45Z" transform="translate(0 0)"/></g></g></g></svg>