<?xml version="1.0" encoding="utf-8"?>
<!-- Generator: Adobe Illustrator 22.0.1, SVG Export Plug-In . SVG Version: 6.00 Build 0)  -->
<svg version="1.1" id="Capa_1" xmlns="http://www.w3.org/2000/svg" xmlns:xlink="http://www.w3.org/1999/xlink" x="0px" y="0px"
	 viewBox="0 0 927 405" style="enable-background:new 0 0 927 405;" xml:space="preserve">
<style type="text/css">
	.st0{fill:#E7E7E7;}
	.st1{fill:#748C97;}
	.st2{fill:#AAB9C0;}
	.st3{fill:#6A828D;}
	.st4{fill:#8196A0;}
	.st5{fill:#CECFCF;}
	.st6{fill:#FFFFFF;}
	.st7{fill:#FFCCAA;}
	.st8{fill:#E6EAEC;}
	.st9{fill:#CED4DB;}
	.st10{fill:#C3CBD3;}
	.st11{fill:#D4885F;}
	.st12{fill:#086F79;}
	.st13{opacity:0.5;fill:#5A84A0;enable-background:new    ;}
	.st14{fill:#194868;}
	.st15{opacity:0.3;fill:#E6EAEC;enable-background:new    ;}
	.st16{opacity:0.5;fill:#E6EAEC;enable-background:new    ;}
	.st17{fill:#087593;}
</style>
<g id="Grupo_3725" transform="translate(-4199.146 -1835.273)">
	<rect id="Rectángulo_1088" x="4199.1" y="1835.3" class="st0" width="927" height="405"/>
	<path id="Trazado_2781" class="st1" d="M4766.2,2021.1H4292v-185.8h474.1L4766.2,2021.1z"/>
	<path id="Trazado_2782" class="st2" d="M5126.1,1835.3v354l-359.9-168.2v-185.8L5126.1,1835.3z"/>
	<path id="Trazado_2783" class="st2" d="M4199.1,1835.3v290.3l92.9-104.5v-185.8L4199.1,1835.3z"/>
	<rect id="Rectángulo_1089" x="4332.8" y="1869.6" class="st3" width="70.6" height="78.3"/>
	<rect id="Rectángulo_1090" x="4336.5" y="1873.2" class="st4" width="63.1" height="21.6"/>
	<rect id="Rectángulo_1091" x="4336.5" y="1898" class="st4" width="63.1" height="21.6"/>
	<rect id="Rectángulo_1092" x="4336.5" y="1922.7" class="st4" width="63.1" height="21.6"/>
	<path id="Trazado_2784" class="st2" d="M4354.7,1882.1c-1,0-1.9,0.8-1.9,1.9s0.8,1.9,1.9,1.9h26.8c1,0,1.9-0.8,1.9-1.9
		s-0.8-1.9-1.9-1.9l0,0H4354.7z"/>
	<path id="Trazado_2785" class="st2" d="M4354.7,1906.9c-1,0-1.9,0.8-1.9,1.8c0,1,0.8,1.9,1.8,1.9c0,0,0.1,0,0.1,0h26.8
		c1,0,1.9-0.8,1.9-1.8c0-1-0.8-1.9-1.8-1.9c0,0-0.1,0-0.1,0H4354.7z"/>
	<path id="Trazado_2786" class="st2" d="M4354.7,1931.7c-1,0-1.9,0.8-1.9,1.9c0,1,0.8,1.9,1.9,1.9c0,0,0,0,0,0h26.8
		c1,0,1.9-0.8,1.9-1.9c0-1-0.8-1.9-1.9-1.9c0,0,0,0,0,0H4354.7z"/>
	<rect id="Rectángulo_1093" x="4411.5" y="1869.6" class="st3" width="70.6" height="78.3"/>
	<rect id="Rectángulo_1094" x="4415.2" y="1873.2" class="st4" width="63.1" height="21.6"/>
	<rect id="Rectángulo_1095" x="4415.2" y="1898" class="st4" width="63.1" height="21.6"/>
	<rect id="Rectángulo_1096" x="4415.2" y="1922.7" class="st4" width="63.1" height="21.6"/>
	<path id="Trazado_2787" class="st2" d="M4433.4,1882.1c-1,0-1.9,0.8-1.9,1.9s0.8,1.9,1.9,1.9h26.8c1,0,1.9-0.8,1.9-1.9
		s-0.8-1.9-1.9-1.9H4433.4z"/>
	<path id="Trazado_2788" class="st2" d="M4433.4,1906.9c-1,0-1.9,0.8-1.9,1.8c0,1,0.8,1.9,1.8,1.9c0,0,0.1,0,0.1,0h26.8
		c1,0,1.9-0.8,1.9-1.8c0-1-0.8-1.9-1.8-1.9c0,0-0.1,0-0.1,0H4433.4z"/>
	<path id="Trazado_2789" class="st2" d="M4433.4,1931.7c-1,0-1.9,0.8-1.9,1.9c0,1,0.8,1.9,1.9,1.9c0,0,0,0,0,0h26.8
		c1,0,1.9-0.8,1.9-1.9c0-1-0.8-1.9-1.9-1.9c0,0,0,0,0,0H4433.4z"/>
	<rect id="Rectángulo_1097" x="4544.3" y="1884.9" class="st2" width="117.3" height="26.6"/>
	<path id="Trazado_2790" class="st3" d="M4572.8,1892c-0.9,0-1.7,0.2-2.5,0.5c-0.7,0.3-1.4,0.8-1.9,1.4c-0.5,0.6-1,1.3-1.3,2
		c-0.3,0.8-0.5,1.6-0.4,2.4c0,0.8,0.1,1.6,0.4,2.4c0.3,0.7,0.7,1.4,1.3,2c0.5,0.6,1.2,1,1.9,1.3c1.6,0.7,3.4,0.7,5,0
		c0.7-0.3,1.4-0.8,1.9-1.4c0.5-0.6,1-1.2,1.3-2c0.3-0.8,0.4-1.6,0.4-2.4c0-0.8-0.1-1.6-0.4-2.4c-0.3-0.7-0.7-1.4-1.2-2
		c-0.5-0.6-1.2-1-1.9-1.4C4574.5,1892.1,4573.6,1891.9,4572.8,1892z M4622.3,1892.1l-5.5,12.1h1.4l1.4-3.2h6.6l1.4,3.2h1.5
		l-5.5-12.1H4622.3z M4552.2,1892.2v12h1.3v-9.7l4.4,6.4h0.1l4.4-6.5v9.8h1.4v-12h-1.4l-4.4,6.6l-4.4-6.6L4552.2,1892.2z
		 M4581.8,1892.2v12h1.4v-4.7h3.4l3.5,4.7h1.7l-3.7-4.9c0.5-0.1,0.9-0.2,1.3-0.4c0.4-0.2,0.7-0.4,1-0.7c0.3-0.3,0.5-0.6,0.7-1
		c0.2-0.4,0.2-0.9,0.2-1.4c0-0.5-0.1-1-0.3-1.5c-0.2-0.4-0.5-0.8-0.9-1.1c-0.4-0.3-0.9-0.6-1.4-0.7c-0.6-0.2-1.2-0.3-1.8-0.3
		L4581.8,1892.2z M4593.2,1892.2v1.3h4v10.8h1.4v-10.8h4v-1.3H4593.2z M4605,1892.2v7c0,0.8,0.1,1.5,0.4,2.3c0.2,0.6,0.6,1.2,1,1.7
		c0.5,0.4,1,0.8,1.6,1c0.7,0.2,1.4,0.3,2,0.3c0.7,0,1.4-0.1,2-0.3c0.6-0.2,1.1-0.6,1.6-1c0.5-0.5,0.8-1,1-1.7
		c0.3-0.7,0.4-1.5,0.4-2.3v-6.9h-1.4v7c0.1,1.1-0.3,2.2-1,3c-1.5,1.3-3.9,1.3-5.4-0.1c-0.7-0.8-1-1.9-1-3v-6.9L4605,1892.2z
		 M4631.5,1892.2v12h1.4v-4.7h3.4l3.5,4.7h1.7l-3.7-4.9c0.5-0.1,0.9-0.2,1.3-0.4c0.4-0.2,0.7-0.4,1-0.7c0.3-0.3,0.5-0.6,0.7-1
		c0.2-0.4,0.2-0.9,0.2-1.4c0-0.5-0.1-1-0.3-1.5c-0.2-0.4-0.5-0.8-0.9-1.1c-0.4-0.3-0.9-0.6-1.4-0.7c-0.6-0.2-1.2-0.3-1.8-0.3
		L4631.5,1892.2z M4642.3,1892.2l5,7.3v4.8h1.4v-4.8l5-7.3h-1.6l-4.1,6l-4.1-6L4642.3,1892.2z M4572.8,1893.2c0.7,0,1.3,0.1,1.9,0.4
		c0.6,0.3,1.1,0.6,1.5,1.1c0.4,0.5,0.8,1,1,1.6c0.5,1.3,0.5,2.6,0,3.9c-0.2,0.6-0.5,1.1-1,1.6c-0.4,0.5-0.9,0.8-1.5,1.1
		c-0.6,0.3-1.2,0.4-1.9,0.4c-0.7,0-1.3-0.1-1.9-0.4c-0.6-0.3-1.1-0.6-1.5-1.1c-0.4-0.5-0.8-1-1-1.6c-0.2-0.6-0.3-1.3-0.3-1.9
		c0-0.7,0.1-1.3,0.3-1.9c0.2-0.6,0.6-1.1,1-1.6c0.4-0.4,0.9-0.8,1.5-1.1C4571.4,1893.3,4572.1,1893.2,4572.8,1893.2L4572.8,1893.2z
		 M4583.1,1893.4h3.7c0.8,0,1.6,0.2,2.3,0.6c0.5,0.4,0.8,1.1,0.8,1.8c0,0.7-0.3,1.4-0.9,1.8c-0.3,0.2-0.6,0.4-1,0.5
		c-0.4,0.1-0.8,0.2-1.2,0.2h-3.7V1893.4z M4632.8,1893.4h3.7c0.8,0,1.6,0.2,2.3,0.6c0.5,0.4,0.8,1.1,0.8,1.8c0,0.7-0.3,1.4-0.9,1.8
		c-0.3,0.2-0.6,0.4-1,0.5c-0.4,0.1-0.8,0.2-1.2,0.2h-3.7L4632.8,1893.4z M4623,1893.7l2.7,6.1h-5.5L4623,1893.7z"/>
	<path id="Trazado_2791" class="st5" d="M4565.7,2083.7c0,1.8-5.3,3.6-14.7,4.9c-23.5,2.7-47.3,2.7-70.9,0
		c-9.4-1.3-14.7-3.1-14.7-4.9s5.3-3.6,14.7-4.9c23.5-2.7,47.3-2.7,70.9,0C4560.4,2080.2,4565.7,2081.9,4565.7,2083.7z"/>
	<path id="Trazado_2792" class="st5" d="M4820.9,2083.7c0,1.8-5.3,3.6-14.7,4.9c-11.8,1.4-23.6,2.1-35.4,2
		c-27.7,0-50.1-3.1-50.1-6.9s22.4-6.9,50.1-6.9c11.8-0.1,23.7,0.6,35.4,2C4815.6,2080.2,4820.9,2081.9,4820.9,2083.7z"/>
	<path id="Trazado_2793" class="st6" d="M4774,1968.9c4.2-4.3,11.6-7.9,21.1-6.9c0.2,4.2-3.1,10.7-2.6,12.4c0.3,1.2,3.3,4.1,4.8,6.4
		c-6.5-0.8-9.2,2.4-13.9,1.3c-4.8-1.2-10.7-6.6-10-7.2c-0.2,3.2-0.8,7.7-3,9.6c-2.7,2.4-6.8,3.7-12.1,4.6
		c-35.4,3.3-70.9,4.4-106.4,3.4c-1.5-0.2-3-0.8-4.3-1.7c-0.6,1.2-1.9,2-3.2,2.1c-29.9-0.5-59.6-0.7-90-2.2c-0.9-0.3-1.7-1-2.2-1.9
		c-0.5,0.8-0.7,1.7-2.2,2c0,0-22.4-1.3-29.1-2.4s-9.6-3.5-9.6-3.5c-3.4-0.9-6.6-2.6-9.2-4.9c-1.3-8.7-0.8-20.2,0.2-24.4
		c1.3-5.8,6.5-5.2,7.9-2.5c1.3,2.4,5,7.6,11.4,9.4c7.1,2,25.8,4.7,26.9,4.5c2.1,0.1,3.5,1.5,4.5,4c1.7-1.6,2.1-3.7,6.9-4
		c12.1-0.6,25.3-2.3,35.7-1.2c16.5-3.4,35.1-11.6,49.3-9.9c1,0.2,2.1,0,3.1,1.1c1.7-1.8,3-2.4,4.1-2.5c0.6-1.8,49,0.7,51.3,3.2
		c3,0.4,11,1.4,13.1-0.4c3.6-3.1,9.4-5.8,16-7.1c4.2-0.8,8.7-0.5,13.2,0c6,0.7,12.1,2.1,17.3,6.2
		C4765.9,1958.5,4769.2,1961.7,4774,1968.9z"/>
	<path id="Trazado_2794" class="st0" d="M4773.1,1967.5c-15.2,0-1.7,25.9-60.2,12c-6.9,2.8-38.2,13.4-65.4-6.6l-1.5,0
		c0,0-19.5,11.7-52.8,12.2s-40.4-8.5-40.4-8.5l-1.2,2.4c0,0-7.5,6-15.6,4.9s-17.3-3.5-23.5-15.5c-1.8-1.9-1.3-0.2-1.3,0.8
		c0.6,10.9-6.9,10.4-6.9,10.4c2.2,1.4,4.5,2.4,7,3.1c0,0,3,2.5,9.6,3.5s29.1,2.4,29.1,2.4c1.5-0.3,1.7-1.2,2.2-2
		c0.4,0.9,1.2,1.6,2.2,1.9c31.7-0.3,59.7,0,89.6,0.4c1.4-0.1,2.6-0.9,3.2-2.1c1.3,0.9,2.7,1.5,4.3,1.7c39.8-0.6,73.1,0.9,106.9-1.6
		c5.3-0.9,9.4-2.2,12.1-4.6c2.1-1.9,2.8-6.2,3-9.3c0.1,0.3,0.3,0.5,0.5,0.8v-1.4c0,0,4.6-1.3,6.9-1c4,0.5,11.2,4.7,11.2,4.7
		s-2.5-2.7-2.5-4.4c0-1.8,2.7-4.7,2.7-4.7c-1.3,1-2.7,1.9-4.3,2.5c-4.1,1.1-12.8-0.1-12.8-0.1L4773.1,1967.5z"/>
	<path id="Trazado_2795" class="st2" d="M4551.9,1968.9c0.8-0.2,1.7,0,2.4,0.5c-1.7,6.8-1.1,13.7-1.1,20.6c-0.6,0.2-1.2,0.2-1.8,0
		C4551,1983.2,4550.3,1976.6,4551.9,1968.9z"/>
	<path id="Trazado_2796" class="st2" d="M4734.3,1952.4c-8.6,0.2-15.8,7.3-19.1,7.2c5.4,0.6,13-7,20.8-7.1
		C4735.4,1952.4,4734.8,1952.4,4734.3,1952.4z M4664.5,1955c-2.4,0.2-12.2-0.5-14.3,2.2l-0.1,1.3
		C4653,1954.5,4661.8,1956,4664.5,1955z M4641.8,1957c-2.8,0-5.5,0.3-8.2,0.9c3.8-0.4,10.9-0.8,11.7,1.2l-0.2-1.3
		C4644.6,1957.3,4643.4,1957.1,4641.8,1957L4641.8,1957z M4657.1,1958.2c-2.2,0.1-6,0.6-6.7,1.4c-0.2,0.2-0.6,0.8-0.5,1.1
		c0.2-1.2,7.4-2.5,8.7-2.4c-0.2-0.1-0.4-0.1-0.6-0.1C4657.7,1958.2,4657.4,1958.2,4657.1,1958.2L4657.1,1958.2z M4642.4,1959.1
		c-1.2,0-2.4,0.1-3.6,0.3c1.3,0,5.8,0,6.2,0.9c0-0.3-0.4-0.9-0.7-1.1C4643.7,1959.1,4643.1,1959.1,4642.4,1959.1L4642.4,1959.1z
		 M4702.5,1959.4c1.7,0.8,8.2,2.3,8.6,0.1C4710.6,1960.3,4703.8,1959.8,4702.5,1959.4L4702.5,1959.4z M4764.2,1960.7
		c2.2,1.3,7.4,6.7,7.8,8.8l0-1.5C4771.3,1966.3,4766.7,1961.2,4764.2,1960.7L4764.2,1960.7z M4656.6,1960.7
		c-2.2-0.1-4.4,0.1-6.5,0.6c-0.2,0.2-0.4,0.5-0.3,0.8c0.3-1,6-1.2,7.4-1.4C4657,1960.8,4656.8,1960.7,4656.6,1960.7L4656.6,1960.7z
		 M4643.3,1961.1c-1.2,0.1-2.4,0.4-3.5,0.7c1.4,0,4.4-0.8,4.8,0.2c0-0.3-0.1-0.6-0.4-0.8c-0.2,0-0.3-0.1-0.5-0.1
		C4643.6,1961.1,4643.5,1961.1,4643.3,1961.1L4643.3,1961.1z M4787,1963.9c-3.3,0.1-9.1,2.5-10.2,3.9l-0.1,1.3
		c0.5-2.1,7.9-4.8,10.9-5.1C4787.4,1963.9,4787.2,1963.9,4787,1963.9L4787,1963.9z M4640.2,1964.7c1.4,0.3,2.7,0.5,4.1,0.6
		c0.1-0.3,0.2-0.3,0-0.5C4643.7,1964.7,4641,1964.7,4640.2,1964.7L4640.2,1964.7z M4649.4,1965.1c-0.2,0.2,0,0.2,0,0.5
		c1.8,0.1,3.6,0,5.3-0.2C4653.9,1965.4,4650.1,1965.2,4649.4,1965.1L4649.4,1965.1z M4636.9,1966.2c2.4,0.5,4.9,0.8,7.3,0.9
		c0.1-0.4,0.3-0.5,0.1-0.7C4643.4,1966.3,4638,1966.2,4636.9,1966.2L4636.9,1966.2z M4649.2,1966.6c-0.2,0.2-0.1,0.3,0,0.7
		c1.4-0.4,6.1,0.1,7.4-0.2C4655.5,1967,4650.1,1966.7,4649.2,1966.6L4649.2,1966.6z M4766.4,1966.7c1.2,0.3,5.7,3.5,5.8,4.5
		c0-0.4-0.2-0.8-0.4-1.2C4771.1,1968.5,4767.4,1966.7,4766.4,1966.7L4766.4,1966.7z M4543.7,1967.5c2.7,0.8,6.3,1.2,6.7,3.3l0-1.3
		C4549.6,1967.7,4546.1,1968,4543.7,1967.5L4543.7,1967.5z M4570,1967.6c-2.5,0.3-13.5,0.5-14.3,2.2l-0.1,1.3
		C4556.1,1969,4567.2,1968.1,4570,1967.6L4570,1967.6z M4783,1967.8c-2.1,0.1-4.1,0.5-6,1.4c-0.2,0.3-0.3,0.7-0.3,1.1
		C4776.9,1969.4,4781.7,1968,4783,1967.8L4783,1967.8z M4644.4,1968.2c-0.6,0-3.8,0.1-4.5,0.1c1.5,0.2,3,0.3,4.5,0.3
		C4644.4,1968.4,4644.5,1968.4,4644.4,1968.2L4644.4,1968.2z M4649.1,1968.4c-0.1,0.1,0,0.2,0,0.4c1.5,0.1,3,0.2,4.5,0.1
		C4652.9,1968.8,4649.7,1968.4,4649.1,1968.4L4649.1,1968.4z M4760.8,1968.5c-0.8,0-1.7,0-2.3,0c1.4,0.3,4.5,0.1,4.7,1.2
		c0.1-0.3,0-0.6-0.2-0.9C4762.3,1968.6,4761.5,1968.5,4760.8,1968.5L4760.8,1968.5z M4544.3,1969.8c1.2,0.3,5.7,1.2,5.8,2.2
		c0-0.4-0.2-0.8-0.4-1.2C4547.9,1970.3,4546.1,1969.9,4544.3,1969.8L4544.3,1969.8z M4563.8,1970.2c-2.7,0.2-5.5,0.6-8.1,1.3
		c-0.2,0.2-0.6,0.8-0.5,1.1C4555.3,1971.7,4562.5,1970.4,4563.8,1970.2L4563.8,1970.2z M4776.5,1971.1c-0.2,0.2,0,0.2,0,0.5
		c1.8,0.1,3.6,0,5.3-0.2C4781.1,1971.4,4777.2,1971.2,4776.5,1971.1L4776.5,1971.1z M4764.9,1972.2c2.4,0.5,4.9,0.8,7.3,0.9
		c0.1-0.4,0.3-0.5,0.1-0.7C4771.4,1972.3,4766.1,1972.2,4764.9,1972.2L4764.9,1972.2z M4776.5,1972.3c-0.2,0.2-0.1,0.3,0,0.7
		c1.4-0.4,6.1,0.1,7.4-0.2C4782.8,1972.7,4777.4,1972.4,4776.5,1972.3L4776.5,1972.3z M4547.5,1972.5c-0.8,0-1.7,0-2.3,0
		c1.4,0.3,4.5,0.1,4.7,1.2c0.1-0.3,0-0.6-0.2-0.9C4549,1972.6,4548.2,1972.5,4547.5,1972.5L4547.5,1972.5z M4558.5,1973.1
		c-1.1,0-2.1,0.1-3.1,0.3c-0.2,0.2-0.4,0.5-0.3,0.8c0.3-1,5.2-0.8,6.6-1C4561.1,1973.2,4559.8,1973.1,4558.5,1973.1L4558.5,1973.1z
		 M4776.4,1973.7c-0.1,0.1,0,0.2,0,0.4c1.5,0.1,3,0.2,4.5,0.1C4780.2,1974.2,4777,1973.8,4776.4,1973.7L4776.4,1973.7z M4772,1973.8
		c-0.6,0-3.8,0.1-4.5,0.1c1.5,0.2,3,0.3,4.5,0.3C4772,1974,4772.1,1974,4772,1973.8L4772,1973.8z M4776.6,1974.7
		c-0.2,0.3-0.1,0.6,0,0.9c1.2,0.9,2.7,1.4,4.2,1.6C4779.4,1976.6,4776.5,1975.9,4776.6,1974.7L4776.6,1974.7z M4771.7,1974.9
		c-2.2,1.5-4.5,2.7-6.9,3.7c3.2-0.5,5.6-2.3,6.9-2.8C4771.9,1975.5,4771.8,1975.4,4771.7,1974.9L4771.7,1974.9z M4649.2,1975.3
		c-0.1,0.1,0,0.2,0,0.4c1.5,0.1,3,0,4.5-0.2C4653,1975.5,4649.8,1975.3,4649.2,1975.3L4649.2,1975.3z M4644.4,1975.4
		c-0.5,0.1-3.8,0.3-4.5,0.4c1.5,0.1,3,0.1,4.5,0C4644.4,1975.6,4644.5,1975.5,4644.4,1975.4L4644.4,1975.4z M4776.3,1976
		c-0.2,0.3-0.3,0.7-0.1,1c0.7,1.1,5.3,3.6,7.8,4C4782.2,1980.2,4776.1,1977.2,4776.3,1976L4776.3,1976z M4545.4,1976.8
		c1.4,0.3,2.7,0.5,4.1,0.6c0.1-0.3,0.2-0.3,0-0.5C4548.9,1976.8,4546.2,1976.8,4545.4,1976.8L4545.4,1976.8z M4771.7,1976.8
		c-2.3,1.7-5.5,6.1-8.5,6.6c3.2,0.2,7.2-5.2,8.5-5.7C4771.9,1977.4,4771.8,1977.3,4771.7,1976.8L4771.7,1976.8z M4554.4,1977.3
		c-0.2,0.2,0,0.2,0,0.5c1.8,0.1,3.6,0,5.3-0.2C4559,1977.6,4555.1,1977.3,4554.4,1977.3L4554.4,1977.3z M4644.4,1977.6
		c-0.6,0-3.8,0.1-4.5,0.1c1.5,0.2,3,0.3,4.5,0.3C4644.4,1977.8,4644.5,1977.7,4644.4,1977.6L4644.4,1977.6z M4649.2,1977.8
		c-0.1,0.1,0,0.2,0,0.4c1.5,0.1,3,0.2,4.5,0.1C4653,1978.2,4649.8,1977.8,4649.2,1977.8L4649.2,1977.8z M4542.2,1978.4
		c2.4,0.5,4.9,0.8,7.3,0.9c0.1-0.4,0.3-0.5,0.1-0.7C4548.7,1978.5,4543.3,1978.4,4542.2,1978.4L4542.2,1978.4z M4554.2,1978.8
		c-0.2,0.2-0.1,0.3,0,0.7c1.4-0.4,6.1,0.1,7.4-0.2C4560.5,1979.2,4555.1,1978.9,4554.2,1978.8L4554.2,1978.8z M4771.5,1978.9
		c-0.5,2.1-4.9,7.1-13.3,8.4c8-0.6,12-4.2,13.2-7.1C4771.6,1979.9,4771.6,1979.4,4771.5,1978.9L4771.5,1978.9z M4790.6,1980.1
		c-2,0-3.5,0.9-5.2,1.1c2.2,0,4.9-0.9,6.7-1C4791.6,1980.1,4791.1,1980.1,4790.6,1980.1L4790.6,1980.1z M4549.3,1980.3
		c-0.6,0-3.8,0.1-4.5,0.1c1.5,0.2,3,0.3,4.5,0.3C4549.3,1980.5,4549.4,1980.5,4549.3,1980.3L4549.3,1980.3z M4554.3,1980.6
		c-0.1,0.1,0,0.2,0,0.4c1.5,0.1,3,0.2,4.5,0.1C4558,1981,4554.8,1980.6,4554.3,1980.6L4554.3,1980.6z M4507.6,1983.5
		c1.2,0.5,2.4,0.9,3.6,1.3c6.3,1.5,11,0.2,14.8,0C4520.6,1983.4,4517.9,1986.1,4507.6,1983.5L4507.6,1983.5z M4549.7,1983.7
		c-0.3,1.1-3.7,0.1-5.2,0.4c1.2,0.1,3.8,1,4.9,0.5C4549.7,1984.4,4549.8,1984,4549.7,1983.7L4549.7,1983.7z M4554.3,1983.8
		c-0.1,0.3,0,0.7,0.2,0.9c1.1,0.6,2.9-0.1,4.1-0.1C4557.1,1984.2,4554.5,1984.9,4554.3,1983.8L4554.3,1983.8z M4649.7,1984.9
		c-0.1,0.3,0,0.7,0.3,0.9c1.1,0.5,2.9-0.3,4.1-0.4C4652.6,1985.2,4650,1986,4649.7,1984.9L4649.7,1984.9z M4645.1,1985.1
		c-0.2,1.1-4.6,0.5-6.1,0.9c1.2,0,4.8,0.6,5.9,0C4645.1,1985.7,4645.2,1985.4,4645.1,1985.1L4645.1,1985.1z M4554.3,1985.7
		c-0.1,0.4,0,0.7,0.3,1c1.2,0.6,6.6,0.2,7.9,0.2C4560.9,1986.6,4554.5,1987,4554.3,1985.7L4554.3,1985.7z M4549.7,1985.7
		c-0.3,1.2-4.9,0.1-6.6,0.4c1.4,0.1,5,1.2,6.2,0.6C4549.6,1986.5,4549.7,1986.1,4549.7,1985.7L4549.7,1985.7z M4650,1986.7
		c-0.1,0.4,0,0.7,0.3,1c1.2,0.5,9.2-0.2,10.6-0.3C4659.2,1987.2,4650.3,1988,4650,1986.7L4650,1986.7z M4645.3,1987.1
		c-0.2,1.2-8.9,0.5-10.6,0.8c1.4,0,9.1,0.8,10.3,0.2C4645.3,1987.9,4645.4,1987.5,4645.3,1987.1L4645.3,1987.1z M4550.5,1987.3
		c-0.5,2.1-9.7,0.2-12.6,0.6c2.3,0.2,9.9,2,12,1.1C4550.4,1988.6,4550.7,1987.9,4550.5,1987.3L4550.5,1987.3z M4554,1987.5
		c-0.2,0.6,0,1.3,0.4,1.7c2,1.1,11-0.2,13.3-0.2C4564.9,1988.4,4554.2,1990.6,4554,1987.5L4554,1987.5z M4650.2,1988.6
		c-0.1,0.6,0.1,1.3,0.6,1.7c2.1,0.9,10.4-0.6,12.7-0.8C4660.6,1989,4650.7,1990.6,4650.2,1988.6L4650.2,1988.6z M4645.9,1989
		c-0.4,2.1-9.7,0.9-12.5,1.5c2.3,0,10,1.2,12,0.2C4645.9,1990.3,4646.1,1989.6,4645.9,1989L4645.9,1989z"/>
	<path id="Trazado_2797" class="st2" d="M4646.9,1955.9c1.3-0.3,1.7-0.5,2.3-0.2c-2.4,6.7-0.9,29.2-0.4,36.1c-0.6,0.2-1.2,0.2-1.8,0
		C4645.5,1984.8,4643.9,1963.4,4646.9,1955.9z"/>
	<path id="Trazado_2798" class="st2" d="M4772.8,1967.2c1.1,3.9,0.5,5.4,0.3,9.7c0.6,0.2,1.2,0.2,1.8,0.1c0.1-2.3,1.1-6.1,0.4-9.7
		C4774.5,1966.9,4773.6,1966.9,4772.8,1967.2z"/>
	<path id="Trazado_2799" class="st2" d="M4511.1,1996v5.6l268.3,64.1v-5.6L4511.1,1996z"/>
	<path id="Trazado_2800" class="st2" d="M4511.1,1994.7v68.5h5.4v-68.5H4511.1z M4773.9,1994.7v68.5h5.4v-68.5H4773.9z"/>
	<path id="Trazado_2801" class="st2" d="M4779.3,1996v5.6l-268.3,64.1v-5.6L4779.3,1996z"/>
	<path id="Trazado_2802" d="M4528.2,2072c0,8-6.5,14.4-14.4,14.4c-8,0-14.4-6.5-14.4-14.4c0-8,6.5-14.4,14.4-14.4
		c3.8,0,7.5,1.5,10.2,4.2C4526.7,2064.5,4528.2,2068.2,4528.2,2072z"/>
	<path id="Trazado_2803" class="st7" d="M4520.4,2072c0,3.7-3,6.6-6.6,6.6c-3.7,0-6.6-3-6.6-6.6c0-3.7,3-6.6,6.6-6.6
		c1.8,0,3.4,0.7,4.7,1.9C4519.7,2068.5,4520.4,2070.2,4520.4,2072z"/>
	<path id="Trazado_2804" d="M4791,2072c0,8-6.5,14.4-14.4,14.4c-8,0-14.4-6.5-14.4-14.4c0-8,6.5-14.4,14.4-14.4
		c3.8,0,7.5,1.5,10.2,4.2C4789.5,2064.5,4791,2068.2,4791,2072z"/>
	<path id="Trazado_2805" class="st7" d="M4783.2,2072c0,3.7-3,6.6-6.6,6.6c-3.7,0-6.6-3-6.6-6.6s3-6.6,6.6-6.6
		c1.8,0,3.4,0.7,4.7,1.9C4782.5,2068.5,4783.2,2070.2,4783.2,2072z"/>
	<rect id="Rectángulo_1098" x="4476.8" y="1989.6" class="st7" width="336.3" height="8.4"/>
	<path id="Trazado_2806" class="st5" d="M4629.5,2140.6c0,2.2-6.4,4.3-17.8,5.9c-28.5,3.3-57.2,3.3-85.7,0
		c-11.4-1.6-17.8-3.7-17.8-5.9c0-4.6,27.1-8.3,60.6-8.3c14.3-0.1,28.6,0.7,42.9,2.4C4623.1,2136.2,4629.5,2138.3,4629.5,2140.6z"/>
	<ellipse id="Elipse_594" class="st5" cx="4877.5" cy="2140.6" rx="60.6" ry="8.3"/>
	<path id="Trazado_2807" class="st6" d="M4881.4,2001.6c5.1-5.2,14.1-9.6,25.5-8.3c0.3,5.1-3.7,13-3.2,15c0.4,1.4,3.9,5,5.8,7.7
		c-7.8-0.9-11.1,2.9-16.8,1.5c-5.8-1.4-12.9-8-12.1-8.7c-0.2,3.8-1,9.3-3.7,11.6c-3.3,2.8-8.3,4.4-14.7,5.5
		c-42.8,4-85.8,5.3-128.7,4.1c-1.9-0.2-3.7-0.9-5.2-2c-0.8,1.5-2.3,2.4-3.9,2.6c-36.1-0.6-72.1-0.8-108.9-2.7
		c-1.1-0.4-2.1-1.2-2.6-2.3c-0.6,0.9-0.9,2.1-2.6,2.4c0,0-27.1-1.6-35.2-2.8s-11.6-4.2-11.6-4.2c-4.1-1.1-8-3.1-11.2-5.9
		c-1.6-10.5-0.9-24.4,0.2-29.5c1.6-7,7.8-6.2,9.6-3c1.6,2.9,6,9.2,13.8,11.3c8.6,2.4,31.3,5.7,32.5,5.4c2.5,0.1,4.3,1.8,5.4,4.9
		c2-1.9,2.5-4.4,8.4-4.8c14.7-0.7,30.6-2.8,43.2-1.4c19.9-4.1,42.5-14.1,59.6-12c1.2,0.2,2.5,0,3.7,1.3c2.1-2.2,3.6-2.9,4.9-3.1
		c0.7-2.2,59.3,0.8,62.1,3.8c3.6,0.5,13.3,1.7,15.8-0.5c4.4-3.8,11.3-7.1,19.3-8.6c5.1-1,10.5-0.6,16,0c7.3,0.8,14.6,2.6,21,7.5
		C4871.6,1989.1,4875.6,1993,4881.4,2001.6z"/>
	<path id="Trazado_2808" class="st0" d="M4880.3,1999.9c-18.3,0-2,31.3-72.8,14.6c-8.3,3.4-46.2,16.2-79.1-8l-1.8,0
		c0,0-23.6,14.2-63.8,14.7s-48.9-10.2-48.9-10.2l-1.4,2.9c0,0-9.1,7.3-18.9,5.9s-20.9-4.2-28.4-18.8c-2.2-2.3-1.6-0.2-1.5,1
		c0.8,13.2-8.3,12.6-8.3,12.6c2.6,1.7,5.5,2.9,8.5,3.8c0,0,3.6,3,11.6,4.2s35.2,2.8,35.2,2.8c1.8-0.3,2-1.5,2.6-2.4
		c0.5,1.1,1.5,1.9,2.6,2.3c38.4-0.4,72.2,0,108.3,0.5c1.7-0.1,3.1-1.1,3.9-2.6c1.5,1.1,3.3,1.8,5.2,2c48.2-0.7,88.4,1,129.2-1.9
		c6.4-1.1,11.4-2.7,14.7-5.5c2.6-2.2,3.4-7.5,3.6-11.3c0.1,0.3,0.3,0.7,0.6,0.9v-1.7c0,0,5.5-1.6,8.3-1.2c4.9,0.6,13.6,5.7,13.6,5.7
		s-3.1-3.3-3.1-5.4c0-2.2,3.2-5.7,3.2-5.7s-3.2,2.5-5.2,3c-5,1.3-15.5-0.2-15.5-0.2L4880.3,1999.9z"/>
	<path id="Trazado_2809" class="st2" d="M4612.7,2001.6c1-0.2,2.1,0,2.9,0.6c-2,8.2-1.3,16.6-1.4,24.9c-0.7,0.2-1.4,0.2-2.1,0
		C4611.7,2018.9,4610.8,2011,4612.7,2001.6z"/>
	<path id="Trazado_2810" class="st2" d="M4833.3,1981.8c-10.4,0.2-19.2,8.8-23.1,8.7c6.5,0.7,15.7-8.5,25.2-8.6
		C4834.7,1981.8,4834,1981.7,4833.3,1981.8z M4749,1984.9c-2.9,0.2-14.8-0.6-17.3,2.7l-0.1,1.5
		C4735,1984.3,4745.7,1986.1,4749,1984.9L4749,1984.9z M4721.5,1987.3c-3.3,0-6.7,0.4-9.9,1.1c4.6-0.4,13.2-1,14.1,1.4l-0.3-1.5
		C4724.9,1987.6,4723.4,1987.3,4721.5,1987.3L4721.5,1987.3z M4740,1988.7c-2.7,0.1-7.2,0.8-8.1,1.7c-0.2,0.3-0.7,1-0.7,1.4
		c0.3-1.4,9-3,10.5-3c-0.2-0.1-0.5-0.1-0.7-0.1C4740.7,1988.7,4740.3,1988.7,4740,1988.7L4740,1988.7z M4722.3,1989.8
		c-1.5,0-2.9,0.1-4.3,0.3c1.5,0,7,0.1,7.5,1.1c0-0.4-0.5-1-0.8-1.3C4723.8,1989.8,4723,1989.8,4722.3,1989.8L4722.3,1989.8z
		 M4794.9,1990.2c2.1,1,9.9,2.7,10.5,0.1C4804.7,1991.2,4796.4,1990.6,4794.9,1990.2L4794.9,1990.2z M4869.6,1991.8
		c2.6,1.6,9,8.1,9.4,10.7l0-1.8C4878.1,1998.6,4872.6,1992.4,4869.6,1991.8L4869.6,1991.8z M4739.3,1991.8c-2.1,0-6.8,0.2-7.9,0.7
		c-0.3,0.3-0.4,0.6-0.4,1c0.3-1.3,7.2-1.4,9-1.7C4739.9,1991.8,4739.6,1991.8,4739.3,1991.8L4739.3,1991.8z M4723.3,1992.3
		c-1.4,0.2-2.8,0.4-4.2,0.8c1.8,0.1,5.4-1,5.8,0.3c0-0.4-0.2-0.8-0.5-1c-0.2,0-0.4-0.1-0.6-0.1
		C4723.7,1992.3,4723.5,1992.3,4723.3,1992.3L4723.3,1992.3z M4897.1,1995.6c-4,0.1-11,3-12.3,4.7l-0.1,1.5
		c0.6-2.5,9.6-5.8,13.2-6.2C4897.6,1995.6,4897.4,1995.6,4897.1,1995.6L4897.1,1995.6z M4719.5,1996.6c1.6,0.4,3.3,0.6,5,0.7
		c0.1-0.3,0.2-0.4,0.1-0.6C4723.8,1996.6,4720.5,1996.6,4719.5,1996.6L4719.5,1996.6z M4730.7,1997.1c-0.2,0.2-0.1,0.3,0,0.6
		c2.2,0.1,4.3,0,6.5-0.2C4736.2,1997.4,4731.5,1997.1,4730.7,1997.1L4730.7,1997.1z M4715.6,1998.4c2.9,0.6,5.9,0.9,8.9,1
		c0.1-0.5,0.3-0.6,0.1-0.9C4723.4,1998.6,4716.9,1998.4,4715.6,1998.4L4715.6,1998.4z M4730.5,1998.9c-0.3,0.3-0.1,0.4,0,0.9
		c1.7-0.4,7.3,0.1,8.9-0.3C4738.1,1999.4,4731.6,1999,4730.5,1998.9L4730.5,1998.9z M4872.2,1999c1.5,0.4,6.9,4.3,7.1,5.4
		c0-0.5-0.2-1-0.5-1.4C4877.8,2001.2,4873.4,1999,4872.2,1999L4872.2,1999z M4602.8,2000c3.3,1,7.6,1.4,8,3.9l0-1.5
		C4610,2000.2,4605.8,2000.5,4602.8,2000L4602.8,2000z M4634.7,2000c-3,0.3-16.3,0.7-17.3,2.7l-0.1,1.5
		C4617.8,2001.8,4631.3,2000.7,4634.7,2000L4634.7,2000z M4892.2,2000.3c-1.2-0.1-5.8,0.8-7.3,1.7c-0.3,0.4-0.4,0.9-0.3,1.4
		C4884.9,2002.2,4890.7,2000.5,4892.2,2000.3L4892.2,2000.3z M4724.6,2000.8c-0.7,0-4.6,0.1-5.4,0.2c1.8,0.3,3.6,0.4,5.4,0.4
		C4724.7,2001.1,4724.8,2001,4724.6,2000.8L4724.6,2000.8z M4730.3,2001c-0.2,0.2-0.1,0.2,0,0.5c1.8,0.2,3.6,0.2,5.4,0.1
		C4734.9,2001.5,4731,2001.1,4730.3,2001L4730.3,2001z M4865.4,2001.2c-1,0-2.1,0-2.8,0c1.7,0.4,5.5,0.2,5.7,1.4
		c0.1-0.4,0-0.8-0.3-1C4867.2,2001.3,4866.3,2001.2,4865.4,2001.2L4865.4,2001.2z M4603.6,2002.8c1.5,0.4,6.9,1.5,7.1,2.6
		c0-0.5-0.2-1-0.5-1.4C4608,2003.3,4605.8,2002.9,4603.6,2002.8L4603.6,2002.8z M4627.1,2003.2c-3.3,0.2-6.6,0.8-9.8,1.6
		c-0.2,0.3-0.7,1-0.7,1.4C4616.9,2005.1,4625.6,2003.4,4627.1,2003.2L4627.1,2003.2z M4884.5,2004.3c-0.2,0.2-0.1,0.3,0,0.6
		c2.2,0.1,4.3,0,6.5-0.2C4889.9,2004.7,4885.2,2004.4,4884.5,2004.3L4884.5,2004.3z M4870.4,2005.6c2.9,0.6,5.9,0.9,8.9,1
		c0.1-0.5,0.3-0.6,0.1-0.9C4878.3,2005.8,4871.8,2005.6,4870.4,2005.6L4870.4,2005.6z M4884.4,2005.8c-0.3,0.3-0.1,0.4,0,0.9
		c1.7-0.4,7.3,0.1,8.9-0.3C4892,2006.3,4885.5,2005.9,4884.4,2005.8L4884.4,2005.8z M4607.4,2006c-1,0-2.1,0-2.8,0
		c1.7,0.4,5.5,0.2,5.7,1.4c0.1-0.4,0-0.8-0.3-1C4609.2,2006.1,4608.3,2006,4607.4,2006L4607.4,2006z M4620.7,2006.7
		c-1.3-0.1-2.6,0.1-3.8,0.4c-0.3,0.3-0.4,0.6-0.4,1c0.3-1.3,6.3-1,8-1.3C4623.9,2006.8,4622.3,2006.7,4620.7,2006.7L4620.7,2006.7z
		 M4884.3,2007.5c-0.2,0.2-0.1,0.2,0,0.5c1.8,0.2,3.6,0.2,5.4,0.1C4888.9,2008,4885,2007.6,4884.3,2007.5L4884.3,2007.5z
		 M4879,2007.6c-0.7,0-4.6,0.1-5.4,0.2c1.8,0.3,3.6,0.4,5.4,0.4C4879,2007.9,4879.1,2007.8,4879,2007.6L4879,2007.6z M4884.5,2008.7
		c-0.2,0.4-0.2,0.8,0,1.1c1.5,1,3.2,1.7,5,1.9C4887.9,2010.9,4884.4,2010.1,4884.5,2008.7L4884.5,2008.7z M4878.7,2009
		c-2.6,1.8-5.5,3.3-8.4,4.5c3.9-0.6,6.8-2.8,8.3-3.4C4878.9,2009.7,4878.7,2009.5,4878.7,2009L4878.7,2009z M4730.5,2009.4
		c-0.2,0.2,0,0.3,0,0.5c1.8,0.1,3.6,0,5.4-0.2C4735.1,2009.6,4731.1,2009.4,4730.5,2009.4L4730.5,2009.4z M4724.6,2009.5
		c-0.7,0.1-4.6,0.4-5.4,0.5c1.8,0.1,3.6,0.2,5.4,0C4724.6,2009.7,4724.8,2009.7,4724.6,2009.5L4724.6,2009.5z M4884.2,2010.2
		c-0.3,0.4-0.3,0.9-0.1,1.3c0.9,1.3,6.4,4.4,9.4,4.8C4891.4,2015.4,4883.9,2011.7,4884.2,2010.2L4884.2,2010.2z M4604.9,2011.2
		c1.6,0.4,3.3,0.6,5,0.7c0.1-0.3,0.2-0.4,0.1-0.6C4609.1,2011.3,4605.9,2011.2,4604.9,2011.2L4604.9,2011.2z M4878.7,2011.2
		c-2.8,2.1-6.7,7.4-10.3,7.9c3.8,0.3,8.7-6.2,10.2-6.9C4878.9,2012,4878.7,2011.8,4878.7,2011.2L4878.7,2011.2z M4615.8,2011.8
		c-0.2,0.2-0.1,0.3,0,0.6c2.2,0.1,4.3,0,6.5-0.2C4621.3,2012.1,4616.6,2011.8,4615.8,2011.8L4615.8,2011.8z M4724.6,2012.1
		c-0.7,0-4.6,0.1-5.4,0.2c1.8,0.3,3.6,0.4,5.4,0.4C4724.6,2012.4,4724.8,2012.3,4724.6,2012.1L4724.6,2012.1z M4730.5,2012.4
		c-0.2,0.2-0.1,0.2,0,0.5c1.8,0.2,3.6,0.2,5.4,0.1C4735.1,2012.9,4731.1,2012.5,4730.5,2012.4L4730.5,2012.4z M4601,2013.1
		c2.9,0.6,5.9,0.9,8.9,1c0.1-0.5,0.3-0.6,0.1-0.9C4608.9,2013.3,4602.4,2013.1,4601,2013.1L4601,2013.1z M4615.5,2013.6
		c-0.3,0.3-0.1,0.4,0,0.9c1.7-0.4,7.3,0.1,8.9-0.3C4623.1,2014.1,4616.6,2013.7,4615.5,2013.6L4615.5,2013.6z M4878.4,2013.8
		c-0.6,2.5-6,8.5-16.1,10.2c9.7-0.7,14.6-5,16-8.5C4878.4,2014.9,4878.5,2014.3,4878.4,2013.8L4878.4,2013.8z M4901.5,2015.1
		c-2.4,0-4.3,1.1-6.3,1.4c2.7,0,6-1.1,8.1-1.2C4902.7,2015.2,4902.1,2015.2,4901.5,2015.1L4901.5,2015.1z M4609.6,2015.4
		c-0.7,0-4.6,0.1-5.4,0.2c1.8,0.3,3.6,0.4,5.4,0.4C4609.6,2015.7,4609.7,2015.6,4609.6,2015.4L4609.6,2015.4z M4615.6,2015.8
		c-0.2,0.2-0.1,0.2,0,0.5c1.8,0.2,3.6,0.2,5.4,0.1C4620.2,2016.3,4616.3,2015.9,4615.6,2015.8L4615.6,2015.8z M4559.2,2019.3
		c1.4,0.6,2.9,1.1,4.4,1.6c7.7,1.9,13.3,0.3,17.9,0C4574.9,2019.2,4571.6,2022.5,4559.2,2019.3L4559.2,2019.3z M4610.1,2019.6
		c-0.3,1.3-4.5,0.2-6.3,0.5c1.5,0.1,4.5,1.2,5.9,0.6C4610.1,2020.4,4610.2,2020,4610.1,2019.6L4610.1,2019.6z M4615.7,2019.6
		c-0.1,0.4,0,0.8,0.3,1.1c1.3,0.7,3.5-0.1,4.9-0.1C4619.1,2020.2,4615.9,2021,4615.7,2019.6L4615.7,2019.6z M4731.1,2021
		c-0.1,0.4,0.1,0.8,0.4,1.1c1.3,0.6,3.5-0.4,4.9-0.5C4734.5,2021.3,4731.4,2022.4,4731.1,2021L4731.1,2021z M4725.5,2021.2
		c-0.2,1.3-5.6,0.6-7.4,1c1.5,0,5.8,0.7,7.1,0.1C4725.5,2022,4725.6,2021.6,4725.5,2021.2L4725.5,2021.2z M4615.7,2022
		c-0.1,0.4,0,0.9,0.3,1.2c1.5,0.8,8,0.3,9.6,0.3C4623.6,2023,4616,2023.5,4615.7,2022L4615.7,2022z M4610.1,2022
		c-0.4,1.5-5.9,0.1-8,0.4c1.6,0.1,6,1.4,7.5,0.8C4610,2022.9,4610.2,2022.5,4610.1,2022L4610.1,2022z M4731.4,2023.2
		c-0.1,0.4,0.1,0.9,0.4,1.2c1.5,0.7,11.1-0.2,12.8-0.3C4742.5,2023.8,4731.8,2024.7,4731.4,2023.2L4731.4,2023.2z M4725.7,2023.7
		c-0.3,1.5-10.8,0.6-12.8,1c1.6,0,11,1,12.5,0.2C4725.7,2024.6,4725.8,2024.1,4725.7,2023.7L4725.7,2023.7z M4611.1,2023.9
		c-0.6,2.5-11.7,0.2-15.2,0.7c2.7,0.2,11.9,2.4,14.5,1.3C4611,2025.4,4611.3,2024.7,4611.1,2023.9L4611.1,2023.9z M4615.3,2024.2
		c-0.2,0.7,0,1.5,0.5,2.1c2.5,1.3,13.3-0.2,16.1-0.2C4628.5,2025.2,4615.6,2027.9,4615.3,2024.2L4615.3,2024.2z M4731.6,2025.4
		c-0.2,0.7,0.1,1.5,0.7,2c2.5,1.1,12.6-0.7,15.3-0.9C4744.2,2026,4732.2,2028,4731.6,2025.4L4731.6,2025.4z M4726.5,2026
		c-0.4,2.5-11.7,1-15.1,1.8c2.8,0,12.1,1.5,14.5,0.3C4726.5,2027.5,4726.7,2026.7,4726.5,2026L4726.5,2026z"/>
	<path id="Trazado_2811" class="st2" d="M4727.7,1986c1.5-0.3,2-0.6,2.8-0.2c-2.9,8.1-1.1,35.3-0.5,43.7c-0.7,0.2-1.4,0.2-2.1,0
		C4725.9,2020.9,4724.1,1995,4727.7,1986z"/>
	<path id="Trazado_2812" class="st2" d="M4879.9,1999.6c1.3,4.7,0.6,6.5,0.4,11.8c0.7,0.2,1.5,0.3,2.2,0.1c0.1-2.8,1.3-7.4,0.5-11.7
		C4882,1999.3,4880.9,1999.2,4879.9,1999.6z"/>
	<path id="Trazado_2813" class="st2" d="M4563.4,2034.4v6.7l324.4,77.5v-6.7L4563.4,2034.4z"/>
	<path id="Trazado_2814" class="st2" d="M4563.4,2032.8v82.8h6.5v-82.8L4563.4,2032.8z M4881.3,2032.8v82.8h6.5v-82.8L4881.3,2032.8
		z"/>
	<path id="Trazado_2815" class="st2" d="M4887.8,2034.4v6.7l-324.4,77.5v-6.7L4887.8,2034.4z"/>
	<path id="Trazado_2816" d="M4584.1,2126.3c0,9.6-7.8,17.4-17.5,17.4c-9.6,0-17.4-7.8-17.4-17.5s7.8-17.4,17.5-17.4
		c4.6,0,9.1,1.8,12.3,5.1C4582.2,2117.3,4584.1,2121.7,4584.1,2126.3z"/>
	<path id="Trazado_2817" class="st7" d="M4574.7,2126.3c0,4.4-3.6,8-8,8c-4.4,0-8-3.6-8-8c0-4.4,3.6-8,8-8c2.1,0,4.2,0.8,5.7,2.3
		C4573.8,2122.2,4574.7,2124.2,4574.7,2126.3z"/>
	<path id="Trazado_2818" d="M4902,2126.3c0,9.6-7.8,17.4-17.5,17.4c-9.6,0-17.4-7.8-17.4-17.5c0-9.6,7.8-17.4,17.5-17.4
		c4.6,0,9.1,1.8,12.3,5.1C4900.2,2117.3,4902,2121.7,4902,2126.3z"/>
	<path id="Trazado_2819" class="st7" d="M4892.6,2126.3c0,4.4-3.6,8-8,8c-4.4,0-8-3.6-8-8c0-4.4,3.6-8,8-8c2.1,0,4.2,0.8,5.7,2.3
		C4891.7,2122.2,4892.6,2124.2,4892.6,2126.3z"/>
	<rect id="Rectángulo_1099" x="4521.9" y="2026.7" class="st7" width="406.7" height="10.2"/>
	<path id="Trazado_2820" class="st5" d="M4705,2211.8c0,2.7-7.9,5.4-22,7.3s-33.2,3-53.1,3s-39-1.1-53.1-3s-22-4.6-22-7.3
		c0-5.7,33.6-10.3,75.1-10.3c19.9,0,39,1.1,53.1,3S4705,2209,4705,2211.8z"/>
	<path id="Trazado_2821" class="st5" d="M5087.6,2211.8c0,2.7-7.9,5.4-22,7.3s-33.2,3-53.1,3s-39-1.1-53.1-3s-22-4.6-22-7.3
		s7.9-5.4,22-7.3s33.2-3,53.1-3s39,1.1,53.1,3S5087.6,2209,5087.6,2211.8z"/>
	<path id="Trazado_2822" class="st6" d="M5017.3,2039.5c6.3-6.4,17.4-11.9,31.6-10.3c0.4,6.4-4.6,16.1-4,18.6
		c0.5,1.7,4.9,6.2,7.1,9.5c-9.7-1.2-13.8,3.6-20.8,1.9c-7.1-1.8-16.1-10-15-10.8c-0.2,4.7-1.2,11.6-4.5,14.4
		c-4.1,3.5-10.3,5.5-18.2,6.9c-53,4.9-106.3,6.6-159.5,5c-2.3-0.3-4.5-1.1-6.4-2.5c-0.9,1.8-2.6,2.8-4.9,3.2
		c-44.8-0.7-89.4-1-135-3.4c-1.4-0.5-2.6-1.5-3.3-2.8c-0.8,1.2-1.1,2.6-3.3,3c0,0-33.6-2-43.6-3.5s-14.4-5.2-14.4-5.2
		c-5.2-1.5-10-3.7-13.9-7.3c-2-13-1.1-30.2,0.3-36.6c2-8.7,9.7-7.7,11.9-3.8c2,3.6,7.5,11.4,17.1,14c10.7,2.9,38.8,7,40.4,6.7
		c3.1,0.1,5.3,2.2,6.7,6c2.5-2.4,3.1-5.5,10.4-6c18.2-0.9,37.9-3.4,53.5-1.8c24.7-5.1,52.6-17.5,73.8-14.9c1.5,0.3,3.1-0.1,4.6,1.7
		c2.6-2.7,4.5-3.6,6.1-3.8c0.9-2.7,73.5,1,76.9,4.8c4.4,0.7,16.4,2.2,19.6-0.6c5.4-4.7,14-8.7,23.9-10.7c6.3-1.3,13-0.7,19.8,0
		c9,1,18.1,3.2,26,9.2C5005.1,2024,5010.1,2028.8,5017.3,2039.5z"/>
	<path id="Trazado_2823" class="st0" d="M5015.9,2037.4c-22.7,0-2.5,38.8-90.3,18.1c-10.3,4.3-57.3,20.1-98-9.9l-2.2,0
		c0,0-29.2,17.6-79.2,18.2s-60.6-12.7-60.6-12.7l-1.8,3.5c0,0-11.2,9-23.4,7.3s-26-5.2-35.2-23.3c-2.7-2.9-2-0.3-1.9,1.3
		c1,16.3-10.3,15.6-10.3,15.6c3.2,2.1,6.8,3.6,10.5,4.7c0,0,4.5,3.7,14.4,5.2s43.6,3.5,43.6,3.5c2.2-0.4,2.5-1.8,3.3-3
		c0.7,1.3,1.8,2.4,3.3,2.8c47.6-0.5,89.5,0,134.3,0.7c2.3-0.4,4-1.3,4.9-3.2c1.9,1.4,4.1,2.3,6.4,2.5c59.7-0.8,109.6,1.3,160.2-2.3
		c7.9-1.3,14.1-3.3,18.2-6.9c3.2-2.8,4.2-9.3,4.5-14c0.2,0.4,0.4,0.8,0.7,1.2v-2.2c0,0,6.9-1.9,10.3-1.5c6,0.8,16.8,7.1,16.8,7.1
		s-3.8-4.1-3.8-6.6c0-2.7,4-7,4-7s-4,3.1-6.4,3.8c-6.2,1.6-19.2-0.2-19.2-0.2L5015.9,2037.4z"/>
	<path id="Trazado_2824" class="st2" d="M4684.2,2039.5c1.2-0.3,2.6,0,3.6,0.7c-2.5,10.2-1.6,20.5-1.7,30.8c-0.9,0.2-1.8,0.2-2.7,0
		C4682.9,2061,4681.8,2051.1,4684.2,2039.5z"/>
	<path id="Trazado_2825" class="st2" d="M4957.7,2014.9c-12.9,0.3-23.8,10.9-28.6,10.8c8,0.9,19.4-10.6,31.2-10.7
		C4959.4,2014.9,4958.6,2014.9,4957.7,2014.9z M4853.2,2018.7c-3.6,0.2-18.3-0.7-21.5,3.3l-0.1,1.9
		C4835.9,2018,4849.1,2020.2,4853.2,2018.7z M4819,2021.7c-4.1,0.1-8.3,0.5-12.3,1.4c5.7-0.6,16.4-1.2,17.5,1.8l-0.4-1.9
		C4823.3,2022.1,4821.4,2021.8,4819,2021.7z M4842,2023.5c-3.3,0.1-9,0.9-10.1,2.1c-0.3,0.3-0.9,1.2-0.8,1.7
		c0.3-1.8,11.1-3.7,13-3.7c-0.3-0.1-0.6-0.1-0.9-0.1C4842.9,2023.5,4842.4,2023.5,4842,2023.5L4842,2023.5z M4820,2024.9
		c-1.8,0-3.6,0.1-5.4,0.4c1.9,0.1,8.7,0.1,9.2,1.4c0-0.5-0.7-1.3-1-1.6C4822,2024.9,4821,2024.8,4820,2024.9L4820,2024.9z
		 M4910.1,2025.4c2.6,1.3,12.3,3.4,13,0.1C4922.2,2026.6,4912,2025.9,4910.1,2025.4L4910.1,2025.4z M5002.6,2027.3
		c3.3,1.9,11.1,10.1,11.7,13.2l0-2.2C5013.3,2035.7,5006.4,2028,5002.6,2027.3L5002.6,2027.3z M4841.2,2027.3
		c-2.6,0-8.4,0.3-9.8,0.8c-0.4,0.3-0.5,0.8-0.4,1.3c0.4-1.6,9-1.7,11.1-2.1C4841.9,2027.3,4841.6,2027.3,4841.2,2027.3
		L4841.2,2027.3z M4821.4,2027.9c-1.8,0.2-3.5,0.5-5.3,1c2.2,0.1,6.7-1.2,7.2,0.3c0-0.5-0.2-0.9-0.6-1.2c-0.2-0.1-0.5-0.1-0.7-0.1
		C4821.8,2027.9,4821.6,2027.9,4821.4,2027.9L4821.4,2027.9z M5036.8,2032.1c-4.9,0.1-13.6,3.7-15.3,5.8l-0.1,1.9
		c0.8-3.1,11.9-7.2,16.3-7.7C5037.4,2032.1,5037.1,2032.1,5036.8,2032.1L5036.8,2032.1z M4816.6,2033.3c2,0.5,4.1,0.8,6.2,0.9
		c0.1-0.4,0.3-0.5,0.1-0.8C4821.9,2033.3,4817.8,2033.3,4816.6,2033.3L4816.6,2033.3z M4830.5,2033.9c-0.2,0.3-0.1,0.4,0,0.8
		c2.7,0.1,5.3,0,8-0.2C4837.3,2034.3,4831.5,2034,4830.5,2033.9L4830.5,2033.9z M4811.7,2035.5c2,0.6,8.8,1.2,11,1.3
		c0.1-0.6,0.4-0.7,0.1-1.1C4821.5,2035.7,4813.4,2035.5,4811.7,2035.5L4811.7,2035.5z M4830.2,2036.1c-0.3,0.4-0.1,0.5,0,1.1
		c2.1-0.5,9.1,0.1,11.1-0.3C4839.6,2036.7,4831.6,2036.2,4830.2,2036.1L4830.2,2036.1z M5005.9,2036.2c1.9,0.5,8.5,5.3,8.8,6.7
		c0-0.6-0.2-1.3-0.7-1.8C5012.9,2038.9,5007.4,2036.2,5005.9,2036.2L5005.9,2036.2z M4671.9,2037.5c4.1,1.2,9.5,1.7,10,4.9l0-1.9
		C4680.9,2037.8,4675.6,2038.2,4671.9,2037.5L4671.9,2037.5z M4711.4,2037.5c-3.8,0.4-20.2,0.8-21.5,3.3l-0.1,1.9
		C4690.6,2039.7,4707.2,2038.4,4711.4,2037.5L4711.4,2037.5z M5030.8,2037.8c-1.5-0.1-7.2,0.9-9,2.1c-0.3,0.5-0.5,1.1-0.4,1.7
		C5021.7,2040.2,5028.9,2038.1,5030.8,2037.8L5030.8,2037.8z M4822.9,2038.5c-0.8,0-5.7,0.2-6.7,0.2c2.2,0.3,4.5,0.5,6.7,0.5
		C4823,2038.8,4823.1,2038.8,4822.9,2038.5L4822.9,2038.5z M4830,2038.8c-0.2,0.2-0.1,0.3,0,0.7c2.2,0.2,4.5,0.3,6.7,0.1
		C4835.7,2039.4,4830.9,2038.9,4830,2038.8L4830,2038.8z M4997.5,2039c-1.3,0-2.6,0.1-3.4,0.1c2.1,0.5,6.8,0.2,7,1.8
		c0.1-0.5,0-1-0.3-1.3C4999.7,2039.2,4998.6,2039,4997.5,2039L4997.5,2039z M4672.9,2040.9c1.9,0.4,8.5,1.8,8.8,3.3
		c0-0.6-0.2-1.3-0.7-1.8C4679.6,2041.7,4674.4,2040.9,4672.9,2040.9L4672.9,2040.9z M4702.1,2041.5c-4.1,0.3-8.2,1-12.2,2
		c-0.3,0.3-0.9,1.2-0.8,1.7C4689.4,2043.8,4700.2,2041.8,4702.1,2041.5L4702.1,2041.5z M5021.1,2042.9c-0.2,0.3-0.1,0.4,0,0.8
		c2.7,0.1,5.3,0,8-0.2C5027.9,2043.3,5022.1,2042.9,5021.1,2042.9L5021.1,2042.9z M5003.7,2044.4c2,0.6,8.8,1.2,11,1.3
		c0.1-0.6,0.4-0.7,0.1-1.1C5013.5,2044.6,5005.4,2044.4,5003.7,2044.4L5003.7,2044.4z M5021.1,2044.6c-0.3,0.4-0.1,0.5,0,1.1
		c2.1-0.5,9.1,0.1,11.1-0.3C5030.5,2045.3,5022.4,2044.7,5021.1,2044.6L5021.1,2044.6z M4677.7,2044.9c-1.3,0-2.6,0.1-3.4,0.1
		c2.1,0.5,6.8,0.2,7,1.8c0.1-0.5,0-0.9-0.3-1.3C4679.9,2045.1,4678.8,2044.9,4677.7,2044.9L4677.7,2044.9z M4694.1,2045.8
		c-1.6-0.1-3.2,0.1-4.7,0.5c-0.4,0.3-0.5,0.8-0.4,1.3c0.4-1.6,7.8-1.2,9.9-1.6C4698.1,2045.9,4696.1,2045.8,4694.1,2045.8
		L4694.1,2045.8z M5020.9,2046.8c-0.2,0.2-0.1,0.3,0,0.7c2.2,0.2,4.5,0.3,6.7,0.1C5026.6,2047.5,5021.8,2046.9,5020.9,2046.8
		L5020.9,2046.8z M5014.3,2046.9c-0.8,0-5.7,0.2-6.7,0.2c2.2,0.3,4.5,0.5,6.7,0.5C5014.3,2047.3,5014.5,2047.2,5014.3,2046.9
		L5014.3,2046.9z M5021.1,2048.3c-0.2,0.4-0.2,1,0,1.4c1.8,1.3,4,2.1,6.2,2.3C5025.4,2051,5021,2050,5021.1,2048.3L5021.1,2048.3z
		 M5013.9,2048.6c-3.3,2.2-6.8,4.1-10.4,5.6c4.9-0.7,8.4-3.4,10.3-4.2C5014.2,2049.5,5014,2049.3,5013.9,2048.6L5013.9,2048.6z
		 M4830.2,2049.1c-0.2,0.2,0,0.3,0,0.7c2.2,0.1,4.5,0,6.7-0.3C4835.9,2049.4,4831,2049.2,4830.2,2049.1L4830.2,2049.1z
		 M4822.9,2049.3c-0.8,0.1-5.7,0.5-6.7,0.6c2.2,0.2,4.5,0.2,6.7,0C4823,2049.6,4823.1,2049.5,4822.9,2049.3L4822.9,2049.3z
		 M5020.8,2050.2c-0.3,0.5-0.4,1.1-0.1,1.6c1.1,1.7,7.9,5.4,11.7,5.9C5029.7,2056.5,5020.4,2052.1,5020.8,2050.2L5020.8,2050.2z
		 M4674.5,2051.4c2,0.5,4.1,0.8,6.2,0.9c0.1-0.4,0.3-0.5,0.1-0.8C4679.8,2051.5,4675.7,2051.4,4674.5,2051.4L4674.5,2051.4z
		 M5013.9,2051.4c-3.4,2.6-8.3,9.2-12.8,9.9c4.8,0.3,10.8-7.7,12.7-8.5C5014.2,2052.3,5014,2052.1,5013.9,2051.4L5013.9,2051.4z
		 M4688.1,2052.1c-0.2,0.3-0.1,0.4,0,0.8c2.7,0.1,5.3,0,8-0.2C4694.9,2052.5,4689.1,2052.2,4688.1,2052.1L4688.1,2052.1z
		 M4823,2052.5c-0.8,0-5.7,0.2-6.7,0.2c2.2,0.3,4.5,0.5,6.7,0.5C4823,2052.8,4823.1,2052.8,4823,2052.5L4823,2052.5z M4830.2,2052.8
		c-0.2,0.2-0.1,0.3,0,0.7c2.2,0.2,4.5,0.3,6.7,0.1C4835.9,2053.5,4831,2052.9,4830.2,2052.8L4830.2,2052.8z M4669.7,2053.8
		c2,0.6,8.8,1.2,11,1.3c0.1-0.6,0.4-0.7,0.1-1.1C4679.5,2054,4671.4,2053.8,4669.7,2053.8L4669.7,2053.8z M4687.7,2054.4
		c-0.3,0.4-0.1,0.5,0,1.1c2.1-0.5,9.1,0.1,11.1-0.3C4697.1,2055,4689.1,2054.5,4687.7,2054.4L4687.7,2054.4z M5013.6,2054.6
		c-0.8,3.1-7.4,10.6-20,12.7c12.1-0.9,18.1-6.2,19.8-10.6C5013.6,2056,5013.7,2055.3,5013.6,2054.6L5013.6,2054.6z M5042.2,2056.3
		c-3,0-5.3,1.4-7.8,1.7c3.3,0,7.4-1.4,10-1.4C5043.7,2056.4,5043,2056.3,5042.2,2056.3L5042.2,2056.3z M4680.3,2056.7
		c-0.8,0-5.7,0.2-6.7,0.2c2.2,0.3,4.5,0.5,6.7,0.4C4680.3,2057,4680.5,2056.9,4680.3,2056.7L4680.3,2056.7z M4687.8,2057.1
		c-0.2,0.2-0.1,0.3,0,0.7c2.2,0.2,4.5,0.3,6.7,0.1C4693.5,2057.7,4688.6,2057.2,4687.8,2057.1L4687.8,2057.1z M4617.9,2061.5
		c1.8,0.8,3.6,1.4,5.4,2c9.5,2.3,16.4,0.3,22.2,0C4637.4,2061.3,4633.2,2065.4,4617.9,2061.5L4617.9,2061.5z M4681,2061.7
		c-0.4,1.6-5.5,0.2-7.8,0.6c1.8,0.2,5.6,1.5,7.3,0.8C4680.9,2062.7,4681.1,2062.2,4681,2061.7L4681,2061.7z M4687.9,2061.8
		c-0.1,0.5,0,1,0.3,1.4c1.6,0.8,4.3-0.2,6.1-0.2C4692.1,2062.5,4688.1,2063.5,4687.9,2061.8L4687.9,2061.8z M4831,2063.6
		c-0.1,0.5,0.1,1,0.4,1.3c1.7,0.7,4.3-0.5,6.1-0.6C4835.2,2063.9,4831.4,2065.2,4831,2063.6L4831,2063.6z M4824,2063.8
		c-0.3,1.7-6.9,0.8-9.1,1.3c1.8,0,7.2,0.9,8.8,0.1C4824,2064.8,4824.2,2064.3,4824,2063.8L4824,2063.8z M4687.9,2064.8
		c-0.2,0.5,0,1.1,0.4,1.5c1.8,0.9,9.9,0.4,11.9,0.4C4697.7,2066.1,4688.2,2066.7,4687.9,2064.8L4687.9,2064.8z M4680.9,2064.8
		c-0.5,1.8-7.3,0.2-9.9,0.5c2,0.2,7.5,1.7,9.3,0.9C4680.9,2065.9,4681.1,2065.4,4680.9,2064.8L4680.9,2064.8z M4831.4,2066.3
		c-0.1,0.6,0.1,1.1,0.5,1.5c1.9,0.8,13.8-0.2,15.8-0.4C4845.2,2067,4831.8,2068.1,4831.4,2066.3L4831.4,2066.3z M4824.3,2066.9
		c-0.3,1.9-13.3,0.7-15.8,1.3c2,0,13.6,1.2,15.4,0.3C4824.3,2068,4824.5,2067.4,4824.3,2066.9L4824.3,2066.9z M4682.3,2067.1
		c-0.8,3.1-14.6,0.2-18.8,0.9c3.4,0.3,14.8,2.9,18,1.6C4682.1,2069,4682.4,2068.1,4682.3,2067.1L4682.3,2067.1z M4687.4,2067.5
		c-0.3,0.9,0,1.9,0.6,2.6c3,1.6,16.5-0.3,19.9-0.3C4703.8,2068.8,4687.8,2072.1,4687.4,2067.5L4687.4,2067.5z M4831.6,2069
		c-0.2,0.9,0.1,1.9,0.8,2.5c3.1,1.4,15.6-0.9,19-1.2C4847.2,2069.7,4832.3,2072.1,4831.6,2069L4831.6,2069z M4825.3,2069.7
		c-0.6,3.1-14.5,1.3-18.7,2.2c3.4,0.1,15,1.9,18,0.3C4825.3,2071.6,4825.5,2070.6,4825.3,2069.7L4825.3,2069.7z"/>
	<path id="Trazado_2826" class="st2" d="M4826.7,2020.1c1.9-0.4,2.5-0.7,3.5-0.3c-3.6,10-1.4,43.8-0.6,54.2c-0.9,0.2-1.8,0.2-2.7,0
		C4824.6,2063.4,4822.3,2031.3,4826.7,2020.1z"/>
	<path id="Trazado_2827" class="st2" d="M5015.5,2037.1c1.6,5.9,0.8,8.1,0.5,14.6c0.9,0.3,1.8,0.3,2.7,0.1c0.1-3.5,1.6-9.2,0.6-14.5
		C5018.1,2036.6,5016.7,2036.5,5015.5,2037.1z"/>
	<path id="Trazado_2828" class="st2" d="M4623,2080.1v8.3l402.2,96.1v-8.3L4623,2080.1z"/>
	<path id="Trazado_2829" class="st2" d="M4623,2078.2v102.7h8.1v-102.7H4623z M5017.2,2078.2v102.7h8.1v-102.7H5017.2z"/>
	<path id="Trazado_2830" class="st2" d="M5025.3,2080.1v8.3l-402.2,96.1v-8.3L5025.3,2080.1z"/>
	<path id="Trazado_2831" d="M4648.7,2194.1c0,11.9-9.7,21.6-21.6,21.6c-11.9,0-21.6-9.7-21.6-21.6s9.7-21.6,21.6-21.6
		c5.7,0,11.2,2.3,15.3,6.3C4646.4,2182.9,4648.7,2188.4,4648.7,2194.1z"/>
	<path id="Trazado_2832" class="st7" d="M4637,2194.1c0,5.5-4.4,9.9-9.9,9.9s-9.9-4.4-9.9-9.9c0-5.5,4.4-9.9,9.9-9.9
		c2.6,0,5.2,1,7,2.9C4636,2189,4637,2191.5,4637,2194.1z"/>
	<path id="Trazado_2833" d="M5042.8,2194.1c0,11.9-9.7,21.6-21.6,21.6c-11.9,0-21.6-9.7-21.6-21.6s9.7-21.6,21.6-21.6
		c5.7,0,11.2,2.3,15.3,6.3C5040.6,2182.9,5042.8,2188.4,5042.8,2194.1z"/>
	<path id="Trazado_2834" class="st7" d="M5031.1,2194.1c0,5.5-4.4,9.9-9.9,9.9s-9.9-4.4-9.9-9.9c0-5.5,4.4-9.9,9.9-9.9
		c2.6,0,5.2,1,7,2.9C5030.1,2189,5031.1,2191.5,5031.1,2194.1z"/>
	<rect id="Rectángulo_1100" x="4571.7" y="2070.6" class="st7" width="504.2" height="12.6"/>
	<g id="Grupo_3383" transform="translate(93.962 4245.609)">
		<path id="Trazado_2004" class="st8" d="M4223.9-2144.4c-2.6,8.1-4.8,16.4-6.8,24.8c-0.9,3.9-1.8,7.8-2.7,11.6c-0.9,4-1.8,8-2.6,12
			v0c-2,9.6-3.9,19.2-5.5,28.8c-0.5,2.9-1,5.9-1.5,8.8c-1.9,11.9-3.6,23.9-5.1,35.9c0,0,0,0,0,0c-0.7,5.5-1.3,10.9-2,16.4h-51.3
			c0.3-3.1,0.6-6.1,0.7-8.9c1.6-27.9,1.1-55.2,6.4-82.7c2.6-13.2,9.6-23.7,13.1-36.7c1.6-6,3.5-12,5.5-17.9c1.6-4.7,3-9.8,5.8-14
			c0.2-0.3,0.4-0.6,0.6-0.9c0.1-0.1,0.2-0.2,0.2-0.3c0.2-0.2,0.3-0.4,0.5-0.7c0,0,0,0,0,0c0.1-0.1,0.2-0.3,0.3-0.4
			c0.2-0.2,0.4-0.5,0.6-0.7c0.1-0.1,0.2-0.3,0.4-0.4c0.2-0.2,0.4-0.4,0.6-0.6c0.4-0.4,0.9-0.8,1.3-1.2c0.3-0.2,0.5-0.4,0.8-0.6
			c0.1-0.1,0.2-0.1,0.3-0.2c0.3-0.2,0.5-0.4,0.8-0.6c0.1-0.1,0.1-0.1,0.2-0.2c0.3-0.2,0.7-0.5,1.1-0.7c5.3-3.3,11.6-4.6,17.8-3.7h0
			c0,0,0.1,0,0.1,0c10.1,1.6,18.3,9.1,20.9,19.1C4225.5-2153.6,4225.3-2148.9,4223.9-2144.4z"/>
		<path id="Trazado_2005" class="st9" d="M4185.6-2173.6C4185.6-2173.6,4185.6-2173.6,4185.6-2173.6L4185.6-2173.6
			c-0.1,0.2-0.2,0.3-0.3,0.5v0c-0.1,0.2-0.3,0.4-0.4,0.7c-2.4,4.5-2.9,8.9-1.9,13.9c0.1,1.8,0.1,3.6,0,5.4c0,0.2,0,0.5,0,0.7
			c-0.5,2.3-1,4.6-1.8,6.8c-0.6,1.8-1.2,3.6-1.9,5.4c-6.3,13.8-15.6,26.7-18.1,41.7c-5.4,32.5,7.2,31,2.7,62.2
			c-2.1,4.7-4.5,9.4-6.1,14.3c-1.5,5.2-2.5,10.6-2.9,16h-8.5c0.3-3.1,0.6-6.1,0.7-8.9c1.6-27.9,1.1-55.2,6.4-82.7
			c2.6-13.2,9.6-23.7,13.1-36.7c1.6-6,3.5-12,5.5-17.9c1.6-4.7,3-9.8,5.8-14c0.2-0.3,0.4-0.6,0.6-0.9c0.1-0.1,0.2-0.2,0.2-0.3
			c0.2-0.2,0.3-0.4,0.5-0.7c0,0,0,0,0,0c0.1-0.1,0.2-0.3,0.3-0.4c0.2-0.2,0.4-0.5,0.6-0.7c0.1-0.1,0.2-0.3,0.4-0.4
			c0.2-0.2,0.4-0.4,0.6-0.6c0.4-0.4,0.9-0.8,1.3-1.2c0.3-0.2,0.5-0.4,0.8-0.6c0.1-0.1,0.2-0.1,0.3-0.2c0.3-0.2,0.5-0.4,0.8-0.6
			c0.1-0.1,0.1-0.1,0.2-0.2C4184.9-2173.2,4185.3-2173.4,4185.6-2173.6z"/>
		<path id="Trazado_2006" class="st10" d="M4186.4-2173.6c0-0.2,0.1-0.3,0.1-0.5c-1,0.6-2,1.3-2.9,2
			C4184.4-2172.7,4185.4-2173.2,4186.4-2173.6z"/>
		<path id="Trazado_2007" class="st8" d="M4432.5-2006.1h-50.9c0-0.5-0.1-1-0.1-1.4c-1.1-10.8-2.5-21.6-4-32.4
			c-2.2-15.2-4.8-30.3-7.9-45.3c-2.6-12.5-5.2-24.9-8.4-37.2c-1.5-5.7-3-11.4-4.6-17c-1.3-4.3-2.6-8.3-2.5-12.8
			c0.5-9.4,6-17.7,14.5-21.8c0.3-0.1,0.6-0.3,0.9-0.4c0.7-0.3,1.3-0.5,2-0.8c0.2-0.1,0.3-0.1,0.5-0.2c1.4-0.4,2.8-0.7,4.2-0.9
			c0.4,0,0.7-0.1,1.1-0.1c6.5-0.6,13.1,1.2,18.3,5.2c1.7,1.3,3.3,2.8,4.6,4.5c1.5,1.9,2.7,4,3.6,6.3c3.8,10,7.1,20.1,9.8,30.4
			c3.3,12.1,10,23.8,12.3,36.1c4.8,25.7,3.9,52.1,5.8,78.2C4432-2012.4,4432.3-2009.2,4432.5-2006.1z"/>
		<path id="Trazado_2008" class="st9" d="M4393.9-2013c0.2,2.3,0.6,4.6,1.1,6.9h-13.4c0-0.5-0.1-1-0.1-1.4
			c-1.1-10.8-2.5-21.6-4-32.4c-2.2-15.2-4.8-30.3-7.9-45.3c-2.6-12.5-5.2-24.9-8.4-37.2c-1.5-5.7-3-11.4-4.6-17
			c-1.2-4.3-2.6-8.3-2.5-12.8c0.5-9.4,6-17.7,14.5-21.8c0.3-0.1,0.6-0.3,0.9-0.4c0.7-0.3,1.3-0.5,2-0.8c0.2-0.1,0.3-0.1,0.5-0.2
			c1.4-0.4,2.8-0.7,4.2-0.9c0.4,0,0.7-0.1,1.1-0.1c-2.1,6.5-3.7,13.2-4.6,20c-1.1,8.4-1.9,17.6,0.6,25.8c1,3.3,3.8,11.2,7,20.2
			c5.5,15.3,12.1,33.6,12.8,36.9c1.4,6.8,5,12.9,6.5,19.7c0.2,2.5-3.5,19.7-4.6,26.1C4394.1-2022.8,4393.4-2017.9,4393.9-2013z"/>
		<path id="Trazado_2009" class="st11" d="M4330.2-2265c-1.8,0-3.1,2-3.6,2.9l0,0l-0.4,0.9l1.8-23.2l-11.5-15.4l-24.3-9.7h-8
			l-24.3,9.7l-11.5,15.4l1.8,23.2l-0.4-0.9l0,0c-0.5-0.9,1.6,30.1,4.8,30.1c0.2,0,0.4,0,0.7-0.1c0.1,0.4,0.2,0.8,0.3,1.1
			c1,4.2,1.9,7.7,2.4,9.9c0.5,2.3,1.4,4.4,2.7,6.4c1.5,2.3,4,0.5,7.4,4.8c6.3,7.9,13.8,8.5,14.1,8.5h0h12.1h0
			c0.3,0,7.8-0.6,14.1-8.5c3.4-4.3,5.9-2.4,7.4-4.8c1.3-2,2.2-4.1,2.7-6.4c0.5-2.2,1.4-5.7,2.4-9.9c0.1-0.4,0.2-0.8,0.3-1.1
			c0.2,0,0.4,0.1,0.7,0.1l0,0c3.2,0,4.9-4,5-4.5C4326.9-2236.5,4331-2265,4330.2-2265z"/>
		<path id="Trazado_2010" class="st8" d="M4380.3-2110.3c-2.9,6.6-4.9,11-4.9,11l2.1,59.3l1.2,33.8H4199l0.6-16.4l1.7-50.5l0.9-26.2
			c0,0-13.7-28.4-21.1-46.4c-0.3-0.7-0.6-1.4-0.8-2c-0.6-1.6-1.2-3.1-1.7-4.4c-0.1-0.3-0.2-0.6-0.3-0.9c-0.3-0.8-0.5-1.6-0.8-2.3
			c-0.3-0.8-0.5-1.5-0.6-2.1c0-0.1-0.1-0.2-0.1-0.3s0-0.2-0.1-0.3c0-0.1,0-0.2-0.1-0.3c-0.1-0.5-0.1-1-0.1-1.6c0-0.2,0-0.4,0-0.6
			c0-0.1,0-0.2,0-0.3c0-0.1,0-0.3,0-0.4c0-0.1,0-0.3,0.1-0.5c0,0,0-0.1,0-0.1c0-0.2,0.1-0.4,0.1-0.6c0-0.2,0.1-0.4,0.1-0.6
			c0.1-0.2,0.1-0.4,0.2-0.6c0-0.2,0.1-0.3,0.2-0.5c0.5-1.3,1.1-2.6,1.8-3.8c0,0,0,0,0,0c0.1-0.2,0.3-0.4,0.4-0.6
			c0.4-0.6,0.9-1.3,1.4-1.9c0.2-0.2,0.3-0.4,0.5-0.6c0.6-0.6,1.2-1.2,1.8-1.8c10-9.2,22.9-17.4,35.9-21.4l15-4.1l5.6-1.5l1.3-0.4
			l3.7-1l1.3-0.3l10.2-2.8l2.2-0.6l5.2-1.4l1.7-0.4l4-1.1l10-2.7l0.6-0.2l7.7-2.1l1-0.3v-0.4l0.6,0.2l0.5-0.2v0.4l8.6,2.4l0.7,0.2
			l8.1,2.2h0l7.6,2.1l3.6,1l3.8,1l2.5,0.7l8.1,2.2l4.7,1.3l1.4,0.4l4.7,1.3l14.9,4.1c12.4,3.8,23.9,10.2,33.6,18.8
			c3,2.7,5.7,5.8,8,9.1c1,1.4,1.5,2.3,1.5,2.3C4400.5-2157.2,4387.5-2126.9,4380.3-2110.3z"/>
		<path id="Trazado_2011" class="st9" d="M4246.3-2201.8l-26.9,7.3c-13,4-25.9,12.1-35.9,21.4c-5.5,5.1-7.3,10.9-6.7,14.7
			c0.3,2.1,1.7,5.9,3.6,10.7c2.9-6.7,6.7-12.9,11.3-18.5c5.6-6.8,12.5-12.4,20.4-16.4c7.3-3.7,15.2-6.4,22.8-9.4
			c3.1-1.4,6.1-3,8.9-4.8c0.8-0.5,1.7-1,2.6-1.4c-0.1-0.6-0.1-1.2-0.2-1.8C4246.3-2200.5,4246.3-2201.2,4246.3-2201.8z"/>
		<path id="Trazado_2012" class="st9" d="M4210.5-2006.1H4199l0.6-16.4l1.7-50.5c0.5,0.4,1,0.9,1.5,1.3c0.1,0.1,0.2,0.3,0.3,0.4
			c0.5,1.6,0.9,3.3,1.2,4.9c0.2,2.7,0.3,5.3,0.4,8c0.1,8.2-0.7,16.5-0.3,24.7c0.5,9.1,2.4,18,5.7,26.5
			C4210.3-2006.8,4210.4-2006.4,4210.5-2006.1z"/>
		<path id="Trazado_2013" class="st9" d="M4214.8-2079.1c9.9-2.7,36.2-17.2,35.2-22.6C4249-2107.1,4200-2075,4214.8-2079.1z"/>
		<path id="Trazado_2014" class="st9" d="M4214.8-2118.9c-8.1,4.5-7.2,32.6-7.2,32.6C4216.1-2105.9,4223-2123.4,4214.8-2118.9z"/>
		<path id="Trazado_2015" class="st6" d="M4290.6-2225.1v-0.4l-1.2,0.2l-1.2-0.2v0.4l-21.6,3.2l-4.8,27.6l3.9,3
			c14.4,11.1,34.5,10.8,48.5-0.7l2.8-2.3l-4.8-27.6L4290.6-2225.1z"/>
		<path id="Trazado_2016" class="st12" d="M4309.1-2247.9c-5.7,0-11.3-0.1-13.2-1.8c-2.8-2.5-4.8-4.1-6.8-4.1
			c-1.1,0-3.6,1.6-6.3,4.1c-1.8,1.6-7.5,1.8-13.2,1.8c-5.7,0-12.5,6.4-11.7,17.8c0.8,11.1,7.1,19.7,30.5,19.4h1.7
			c23.5,0.4,29.7-8.3,30.5-19.4C4321.6-2241.5,4314.8-2247.9,4309.1-2247.9z"/>
		<path id="Trazado_2017" class="st8" d="M4289.7-2218.5c-0.1,0-0.2,0-0.4,0c-0.1,0-0.2,0-0.4,0c-17.9-0.4-36.7-14.5-36.7-14.5
			l-11.9,35.3l47.6,13.8v0.8l1.4-0.4l1.4,0.4v-0.8l47.6-13.8l-11.9-35.3C4326.5-2232.9,4307.7-2218.9,4289.7-2218.5z"/>
		<g id="Grupo_3379" transform="translate(254.834 235.375)">
			<path id="Trazado_2018" class="st13" d="M4068.6-2510.2c-2.1-1.3-3.8-2.2-10.2-2.8c-0.1,0-0.3,0-0.4,0h-46.9c-0.1,0-0.3,0-0.4,0
				c-6.5,0.6-8.1,1.5-10.2,2.8c-7.3,4.4-4.9,32.4,16.7,33c8.5,0.2,11.2-6.6,13.8-11.4c1.1-2,3.6-2.7,5.6-1.6
				c0.7,0.4,1.3,0.9,1.6,1.6c2.6,4.8,5.2,11.7,13.8,11.4C4073.5-2477.8,4076-2505.8,4068.6-2510.2z"/>
			<path id="Trazado_2019" class="st14" d="M4069.5-2511.6c-2.5-1.5-4.4-2.4-10.9-3.1c-0.2,0-0.4,0-0.6,0h-46.9c-0.2,0-0.4,0-0.6,0
				c-6.5,0.6-8.4,1.6-10.9,3.1c-4.2,2.5-5.7,10.5-3.6,18.6c2.8,10.6,10.7,17.2,21.1,17.5c8.8,0.2,12.1-6.2,14.5-10.9
				c0.3-0.5,0.5-1,0.7-1.4c0.7-1.2,2.1-1.6,3.3-1c0.4,0.2,0.7,0.6,1,1c0.2,0.5,0.5,0.9,0.7,1.4c2.4,4.6,5.6,10.9,14,10.9
				c0.2,0,0.3,0,0.5,0c10.4-0.3,18.3-6.8,21.1-17.5C4075.2-2501.1,4073.6-2509.1,4069.5-2511.6z M4069.9-2493.9
				c-1.2,4.4-5.2,14.7-18,15c-6.7,0.2-9.1-4.5-11.5-9.1c-0.3-0.5-0.5-1-0.8-1.5c-1.5-2.8-5-3.8-7.8-2.3c-1,0.5-1.8,1.3-2.3,2.3
				c-0.3,0.5-0.5,1-0.8,1.5c-2.4,4.6-4.8,9.3-11.5,9.1c-12.8-0.4-16.9-10.6-18-15c-1.9-7-0.4-13.4,2.1-14.9c1.9-1.2,3.3-2,9.5-2.6
				c0.1,0,0.2,0,0.3,0h46.9c0.1,0,0.2,0,0.3,0c6.2,0.6,7.6,1.4,9.5,2.6C4070.3-2507.3,4071.7-2500.9,4069.9-2493.9L4069.9-2493.9z"
				/>
		</g>
		<path id="Trazado_2020" class="st8" d="M4330.7-2233c0.9-20.8,18.7-91.9-42.3-91.9c0,0-0.2,0-0.4,0c-0.1,0-0.2,0-0.4,0v0
			c-53.8,1.5-42.1,60.8-40.2,92.6c0.7,11.5-8.7,29.6-8.7,29.6c8,19.4,45.3,29.2,49.4,28.7c4,0.5,44.1-8.8,51.9-28.2
			C4340-2202.2,4330.2-2221.4,4330.7-2233z M4305.2-2214.4c-11.3,9.2-26.1,4.4-33.3,0c-18.7-11.5-22.2-50.3-20.8-63.3
			c0.8-7.2,23.2-14,38.1-14.1c10-0.1,37,8.5,37.8,15.8C4328.3-2263,4325.5-2230.9,4305.2-2214.4L4305.2-2214.4z"/>
		<path id="Trazado_2021" class="st10" d="M4330.7-2210.2c-7.8,9.3-18.1,17.3-29.7,21.1c-12.5,4-27.5,1.5-36.8-8.2
			c-7.7-8-9.4-18.9-9.6-29.6c-0.1-6-0.3-12.1-0.5-18.1c-3.1-12.9-3.7-26-3-32.6c0.2-1.8,1.7-3.5,4.1-5.2c1.8-13.5,5.5-26.6,13-37.9
			c-31.1,14.1-22.3,61.4-20.7,88.6c0.7,11.5-8.7,29.6-8.7,29.6c8,19.4,45.3,29.2,49.4,28.7c4,0.5,44.1-8.8,51.9-28.2
			c-2.1-4.2-3.9-8.6-5.5-13C4333.3-2213.5,4332-2211.8,4330.7-2210.2z"/>
		<g id="Grupo_3380" transform="translate(247.039 217.813)">
			<path id="Trazado_2022" class="st15" d="M4077-2512.4h-68.9c-3.2,0-5.7,2.6-5.7,5.7l0,0v74.8c0,5.5,4.4,9.9,9.9,9.9h60.6
				c5.5,0,9.9-4.4,9.9-9.9v-74.8C4082.8-2509.8,4080.2-2512.4,4077-2512.4z"/>
			<path id="Trazado_2023" class="st16" d="M4077-2512.4h-5.2c0,0.3,0,0.5,0,0.8v84c0,1.9-0.3,3.8-0.7,5.6h1.7
				c5.5,0,9.9-4.4,9.9-9.9v-74.8C4082.8-2509.8,4080.2-2512.4,4077-2512.4z"/>
			<path id="Trazado_2024" class="st16" d="M4018.5-2512.3v90.3h22.3v-90.4L4018.5-2512.3
				C4018.5-2512.4,4018.5-2512.4,4018.5-2512.3z"/>
			<rect id="Rectángulo_948" x="3996.1" y="-2512.4" class="st17" width="92.1" height="5.6"/>
		</g>
		<rect id="Rectángulo_949" x="4284.4" y="-2174" class="st12" width="9.9" height="167.9"/>
		<g id="Grupo_3381" transform="translate(234.894 318.886)">
			<path id="Trazado_2025" class="st12" d="M4052.9-2497.8c-28.7-3-47.1-27.5-47.3-27.7l-7.9,5.8c0.9,1.2,21.4,28.7,55.1,31.8
				l0.8,0.1l0.7-0.2c1.5-0.3,37.6-8.5,55.8-31.1l-7.7-6.2C4087.7-2507.1,4057.9-2499.1,4052.9-2497.8z"/>
		</g>
		<g id="Grupo_3382" transform="translate(292.985 183.062)">
			<rect id="Rectángulo_950" x="3990.1" y="-2507.9" class="st12" width="9.9" height="30.3"/>
		</g>
	</g>
</g>
</svg>
