<svg xmlns="http://www.w3.org/2000/svg" width="920.998" height="287.416" viewBox="0 0 920.998 287.416">
  <g id="Grupo_3723" data-name="Grupo 3723" transform="translate(-111.002 -958.568)">
    <rect id="Rectángulo_1001" data-name="Rectángulo 1001" width="920" height="258" transform="translate(112 987)" fill="#fff"/>
    <g id="Grupo_3642" data-name="Grupo 3642" transform="translate(101.839 676.437)">
      <path id="Trazado_2604" data-name="Trazado 2604" d="M0,0H921V287.416H0Z" transform="translate(9.163 282.131)" fill="#f4f4f4"/>
      <rect id="Rectángulo_1003" data-name="Rectángulo 1003" width="145.867" height="115.115" transform="translate(247.943 317.239)" fill="#a8bcbc"/>
      <rect id="Rectángulo_1004" data-name="Rectángulo 1004" width="134.358" height="104.207" transform="translate(253.707 322.693)" fill="#bed3d3"/>
      <rect id="Rectángulo_1005" data-name="Rectángulo 1005" width="920.998" height="44.85" transform="translate(9.163 524.697)" fill="#bed3d3"/>
      <rect id="Rectángulo_1006" data-name="Rectángulo 1006" width="920.998" height="10.228" transform="translate(9.163 514.469)" fill="#a8bcbc"/>
      <rect id="Rectángulo_1007" data-name="Rectángulo 1007" width="91.532" height="195.098" transform="translate(503.149 329.599)" fill="#a8bcbc"/>
      <rect id="Rectángulo_1008" data-name="Rectángulo 1008" width="74.735" height="187.266" transform="translate(511.542 337.431)" fill="#fff"/>
      <circle id="Elipse_586" data-name="Elipse 586" cx="3.722" cy="3.722" r="3.722" transform="translate(517.442 422.342)" fill="#a8bcbc"/>
      <rect id="Rectángulo_1009" data-name="Rectángulo 1009" width="15.952" height="2.552" rx="0.494" transform="translate(519.379 424.788)" fill="#a8bcbc"/>
      <g id="Grupo_3626" data-name="Grupo 3626" transform="translate(38.327 434.042)">
        <path id="Trazado_2494" data-name="Trazado 2494" d="M45.005,509.853H88.6V434.271H40.317v75.582Z" transform="translate(-35.802 -413.423)" fill="#d0e8e8" fill-rule="evenodd"/>
        <rect id="Rectángulo_1010" data-name="Rectángulo 1010" width="57.317" height="5.732" rx="0.942" transform="translate(0 15.116)" fill="#d0e8e8"/>
        <rect id="Rectángulo_1011" data-name="Rectángulo 1011" width="48.286" height="3.689" transform="translate(4.516 20.848)" fill="#a8bcbc"/>
        <path id="Trazado_2495" data-name="Trazado 2495" d="M44.728,458.4H82.951V441.173H44.728V458.4Zm38.567.687H44.041v-18.6h39.6v18.6Z" transform="translate(-35.181 -412.387)" fill="#a8bcbc" fill-rule="evenodd"/>
        <path id="Trazado_2496" data-name="Trazado 2496" d="M44.728,477.1H82.951V459.875H44.728V477.1Zm38.567.687H44.041v-18.6h39.6v18.6Z" transform="translate(-35.181 -409.27)" fill="#a8bcbc" fill-rule="evenodd"/>
        <path id="Trazado_2497" data-name="Trazado 2497" d="M44.728,495.808H82.951V478.579H44.728v17.228Zm38.567.687H44.041v-18.6h39.6v18.6Z" transform="translate(-35.181 -406.152)" fill="#a8bcbc" fill-rule="evenodd"/>
        <g id="Grupo_3621" data-name="Grupo 3621" transform="translate(15.566 31.198)">
          <path id="Trazado_2498" data-name="Trazado 2498" d="M50.9,444.091H65.872l10.1-.948,1.107.948v2.459H50.9l-1.107-.948,1.107-.1Z" transform="translate(-49.789 -443.142)" fill="#a8bcbc" fill-rule="evenodd"/>
          <rect id="Rectángulo_1012" data-name="Rectángulo 1012" width="26.185" height="2.459" fill="#fff"/>
        </g>
        <g id="Grupo_3622" data-name="Grupo 3622" transform="translate(15.566 74.839)">
          <path id="Trazado_2499" data-name="Trazado 2499" d="M50.9,481.5H65.872l10.1-.948,1.107.948v2.459H50.9l-1.107-.949,1.107-.1Z" transform="translate(-49.789 -480.549)" fill="#a8bcbc" fill-rule="evenodd"/>
          <rect id="Rectángulo_1013" data-name="Rectángulo 1013" width="26.185" height="2.459" fill="#fff"/>
        </g>
        <g id="Grupo_3623" data-name="Grupo 3623" transform="translate(15.566 53.018)">
          <path id="Trazado_2500" data-name="Trazado 2500" d="M50.9,462.794H65.872l10.1-.949,1.107.949v2.459H50.9l-1.107-.949,1.107-.1Z" transform="translate(-49.789 -461.845)" fill="#a8bcbc" fill-rule="evenodd"/>
          <rect id="Rectángulo_1014" data-name="Rectángulo 1014" width="26.185" height="2.459" fill="#fff"/>
        </g>
        <path id="Trazado_2501" data-name="Trazado 2501" d="M46.224,506.072l-5.907-7.017h5.907Z" transform="translate(-35.802 -402.625)" fill="#a8bcbc" fill-rule="evenodd"/>
        <g id="Grupo_3624" data-name="Grupo 3624" transform="translate(5.84 97.645)">
          <path id="Trazado_2502" data-name="Trazado 2502" d="M44.656,506.5a3.2,3.2,0,1,0-3.2-3.2A3.209,3.209,0,0,0,44.656,506.5Z" transform="translate(-41.452 -500.096)" fill="#699" fill-rule="evenodd"/>
          <path id="Trazado_2503" data-name="Trazado 2503" d="M44.42,504.619a1.556,1.556,0,1,0-1.556-1.556A1.559,1.559,0,0,0,44.42,504.619Z" transform="translate(-41.217 -499.861)" fill="#fff" fill-rule="evenodd"/>
        </g>
        <path id="Trazado_2504" data-name="Trazado 2504" d="M82.549,506.072l-5.907-7.017h5.907Z" transform="translate(-29.747 -402.625)" fill="#a8bcbc" fill-rule="evenodd"/>
        <g id="Grupo_3625" data-name="Grupo 3625" transform="translate(48.219 97.645)">
          <path id="Trazado_2505" data-name="Trazado 2505" d="M80.98,506.5a3.2,3.2,0,1,0-3.2-3.2A3.209,3.209,0,0,0,80.98,506.5Z" transform="translate(-77.777 -500.096)" fill="#699" fill-rule="evenodd"/>
          <path id="Trazado_2506" data-name="Trazado 2506" d="M80.744,504.619a1.556,1.556,0,1,0-1.556-1.556A1.559,1.559,0,0,0,80.744,504.619Z" transform="translate(-77.542 -499.861)" fill="#fff" fill-rule="evenodd"/>
        </g>
        <rect id="Rectángulo_1015" data-name="Rectángulo 1015" width="5.434" height="7.825" transform="translate(17.321 7.291)" fill="#699"/>
        <rect id="Rectángulo_1016" data-name="Rectángulo 1016" width="6.676" height="3.338" transform="translate(16.7 3.953)" fill="#abd5d5"/>
        <rect id="Rectángulo_1017" data-name="Rectángulo 1017" width="3.796" height="5.351" transform="translate(18.14 8.528)" fill="#fff"/>
        <rect id="Rectángulo_1018" data-name="Rectángulo 1018" width="16.265" height="6.686" transform="translate(24.106 8.431)" fill="#f1502d"/>
        <rect id="Rectángulo_1019" data-name="Rectángulo 1019" width="16.265" height="1.405" transform="translate(24.106 10.036)" fill="#fff"/>
        <path id="Trazado_2507" data-name="Trazado 2507" d="M75.021,419.276h3.137a2.018,2.018,0,0,1,2.011,2.011v8.745a1.009,1.009,0,0,1-1.006,1.006H74.016a1.009,1.009,0,0,1-1.006-1.006v-8.745A2.018,2.018,0,0,1,75.021,419.276Z" transform="translate(-30.352 -415.922)" fill="#abd5d5" fill-rule="evenodd"/>
        <rect id="Rectángulo_1020" data-name="Rectángulo 1020" width="2.353" height="1.949" transform="translate(45.061 2.311)" fill="#abd5d5"/>
        <rect id="Rectángulo_1021" data-name="Rectángulo 1021" width="3.113" height="2.691" rx="0.348" transform="translate(44.681)" fill="#396"/>
        <rect id="Rectángulo_1022" data-name="Rectángulo 1022" width="4.547" height="7.573" transform="translate(43.964 6.162)" fill="#fff"/>
        <rect id="Rectángulo_1023" data-name="Rectángulo 1023" width="4.547" height="1.399" transform="translate(43.964 6.922)" fill="#396"/>
      </g>
      <g id="Grupo_3630" data-name="Grupo 3630" transform="translate(421.354 358.336)">
        <rect id="Rectángulo_1027" data-name="Rectángulo 1027" width="70.093" height="30.355" fill="#699"/>
        <g id="Grupo_3629" data-name="Grupo 3629" transform="translate(8.902 8.009)">
          <rect id="Rectángulo_1028" data-name="Rectángulo 1028" width="24.866" height="1.498" transform="translate(0.001)" fill="#ccc"/>
          <path id="Trazado_2510" data-name="Trazado 2510" d="M396.008,361.193H371.141v1.5h24.867Z" transform="translate(-371.141 -357.905)" fill="#ccc" fill-rule="evenodd"/>
          <path id="Trazado_2511" data-name="Trazado 2511" d="M396.008,364.01H371.141v1.5h24.867Z" transform="translate(-371.141 -357.436)" fill="#ccc" fill-rule="evenodd"/>
          <path id="Trazado_2512" data-name="Trazado 2512" d="M396.008,366.828H371.141v1.5h24.867Z" transform="translate(-371.141 -356.966)" fill="#ccc" fill-rule="evenodd"/>
          <rect id="Rectángulo_1029" data-name="Rectángulo 1029" width="24.866" height="1.498" transform="translate(0.001 13.148)" fill="#ccc"/>
        </g>
      </g>
      <rect id="Rectángulo_1030" data-name="Rectángulo 1030" width="53.203" height="54.426" transform="translate(522.302 347.947)" fill="#bed3d3"/>
      <path id="Trazado_2513" data-name="Trazado 2513" d="M486.389,349.976a1.653,1.653,0,1,1,2.338,2.338l-34.172,34.172a1.654,1.654,0,1,1-2.339-2.338Z" transform="translate(72.856 6.489)" fill="#fff" fill-rule="evenodd"/>
      <path id="Trazado_2514" data-name="Trazado 2514" d="M491.617,351.012a1.653,1.653,0,0,1,2.338,2.338l-27.217,27.217a1.653,1.653,0,1,1-2.338-2.338Z" transform="translate(74.922 6.661)" fill="#fff" fill-rule="evenodd"/>
      <path id="Trazado_2515" data-name="Trazado 2515" d="M484.4,372.786a1.653,1.653,0,0,1,2.338,2.338l-13,13a1.653,1.653,0,0,1-2.338-2.338Z" transform="translate(76.088 10.29)" fill="#fff" fill-rule="evenodd"/>
      <rect id="Rectángulo_1031" data-name="Rectángulo 1031" width="61.087" height="45.072" rx="0.85" transform="translate(348 368.235)" fill="#fff"/>
      <rect id="Rectángulo_1032" data-name="Rectángulo 1032" width="45.072" height="33.753" transform="translate(351.223 372.479)" fill="#699"/>
      <rect id="Rectángulo_1033" data-name="Rectángulo 1033" width="13.34" height="7.074" transform="translate(367.103 411.488)" fill="#fff"/>
      <path id="Trazado_2516" data-name="Trazado 2516" d="M310.925,406.771H339.02a3.649,3.649,0,0,0-3.638-3.639H314.564a3.649,3.649,0,0,0-3.639,3.639Z" transform="translate(48.794 15.429)" fill="#fff" fill-rule="evenodd"/>
      <g id="Grupo_3632" data-name="Grupo 3632" transform="translate(340.267 526.301)">
        <path id="Trazado_2517" data-name="Trazado 2517" d="M296.689,506.091l8.932-10.611h-8.932Z" transform="translate(-293.933 -495.48)" fill="#a8bcbc" fill-rule="evenodd"/>
        <g id="Grupo_3631" data-name="Grupo 3631" transform="translate(0 1.837)">
          <path id="Trazado_2518" data-name="Trazado 2518" d="M299.17,506.74a4.843,4.843,0,1,0-4.843-4.844A4.853,4.853,0,0,0,299.17,506.74Z" transform="translate(-294.327 -497.054)" fill="#699" fill-rule="evenodd"/>
          <path id="Trazado_2519" data-name="Trazado 2519" d="M298.814,503.893a2.353,2.353,0,1,0-2.352-2.353A2.358,2.358,0,0,0,298.814,503.893Z" transform="translate(-293.971 -496.698)" fill="#fff" fill-rule="evenodd"/>
        </g>
      </g>
      <g id="Grupo_3634" data-name="Grupo 3634" transform="translate(392.738 526.301)">
        <path id="Trazado_2520" data-name="Trazado 2520" d="M341.51,506.091l8.932-10.611H341.51Z" transform="translate(-338.754 -495.48)" fill="#a8bcbc" fill-rule="evenodd"/>
        <g id="Grupo_3633" data-name="Grupo 3633" transform="translate(0 1.837)">
          <path id="Trazado_2521" data-name="Trazado 2521" d="M343.991,506.74a4.843,4.843,0,1,0-4.843-4.844A4.853,4.853,0,0,0,343.991,506.74Z" transform="translate(-339.148 -497.054)" fill="#699" fill-rule="evenodd"/>
          <path id="Trazado_2522" data-name="Trazado 2522" d="M343.635,503.893a2.353,2.353,0,1,0-2.353-2.353A2.357,2.357,0,0,0,343.635,503.893Z" transform="translate(-338.792 -496.698)" fill="#fff" fill-rule="evenodd"/>
        </g>
      </g>
      <path id="Trazado_2523" data-name="Trazado 2523" d="M317.249,398.628h13.34v3.8Z" transform="translate(49.854 14.679)" fill="#e6e6e6" fill-rule="evenodd"/>
      <rect id="Rectángulo_1034" data-name="Rectángulo 1034" width="8.519" height="2.426" transform="translate(398.541 378.1)" fill="#f1502d"/>
      <g id="Grupo_3635" data-name="Grupo 3635" transform="translate(398.541 383.767)">
        <rect id="Rectángulo_1035" data-name="Rectángulo 1035" width="1.906" height="1.787" fill="#699"/>
        <path id="Trazado_2524" data-name="Trazado 2524" d="M348.849,373.309h-1.905V375.1h1.905Z" transform="translate(-343.636 -373.309)" fill="#699" fill-rule="evenodd"/>
        <rect id="Rectángulo_1036" data-name="Rectángulo 1036" width="1.906" height="1.787" transform="translate(6.615)" fill="#699"/>
      </g>
      <g id="Grupo_3636" data-name="Grupo 3636" transform="translate(398.541 387.536)">
        <path id="Trazado_2525" data-name="Trazado 2525" d="M346.015,376.539h-1.906v1.787h1.906Z" transform="translate(-344.109 -376.539)" fill="#699" fill-rule="evenodd"/>
        <path id="Trazado_2526" data-name="Trazado 2526" d="M348.849,376.539h-1.905v1.787h1.905Z" transform="translate(-343.636 -376.539)" fill="#699" fill-rule="evenodd"/>
        <path id="Trazado_2527" data-name="Trazado 2527" d="M351.684,376.539h-1.906v1.787h1.906Z" transform="translate(-343.164 -376.539)" fill="#699" fill-rule="evenodd"/>
      </g>
      <g id="Grupo_3637" data-name="Grupo 3637" transform="translate(398.541 391.305)">
        <rect id="Rectángulo_1037" data-name="Rectángulo 1037" width="1.906" height="1.787" fill="#699"/>
        <path id="Trazado_2528" data-name="Trazado 2528" d="M348.849,379.77h-1.905v1.787h1.905Z" transform="translate(-343.636 -379.769)" fill="#699" fill-rule="evenodd"/>
        <rect id="Rectángulo_1038" data-name="Rectángulo 1038" width="1.906" height="1.787" transform="translate(6.615)" fill="#699"/>
      </g>
      <rect id="Rectángulo_1039" data-name="Rectángulo 1039" width="8.519" height="1.855" transform="translate(398.541 400.584)" fill="#008792"/>
      <rect id="Rectángulo_1040" data-name="Rectángulo 1040" width="8.519" height="1.855" transform="translate(398.541 404.123)" fill="#008792"/>
      <rect id="Rectángulo_1041" data-name="Rectángulo 1041" width="60.779" height="63.515" transform="translate(344.108 425.128)" fill="#81aaaa"/>
      <rect id="Rectángulo_1042" data-name="Rectángulo 1042" width="65.855" height="40.904" transform="translate(341.039 485.397)" fill="#d0e8e8"/>
      <rect id="Rectángulo_1043" data-name="Rectángulo 1043" width="61.846" height="5.732" rx="0.942" transform="translate(343.045 450.095)" fill="#d0e8e8"/>
      <rect id="Rectángulo_1044" data-name="Rectángulo 1044" width="65.855" height="5.732" rx="0.942" transform="translate(341.039 422.2)" fill="#d0e8e8"/>
      <rect id="Rectángulo_1045" data-name="Rectángulo 1045" width="5.732" height="92.638" rx="0.942" transform="translate(340.962 427.932)" fill="#d0e8e8"/>
      <g id="Grupo_3639" data-name="Grupo 3639" transform="translate(350.251 432.834)">
        <rect id="Rectángulo_1046" data-name="Rectángulo 1046" width="41.8" height="17.261" fill="#fff"/>
        <rect id="Rectángulo_1047" data-name="Rectángulo 1047" width="16.663" height="8.748" transform="translate(9.916 3.369)" fill="#699"/>
        <path id="Trazado_2529" data-name="Trazado 2529" d="M329.933,422a1.562,1.562,0,1,0-1.562-1.562A1.565,1.565,0,0,0,329.933,422Z" transform="translate(-298.564 -414.78)" fill="#f1502d" fill-rule="evenodd"/>
        <path id="Trazado_2530" data-name="Trazado 2530" d="M329.933,428.072a1.562,1.562,0,1,0-1.562-1.563A1.566,1.566,0,0,0,329.933,428.072Z" transform="translate(-298.564 -413.769)" fill="#008792" fill-rule="evenodd"/>
        <rect id="Rectángulo_1048" data-name="Rectángulo 1048" width="6.994" height="17.261" transform="translate(34.806)" fill="#ccc"/>
        <g id="Grupo_3638" data-name="Grupo 3638" transform="translate(9.916 13.575)">
          <rect id="Rectángulo_1049" data-name="Rectángulo 1049" width="2.083" height="2.083" transform="translate(0 0)" fill="#699"/>
          <path id="Trazado_2531" data-name="Trazado 2531" d="M315.488,427h2.083v2.083h-2.083Z" transform="translate(-310.627 -427.001)" fill="#699" fill-rule="evenodd"/>
          <path id="Trazado_2532" data-name="Trazado 2532" d="M319.653,427h2.082v2.083h-2.082Z" transform="translate(-309.933 -427.001)" fill="#699" fill-rule="evenodd"/>
          <rect id="Rectángulo_1050" data-name="Rectángulo 1050" width="2.083" height="2.083" transform="translate(14.58 0)" fill="#699"/>
        </g>
        <path id="Trazado_2533" data-name="Trazado 2533" d="M307.706,421.2a.937.937,0,1,0-.937-.938A.94.94,0,0,0,307.706,421.2Z" transform="translate(-302.164 -414.706)" fill="#008792" fill-rule="evenodd"/>
      </g>
      <rect id="Rectángulo_1051" data-name="Rectángulo 1051" width="40.15" height="12.873" transform="translate(353.903 472.524)" fill="#fff"/>
      <rect id="Rectángulo_1052" data-name="Rectángulo 1052" width="15.938" height="8.479" transform="translate(360.227 474.67)" fill="#346161"/>
      <rect id="Rectángulo_1053" data-name="Rectángulo 1053" width="12.464" height="7.253" transform="translate(361.965 475.283)" fill="#699"/>
      <path id="Trazado_2534" data-name="Trazado 2534" d="M331.119,459.28a2.758,2.758,0,1,0-2.759-2.758A2.763,2.763,0,0,0,331.119,459.28Z" transform="translate(51.74 23.869)" fill="#699" fill-rule="evenodd"/>
      <rect id="Rectángulo_1054" data-name="Rectángulo 1054" width="1.839" height="7.56" transform="translate(381.941 476.611)" fill="#699"/>
      <rect id="Rectángulo_1055" data-name="Rectángulo 1055" width="1.634" height="5.21" transform="translate(357.338 477.939)" fill="#699"/>
      <rect id="Rectángulo_1056" data-name="Rectángulo 1056" width="40.15" height="10.24" transform="translate(353.903 461.412)" fill="#fff"/>
      <rect id="Rectángulo_1057" data-name="Rectángulo 1057" width="22.204" height="6.132" transform="translate(355.762 463.209)" fill="#9cc"/>
      <rect id="Rectángulo_1058" data-name="Rectángulo 1058" width="11.842" height="4.864" transform="translate(360.417 463.209)" fill="#346161"/>
      <rect id="Rectángulo_1059" data-name="Rectángulo 1059" width="7.402" height="4.864" transform="translate(362.639 463.209)" fill="#699"/>
      <path id="Trazado_2535" data-name="Trazado 2535" d="M330.283,445.4a1.2,1.2,0,1,0-1.2-1.2A1.2,1.2,0,0,0,330.283,445.4Z" transform="translate(51.86 22.075)" fill="#699" fill-rule="evenodd"/>
      <path id="Trazado_2536" data-name="Trazado 2536" d="M300.339,493.543h53.549V466.18H300.339v27.363Zm54.03.963H299.375V465.216h55.476v29.289Z" transform="translate(46.858 25.777)" fill="#a8bcbc" fill-rule="evenodd"/>
      <g id="Grupo_3640" data-name="Grupo 3640" transform="translate(355.639 495.337)">
        <path id="Trazado_2537" data-name="Trazado 2537" d="M308.979,470.268h20.981l14.153-1.329,1.551,1.329v3.445H308.979l-1.551-1.329,1.551-.146Z" transform="translate(-307.428 -468.939)" fill="#a8bcbc" fill-rule="evenodd"/>
        <rect id="Rectángulo_1060" data-name="Rectángulo 1060" width="36.685" height="3.445" fill="#fff"/>
      </g>
      <rect id="Rectángulo_1061" data-name="Rectángulo 1061" width="7.977" height="10.24" transform="translate(386.144 461.412)" fill="#ccc"/>
      <rect id="Rectángulo_1062" data-name="Rectángulo 1062" width="5.104" height="12.873" transform="translate(389.022 472.524)" fill="#ccc"/>
      <g id="Grupo_3641" data-name="Grupo 3641" transform="translate(387.528 463.164)">
        <rect id="Rectángulo_1063" data-name="Rectángulo 1063" width="5.21" height="0.867" fill="#fff"/>
        <path id="Trazado_2538" data-name="Trazado 2538" d="M339.915,443.446v-.867h-5.209v.867Z" transform="translate(-334.706 -441.159)" fill="#fff" fill-rule="evenodd"/>
        <path id="Trazado_2539" data-name="Trazado 2539" d="M339.915,444.663V443.8h-5.209v.867Z" transform="translate(-334.706 -440.957)" fill="#fff" fill-rule="evenodd"/>
        <rect id="Rectángulo_1064" data-name="Rectángulo 1064" width="5.21" height="0.868" transform="translate(0 4.259)" fill="#fff"/>
      </g>
      <path id="Trazado_2540" data-name="Trazado 2540" d="M340.907,426.263h11.8a7.257,7.257,0,0,0,5.138-2.137h0a7.252,7.252,0,0,0,2.134-5.138V388.016a3.3,3.3,0,0,0-.968-2.336l0,0a3.3,3.3,0,0,0-2.335-.968h-1.379v-1.984h1.379a5.277,5.277,0,0,1,3.733,1.554l0,0h0a5.28,5.28,0,0,1,1.554,3.735v30.972a9.238,9.238,0,0,1-2.722,6.539h0a9.233,9.233,0,0,1-6.54,2.72h-11.8Z" transform="translate(53.903 12.028)" fill="#9cc" fill-rule="evenodd"/>
      <path id="Trazado_2541" data-name="Trazado 2541" d="M340.165,430.517h8.953a7.253,7.253,0,0,0,5.137-2.137h0a7.252,7.252,0,0,0,2.134-5.138V392.27a3.3,3.3,0,0,0-.968-2.336l0,0-.006,0v-2.4a5.329,5.329,0,0,1,1.4,1.008v0h0a5.285,5.285,0,0,1,1.554,3.735v30.972a9.238,9.238,0,0,1-2.722,6.539h0a9.233,9.233,0,0,1-6.54,2.72h-8.953Z" transform="translate(53.772 12.828)" fill="#9cc" fill-rule="evenodd"/>
      <rect id="Rectángulo_1065" data-name="Rectángulo 1065" width="5.732" height="92.638" rx="0.942" transform="translate(401.29 427.932)" fill="#d0e8e8"/>
      <path id="Trazado_2542" data-name="Trazado 2542" d="M338.65,419.584h4.618a1.549,1.549,0,0,1,1.545,1.545h0a1.548,1.548,0,0,1-1.545,1.545H338.65Z" transform="translate(53.497 18.171)" fill="#9cc" fill-rule="evenodd"/>
      <path id="Trazado_2543" data-name="Trazado 2543" d="M338.65,423.922h4.618a1.548,1.548,0,0,1,1.545,1.545h0a1.549,1.549,0,0,1-1.545,1.545H338.65Z" transform="translate(53.497 18.895)" fill="#9cc" fill-rule="evenodd"/>
      <path id="Trazado_2544" data-name="Trazado 2544" d="M284.692,334.69a1.653,1.653,0,0,1,2.338,2.338l-52.8,52.8a1.653,1.653,0,1,1-2.338-2.338Z" transform="translate(35.244 3.941)" fill="#fff" fill-rule="evenodd"/>
      <path id="Trazado_2545" data-name="Trazado 2545" d="M294.918,332.529a1.653,1.653,0,0,1,2.338,2.338L255.2,376.922a1.654,1.654,0,1,1-2.339-2.339Z" transform="translate(38.816 3.581)" fill="#fff" fill-rule="evenodd"/>
      <path id="Trazado_2546" data-name="Trazado 2546" d="M281.621,369.934a1.653,1.653,0,1,1,2.338,2.338l-20.094,20.093a1.653,1.653,0,1,1-2.338-2.338Z" transform="translate(40.272 9.815)" fill="#fff" fill-rule="evenodd"/>
    </g>
    <g id="Grupo_3667" data-name="Grupo 3667" transform="translate(710 1006.869)">
      <g id="Grupo_3662" data-name="Grupo 3662" transform="translate(67.628 38.94)">
        <g id="Grupo_3661" data-name="Grupo 3661" transform="translate(0)">
          <g id="Grupo_3660" data-name="Grupo 3660" transform="translate(0)">
            <g id="Grupo_3644" data-name="Grupo 3644" transform="translate(0 17.706)">
              <path id="Trazado_2547" data-name="Trazado 2547" d="M1135.3,328.554s-3.431,1.949-1.307,3.15,8.281.746,8.281.746Z" transform="translate(-1088.583 -307.612)" fill="#52afb6"/>
              <g id="Grupo_3643" data-name="Grupo 3643">
                <rect id="Rectángulo_1066" data-name="Rectángulo 1066" width="1.325" height="48.319" transform="matrix(0.407, -0.913, 0.913, 0.407, 3.891, 2.75)" fill="#aeb0b3"/>
                <path id="Trazado_2548" data-name="Trazado 2548" d="M1391.391,222.849l-.539,1.21-3.433-1.823.323-.723Z" transform="translate(-1387.418 -221.513)" fill="#6d6f72"/>
                <path id="Rectángulo_1067" data-name="Rectángulo 1067" d="M1.512,0h11.06a1.512,1.512,0,0,1,1.512,1.512v0a1.512,1.512,0,0,1-1.512,1.512H1.512A1.512,1.512,0,0,1,0,1.512v0A1.512,1.512,0,0,1,1.512,0Z" transform="translate(58.627 28.088) rotate(-155.967)" fill="#135781"/>
                <path id="Rectángulo_1068" data-name="Rectángulo 1068" d="M.526,0h0a.526.526,0,0,1,.526.526v1.4a.526.526,0,0,1-.526.526h0A.526.526,0,0,1,0,1.922V.526A.526.526,0,0,1,.526,0Z" transform="translate(3.86 3.351) rotate(-155.967)" fill="#6d6f72"/>
              </g>
              <path id="Trazado_2549" data-name="Trazado 2549" d="M1091.384,316.961l-1.464,5.529c-1.279-.894-3.019-.643-4.516-.2s-3.044,1.039-4.572.721c-.7-.147-1.478-.706-1.322-1.407.259-1.16,2.911-.847,3.149-2.011l-8.92-3.992S1080.793,310.613,1091.384,316.961Z" transform="translate(-1026.043 -295.694)" fill="#52afb6"/>
            </g>
            <g id="Grupo_3648" data-name="Grupo 3648" transform="translate(100.197 102.059)">
              <g id="Grupo_3645" data-name="Grupo 3645" transform="translate(0 66.295)">
                <path id="Trazado_2550" data-name="Trazado 2550" d="M774.209,996.631c-.472,2.471-3.225,3.829-5.729,4.075s-5.076-.224-7.523.362-4.831,2.831-4.276,5.285a4.523,4.523,0,0,0,3,3.031,13.352,13.352,0,0,0,4.4.541l13.6.15c1.735.019,3.669-.038,4.9-1.258,1.258-1.245,1.312-3.239,1.14-5s-1.44-3.675-.643-5.255Z" transform="translate(-756.599 -995.633)" fill="#174043"/>
                <path id="Trazado_2551" data-name="Trazado 2551" d="M772.7,991.53c-.472,2.471-3.225,3.829-5.729,4.075s-5.076-.224-7.523.362-4.831,2.831-4.277,5.285a4.524,4.524,0,0,0,3,3.031,13.352,13.352,0,0,0,4.4.541l13.6.151c1.735.019,3.669-.038,4.9-1.258,1.258-1.244,1.312-3.239,1.14-5s-.466-3.641.331-5.221Z" transform="translate(-755.05 -991.53)" fill="#52afb6"/>
                <path id="Trazado_2552" data-name="Trazado 2552" d="M778.191,995.522c2.32-.394,4.676-1.723,5.109-3.992l2.539.507,2.781,1.622S781.759,999.541,778.191,995.522Z" transform="translate(-765.655 -991.53)" fill="#1e272a"/>
                <path id="Trazado_2553" data-name="Trazado 2553" d="M834.435,1015.652s-2.742-.1-2.624.51S834.435,1015.652,834.435,1015.652Z" transform="translate(-821.959 -1010.928)" fill="#21a2a9"/>
                <path id="Trazado_2554" data-name="Trazado 2554" d="M827.779,1020.294s-2.185,1.659-1.708,2.056S827.779,1020.294,827.779,1020.294Z" transform="translate(-814.167 -1014.667)" fill="#21a2a9"/>
                <path id="Trazado_2555" data-name="Trazado 2555" d="M813.637,1022.8s-.587,2.681.034,2.673S813.637,1022.8,813.637,1022.8Z" transform="translate(-797.858 -1016.68)" fill="#21a2a9"/>
                <path id="Trazado_2556" data-name="Trazado 2556" d="M796.8,1021.347s.6,2.679,1.156,2.41S796.8,1021.347,796.8,1021.347Z" transform="translate(-778.738 -1015.514)" fill="#21a2a9"/>
                <path id="Trazado_2557" data-name="Trazado 2557" d="M781.817,1016.26s1.522,2.283,1.948,1.83S781.817,1016.26,781.817,1016.26Z" transform="translate(-761.559 -1011.422)" fill="#21a2a9"/>
              </g>
              <g id="Grupo_3647" data-name="Grupo 3647" transform="translate(6.97)">
                <path id="Trazado_2558" data-name="Trazado 2558" d="M763.713,652.672a210.109,210.109,0,0,0-2.525,27.972c-.213,9.169.5,18.238,1,27.353.13,2.4.513,4.812.767,7.2.207,1.944.379,4.067-.589,5.714-1.313,2.232-4.094,2.632-6.516,2.811a18.764,18.764,0,0,1-4.479-.026,6.664,6.664,0,0,1-3.982-2.067,8.718,8.718,0,0,1-1.745-5.579c-.063-2.278-.081-4.293-.338-6.571l-5-44.233Z" transform="translate(-740.305 -652.672)" fill="#edeeef"/>
                <g id="Grupo_3646" data-name="Grupo 3646" transform="translate(7.452 60.444)">
                  <path id="Trazado_2559" data-name="Trazado 2559" d="M749.952,977.6s14.193,4.116,12.287-6.491A10.811,10.811,0,0,1,749.952,977.6Z" transform="translate(-748.346 -969.257)" fill="#e0e1e3"/>
                  <path id="Trazado_2560" data-name="Trazado 2560" d="M766.343,967.826c-2.232.218,4.559.138,6.491-1a8.951,8.951,0,0,0,4.013-5.2A13.791,13.791,0,0,1,766.343,967.826Z" transform="translate(-765.898 -961.624)" fill="#e0e1e3"/>
                </g>
              </g>
            </g>
            <g id="Grupo_3651" data-name="Grupo 3651" transform="translate(59.336 36.092)">
              <g id="Grupo_3649" data-name="Grupo 3649">
                <path id="Trazado_2561" data-name="Trazado 2561" d="M859.449,333.9c-5.011,2.659-10.936,2.876-16.479,2.561a126.046,126.046,0,0,1-20.932-3.169c-5.036-1.153-10.261-2.643-13.969-6.241a7.4,7.4,0,0,1-1.786-8.1,4.7,4.7,0,0,1,5.824-3.306,14.441,14.441,0,0,1,3.764,1.607,66.619,66.619,0,0,0,8.378,3.507c8.071,3.112,16.5,2.179,17.117,2.451l22.839-.124Z" transform="translate(-805.774 -315.488)" fill="#edeeef"/>
              </g>
              <g id="Grupo_3650" data-name="Grupo 3650" transform="translate(1.795 3.255)">
                <path id="Trazado_2562" data-name="Trazado 2562" d="M1067.937,355.569s3.966,4.793,5.19,3.479S1067.937,355.569,1067.937,355.569Z" transform="translate(-1067.937 -350.982)" fill="#e0e1e3"/>
                <path id="Trazado_2563" data-name="Trazado 2563" d="M1064.731,346.444s5.472,2.846,5.942,1.72S1064.731,346.444,1064.731,346.444Z" transform="translate(-1064.725 -343.642)" fill="#e0e1e3"/>
                <path id="Trazado_2564" data-name="Trazado 2564" d="M1065.144,333.179s5.83,1.15,5.729-.445S1065.144,333.179,1065.144,333.179Z" transform="translate(-1064.983 -332.124)" fill="#e0e1e3"/>
              </g>
            </g>
            <g id="Grupo_3652" data-name="Grupo 3652" transform="translate(69.241 170.425)">
              <path id="Trazado_2565" data-name="Trazado 2565" d="M932.435,1007.219c-.472,2.471-3.225,3.829-5.729,4.075s-5.076-.224-7.523.362-4.831,2.831-4.276,5.285a4.523,4.523,0,0,0,3,3.031,13.355,13.355,0,0,0,4.4.541l13.6.151c1.735.019,3.669-.038,4.9-1.258,1.258-1.245,1.312-3.239,1.14-5s-1.44-3.676-.643-5.255Z" transform="translate(-914.825 -1006.221)" fill="#174043"/>
              <path id="Trazado_2566" data-name="Trazado 2566" d="M930.922,1002.118c-.472,2.471-3.225,3.829-5.729,4.075s-5.076-.224-7.523.362-4.831,2.831-4.276,5.285a4.524,4.524,0,0,0,3,3.031,13.352,13.352,0,0,0,4.4.541l13.6.151c1.735.019,3.669-.038,4.9-1.258,1.258-1.244,1.312-3.239,1.14-5s-.466-3.641.331-5.221Z" transform="translate(-913.276 -1002.118)" fill="#52afb6"/>
              <path id="Trazado_2567" data-name="Trazado 2567" d="M936.417,1006.11c2.32-.394,4.676-1.723,5.109-3.992l2.539.507,2.781,1.622S939.985,1010.129,936.417,1006.11Z" transform="translate(-923.881 -1002.118)" fill="#1e272a"/>
              <path id="Trazado_2568" data-name="Trazado 2568" d="M992.661,1026.24s-2.742-.1-2.624.51S992.661,1026.24,992.661,1026.24Z" transform="translate(-980.185 -1021.516)" fill="#21a2a9"/>
              <path id="Trazado_2569" data-name="Trazado 2569" d="M986,1030.882s-2.185,1.659-1.708,2.056S986,1030.882,986,1030.882Z" transform="translate(-972.393 -1025.255)" fill="#21a2a9"/>
              <path id="Trazado_2570" data-name="Trazado 2570" d="M971.863,1033.385s-.587,2.681.034,2.673S971.863,1033.385,971.863,1033.385Z" transform="translate(-956.084 -1027.268)" fill="#21a2a9"/>
              <path id="Trazado_2571" data-name="Trazado 2571" d="M955.022,1031.935s.6,2.679,1.156,2.41S955.022,1031.935,955.022,1031.935Z" transform="translate(-936.963 -1026.102)" fill="#21a2a9"/>
              <path id="Trazado_2572" data-name="Trazado 2572" d="M940.043,1026.848s1.523,2.283,1.948,1.83S940.043,1026.848,940.043,1026.848Z" transform="translate(-919.785 -1022.01)" fill="#21a2a9"/>
            </g>
            <g id="Grupo_3655" data-name="Grupo 3655" transform="translate(81.206)">
              <path id="Trazado_2573" data-name="Trazado 2573" d="M851.81,183.928l2-4.152.231-4.009,11.51-2.148-.859,14.175Z" transform="translate(-838.001 -165.283)" fill="#fdaf75"/>
              <path id="Trazado_2574" data-name="Trazado 2574" d="M890.037,200.362c0,.678-.4,1.227-.886,1.227s-.886-.549-.886-1.227.4-1.227.886-1.227S890.037,199.684,890.037,200.362Z" transform="translate(-869.616 -185.807)" fill="#4e2a0e"/>
              <g id="Grupo_3653" data-name="Grupo 3653" transform="translate(13.034 18.645)">
                <rect id="Rectángulo_1069" data-name="Rectángulo 1069" width="1.903" height="3.663" transform="matrix(-0.978, 0.207, -0.207, -0.978, 2.62, 5.949)" fill="#52afb6"/>
                <path id="Trazado_2575" data-name="Trazado 2575" d="M866.883,237.233s-4.37-3.189-4.37-10.921l11.6,1.288S875.263,236.7,866.883,237.233Z" transform="translate(-861.738 -226.312)" fill="#75bcc2"/>
                <path id="Trazado_2576" data-name="Trazado 2576" d="M882.476,239.053l-8.664-1.383,8.461,1.993Z" transform="translate(-872.261 -235.448)" fill="#52afb6"/>
                <path id="Trazado_2577" data-name="Trazado 2577" d="M893.009,255.538l-5.135-3.735,4.74,4.166Z" transform="translate(-885.544 -246.816)" fill="#52afb6"/>
              </g>
              <g id="Grupo_3654" data-name="Grupo 3654">
                <path id="Trazado_2578" data-name="Trazado 2578" d="M734.133,286.548A148.28,148.28,0,0,1,739,264.57a175.241,175.241,0,0,1,5.808-17.491c2.578-6.119,5-12.31,6.957-18.659a28.924,28.924,0,0,0,.581-16.407A75.122,75.122,0,0,1,749.9,193.3c.149-6.78,1.93-13.71,5.989-19.228,3.258-4.43,4.133-8.8-1.854-11.158a8.207,8.207,0,0,1-3.2-2.341c8.366-2.368,6.941-19.082,6.941-19.082h-9.076c2.436-7.412,10.292-12.258,18-9.869a13.971,13.971,0,0,1,9.785,14.515c-.342,3.375-1.7,6.506-2.424,9.8s-2.382,7.113-.369,9.652c5.136,6.476,6.682,12.656,7.194,19.635.6,8.177,1.8,16.3,2.241,24.489.545,10.05,1.526,23.519-5.013,31.879-7.045,9.006-13.974,18.209-19.163,28.441-4.327,8.531-7.968,17.476-7.364,27.143.148,2.376-.058,5.04-1.8,6.666-1.623,1.518-4.066,1.654-6.288,1.638-2.608-.018-5.331-.16-7.6-1.449C730.367,300.887,733.413,291.576,734.133,286.548Z" transform="translate(-732.648 -131.01)" fill="#fff"/>
                <path id="Trazado_2579" data-name="Trazado 2579" d="M742.479,379.362a12.417,12.417,0,0,1-3.811-1.244,11.486,11.486,0,0,1-5.943-10.922,11.289,11.289,0,0,1,2.7-6.258c1.616-1.891,4.324-2.409,5.764-4.155,1.945-2.358,4.807-4.157,5.663-7.092.683-2.341-.119-4.881-1.374-6.972s-2.945-3.887-4.279-5.928a8.232,8.232,0,0,1-1.252-6.685,6.758,6.758,0,0,1,3.339-4.066,13.349,13.349,0,0,1,7.1-1.3q.71.028,1.422.092c3.24,5.267,4.36,10.464,4.781,16.2.6,8.177,1.8,16.3,2.241,24.489.157,2.9.351,6.079.39,9.34.01.8-4.149,2.377-4.747,2.6a33.7,33.7,0,0,1-6.542,1.856A17.369,17.369,0,0,1,742.479,379.362Z" transform="translate(-708.352 -286.822)" fill="#edeeef"/>
                <path id="Trazado_2580" data-name="Trazado 2580" d="M902.315,983.94s14.82,4.3,12.83-6.778A11.288,11.288,0,0,1,902.315,983.94Z" transform="translate(-897.656 -811.62)" fill="#edeeef"/>
                <path id="Trazado_2581" data-name="Trazado 2581" d="M919.431,973.729c-2.331.227,4.761.144,6.778-1.047a9.347,9.347,0,0,0,4.19-5.429A14.4,14.4,0,0,1,919.431,973.729Z" transform="translate(-915.984 -803.649)" fill="#edeeef"/>
              </g>
              <path id="Trazado_2582" data-name="Trazado 2582" d="M876.077,199.541c.042,0,.084,0,.127,0a3.234,3.234,0,0,0,2.623-1.86,7.284,7.284,0,0,0,.651-2.968,27.824,27.824,0,0,0-.348-6.166l-.962.163a26.878,26.878,0,0,1,.336,5.95,6.436,6.436,0,0,1-.544,2.576,2.294,2.294,0,0,1-1.8,1.331c-1.119.062-2.032-1-2.779-2.043-.882-1.225-1.953-2.536-3.512-2.583l-.029.975c1.114.033,1.969,1.094,2.749,2.177C873.411,198.237,874.549,199.541,876.077,199.541Z" transform="translate(-855.492 -177.287)" fill="#fff"/>
              <path id="Trazado_2583" data-name="Trazado 2583" d="M800.461,172.8H767.834v-5.23h31.044A19.575,19.575,0,0,1,800.461,172.8Z" transform="translate(-756.479 -160.418)" fill="#ffd400"/>
              <path id="Trazado_2584" data-name="Trazado 2584" d="M880.919,208.958h10.5v-22.9h-.488V208.47h-9.527v-21.7h-.488Z" transform="translate(-869.563 -175.29)" fill="#ffd400"/>
            </g>
            <path id="Trazado_2585" data-name="Trazado 2585" d="M843.932,439.5h.062a26.549,26.549,0,0,0,13.42-3.479,13.828,13.828,0,0,0,7.08-13.675c-.476-5.659-3.838-10.3-9.469-13.062-.561-.275-1.308-.6-2.173-.967-4.026-1.727-11.521-4.942-10.537-8.7a3.929,3.929,0,0,1,2.646-2.465,13.045,13.045,0,0,1,4.216-.4h.009a.732.732,0,0,0,.008-1.464,14.353,14.353,0,0,0-4.693.479,5.269,5.269,0,0,0-3.6,3.484c-1.3,4.974,6.634,8.379,11.376,10.413.847.363,1.578.677,2.105.936,5.15,2.529,8.224,6.745,8.655,11.87a12.428,12.428,0,0,1-6.364,12.29,25.079,25.079,0,0,1-12.68,3.276h-.06c-9.275,0-18.292-4.207-23.545-10.989a23.125,23.125,0,0,1-1.335-1.914c-3.561-5.707-5.214-12.93-5.2-22.73,0-3.138.164-6.338.318-9.432a127.952,127.952,0,0,0,.168-14.64c-.57-8.747-3.324-15.946-8.183-21.4a.732.732,0,1,0-1.093.975c4.637,5.2,7.267,12.1,7.815,20.516a126.711,126.711,0,0,1-.169,14.472c-.155,3.112-.316,6.329-.32,9.5-.014,10.087,1.708,17.556,5.421,23.507a24.708,24.708,0,0,0,1.42,2.035C824.754,435.075,834.215,439.5,843.932,439.5Z" transform="translate(-746.613 -312.538)" fill="#2e4e5c"/>
            <g id="Grupo_3657" data-name="Grupo 3657" transform="translate(95.121 73.776)">
              <path id="Trazado_2586" data-name="Trazado 2586" d="M765.222,602.765s-9.142,4.246-31.856,3.669l-1.176,3.713s19.29,1.425,32.615-3.018Z" transform="translate(-728.181 -584.246)" fill="#ffd400"/>
              <g id="Grupo_3656" data-name="Grupo 3656" transform="translate(0)">
                <ellipse id="Elipse_590" data-name="Elipse 590" cx="7.767" cy="7.767" rx="7.767" ry="7.767" transform="matrix(-0.399, -0.917, 0.917, -0.399, 6.191, 30.024)" fill="#ffc000"/>
                <rect id="Rectángulo_1070" data-name="Rectángulo 1070" width="15.95" height="37.155" transform="translate(2.243 21.093)" fill="#ffd400"/>
                <rect id="Rectángulo_1071" data-name="Rectángulo 1071" width="15.95" height="37.155" transform="translate(2.243 21.093)" fill="#ffd400"/>
                <rect id="Rectángulo_1072" data-name="Rectángulo 1072" width="15.95" height="2.62" transform="translate(2.243 21.093)" fill="#ffc000"/>
                <rect id="Rectángulo_1073" data-name="Rectángulo 1073" width="3.461" height="2.62" transform="translate(8.488 10.219)" fill="#ffc000"/>
                <rect id="Rectángulo_1074" data-name="Rectángulo 1074" width="15.95" height="28.054" transform="translate(2.243 25.644)" fill="#dd840f"/>
                <rect id="Rectángulo_1075" data-name="Rectángulo 1075" width="18.135" height="3.6" rx="1.8" transform="translate(1.151 18.59)" fill="#ffd400"/>
                <path id="Trazado_2587" data-name="Trazado 2587" d="M852.6,508.106a3.982,3.982,0,1,1-3.982,3.982A3.982,3.982,0,0,1,852.6,508.106Zm0,6.252a2.27,2.27,0,1,0-2.27-2.27A2.27,2.27,0,0,0,852.6,514.358Z" transform="translate(-842.32 -508.106)" fill="#5a5b5e"/>
                <path id="Rectángulo_1076" data-name="Rectángulo 1076" d="M1.8,0H5.324a1.8,1.8,0,0,1,1.8,1.8v0a1.8,1.8,0,0,1-1.8,1.8H1.8A1.8,1.8,0,0,1,0,1.8v0A1.8,1.8,0,0,1,1.8,0Z" transform="translate(6.657 7.373)" fill="#ffd400"/>
              </g>
            </g>
            <g id="Grupo_3659" data-name="Grupo 3659" transform="translate(101.035 37.468)">
              <path id="Trazado_2588" data-name="Trazado 2588" d="M831.625,564.463a19.734,19.734,0,0,1-9.5,10.595,3.726,3.726,0,0,1-3.044.465,3.1,3.1,0,0,1-1.936-2.324,4.225,4.225,0,0,1,.55-2.517,18.627,18.627,0,0,1,3.993-5.429c-.943-.937-2.76.113-3.719-.814a1.068,1.068,0,0,1,.319-1.68c1.185-.8,2.96-.8,4.591-.922s3.364-.495,3.964-1.711Z" transform="translate(-817.112 -513.641)" fill="#52afb6"/>
              <path id="Trazado_2589" data-name="Trazado 2589" d="M687.506,322.927c3,.874,5.393,3.154,7.509,5.5,3.177,3.517,6.008,7.342,8.833,11.16,2.01,2.717,4.118,5.729,4.009,9.134-.123,3.861-3.032,6.95-5.753,9.629l-11.2,11.025a26.147,26.147,0,0,1-5.9,4.777,8.621,8.621,0,0,1-7.287.663c-2.633-1.127-5.8-5.719-4.555-8.687a9.713,9.713,0,0,1,2.43-3.075c2.425-2.332,4.688-5.014,7.44-6.887,2.789-1.9,5.517-4.546,5.791-7.96.247-3.062-1.569-5.908-3.668-8.107s-4.578-4.062-6.246-6.618C674.6,326.869,680.557,320.9,687.506,322.927Z" transform="translate(-665.131 -322.525)" fill="#fff"/>
              <g id="Grupo_3658" data-name="Grupo 3658" transform="translate(10.041 42.976)">
                <path id="Trazado_2590" data-name="Trazado 2590" d="M796.209,570.575s6.211.35,6.079-1.441S796.209,570.575,796.209,570.575Z" transform="translate(-793.729 -563.428)" fill="#edeeef"/>
                <path id="Trazado_2591" data-name="Trazado 2591" d="M806.711,558.638s5.807-2.078,5.3-3.188S806.711,558.638,806.711,558.638Z" transform="translate(-805.536 -552.708)" fill="#edeeef"/>
                <path id="Trazado_2592" data-name="Trazado 2592" d="M820.692,546.819s4.806-3.493,3.568-4.5S820.692,546.819,820.692,546.819Z" transform="translate(-820.692 -542.192)" fill="#edeeef"/>
              </g>
            </g>
          </g>
        </g>
      </g>
      <g id="Grupo_3666" data-name="Grupo 3666" transform="translate(0)">
        <g id="Grupo_3663" data-name="Grupo 3663" transform="translate(0)">
          <path id="Trazado_2593" data-name="Trazado 2593" d="M1478.824,104.8a.144.144,0,0,0,.2-.119.3.3,0,0,0-.182-.284l-1.089-.464a.148.148,0,0,0-.226.11.3.3,0,0,0,.183.284l1.089.464Zm-2.178-.928a.144.144,0,0,0,.2-.119.3.3,0,0,0-.183-.284l-1.089-.464a.148.148,0,0,0-.226.11.3.3,0,0,0,.183.284l1.089.464Zm-2.179-.928a.144.144,0,0,0,.2-.119.3.3,0,0,0-.183-.284l-1.089-.464c-.113-.047-.214,0-.226.11a.3.3,0,0,0,.183.284l1.089.464Zm-2.179-.928a.144.144,0,0,0,.2-.119.3.3,0,0,0-.182-.284l-1.089-.464a.148.148,0,0,0-.226.11.3.3,0,0,0,.183.284l1.089.464Zm-2.179-.928a.144.144,0,0,0,.2-.119.3.3,0,0,0-.183-.284l-1.089-.464c-.113-.048-.214,0-.226.11a.3.3,0,0,0,.183.284l1.089.464Zm-2.178-.928a.144.144,0,0,0,.2-.119.3.3,0,0,0-.183-.284l-1.09-.464c-.113-.046-.214,0-.226.111a.3.3,0,0,0,.182.284l1.09.464Zm-2.179-.928a.144.144,0,0,0,.2-.118.3.3,0,0,0-.183-.284l-1.089-.464a.148.148,0,0,0-.226.111.3.3,0,0,0,.183.284l1.089.464Zm-2.179-.928a.144.144,0,0,0,.2-.118.3.3,0,0,0-.183-.284l-1.089-.464c-.113-.048-.214,0-.226.11a.3.3,0,0,0,.183.284l1.089.464Zm-2.179-.928a.144.144,0,0,0,.2-.119.3.3,0,0,0-.182-.284l-1.089-.464c-.113-.046-.214,0-.226.11a.3.3,0,0,0,.183.284l1.089.464Zm-2.179-.928a.144.144,0,0,0,.2-.119.3.3,0,0,0-.183-.284l-1.089-.464a.148.148,0,0,0-.226.11.3.3,0,0,0,.182.284l1.089.464Zm-2.179-.928a.144.144,0,0,0,.2-.119.3.3,0,0,0-.183-.284l-1.089-.464c-.113-.048-.214,0-.226.11a.3.3,0,0,0,.182.284l1.089.464Zm-2.178-.928a.144.144,0,0,0,.2-.119.3.3,0,0,0-.183-.284l-1.089-.464c-.113-.046-.214,0-.226.11a.3.3,0,0,0,.183.284l1.089.464Zm-2.179-.928a.144.144,0,0,0,.2-.119.3.3,0,0,0-.183-.284l-1.089-.464a.148.148,0,0,0-.226.11.3.3,0,0,0,.183.284l1.089.464Zm-2.179-.928a.144.144,0,0,0,.2-.119.3.3,0,0,0-.183-.284l-1.089-.464c-.113-.048-.214,0-.226.11a.3.3,0,0,0,.182.284l1.089.464Zm-2.179-.928a.144.144,0,0,0,.2-.119.3.3,0,0,0-.183-.284l-1.089-.464c-.114-.046-.214,0-.226.11a.3.3,0,0,0,.182.284l1.089.464Zm-2.178-.928a.144.144,0,0,0,.2-.119.3.3,0,0,0-.183-.284l-1.089-.464a.148.148,0,0,0-.226.11.3.3,0,0,0,.183.284l1.089.464Zm-2.179-.928a.144.144,0,0,0,.2-.119.3.3,0,0,0-.183-.284l-1.089-.464c-.114-.048-.214,0-.226.11a.3.3,0,0,0,.183.284l1.089.464Zm-2.179-.928a.144.144,0,0,0,.2-.119.3.3,0,0,0-.183-.284l-1.089-.464c-.113-.046-.214,0-.226.111a.3.3,0,0,0,.183.284l1.089.464Zm-2.179-.928a.144.144,0,0,0,.2-.119.3.3,0,0,0-.183-.284l-1.089-.464a.148.148,0,0,0-.226.111.3.3,0,0,0,.183.284l1.089.464Zm-2.179-.928a.144.144,0,0,0,.2-.119.3.3,0,0,0-.183-.284l-1.089-.464c-.114-.048-.214,0-.226.111a.3.3,0,0,0,.182.284l1.089.464Zm-2.178-.928a.144.144,0,0,0,.2-.119.3.3,0,0,0-.183-.284l-1.089-.464c-.114-.046-.214,0-.226.111a.3.3,0,0,0,.183.284l1.089.464Zm-2.179-.928a.144.144,0,0,0,.2-.119.3.3,0,0,0-.183-.284L1432,84.451c-.114-.049-.214,0-.226.111a.3.3,0,0,0,.183.284l1.089.464Zm-2.179-.928a.144.144,0,0,0,.2-.119.3.3,0,0,0-.183-.284l-1.089-.464c-.114-.047-.214,0-.226.11a.3.3,0,0,0,.183.284l1.089.464Zm-2.179-.928a.144.144,0,0,0,.2-.119.3.3,0,0,0-.183-.284l-1.089-.464a.147.147,0,0,0-.226.11.3.3,0,0,0,.182.284l1.089.464Zm-2.179-.928a.144.144,0,0,0,.2-.119.3.3,0,0,0-.183-.284l-1.089-.464a.149.149,0,0,0-.226.11.3.3,0,0,0,.183.284l1.089.464Zm-2.178-.928a.144.144,0,0,0,.2-.119.3.3,0,0,0-.183-.284l-1.089-.464a.15.15,0,0,0-.226.11.3.3,0,0,0,.183.284l1.089.464Zm-2.179-.928a.144.144,0,0,0,.2-.119.3.3,0,0,0-.183-.284l-1.089-.464a.148.148,0,0,0-.226.11.3.3,0,0,0,.183.284l1.089.464ZM1420,79.752a.144.144,0,0,0,.2-.119.3.3,0,0,0-.182-.284l-1.089-.464a.149.149,0,0,0-.226.11.3.3,0,0,0,.183.284l1.089.464Zm-2.179-.928a.144.144,0,0,0,.2-.119.3.3,0,0,0-.183-.284l-1.089-.464a.15.15,0,0,0-.226.11.3.3,0,0,0,.183.284l1.089.464Zm-2.178-.928a.144.144,0,0,0,.2-.119.3.3,0,0,0-.183-.284l-1.089-.464a.149.149,0,0,0-.226.111.3.3,0,0,0,.183.284l1.09.464Zm-2.179-.928a.144.144,0,0,0,.2-.119.3.3,0,0,0-.183-.284l-.963-.41a.148.148,0,0,0-.226.111.3.3,0,0,0,.182.284l.963.41Z" transform="translate(-1412.296 -47.932)" fill="#3caea4"/>
          <path id="Trazado_2594" data-name="Trazado 2594" d="M1477.863,77.914a.145.145,0,0,0,.2-.1.292.292,0,0,0-.158-.294l-1.072-.57c-.109-.059-.22-.023-.244.08a.292.292,0,0,0,.158.294l1.071.57A.255.255,0,0,0,1477.863,77.914Zm-2.143-1.14a.145.145,0,0,0,.2-.1.292.292,0,0,0-.158-.294l-1.071-.57c-.11-.061-.22-.023-.244.08a.292.292,0,0,0,.158.294l1.071.57A.272.272,0,0,0,1475.72,76.774Zm-2.143-1.141a.145.145,0,0,0,.2-.1.292.292,0,0,0-.158-.294l-1.071-.57c-.11-.06-.22-.023-.244.08a.292.292,0,0,0,.158.294l1.071.57A.249.249,0,0,0,1473.577,75.633Zm-2.143-1.14a.145.145,0,0,0,.2-.1.292.292,0,0,0-.158-.294l-1.071-.57c-.111-.059-.22-.023-.244.08a.292.292,0,0,0,.158.294l1.071.57A.246.246,0,0,0,1471.434,74.493Zm-2.143-1.14a.144.144,0,0,0,.2-.1.291.291,0,0,0-.158-.294l-1.072-.57c-.11-.061-.22-.023-.244.08a.292.292,0,0,0,.158.294l1.072.57A.247.247,0,0,0,1469.291,73.353Zm-2.143-1.141a.144.144,0,0,0,.2-.1.292.292,0,0,0-.158-.294l-1.072-.57c-.111-.06-.22-.023-.244.08a.292.292,0,0,0,.158.294l1.072.57A.248.248,0,0,0,1467.148,72.212Zm-2.143-1.14a.144.144,0,0,0,.2-.1.291.291,0,0,0-.158-.294l-1.072-.57c-.111-.06-.22-.023-.244.08a.292.292,0,0,0,.158.294l1.072.57A.248.248,0,0,0,1465.005,71.072Zm-2.143-1.141a.144.144,0,0,0,.2-.1.292.292,0,0,0-.158-.294l-1.072-.57c-.111-.061-.22-.023-.244.08a.291.291,0,0,0,.158.294l1.071.57A.255.255,0,0,0,1462.862,69.931Zm-2.143-1.14a.145.145,0,0,0,.2-.1.292.292,0,0,0-.158-.294l-1.072-.57c-.112-.061-.22-.023-.244.08a.292.292,0,0,0,.158.294l1.071.57A.255.255,0,0,0,1460.719,68.791Zm-2.143-1.14a.145.145,0,0,0,.2-.1.292.292,0,0,0-.158-.294l-1.072-.57c-.11-.06-.22-.023-.244.08a.292.292,0,0,0,.158.294l1.071.57A.256.256,0,0,0,1458.576,67.65Zm-2.143-1.141a.145.145,0,0,0,.2-.1.293.293,0,0,0-.158-.294l-1.071-.57c-.11-.061-.22-.023-.244.08a.292.292,0,0,0,.158.294l1.071.57A.25.25,0,0,0,1456.433,66.51Zm-2.143-1.14a.144.144,0,0,0,.2-.1.292.292,0,0,0-.158-.294l-1.072-.57c-.11-.06-.22-.023-.244.08a.292.292,0,0,0,.158.294l1.072.57A.237.237,0,0,0,1454.29,65.369Zm-2.143-1.14a.144.144,0,0,0,.2-.1.292.292,0,0,0-.158-.294l-1.072-.57c-.11-.06-.22-.023-.244.08a.292.292,0,0,0,.158.294l1.072.57A.239.239,0,0,0,1452.147,64.229ZM1450,63.089a.144.144,0,0,0,.2-.1.291.291,0,0,0-.158-.294l-1.072-.57c-.11-.061-.22-.023-.244.08a.292.292,0,0,0,.158.294l1.072.57A.248.248,0,0,0,1450,63.089Zm-2.143-1.141a.144.144,0,0,0,.2-.1.291.291,0,0,0-.158-.294l-1.071-.57c-.111-.061-.22-.023-.244.08a.291.291,0,0,0,.158.294l1.071.57A.246.246,0,0,0,1447.861,61.948Zm-2.143-1.14a.145.145,0,0,0,.2-.1.291.291,0,0,0-.158-.294l-1.071-.57c-.111-.06-.22-.023-.244.08a.291.291,0,0,0,.158.294l1.071.57A.253.253,0,0,0,1445.718,60.808Zm-2.143-1.141a.145.145,0,0,0,.2-.1.292.292,0,0,0-.158-.294l-1.071-.57c-.111-.062-.22-.023-.244.08a.291.291,0,0,0,.158.294l1.071.57A.258.258,0,0,0,1443.575,59.667Zm-2.143-1.14a.144.144,0,0,0,.2-.1.291.291,0,0,0-.158-.294l-1.071-.57c-.112-.061-.22-.023-.244.08a.292.292,0,0,0,.158.294l1.071.57A.256.256,0,0,0,1441.432,58.527Zm-2.143-1.14a.144.144,0,0,0,.2-.1.292.292,0,0,0-.158-.294l-1.072-.57c-.11-.06-.22-.023-.244.08a.292.292,0,0,0,.158.294l1.071.57A.252.252,0,0,0,1439.289,57.387Zm-2.143-1.14a.144.144,0,0,0,.2-.1.292.292,0,0,0-.158-.294l-1.072-.57c-.11-.061-.22-.023-.244.08a.292.292,0,0,0,.158.294l1.071.57A.265.265,0,0,0,1437.146,56.246ZM1435,55.106a.144.144,0,0,0,.2-.1.292.292,0,0,0-.158-.294l-1.072-.57c-.11-.06-.22-.023-.244.08a.292.292,0,0,0,.158.294l1.072.57A.235.235,0,0,0,1435,55.106Zm-2.143-1.14a.144.144,0,0,0,.2-.1.291.291,0,0,0-.158-.294l-1.072-.57c-.11-.06-.22-.023-.244.08a.292.292,0,0,0,.158.294l1.072.57A.244.244,0,0,0,1432.86,53.965Zm-2.143-1.141a.145.145,0,0,0,.2-.1.292.292,0,0,0-.158-.294l-1.071-.57c-.111-.061-.22-.023-.244.08a.292.292,0,0,0,.158.294l1.071.57A.241.241,0,0,0,1430.717,52.825Zm-2.143-1.14a.145.145,0,0,0,.2-.1.292.292,0,0,0-.158-.294l-1.071-.57c-.111-.061-.22-.023-.244.08a.292.292,0,0,0,.158.294l1.071.57A.251.251,0,0,0,1428.574,51.684Zm-2.143-1.14a.145.145,0,0,0,.2-.1.292.292,0,0,0-.158-.294l-1.071-.57c-.111-.06-.22-.023-.244.08a.292.292,0,0,0,.158.294l1.072.57A.262.262,0,0,0,1426.431,50.544Zm-2.143-1.141a.144.144,0,0,0,.2-.1.292.292,0,0,0-.158-.294l-1.071-.57c-.111-.062-.22-.023-.244.08a.291.291,0,0,0,.158.294l1.071.57A.239.239,0,0,0,1424.288,49.4Zm-2.143-1.14a.145.145,0,0,0,.2-.1.292.292,0,0,0-.158-.294l-1.072-.57c-.111-.061-.22-.023-.244.08a.292.292,0,0,0,.158.294l1.071.57A.251.251,0,0,0,1422.145,48.263ZM1420,47.123a.145.145,0,0,0,.2-.1.292.292,0,0,0-.158-.294l-1.072-.57c-.11-.06-.22-.023-.244.08a.291.291,0,0,0,.158.294l1.071.57A.268.268,0,0,0,1420,47.123Zm-2.143-1.141a.144.144,0,0,0,.2-.1.292.292,0,0,0-.158-.294l-1.072-.57c-.11-.059-.22-.023-.244.08a.292.292,0,0,0,.158.294l1.072.57A.246.246,0,0,0,1417.859,45.982Zm-2.143-1.14a.145.145,0,0,0,.2-.1.292.292,0,0,0-.158-.294l-1.071-.57c-.111-.061-.22-.023-.244.08a.293.293,0,0,0,.158.294l1.071.57A.248.248,0,0,0,1415.716,44.842Zm-2.143-1.14a.145.145,0,0,0,.2-.1.293.293,0,0,0-.158-.294l-1.071-.57c-.111-.06-.22-.023-.244.08a.292.292,0,0,0,.158.294l1.071.57A.259.259,0,0,0,1413.573,43.7Z" transform="translate(-1411.335 -21.045)" fill="#3caea4"/>
          <path id="Trazado_2595" data-name="Trazado 2595" d="M1478.251,48.323a.146.146,0,0,0,.2-.081.28.28,0,0,0-.133-.3l-1.044-.667c-.107-.068-.224-.046-.258.051a.28.28,0,0,0,.133.3l1.044.667A.28.28,0,0,0,1478.251,48.323Zm-2.087-1.333a.146.146,0,0,0,.2-.081.28.28,0,0,0-.134-.3l-1.043-.666c-.108-.069-.223-.046-.258.051a.279.279,0,0,0,.133.3l1.044.667A.278.278,0,0,0,1476.164,46.991Zm-2.087-1.333a.146.146,0,0,0,.2-.08.28.28,0,0,0-.133-.3l-1.044-.666c-.107-.068-.224-.046-.258.051a.28.28,0,0,0,.133.3l1.044.666A.262.262,0,0,0,1474.077,45.658Zm-2.087-1.333a.146.146,0,0,0,.2-.08.279.279,0,0,0-.133-.3l-1.044-.667c-.107-.068-.224-.046-.258.051a.28.28,0,0,0,.133.3l1.044.666A.264.264,0,0,0,1471.989,44.325Zm-2.087-1.333a.146.146,0,0,0,.2-.081.28.28,0,0,0-.134-.3l-1.044-.666c-.108-.068-.224-.046-.258.051a.28.28,0,0,0,.133.3l1.044.667A.274.274,0,0,0,1469.9,42.992Zm-2.087-1.333a.146.146,0,0,0,.2-.081.28.28,0,0,0-.133-.3l-1.044-.666c-.107-.067-.224-.046-.258.051a.28.28,0,0,0,.134.3l1.043.666A.287.287,0,0,0,1467.815,41.66Zm-2.087-1.333a.146.146,0,0,0,.2-.08.28.28,0,0,0-.133-.3l-1.044-.667c-.108-.068-.223-.046-.258.051a.28.28,0,0,0,.134.3l1.044.666A.262.262,0,0,0,1465.727,40.327Zm-2.087-1.333a.146.146,0,0,0,.2-.081.28.28,0,0,0-.134-.3l-1.044-.667c-.108-.067-.224-.046-.258.051a.28.28,0,0,0,.133.3l1.044.667A.284.284,0,0,0,1463.64,38.994Zm-2.088-1.333a.146.146,0,0,0,.2-.081.28.28,0,0,0-.134-.3l-1.043-.666c-.107-.068-.224-.046-.258.051a.28.28,0,0,0,.133.3l1.044.666A.28.28,0,0,0,1461.552,37.661Zm-2.087-1.333a.146.146,0,0,0,.2-.08.28.28,0,0,0-.134-.3l-1.043-.666c-.107-.068-.223-.046-.258.051a.28.28,0,0,0,.133.3l1.044.666A.27.27,0,0,0,1459.465,36.329ZM1457.378,35a.146.146,0,0,0,.2-.081.28.28,0,0,0-.133-.3l-1.044-.667c-.108-.068-.224-.046-.258.051a.281.281,0,0,0,.133.3l1.044.667A.281.281,0,0,0,1457.378,35Zm-2.087-1.333a.146.146,0,0,0,.2-.081.28.28,0,0,0-.134-.3l-1.044-.666c-.108-.068-.224-.046-.258.051a.28.28,0,0,0,.133.3l1.043.666A.29.29,0,0,0,1455.291,33.663Zm-2.087-1.333a.146.146,0,0,0,.2-.08.28.28,0,0,0-.133-.3l-1.044-.667c-.108-.069-.224-.046-.258.051a.28.28,0,0,0,.134.3l1.044.666A.263.263,0,0,0,1453.2,32.331ZM1451.116,31a.146.146,0,0,0,.2-.081.28.28,0,0,0-.133-.3l-1.044-.666c-.107-.068-.223-.046-.258.051a.28.28,0,0,0,.134.3l1.044.667A.277.277,0,0,0,1451.116,31Zm-2.087-1.333a.146.146,0,0,0,.2-.081.28.28,0,0,0-.133-.3l-1.044-.666c-.107-.068-.224-.046-.258.051a.28.28,0,0,0,.133.3l1.044.666A.281.281,0,0,0,1449.029,29.665Zm-2.087-1.333a.146.146,0,0,0,.2-.08.28.28,0,0,0-.134-.3l-1.044-.666c-.108-.068-.224-.046-.258.051a.28.28,0,0,0,.133.3l1.044.666A.264.264,0,0,0,1446.942,28.332ZM1444.854,27a.146.146,0,0,0,.2-.081.279.279,0,0,0-.133-.3l-1.043-.667c-.108-.068-.224-.046-.258.051a.279.279,0,0,0,.133.3l1.044.667A.273.273,0,0,0,1444.854,27Zm-2.088-1.333a.146.146,0,0,0,.2-.081.28.28,0,0,0-.133-.3l-1.044-.666c-.107-.067-.223-.046-.258.051a.28.28,0,0,0,.133.3l1.044.667A.283.283,0,0,0,1442.767,25.667Zm-2.087-1.333a.146.146,0,0,0,.2-.08.28.28,0,0,0-.133-.3l-1.044-.666c-.107-.068-.224-.046-.258.051a.28.28,0,0,0,.134.3l1.044.666A.276.276,0,0,0,1440.68,24.334ZM1438.592,23a.146.146,0,0,0,.2-.08.28.28,0,0,0-.133-.3l-1.043-.667c-.108-.068-.224-.046-.258.051a.28.28,0,0,0,.134.3l1.044.666A.264.264,0,0,0,1438.592,23Zm-2.087-1.333a.146.146,0,0,0,.2-.081.28.28,0,0,0-.134-.3l-1.044-.666c-.108-.069-.224-.046-.258.051a.28.28,0,0,0,.133.3l1.044.667A.275.275,0,0,0,1436.5,21.669Zm-2.087-1.333a.146.146,0,0,0,.2-.081.28.28,0,0,0-.133-.3l-1.044-.666c-.108-.068-.224-.046-.258.051a.28.28,0,0,0,.133.3l1.044.666A.278.278,0,0,0,1434.417,20.336ZM1432.33,19a.146.146,0,0,0,.2-.08.28.28,0,0,0-.133-.3l-1.044-.666c-.107-.068-.224-.046-.258.051a.28.28,0,0,0,.133.3l1.044.666A.264.264,0,0,0,1432.33,19Zm-2.087-1.333a.146.146,0,0,0,.2-.081.28.28,0,0,0-.134-.3l-1.044-.667c-.107-.069-.224-.046-.258.051a.281.281,0,0,0,.134.3l1.044.667A.283.283,0,0,0,1430.243,17.671Zm-2.087-1.333a.146.146,0,0,0,.2-.081.28.28,0,0,0-.134-.3l-1.043-.666c-.107-.068-.224-.046-.258.051a.28.28,0,0,0,.133.3l1.044.666A.283.283,0,0,0,1428.156,16.338Zm-2.087-1.333a.146.146,0,0,0,.2-.081.28.28,0,0,0-.133-.3l-1.044-.666c-.107-.068-.223-.046-.258.051a.28.28,0,0,0,.134.3l1.043.666A.27.27,0,0,0,1426.068,15.005Zm-2.087-1.333a.146.146,0,0,0,.2-.081.281.281,0,0,0-.133-.3L1423,12.625c-.107-.067-.224-.046-.258.051a.28.28,0,0,0,.134.3l1.044.667A.278.278,0,0,0,1423.981,13.673Zm-2.088-1.333a.146.146,0,0,0,.2-.081.28.28,0,0,0-.133-.3l-1.044-.666c-.108-.068-.224-.046-.258.051a.28.28,0,0,0,.133.3l1.044.666A.282.282,0,0,0,1421.893,12.34Zm-2.087-1.333a.146.146,0,0,0,.2-.081.28.28,0,0,0-.133-.3l-1.044-.666c-.107-.067-.223-.046-.258.051a.28.28,0,0,0,.133.3l1.044.666A.289.289,0,0,0,1419.806,11.007Zm-2.087-1.333a.146.146,0,0,0,.2-.081.28.28,0,0,0-.133-.3l-1.044-.667c-.108-.068-.224-.046-.258.051a.28.28,0,0,0,.134.3l1.044.667A.277.277,0,0,0,1417.719,9.675Zm-2.088-1.333a.146.146,0,0,0,.2-.081.28.28,0,0,0-.134-.3l-1.044-.666c-.108-.068-.223-.046-.258.051a.281.281,0,0,0,.133.3l1.043.666A.29.29,0,0,0,1415.632,8.342Zm-2.087-1.333a.146.146,0,0,0,.2-.08.28.28,0,0,0-.134-.3l-1.044-.667c-.108-.069-.224-.046-.258.051a.28.28,0,0,0,.133.3l1.044.666A.262.262,0,0,0,1413.544,7.009Z" transform="translate(-1411.723 8.546)" fill="#3caea4"/>
          <path id="Trazado_2596" data-name="Trazado 2596" d="M1478.026,20.273a.148.148,0,0,0,.189-.065.267.267,0,0,0-.108-.3l-1.008-.751c-.1-.077-.225-.068-.27.023a.267.267,0,0,0,.109.3l1.008.751A.282.282,0,0,0,1478.026,20.273Zm-2.016-1.5a.149.149,0,0,0,.189-.065.267.267,0,0,0-.109-.3l-1.008-.751c-.1-.076-.225-.068-.27.023a.266.266,0,0,0,.109.3l1.008.751A.277.277,0,0,0,1476.01,18.772Zm-2.016-1.5a.149.149,0,0,0,.189-.065.266.266,0,0,0-.109-.3l-1.008-.751c-.1-.077-.225-.068-.27.022a.267.267,0,0,0,.109.3l1.008.751A.288.288,0,0,0,1473.994,17.27Zm-2.016-1.5a.149.149,0,0,0,.189-.065.267.267,0,0,0-.109-.3l-1.008-.751c-.1-.076-.225-.068-.27.023a.267.267,0,0,0,.109.3l1.008.751A.279.279,0,0,0,1471.978,15.768Zm-2.016-1.5a.148.148,0,0,0,.189-.065.266.266,0,0,0-.109-.3l-1.008-.751c-.1-.077-.225-.068-.27.022a.267.267,0,0,0,.109.3l1.008.751A.291.291,0,0,0,1469.962,14.267Zm-2.016-1.5a.148.148,0,0,0,.189-.065.267.267,0,0,0-.109-.3l-1.008-.751c-.1-.076-.225-.068-.27.022a.266.266,0,0,0,.109.3l1.008.751A.28.28,0,0,0,1467.946,12.765Zm-2.016-1.5a.148.148,0,0,0,.189-.064.267.267,0,0,0-.109-.3L1465,10.144c-.1-.076-.225-.068-.27.022a.267.267,0,0,0,.109.3l1.008.751A.277.277,0,0,0,1465.929,11.263Zm-2.016-1.5a.149.149,0,0,0,.189-.065.267.267,0,0,0-.109-.3l-1.008-.751c-.1-.076-.225-.068-.27.022a.267.267,0,0,0,.109.3l1.008.751A.281.281,0,0,0,1463.913,9.762Zm-2.016-1.5a.149.149,0,0,0,.189-.064.267.267,0,0,0-.109-.3l-1.008-.751c-.1-.076-.225-.068-.27.022a.267.267,0,0,0,.109.3l1.008.751A.281.281,0,0,0,1461.9,8.26Zm-2.016-1.5a.148.148,0,0,0,.189-.065.267.267,0,0,0-.109-.3l-1.008-.751c-.1-.076-.225-.068-.269.022a.266.266,0,0,0,.108.3l1.008.751A.283.283,0,0,0,1459.881,6.758Zm-2.016-1.5a.148.148,0,0,0,.189-.064.267.267,0,0,0-.109-.3l-1.008-.751c-.1-.077-.225-.068-.27.022a.267.267,0,0,0,.109.3l1.008.751A.281.281,0,0,0,1457.865,5.257Zm-2.016-1.5a.148.148,0,0,0,.189-.065.266.266,0,0,0-.109-.3l-1.008-.751c-.1-.077-.225-.068-.27.022a.267.267,0,0,0,.109.3l1.008.751A.284.284,0,0,0,1455.849,3.755Zm-2.016-1.5a.148.148,0,0,0,.189-.065.266.266,0,0,0-.109-.3l-1.008-.751c-.1-.076-.225-.068-.269.023a.266.266,0,0,0,.109.3l1.008.751A.277.277,0,0,0,1453.833,2.253Zm-2.016-1.5a.148.148,0,0,0,.189-.065.267.267,0,0,0-.109-.3l-1.008-.751c-.1-.076-.225-.068-.27.022a.267.267,0,0,0,.108.3l1.008.751A.279.279,0,0,0,1451.816.752ZM1449.8-.75a.148.148,0,0,0,.189-.064.267.267,0,0,0-.109-.3l-1.008-.751c-.1-.076-.225-.068-.27.022a.267.267,0,0,0,.109.3l1.008.751A.278.278,0,0,0,1449.8-.75Zm-2.016-1.5a.148.148,0,0,0,.189-.065.267.267,0,0,0-.109-.3l-1.008-.751c-.1-.077-.225-.068-.27.023a.267.267,0,0,0,.109.3l1.008.751A.283.283,0,0,0,1447.784-2.251Zm-2.016-1.5a.148.148,0,0,0,.189-.064.267.267,0,0,0-.109-.3l-1.008-.751c-.1-.077-.225-.068-.27.022a.267.267,0,0,0,.109.3l1.008.751A.283.283,0,0,0,1445.768-3.753Zm-2.016-1.5a.149.149,0,0,0,.189-.065.267.267,0,0,0-.109-.3l-1.008-.751c-.1-.077-.225-.068-.27.022a.267.267,0,0,0,.109.3l1.008.751A.283.283,0,0,0,1443.752-5.255Zm-2.016-1.5a.149.149,0,0,0,.189-.064.267.267,0,0,0-.109-.3l-1.008-.751c-.1-.076-.225-.068-.27.022a.267.267,0,0,0,.109.3l1.008.751A.279.279,0,0,0,1441.735-6.756Zm-2.016-1.5a.149.149,0,0,0,.189-.065.267.267,0,0,0-.109-.3l-1.008-.751c-.1-.076-.225-.068-.27.022a.266.266,0,0,0,.109.3l1.008.751A.285.285,0,0,0,1439.719-8.258Zm-2.016-1.5a.148.148,0,0,0,.189-.064.267.267,0,0,0-.109-.3l-1.008-.751c-.1-.076-.225-.068-.27.022a.267.267,0,0,0,.109.3l1.008.751A.277.277,0,0,0,1437.7-9.76Zm-2.016-1.5a.149.149,0,0,0,.189-.065.267.267,0,0,0-.109-.3l-1.008-.751c-.1-.076-.225-.068-.27.022a.267.267,0,0,0,.109.3l1.008.751A.281.281,0,0,0,1435.687-11.261Zm-2.016-1.5a.148.148,0,0,0,.189-.065.267.267,0,0,0-.109-.3l-1.008-.751c-.1-.076-.225-.068-.27.023a.267.267,0,0,0,.109.3l1.008.751A.276.276,0,0,0,1433.671-12.763Zm-2.016-1.5a.148.148,0,0,0,.189-.065.266.266,0,0,0-.108-.3l-1.008-.751c-.1-.076-.225-.068-.27.022a.267.267,0,0,0,.109.3l1.008.751A.279.279,0,0,0,1431.655-14.264Zm-2.016-1.5a.148.148,0,0,0,.189-.065.266.266,0,0,0-.109-.3l-1.008-.751c-.1-.076-.225-.068-.27.022a.267.267,0,0,0,.109.3l1.008.751A.279.279,0,0,0,1429.638-15.766Zm-2.016-1.5a.148.148,0,0,0,.189-.065.267.267,0,0,0-.109-.3l-1.008-.751c-.105-.077-.225-.068-.27.022a.267.267,0,0,0,.109.3l1.008.751A.281.281,0,0,0,1427.622-17.268Zm-2.016-1.5a.149.149,0,0,0,.189-.065.267.267,0,0,0-.109-.3l-1.008-.751c-.1-.076-.225-.068-.27.022a.267.267,0,0,0,.109.3l1.008.751A.279.279,0,0,0,1425.606-18.769Zm-2.016-1.5a.149.149,0,0,0,.189-.064.267.267,0,0,0-.109-.3l-1.008-.751c-.1-.077-.225-.068-.27.022a.266.266,0,0,0,.109.3l1.008.751A.278.278,0,0,0,1423.59-20.271Zm-2.016-1.5a.148.148,0,0,0,.189-.065.267.267,0,0,0-.108-.3l-1.008-.751c-.1-.077-.225-.068-.269.022a.267.267,0,0,0,.109.3l1.008.751A.28.28,0,0,0,1421.574-21.773Zm-2.016-1.5a.149.149,0,0,0,.189-.064.267.267,0,0,0-.109-.3l-1.008-.751c-.1-.077-.225-.068-.27.022a.267.267,0,0,0,.109.3l1.008.751A.279.279,0,0,0,1419.557-23.274Zm-2.016-1.5a.148.148,0,0,0,.189-.065.267.267,0,0,0-.109-.3l-1.008-.751c-.1-.077-.225-.068-.27.022a.266.266,0,0,0,.109.3l1.008.751A.278.278,0,0,0,1417.542-24.776Zm-2.016-1.5a.148.148,0,0,0,.189-.064.267.267,0,0,0-.109-.3L1414.6-27.4c-.1-.076-.225-.068-.27.022a.267.267,0,0,0,.109.3l1.008.751A.28.28,0,0,0,1415.525-26.278Zm-2.016-1.5a.148.148,0,0,0,.189-.065.266.266,0,0,0-.109-.3l-1.008-.751c-.1-.076-.225-.068-.27.023a.267.267,0,0,0,.109.3l1.008.751A.279.279,0,0,0,1413.509-27.779Z" transform="translate(-1411.499 36.596)" fill="#3caea4"/>
          <path id="Trazado_2597" data-name="Trazado 2597" d="M1478.824-11.16a.151.151,0,0,0,.181-.051.252.252,0,0,0-.085-.3l-.968-.823c-.1-.086-.224-.087-.278,0a.253.253,0,0,0,.085.305l.968.823A.284.284,0,0,0,1478.824-11.16Zm-1.935-1.646a.151.151,0,0,0,.182-.051.253.253,0,0,0-.085-.305l-.967-.823c-.1-.085-.224-.087-.278,0a.253.253,0,0,0,.085.305l.967.823A.286.286,0,0,0,1476.889-12.806Zm-1.935-1.647a.151.151,0,0,0,.182-.051.252.252,0,0,0-.085-.3l-.967-.823c-.1-.086-.224-.087-.278,0a.252.252,0,0,0,.085.3l.967.823A.28.28,0,0,0,1474.954-14.453ZM1473.02-16.1a.151.151,0,0,0,.182-.051.252.252,0,0,0-.085-.3l-.967-.823c-.1-.085-.224-.087-.278,0a.252.252,0,0,0,.085.3l.968.823A.283.283,0,0,0,1473.02-16.1Zm-1.935-1.647a.151.151,0,0,0,.182-.051.253.253,0,0,0-.085-.305l-.967-.823c-.1-.086-.224-.087-.278,0a.253.253,0,0,0,.085.305l.967.823A.283.283,0,0,0,1471.085-17.746Zm-1.934-1.647a.151.151,0,0,0,.182-.051.253.253,0,0,0-.085-.305l-.967-.823c-.1-.086-.224-.087-.278,0a.253.253,0,0,0,.085.305l.967.823A.287.287,0,0,0,1469.151-19.392Zm-1.935-1.647a.151.151,0,0,0,.182-.051.252.252,0,0,0-.085-.3l-.967-.823c-.1-.085-.224-.087-.278,0a.253.253,0,0,0,.085.3l.967.823A.282.282,0,0,0,1467.216-21.039Zm-1.934-1.647a.151.151,0,0,0,.182-.051.252.252,0,0,0-.085-.3l-.967-.823c-.1-.085-.224-.087-.278,0a.252.252,0,0,0,.085.3l.967.823A.284.284,0,0,0,1465.282-22.686Zm-1.935-1.647a.151.151,0,0,0,.182-.051.253.253,0,0,0-.085-.305l-.967-.823c-.1-.086-.224-.087-.278,0a.253.253,0,0,0,.085.305l.967.823A.284.284,0,0,0,1463.347-24.332Zm-1.935-1.646a.151.151,0,0,0,.182-.051.253.253,0,0,0-.085-.305l-.967-.823c-.1-.085-.224-.087-.278,0a.253.253,0,0,0,.085.305l.967.823A.285.285,0,0,0,1461.412-25.979Zm-1.935-1.647a.151.151,0,0,0,.182-.051.252.252,0,0,0-.085-.3l-.967-.823c-.1-.086-.224-.087-.278,0a.252.252,0,0,0,.085.3l.967.823A.286.286,0,0,0,1459.478-27.625Zm-1.934-1.646a.151.151,0,0,0,.182-.051.252.252,0,0,0-.085-.3l-.968-.823c-.1-.085-.224-.087-.277,0a.252.252,0,0,0,.085.3l.968.823A.282.282,0,0,0,1457.544-29.272Zm-1.935-1.647a.151.151,0,0,0,.182-.051.253.253,0,0,0-.085-.305l-.968-.823c-.1-.086-.225-.087-.278,0a.253.253,0,0,0,.085.305l.967.823A.284.284,0,0,0,1455.609-30.918Zm-1.935-1.647a.151.151,0,0,0,.182-.051.253.253,0,0,0-.085-.305l-.967-.823c-.1-.086-.225-.087-.278,0a.253.253,0,0,0,.085.305l.967.823A.286.286,0,0,0,1453.674-32.565Zm-1.934-1.647a.151.151,0,0,0,.182-.051.253.253,0,0,0-.085-.3l-.968-.823c-.1-.085-.224-.087-.278,0a.253.253,0,0,0,.085.3l.967.823A.282.282,0,0,0,1451.74-34.211Zm-1.935-1.647a.151.151,0,0,0,.182-.051.253.253,0,0,0-.085-.3l-.968-.823c-.1-.085-.224-.087-.278,0a.252.252,0,0,0,.085.3l.967.823A.283.283,0,0,0,1449.805-35.858Zm-1.935-1.647a.151.151,0,0,0,.182-.051.252.252,0,0,0-.085-.305l-.967-.823c-.1-.086-.224-.087-.278,0a.253.253,0,0,0,.085.305l.967.823A.282.282,0,0,0,1447.871-37.5Zm-1.935-1.647a.151.151,0,0,0,.182-.051.253.253,0,0,0-.085-.305l-.967-.823c-.1-.085-.225-.087-.278,0a.253.253,0,0,0,.085.305l.967.823A.28.28,0,0,0,1445.936-39.151ZM1444-40.8a.151.151,0,0,0,.182-.051.252.252,0,0,0-.085-.3l-.967-.823c-.1-.085-.224-.087-.278,0a.252.252,0,0,0,.085.3l.968.823A.282.282,0,0,0,1444-40.8Zm-1.935-1.647a.151.151,0,0,0,.182-.051.252.252,0,0,0-.085-.3l-.967-.823c-.1-.085-.224-.087-.278,0a.252.252,0,0,0,.085.3l.967.823A.282.282,0,0,0,1442.067-42.444Zm-1.934-1.647a.151.151,0,0,0,.182-.051.253.253,0,0,0-.085-.305l-.968-.823c-.1-.086-.225-.087-.278,0a.253.253,0,0,0,.085.305l.967.823A.287.287,0,0,0,1440.132-44.091Zm-1.935-1.647a.151.151,0,0,0,.182-.051.253.253,0,0,0-.085-.305l-.967-.823c-.1-.086-.224-.087-.278,0a.252.252,0,0,0,.085.3l.967.823A.288.288,0,0,0,1438.2-45.737Zm-1.935-1.647a.151.151,0,0,0,.182-.051.253.253,0,0,0-.085-.3l-.968-.823c-.1-.085-.224-.087-.278,0a.252.252,0,0,0,.085.3l.967.823A.281.281,0,0,0,1436.263-47.384Zm-1.935-1.647a.151.151,0,0,0,.182-.051.252.252,0,0,0-.085-.3l-.967-.823c-.1-.085-.224-.087-.278,0a.252.252,0,0,0,.085.3l.967.823A.283.283,0,0,0,1434.329-49.03Zm-1.934-1.647a.151.151,0,0,0,.182-.051.252.252,0,0,0-.085-.305l-.967-.823c-.1-.086-.224-.087-.278,0a.253.253,0,0,0,.085.3l.967.823A.278.278,0,0,0,1432.394-50.677Zm-1.935-1.646a.151.151,0,0,0,.182-.051.253.253,0,0,0-.085-.305l-.967-.823c-.1-.085-.224-.087-.278,0a.253.253,0,0,0,.085.305l.968.823A.286.286,0,0,0,1430.46-52.323Zm-1.935-1.647a.151.151,0,0,0,.182-.051.252.252,0,0,0-.085-.3l-.967-.823c-.1-.085-.225-.087-.278,0a.252.252,0,0,0,.085.3l.967.823A.285.285,0,0,0,1428.525-53.97Zm-1.935-1.647a.151.151,0,0,0,.182-.051.252.252,0,0,0-.085-.3l-.968-.823c-.1-.085-.224-.087-.278,0a.252.252,0,0,0,.085.3l.968.823A.281.281,0,0,0,1426.591-55.616Zm-1.935-1.647a.151.151,0,0,0,.181-.051.253.253,0,0,0-.085-.305l-.967-.823c-.1-.086-.225-.087-.278,0a.253.253,0,0,0,.085.305l.967.823A.287.287,0,0,0,1424.656-57.263Zm-1.934-1.647a.151.151,0,0,0,.182-.051.253.253,0,0,0-.085-.305l-.967-.823c-.1-.086-.225-.087-.278,0a.252.252,0,0,0,.085.3l.967.823A.281.281,0,0,0,1422.722-58.909Zm-1.935-1.647a.151.151,0,0,0,.182-.051.252.252,0,0,0-.085-.3l-.967-.823c-.1-.085-.224-.087-.278,0a.253.253,0,0,0,.085.3l.967.823A.281.281,0,0,0,1420.787-60.556Zm-1.934-1.647a.15.15,0,0,0,.181-.051.252.252,0,0,0-.085-.3l-.967-.823c-.1-.085-.225-.087-.278,0a.252.252,0,0,0,.085.3l.967.823A.28.28,0,0,0,1418.852-62.2Zm-1.935-1.647a.151.151,0,0,0,.182-.051.253.253,0,0,0-.085-.305l-.967-.823c-.1-.086-.224-.087-.278,0a.253.253,0,0,0,.085.305l.967.823A.278.278,0,0,0,1416.918-63.849Zm-1.935-1.646a.151.151,0,0,0,.182-.051.253.253,0,0,0-.085-.305l-.967-.823c-.1-.085-.225-.087-.278,0a.253.253,0,0,0,.085.305l.967.823A.287.287,0,0,0,1414.983-65.5Zm-1.935-1.647a.15.15,0,0,0,.182-.051.253.253,0,0,0-.085-.3l-.548-.466c-.1-.085-.224-.087-.278,0a.253.253,0,0,0,.085.3l.547.466A.281.281,0,0,0,1413.048-67.142Z" transform="translate(-1412.296 68.029)" fill="#3caea4"/>
        </g>
        <g id="Grupo_3664" data-name="Grupo 3664" transform="translate(0 42.351)">
          <path id="Trazado_2598" data-name="Trazado 2598" d="M1478.8,162.588l-1.089-.232a.144.144,0,0,0-.183.168.306.306,0,0,0,.226.255l1.089.232a.144.144,0,0,0,.182-.168.311.311,0,0,0-.2-.249Zm-2.179-.464-1.089-.232a.144.144,0,0,0-.183.168.308.308,0,0,0,.226.255l1.089.232a.144.144,0,0,0,.183-.168.312.312,0,0,0-.2-.249Zm-2.179-.464-1.089-.232a.144.144,0,0,0-.183.167.31.31,0,0,0,.226.255l1.089.232a.144.144,0,0,0,.183-.168.312.312,0,0,0-.2-.249Zm-2.179-.465-1.089-.232a.144.144,0,0,0-.183.168.307.307,0,0,0,.226.255l1.089.232a.144.144,0,0,0,.182-.168.31.31,0,0,0-.2-.249Zm-2.179-.464L1469,160.5a.144.144,0,0,0-.183.168.308.308,0,0,0,.226.255l1.089.232a.144.144,0,0,0,.183-.168.311.311,0,0,0-.2-.249Zm-2.179-.464-1.09-.232a.144.144,0,0,0-.182.168.31.31,0,0,0,.226.255l1.09.232a.144.144,0,0,0,.183-.168.312.312,0,0,0-.2-.249Zm-2.179-.465-1.089-.232a.144.144,0,0,0-.183.168.306.306,0,0,0,.226.255l1.089.232a.144.144,0,0,0,.183-.168.312.312,0,0,0-.2-.249Zm-2.178-.464-1.089-.232a.144.144,0,0,0-.183.168.309.309,0,0,0,.226.255l1.089.232a.144.144,0,0,0,.183-.168.311.311,0,0,0-.2-.249Zm-2.179-.464-1.089-.232a.144.144,0,0,0-.183.168.31.31,0,0,0,.226.255l1.089.232a.144.144,0,0,0,.182-.168.311.311,0,0,0-.2-.249Zm-2.179-.465-1.089-.232a.144.144,0,0,0-.182.168.306.306,0,0,0,.226.255l1.089.232a.144.144,0,0,0,.183-.168.311.311,0,0,0-.2-.249Zm-2.179-.464-1.089-.232a.144.144,0,0,0-.182.168.308.308,0,0,0,.226.255l1.089.232a.144.144,0,0,0,.183-.168.311.311,0,0,0-.2-.249Zm-2.179-.464-1.089-.232a.144.144,0,0,0-.183.168.31.31,0,0,0,.226.255l1.089.232a.144.144,0,0,0,.183-.168.311.311,0,0,0-.2-.249Zm-2.179-.465-1.089-.232a.144.144,0,0,0-.183.168.306.306,0,0,0,.226.255l1.089.232a.144.144,0,0,0,.183-.168.311.311,0,0,0-.2-.249Zm-2.179-.464-1.089-.232a.144.144,0,0,0-.182.168.308.308,0,0,0,.226.255l1.089.232a.144.144,0,0,0,.183-.168.311.311,0,0,0-.2-.249Zm-2.179-.464-1.089-.232a.144.144,0,0,0-.182.167.31.31,0,0,0,.226.255l1.089.232a.144.144,0,0,0,.183-.168.311.311,0,0,0-.2-.249Zm-2.178-.465-1.089-.232a.144.144,0,0,0-.183.168.307.307,0,0,0,.226.255l1.089.232a.144.144,0,0,0,.183-.168.311.311,0,0,0-.2-.249Zm-2.179-.464-1.089-.232a.144.144,0,0,0-.183.168.308.308,0,0,0,.226.255l1.089.232a.144.144,0,0,0,.183-.168.312.312,0,0,0-.2-.249Zm-2.179-.465-1.089-.232a.144.144,0,0,0-.183.168.311.311,0,0,0,.226.255l1.089.232a.144.144,0,0,0,.183-.168.311.311,0,0,0-.2-.249Zm-2.179-.464-1.089-.232a.144.144,0,0,0-.183.168.307.307,0,0,0,.226.255l1.089.232a.144.144,0,0,0,.183-.167.312.312,0,0,0-.2-.249Zm-2.179-.464-1.089-.232a.144.144,0,0,0-.182.168.308.308,0,0,0,.226.255l1.089.232a.144.144,0,0,0,.183-.168.31.31,0,0,0-.2-.249Zm-2.179-.465-1.089-.232a.144.144,0,0,0-.183.168.311.311,0,0,0,.226.255l1.089.232a.144.144,0,0,0,.183-.168.311.311,0,0,0-.2-.249Zm-2.178-.464-1.089-.232a.144.144,0,0,0-.183.168.307.307,0,0,0,.226.255l1.089.232a.144.144,0,0,0,.183-.168.312.312,0,0,0-.2-.249Zm-2.179-.464-1.089-.232a.144.144,0,0,0-.183.168.308.308,0,0,0,.226.255l1.089.232a.144.144,0,0,0,.183-.168.311.311,0,0,0-.2-.249Zm-2.179-.464-1.089-.232a.144.144,0,0,0-.182.168.305.305,0,0,0,.226.255l1.089.232a.144.144,0,0,0,.183-.168.31.31,0,0,0-.2-.249Zm-2.179-.465-1.089-.232a.144.144,0,0,0-.183.168.311.311,0,0,0,.226.255l1.089.232a.144.144,0,0,0,.183-.168.311.311,0,0,0-.2-.249Zm-2.178-.464-1.089-.232a.144.144,0,0,0-.183.168.312.312,0,0,0,.226.255l1.089.232a.144.144,0,0,0,.183-.168.312.312,0,0,0-.2-.249Zm-2.179-.464-1.089-.232a.144.144,0,0,0-.183.167.309.309,0,0,0,.226.255l1.089.232a.144.144,0,0,0,.183-.168.311.311,0,0,0-.2-.249Zm-2.179-.465-1.089-.232a.144.144,0,0,0-.183.168.311.311,0,0,0,.226.255l1.089.232a.144.144,0,0,0,.182-.168.31.31,0,0,0-.2-.249Zm-2.179-.464-1.089-.232a.144.144,0,0,0-.183.168.313.313,0,0,0,.226.255l1.089.232a.144.144,0,0,0,.183-.168.312.312,0,0,0-.2-.249Zm-2.178-.464-1.09-.232a.144.144,0,0,0-.183.168.309.309,0,0,0,.226.255l1.089.232a.144.144,0,0,0,.183-.168.312.312,0,0,0-.2-.249Zm-2.179-.465-.963-.205a.144.144,0,0,0-.182.168.307.307,0,0,0,.226.255l.963.205a.144.144,0,0,0,.183-.167.312.312,0,0,0-.2-.249Z" transform="translate(-1412.296 -148.443)" fill="#3caea4"/>
          <path id="Trazado_2599" data-name="Trazado 2599" d="M1477.82,192l-1.071-.115a.146.146,0,0,0-.158.193.3.3,0,0,0,.244.236l1.072.114a.146.146,0,0,0,.158-.193.313.313,0,0,0-.2-.227A.205.205,0,0,0,1477.82,192Zm-2.143-.229-1.071-.114a.146.146,0,0,0-.158.193.3.3,0,0,0,.244.236l1.071.114a.146.146,0,0,0,.158-.193.314.314,0,0,0-.2-.227A.206.206,0,0,0,1475.677,191.769Zm-2.143-.229-1.071-.114a.146.146,0,0,0-.158.193.3.3,0,0,0,.244.236l1.071.114c.111.012.181-.075.158-.193a.314.314,0,0,0-.2-.227A.211.211,0,0,0,1473.534,191.54Zm-2.143-.229-1.071-.114a.146.146,0,0,0-.158.193.3.3,0,0,0,.244.236l1.071.114a.146.146,0,0,0,.158-.193.314.314,0,0,0-.2-.227A.213.213,0,0,0,1471.391,191.311Zm-2.143-.229-1.072-.115a.146.146,0,0,0-.158.193.3.3,0,0,0,.244.236l1.072.115a.146.146,0,0,0,.158-.193.313.313,0,0,0-.2-.227A.21.21,0,0,0,1469.248,191.082Zm-2.143-.229-1.072-.114a.146.146,0,0,0-.158.193.3.3,0,0,0,.244.236l1.072.114a.146.146,0,0,0,.158-.193.313.313,0,0,0-.2-.227A.219.219,0,0,0,1467.105,190.853Zm-2.143-.229-1.072-.115a.146.146,0,0,0-.158.193.3.3,0,0,0,.244.236l1.072.115a.146.146,0,0,0,.158-.193.313.313,0,0,0-.2-.227A.209.209,0,0,0,1464.962,190.624Zm-2.143-.229-1.071-.114c-.111-.012-.182.075-.158.193a.3.3,0,0,0,.244.236l1.072.114a.146.146,0,0,0,.158-.193.313.313,0,0,0-.2-.227A.205.205,0,0,0,1462.819,190.395Zm-2.143-.229-1.071-.114a.146.146,0,0,0-.158.193.3.3,0,0,0,.244.236l1.072.114a.146.146,0,0,0,.158-.193.314.314,0,0,0-.2-.227A.205.205,0,0,0,1460.676,190.165Zm-2.143-.229-1.071-.114a.146.146,0,0,0-.158.193.3.3,0,0,0,.244.236l1.072.114a.146.146,0,0,0,.158-.193.314.314,0,0,0-.2-.227A.205.205,0,0,0,1458.533,189.936Zm-2.143-.229-1.071-.115a.146.146,0,0,0-.158.193.3.3,0,0,0,.244.236l1.071.114c.111.012.182-.075.158-.193a.314.314,0,0,0-.2-.227A.208.208,0,0,0,1456.39,189.707Zm-2.143-.229-1.072-.114a.146.146,0,0,0-.158.193.3.3,0,0,0,.244.236l1.072.114a.146.146,0,0,0,.158-.193.314.314,0,0,0-.2-.227A.224.224,0,0,0,1454.247,189.478Zm-2.143-.229-1.072-.115a.146.146,0,0,0-.158.193.3.3,0,0,0,.244.236l1.072.115a.146.146,0,0,0,.158-.193.313.313,0,0,0-.2-.227A.213.213,0,0,0,1452.1,189.249Zm-2.143-.229-1.072-.115a.146.146,0,0,0-.158.193.3.3,0,0,0,.244.236l1.072.115a.146.146,0,0,0,.158-.193.313.313,0,0,0-.2-.227A.21.21,0,0,0,1449.961,189.02Zm-2.143-.229-1.071-.114a.146.146,0,0,0-.158.193.3.3,0,0,0,.244.236l1.071.114a.146.146,0,0,0,.158-.193.313.313,0,0,0-.2-.227A.209.209,0,0,0,1447.818,188.791Zm-2.143-.229-1.071-.114a.146.146,0,0,0-.158.193.3.3,0,0,0,.244.236l1.071.114a.146.146,0,0,0,.158-.193.314.314,0,0,0-.2-.227A.216.216,0,0,0,1445.675,188.562Zm-2.143-.229-1.071-.114a.146.146,0,0,0-.158.193.3.3,0,0,0,.244.236l1.071.114a.146.146,0,0,0,.158-.193.313.313,0,0,0-.2-.227A.2.2,0,0,0,1443.532,188.333Zm-2.143-.229-1.071-.114c-.111-.012-.182.075-.158.193a.3.3,0,0,0,.244.236l1.071.114a.146.146,0,0,0,.158-.193.313.313,0,0,0-.2-.227A.205.205,0,0,0,1441.389,188.1Zm-2.143-.229-1.071-.114c-.111-.012-.182.075-.158.193a.3.3,0,0,0,.244.236l1.072.114a.146.146,0,0,0,.158-.193.314.314,0,0,0-.2-.227A.223.223,0,0,0,1439.246,187.875Zm-2.143-.229-1.071-.115a.146.146,0,0,0-.158.193.3.3,0,0,0,.244.236l1.072.115a.146.146,0,0,0,.158-.193.313.313,0,0,0-.2-.227A.211.211,0,0,0,1437.1,187.646Zm-2.143-.229-1.072-.115a.146.146,0,0,0-.158.193.3.3,0,0,0,.244.236l1.072.114a.146.146,0,0,0,.158-.193.313.313,0,0,0-.2-.227A.215.215,0,0,0,1434.96,187.417Zm-2.143-.229-1.072-.114a.146.146,0,0,0-.158.193.3.3,0,0,0,.244.236l1.072.114a.146.146,0,0,0,.158-.193.314.314,0,0,0-.2-.227A.226.226,0,0,0,1432.817,187.188Zm-2.143-.229-1.071-.114a.146.146,0,0,0-.158.193.3.3,0,0,0,.244.236l1.071.114a.146.146,0,0,0,.158-.193.313.313,0,0,0-.2-.227A.21.21,0,0,0,1430.674,186.959Zm-2.143-.229-1.071-.115a.146.146,0,0,0-.158.193.3.3,0,0,0,.244.236l1.071.115a.146.146,0,0,0,.158-.193.313.313,0,0,0-.2-.227A.207.207,0,0,0,1428.531,186.73Zm-2.143-.229-1.072-.114c-.111-.012-.182.075-.158.193a.3.3,0,0,0,.244.236l1.071.114c.111.012.181-.075.158-.193a.314.314,0,0,0-.2-.227A.206.206,0,0,0,1426.388,186.5Zm-2.143-.229-1.071-.114a.146.146,0,0,0-.158.193.3.3,0,0,0,.244.236l1.071.114c.111.012.182-.075.158-.193a.313.313,0,0,0-.2-.227A.225.225,0,0,0,1424.245,186.271Zm-2.143-.229-1.071-.114a.146.146,0,0,0-.158.193.3.3,0,0,0,.244.236l1.072.114a.146.146,0,0,0,.158-.193.314.314,0,0,0-.2-.227A.207.207,0,0,0,1422.1,186.042Zm-2.143-.229-1.071-.114a.146.146,0,0,0-.158.193.3.3,0,0,0,.244.236l1.072.114c.111.012.182-.075.158-.193a.314.314,0,0,0-.2-.227A.209.209,0,0,0,1419.959,185.813Zm-2.143-.229-1.072-.115a.146.146,0,0,0-.158.193.3.3,0,0,0,.244.236l1.072.115a.146.146,0,0,0,.158-.193.313.313,0,0,0-.2-.227A.209.209,0,0,0,1417.816,185.584Zm-2.143-.229-1.071-.114a.146.146,0,0,0-.158.193.3.3,0,0,0,.244.236l1.071.114a.146.146,0,0,0,.158-.193.313.313,0,0,0-.2-.227A.208.208,0,0,0,1415.673,185.355Zm-2.143-.229-1.071-.114a.146.146,0,0,0-.158.193.3.3,0,0,0,.244.236l1.071.114c.111.012.182-.075.158-.193a.314.314,0,0,0-.2-.227A.211.211,0,0,0,1413.53,185.126Z" transform="translate(-1411.335 -177.856)" fill="#3caea4"/>
          <path id="Trazado_2600" data-name="Trazado 2600" d="M1478.189,220.568h-1.044c-.108,0-.168.1-.133.215a.3.3,0,0,0,.258.216h1.044c.108,0,.168-.1.133-.216a.316.316,0,0,0-.2-.206A.215.215,0,0,0,1478.189,220.568Zm-2.088,0h-1.044c-.108,0-.168.1-.133.215a.3.3,0,0,0,.258.216h1.043c.109,0,.168-.1.134-.215a.315.315,0,0,0-.2-.206A.21.21,0,0,0,1476.1,220.566Zm-2.087,0h-1.044c-.108,0-.168.1-.133.215a.3.3,0,0,0,.258.216h1.044c.108,0,.168-.1.133-.215a.314.314,0,0,0-.2-.206A.211.211,0,0,0,1474.014,220.565Zm-2.088,0h-1.044c-.108,0-.168.1-.133.215a.3.3,0,0,0,.258.216h1.044c.108,0,.168-.1.133-.215a.315.315,0,0,0-.2-.206A.211.211,0,0,0,1471.927,220.564Zm-2.087,0H1468.8c-.108,0-.168.1-.133.215a.3.3,0,0,0,.258.216h1.044c.108,0,.168-.1.134-.215a.314.314,0,0,0-.2-.206A.208.208,0,0,0,1469.84,220.563Zm-2.088,0h-1.043c-.108,0-.168.1-.134.215a.3.3,0,0,0,.258.216h1.044c.108,0,.168-.1.133-.216a.315.315,0,0,0-.2-.206A.216.216,0,0,0,1467.752,220.562Zm-2.087,0h-1.044c-.108,0-.168.1-.134.215a.3.3,0,0,0,.258.216h1.044c.108,0,.168-.1.133-.215a.316.316,0,0,0-.2-.206A.21.21,0,0,0,1465.665,220.56Zm-2.087,0h-1.044c-.108,0-.168.1-.133.215a.3.3,0,0,0,.258.216h1.044c.108,0,.168-.1.134-.216a.316.316,0,0,0-.2-.206A.217.217,0,0,0,1463.578,220.559Zm-2.087,0h-1.044c-.108,0-.168.1-.133.215a.3.3,0,0,0,.258.216h1.043c.108,0,.168-.1.134-.215a.315.315,0,0,0-.2-.206A.209.209,0,0,0,1461.49,220.558Zm-2.088,0h-1.044c-.108,0-.168.1-.133.216a.3.3,0,0,0,.258.216h1.043c.108,0,.168-.1.134-.216a.315.315,0,0,0-.2-.206A.217.217,0,0,0,1459.4,220.557Zm-2.087,0h-1.044c-.108,0-.168.1-.133.215a.3.3,0,0,0,.258.216h1.044c.108,0,.168-.1.133-.215a.314.314,0,0,0-.2-.206A.2.2,0,0,0,1457.316,220.556Zm-2.088,0h-1.043c-.108,0-.168.1-.133.216a.3.3,0,0,0,.258.216h1.044c.108,0,.168-.1.134-.215a.315.315,0,0,0-.2-.206A.21.21,0,0,0,1455.228,220.554Zm-2.087,0H1452.1c-.108,0-.168.1-.134.215a.3.3,0,0,0,.258.216h1.044c.108,0,.168-.1.133-.215a.315.315,0,0,0-.2-.206A.217.217,0,0,0,1453.141,220.553Zm-2.087,0h-1.044c-.108,0-.168.1-.134.215a.3.3,0,0,0,.258.216h1.044c.108,0,.168-.1.133-.215a.316.316,0,0,0-.2-.206A.209.209,0,0,0,1451.054,220.552Zm-2.088,0h-1.044c-.108,0-.168.1-.133.215a.3.3,0,0,0,.258.216h1.044c.108,0,.168-.1.133-.215a.315.315,0,0,0-.2-.206A.21.21,0,0,0,1448.966,220.551Zm-2.087,0h-1.044c-.108,0-.168.1-.133.216a.3.3,0,0,0,.258.216H1447c.108,0,.168-.1.134-.215a.315.315,0,0,0-.2-.206A.209.209,0,0,0,1446.879,220.55Zm-2.087,0h-1.044c-.109,0-.168.1-.133.216a.3.3,0,0,0,.258.216h1.043c.108,0,.168-.1.133-.215a.316.316,0,0,0-.2-.206A.218.218,0,0,0,1444.792,220.548Zm-2.088,0h-1.044c-.108,0-.168.1-.133.215a.3.3,0,0,0,.258.216h1.044c.108,0,.168-.1.133-.215a.315.315,0,0,0-.2-.206A.209.209,0,0,0,1442.7,220.547Zm-2.087,0h-1.044c-.108,0-.168.1-.134.215a.3.3,0,0,0,.258.216h1.044c.108,0,.168-.1.133-.215a.314.314,0,0,0-.2-.206A.211.211,0,0,0,1440.617,220.546Zm-2.087,0h-1.044c-.109,0-.168.1-.134.215a.3.3,0,0,0,.258.216h1.043c.108,0,.168-.1.133-.215a.316.316,0,0,0-.2-.206A.208.208,0,0,0,1438.53,220.545Zm-2.087,0H1435.4c-.108,0-.168.1-.133.216a.3.3,0,0,0,.258.216h1.044c.108,0,.168-.1.134-.215a.315.315,0,0,0-.2-.206A.21.21,0,0,0,1436.443,220.543Zm-2.087,0h-1.044c-.108,0-.168.1-.133.215a.3.3,0,0,0,.258.216h1.044c.108,0,.168-.1.133-.215a.314.314,0,0,0-.2-.206A.21.21,0,0,0,1434.355,220.543Zm-2.088,0h-1.044c-.108,0-.168.1-.133.215a.3.3,0,0,0,.258.216h1.044c.109,0,.168-.1.133-.215a.315.315,0,0,0-.2-.206A.212.212,0,0,0,1432.268,220.541Zm-2.087,0h-1.044c-.108,0-.168.1-.134.215a.3.3,0,0,0,.258.216h1.044c.108,0,.168-.1.134-.215a.314.314,0,0,0-.2-.206A.21.21,0,0,0,1430.181,220.54Zm-2.087,0h-1.044c-.108,0-.168.1-.133.215a.3.3,0,0,0,.258.216h1.043c.108,0,.168-.1.134-.216a.315.315,0,0,0-.2-.206A.215.215,0,0,0,1428.093,220.539Zm-2.087,0h-1.043c-.108,0-.168.1-.134.215a.3.3,0,0,0,.258.216h1.044c.108,0,.168-.1.133-.215a.315.315,0,0,0-.2-.206A.21.21,0,0,0,1426.006,220.538Zm-2.087,0h-1.044c-.108,0-.168.1-.134.215a.3.3,0,0,0,.258.216h1.044c.108,0,.168-.1.133-.216a.315.315,0,0,0-.2-.206A.218.218,0,0,0,1423.919,220.536Zm-2.088,0h-1.044c-.108,0-.168.1-.133.215a.3.3,0,0,0,.258.216h1.044c.108,0,.168-.1.133-.215a.315.315,0,0,0-.2-.206A.208.208,0,0,0,1421.831,220.535Zm-2.088,0H1418.7c-.108,0-.168.1-.133.215a.3.3,0,0,0,.258.216h1.044c.108,0,.168-.1.133-.216a.315.315,0,0,0-.2-.206A.208.208,0,0,0,1419.744,220.534Zm-2.087,0h-1.044c-.108,0-.168.1-.134.215a.3.3,0,0,0,.258.216h1.044c.108,0,.168-.1.133-.215a.314.314,0,0,0-.2-.206A.213.213,0,0,0,1417.657,220.533Zm-2.088,0h-1.043c-.108,0-.168.1-.133.215a.3.3,0,0,0,.258.216h1.044c.108,0,.168-.1.134-.215a.314.314,0,0,0-.2-.206A.21.21,0,0,0,1415.569,220.532Zm-2.087,0h-1.044c-.108,0-.168.1-.133.215a.3.3,0,0,0,.258.216h1.044c.108,0,.168-.1.134-.216a.315.315,0,0,0-.2-.206A.216.216,0,0,0,1413.482,220.531Z" transform="translate(-1411.723 -206.427)" fill="#3caea4"/>
          <path id="Trazado_2601" data-name="Trazado 2601" d="M1477.946,220.723l-1.008.107c-.1.011-.153.116-.109.235a.29.29,0,0,0,.27.195l1.008-.107c.1-.011.153-.116.108-.235a.315.315,0,0,0-.189-.185A.2.2,0,0,0,1477.946,220.723Zm-2.016.213-1.008.107c-.1.011-.153.116-.109.235a.29.29,0,0,0,.27.195l1.008-.107c.1-.011.153-.116.109-.235a.316.316,0,0,0-.189-.185A.2.2,0,0,0,1475.93,220.936Zm-2.016.213-1.008.106c-.1.011-.153.116-.109.235a.29.29,0,0,0,.27.195l1.008-.106c.1-.011.153-.116.109-.235a.315.315,0,0,0-.189-.185A.2.2,0,0,0,1473.914,221.149Zm-2.016.213-1.008.107c-.1.011-.153.116-.109.235a.29.29,0,0,0,.27.195l1.008-.107c.1-.011.153-.116.109-.235a.315.315,0,0,0-.189-.185A.193.193,0,0,0,1471.9,221.362Zm-2.016.213-1.008.106c-.1.011-.153.116-.109.235a.289.289,0,0,0,.27.195l1.008-.106c.1-.011.153-.116.109-.235a.315.315,0,0,0-.189-.185A.2.2,0,0,0,1469.881,221.576Zm-2.016.213-1.008.107c-.1.011-.153.116-.109.235a.29.29,0,0,0,.27.195l1.008-.107c.1-.011.153-.116.109-.235a.315.315,0,0,0-.189-.185A.2.2,0,0,0,1467.865,221.789Zm-2.016.213-1.008.107c-.1.011-.153.116-.109.235a.291.291,0,0,0,.27.195l1.008-.107c.1-.011.153-.116.109-.235a.315.315,0,0,0-.189-.185A.2.2,0,0,0,1465.849,222Zm-2.016.213-1.008.107c-.1.011-.153.116-.109.235a.29.29,0,0,0,.27.195l1.008-.106c.1-.011.153-.116.109-.235a.315.315,0,0,0-.189-.185A.2.2,0,0,0,1463.833,222.215Zm-2.016.213-1.008.107c-.1.011-.153.116-.109.235a.291.291,0,0,0,.27.195l1.008-.107c.1-.011.153-.116.109-.235a.315.315,0,0,0-.189-.185A.2.2,0,0,0,1461.817,222.428Zm-2.016.213-1.008.107c-.1.011-.153.116-.108.235a.29.29,0,0,0,.269.195l1.008-.107c.1-.011.153-.116.109-.235a.315.315,0,0,0-.189-.185A.2.2,0,0,0,1459.8,222.641Zm-2.016.213-1.008.107c-.1.011-.153.116-.109.235a.29.29,0,0,0,.27.195l1.008-.107c.1-.011.153-.116.109-.235a.316.316,0,0,0-.189-.185A.2.2,0,0,0,1457.784,222.855Zm-2.016.213-1.008.107c-.1.011-.153.116-.109.235a.29.29,0,0,0,.27.195l1.008-.107c.1-.011.153-.116.109-.235a.315.315,0,0,0-.189-.185A.2.2,0,0,0,1455.768,223.068Zm-2.016.213-1.008.106c-.1.011-.153.116-.109.235a.29.29,0,0,0,.269.195l1.008-.106c.1-.011.153-.116.109-.235a.315.315,0,0,0-.189-.186A.2.2,0,0,0,1453.752,223.281Zm-2.016.213-1.008.107c-.1.011-.153.116-.108.235a.291.291,0,0,0,.27.195l1.008-.107c.1-.011.153-.116.109-.235a.316.316,0,0,0-.189-.185A.2.2,0,0,0,1451.736,223.494Zm-2.016.213-1.008.107c-.1.011-.153.116-.109.235a.291.291,0,0,0,.27.195l1.008-.107c.1-.011.153-.116.109-.235a.314.314,0,0,0-.189-.185A.2.2,0,0,0,1449.719,223.707Zm-2.016.213-1.008.107c-.1.011-.153.116-.109.235a.29.29,0,0,0,.27.195l1.008-.107c.1-.011.153-.116.109-.235a.315.315,0,0,0-.189-.185A.2.2,0,0,0,1447.7,223.921Zm-2.016.213-1.008.107c-.1.011-.153.116-.109.235a.29.29,0,0,0,.27.195l1.008-.107c.1-.011.153-.116.109-.235a.315.315,0,0,0-.189-.185A.2.2,0,0,0,1445.687,224.134Zm-2.016.213-1.008.106c-.1.011-.153.116-.109.235a.29.29,0,0,0,.27.195l1.008-.106c.1-.011.153-.116.109-.235a.316.316,0,0,0-.189-.185A.2.2,0,0,0,1443.671,224.347Zm-2.016.213-1.008.107c-.1.011-.153.116-.109.235a.291.291,0,0,0,.27.195l1.008-.107c.1-.011.153-.116.109-.235a.316.316,0,0,0-.189-.185A.2.2,0,0,0,1441.655,224.56Zm-2.016.213-1.008.107c-.1.011-.153.116-.109.235a.29.29,0,0,0,.27.195l1.008-.107c.1-.011.153-.116.109-.235a.316.316,0,0,0-.189-.185A.2.2,0,0,0,1439.639,224.773Zm-2.016.213-1.008.107c-.1.011-.153.116-.109.235a.29.29,0,0,0,.27.195l1.008-.107c.1-.011.153-.116.109-.235a.315.315,0,0,0-.189-.185A.2.2,0,0,0,1437.623,224.987Zm-2.016.213-1.008.107c-.1.011-.153.116-.109.235a.29.29,0,0,0,.27.195l1.008-.107c.1-.011.153-.116.109-.235a.315.315,0,0,0-.189-.185A.2.2,0,0,0,1435.606,225.2Zm-2.016.213-1.008.107c-.1.011-.153.116-.109.235a.29.29,0,0,0,.27.195l1.008-.107c.1-.011.153-.116.109-.235a.317.317,0,0,0-.189-.185A.2.2,0,0,0,1433.59,225.413Zm-2.016.213-1.008.107c-.1.011-.153.116-.109.235a.29.29,0,0,0,.27.195l1.008-.107c.1-.011.153-.116.108-.235a.314.314,0,0,0-.189-.185A.2.2,0,0,0,1431.574,225.626Zm-2.016.213-1.008.107c-.1.011-.153.116-.109.235a.29.29,0,0,0,.27.195l1.008-.107c.1-.011.153-.116.109-.235a.316.316,0,0,0-.189-.185A.2.2,0,0,0,1429.558,225.839Zm-2.016.213-1.008.107c-.1.011-.153.116-.109.235a.291.291,0,0,0,.27.195l1.008-.107c.1-.011.153-.116.109-.235a.316.316,0,0,0-.189-.185A.2.2,0,0,0,1427.542,226.053Zm-2.016.213-1.008.107c-.1.011-.153.116-.109.235a.291.291,0,0,0,.27.195l1.008-.107c.1-.011.153-.116.109-.235a.315.315,0,0,0-.189-.185A.2.2,0,0,0,1425.526,226.266Zm-2.016.213-1.008.107c-.1.011-.153.116-.109.235a.289.289,0,0,0,.27.195l1.008-.107c.1-.011.153-.116.109-.235a.315.315,0,0,0-.189-.185A.2.2,0,0,0,1423.509,226.479Zm-2.016.213-1.008.107c-.1.011-.153.116-.109.235a.289.289,0,0,0,.269.195l1.008-.107c.1-.011.153-.116.108-.235a.315.315,0,0,0-.189-.185A.194.194,0,0,0,1421.493,226.692Zm-2.016.213-1.008.107c-.1.011-.153.116-.109.235a.29.29,0,0,0,.27.195l1.008-.107c.1-.011.153-.116.109-.235a.316.316,0,0,0-.189-.185A.2.2,0,0,0,1419.477,226.905Zm-2.016.213-1.008.107c-.1.011-.153.116-.109.235a.29.29,0,0,0,.27.195l1.008-.107c.1-.011.153-.116.109-.235a.315.315,0,0,0-.189-.185A.2.2,0,0,0,1417.461,227.119Zm-2.016.213-1.008.107c-.1.011-.153.116-.109.235a.291.291,0,0,0,.27.195l1.008-.107c.1-.011.153-.116.109-.235a.315.315,0,0,0-.189-.185A.2.2,0,0,0,1415.445,227.332Zm-2.016.213-1.008.107c-.1.011-.153.116-.109.235a.29.29,0,0,0,.27.195l1.008-.107c.1-.011.153-.116.109-.235a.315.315,0,0,0-.189-.185A.194.194,0,0,0,1413.428,227.545Z" transform="translate(-1411.499 -206.581)" fill="#3caea4"/>
          <path id="Trazado_2602" data-name="Trazado 2602" d="M1478.727,220.725l-.968.205c-.1.021-.138.134-.085.251a.276.276,0,0,0,.278.174l.968-.205c.1-.021.138-.134.085-.251a.313.313,0,0,0-.181-.167A.188.188,0,0,0,1478.727,220.725Zm-1.935.41-.967.205c-.1.021-.138.134-.085.251a.277.277,0,0,0,.278.174l.967-.205c.1-.021.138-.133.085-.251a.314.314,0,0,0-.182-.167A.189.189,0,0,0,1476.793,221.135Zm-1.934.411-.967.2c-.1.021-.138.133-.085.25a.276.276,0,0,0,.278.174l.967-.2c.1-.021.138-.133.085-.25a.314.314,0,0,0-.182-.167A.189.189,0,0,0,1474.858,221.546Zm-1.934.41-.968.205c-.1.021-.138.133-.085.25a.277.277,0,0,0,.278.174l.967-.2c.1-.021.138-.133.085-.25a.314.314,0,0,0-.182-.167A.188.188,0,0,0,1472.924,221.956Zm-1.935.41-.967.205c-.1.021-.138.134-.085.251a.277.277,0,0,0,.278.174l.967-.205c.1-.021.138-.133.085-.251a.313.313,0,0,0-.182-.167A.189.189,0,0,0,1470.989,222.366Zm-1.934.41-.967.205c-.1.021-.138.133-.085.251a.276.276,0,0,0,.278.174l.967-.205c.1-.021.138-.133.085-.251a.314.314,0,0,0-.182-.167A.192.192,0,0,0,1469.055,222.776Zm-1.934.41-.967.205c-.1.021-.138.133-.085.25a.277.277,0,0,0,.278.174l.967-.205c.1-.021.138-.133.085-.25a.314.314,0,0,0-.182-.167A.188.188,0,0,0,1467.12,223.187Zm-1.935.41-.967.205c-.1.021-.138.133-.085.25a.277.277,0,0,0,.278.174l.967-.205c.1-.021.138-.133.085-.25a.314.314,0,0,0-.182-.167A.189.189,0,0,0,1465.186,223.6Zm-1.935.41-.967.205c-.1.021-.138.133-.085.251a.277.277,0,0,0,.278.174l.967-.205c.1-.021.138-.133.085-.251a.315.315,0,0,0-.182-.167A.192.192,0,0,0,1463.251,224.007Zm-1.935.41-.967.205c-.1.021-.138.133-.085.251a.277.277,0,0,0,.278.174l.967-.205c.1-.021.138-.133.085-.251a.314.314,0,0,0-.182-.167A.189.189,0,0,0,1461.316,224.418Zm-1.935.41-.967.205c-.1.021-.138.133-.085.25a.276.276,0,0,0,.278.174l.967-.205c.1-.021.138-.133.085-.25a.313.313,0,0,0-.182-.167A.189.189,0,0,0,1459.382,224.828Zm-1.934.41-.968.205c-.1.021-.138.133-.085.25a.276.276,0,0,0,.277.174l.968-.205c.1-.021.138-.133.085-.25a.314.314,0,0,0-.182-.167A.186.186,0,0,0,1457.448,225.238Zm-1.935.41-.967.205c-.1.021-.138.134-.085.251a.277.277,0,0,0,.278.174l.968-.205c.1-.021.138-.133.085-.251a.314.314,0,0,0-.182-.167A.189.189,0,0,0,1455.513,225.648Zm-1.935.41-.967.205c-.1.021-.138.133-.085.251a.277.277,0,0,0,.278.174l.967-.205c.1-.021.138-.133.085-.251a.314.314,0,0,0-.182-.167A.189.189,0,0,0,1453.578,226.059Zm-1.934.41-.967.205c-.1.021-.138.133-.085.25a.277.277,0,0,0,.278.174l.968-.2c.1-.021.138-.133.085-.25a.313.313,0,0,0-.182-.167A.188.188,0,0,0,1451.644,226.469Zm-1.935.41-.967.2c-.1.021-.138.133-.085.25a.277.277,0,0,0,.278.174l.968-.205c.1-.021.138-.133.085-.25a.313.313,0,0,0-.182-.167A.186.186,0,0,0,1449.709,226.879Zm-1.935.41-.967.205c-.1.021-.138.133-.085.251a.276.276,0,0,0,.278.174l.967-.205c.1-.021.138-.133.085-.251a.315.315,0,0,0-.182-.167A.191.191,0,0,0,1447.774,227.289Zm-1.935.41-.967.205c-.1.021-.138.133-.085.251a.277.277,0,0,0,.278.174l.967-.205c.1-.021.138-.134.085-.251a.314.314,0,0,0-.182-.167A.187.187,0,0,0,1445.84,227.7Zm-1.934.41-.968.205c-.1.021-.138.133-.085.25a.276.276,0,0,0,.278.174l.967-.205c.1-.021.138-.133.085-.25a.314.314,0,0,0-.182-.167A.188.188,0,0,0,1443.906,228.11Zm-1.935.41-.967.205c-.1.021-.138.133-.085.25a.276.276,0,0,0,.278.174l.967-.205c.1-.021.138-.133.085-.25a.314.314,0,0,0-.182-.167A.188.188,0,0,0,1441.971,228.52Zm-1.935.41-.967.205c-.1.021-.138.133-.085.251a.276.276,0,0,0,.278.174l.968-.205c.1-.021.138-.133.085-.251a.313.313,0,0,0-.182-.167A.189.189,0,0,0,1440.036,228.93Zm-1.935.41-.967.205c-.1.021-.138.133-.085.251a.277.277,0,0,0,.278.174l.967-.205c.1-.021.138-.133.085-.251a.313.313,0,0,0-.182-.167A.189.189,0,0,0,1438.1,229.34Zm-1.934.411-.967.205c-.1.021-.138.133-.085.25a.277.277,0,0,0,.278.174l.968-.205c.1-.021.138-.133.085-.25a.314.314,0,0,0-.182-.167A.186.186,0,0,0,1436.167,229.751Zm-1.935.41-.967.205c-.1.021-.138.133-.085.25a.277.277,0,0,0,.278.174l.967-.205c.1-.021.138-.133.085-.25a.314.314,0,0,0-.182-.167A.188.188,0,0,0,1434.233,230.161Zm-1.935.41-.967.205c-.1.021-.138.133-.085.251a.276.276,0,0,0,.278.174l.967-.205c.1-.021.138-.133.085-.251a.314.314,0,0,0-.182-.167A.189.189,0,0,0,1432.3,230.571Zm-1.934.41-.968.205c-.1.021-.138.133-.085.251a.277.277,0,0,0,.278.174l.967-.205c.1-.021.138-.134.085-.251a.314.314,0,0,0-.182-.167A.189.189,0,0,0,1430.364,230.982Zm-1.935.41-.967.2c-.1.021-.138.133-.085.25a.276.276,0,0,0,.278.174l.967-.205c.1-.021.138-.133.085-.25a.314.314,0,0,0-.182-.167A.187.187,0,0,0,1428.429,231.392Zm-1.934.41-.968.2c-.1.021-.138.133-.085.25a.277.277,0,0,0,.278.174l.968-.2c.1-.021.138-.133.085-.25a.314.314,0,0,0-.182-.167A.188.188,0,0,0,1426.495,231.8Zm-1.935.41-.967.205c-.1.021-.138.133-.085.251a.277.277,0,0,0,.278.174l.967-.205c.1-.021.138-.134.085-.251a.312.312,0,0,0-.181-.167A.187.187,0,0,0,1424.56,232.212Zm-1.934.41-.967.205c-.1.021-.138.134-.085.251a.276.276,0,0,0,.278.174l.967-.205c.1-.021.138-.134.085-.251a.314.314,0,0,0-.182-.167A.19.19,0,0,0,1422.625,232.623Zm-1.934.411-.967.205c-.1.021-.138.133-.085.25a.277.277,0,0,0,.278.174l.967-.205c.1-.021.138-.133.085-.25a.315.315,0,0,0-.182-.167A.188.188,0,0,0,1420.691,233.033Zm-1.935.41-.967.205c-.1.021-.138.133-.085.25a.276.276,0,0,0,.278.174l.967-.2c.1-.021.138-.133.085-.25a.313.313,0,0,0-.181-.167A.189.189,0,0,0,1418.756,233.443Zm-1.935.41-.967.205c-.1.021-.138.133-.085.251a.277.277,0,0,0,.278.174l.967-.205c.1-.021.138-.134.085-.251a.313.313,0,0,0-.182-.167A.19.19,0,0,0,1416.821,233.853Zm-1.935.41-.967.205c-.1.021-.138.133-.085.251a.277.277,0,0,0,.278.174l.967-.205c.1-.021.138-.133.085-.251a.314.314,0,0,0-.182-.167A.191.191,0,0,0,1414.887,234.264Zm-1.934.41-.547.116c-.1.021-.138.133-.085.25a.277.277,0,0,0,.278.174l.548-.116c.1-.021.138-.133.085-.25a.313.313,0,0,0-.182-.167A.189.189,0,0,0,1412.952,234.674Z" transform="translate(-1412.296 -206.581)" fill="#3caea4"/>
        </g>
        <g id="Grupo_3665" data-name="Grupo 3665" transform="translate(0 35.256)">
          <path id="Trazado_2603" data-name="Trazado 2603" d="M1412.5,112.6l.6.19a.145.145,0,0,0,.205-.14.307.307,0,0,0-.205-.271l-.6-.19a.145.145,0,0,0-.205.14A.307.307,0,0,0,1412.5,112.6Zm1.691.54,1.1.35a.145.145,0,0,0,.205-.14.307.307,0,0,0-.205-.271l-1.1-.35a.145.145,0,0,0-.205.14A.307.307,0,0,0,1414.192,113.142Zm2.191.7,1.1.35a.145.145,0,0,0,.205-.14.307.307,0,0,0-.205-.271l-1.1-.35a.145.145,0,0,0-.206.14A.307.307,0,0,0,1416.383,113.842Zm2.191.7,1.1.35a.145.145,0,0,0,.205-.14.307.307,0,0,0-.205-.271l-1.1-.35a.145.145,0,0,0-.205.14A.307.307,0,0,0,1418.574,114.542Zm2.191.7,1.1.35a.145.145,0,0,0,.205-.14.307.307,0,0,0-.205-.271l-1.1-.35a.145.145,0,0,0-.206.14A.307.307,0,0,0,1420.765,115.242Zm2.191.7,1.1.35a.145.145,0,0,0,.205-.14.307.307,0,0,0-.205-.271l-1.1-.35a.145.145,0,0,0-.205.14A.307.307,0,0,0,1422.956,115.942Zm2.191.7,1.1.35a.145.145,0,0,0,.206-.14.307.307,0,0,0-.206-.271l-1.1-.35a.145.145,0,0,0-.205.14A.307.307,0,0,0,1425.146,116.642Zm2.191.7,1.1.35a.145.145,0,0,0,.205-.14.307.307,0,0,0-.205-.271l-1.1-.35a.145.145,0,0,0-.205.14A.307.307,0,0,0,1427.337,117.342Zm2.191.7,1.1.35a.145.145,0,0,0,.206-.14.307.307,0,0,0-.206-.271l-1.1-.35a.145.145,0,0,0-.206.14A.307.307,0,0,0,1429.529,118.042Zm2.191.7,1.1.35a.145.145,0,0,0,.205-.14.307.307,0,0,0-.205-.271l-1.1-.35a.145.145,0,0,0-.205.14A.307.307,0,0,0,1431.719,118.742Zm2.191.7,1.1.35a.145.145,0,0,0,.205-.14.307.307,0,0,0-.205-.271l-1.1-.35a.145.145,0,0,0-.205.14A.307.307,0,0,0,1433.91,119.442Zm2.191.7,1.1.35a.145.145,0,0,0,.205-.14.307.307,0,0,0-.205-.271l-1.1-.35a.145.145,0,0,0-.205.14A.307.307,0,0,0,1436.1,120.142Zm2.191.7,1.1.35a.145.145,0,0,0,.205-.14.307.307,0,0,0-.205-.271l-1.1-.35a.145.145,0,0,0-.205.14A.308.308,0,0,0,1438.292,120.842Zm2.191.7,1.1.35a.145.145,0,0,0,.205-.14.307.307,0,0,0-.205-.271l-1.1-.35a.145.145,0,0,0-.205.14A.307.307,0,0,0,1440.483,121.542Zm2.191.7,1.1.35a.145.145,0,0,0,.205-.14.307.307,0,0,0-.205-.271l-1.1-.35a.145.145,0,0,0-.205.14A.307.307,0,0,0,1442.674,122.242Zm2.191.7,1.1.35a.145.145,0,0,0,.205-.14.307.307,0,0,0-.205-.271l-1.1-.35a.145.145,0,0,0-.205.14A.307.307,0,0,0,1444.865,122.942Zm2.191.7,1.1.35a.145.145,0,0,0,.205-.14.307.307,0,0,0-.205-.271l-1.1-.35a.145.145,0,0,0-.205.14A.307.307,0,0,0,1447.056,123.643Zm2.191.7,1.1.35a.145.145,0,0,0,.205-.14.307.307,0,0,0-.205-.271l-1.1-.35a.145.145,0,0,0-.205.14A.307.307,0,0,0,1449.247,124.343Zm2.191.7,1.1.35a.145.145,0,0,0,.205-.14.307.307,0,0,0-.205-.271l-1.1-.35a.145.145,0,0,0-.206.14A.307.307,0,0,0,1451.438,125.043Zm2.191.7,1.1.35a.145.145,0,0,0,.205-.14.307.307,0,0,0-.205-.271l-1.1-.35a.145.145,0,0,0-.205.14A.307.307,0,0,0,1453.629,125.743Zm2.191.7,1.1.35a.145.145,0,0,0,.205-.14.307.307,0,0,0-.205-.271l-1.1-.35a.145.145,0,0,0-.205.14A.307.307,0,0,0,1455.819,126.443Zm2.191.7,1.1.35a.145.145,0,0,0,.205-.14.307.307,0,0,0-.205-.271l-1.1-.35a.145.145,0,0,0-.205.14A.307.307,0,0,0,1458.01,127.143Zm2.191.7,1.1.35a.145.145,0,0,0,.205-.14.306.306,0,0,0-.205-.271l-1.1-.35a.145.145,0,0,0-.205.14A.307.307,0,0,0,1460.2,127.843Zm2.191.7,1.1.35a.145.145,0,0,0,.205-.14.307.307,0,0,0-.205-.271l-1.1-.35a.145.145,0,0,0-.205.14A.308.308,0,0,0,1462.392,128.543Zm2.191.7,1.1.35a.145.145,0,0,0,.205-.14.307.307,0,0,0-.205-.271l-1.1-.35a.145.145,0,0,0-.205.14A.307.307,0,0,0,1464.583,129.243Zm2.191.7,1.1.35a.145.145,0,0,0,.205-.14.308.308,0,0,0-.205-.271l-1.1-.35a.145.145,0,0,0-.205.14A.307.307,0,0,0,1466.774,129.943Zm2.191.7,1.1.35a.145.145,0,0,0,.205-.14.307.307,0,0,0-.205-.271l-1.1-.35a.145.145,0,0,0-.205.14A.307.307,0,0,0,1468.965,130.643Zm2.191.7,1.1.35a.145.145,0,0,0,.205-.14.307.307,0,0,0-.205-.271l-1.1-.35a.145.145,0,0,0-.205.14A.307.307,0,0,0,1471.156,131.343Zm2.191.7,1.1.35a.145.145,0,0,0,.205-.14.307.307,0,0,0-.205-.271l-1.1-.35a.145.145,0,0,0-.205.14A.307.307,0,0,0,1473.347,132.043Zm2.191.7,1.1.35a.145.145,0,0,0,.205-.14.307.307,0,0,0-.205-.271l-1.1-.35a.145.145,0,0,0-.205.14A.307.307,0,0,0,1475.538,132.743Zm2.191.7,1.1.35a.145.145,0,0,0,.205-.14.307.307,0,0,0-.205-.271l-1.1-.35a.145.145,0,0,0-.205.14A.307.307,0,0,0,1477.729,133.443Z" transform="translate(-1412.296 -112.181)" fill="#3caea4"/>
        </g>
      </g>
    </g>
  </g>
</svg>
