<svg xmlns="http://www.w3.org/2000/svg" width="920" height="314" viewBox="0 0 920 314">
  <g id="Grupo_3721" data-name="Grupo 3721" transform="translate(-112 -1938)">
    <rect id="Rectángulo_1077" data-name="Rectángulo 1077" width="920" height="314" transform="translate(112 1938)" fill="#3caea4"/>
    <path id="Trazado_2606" data-name="Trazado 2606" d="M0,115.207,920,.934V141H0Z" transform="translate(112 2109)" fill="#dedede" opacity="0.251"/>
    <path id="Trazado_2607" data-name="Trazado 2607" d="M2354.81,1367.76l264.619,63.228,27.627,6.6Z" transform="translate(-1632.582 790.594)" fill="#272727"/>
    <rect id="Rectángulo_1078" data-name="Rectángulo 1078" width="290" height="250" transform="translate(695 1998)" fill="none"/>
    <g id="Grupo_3686" data-name="Grupo 3686" transform="translate(836.26 2164) rotate(180)">
      <path id="Trazado_2296" data-name="Trazado 2296" d="M229,170.55V159h48.51v11.55" transform="translate(20.96 55.02)" fill="none" stroke="#fff" stroke-miterlimit="10" stroke-width="3"/>
      <path id="Trazado_2297" data-name="Trazado 2297" d="M250.24,153.03V127.62a4.62,4.62,0,0,0-9.24,0v25.41" transform="translate(36.68 7.86)" fill="none" stroke="#fff" stroke-miterlimit="10" stroke-width="3"/>
      <path id="Trazado_2298" data-name="Trazado 2298" d="M246.24,155.65V125.62a4.62,4.62,0,0,0-9.24,0v30.03" transform="translate(31.44 5.24)" fill="none" stroke="#fff" stroke-miterlimit="10" stroke-width="3"/>
      <path id="Trazado_2299" data-name="Trazado 2299" d="M247.31,202.23V186.688a22.576,22.576,0,0,0,6.93-16.272v-39.8a4.62,4.62,0,0,0-9.24,0V149.1" transform="translate(41.92 11.79)" fill="none" stroke="#fff" stroke-miterlimit="10" stroke-width="3"/>
      <path id="Trazado_2300" data-name="Trazado 2300" d="M254.03,151.72v-23.1a4.62,4.62,0,1,0-9.24,0v33.532a3.442,3.442,0,0,1-6.415,1.737l-5.77-9.875a4.614,4.614,0,1,0-7.97,4.652l15.008,25.754a22.559,22.559,0,0,0,5.147,6.034v14.4" transform="translate(14.41 9.17)" fill="none" stroke="#fff" stroke-miterlimit="10" stroke-width="3"/>
      <g id="Grupo_3502" data-name="Grupo 3502" transform="translate(213 117)">
        <path id="Trazado_2301" data-name="Trazado 2301" d="M268.542,129.9c-1.347-1.2-2.668-2.435-3.929-3.74a30.022,30.022,0,1,0-29.836,49.73,74.115,74.115,0,0,1,11.543,4.426" transform="translate(-213 -117)" fill="none" stroke="#fff" stroke-miterlimit="10" stroke-width="3"/>
        <path id="Trazado_2302" data-name="Trazado 2302" d="M246,188.646a30.024,30.024,0,0,0,8.254-58.894c-.448-.129-.878-.3-1.324-.437" transform="translate(-169.77 -100.866)" fill="none" stroke="#fff" stroke-miterlimit="10" stroke-width="3"/>
      </g>
      <line id="Línea_65" data-name="Línea 65" y2="28" transform="translate(212.953 197.57)" fill="none" stroke="#fff" stroke-miterlimit="10" stroke-width="3"/>
      <line id="Línea_66" data-name="Línea 66" y2="23" transform="translate(212.953 170.57)" fill="none" stroke="#fff" stroke-miterlimit="10" stroke-width="3"/>
      <line id="Línea_67" data-name="Línea 67" y2="14" transform="translate(221.953 211.57)" fill="none" stroke="#fff" stroke-miterlimit="10" stroke-width="3"/>
      <line id="Línea_68" data-name="Línea 68" y2="15" transform="translate(221.953 191.57)" fill="none" stroke="#fff" stroke-miterlimit="10" stroke-width="3"/>
      <line id="Línea_69" data-name="Línea 69" y2="6" transform="translate(221.953 179.57)" fill="none" stroke="#fff" stroke-miterlimit="10" stroke-width="3"/>
      <line id="Línea_70" data-name="Línea 70" y2="19" transform="translate(231.953 206.57)" fill="none" stroke="#fff" stroke-miterlimit="10" stroke-width="3"/>
      <line id="Línea_71" data-name="Línea 71" y2="19" transform="translate(231.953 183.57)" fill="none" stroke="#fff" stroke-miterlimit="10" stroke-width="3"/>
      <line id="Línea_72" data-name="Línea 72" y2="4" transform="translate(240.953 221.57)" fill="none" stroke="#fff" stroke-miterlimit="10" stroke-width="3"/>
      <line id="Línea_73" data-name="Línea 73" y2="16" transform="translate(240.953 200.57)" fill="none" stroke="#fff" stroke-miterlimit="10" stroke-width="3"/>
      <line id="Línea_74" data-name="Línea 74" y2="10" transform="translate(240.953 185.57)" fill="none" stroke="#fff" stroke-miterlimit="10" stroke-width="3"/>
      <line id="Línea_75" data-name="Línea 75" y2="7" transform="translate(316.953 218.57)" fill="none" stroke="#fff" stroke-miterlimit="10" stroke-width="3"/>
      <line id="Línea_76" data-name="Línea 76" y2="14" transform="translate(316.953 200.57)" fill="none" stroke="#fff" stroke-miterlimit="10" stroke-width="3"/>
      <line id="Línea_77" data-name="Línea 77" y2="14" transform="translate(307.953 211.57)" fill="none" stroke="#fff" stroke-miterlimit="10" stroke-width="3"/>
    </g>
    <g id="Grupo_3718" data-name="Grupo 3718" transform="translate(209.478 1642.827)">
      <path id="Trazado_2705" data-name="Trazado 2705" d="M564.3,640.662l-41.726-91.883c-2.259-4.976-13.481-8.906-25.122-8.906H229.737c-11.641,0-22.862,3.931-25.122,8.906l-41.726,91.883c-3.721,8.194,5.8,15.063,21.395,15.063H542.9C558.5,655.724,568.018,648.855,564.3,640.662Z" transform="translate(-3.527 -60.152)" fill="#8c8b8b" opacity="0.25" style="mix-blend-mode: multiply;isolation: isolate"/>
      <path id="Trazado_2706" data-name="Trazado 2706" d="M563.138,586.172l-40.651-88.23c-2.53-5.492-14.97-9.834-27.8-9.834H227.7c-12.832,0-25.273,4.342-27.8,9.834l-40.677,88.287c-1.844,4-2.423,8.741.026,12.405,3.225,4.827,10.627,8.687,21.98,8.687H541.158c10.821,0,18.122-3.62,21.5-8.069C565.5,595.513,565.1,590.438,563.138,586.172ZM540.5,604.888H181.882c-15.593,0-21.395-6.427-21.395-15.062l41.726-91.884c2.26-4.976,13.481-8.906,25.122-8.906H495.048c11.641,0,22.863,3.931,25.122,8.906L561.9,589.826C561.9,598.429,556.1,604.888,540.5,604.888Z" transform="translate(-1.125 -32.329)" fill="#d2d1d1"/>
      <path id="Trazado_2707" data-name="Trazado 2707" d="M565.233,662.553c-2.459,4.872-10.418,8.278-21.394,8.278H185.22c-10.976,0-18.936-3.405-21.395-8.278v21.035c0,10.152,5.8,15.062,21.395,15.062H543.839c15.593,0,21.394-5.384,21.394-15.062Z" transform="translate(-4.463 -126.092)" fill="#f4f4f4"/>
      <path id="Trazado_2708" data-name="Trazado 2708" d="M563.7,529.678l-42.334-91.884c-2.53-5.492-14.971-9.834-27.8-9.834H226.574c-12.832,0-25.273,4.342-27.8,9.834l-42.334,91.884c-4.181,9.074,6.363,16.737,23.663,16.737H540.033C557.333,546.414,567.877,538.752,563.7,529.678Zm-24.32,15.062H180.757c-15.593,0-25.116-6.869-21.395-15.062l41.726-91.884c2.26-4.976,13.481-8.906,25.122-8.906H493.923c11.641,0,22.863,3.931,25.122,8.906l41.726,91.884C564.492,537.871,554.97,544.74,539.377,544.74Z" fill="#d2d1d1"/>
      <path id="Trazado_2709" data-name="Trazado 2709" d="M564.3,530.755l-41.726-91.884c-2.259-4.976-13.481-8.906-25.122-8.906H229.737c-11.641,0-22.862,3.931-25.122,8.906l-41.726,91.884c-3.721,8.193,5.8,15.062,21.395,15.062H542.9C558.5,545.817,568.018,538.949,564.3,530.755Z" transform="translate(-3.527 -1.078)" fill="#fff"/>
      <g id="Grupo_3717" data-name="Grupo 3717" transform="translate(186.453 437.764)">
        <g id="Grupo_3707" data-name="Grupo 3707" transform="translate(0 0)">
          <path id="Trazado_2710" data-name="Trazado 2710" d="M303.732,452.855l6.682,2.841-5.44-3.3,7.725-3.239-8.627,2.782-6.562-2.782,5.321,3.239-7.889,3.3Z" transform="translate(-261.389 -449.158)" fill="#d2d1d1"/>
          <path id="Trazado_2711" data-name="Trazado 2711" d="M293.982,477.814l6.869,3.033-5.58-3.521,8.017-3.455-8.944,2.968-6.742-2.968,5.453,3.455-8.193,3.521Z" transform="translate(-255.972 -462.441)" fill="#d2d1d1"/>
          <path id="Trazado_2712" data-name="Trazado 2712" d="M283.563,504.467l7.065,3.244-5.726-3.767,8.333-3.693-9.285,3.172-6.93-3.172,5.592,3.693-8.522,3.767Z" transform="translate(-250.182 -476.62)" fill="#d2d1d1"/>
          <path id="Trazado_2713" data-name="Trazado 2713" d="M272.4,532.992l7.273,3.479-5.88-4.039,8.674-3.957-9.652,3.4-7.129-3.4,5.737,3.957-8.877,4.039Z" transform="translate(-243.979 -491.79)" fill="#d2d1d1"/>
          <path id="Trazado_2714" data-name="Trazado 2714" d="M260.423,563.594l7.493,3.74-6.041-4.341,9.043-4.25-10.049,3.65-7.34-3.65,5.888,4.25-9.263,4.341Z" transform="translate(-237.317 -508.059)" fill="#d2d1d1"/>
          <path id="Trazado_2715" data-name="Trazado 2715" d="M247.527,596.508l7.726,4.031-6.21-4.679,9.444-4.577-10.48,3.931-7.562-3.931,6.047,4.577-9.682,4.679Z" transform="translate(-230.144 -525.549)" fill="#d2d1d1"/>
          <path id="Trazado_2716" data-name="Trazado 2716" d="M233.6,632.007l7.973,4.357-6.387-5.058,9.882-4.944-10.948,4.245-7.8-4.245,6.213,4.944L222.4,636.364Z" transform="translate(-222.398 -544.404)" fill="#d2d1d1"/>
        </g>
        <g id="Grupo_3708" data-name="Grupo 3708" transform="translate(36.45 0)">
          <path id="Trazado_2717" data-name="Trazado 2717" d="M367.076,452.855l6.916,2.841-5.712-3.3,7.458-3.239-8.4,2.782-6.792-2.782,5.588,3.239-7.617,3.3Z" transform="translate(-332.012 -449.158)" fill="#d2d1d1"/>
          <path id="Trazado_2718" data-name="Trazado 2718" d="M359.427,477.814l7.119,3.033-5.87-3.521,7.733-3.455-8.7,2.968-6.986-2.968,5.738,3.455-7.9,3.521Z" transform="translate(-327.732 -462.441)" fill="#d2d1d1"/>
          <path id="Trazado_2719" data-name="Trazado 2719" d="M351.252,504.467l7.333,3.244-6.037-3.767,8.028-3.693-9.023,3.172-7.192-3.172,5.9,3.693-8.211,3.767Z" transform="translate(-323.158 -476.62)" fill="#d2d1d1"/>
          <path id="Trazado_2720" data-name="Trazado 2720" d="M342.5,532.992l7.56,3.479-6.213-4.039,8.347-3.957-9.372,3.4-7.41-3.4,6.063,3.957-8.544,4.039Z" transform="translate(-318.257 -491.79)" fill="#d2d1d1"/>
          <path id="Trazado_2721" data-name="Trazado 2721" d="M333.1,563.594l7.8,3.74-6.4-4.341,8.692-4.25-9.748,3.65-7.641-3.65,6.239,4.25-8.9,4.341Z" transform="translate(-312.994 -508.059)" fill="#d2d1d1"/>
          <path id="Trazado_2722" data-name="Trazado 2722" d="M322.978,596.508l8.058,4.031-6.6-4.679,9.067-4.577-10.156,3.931-7.886-3.931,6.424,4.577-9.3,4.679Z" transform="translate(-307.326 -525.549)" fill="#d2d1d1"/>
          <path id="Trazado_2723" data-name="Trazado 2723" d="M312.054,632.007l8.332,4.357-6.8-5.058,9.474-4.944-10.6,4.245-8.148-4.245,6.62,4.944-9.724,5.058Z" transform="translate(-301.207 -544.404)" fill="#d2d1d1"/>
        </g>
        <g id="Grupo_3709" data-name="Grupo 3709" transform="translate(72.9 0)">
          <path id="Trazado_2724" data-name="Trazado 2724" d="M430.421,452.855l7.151,2.841-5.984-3.3,7.19-3.239-8.168,2.782-7.021-2.782,5.855,3.239-7.345,3.3Z" transform="translate(-402.635 -449.158)" fill="#d2d1d1"/>
          <path id="Trazado_2725" data-name="Trazado 2725" d="M424.871,477.814l7.369,3.033-6.161-3.521,7.448-3.455-8.455,2.968-7.231-2.968,6.023,3.455-7.613,3.521Z" transform="translate(-399.492 -462.441)" fill="#d2d1d1"/>
          <path id="Trazado_2726" data-name="Trazado 2726" d="M418.941,504.467l7.6,3.244-6.348-3.767,7.724-3.693-8.762,3.172-7.454-3.172,6.2,3.693-7.9,3.767Z" transform="translate(-396.133 -476.62)" fill="#d2d1d1"/>
          <path id="Trazado_2727" data-name="Trazado 2727" d="M412.589,532.992l7.847,3.479-6.546-4.039,8.021-3.957-9.091,3.4-7.69-3.4,6.389,3.957-8.211,4.039Z" transform="translate(-392.535 -491.79)" fill="#d2d1d1"/>
          <path id="Trazado_2728" data-name="Trazado 2728" d="M405.77,563.594l8.11,3.74-6.757-4.341,8.342-4.25-9.447,3.65-7.942-3.65,6.589,4.25-8.547,4.341Z" transform="translate(-388.67 -508.059)" fill="#d2d1d1"/>
          <path id="Trazado_2729" data-name="Trazado 2729" d="M398.428,596.508l8.391,4.031-6.982-4.679,8.689-4.577-9.831,3.931-8.211-3.931,6.8,4.577-8.911,4.679Z" transform="translate(-384.509 -525.549)" fill="#d2d1d1"/>
          <path id="Trazado_2730" data-name="Trazado 2730" d="M390.5,632.007l8.692,4.357-7.221-5.058,9.066-4.944-10.248,4.245-8.5-4.245,7.028,4.944-9.307,5.058Z" transform="translate(-380.016 -544.404)" fill="#d2d1d1"/>
        </g>
        <g id="Grupo_3710" data-name="Grupo 3710" transform="translate(109.349 0)">
          <path id="Trazado_2731" data-name="Trazado 2731" d="M493.765,452.855l7.385,2.841-6.257-3.3,6.923-3.239-7.939,2.782-7.251-2.782,6.122,3.239-7.073,3.3Z" transform="translate(-473.258 -449.158)" fill="#d2d1d1"/>
          <path id="Trazado_2732" data-name="Trazado 2732" d="M490.316,477.814l7.619,3.033-6.451-3.521,7.163-3.455-8.21,2.968-7.476-2.968,6.308,3.455-7.322,3.521Z" transform="translate(-471.252 -462.441)" fill="#d2d1d1"/>
          <path id="Trazado_2733" data-name="Trazado 2733" d="M486.63,504.467l7.868,3.244-6.658-3.767,7.419-3.693-8.5,3.172-7.715-3.172,6.506,3.693-7.59,3.767Z" transform="translate(-469.109 -476.62)" fill="#d2d1d1"/>
          <path id="Trazado_2734" data-name="Trazado 2734" d="M482.681,532.992l8.134,3.479-6.879-4.039,7.695-3.957-8.811,3.4-7.97-3.4,6.716,3.957-7.878,4.039Z" transform="translate(-466.813 -491.79)" fill="#d2d1d1"/>
          <path id="Trazado_2735" data-name="Trazado 2735" d="M478.443,563.594l8.418,3.74-7.115-4.341,7.991-4.25-9.146,3.65-8.243-3.65,6.94,4.25-8.189,4.341Z" transform="translate(-464.347 -508.059)" fill="#d2d1d1"/>
          <path id="Trazado_2736" data-name="Trazado 2736" d="M473.88,596.508l8.723,4.031-7.367-4.679,8.312-4.577-9.507,3.931-8.535-3.931,7.179,4.577-8.525,4.679Z" transform="translate(-461.692 -525.549)" fill="#d2d1d1"/>
          <path id="Trazado_2737" data-name="Trazado 2737" d="M468.954,632.007,478,636.364l-7.638-5.058,8.659-4.944-9.9,4.245-8.848-4.245,7.436,4.944-8.89,5.058Z" transform="translate(-458.825 -544.404)" fill="#d2d1d1"/>
        </g>
        <g id="Grupo_3711" data-name="Grupo 3711" transform="translate(145.799 0)">
          <path id="Trazado_2738" data-name="Trazado 2738" d="M557.11,452.855l7.619,2.841-6.529-3.3,6.656-3.239-7.71,2.782-7.48-2.782,6.389,3.239-6.8,3.3Z" transform="translate(-543.88 -449.158)" fill="#d2d1d1"/>
          <path id="Trazado_2739" data-name="Trazado 2739" d="M555.76,477.814l7.869,3.033-6.742-3.521,6.878-3.455-7.965,2.968-7.72-2.968,6.593,3.455-7.032,3.521Z" transform="translate(-543.013 -462.441)" fill="#d2d1d1"/>
          <path id="Trazado_2740" data-name="Trazado 2740" d="M554.318,504.467l8.135,3.244-6.969-3.767,7.115-3.693-8.238,3.172-7.977-3.172,6.81,3.693-7.279,3.767Z" transform="translate(-542.085 -476.62)" fill="#d2d1d1"/>
          <path id="Trazado_2741" data-name="Trazado 2741" d="M552.774,532.992l8.421,3.479-7.212-4.039,7.368-3.957-8.531,3.4-8.251-3.4,7.042,3.957-7.545,4.039Z" transform="translate(-541.091 -491.79)" fill="#d2d1d1"/>
          <path id="Trazado_2742" data-name="Trazado 2742" d="M551.116,563.594l8.727,3.74-7.473-4.341,7.641-4.25-8.845,3.65-8.544-3.65,7.29,4.25-7.831,4.341Z" transform="translate(-540.024 -508.059)" fill="#d2d1d1"/>
          <path id="Trazado_2743" data-name="Trazado 2743" d="M549.33,596.508l9.056,4.031-7.753-4.679,7.934-4.577-9.183,3.931-8.859-3.931,7.557,4.577-8.139,4.679Z" transform="translate(-538.875 -525.549)" fill="#d2d1d1"/>
          <path id="Trazado_2744" data-name="Trazado 2744" d="M547.4,632.007l9.41,4.357-8.055-5.058,8.251-4.944-9.548,4.245-9.2-4.245,7.843,4.944-8.472,5.058Z" transform="translate(-537.634 -544.404)" fill="#d2d1d1"/>
        </g>
        <g id="Grupo_3712" data-name="Grupo 3712" transform="translate(180.452 0)">
          <path id="Trazado_2745" data-name="Trazado 2745" d="M620.306,452.855l7.854,2.841-6.8-3.3,6.389-3.239-7.48,2.782-7.709-2.782,6.656,3.239-6.529,3.3Z" transform="translate(-612.558 -449.158)" fill="#d2d1d1"/>
          <path id="Trazado_2746" data-name="Trazado 2746" d="M621.046,477.814l8.119,3.033-7.032-3.521,6.593-3.455-7.72,2.968-7.965-2.968,6.878,3.455-6.742,3.521Z" transform="translate(-612.818 -462.441)" fill="#d2d1d1"/>
          <path id="Trazado_2747" data-name="Trazado 2747" d="M621.838,504.467l8.4,3.244-7.279-3.767,6.81-3.693-7.977,3.172-8.238-3.172,7.115,3.693-6.969,3.767Z" transform="translate(-613.095 -476.62)" fill="#d2d1d1"/>
          <path id="Trazado_2748" data-name="Trazado 2748" d="M622.685,532.992l8.708,3.479-7.545-4.039,7.042-3.957-8.251,3.4-8.531-3.4,7.368,3.957-7.212,4.039Z" transform="translate(-613.391 -491.79)" fill="#d2d1d1"/>
          <path id="Trazado_2749" data-name="Trazado 2749" d="M623.594,563.594l9.035,3.74-7.831-4.341,7.29-4.25-8.544,3.65-8.845-3.65,7.641,4.25-7.473,4.341Z" transform="translate(-613.709 -508.059)" fill="#d2d1d1"/>
          <path id="Trazado_2750" data-name="Trazado 2750" d="M624.571,596.508l9.388,4.031-8.139-4.679,7.557-4.577-8.859,3.931-9.183-3.931,7.934,4.577-7.753,4.679Z" transform="translate(-614.051 -525.549)" fill="#d2d1d1"/>
          <path id="Trazado_2751" data-name="Trazado 2751" d="M625.626,632.007l9.77,4.357-8.473-5.058,7.843-4.944-9.2,4.245-9.548-4.245,8.251,4.944-8.055,5.058Z" transform="translate(-614.419 -544.404)" fill="#d2d1d1"/>
        </g>
        <g id="Grupo_3713" data-name="Grupo 3713" transform="translate(209.319 0)">
          <path id="Trazado_2752" data-name="Trazado 2752" d="M683.023,452.855l8.088,2.841-7.073-3.3,6.122-3.239-7.251,2.782-7.939-2.782,6.923,3.239-6.256,3.3Z" transform="translate(-674.971 -449.158)" fill="#d2d1d1"/>
          <path id="Trazado_2753" data-name="Trazado 2753" d="M685.823,477.814l8.369,3.033-7.322-3.521,6.308-3.455-7.476,2.968-8.21-2.968,7.163,3.455-6.451,3.521Z" transform="translate(-676.326 -462.441)" fill="#d2d1d1"/>
          <path id="Trazado_2754" data-name="Trazado 2754" d="M688.812,504.467l8.671,3.244-7.59-3.767,6.506-3.693-7.715,3.172-8.5-3.172,7.419,3.693-6.658,3.767Z" transform="translate(-677.772 -476.62)" fill="#d2d1d1"/>
          <path id="Trazado_2755" data-name="Trazado 2755" d="M692.011,532.992l8.995,3.479-7.878-4.039,6.716-3.957-7.97,3.4-8.811-3.4,7.695,3.957-6.879,4.039Z" transform="translate(-679.32 -491.79)" fill="#d2d1d1"/>
          <path id="Trazado_2756" data-name="Trazado 2756" d="M695.443,563.594l9.343,3.74-8.189-4.341,6.94-4.25-8.243,3.65-9.146-3.65,7.991,4.25-7.115,4.341Z" transform="translate(-680.979 -508.059)" fill="#d2d1d1"/>
          <path id="Trazado_2757" data-name="Trazado 2757" d="M699.135,596.508l9.72,4.031-8.525-4.679,7.179-4.577-8.535,3.931-9.507-3.931,8.312,4.577-7.367,4.679Z" transform="translate(-682.763 -525.549)" fill="#d2d1d1"/>
          <path id="Trazado_2758" data-name="Trazado 2758" d="M703.117,632.007l10.129,4.357-8.89-5.058,7.436-4.944-8.848,4.245-9.9-4.245,8.659,4.944-7.638,5.058Z" transform="translate(-684.686 -544.404)" fill="#d2d1d1"/>
        </g>
        <g id="Grupo_3714" data-name="Grupo 3714" transform="translate(238.186 0)">
          <path id="Trazado_2759" data-name="Trazado 2759" d="M745.741,452.855l8.322,2.841-7.345-3.3,5.855-3.239-7.021,2.782-8.168-2.782,7.19,3.239-5.984,3.3Z" transform="translate(-737.384 -449.158)" fill="#d2d1d1"/>
          <path id="Trazado_2760" data-name="Trazado 2760" d="M750.6,477.814l8.619,3.033-7.613-3.521,6.023-3.455-7.231,2.968-8.455-2.968,7.448,3.455-6.161,3.521Z" transform="translate(-739.834 -462.441)" fill="#d2d1d1"/>
          <path id="Trazado_2761" data-name="Trazado 2761" d="M755.786,504.467l8.938,3.244-7.9-3.767,6.2-3.693-7.454,3.172-8.761-3.172,7.724,3.693-6.348,3.767Z" transform="translate(-742.45 -476.62)" fill="#d2d1d1"/>
          <path id="Trazado_2762" data-name="Trazado 2762" d="M761.337,532.992l9.281,3.479-8.211-4.039,6.39-3.957-7.69,3.4-9.091-3.4,8.021,3.957-6.546,4.039Z" transform="translate(-745.248 -491.79)" fill="#d2d1d1"/>
          <path id="Trazado_2763" data-name="Trazado 2763" d="M767.293,563.594l9.652,3.74-8.547-4.341,6.589-4.25-7.942,3.65-9.447-3.65,8.342,4.25-6.757,4.341Z" transform="translate(-748.249 -508.059)" fill="#d2d1d1"/>
          <path id="Trazado_2764" data-name="Trazado 2764" d="M773.7,596.508l10.053,4.031-8.911-4.679,6.8-4.577-8.211,3.931-9.831-3.931,8.689,4.577-6.982,4.679Z" transform="translate(-751.475 -525.549)" fill="#d2d1d1"/>
          <path id="Trazado_2765" data-name="Trazado 2765" d="M780.608,632.007l10.488,4.357-9.307-5.058,7.028-4.944-8.5,4.245-10.248-4.245,9.066,4.944-7.221,5.058Z" transform="translate(-754.953 -544.404)" fill="#d2d1d1"/>
        </g>
        <g id="Grupo_3715" data-name="Grupo 3715" transform="translate(267.052 0)">
          <path id="Trazado_2766" data-name="Trazado 2766" d="M808.459,452.855l8.557,2.841-7.617-3.3,5.588-3.239L808.2,451.94l-8.4-2.782,7.458,3.239-5.712,3.3Z" transform="translate(-799.797 -449.158)" fill="#d2d1d1"/>
          <path id="Trazado_2767" data-name="Trazado 2767" d="M815.375,477.814l8.869,3.033-7.9-3.521,5.738-3.455-6.986,2.968-8.7-2.968,7.732,3.455-5.87,3.521Z" transform="translate(-803.343 -462.441)" fill="#d2d1d1"/>
          <path id="Trazado_2768" data-name="Trazado 2768" d="M822.76,504.467l9.206,3.244-8.211-3.767,5.9-3.693-7.192,3.172-9.023-3.172,8.028,3.693-6.037,3.767Z" transform="translate(-807.128 -476.62)" fill="#d2d1d1"/>
          <path id="Trazado_2769" data-name="Trazado 2769" d="M830.663,532.992l9.568,3.479-8.544-4.039,6.063-3.957-7.41,3.4-9.372-3.4,8.347,3.957-6.213,4.039Z" transform="translate(-811.177 -491.79)" fill="#d2d1d1"/>
          <path id="Trazado_2770" data-name="Trazado 2770" d="M839.143,563.594l9.96,3.74-8.9-4.341,6.239-4.25-7.641,3.65-9.748-3.65,8.692,4.25-6.4,4.341Z" transform="translate(-815.519 -508.059)" fill="#d2d1d1"/>
          <path id="Trazado_2771" data-name="Trazado 2771" d="M848.263,596.508l10.385,4.031-9.3-4.679,6.424-4.577-7.886,3.931-10.156-3.931,9.067,4.577-6.6,4.679Z" transform="translate(-820.188 -525.549)" fill="#d2d1d1"/>
          <path id="Trazado_2772" data-name="Trazado 2772" d="M858.1,632.007l10.848,4.357-9.724-5.058,6.62-4.944-8.148,4.245-10.6-4.245,9.474,4.944-6.8,5.058Z" transform="translate(-825.221 -544.404)" fill="#d2d1d1"/>
        </g>
        <g id="Grupo_3716" data-name="Grupo 3716" transform="translate(295.919 0)">
          <path id="Trazado_2773" data-name="Trazado 2773" d="M871.177,452.855l8.791,2.841-7.889-3.3,5.321-3.239-6.563,2.782-8.627-2.782,7.725,3.239-5.44,3.3Z" transform="translate(-862.21 -449.158)" fill="#d2d1d1"/>
          <path id="Trazado_2774" data-name="Trazado 2774" d="M880.151,477.814l9.12,3.033-8.193-3.521,5.453-3.455-6.742,2.968-8.944-2.968,8.017,3.455-5.58,3.521Z" transform="translate(-866.851 -462.441)" fill="#d2d1d1"/>
          <path id="Trazado_2775" data-name="Trazado 2775" d="M889.734,504.467l9.473,3.244-8.522-3.767,5.592-3.693-6.93,3.172-9.285-3.172,8.333,3.693-5.726,3.767Z" transform="translate(-871.805 -476.62)" fill="#d2d1d1"/>
          <path id="Trazado_2776" data-name="Trazado 2776" d="M899.99,532.992l9.855,3.479-8.877-4.039,5.737-3.957-7.13,3.4-9.652-3.4,8.673,3.957-5.88,4.039Z" transform="translate(-877.106 -491.79)" fill="#d2d1d1"/>
          <path id="Trazado_2777" data-name="Trazado 2777" d="M910.993,563.594l10.268,3.74L912,562.992l5.888-4.25-7.34,3.65-10.049-3.65,9.043,4.25-6.041,4.341Z" transform="translate(-882.789 -508.059)" fill="#d2d1d1"/>
          <path id="Trazado_2778" data-name="Trazado 2778" d="M922.827,596.508l10.718,4.031-9.682-4.679,6.047-4.577-7.562,3.931-10.48-3.931,9.444,4.577-6.21,4.679Z" transform="translate(-888.9 -525.549)" fill="#d2d1d1"/>
          <path id="Trazado_2779" data-name="Trazado 2779" d="M935.591,632.007l11.207,4.357-10.141-5.058,6.213-4.944-7.8,4.245-10.948-4.245L934,631.306l-6.387,5.058Z" transform="translate(-895.488 -544.404)" fill="#d2d1d1"/>
        </g>
      </g>
    </g>
  </g>
</svg>
