<svg xmlns="http://www.w3.org/2000/svg" width="920" height="314.091" viewBox="0 0 920 314.091">
  <g id="Grupo_3720" data-name="Grupo 3720" transform="translate(-112 -2504)">
    <rect id="Rectángulo_1079" data-name="Rectángulo 1079" width="920" height="314" transform="translate(112 2504)" fill="#3caea4"/>
    <path id="Trazado_2685" data-name="Trazado 2685" d="M2354.81,1367.76l264.619,63.228,27.627,6.6Z" transform="translate(-1632.582 1356.594)" fill="#272727"/>
    <rect id="Rectángulo_1080" data-name="Rectángulo 1080" width="290" height="250" transform="translate(695 2564)" fill="none"/>
    <g id="Grupo_3689" data-name="Grupo 3689" transform="translate(836.26 2730) rotate(180)">
      <path id="Trazado_2296" data-name="Trazado 2296" d="M229,170.55V159h48.51v11.55" transform="translate(20.96 55.02)" fill="none" stroke="#fff" stroke-miterlimit="10" stroke-width="3"/>
      <path id="Trazado_2297" data-name="Trazado 2297" d="M250.24,153.03V127.62a4.62,4.62,0,0,0-9.24,0v25.41" transform="translate(36.68 7.86)" fill="none" stroke="#fff" stroke-miterlimit="10" stroke-width="3"/>
      <path id="Trazado_2298" data-name="Trazado 2298" d="M246.24,155.65V125.62a4.62,4.62,0,0,0-9.24,0v30.03" transform="translate(31.44 5.24)" fill="none" stroke="#fff" stroke-miterlimit="10" stroke-width="3"/>
      <path id="Trazado_2299" data-name="Trazado 2299" d="M247.31,202.23V186.688a22.576,22.576,0,0,0,6.93-16.272v-39.8a4.62,4.62,0,0,0-9.24,0V149.1" transform="translate(41.92 11.79)" fill="none" stroke="#fff" stroke-miterlimit="10" stroke-width="3"/>
      <path id="Trazado_2300" data-name="Trazado 2300" d="M254.03,151.72v-23.1a4.62,4.62,0,1,0-9.24,0v33.532a3.442,3.442,0,0,1-6.415,1.737l-5.77-9.875a4.614,4.614,0,1,0-7.97,4.652l15.008,25.754a22.559,22.559,0,0,0,5.147,6.034v14.4" transform="translate(14.41 9.17)" fill="none" stroke="#fff" stroke-miterlimit="10" stroke-width="3"/>
      <g id="Grupo_3502" data-name="Grupo 3502" transform="translate(213 117)">
        <path id="Trazado_2301" data-name="Trazado 2301" d="M268.542,129.9c-1.347-1.2-2.668-2.435-3.929-3.74a30.022,30.022,0,1,0-29.836,49.73,74.115,74.115,0,0,1,11.543,4.426" transform="translate(-213 -117)" fill="none" stroke="#fff" stroke-miterlimit="10" stroke-width="3"/>
        <path id="Trazado_2302" data-name="Trazado 2302" d="M246,188.646a30.024,30.024,0,0,0,8.254-58.894c-.448-.129-.878-.3-1.324-.437" transform="translate(-169.77 -100.866)" fill="none" stroke="#fff" stroke-miterlimit="10" stroke-width="3"/>
      </g>
      <line id="Línea_65" data-name="Línea 65" y2="28" transform="translate(212.953 197.57)" fill="none" stroke="#fff" stroke-miterlimit="10" stroke-width="3"/>
      <line id="Línea_66" data-name="Línea 66" y2="23" transform="translate(212.953 170.57)" fill="none" stroke="#fff" stroke-miterlimit="10" stroke-width="3"/>
      <line id="Línea_67" data-name="Línea 67" y2="14" transform="translate(221.953 211.57)" fill="none" stroke="#fff" stroke-miterlimit="10" stroke-width="3"/>
      <line id="Línea_68" data-name="Línea 68" y2="15" transform="translate(221.953 191.57)" fill="none" stroke="#fff" stroke-miterlimit="10" stroke-width="3"/>
      <line id="Línea_69" data-name="Línea 69" y2="6" transform="translate(221.953 179.57)" fill="none" stroke="#fff" stroke-miterlimit="10" stroke-width="3"/>
      <line id="Línea_70" data-name="Línea 70" y2="19" transform="translate(231.953 206.57)" fill="none" stroke="#fff" stroke-miterlimit="10" stroke-width="3"/>
      <line id="Línea_71" data-name="Línea 71" y2="19" transform="translate(231.953 183.57)" fill="none" stroke="#fff" stroke-miterlimit="10" stroke-width="3"/>
      <line id="Línea_72" data-name="Línea 72" y2="4" transform="translate(240.953 221.57)" fill="none" stroke="#fff" stroke-miterlimit="10" stroke-width="3"/>
      <line id="Línea_73" data-name="Línea 73" y2="16" transform="translate(240.953 200.57)" fill="none" stroke="#fff" stroke-miterlimit="10" stroke-width="3"/>
      <line id="Línea_74" data-name="Línea 74" y2="10" transform="translate(240.953 185.57)" fill="none" stroke="#fff" stroke-miterlimit="10" stroke-width="3"/>
      <line id="Línea_75" data-name="Línea 75" y2="7" transform="translate(316.953 218.57)" fill="none" stroke="#fff" stroke-miterlimit="10" stroke-width="3"/>
      <line id="Línea_76" data-name="Línea 76" y2="14" transform="translate(316.953 200.57)" fill="none" stroke="#fff" stroke-miterlimit="10" stroke-width="3"/>
      <line id="Línea_77" data-name="Línea 77" y2="14" transform="translate(307.953 211.57)" fill="none" stroke="#fff" stroke-miterlimit="10" stroke-width="3"/>
    </g>
    <path id="Trazado_2780" data-name="Trazado 2780" d="M-54.173,0H82.156V919.146H56.991Z" transform="translate(1031.146 2735.934) rotate(90)" fill="#65bbb3"/>
    <g id="Grupo_3693" data-name="Grupo 3693" transform="translate(155.529 2407.934)" opacity="0.723">
      <g id="Grupo_3692" data-name="Grupo 3692">
        <path id="Trazado_2686" data-name="Trazado 2686" d="M320.478,309.112c.206,15.97,16.351,28.866,36.246,28.866s36.041-12.9,36.246-28.866Z" fill="#fff"/>
        <rect id="Rectángulo_1082" data-name="Rectángulo 1082" width="84.443" height="9.729" rx="4.6" transform="translate(314.503 300.622)" fill="#fff"/>
        <path id="Trazado_2687" data-name="Trazado 2687" d="M388.4,247.594H325.051a2.177,2.177,0,0,1-2.171-2.171h0a2.178,2.178,0,0,1,2.171-2.172H388.4a2.178,2.178,0,0,1,2.172,2.172h0A2.178,2.178,0,0,1,388.4,247.594Z" fill="#fff"/>
        <path id="Trazado_2688" data-name="Trazado 2688" d="M326.233,247.294v44.532a5.5,5.5,0,0,0,5.486,5.486h50.01a5.5,5.5,0,0,0,5.487-5.486V247.294Z" fill="#fff"/>
        <path id="Trazado_2689" data-name="Trazado 2689" d="M365.885,328.995H347.564s3.857,28.446-13.982,41.946h46.285C362.028,357.441,365.885,328.995,365.885,328.995Z" fill="#fff"/>
        <path id="Trazado_2690" data-name="Trazado 2690" d="M381.882,374.614H331.566a3.1,3.1,0,0,1-3.085-3.086h0a3.094,3.094,0,0,1,3.085-3.085h50.316a3.1,3.1,0,0,1,3.086,3.085h0A3.1,3.1,0,0,1,381.882,374.614Z" fill="#fff"/>
        <g id="Grupo_3691" data-name="Grupo 3691">
          <path id="Trazado_2691" data-name="Trazado 2691" d="M335.348,252.3a2.543,2.543,0,1,1-2.543-2.544A2.543,2.543,0,0,1,335.348,252.3Z" fill="#0e737b"/>
          <g id="Grupo_3690" data-name="Grupo 3690">
            <path id="Trazado_2692" data-name="Trazado 2692" d="M333.847,254.964a.41.41,0,0,0,.471.471h9.362v1.8h-9.362a2.13,2.13,0,0,1-2.395-2.268v-2.435h1.924Z" fill="#0e737b"/>
          </g>
        </g>
      </g>
    </g>
    <g id="Grupo_3696" data-name="Grupo 3696" transform="translate(-40.471 2484.934)" opacity="0.561">
      <g id="Grupo_3695" data-name="Grupo 3695">
        <g id="Grupo_3694" data-name="Grupo 3694">
          <ellipse id="Elipse_591" data-name="Elipse 591" cx="3.619" cy="9.851" rx="3.619" ry="9.851" transform="translate(369.445 117.067)" fill="#534c4a"/>
          <path id="Trazado_2694" data-name="Trazado 2694" d="M519.117,126.918c0,5.44-1.62,9.851-3.619,9.851s-3.619-4.411-3.619-9.851,1.62-9.851,3.619-9.851S519.117,121.477,519.117,126.918Z" fill="#534c4a"/>
        </g>
        <rect id="Rectángulo_1083" data-name="Rectángulo 1083" width="142.434" height="4.825" transform="translate(372.26 124.505)" fill="#534c4a"/>
      </g>
      <rect id="Rectángulo_1084" data-name="Rectángulo 1084" width="55.487" height="102.933" rx="9.677" transform="translate(440.875 118.373)" fill="#fff"/>
      <rect id="Rectángulo_1085" data-name="Rectángulo 1085" width="37.884" height="70.277" rx="6.607" transform="translate(386.617 118.373)" fill="#fff"/>
    </g>
    <g id="Grupo_3706" data-name="Grupo 3706" transform="translate(150.528 2392.147)" opacity="0.645">
      <g id="Grupo_3705" data-name="Grupo 3705">
        <path id="Trazado_2703" data-name="Trazado 2703" d="M421.3,311.75s.112,6.3-2.024,9.447h22.154s4.121-14.676-.3-26.344Z" fill="#198185"/>
        <g id="Grupo_3704" data-name="Grupo 3704">
          <g id="Grupo_3703" data-name="Grupo 3703">
            <ellipse id="Elipse_592" data-name="Elipse 592" cx="1.554" cy="4.231" rx="1.554" ry="4.231" transform="translate(412.472 299.642)" fill="#534c4a"/>
            <ellipse id="Elipse_593" data-name="Elipse 593" cx="1.554" cy="4.231" rx="1.554" ry="4.231" transform="translate(444.938 299.642)" fill="#534c4a"/>
          </g>
          <rect id="Rectángulo_1087" data-name="Rectángulo 1087" width="32.465" height="2.072" transform="translate(413.681 302.837)" fill="#534c4a"/>
        </g>
        <path id="Trazado_2704" data-name="Trazado 2704" d="M441.127,294.853H419.283s-2.926,9.238,0,18.274h21.844C444.3,303.969,441.127,294.853,441.127,294.853Z" fill="#fff"/>
      </g>
    </g>
    <g id="Grupo_3719" data-name="Grupo 3719" transform="translate(443 2564)">
      <g id="Grupo_3179" data-name="Grupo 3179" transform="translate(27.117 0)">
        <g id="Grupo_3161" data-name="Grupo 3161" transform="translate(127.028 58.741)">
          <g id="Grupo_3157" data-name="Grupo 3157" transform="translate(0 47.851)">
            <path id="Trazado_1818" data-name="Trazado 1818" d="M1755.817,920.562s-.04,4.926,2.585,3.383,5.986-8.48,5.986-8.48Z" transform="translate(-1704.173 -900.643)" fill="#52afb6"/>
            <g id="Grupo_3156" data-name="Grupo 3156" transform="translate(0 8.462)">
              <rect id="Rectángulo_883" data-name="Rectángulo 883" width="1.654" height="60.322" transform="translate(5.203 46.346) rotate(-125.898)" fill="#efefef"/>
              <path id="Trazado_1819" data-name="Trazado 1819" d="M1982.2,1071.928l.969,1.339-4.116,2.569-.58-.8Z" transform="translate(-1978.475 -1026.554)" fill="#6d6f72"/>
              <rect id="Rectángulo_884" data-name="Rectángulo 884" width="3.776" height="17.583" rx="1.888" transform="translate(52.573 13.369) rotate(-125.898)" fill="#135781"/>
              <rect id="Rectángulo_885" data-name="Rectángulo 885" width="3.056" height="1.313" rx="0.657" transform="translate(4.769 47.526) rotate(-125.898)" fill="#6d6f72"/>
            </g>
            <path id="Trazado_1820" data-name="Trazado 1820" d="M1734.3,856.02l5.058,5.04c-1.766.823-2.582,2.859-3.043,4.752s-.782,3.939-2.081,5.39c-.6.668-1.688,1.155-2.348.548-1.092-1,.906-3.675-.2-4.661l-9.893,7.14S1720.818,863.492,1734.3,856.02Z" transform="translate(-1670.654 -856.02)" fill="#52afb6"/>
          </g>
          <g id="Grupo_3160" data-name="Grupo 3160" transform="translate(61.433)">
            <g id="Grupo_3158" data-name="Grupo 3158">
              <path id="Trazado_1821" data-name="Trazado 1821" d="M1571.251,677.648c-1.819,6.844-6.648,12.453-11.642,17.261a157.366,157.366,0,0,1-20.668,16.474c-5.33,3.632-11.128,7.15-17.57,7.493a9.236,9.236,0,0,1-8.932-5.241c-1.6-3.092-1.034-6.088,1.917-8.138a18.028,18.028,0,0,1,4.666-2.082,83.154,83.154,0,0,0,10.322-4.693c9.7-4.748,16-13.258,16.772-13.59l19.271-21.016Z" transform="translate(-1511.565 -664.116)" fill="#edeeef"/>
            </g>
            <g id="Grupo_3159" data-name="Grupo 3159" transform="translate(2.884 43.139)">
              <path id="Trazado_1822" data-name="Trazado 1822" d="M1696.5,865.458s7.754.437,7.59-1.8S1696.5,865.458,1696.5,865.458Z" transform="translate(-1693.405 -856.535)" fill="#e0e1e3"/>
              <path id="Trazado_1823" data-name="Trazado 1823" d="M1706.787,854.139s7.249-2.594,6.618-3.981S1706.787,854.139,1706.787,854.139Z" transform="translate(-1705.32 -846.736)" fill="#e0e1e3"/>
              <path id="Trazado_1824" data-name="Trazado 1824" d="M1720.482,842.9s6-4.361,4.455-5.623S1720.482,842.9,1720.482,842.9Z" transform="translate(-1720.482 -837.123)" fill="#e0e1e3"/>
            </g>
          </g>
        </g>
        <g id="Grupo_3163" data-name="Grupo 3163" transform="translate(272.265 43.048)">
          <rect id="Rectángulo_886" data-name="Rectángulo 886" width="9.59" height="15.708" rx="4.795" transform="matrix(-0.128, -0.992, 0.992, -0.128, 4.239, 11.518)" fill="#ab2e60"/>
          <path id="Trazado_1825" data-name="Trazado 1825" d="M1290.618,628.037l17.981-2.224s6.083-.808,6.759,6.21l6.235,50.3a5.049,5.049,0,0,1-4.876,4.083l-24.7,2.465Z" transform="translate(-1290.618 -619.649)" fill="#ffd400"/>
          <g id="Grupo_3162" data-name="Grupo 3162" transform="translate(6.348 8.309)">
            <circle id="Elipse_554" data-name="Elipse 554" cx="5.673" cy="5.673" r="5.673" transform="translate(8.022 16.045) rotate(-135)" fill="#52afb6"/>
            <ellipse id="Elipse_555" data-name="Elipse 555" cx="3.206" cy="3.206" rx="3.206" ry="3.206" transform="translate(4.943 11.349) rotate(-92.212)" fill="#fff"/>
          </g>
        </g>
        <path id="Trazado_1826" data-name="Trazado 1826" d="M1404.64,691.9s6.546-1.437,5.748-11.017l-2.874-51.252s.639-12.294-15.487-6.706Z" transform="translate(-1132.501 -573.362)" fill="#ab2e60"/>
        <g id="Grupo_3176" data-name="Grupo 3176" transform="translate(191.108)">
          <g id="Grupo_3175" data-name="Grupo 3175">
            <g id="Grupo_3167" data-name="Grupo 3167" transform="translate(41.592 130.534)">
              <g id="Grupo_3164" data-name="Grupo 3164" transform="translate(0 84.792)">
                <path id="Trazado_1827" data-name="Trazado 1827" d="M1456.569,1297.212c-.6,3.161-4.125,4.9-7.328,5.212s-6.492-.286-9.622.463-6.179,3.621-5.47,6.76a5.786,5.786,0,0,0,3.838,3.876,17.073,17.073,0,0,0,5.622.692l17.394.193c2.219.025,4.693-.049,6.27-1.609,1.609-1.592,1.678-4.143,1.459-6.4s-1.842-4.7-.823-6.722Z" transform="translate(-1434.046 -1295.936)" fill="#174043"/>
                <path id="Trazado_1828" data-name="Trazado 1828" d="M1455.05,1292.094c-.6,3.161-4.125,4.9-7.328,5.212s-6.492-.286-9.622.463-6.179,3.621-5.47,6.76a5.786,5.786,0,0,0,3.838,3.876,17.083,17.083,0,0,0,5.622.692l17.394.193c2.219.025,4.693-.049,6.271-1.609,1.609-1.592,1.678-4.143,1.458-6.4s-.6-4.657.424-6.677Z" transform="translate(-1432.481 -1292.094)" fill="#52afb6"/>
                <path id="Trazado_1829" data-name="Trazado 1829" d="M1455.714,1297.2c2.968-.5,5.981-2.2,6.535-5.105l3.248.648,3.557,2.075S1460.278,1302.34,1455.714,1297.2Z" transform="translate(-1439.68 -1292.094)" fill="#1e272a"/>
                <path id="Trazado_1830" data-name="Trazado 1830" d="M1512.881,1316.3s-3.507-.128-3.356.652S1512.881,1316.3,1512.881,1316.3Z" transform="translate(-1496.923 -1310.26)" fill="#21a2a9"/>
                <path id="Trazado_1831" data-name="Trazado 1831" d="M1505.966,1320.959s-2.8,2.123-2.184,2.63S1505.966,1320.959,1505.966,1320.959Z" transform="translate(-1488.557 -1313.761)" fill="#21a2a9"/>
                <path id="Trazado_1832" data-name="Trazado 1832" d="M1491.354,1323.471s-.751,3.429.044,3.418S1491.354,1323.471,1491.354,1323.471Z" transform="translate(-1471.172 -1315.647)" fill="#21a2a9"/>
                <path id="Trazado_1833" data-name="Trazado 1833" d="M1474.384,1322.016s.762,3.426,1.478,3.082S1474.384,1322.016,1474.384,1322.016Z" transform="translate(-1451.287 -1314.555)" fill="#21a2a9"/>
                <path id="Trazado_1834" data-name="Trazado 1834" d="M1459.353,1316.911s1.947,2.92,2.491,2.341S1459.353,1316.911,1459.353,1316.911Z" transform="translate(-1433.443 -1310.723)" fill="#21a2a9"/>
              </g>
              <g id="Grupo_3166" data-name="Grupo 3166" transform="translate(8.914)">
                <path id="Trazado_1835" data-name="Trazado 1835" d="M1447.634,952.04a268.679,268.679,0,0,0-3.23,35.777c-.273,11.727.644,23.327,1.277,34.984.167,3.067.656,6.155.981,9.207.265,2.486.485,5.2-.754,7.308-1.679,2.854-5.237,3.366-8.334,3.6a24.009,24.009,0,0,1-5.729-.033,8.526,8.526,0,0,1-5.093-2.643c-1.672-1.915-2.16-4.575-2.231-7.136-.081-2.914-.1-5.491-.433-8.4q-3.2-28.287-6.394-56.575Z" transform="translate(-1417.694 -952.04)" fill="#edeeef"/>
                <g id="Grupo_3165" data-name="Grupo 3165" transform="translate(9.532 77.308)">
                  <path id="Trazado_1836" data-name="Trazado 1836" d="M1427.375,1279.907s18.153,5.264,15.716-8.3C1443.091,1271.6,1439.357,1281.869,1427.375,1279.907Z" transform="translate(-1425.321 -1269.23)" fill="#e0e1e3"/>
                  <path id="Trazado_1837" data-name="Trazado 1837" d="M1443.946,1270.015c-2.855.278,5.832.176,8.3-1.283a11.45,11.45,0,0,0,5.133-6.65A17.639,17.639,0,0,1,1443.946,1270.015Z" transform="translate(-1443.377 -1262.082)" fill="#e0e1e3"/>
                </g>
              </g>
            </g>
            <g id="Grupo_3168" data-name="Grupo 3168" transform="translate(1.999 217.975)">
              <path id="Trazado_1838" data-name="Trazado 1838" d="M1615.353,1307.838c-.6,3.161-4.125,4.9-7.328,5.212s-6.493-.286-9.622.464-6.179,3.621-5.47,6.76a5.786,5.786,0,0,0,3.838,3.876,17.077,17.077,0,0,0,5.622.692l17.394.193c2.219.025,4.693-.049,6.27-1.609,1.609-1.592,1.678-4.143,1.458-6.4s-1.842-4.7-.823-6.722Z" transform="translate(-1592.83 -1306.562)" fill="#174043"/>
              <path id="Trazado_1839" data-name="Trazado 1839" d="M1613.834,1302.719c-.6,3.161-4.125,4.9-7.328,5.212s-6.492-.286-9.622.463-6.179,3.621-5.47,6.76a5.786,5.786,0,0,0,3.838,3.876,17.071,17.071,0,0,0,5.622.692l17.393.193c2.219.025,4.693-.048,6.271-1.609,1.609-1.592,1.678-4.143,1.458-6.4s-.6-4.656.424-6.677Z" transform="translate(-1591.265 -1302.719)" fill="#52afb6"/>
              <path id="Trazado_1840" data-name="Trazado 1840" d="M1614.5,1307.825c2.968-.5,5.981-2.2,6.535-5.106l3.247.648,3.557,2.075S1619.062,1312.965,1614.5,1307.825Z" transform="translate(-1598.464 -1302.719)" fill="#1e272a"/>
              <path id="Trazado_1841" data-name="Trazado 1841" d="M1671.665,1326.928s-3.507-.128-3.356.652S1671.665,1326.928,1671.665,1326.928Z" transform="translate(-1655.707 -1320.886)" fill="#21a2a9"/>
              <path id="Trazado_1842" data-name="Trazado 1842" d="M1664.75,1331.584s-2.795,2.123-2.184,2.63S1664.75,1331.584,1664.75,1331.584Z" transform="translate(-1647.341 -1324.386)" fill="#21a2a9"/>
              <path id="Trazado_1843" data-name="Trazado 1843" d="M1650.138,1334.1s-.75,3.428.044,3.418S1650.138,1334.1,1650.138,1334.1Z" transform="translate(-1629.957 -1326.273)" fill="#21a2a9"/>
              <path id="Trazado_1844" data-name="Trazado 1844" d="M1633.168,1332.641s.762,3.426,1.478,3.083S1633.168,1332.641,1633.168,1332.641Z" transform="translate(-1610.071 -1325.18)" fill="#21a2a9"/>
              <path id="Trazado_1845" data-name="Trazado 1845" d="M1618.136,1327.536s1.948,2.92,2.491,2.341S1618.136,1327.536,1618.136,1327.536Z" transform="translate(-1592.226 -1321.348)" fill="#21a2a9"/>
            </g>
            <g id="Grupo_3171" data-name="Grupo 3171" transform="translate(17.303)">
              <path id="Trazado_1846" data-name="Trazado 1846" d="M1529.592,484.481l2.564-5.311.3-5.128,14.721-2.747-1.1,18.13Z" transform="translate(-1511.931 -460.634)" fill="#fdaf75"/>
              <path id="Trazado_1847" data-name="Trazado 1847" d="M1568.443,498.471c0,.866-.507,1.569-1.133,1.569s-1.133-.7-1.133-1.569.507-1.569,1.133-1.569S1568.443,497.6,1568.443,498.471Z" transform="translate(-1542.324 -479.855)" fill="#4e2a0e"/>
              <g id="Grupo_3169" data-name="Grupo 3169" transform="translate(16.67 23.847)">
                <rect id="Rectángulo_887" data-name="Rectángulo 887" width="2.434" height="4.685" transform="translate(3.351 7.609) rotate(168.058)" fill="#52afb6"/>
                <path id="Trazado_1848" data-name="Trazado 1848" d="M1545.923,538.142s-5.59-4.079-5.59-13.968l14.833,1.648S1556.64,537.46,1545.923,538.142Z" transform="translate(-1539.342 -524.174)" fill="#75bcc2"/>
                <path id="Trazado_1849" data-name="Trazado 1849" d="M1562.754,537.342l-11.081-1.769,10.821,2.549Z" transform="translate(-1549.688 -532.731)" fill="#52afb6"/>
                <path id="Trazado_1850" data-name="Trazado 1850" d="M1572.351,554.533l-6.568-4.777,6.063,5.328Z" transform="translate(-1562.805 -543.377)" fill="#52afb6"/>
              </g>
              <g id="Grupo_3170" data-name="Grupo 3170">
                <path id="Trazado_1851" data-name="Trazado 1851" d="M1411.908,627.471a189.65,189.65,0,0,1,6.23-28.109c2.3-7.594,4.358-15.086,7.428-22.372,3.3-7.826,6.4-15.745,8.9-23.865a37,37,0,0,0,.743-20.985c-1.836-7.843-3.315-15.842-3.137-23.93.191-8.672,2.468-17.535,7.66-24.593,4.168-5.666,5.287-11.254-2.371-14.272a10.5,10.5,0,0,1-4.1-2.994c10.7-3.029,8.877-24.406,8.877-24.406h-11.608c3.116-9.48,13.163-15.678,23.021-12.623a17.869,17.869,0,0,1,12.515,18.564c-.437,4.317-2.173,8.322-3.1,12.53s-3.047,9.1-.471,12.345c6.569,8.283,8.546,16.187,9.2,25.113.767,10.459,2.3,20.845,2.866,31.322.7,12.853,1.952,30.082-6.412,40.773-9.011,11.519-17.873,23.29-24.509,36.376-5.534,10.912-10.191,22.352-9.419,34.717.19,3.039-.074,6.446-2.3,8.526-2.076,1.941-5.2,2.115-8.043,2.1-3.336-.023-6.819-.2-9.718-1.854C1407.093,645.811,1410.988,633.9,1411.908,627.471Z" transform="translate(-1410.009 -428.537)" fill="#fff"/>
                <path id="Trazado_1852" data-name="Trazado 1852" d="M1422.574,692.818a15.881,15.881,0,0,1-4.874-1.591,14.691,14.691,0,0,1-7.6-13.969,14.438,14.438,0,0,1,3.45-8c2.067-2.418,5.531-3.081,7.373-5.314,2.488-3.016,6.149-5.317,7.243-9.071.873-2.994-.153-6.243-1.757-8.918s-3.766-4.972-5.473-7.582a10.531,10.531,0,0,1-1.6-8.55,8.646,8.646,0,0,1,4.271-5.2c2.717-1.525,5.962-1.786,9.075-1.662q.908.036,1.818.117c4.144,6.736,5.576,13.384,6.114,20.723.767,10.459,2.3,20.844,2.866,31.322.2,3.706.448,7.775.5,11.947.012,1.025-5.306,3.04-6.071,3.327a43.082,43.082,0,0,1-8.367,2.374A22.218,22.218,0,0,1,1422.574,692.818Z" transform="translate(-1378.926 -574.459)" fill="#edeeef"/>
                <path id="Trazado_1853" data-name="Trazado 1853" d="M1433.863,671.724s-30.017-3.582-29.581-45.6c0,0-.727-17.593,11.632-17.012,0,0,7.624-.18,8.247,5.581,0,0-4.612-4.127-9.846-1.655,0,0-10.586,1.169-3.316,29.958,0,0,7.07,23.917,22.864,22.333Z" transform="translate(-1367.374 -564.073)" fill="#ffd400"/>
                <path id="Trazado_1854" data-name="Trazado 1854" d="M1580.276,1286.344s18.954,5.5,16.41-8.669C1596.686,1277.675,1592.788,1288.393,1580.276,1286.344Z" transform="translate(-1574.317 -1065.944)" fill="#edeeef"/>
                <path id="Trazado_1855" data-name="Trazado 1855" d="M1597.58,1276.014c-2.981.29,6.089.184,8.669-1.339a11.954,11.954,0,0,0,5.359-6.944A18.418,18.418,0,0,1,1597.58,1276.014Z" transform="translate(-1593.171 -1058.48)" fill="#edeeef"/>
              </g>
              <path id="Trazado_1856" data-name="Trazado 1856" d="M1555.664,500.338c.054,0,.108,0,.162,0a4.137,4.137,0,0,0,3.355-2.379,9.32,9.32,0,0,0,.832-3.8,35.59,35.59,0,0,0-.445-7.887l-1.231.208a34.351,34.351,0,0,1,.429,7.61,8.224,8.224,0,0,1-.7,3.295,2.936,2.936,0,0,1-2.3,1.7c-1.431.08-2.6-1.283-3.555-2.613-1.128-1.567-2.5-3.244-4.492-3.3l-.037,1.247c1.425.043,2.518,1.4,3.516,2.785C1552.255,498.671,1553.71,500.338,1555.664,500.338Z" transform="translate(-1529.336 -471.876)" fill="#fff"/>
              <path id="Trazado_1857" data-name="Trazado 1857" d="M1487.052,471.916h-41.731v-6.69h39.705S1486.939,469.438,1487.052,471.916Z" transform="translate(-1430.797 -456.078)" fill="#ffd400"/>
              <path id="Trazado_1858" data-name="Trazado 1858" d="M1558.8,513.067h13.434V483.781h-.624v28.662h-12.186V484.684h-.624Z" transform="translate(-1544.28 -470.006)" fill="#ffd400"/>
            </g>
            <g id="Grupo_3172" data-name="Grupo 3172" transform="translate(0 59.256)">
              <path id="Trazado_1859" data-name="Trazado 1859" d="M1451.8,901.956s-11.693,5.43-40.744,4.693l-1.5,4.75s24.673,1.823,41.716-3.86Z" transform="translate(-1369.322 -843.166)" fill="#ffd400"/>
              <path id="Trazado_1860" data-name="Trazado 1860" d="M1359.931,768.107a20.5,20.5,0,0,0,8.111-1.758c9.69-4.217,17.3-15.631,13.268-27.432-1.523-4.458-3.756-7.678-6.635-9.573-2.045-1.346-4.7-2.036-7.52-2.767-5.044-1.31-9.809-2.546-10.609-7.393-.454-2.749.114-4.69,1.736-5.934,5.742-4.4,23.632.743,29.781,3.532,1.154.524,2.316,1.1,3.44,1.662,5.437,2.708,11.058,5.509,17.911,3.2,5.579-1.879,10.014-7.136,11.862-14.062,3.886-14.565-1.94-28.694-7.706-40.795a1.064,1.064,0,1,0-1.922.916c5.6,11.758,11.27,25.464,7.571,39.33-1.638,6.141-5.656,10.967-10.484,12.593-6.015,2.025-11-.458-16.283-3.088-1.14-.568-2.32-1.156-3.509-1.7-3.745-1.7-24.365-9.1-31.957-3.283-2.271,1.742-3.126,4.423-2.541,7.97,1.026,6.212,6.949,7.75,12.175,9.107a24.132,24.132,0,0,1,6.885,2.485c2.475,1.629,4.424,4.484,5.791,8.484,3.636,10.638-3.3,20.959-12.1,24.791-6.581,2.865-15.468,2.463-20.671-7.253-2.552-4.767-2.314-9.733-2.061-14.991.235-4.894.478-9.955-1.73-14.808a18.314,18.314,0,0,0-25.187-8.578,1.065,1.065,0,1,0,.991,1.885,16.183,16.183,0,0,1,22.257,7.575c1.994,4.384,1.774,8.97,1.541,13.825-.255,5.315-.519,10.811,2.311,16.1C1348.559,765.46,1354.319,768.107,1359.931,768.107Z" transform="translate(-1316.974 -666.182)" fill="#2e4e5c"/>
            </g>
            <g id="Grupo_3174" data-name="Grupo 3174" transform="translate(42.664 47.922)">
              <path id="Trazado_1861" data-name="Trazado 1861" d="M1513.334,864.714a25.24,25.24,0,0,1-12.147,13.551,4.766,4.766,0,0,1-3.894.594,3.967,3.967,0,0,1-2.477-2.972,5.4,5.4,0,0,1,.7-3.219,23.817,23.817,0,0,1,5.108-6.944c-1.207-1.2-3.53.144-4.756-1.041a1.366,1.366,0,0,1,.408-2.149c1.516-1.02,3.786-1.022,5.872-1.18s4.3-.633,5.07-2.189Z" transform="translate(-1494.772 -799.712)" fill="#52afb6"/>
              <path id="Trazado_1862" data-name="Trazado 1862" d="M1368.737,621.241c3.835,1.118,6.9,4.034,9.6,7.03,4.063,4.5,7.684,9.391,11.3,14.274,2.571,3.474,5.267,7.327,5.127,11.682-.158,4.938-3.878,8.889-7.359,12.316l-14.323,14.1a33.454,33.454,0,0,1-7.548,6.11c-2.863,1.508-6.35,2.119-9.321.848-3.367-1.441-7.42-7.315-5.825-11.111a12.417,12.417,0,0,1,3.107-3.933c3.1-2.982,6-6.413,9.516-8.809,3.566-2.428,7.055-5.814,7.407-10.181.315-3.917-2.007-7.556-4.691-10.368s-5.855-5.2-7.989-8.464C1352.225,626.283,1359.849,618.65,1368.737,621.241Z" transform="translate(-1340.119 -620.728)" fill="#fff"/>
              <g id="Grupo_3173" data-name="Grupo 3173" transform="translate(12.842 54.967)">
                <path id="Trazado_1863" data-name="Trazado 1863" d="M1473.8,870.2s7.944.447,7.775-1.843S1473.8,870.2,1473.8,870.2Z" transform="translate(-1470.624 -861.058)" fill="#edeeef"/>
                <path id="Trazado_1864" data-name="Trazado 1864" d="M1484.334,858.6s7.427-2.658,6.78-4.078S1484.334,858.6,1484.334,858.6Z" transform="translate(-1482.831 -851.019)" fill="#edeeef"/>
                <path id="Trazado_1865" data-name="Trazado 1865" d="M1498.365,847.088s6.148-4.468,4.564-5.76S1498.365,847.088,1498.365,847.088Z" transform="translate(-1498.365 -841.17)" fill="#edeeef"/>
              </g>
            </g>
          </g>
        </g>
        <g id="Grupo_3178" data-name="Grupo 3178" transform="translate(0 164.767)">
          <path id="Trazado_1866" data-name="Trazado 1866" d="M1999.088,1157.752a.228.228,0,0,0,.216-.154l.4-1.152a.228.228,0,0,0-.432-.149l-.4,1.152a.228.228,0,0,0,.216.3Zm.794-2.3a.229.229,0,0,0,.216-.154l.4-1.152a.229.229,0,0,0-.432-.149l-.4,1.152a.228.228,0,0,0,.141.29A.223.223,0,0,0,1999.882,1155.448Zm.794-2.3a.229.229,0,0,0,.216-.154l.4-1.152a.228.228,0,1,0-.432-.148l-.4,1.152a.228.228,0,0,0,.142.29A.222.222,0,0,0,2000.675,1153.144Zm.794-2.3a.228.228,0,0,0,.216-.154l.4-1.152a.228.228,0,0,0-.432-.149l-.4,1.152a.228.228,0,0,0,.141.29A.225.225,0,0,0,2001.469,1150.84Zm.793-2.3a.229.229,0,0,0,.216-.154l.4-1.152a.228.228,0,1,0-.432-.149l-.4,1.152a.228.228,0,0,0,.142.29A.221.221,0,0,0,2002.262,1148.536Zm.794-2.3a.228.228,0,0,0,.216-.154l.4-1.152a.228.228,0,0,0-.432-.149l-.4,1.152a.229.229,0,0,0,.141.29A.221.221,0,0,0,2003.056,1146.232Zm.793-2.3a.228.228,0,0,0,.216-.154l.4-1.152a.228.228,0,1,0-.432-.149l-.4,1.152a.228.228,0,0,0,.142.29A.222.222,0,0,0,2003.849,1143.928Zm.794-2.3a.228.228,0,0,0,.216-.154l.4-1.152a.228.228,0,0,0-.432-.149l-.4,1.152a.228.228,0,0,0,.216.3Zm.794-2.3a.228.228,0,0,0,.216-.154l.4-1.152a.228.228,0,1,0-.432-.149l-.4,1.152a.229.229,0,0,0,.142.29A.22.22,0,0,0,2005.437,1139.32Zm.793-2.3a.228.228,0,0,0,.216-.154l.4-1.152a.228.228,0,1,0-.432-.149l-.4,1.152a.229.229,0,0,0,.142.29A.226.226,0,0,0,2006.23,1137.016Zm.794-2.3a.228.228,0,0,0,.216-.154l.4-1.152a.228.228,0,0,0-.432-.149l-.4,1.152a.228.228,0,0,0,.141.29A.224.224,0,0,0,2007.024,1134.712Zm.794-2.3a.229.229,0,0,0,.216-.154l.4-1.152a.228.228,0,0,0-.432-.149l-.4,1.152a.229.229,0,0,0,.216.3Zm.794-2.3a.228.228,0,0,0,.216-.154l.4-1.152a.228.228,0,1,0-.432-.149l-.4,1.152a.228.228,0,0,0,.142.29A.219.219,0,0,0,2008.611,1130.1Zm.793-2.3a.228.228,0,0,0,.216-.154l.4-1.152a.228.228,0,1,0-.432-.149l-.4,1.152a.229.229,0,0,0,.142.29A.221.221,0,0,0,2009.4,1127.8Zm.794-2.3a.228.228,0,0,0,.216-.154l.4-1.152a.228.228,0,1,0-.432-.149l-.4,1.152a.228.228,0,0,0,.216.3Zm.794-2.3a.228.228,0,0,0,.216-.154l.4-1.152a.229.229,0,0,0-.432-.149l-.4,1.152a.228.228,0,0,0,.142.29A.221.221,0,0,0,2010.992,1123.192Zm.794-2.3a.229.229,0,0,0,.216-.154l.4-1.152a.228.228,0,1,0-.432-.149l-.4,1.152a.228.228,0,0,0,.142.29A.223.223,0,0,0,2011.785,1120.889Zm.794-2.3a.228.228,0,0,0,.216-.154l.4-1.152a.228.228,0,0,0-.432-.149l-.4,1.152a.228.228,0,0,0,.142.29A.22.22,0,0,0,2012.579,1118.584Zm.794-2.3a.229.229,0,0,0,.216-.154l.4-1.152a.228.228,0,1,0-.432-.149l-.4,1.152a.229.229,0,0,0,.216.3Zm.793-2.3a.228.228,0,0,0,.216-.154l.4-1.152a.228.228,0,0,0-.432-.149l-.4,1.152a.229.229,0,0,0,.142.29A.223.223,0,0,0,2014.166,1113.977Zm.793-2.3a.228.228,0,0,0,.216-.154l.4-1.152a.228.228,0,0,0-.432-.149l-.4,1.152a.228.228,0,0,0,.142.29A.222.222,0,0,0,2014.96,1111.672Zm.794-2.3a.228.228,0,0,0,.216-.154l.4-1.152a.228.228,0,1,0-.432-.149l-.4,1.152a.228.228,0,0,0,.216.3Zm.794-2.3a.229.229,0,0,0,.216-.154l.4-1.152a.228.228,0,1,0-.432-.149l-.4,1.152a.228.228,0,0,0,.141.29A.225.225,0,0,0,2016.547,1107.065Zm.793-2.3a.228.228,0,0,0,.216-.154l.4-1.152a.228.228,0,1,0-.432-.149l-.4,1.152a.228.228,0,0,0,.216.3Zm.794-2.3a.228.228,0,0,0,.216-.154l.4-1.152a.228.228,0,0,0-.432-.149l-.4,1.152a.229.229,0,0,0,.142.29A.224.224,0,0,0,2018.134,1102.457Zm.794-2.3a.228.228,0,0,0,.216-.154l.4-1.152a.228.228,0,1,0-.432-.149l-.4,1.152a.228.228,0,0,0,.216.3Zm.794-2.3a.228.228,0,0,0,.216-.154l.4-1.152a.228.228,0,0,0-.432-.149l-.4,1.152a.228.228,0,0,0,.142.29A.221.221,0,0,0,2019.721,1097.849Zm.793-2.3a.228.228,0,0,0,.216-.154l.4-1.152a.228.228,0,1,0-.432-.149l-.4,1.152a.228.228,0,0,0,.216.3Zm.794-2.3a.228.228,0,0,0,.216-.154l.4-1.152a.228.228,0,1,0-.432-.149l-.4,1.152a.229.229,0,0,0,.142.29A.222.222,0,0,0,2021.308,1093.241Zm.794-2.3a.228.228,0,0,0,.216-.154l.4-1.152a.228.228,0,0,0-.432-.149l-.4,1.152a.228.228,0,0,0,.142.29A.222.222,0,0,0,2022.1,1090.937Z" transform="translate(-1896.086 -1089.328)" fill="#fff"/>
          <path id="Trazado_1867" data-name="Trazado 1867" d="M1999.087,1158.679a.228.228,0,0,0,.206-.129l.435-.9a.228.228,0,1,0-.411-.2l-.435.9a.229.229,0,0,0,.205.328Zm.966-2a.228.228,0,0,0,.206-.129l.531-1.1a.228.228,0,1,0-.411-.2l-.531,1.1a.228.228,0,0,0,.106.305A.225.225,0,0,0,2000.053,1156.684Zm1.062-2.193a.228.228,0,0,0,.206-.129l.531-1.1a.229.229,0,1,0-.411-.2l-.531,1.1a.228.228,0,0,0,.106.3A.224.224,0,0,0,2001.115,1154.491Zm1.061-2.194a.228.228,0,0,0,.206-.129l.531-1.1a.228.228,0,1,0-.411-.2l-.531,1.1a.229.229,0,0,0,.205.328Zm1.062-2.193a.229.229,0,0,0,.206-.129l.531-1.1a.228.228,0,1,0-.411-.2l-.531,1.1a.229.229,0,0,0,.205.328Zm1.062-2.194a.227.227,0,0,0,.206-.129l.531-1.1a.228.228,0,0,0-.411-.2l-.531,1.1a.228.228,0,0,0,.205.328Zm1.062-2.193a.228.228,0,0,0,.206-.129l.531-1.1a.228.228,0,1,0-.411-.2l-.531,1.1a.228.228,0,0,0,.205.328Zm1.062-2.193a.229.229,0,0,0,.206-.129l.531-1.1a.229.229,0,1,0-.411-.2l-.531,1.1a.228.228,0,0,0,.205.328Zm1.062-2.193a.228.228,0,0,0,.206-.129l.531-1.1a.229.229,0,0,0-.411-.2l-.531,1.1a.228.228,0,0,0,.205.328Zm1.062-2.193a.227.227,0,0,0,.206-.129l.531-1.1a.228.228,0,1,0-.411-.2l-.531,1.1a.228.228,0,0,0,.205.328Zm1.062-2.193a.228.228,0,0,0,.206-.129l.531-1.1a.228.228,0,1,0-.411-.2l-.531,1.1a.229.229,0,0,0,.205.328Zm1.062-2.194a.228.228,0,0,0,.206-.129l.531-1.1a.228.228,0,1,0-.411-.2l-.531,1.1a.228.228,0,0,0,.205.328Zm1.061-2.193a.228.228,0,0,0,.206-.129l.531-1.1a.228.228,0,0,0-.411-.2l-.531,1.1a.229.229,0,0,0,.106.305A.232.232,0,0,0,2011.731,1132.557Zm1.062-2.193a.228.228,0,0,0,.206-.129l.531-1.1a.228.228,0,0,0-.411-.2l-.531,1.1a.229.229,0,0,0,.205.328Zm1.062-2.193a.227.227,0,0,0,.206-.129l.531-1.1a.228.228,0,0,0-.411-.2l-.531,1.1a.229.229,0,0,0,.106.305A.231.231,0,0,0,2013.854,1128.17Zm1.062-2.194a.228.228,0,0,0,.206-.129l.531-1.1a.228.228,0,0,0-.411-.2l-.531,1.1a.229.229,0,0,0,.206.328Zm1.061-2.193a.229.229,0,0,0,.206-.129l.531-1.1a.228.228,0,1,0-.411-.2l-.531,1.1a.229.229,0,0,0,.205.328Zm1.062-2.193a.228.228,0,0,0,.206-.129l.531-1.1a.229.229,0,0,0-.411-.2l-.531,1.1a.229.229,0,0,0,.106.305A.223.223,0,0,0,2017.039,1121.589Zm1.061-2.193a.227.227,0,0,0,.206-.129l.531-1.1a.228.228,0,1,0-.411-.2l-.531,1.1a.228.228,0,0,0,.205.328Zm1.062-2.193a.228.228,0,0,0,.206-.129l.531-1.1a.228.228,0,1,0-.411-.2l-.531,1.1a.229.229,0,0,0,.205.328Zm1.062-2.193a.228.228,0,0,0,.206-.129l.531-1.1a.229.229,0,0,0-.411-.2l-.531,1.1a.228.228,0,0,0,.205.328Zm1.062-2.193a.228.228,0,0,0,.206-.129l.531-1.1a.228.228,0,1,0-.411-.2l-.531,1.1a.229.229,0,0,0,.205.328Zm1.062-2.193a.228.228,0,0,0,.206-.129l.531-1.1a.228.228,0,0,0-.411-.2l-.531,1.1a.229.229,0,0,0,.205.328Zm1.062-2.193a.228.228,0,0,0,.206-.129l.531-1.1a.228.228,0,1,0-.411-.2l-.531,1.1a.228.228,0,0,0,.205.328Zm1.062-2.193a.228.228,0,0,0,.206-.129l.531-1.1a.228.228,0,0,0-.411-.2l-.531,1.1a.228.228,0,0,0,.106.305A.231.231,0,0,0,2024.47,1106.236Zm1.062-2.193a.228.228,0,0,0,.206-.129l.531-1.1a.228.228,0,0,0-.411-.2l-.531,1.1a.229.229,0,0,0,.205.328Zm1.062-2.193a.229.229,0,0,0,.206-.129l.531-1.1a.228.228,0,1,0-.411-.2l-.531,1.1a.228.228,0,0,0,.205.328Zm1.062-2.193a.228.228,0,0,0,.206-.129l.531-1.1a.228.228,0,1,0-.411-.2l-.531,1.1a.229.229,0,0,0,.205.328Zm1.062-2.193a.229.229,0,0,0,.206-.129l.53-1.1a.228.228,0,1,0-.411-.2l-.531,1.1a.229.229,0,0,0,.205.328Zm1.062-2.193a.228.228,0,0,0,.206-.129l.531-1.1a.228.228,0,1,0-.411-.2l-.53,1.1a.228.228,0,0,0,.105.3A.23.23,0,0,0,2029.779,1095.269Zm1.062-2.193a.228.228,0,0,0,.206-.129l.53-1.1a.228.228,0,0,0-.411-.2l-.531,1.1a.228.228,0,0,0,.205.328Zm1.062-2.193a.229.229,0,0,0,.206-.129l.531-1.1a.228.228,0,0,0-.411-.2l-.531,1.1a.229.229,0,0,0,.205.328Z" transform="translate(-1906.02 -1089.328)" fill="#fff"/>
          <path id="Trazado_1868" data-name="Trazado 1868" d="M1999.088,1158.171a.228.228,0,0,0,.192-.1l.665-1.021a.228.228,0,1,0-.382-.249l-.666,1.021a.228.228,0,0,0,.067.316A.223.223,0,0,0,1999.088,1158.171Zm1.33-2.041a.229.229,0,0,0,.192-.1l.665-1.021a.228.228,0,1,0-.382-.249l-.665,1.021a.229.229,0,0,0,.191.353Zm1.331-2.042a.228.228,0,0,0,.191-.1l.665-1.021a.228.228,0,1,0-.382-.249l-.665,1.021a.228.228,0,0,0,.191.353Zm1.33-2.041a.228.228,0,0,0,.192-.1l.666-1.021a.228.228,0,0,0-.383-.249l-.665,1.021a.228.228,0,0,0,.191.353Zm1.331-2.042a.228.228,0,0,0,.192-.1l.665-1.021a.228.228,0,0,0-.383-.249l-.665,1.021a.229.229,0,0,0,.191.353Zm1.33-2.041a.229.229,0,0,0,.192-.1l.665-1.021a.228.228,0,0,0-.383-.249l-.665,1.021a.228.228,0,0,0,.067.316A.223.223,0,0,0,2005.741,1147.964Zm1.331-2.042a.229.229,0,0,0,.192-.1l.665-1.021a.228.228,0,1,0-.383-.249l-.665,1.021a.228.228,0,0,0,.067.316A.226.226,0,0,0,2007.071,1145.923Zm1.331-2.041a.228.228,0,0,0,.192-.1l.665-1.021a.228.228,0,0,0-.383-.25l-.665,1.021a.228.228,0,0,0,.191.353Zm1.33-2.042a.228.228,0,0,0,.192-.1l.666-1.021a.228.228,0,0,0-.383-.249l-.666,1.021a.228.228,0,0,0,.067.316A.224.224,0,0,0,2009.733,1141.84Zm1.331-2.042a.228.228,0,0,0,.192-.1l.666-1.021a.228.228,0,0,0-.383-.249l-.666,1.021a.228.228,0,0,0,.191.353Zm1.33-2.041a.227.227,0,0,0,.192-.1l.666-1.021a.228.228,0,1,0-.382-.249l-.666,1.021a.228.228,0,0,0,.067.316A.224.224,0,0,0,2012.394,1137.757Zm1.331-2.041a.229.229,0,0,0,.192-.1l.665-1.021a.228.228,0,1,0-.382-.249l-.665,1.021a.228.228,0,0,0,.191.353Zm1.331-2.042a.227.227,0,0,0,.191-.1l.666-1.021a.228.228,0,0,0-.383-.249l-.665,1.021a.228.228,0,0,0,.067.316A.223.223,0,0,0,2015.056,1133.675Zm1.331-2.042a.229.229,0,0,0,.192-.1l.665-1.021a.228.228,0,0,0-.382-.249l-.665,1.021a.228.228,0,0,0,.191.353Zm1.33-2.041a.228.228,0,0,0,.192-.1l.666-1.021a.228.228,0,0,0-.382-.249l-.666,1.021a.228.228,0,0,0,.191.353Zm1.331-2.041a.227.227,0,0,0,.191-.1l.666-1.021a.228.228,0,0,0-.383-.249l-.666,1.021a.228.228,0,0,0,.067.316A.225.225,0,0,0,2019.048,1127.55Zm1.331-2.042a.228.228,0,0,0,.192-.1l.665-1.02a.228.228,0,0,0-.382-.249l-.665,1.021a.228.228,0,0,0,.067.316A.223.223,0,0,0,2020.378,1125.509Zm1.331-2.041a.229.229,0,0,0,.191-.1l.665-1.021a.228.228,0,0,0-.383-.249l-.665,1.021a.229.229,0,0,0,.191.353Zm1.331-2.042a.228.228,0,0,0,.192-.1l.665-1.021a.228.228,0,0,0-.383-.249l-.665,1.021a.228.228,0,0,0,.191.353Zm1.33-2.041a.228.228,0,0,0,.192-.1l.666-1.021a.228.228,0,0,0-.383-.25l-.666,1.021a.228.228,0,0,0,.191.353Zm1.331-2.042a.229.229,0,0,0,.192-.1l.665-1.021a.228.228,0,1,0-.383-.249l-.665,1.021a.228.228,0,0,0,.067.316A.224.224,0,0,0,2025.7,1117.343Zm1.331-2.041a.229.229,0,0,0,.192-.1l.665-1.021a.228.228,0,1,0-.383-.249l-.665,1.021a.228.228,0,0,0,.067.316A.226.226,0,0,0,2027.032,1115.3Zm1.331-2.041a.229.229,0,0,0,.192-.1l.665-1.021a.228.228,0,0,0-.383-.249l-.665,1.021a.229.229,0,0,0,.191.353Zm1.331-2.042a.228.228,0,0,0,.192-.1l.666-1.021a.228.228,0,0,0-.383-.249l-.665,1.021a.228.228,0,0,0,.191.353Zm1.331-2.042a.228.228,0,0,0,.191-.1l.666-1.021a.228.228,0,0,0-.383-.249l-.666,1.021a.228.228,0,0,0,.067.316A.224.224,0,0,0,2031.024,1109.178Zm1.331-2.042a.229.229,0,0,0,.192-.1l.665-1.021a.228.228,0,0,0-.382-.249l-.665,1.021a.229.229,0,0,0,.191.353Zm1.33-2.041a.229.229,0,0,0,.192-.1l.665-1.021a.228.228,0,0,0-.382-.249l-.665,1.021a.228.228,0,0,0,.191.353Zm1.331-2.041a.228.228,0,0,0,.191-.1l.665-1.021a.228.228,0,1,0-.382-.249l-.665,1.021a.228.228,0,0,0,.191.353Zm1.331-2.042a.227.227,0,0,0,.191-.1l.666-1.021a.228.228,0,0,0-.382-.249l-.666,1.021a.228.228,0,0,0,.067.316A.224.224,0,0,0,2036.347,1101.012Zm1.331-2.042a.228.228,0,0,0,.191-.1l.665-1.021a.228.228,0,1,0-.382-.249l-.665,1.021a.228.228,0,0,0,.191.353Zm1.33-2.041a.229.229,0,0,0,.192-.1l.665-1.021a.228.228,0,1,0-.382-.249l-.666,1.021a.228.228,0,0,0,.067.316A.224.224,0,0,0,2039.008,1096.929Zm1.331-2.041a.229.229,0,0,0,.192-.1l.665-1.021a.228.228,0,1,0-.383-.249l-.665,1.021a.228.228,0,0,0,.067.316A.226.226,0,0,0,2040.338,1094.888Zm1.331-2.041a.229.229,0,0,0,.192-.1l.665-1.021a.228.228,0,0,0-.383-.249l-.665,1.021a.227.227,0,0,0,.067.316A.223.223,0,0,0,2041.669,1092.847ZM2043,1090.8a.227.227,0,0,0,.191-.1l.666-1.02a.228.228,0,0,0-.383-.25l-.666,1.021a.228.228,0,0,0,.067.316A.226.226,0,0,0,2043,1090.8Z" transform="translate(-1917.253 -1089.327)" fill="#fff"/>
          <path id="Trazado_1869" data-name="Trazado 1869" d="M1999.088,1158.259a.228.228,0,0,0,.176-.083l.778-.938a.228.228,0,0,0-.352-.292l-.778.938a.229.229,0,0,0,.176.374Zm1.555-1.876a.229.229,0,0,0,.176-.083l.778-.938a.228.228,0,0,0-.352-.292l-.778.938a.229.229,0,0,0,.176.374Zm1.555-1.876a.228.228,0,0,0,.176-.083l.778-.938a.228.228,0,0,0-.352-.292l-.778.938a.229.229,0,0,0,.176.374Zm1.555-1.876a.228.228,0,0,0,.176-.083l.777-.938a.228.228,0,1,0-.352-.292l-.777.938a.229.229,0,0,0,.176.374Zm1.555-1.876a.228.228,0,0,0,.176-.083l.777-.938a.228.228,0,1,0-.352-.292l-.777.938a.228.228,0,0,0,.176.374Zm1.556-1.876a.227.227,0,0,0,.176-.083l.778-.938a.228.228,0,1,0-.352-.292l-.778.938a.228.228,0,0,0,.176.374Zm1.555-1.876a.229.229,0,0,0,.176-.083l.777-.938a.228.228,0,1,0-.352-.291l-.777.938a.228.228,0,0,0,.176.374Zm1.555-1.876a.227.227,0,0,0,.176-.083l.778-.938a.228.228,0,0,0-.352-.292l-.778.938a.228.228,0,0,0,.176.374Zm1.555-1.876a.227.227,0,0,0,.176-.083l.778-.938a.228.228,0,1,0-.352-.291l-.778.938a.229.229,0,0,0,.176.375Zm1.555-1.876a.228.228,0,0,0,.176-.083l.778-.938a.228.228,0,1,0-.352-.292l-.778.938a.228.228,0,0,0,.03.322A.226.226,0,0,0,2013.085,1141.374Zm1.555-1.876a.228.228,0,0,0,.176-.083l.777-.938a.228.228,0,1,0-.352-.292l-.777.938a.229.229,0,0,0,.176.374Zm1.555-1.876a.228.228,0,0,0,.176-.082l.777-.938a.228.228,0,1,0-.352-.292l-.777.938a.228.228,0,0,0,.176.374Zm1.555-1.876a.228.228,0,0,0,.176-.083l.778-.938a.228.228,0,1,0-.352-.292l-.778.938a.228.228,0,0,0,.176.374Zm1.556-1.876a.229.229,0,0,0,.176-.082l.777-.938a.228.228,0,0,0-.352-.292l-.778.938a.228.228,0,0,0,.176.374Zm1.555-1.876a.228.228,0,0,0,.176-.083l.778-.938a.228.228,0,0,0-.352-.292l-.778.938a.229.229,0,0,0,.176.374Zm1.555-1.876a.228.228,0,0,0,.176-.083l.778-.938a.228.228,0,0,0-.352-.291l-.778.938a.229.229,0,0,0,.176.374Zm1.555-1.876a.228.228,0,0,0,.176-.083l.778-.938a.228.228,0,0,0-.352-.292l-.778.938a.229.229,0,0,0,.176.374Zm1.555-1.876a.229.229,0,0,0,.176-.083l.777-.938a.228.228,0,0,0-.352-.292l-.778.938a.228.228,0,0,0,.176.374Zm1.555-1.876a.228.228,0,0,0,.176-.083l.778-.938a.228.228,0,0,0-.352-.292l-.778.938a.229.229,0,0,0,.176.374Zm1.555-1.876a.23.23,0,0,0,.176-.083l.777-.938a.228.228,0,0,0-.352-.292l-.777.938a.228.228,0,0,0,.176.374Zm1.555-1.876a.229.229,0,0,0,.176-.083l.777-.938a.228.228,0,1,0-.352-.292l-.777.938a.228.228,0,0,0,.176.374Zm1.555-1.876a.229.229,0,0,0,.176-.083l.778-.938a.228.228,0,0,0-.352-.292l-.778.938a.229.229,0,0,0,.176.374Zm1.555-1.876a.227.227,0,0,0,.176-.083l.778-.938a.228.228,0,1,0-.352-.292l-.778.938a.229.229,0,0,0,.176.375Zm1.555-1.876a.228.228,0,0,0,.176-.083l.777-.938a.228.228,0,1,0-.352-.291l-.777.938a.228.228,0,0,0,.176.374Zm1.555-1.876a.227.227,0,0,0,.176-.083l.778-.938a.228.228,0,1,0-.351-.292l-.778.938a.229.229,0,0,0,.176.375Zm1.555-1.876a.228.228,0,0,0,.176-.083l.777-.938a.228.228,0,1,0-.352-.292l-.778.938a.228.228,0,0,0,.176.374Zm1.555-1.876a.228.228,0,0,0,.176-.083l.777-.938a.228.228,0,1,0-.351-.291l-.778.938a.228.228,0,0,0,.176.374Zm1.555-1.876a.228.228,0,0,0,.176-.083l.778-.938a.228.228,0,1,0-.351-.292l-.778.938a.229.229,0,0,0,.176.374Zm1.555-1.876a.228.228,0,0,0,.176-.083l.778-.938a.228.228,0,1,0-.352-.292l-.778.938a.229.229,0,0,0,.176.374Zm1.555-1.876a.228.228,0,0,0,.176-.083l.778-.938a.228.228,0,0,0-.352-.291l-.778.938a.228.228,0,0,0,.176.374Zm1.555-1.876a.229.229,0,0,0,.176-.083l.777-.938a.228.228,0,0,0-.351-.292l-.778.938a.228.228,0,0,0,.176.374Zm1.555-1.876a.229.229,0,0,0,.176-.083l.777-.938a.228.228,0,0,0-.352-.291l-.778.938a.228.228,0,0,0,.176.374Zm1.555-1.876a.229.229,0,0,0,.176-.082l.778-.938a.228.228,0,0,0-.352-.292l-.777.938a.228.228,0,0,0,.176.374Zm1.555-1.876a.228.228,0,0,0,.176-.083l.778-.938a.228.228,0,1,0-.352-.292l-.777.938a.228.228,0,0,0,.176.374Zm1.555-1.875a.228.228,0,0,0,.176-.083l.778-.938a.228.228,0,0,0-.351-.291l-.778.938a.229.229,0,0,0,.176.374Zm1.555-1.876a.227.227,0,0,0,.176-.083l.778-.938a.228.228,0,0,0-.351-.292l-.778.938a.229.229,0,0,0,.176.375Zm1.555-1.876a.229.229,0,0,0,.176-.083l.778-.938a.228.228,0,0,0-.352-.292l-.778.938a.229.229,0,0,0,.176.374Z" transform="translate(-1929.44 -1089.327)" fill="#fff"/>
          <path id="Trazado_1870" data-name="Trazado 1870" d="M1999.088,1158.679a.228.228,0,0,0,.161-.066l.184-.183a.228.228,0,1,0-.322-.324l-.184.183a.229.229,0,0,0,.161.391Zm1.048-1.042a.226.226,0,0,0,.161-.066l.864-.859a.228.228,0,1,0-.322-.324l-.864.859a.229.229,0,0,0,.161.391Zm1.729-1.718a.227.227,0,0,0,.161-.066l.864-.859a.229.229,0,1,0-.322-.324l-.864.859a.228.228,0,0,0,.161.39Zm1.728-1.718a.227.227,0,0,0,.161-.066l.864-.859a.228.228,0,1,0-.322-.324l-.864.859a.229.229,0,0,0,.161.391Zm1.728-1.718a.227.227,0,0,0,.161-.066l.865-.859a.228.228,0,0,0-.322-.324l-.865.859a.228.228,0,0,0,.161.39Zm1.729-1.718a.227.227,0,0,0,.161-.066l.864-.859a.228.228,0,0,0-.322-.324l-.864.859a.228.228,0,0,0,.161.391Zm1.728-1.718a.226.226,0,0,0,.161-.066l.864-.859a.228.228,0,1,0-.322-.324l-.864.859a.229.229,0,0,0,.161.391Zm1.728-1.718a.227.227,0,0,0,.161-.067l.864-.859a.228.228,0,1,0-.322-.324l-.864.859a.229.229,0,0,0,.161.391Zm1.728-1.718a.227.227,0,0,0,.161-.066l.864-.859a.228.228,0,1,0-.322-.324l-.864.859a.229.229,0,0,0,.161.391Zm1.728-1.718a.227.227,0,0,0,.161-.066l.864-.859a.228.228,0,0,0-.322-.324l-.864.859a.229.229,0,0,0,.161.391Zm1.729-1.718a.229.229,0,0,0,.161-.066l.864-.859a.228.228,0,0,0-.322-.324l-.864.859a.228.228,0,0,0,.161.391Zm1.728-1.718a.226.226,0,0,0,.161-.066l.864-.859a.228.228,0,1,0-.322-.324l-.864.859a.229.229,0,0,0,.161.391Zm1.728-1.718a.227.227,0,0,0,.161-.066l.864-.859a.228.228,0,1,0-.322-.324l-.865.859a.229.229,0,0,0,.161.391Zm1.729-1.718a.227.227,0,0,0,.161-.066l.864-.859a.228.228,0,1,0-.322-.324l-.864.859a.229.229,0,0,0,.161.391Zm1.728-1.718a.226.226,0,0,0,.161-.066l.864-.859a.228.228,0,1,0-.322-.324l-.864.859a.228.228,0,0,0,.161.39Zm1.729-1.718a.227.227,0,0,0,.161-.066l.864-.859a.228.228,0,0,0-.322-.324l-.864.859a.228.228,0,0,0,.161.391Zm1.728-1.718a.227.227,0,0,0,.161-.066l.865-.859a.229.229,0,0,0-.322-.324l-.864.859a.229.229,0,0,0,.161.391Zm1.728-1.718a.226.226,0,0,0,.161-.066l.864-.859a.228.228,0,1,0-.322-.324l-.865.859a.228.228,0,0,0,.161.391Zm1.729-1.718a.226.226,0,0,0,.161-.066l.864-.859a.228.228,0,1,0-.322-.324l-.864.859a.229.229,0,0,0,.161.391Zm1.728-1.718a.226.226,0,0,0,.161-.066l.864-.859a.228.228,0,0,0-.322-.324l-.864.859a.228.228,0,0,0,.161.391Zm1.728-1.718a.227.227,0,0,0,.161-.067l.864-.859a.228.228,0,0,0-.322-.324l-.864.859a.229.229,0,0,0,.161.391Zm1.729-1.718a.226.226,0,0,0,.161-.066l.864-.859a.228.228,0,0,0-.322-.324l-.864.859a.228.228,0,0,0,.161.39Zm1.728-1.718a.227.227,0,0,0,.161-.066l.865-.859a.228.228,0,0,0-.322-.324l-.865.859a.228.228,0,0,0,.161.391Zm1.729-1.717a.226.226,0,0,0,.161-.066l.864-.859a.228.228,0,1,0-.322-.324l-.864.859a.229.229,0,0,0,.161.391Zm1.728-1.718a.226.226,0,0,0,.161-.066l.865-.859a.228.228,0,1,0-.322-.324l-.864.859a.228.228,0,0,0,.161.391Zm1.729-1.718a.227.227,0,0,0,.161-.066l.864-.859a.228.228,0,1,0-.322-.324l-.864.859a.228.228,0,0,0,.161.39Zm1.728-1.718a.227.227,0,0,0,.161-.066l.864-.859a.228.228,0,1,0-.321-.324l-.865.859a.228.228,0,0,0,.161.391Zm1.729-1.718a.226.226,0,0,0,.161-.066l.864-.859a.228.228,0,0,0-.322-.324l-.864.859a.229.229,0,0,0,.161.39Zm1.728-1.717a.225.225,0,0,0,.161-.066l.864-.859a.229.229,0,1,0-.322-.325l-.864.859a.229.229,0,0,0,.161.391Zm1.729-1.718a.228.228,0,0,0,.161-.066l.864-.859a.228.228,0,0,0-.322-.324l-.865.859a.229.229,0,0,0,.161.391Zm1.728-1.718a.227.227,0,0,0,.161-.066l.864-.859a.228.228,0,1,0-.322-.324l-.864.859a.228.228,0,0,0,.161.39Zm1.728-1.718a.226.226,0,0,0,.161-.066l.864-.859a.228.228,0,1,0-.322-.324l-.864.859a.228.228,0,0,0,.161.39Zm1.729-1.718a.226.226,0,0,0,.161-.066l.864-.859a.228.228,0,0,0-.322-.324l-.864.859a.228.228,0,0,0,.161.39Zm1.728-1.718a.227.227,0,0,0,.161-.066l.864-.859a.228.228,0,0,0-.322-.324l-.865.859a.229.229,0,0,0,.161.391Zm1.728-1.718a.227.227,0,0,0,.161-.066l.865-.859a.228.228,0,0,0-.322-.324l-.865.859a.229.229,0,0,0,.161.391Zm1.729-1.718a.227.227,0,0,0,.161-.066l.864-.859a.229.229,0,0,0-.322-.324l-.864.859a.229.229,0,0,0,.161.391Zm1.728-1.718a.227.227,0,0,0,.161-.066l.864-.859a.228.228,0,1,0-.322-.324l-.864.859a.228.228,0,0,0,.161.391Zm1.729-1.718a.226.226,0,0,0,.161-.066l.865-.859a.228.228,0,0,0-.322-.324l-.865.859a.228.228,0,0,0,.161.39Zm1.728-1.718a.227.227,0,0,0,.161-.066l.864-.859a.228.228,0,0,0-.322-.324l-.864.859a.229.229,0,0,0,.161.391Zm1.729-1.718a.228.228,0,0,0,.161-.066l.865-.859a.229.229,0,1,0-.322-.324l-.865.859a.229.229,0,0,0,.161.391Zm1.728-1.718a.226.226,0,0,0,.161-.066l.864-.859a.228.228,0,1,0-.322-.324l-.864.859a.228.228,0,0,0,.161.391Z" transform="translate(-1941.994 -1089.328)" fill="#fff"/>
          <path id="Trazado_1871" data-name="Trazado 1871" d="M1999.088,1158.678a.227.227,0,0,0,.146-.053l.512-.425a.228.228,0,0,0-.292-.352l-.512.425a.228.228,0,0,0,.146.4Zm1.45-1.2a.228.228,0,0,0,.146-.053l.938-.778a.228.228,0,1,0-.292-.351l-.938.778a.229.229,0,0,0,.146.4Zm1.875-1.556a.228.228,0,0,0,.146-.053l.938-.778a.228.228,0,0,0-.292-.352l-.937.778a.228.228,0,0,0,.146.4Zm1.875-1.556a.227.227,0,0,0,.146-.053l.937-.778a.228.228,0,1,0-.291-.352l-.938.778a.228.228,0,0,0,.146.4Zm1.875-1.556a.228.228,0,0,0,.146-.053l.938-.778a.228.228,0,0,0-.292-.352l-.938.778a.229.229,0,0,0,.146.4Zm1.876-1.556a.227.227,0,0,0,.146-.052l.938-.778a.228.228,0,0,0-.292-.352l-.937.778a.228.228,0,0,0,.146.4Zm1.875-1.556a.229.229,0,0,0,.146-.053l.938-.778a.228.228,0,1,0-.291-.351l-.938.778a.229.229,0,0,0,.146.4Zm1.875-1.556a.228.228,0,0,0,.146-.052l.938-.778a.228.228,0,0,0-.292-.352l-.938.778a.228.228,0,0,0,.146.4Zm1.875-1.556a.227.227,0,0,0,.146-.053l.938-.778a.228.228,0,1,0-.291-.351l-.938.778a.229.229,0,0,0,.146.4Zm1.875-1.556a.226.226,0,0,0,.146-.053l.938-.778a.228.228,0,1,0-.291-.352l-.937.778a.228.228,0,0,0,.146.4Zm1.875-1.556a.227.227,0,0,0,.146-.053l.938-.778a.228.228,0,1,0-.291-.351l-.938.778a.229.229,0,0,0,.146.4Zm1.875-1.557a.226.226,0,0,0,.146-.052l.938-.778a.228.228,0,0,0-.291-.352l-.937.778a.228.228,0,0,0,.146.4Zm1.875-1.556a.227.227,0,0,0,.146-.053l.938-.778a.228.228,0,0,0-.292-.352l-.937.778a.229.229,0,0,0,.146.4Zm1.875-1.556a.228.228,0,0,0,.146-.053l.938-.778a.228.228,0,0,0-.292-.352l-.937.778a.228.228,0,0,0,.146.4Zm1.875-1.556a.226.226,0,0,0,.146-.053l.938-.778a.228.228,0,1,0-.292-.351l-.937.778a.229.229,0,0,0,.146.4Zm1.875-1.556a.227.227,0,0,0,.146-.053l.938-.778a.228.228,0,0,0-.292-.352l-.937.778a.228.228,0,0,0,.146.4Zm1.875-1.556a.228.228,0,0,0,.146-.052l.938-.778a.228.228,0,1,0-.291-.352l-.938.778a.228.228,0,0,0,.146.4Zm1.876-1.556a.227.227,0,0,0,.146-.053l.938-.778a.228.228,0,0,0-.292-.352l-.937.778a.228.228,0,0,0,.146.4Zm1.875-1.556a.227.227,0,0,0,.146-.053l.938-.778a.228.228,0,1,0-.292-.352l-.937.778a.228.228,0,0,0,.146.4Zm1.875-1.556a.227.227,0,0,0,.146-.053l.938-.778a.228.228,0,0,0-.291-.352l-.938.778a.229.229,0,0,0,.146.4Zm1.875-1.556a.227.227,0,0,0,.146-.053l.938-.778a.228.228,0,1,0-.292-.352l-.937.778a.228.228,0,0,0,.146.4Zm1.875-1.556a.227.227,0,0,0,.146-.053l.938-.778a.228.228,0,0,0-.292-.352l-.938.778a.229.229,0,0,0,.146.4Zm1.875-1.556a.228.228,0,0,0,.146-.053l.937-.778a.228.228,0,1,0-.292-.351l-.937.777a.228.228,0,0,0,.146.4Zm1.876-1.556a.226.226,0,0,0,.146-.052l.938-.778a.228.228,0,0,0-.292-.352l-.938.778a.228.228,0,0,0,.146.4Zm1.875-1.556a.227.227,0,0,0,.146-.052l.938-.778a.228.228,0,1,0-.292-.352l-.937.778a.228.228,0,0,0,.145.4Zm1.876-1.556a.225.225,0,0,0,.146-.053l.938-.778a.228.228,0,0,0-.292-.352l-.937.778a.228.228,0,0,0,.146.4Zm1.875-1.556a.228.228,0,0,0,.146-.053l.937-.778a.228.228,0,1,0-.292-.352l-.937.778a.228.228,0,0,0,.145.4Zm1.875-1.556a.227.227,0,0,0,.146-.053l.938-.778a.228.228,0,0,0-.292-.352l-.937.778a.229.229,0,0,0,.146.4Zm1.875-1.556a.227.227,0,0,0,.146-.053l.938-.778a.228.228,0,0,0-.292-.352l-.938.778a.229.229,0,0,0,.146.4Zm1.875-1.556a.227.227,0,0,0,.146-.053l.938-.778a.228.228,0,0,0-.292-.352l-.937.778a.228.228,0,0,0,.146.4Zm1.875-1.556a.228.228,0,0,0,.146-.053l.938-.778a.228.228,0,0,0-.292-.351l-.938.778a.229.229,0,0,0,.146.4Zm1.875-1.556a.228.228,0,0,0,.146-.053l.938-.778a.228.228,0,1,0-.292-.351l-.938.778a.229.229,0,0,0,.146.4Zm1.875-1.557a.227.227,0,0,0,.146-.052l.938-.778a.228.228,0,0,0-.292-.352l-.938.778a.228.228,0,0,0,.146.4Zm1.875-1.556a.228.228,0,0,0,.146-.052l.938-.778a.228.228,0,1,0-.292-.352l-.937.778a.228.228,0,0,0,.146.4Zm1.875-1.556a.227.227,0,0,0,.146-.052l.938-.778a.228.228,0,0,0-.292-.352l-.937.778a.228.228,0,0,0,.146.4Zm1.875-1.556a.227.227,0,0,0,.146-.053l.938-.778a.228.228,0,1,0-.292-.352l-.938.778a.228.228,0,0,0,.146.4Zm1.875-1.556a.227.227,0,0,0,.146-.053l.938-.778a.229.229,0,0,0-.292-.352l-.937.778a.228.228,0,0,0,.146.4Zm1.875-1.556a.227.227,0,0,0,.146-.053l.938-.778a.228.228,0,1,0-.291-.352l-.938.778a.228.228,0,0,0,.146.4Zm1.875-1.556a.227.227,0,0,0,.146-.053l.938-.778a.228.228,0,1,0-.292-.352l-.938.778a.229.229,0,0,0,.146.4Zm1.875-1.556a.227.227,0,0,0,.146-.053l.938-.778a.228.228,0,0,0-.292-.352l-.937.778a.228.228,0,0,0,.146.4Zm1.875-1.556a.227.227,0,0,0,.145-.052l.938-.778a.228.228,0,1,0-.292-.352l-.937.778a.228.228,0,0,0,.146.4Zm1.875-1.556a.227.227,0,0,0,.146-.052l.938-.778a.228.228,0,0,0-.292-.352l-.938.778a.228.228,0,0,0,.146.4Zm1.875-1.556a.226.226,0,0,0,.146-.052l.938-.778a.228.228,0,1,0-.292-.352l-.937.778a.229.229,0,0,0,.146.4Zm1.875-1.556a.228.228,0,0,0,.146-.052l.938-.778a.228.228,0,0,0-.292-.352l-.938.778a.228.228,0,0,0,.146.4Zm1.875-1.556a.227.227,0,0,0,.146-.053l.938-.778a.228.228,0,1,0-.292-.352l-.937.778a.228.228,0,0,0,.146.4Z" transform="translate(-1955.698 -1089.327)" fill="#fff"/>
          <path id="Trazado_1872" data-name="Trazado 1872" d="M1999.088,1158.678a.231.231,0,0,0,.131-.041l.759-.53a.229.229,0,0,0-.262-.375l-.76.53a.229.229,0,0,0,.131.416Zm1.758-1.228a.227.227,0,0,0,.13-.041l1-.7a.229.229,0,1,0-.262-.375l-1,.7a.228.228,0,0,0,.131.416Zm2-1.4a.229.229,0,0,0,.131-.041l1-.7a.229.229,0,1,0-.262-.375l-1,.7a.228.228,0,0,0,.131.416Zm2-1.4a.226.226,0,0,0,.13-.041l1-.7a.229.229,0,1,0-.262-.375l-1,.7a.229.229,0,0,0,.131.416Zm2-1.4a.227.227,0,0,0,.13-.041l1-.7a.229.229,0,1,0-.261-.375l-1,.7a.229.229,0,0,0,.131.416Zm2-1.4a.229.229,0,0,0,.13-.041l1-.7a.229.229,0,0,0-.262-.375l-1,.7a.229.229,0,0,0,.131.416Zm2-1.4a.225.225,0,0,0,.13-.041l1-.7a.229.229,0,0,0-.261-.375l-1,.7a.229.229,0,0,0,.131.416Zm2-1.4a.228.228,0,0,0,.13-.041l1-.7a.229.229,0,1,0-.262-.375l-1,.7a.229.229,0,0,0,.131.416Zm2-1.4a.229.229,0,0,0,.13-.041l1-.7a.228.228,0,1,0-.261-.375l-1,.7a.228.228,0,0,0,.131.416Zm2-1.4a.227.227,0,0,0,.13-.041l1-.7a.228.228,0,0,0-.261-.375l-1,.7a.229.229,0,0,0,.131.416Zm2-1.4a.229.229,0,0,0,.131-.041l1-.7a.228.228,0,1,0-.262-.375l-1,.7a.229.229,0,0,0,.131.416Zm2-1.4a.227.227,0,0,0,.13-.041l1-.7a.228.228,0,0,0-.261-.375l-1,.7a.228.228,0,0,0,.131.416Zm2-1.4a.228.228,0,0,0,.13-.041l1-.7a.229.229,0,0,0-.262-.375l-1,.7a.228.228,0,0,0,.131.416Zm2-1.4a.228.228,0,0,0,.13-.041l1-.7a.229.229,0,1,0-.262-.375l-1,.7a.228.228,0,0,0,.131.416Zm2-1.4a.228.228,0,0,0,.131-.041l1-.7a.229.229,0,1,0-.262-.375l-1,.7a.228.228,0,0,0,.131.416Zm2-1.4a.23.23,0,0,0,.131-.041l1-.7a.229.229,0,0,0-.262-.375l-1,.7a.229.229,0,0,0,.131.416Zm2-1.4a.226.226,0,0,0,.13-.041l1-.7a.228.228,0,1,0-.261-.375l-1,.7a.228.228,0,0,0,.131.416Zm2-1.4a.227.227,0,0,0,.131-.041l1-.7a.229.229,0,1,0-.262-.375l-1,.7a.228.228,0,0,0,.131.416Zm2-1.4a.229.229,0,0,0,.131-.041l1-.7a.228.228,0,1,0-.261-.375l-1,.7a.228.228,0,0,0,.131.416Zm2-1.4a.228.228,0,0,0,.13-.041l1-.7a.229.229,0,1,0-.261-.375l-1,.7a.229.229,0,0,0,.131.416Zm2-1.4a.228.228,0,0,0,.13-.041l1-.7a.228.228,0,1,0-.261-.375l-1,.7a.228.228,0,0,0,.131.416Zm2-1.4a.228.228,0,0,0,.131-.041l1-.7a.229.229,0,1,0-.262-.375l-1,.7a.229.229,0,0,0,.131.416Zm2-1.4a.227.227,0,0,0,.13-.041l1-.7a.228.228,0,1,0-.261-.375l-1,.7a.228.228,0,0,0,.131.416Zm2-1.4a.229.229,0,0,0,.13-.041l1-.7a.229.229,0,1,0-.262-.375l-1,.7a.228.228,0,0,0,.131.416Zm2-1.4a.228.228,0,0,0,.13-.041l1-.7a.229.229,0,0,0-.262-.375l-1,.7a.229.229,0,0,0,.131.416Zm2-1.4a.229.229,0,0,0,.13-.041l1-.7a.229.229,0,0,0-.261-.375l-1,.7a.228.228,0,0,0,.131.416Zm2-1.4a.228.228,0,0,0,.131-.041l1-.7a.228.228,0,1,0-.261-.375l-1,.7a.229.229,0,0,0,.131.416Zm2-1.4a.228.228,0,0,0,.131-.041l1-.7a.229.229,0,0,0-.262-.375l-1,.7a.229.229,0,0,0,.131.416Zm2-1.4a.228.228,0,0,0,.13-.041l1-.7a.229.229,0,0,0-.262-.375l-1,.7a.228.228,0,0,0,.131.416Zm2-1.4a.228.228,0,0,0,.13-.041l1-.7a.229.229,0,1,0-.262-.375l-1,.7a.229.229,0,0,0,.131.416Zm2-1.4a.229.229,0,0,0,.131-.041l1-.7a.229.229,0,1,0-.261-.375l-1,.7a.229.229,0,0,0,.131.416Zm2-1.4a.228.228,0,0,0,.131-.041l1-.7a.228.228,0,0,0-.261-.375l-1,.7a.228.228,0,0,0,.131.416Zm2-1.4a.226.226,0,0,0,.13-.041l1-.7a.229.229,0,0,0-.261-.375l-1,.7a.228.228,0,0,0,.131.416Zm2-1.4a.226.226,0,0,0,.13-.041l1-.7a.229.229,0,0,0-.262-.375l-1,.7a.228.228,0,0,0,.131.416Zm2-1.4a.23.23,0,0,0,.13-.041l1-.7a.228.228,0,1,0-.261-.375l-1,.7a.228.228,0,0,0,.131.416Zm2-1.4a.228.228,0,0,0,.13-.041l1-.7a.228.228,0,1,0-.261-.375l-1,.7a.228.228,0,0,0,.131.416Zm2-1.4a.229.229,0,0,0,.131-.041l1-.7a.229.229,0,0,0-.262-.375l-1,.7a.228.228,0,0,0,.131.416Zm2-1.4a.228.228,0,0,0,.131-.041l1-.7a.228.228,0,0,0-.261-.375l-1,.7a.228.228,0,0,0,.131.416Zm2-1.4a.231.231,0,0,0,.13-.041l1-.7a.228.228,0,0,0-.262-.375l-1,.7a.228.228,0,0,0,.131.416Zm2-1.4a.232.232,0,0,0,.131-.041l1-.7a.229.229,0,1,0-.262-.375l-1,.7a.228.228,0,0,0,.131.416Zm2-1.4a.229.229,0,0,0,.131-.041l1-.7a.229.229,0,1,0-.262-.375l-1,.7a.229.229,0,0,0,.131.416Zm2-1.4a.23.23,0,0,0,.131-.041l1-.7a.229.229,0,0,0-.262-.375l-1,.7a.228.228,0,0,0,.131.416Zm2-1.4a.229.229,0,0,0,.131-.041l1-.7a.229.229,0,1,0-.262-.375l-1,.7a.228.228,0,0,0,.131.416Zm2-1.4a.228.228,0,0,0,.131-.041l1-.7a.229.229,0,1,0-.262-.375l-1,.7a.229.229,0,0,0,.131.416Zm2-1.4a.228.228,0,0,0,.131-.041l1-.7a.229.229,0,1,0-.262-.375l-1,.7a.229.229,0,0,0,.131.416Zm2-1.4a.228.228,0,0,0,.13-.041l1-.7a.228.228,0,1,0-.261-.375l-1,.7a.229.229,0,0,0,.131.416Zm2-1.4a.229.229,0,0,0,.131-.041l1-.7a.229.229,0,1,0-.262-.375l-1,.7a.228.228,0,0,0,.131.416Zm2-1.4a.231.231,0,0,0,.131-.041l1-.7a.229.229,0,0,0-.262-.375l-1,.7a.228.228,0,0,0,.131.416Zm2-1.4a.23.23,0,0,0,.131-.041l1-.7a.229.229,0,0,0-.262-.375l-1,.7a.228.228,0,0,0,.131.416Zm2-1.4a.229.229,0,0,0,.131-.041l1-.7a.229.229,0,0,0-.262-.375l-1,.7a.228.228,0,0,0,.131.416Z" transform="translate(-1971.33 -1089.327)" fill="#fff"/>
          <path id="Trazado_1873" data-name="Trazado 1873" d="M1999.088,1158.537a.226.226,0,0,0,.118-.033l1.043-.631a.228.228,0,0,0-.236-.391l-1.043.631a.228.228,0,0,0,.118.424Zm2.085-1.262a.228.228,0,0,0,.118-.033l1.043-.63a.228.228,0,1,0-.236-.391l-1.042.63a.229.229,0,0,0,.118.424Zm2.085-1.262a.228.228,0,0,0,.118-.033l1.042-.631a.228.228,0,0,0-.237-.391l-1.042.631a.228.228,0,0,0,.119.424Zm2.085-1.261a.227.227,0,0,0,.118-.033l1.043-.631a.229.229,0,0,0-.237-.391l-1.042.631a.228.228,0,0,0,.119.424Zm2.085-1.262a.232.232,0,0,0,.118-.033l1.042-.631a.229.229,0,0,0-.237-.391l-1.042.631a.228.228,0,0,0,.119.424Zm2.085-1.261a.23.23,0,0,0,.118-.033l1.043-.631a.228.228,0,1,0-.237-.391l-1.043.631a.228.228,0,0,0,.119.424Zm2.085-1.261a.227.227,0,0,0,.118-.033l1.042-.631a.229.229,0,1,0-.237-.391l-1.042.631a.229.229,0,0,0,.119.424Zm2.085-1.262a.229.229,0,0,0,.118-.033l1.042-.631a.228.228,0,0,0-.236-.391l-1.042.631a.228.228,0,0,0,.119.424Zm2.085-1.261a.229.229,0,0,0,.118-.033l1.042-.631a.229.229,0,0,0-.237-.391l-1.042.631a.228.228,0,0,0,.119.424Zm2.085-1.261a.226.226,0,0,0,.118-.033l1.042-.631a.228.228,0,0,0-.237-.391l-1.043.631a.229.229,0,0,0,.119.424Zm2.085-1.262a.23.23,0,0,0,.118-.033l1.043-.631a.229.229,0,1,0-.237-.391l-1.042.631a.228.228,0,0,0,.119.424Zm2.085-1.261a.227.227,0,0,0,.118-.033l1.042-.631a.228.228,0,1,0-.236-.391l-1.043.631a.228.228,0,0,0,.118.424Zm2.085-1.261a.228.228,0,0,0,.118-.033l1.042-.631a.229.229,0,0,0-.237-.391l-1.042.631a.228.228,0,0,0,.119.424Zm2.085-1.262a.23.23,0,0,0,.118-.033l1.042-.631a.229.229,0,1,0-.237-.391l-1.042.631a.228.228,0,0,0,.119.424Zm2.085-1.261a.228.228,0,0,0,.118-.033l1.042-.63a.228.228,0,1,0-.237-.391l-1.042.631a.228.228,0,0,0,.119.424Zm2.085-1.262a.224.224,0,0,0,.117-.033l1.043-.631a.228.228,0,0,0-.236-.391l-1.043.631a.228.228,0,0,0,.118.424Zm2.085-1.262a.23.23,0,0,0,.118-.033l1.042-.631a.228.228,0,0,0-.236-.391l-1.042.631a.228.228,0,0,0,.118.424Zm2.085-1.261a.227.227,0,0,0,.118-.033l1.043-.631a.228.228,0,1,0-.237-.391l-1.042.63a.229.229,0,0,0,.119.424Zm2.085-1.262a.23.23,0,0,0,.118-.033l1.042-.631a.229.229,0,0,0-.237-.391l-1.042.631a.228.228,0,0,0,.119.424Zm2.085-1.261a.23.23,0,0,0,.118-.033l1.042-.63a.229.229,0,0,0-.237-.391l-1.042.631a.228.228,0,0,0,.119.424Zm2.085-1.261a.23.23,0,0,0,.118-.033l1.042-.631a.229.229,0,0,0-.237-.391l-1.043.631a.228.228,0,0,0,.119.424Zm2.085-1.261a.227.227,0,0,0,.118-.033l1.043-.631a.228.228,0,0,0-.236-.391l-1.043.631a.228.228,0,0,0,.119.424Zm2.085-1.262a.231.231,0,0,0,.118-.033l1.042-.631a.229.229,0,1,0-.237-.391l-1.042.631a.229.229,0,0,0,.119.424Zm2.085-1.261a.23.23,0,0,0,.118-.033l1.042-.631a.228.228,0,0,0-.237-.391l-1.042.631a.228.228,0,0,0,.119.424Zm2.085-1.262a.228.228,0,0,0,.118-.033l1.042-.631a.229.229,0,1,0-.237-.391l-1.042.631a.228.228,0,0,0,.119.424Zm2.084-1.262a.229.229,0,0,0,.118-.033l1.043-.631a.229.229,0,0,0-.237-.391l-1.043.631a.228.228,0,0,0,.119.424Zm2.085-1.261a.228.228,0,0,0,.118-.033l1.042-.631a.228.228,0,1,0-.237-.391l-1.043.631a.228.228,0,0,0,.119.424Zm2.085-1.262a.228.228,0,0,0,.118-.033l1.042-.631a.229.229,0,1,0-.237-.391l-1.042.631a.228.228,0,0,0,.119.424Zm2.085-1.261a.23.23,0,0,0,.118-.033l1.042-.631a.228.228,0,1,0-.237-.391l-1.042.63a.228.228,0,0,0,.119.424Zm2.085-1.261a.227.227,0,0,0,.118-.033l1.042-.631a.229.229,0,1,0-.237-.391l-1.042.631a.228.228,0,0,0,.119.424Zm2.085-1.262a.229.229,0,0,0,.118-.033l1.042-.63a.228.228,0,0,0-.236-.391l-1.043.63a.228.228,0,0,0,.119.424Zm2.085-1.262a.227.227,0,0,0,.117-.033l1.043-.631a.228.228,0,1,0-.236-.391l-1.042.631a.228.228,0,0,0,.119.424Zm2.085-1.261a.228.228,0,0,0,.118-.033l1.042-.631a.228.228,0,1,0-.237-.391l-1.042.63a.228.228,0,0,0,.119.424Zm2.085-1.262a.23.23,0,0,0,.118-.033l1.042-.631a.228.228,0,0,0-.237-.391l-1.042.631a.228.228,0,0,0,.119.424Zm2.085-1.261a.23.23,0,0,0,.118-.033l1.042-.631a.229.229,0,0,0-.237-.391l-1.042.631a.229.229,0,0,0,.119.424Zm2.084-1.262a.225.225,0,0,0,.118-.033l1.043-.63a.228.228,0,1,0-.236-.391l-1.043.631a.228.228,0,0,0,.118.424Zm2.085-1.262a.229.229,0,0,0,.118-.033l1.042-.631a.228.228,0,1,0-.236-.391l-1.042.63a.228.228,0,0,0,.118.424Zm2.085-1.261a.23.23,0,0,0,.118-.033l1.042-.631a.228.228,0,0,0-.237-.391l-1.043.63a.229.229,0,0,0,.119.424Zm2.085-1.261a.229.229,0,0,0,.118-.033l1.042-.631a.228.228,0,0,0-.237-.391l-1.042.631a.229.229,0,0,0,.119.424Zm2.085-1.262a.228.228,0,0,0,.118-.033l1.042-.631a.229.229,0,1,0-.237-.391l-1.042.631a.228.228,0,0,0,.119.424Zm2.085-1.261a.23.23,0,0,0,.118-.033l1.042-.631a.228.228,0,1,0-.237-.391l-1.042.631a.229.229,0,0,0,.119.424Zm2.085-1.262a.228.228,0,0,0,.118-.033l1.042-.631a.228.228,0,0,0-.237-.391l-1.043.631a.228.228,0,0,0,.119.424Zm2.085-1.262a.227.227,0,0,0,.118-.033l1.042-.631a.228.228,0,1,0-.236-.391l-1.042.631a.228.228,0,0,0,.119.424Zm2.085-1.261a.232.232,0,0,0,.118-.033l1.042-.631a.229.229,0,0,0-.237-.391l-1.042.631a.229.229,0,0,0,.119.424Zm2.085-1.261a.226.226,0,0,0,.118-.033l1.042-.631a.229.229,0,0,0-.237-.391l-1.042.631a.229.229,0,0,0,.119.424Zm2.085-1.262a.229.229,0,0,0,.118-.033l1.043-.631a.229.229,0,1,0-.237-.391l-1.042.631a.228.228,0,0,0,.119.424Zm2.085-1.261a.228.228,0,0,0,.118-.033l1.042-.63a.228.228,0,0,0-.236-.391l-1.043.63a.229.229,0,0,0,.118.424Zm2.085-1.261a.229.229,0,0,0,.118-.033l1.042-.631a.228.228,0,1,0-.237-.391l-1.042.631a.228.228,0,0,0,.119.424Zm2.085-1.262a.23.23,0,0,0,.118-.033l1.042-.631a.229.229,0,1,0-.237-.391l-1.042.631a.228.228,0,0,0,.119.424Zm2.085-1.261a.232.232,0,0,0,.118-.033l1.042-.631a.229.229,0,0,0-.237-.391l-1.042.631a.228.228,0,0,0,.119.424Zm2.084-1.261a.225.225,0,0,0,.118-.033l1.043-.63a.228.228,0,0,0-.236-.391l-1.043.631a.229.229,0,0,0,.118.424Zm2.085-1.262a.23.23,0,0,0,.118-.033l1.042-.631a.228.228,0,0,0-.236-.391l-1.043.631a.228.228,0,0,0,.118.424Zm2.085-1.261a.228.228,0,0,0,.118-.033l1.042-.631a.228.228,0,0,0-.237-.391l-1.042.63a.228.228,0,0,0,.119.424Zm2.085-1.261a.229.229,0,0,0,.118-.033l1.042-.631a.228.228,0,0,0-.237-.391l-1.042.631a.229.229,0,0,0,.119.424Zm2.085-1.262a.229.229,0,0,0,.118-.033l1.042-.631a.228.228,0,0,0-.237-.391l-1.042.631a.229.229,0,0,0,.119.424Z" transform="translate(-1986.3 -1089.327)" fill="#fff"/>
          <path id="Trazado_1874" data-name="Trazado 1874" d="M1999.088,1156.109a.227.227,0,0,0,.106-.026l1.079-.567a.229.229,0,0,0-.212-.4l-1.079.567a.229.229,0,0,0,.106.431Zm2.157-1.134a.226.226,0,0,0,.106-.026l1.079-.567a.228.228,0,0,0-.212-.4l-1.079.567a.228.228,0,0,0,.106.431Zm2.157-1.134a.227.227,0,0,0,.106-.026l1.079-.567a.228.228,0,0,0-.212-.4l-1.079.567a.229.229,0,0,0,.106.431Zm2.157-1.134a.224.224,0,0,0,.106-.026l1.079-.567a.228.228,0,0,0-.212-.4l-1.078.567a.228.228,0,0,0,.106.431Zm2.157-1.134a.228.228,0,0,0,.106-.026l1.079-.567a.228.228,0,1,0-.212-.4l-1.079.567a.229.229,0,0,0,.106.431Zm2.157-1.134a.227.227,0,0,0,.106-.026l1.078-.567a.228.228,0,1,0-.212-.4l-1.079.567a.229.229,0,0,0,.106.431Zm2.157-1.134a.225.225,0,0,0,.106-.026l1.079-.567a.228.228,0,0,0-.212-.4l-1.079.567a.229.229,0,0,0,.106.431Zm2.157-1.134a.226.226,0,0,0,.106-.026l1.079-.567a.228.228,0,1,0-.212-.4l-1.079.567a.228.228,0,0,0,.106.431Zm2.157-1.134a.226.226,0,0,0,.106-.026l1.078-.567a.228.228,0,0,0-.213-.4l-1.078.567a.228.228,0,0,0,.107.431Zm2.157-1.134a.226.226,0,0,0,.106-.026l1.079-.567a.229.229,0,1,0-.212-.4l-1.079.567a.228.228,0,0,0,.106.431Zm2.157-1.134a.224.224,0,0,0,.106-.026l1.079-.567a.228.228,0,1,0-.213-.4l-1.078.567a.228.228,0,0,0,.106.431Zm2.157-1.134a.226.226,0,0,0,.106-.026l1.078-.566a.229.229,0,0,0-.212-.4l-1.078.567a.228.228,0,0,0,.106.431Zm2.157-1.134a.226.226,0,0,0,.106-.026l1.079-.567a.229.229,0,1,0-.213-.4l-1.078.567a.228.228,0,0,0,.106.431Zm2.157-1.134a.23.23,0,0,0,.106-.026l1.078-.567a.228.228,0,1,0-.212-.4l-1.079.567a.229.229,0,0,0,.106.431Zm2.157-1.134a.227.227,0,0,0,.106-.026l1.078-.567a.228.228,0,1,0-.212-.4l-1.078.567a.228.228,0,0,0,.106.431Zm2.157-1.133a.228.228,0,0,0,.106-.026l1.079-.567a.228.228,0,0,0-.212-.4l-1.078.567a.229.229,0,0,0,.106.431Zm2.157-1.134a.226.226,0,0,0,.106-.026l1.078-.567a.228.228,0,1,0-.212-.4l-1.078.567a.228.228,0,0,0,.107.431Zm2.157-1.134a.228.228,0,0,0,.106-.026l1.078-.567a.228.228,0,1,0-.212-.4l-1.078.567a.229.229,0,0,0,.106.431Zm2.157-1.134a.227.227,0,0,0,.106-.026l1.078-.567a.229.229,0,1,0-.212-.4l-1.078.567a.228.228,0,0,0,.106.431Zm2.157-1.133a.228.228,0,0,0,.106-.026l1.079-.567a.228.228,0,1,0-.213-.4l-1.079.567a.229.229,0,0,0,.106.431Zm2.157-1.134a.226.226,0,0,0,.106-.026l1.078-.567a.229.229,0,0,0-.212-.4l-1.078.567a.228.228,0,0,0,.106.431Zm2.157-1.133a.227.227,0,0,0,.106-.026l1.078-.567a.228.228,0,1,0-.212-.4l-1.078.567a.228.228,0,0,0,.106.431Zm2.157-1.134a.229.229,0,0,0,.106-.026l1.078-.567a.229.229,0,1,0-.212-.4l-1.078.567a.229.229,0,0,0,.106.431Zm2.157-1.134a.223.223,0,0,0,.106-.026l1.078-.567a.228.228,0,1,0-.212-.4l-1.078.567a.228.228,0,0,0,.106.431Zm2.157-1.134a.228.228,0,0,0,.106-.026l1.079-.567a.229.229,0,0,0-.212-.4l-1.079.567a.229.229,0,0,0,.107.431Zm2.157-1.134a.224.224,0,0,0,.106-.026l1.079-.567a.228.228,0,1,0-.212-.4l-1.078.567a.228.228,0,0,0,.106.431Zm2.157-1.134a.228.228,0,0,0,.106-.026l1.078-.567a.229.229,0,0,0-.213-.4l-1.078.567a.229.229,0,0,0,.107.431Zm2.157-1.134a.226.226,0,0,0,.106-.026l1.079-.567a.228.228,0,0,0-.212-.4l-1.079.567a.228.228,0,0,0,.106.431Zm2.157-1.134a.228.228,0,0,0,.106-.026l1.079-.567a.229.229,0,0,0-.213-.4l-1.079.567a.229.229,0,0,0,.106.431Zm2.157-1.134a.224.224,0,0,0,.106-.026l1.079-.566a.229.229,0,0,0-.213-.4l-1.078.567a.228.228,0,0,0,.106.431Zm2.157-1.134a.227.227,0,0,0,.106-.026l1.079-.567a.228.228,0,1,0-.212-.4l-1.079.567a.229.229,0,0,0,.106.431Zm2.157-1.134a.222.222,0,0,0,.106-.026l1.079-.567a.229.229,0,0,0-.212-.4l-1.079.567a.228.228,0,0,0,.106.431Zm2.157-1.134a.225.225,0,0,0,.106-.026l1.079-.567a.228.228,0,1,0-.212-.4l-1.079.567a.229.229,0,0,0,.107.431Zm2.157-1.134a.224.224,0,0,0,.106-.026l1.079-.567a.229.229,0,0,0-.213-.4l-1.079.567a.228.228,0,0,0,.107.431Zm2.157-1.134a.223.223,0,0,0,.105-.026l1.079-.567a.228.228,0,0,0-.213-.4l-1.078.567a.228.228,0,0,0,.106.431Zm2.157-1.134a.229.229,0,0,0,.106-.026l1.078-.567a.228.228,0,1,0-.212-.4l-1.078.567a.228.228,0,0,0,.106.431Zm2.157-1.134a.227.227,0,0,0,.106-.026l1.079-.567a.228.228,0,1,0-.212-.4l-1.079.567a.228.228,0,0,0,.106.431Zm2.157-1.134a.227.227,0,0,0,.106-.026l1.079-.567a.229.229,0,0,0-.212-.4l-1.079.567a.229.229,0,0,0,.107.431Zm2.157-1.134a.225.225,0,0,0,.105-.026l1.079-.567a.228.228,0,0,0-.212-.4l-1.078.567a.228.228,0,0,0,.106.431Zm2.157-1.134a.227.227,0,0,0,.106-.026l1.078-.567a.228.228,0,1,0-.212-.4l-1.079.567a.228.228,0,0,0,.107.431Zm2.157-1.134a.227.227,0,0,0,.106-.026l1.078-.567a.229.229,0,1,0-.212-.4l-1.079.567a.228.228,0,0,0,.106.431Zm2.157-1.134a.228.228,0,0,0,.106-.026l1.078-.567a.228.228,0,1,0-.212-.4l-1.078.567a.229.229,0,0,0,.106.431Zm2.157-1.134a.226.226,0,0,0,.106-.026l1.078-.567a.229.229,0,1,0-.212-.4l-1.078.567a.228.228,0,0,0,.106.431Zm2.157-1.134a.227.227,0,0,0,.106-.026l1.079-.567a.228.228,0,1,0-.212-.4l-1.078.567a.228.228,0,0,0,.106.431Zm2.157-1.134a.225.225,0,0,0,.106-.026l1.078-.567a.228.228,0,1,0-.212-.4l-1.078.567a.228.228,0,0,0,.106.431Zm2.157-1.134a.231.231,0,0,0,.106-.026l1.078-.567a.228.228,0,1,0-.212-.4l-1.079.567a.228.228,0,0,0,.106.431Zm2.157-1.134a.225.225,0,0,0,.106-.026l1.079-.567a.229.229,0,0,0-.213-.4l-1.078.567a.228.228,0,0,0,.106.431Zm2.157-1.134a.225.225,0,0,0,.106-.026l1.078-.567a.228.228,0,1,0-.212-.4l-1.078.567a.228.228,0,0,0,.106.431Zm2.157-1.134a.23.23,0,0,0,.106-.026l1.078-.567a.229.229,0,0,0-.212-.4l-1.079.567a.228.228,0,0,0,.106.431Zm2.157-1.133a.226.226,0,0,0,.106-.026l1.078-.567a.228.228,0,1,0-.212-.4l-1.079.567a.228.228,0,0,0,.106.431Zm2.157-1.134a.228.228,0,0,0,.106-.026l1.078-.567a.228.228,0,0,0-.212-.4l-1.078.567a.229.229,0,0,0,.106.431Zm2.157-1.134a.226.226,0,0,0,.106-.026l1.078-.567a.228.228,0,0,0-.212-.4l-1.079.567a.228.228,0,0,0,.107.431Zm2.157-1.134a.23.23,0,0,0,.106-.026l1.079-.567a.228.228,0,0,0-.212-.4l-1.079.567a.228.228,0,0,0,.107.431Zm2.157-1.134a.223.223,0,0,0,.106-.026l1.078-.567a.228.228,0,1,0-.212-.4l-1.078.567a.228.228,0,0,0,.106.431Zm2.157-1.134a.227.227,0,0,0,.106-.026l1.079-.567a.228.228,0,0,0-.213-.4l-1.079.566a.229.229,0,0,0,.107.431Zm2.157-1.134a.224.224,0,0,0,.106-.026l1.079-.567a.228.228,0,0,0-.212-.4l-1.079.567a.228.228,0,0,0,.106.431Zm2.157-1.134a.227.227,0,0,0,.106-.026l1.078-.567a.228.228,0,0,0-.212-.4l-1.078.567a.228.228,0,0,0,.106.431Zm2.157-1.134a.226.226,0,0,0,.106-.026l1.079-.567a.229.229,0,1,0-.212-.4l-1.079.567a.228.228,0,0,0,.107.431Zm2.156-1.134a.226.226,0,0,0,.106-.026l1.079-.567a.228.228,0,0,0-.212-.4l-1.079.567a.228.228,0,0,0,.106.431Z" transform="translate(-1998.859 -1089.327)" fill="#fff"/>
        </g>
      </g>
    </g>
  </g>
</svg>
