<svg xmlns="http://www.w3.org/2000/svg" width="926.974" height="405.032" viewBox="0 0 926.974 405.032">
  <g id="Grupo_3725" data-name="Grupo 3725" transform="translate(-4199.146 -1835.273)">
    <rect id="Rectángulo_1088" data-name="Rectángulo 1088" width="926.974" height="405.031" transform="translate(4199.146 1835.273)" fill="#e7e7e7"/>
    <path id="Trazado_2781" data-name="Trazado 2781" d="M4768.54,2021.073H4294.379v-185.8h474.138Z" transform="translate(-2.338 0)" fill="#748c97"/>
    <path id="Trazado_2782" data-name="Trazado 2782" d="M5140.394,1835.273V2189.3l-359.942-168.235v-185.79Z" transform="translate(-14.274 0)" fill="#aab9c0"/>
    <path id="Trazado_2783" data-name="Trazado 2783" d="M4199.147,1835.273V2125.58l92.894-104.507v-185.8Z" transform="translate(-0.001 0)" fill="#aab9c0"/>
    <rect id="Rectángulo_1089" data-name="Rectángulo 1089" width="70.625" height="78.26" transform="translate(4332.762 1869.631)" fill="#6a828d"/>
    <rect id="Rectángulo_1090" data-name="Rectángulo 1090" width="63.144" height="21.577" transform="translate(4336.502 1873.213)" fill="#8196a0"/>
    <rect id="Rectángulo_1091" data-name="Rectángulo 1091" width="63.144" height="21.577" transform="translate(4336.502 1897.973)" fill="#8196a0"/>
    <rect id="Rectángulo_1092" data-name="Rectángulo 1092" width="63.144" height="21.577" transform="translate(4336.502 1922.733)" fill="#8196a0"/>
    <path id="Trazado_2784" data-name="Trazado 2784" d="M4358.544,1883.31a1.87,1.87,0,1,0,0,3.741h26.795a1.87,1.87,0,1,0,0-3.741Z" transform="translate(-3.868 -1.18)" fill="#aab9c0"/>
    <path id="Trazado_2785" data-name="Trazado 2785" d="M4358.544,1908.694a1.871,1.871,0,1,0,0,3.741h26.795a1.871,1.871,0,1,0,0-3.741Z" transform="translate(-3.868 -1.803)" fill="#aab9c0"/>
    <path id="Trazado_2786" data-name="Trazado 2786" d="M4358.544,1934.078a1.87,1.87,0,1,0,0,3.74h26.795a1.87,1.87,0,1,0,0-3.74Z" transform="translate(-3.868 -2.426)" fill="#aab9c0"/>
    <rect id="Rectángulo_1093" data-name="Rectángulo 1093" width="70.625" height="78.26" transform="translate(4411.495 1869.631)" fill="#6a828d"/>
    <rect id="Rectángulo_1094" data-name="Rectángulo 1094" width="63.144" height="21.577" transform="translate(4415.235 1873.213)" fill="#8196a0"/>
    <rect id="Rectángulo_1095" data-name="Rectángulo 1095" width="63.144" height="21.577" transform="translate(4415.235 1897.973)" fill="#8196a0"/>
    <rect id="Rectángulo_1096" data-name="Rectángulo 1096" width="63.144" height="21.577" transform="translate(4415.235 1922.733)" fill="#8196a0"/>
    <path id="Trazado_2787" data-name="Trazado 2787" d="M4439.26,1883.31a1.87,1.87,0,1,0,0,3.741h26.794a1.87,1.87,0,1,0,0-3.741Z" transform="translate(-5.849 -1.18)" fill="#aab9c0"/>
    <path id="Trazado_2788" data-name="Trazado 2788" d="M4439.26,1908.694a1.871,1.871,0,1,0,0,3.741h26.794a1.871,1.871,0,1,0,0-3.741Z" transform="translate(-5.849 -1.803)" fill="#aab9c0"/>
    <path id="Trazado_2789" data-name="Trazado 2789" d="M4439.26,1934.078a1.87,1.87,0,1,0,0,3.74h26.794a1.87,1.87,0,1,0,0-3.74Z" transform="translate(-5.85 -2.426)" fill="#aab9c0"/>
    <rect id="Rectángulo_1097" data-name="Rectángulo 1097" width="117.317" height="26.626" transform="translate(4544.282 1884.87)" fill="#aab9c0"/>
    <path id="Trazado_2790" data-name="Trazado 2790" d="M4581.677,1893.381a6.008,6.008,0,0,0-2.511.517,5.874,5.874,0,0,0-1.945,1.359,6.207,6.207,0,0,0-1.256,2,6.322,6.322,0,0,0-.448,2.374,6.693,6.693,0,0,0,.432,2.391A6.252,6.252,0,0,0,4577.2,1904a6.074,6.074,0,0,0,1.928,1.343,6.567,6.567,0,0,0,5.024,0,6.089,6.089,0,0,0,1.943-1.376,6.247,6.247,0,0,0,1.257-1.98,6.464,6.464,0,0,0,.446-2.39,6.344,6.344,0,0,0-.446-2.375,5.781,5.781,0,0,0-1.239-1.978,5.885,5.885,0,0,0-1.945-1.359A6.051,6.051,0,0,0,4581.677,1893.381Zm49.553.121-5.488,12.13h1.393l1.429-3.184h6.555l1.409,3.184h1.463l-5.488-12.13Zm-70.1.087v12.043h1.326v-9.738l4.387,6.434h.069l4.387-6.452v9.755h1.359v-12.043h-1.376l-4.387,6.571-4.386-6.571Zm29.539,0v12.043h1.359v-4.68h3.44l3.492,4.68h1.669l-3.7-4.92a4.837,4.837,0,0,0,1.308-.415,3.788,3.788,0,0,0,1.032-.722,3.15,3.15,0,0,0,.687-1.032,3.634,3.634,0,0,0,.242-1.36,3.363,3.363,0,0,0-.311-1.462,3.14,3.14,0,0,0-.877-1.135,3.947,3.947,0,0,0-1.377-.739,5.743,5.743,0,0,0-1.789-.258Zm11.438,0v1.255h4.043v10.787h1.376v-10.787h4.043v-1.255Zm11.827,0v7a6.469,6.469,0,0,0,.361,2.254,4.611,4.611,0,0,0,1.014,1.651,4.528,4.528,0,0,0,1.583,1,6.15,6.15,0,0,0,2.048.327,6.04,6.04,0,0,0,2.046-.327,4.225,4.225,0,0,0,1.583-1.016,4.458,4.458,0,0,0,1.032-1.668,6.817,6.817,0,0,0,.362-2.323v-6.9H4622.6v7a4.086,4.086,0,0,1-.981,2.977,4.031,4.031,0,0,1-5.367-.051,4.3,4.3,0,0,1-.964-3.012v-6.915Zm26.431,0v12.043h1.359v-4.68h3.441l3.492,4.68h1.67l-3.7-4.92a4.828,4.828,0,0,0,1.308-.415,3.8,3.8,0,0,0,1.031-.722,3.134,3.134,0,0,0,.689-1.032,3.654,3.654,0,0,0,.24-1.36,3.37,3.37,0,0,0-.31-1.462,3.146,3.146,0,0,0-.877-1.135,3.94,3.94,0,0,0-1.375-.739,5.741,5.741,0,0,0-1.789-.258Zm10.775,0,5.005,7.277v4.766h1.378v-4.782l5-7.26h-1.583l-4.093,6.021-4.061-6.021Zm-69.5,1.049a4.484,4.484,0,0,1,1.894.4,4.762,4.762,0,0,1,1.513,1.066,4.671,4.671,0,0,1,.98,1.583,5.414,5.414,0,0,1,0,3.889,4.86,4.86,0,0,1-.962,1.565,4.562,4.562,0,0,1-1.5,1.066,4.638,4.638,0,0,1-1.892.38,4.583,4.583,0,0,1-1.91-.4,4.8,4.8,0,0,1-1.5-1.066,4.873,4.873,0,0,1-1-1.583,5.454,5.454,0,0,1-.345-1.943,5.321,5.321,0,0,1,.345-1.928,5.032,5.032,0,0,1,.981-1.582,4.4,4.4,0,0,1,1.479-1.05A4.6,4.6,0,0,1,4581.642,1894.638Zm10.386.208h3.715a3.6,3.6,0,0,1,2.271.634,2.082,2.082,0,0,1,.809,1.756,2.344,2.344,0,0,1-.878,1.841,3.122,3.122,0,0,1-.98.482,4.236,4.236,0,0,1-1.237.173h-3.7Zm49.7,0h3.717a3.6,3.6,0,0,1,2.272.634,2.084,2.084,0,0,1,.808,1.756,2.329,2.329,0,0,1-.877,1.841,3.112,3.112,0,0,1-.981.482,4.238,4.238,0,0,1-1.238.173h-3.7Zm-9.875.24,2.735,6.141h-5.49Z" transform="translate(-8.888 -1.427)" fill="#6a828d"/>
    <path id="Trazado_2791" data-name="Trazado 2791" d="M4572.412,2089.827c0,1.83-5.28,3.586-14.678,4.88a311.6,311.6,0,0,1-70.867,0c-9.4-1.294-14.676-3.05-14.676-4.88s5.279-3.586,14.676-4.88a311.634,311.634,0,0,1,70.867,0C4567.131,2086.241,4572.412,2088,4572.412,2089.827Z" transform="translate(-6.705 -6.081)" fill="#cecfcf"/>
    <path id="Trazado_2792" data-name="Trazado 2792" d="M4834.046,2089.827c0,1.83-5.279,3.586-14.677,4.88a275.948,275.948,0,0,1-35.434,2.021c-27.674,0-50.109-3.09-50.109-6.9s22.436-6.9,50.109-6.9a275.82,275.82,0,0,1,35.434,2.021C4828.768,2086.241,4834.046,2088,4834.046,2089.827Z" transform="translate(-13.129 -6.081)" fill="#cecfcf"/>
    <path id="Trazado_2793" data-name="Trazado 2793" d="M4781.64,1971.731c4.235-4.3,11.62-7.925,21.093-6.874.243,4.248-3.067,10.748-2.636,12.4.3,1.164,3.253,4.107,4.755,6.363-6.459-.777-9.206,2.425-13.871,1.276-4.763-1.173-10.707-6.643-9.975-7.19-.161,3.15-.823,7.712-3.027,9.621-2.721,2.356-6.839,3.675-12.14,4.569a869.59,869.59,0,0,1-106.407,3.365,9.013,9.013,0,0,1-4.283-1.687,4.016,4.016,0,0,1-3.245,2.112c-29.875-.466-59.639-.686-90.005-2.25a3.757,3.757,0,0,1-2.17-1.9c-.525.777-.706,1.738-2.19,2.008,0,0-22.435-1.325-29.08-2.357s-9.619-3.5-9.619-3.5a22.986,22.986,0,0,1-9.24-4.861c-1.341-8.671-.757-20.15.205-24.395,1.315-5.808,6.456-5.159,7.917-2.51,1.337,2.424,4.987,7.6,11.383,9.354,7.141,1.958,25.844,4.689,26.913,4.471,2.057.058,3.522,1.465,4.479,4.024,1.651-1.586,2.077-3.651,6.931-3.98,12.115-.609,25.284-2.291,35.7-1.173,16.45-3.385,35.1-11.642,49.251-9.935,1.028.171,2.072-.039,3.057,1.106,1.734-1.807,3-2.384,4.092-2.53.609-1.827,49.048.657,51.31,3.181,2.954.447,10.957,1.444,13.078-.389,3.629-3.133,9.37-5.827,15.95-7.149,4.191-.842,8.695-.491,13.236.023,6.01.68,12.065,2.124,17.344,6.162C4773.482,1961.416,4776.829,1964.589,4781.64,1971.731Z" transform="translate(-7.604 -2.876)" fill="#fff"/>
    <path id="Trazado_2794" data-name="Trazado 2794" d="M4780.767,1970.777c-15.159-.023-1.653,25.855-60.218,12.047-6.883,2.841-38.205,13.426-65.381-6.592l-1.455.015s-19.479,11.736-52.791,12.16-40.434-8.474-40.434-8.474l-1.171,2.366s-7.491,6.02-15.618,4.875-17.309-3.457-23.483-15.515c-1.812-1.932-1.343-.187-1.282.848.643,10.875-6.855,10.419-6.878,10.425a26.1,26.1,0,0,0,6.987,3.114s2.974,2.464,9.618,3.5,29.081,2.357,29.081,2.357c1.483-.269,1.664-1.231,2.189-2.009a3.758,3.758,0,0,0,2.169,1.9c31.745-.345,59.681-.018,89.556.449a4.015,4.015,0,0,0,3.246-2.112,9.007,9.007,0,0,0,4.282,1.688c39.834-.55,73.071.866,106.857-1.564,5.3-.895,9.42-2.214,12.14-4.57,2.141-1.854,2.823-6.2,3.008-9.337a2.669,2.669,0,0,0,.492.771v-1.441s4.574-1.3,6.869-1.007c4.024.511,11.214,4.718,11.214,4.718s-2.542-2.729-2.542-4.432c0-1.8,2.688-4.68,2.688-4.68a17.45,17.45,0,0,1-4.261,2.508c-4.125,1.1-12.805-.144-12.805-.144Z" transform="translate(-7.683 -3.315)" fill="#e7e7e7"/>
    <path id="Trazado_2795" data-name="Trazado 2795" d="M4560.714,1972.232a2.961,2.961,0,0,1,2.4.474c-1.657,6.8-1.052,13.7-1.148,20.561a3.55,3.55,0,0,1-1.773.022C4559.835,1986.543,4559.129,1979.978,4560.714,1972.232Z" transform="translate(-8.854 -3.361)" fill="#aab9c0"/>
    <path id="Trazado_2796" data-name="Trazado 2796" d="M4742.029,1955.386c-8.588.173-15.843,7.254-19.063,7.185,5.358.576,12.956-7.036,20.8-7.124A15.548,15.548,0,0,0,4742.029,1955.386Zm-69.735,2.573c-2.4.162-12.208-.493-14.326,2.232l-.093,1.273C4660.76,1957.477,4669.574,1958.961,4672.294,1957.959Zm-22.751,2.012a42.623,42.623,0,0,0-8.211.914c3.817-.371,10.916-.8,11.679,1.192l-.243-1.253C4652.376,1960.233,4651.124,1960,4649.542,1959.972Zm15.3,1.17c-2.192.067-5.985.622-6.706,1.4-.2.219-.593.785-.54,1.129.233-1.173,7.409-2.5,8.675-2.443a2.5,2.5,0,0,0-.6-.081C4665.432,1961.133,4665.152,1961.133,4664.839,1961.142Zm-14.628.916a23.975,23.975,0,0,0-3.588.262c1.281.04,5.826.047,6.165.934.014-.346-.446-.863-.669-1.058A8.415,8.415,0,0,0,4650.211,1962.058Zm60.078.336c1.727.839,8.193,2.263,8.646.07C4718.351,1963.213,4711.525,1962.728,4710.289,1962.394Zm61.71,1.294c2.173,1.292,7.431,6.7,7.771,8.807l.018-1.461C4779.085,1969.277,4774.481,1964.162,4772,1963.688Zm-107.683,0a29.63,29.63,0,0,0-6.523.557.892.892,0,0,0-.291.84c.264-1.04,5.974-1.156,7.4-1.373C4664.765,1963.7,4664.562,1963.695,4664.316,1963.692Zm-13.221.411a23.642,23.642,0,0,0-3.5.669c1.447.046,4.441-.794,4.825.208a.893.893,0,0,0-.387-.8,2.312,2.312,0,0,0-.463-.074A4.188,4.188,0,0,0,4651.095,1964.1Zm143.689,2.754c-3.292.052-9.088,2.489-10.185,3.874l-.093,1.273c.522-2.066,7.921-4.774,10.9-5.126A5.538,5.538,0,0,0,4794.784,1966.856Zm-146.851.8a21.678,21.678,0,0,0,4.144.571c.067-.269.188-.331.046-.52C4651.465,1967.693,4648.745,1967.651,4647.933,1967.652Zm9.25.418c-.159.176-.042.249,0,.523a35.646,35.646,0,0,0,5.338-.159C4661.714,1968.363,4657.839,1968.117,4657.183,1968.071Zm-12.515,1.093a49.384,49.384,0,0,0,7.348.858c.092-.374.262-.459.064-.721C4651.169,1969.287,4645.792,1969.162,4644.668,1969.163Zm12.322.381c-.221.244-.06.343,0,.723,1.4-.358,6.055.057,7.4-.22C4663.266,1969.948,4657.9,1969.609,4656.99,1969.545Zm117.181.086c1.245.3,5.693,3.515,5.846,4.452a1.921,1.921,0,0,0-.44-1.173C4778.822,1971.442,4775.185,1969.63,4774.171,1969.63Zm-222.749.819c2.735.8,6.313,1.152,6.654,3.254l.016-1.275C4557.391,1970.672,4553.9,1970.924,4551.422,1970.45Zm26.339.054c-2.513.256-13.473.542-14.325,2.232l-.093,1.272C4563.864,1971.941,4574.966,1971.067,4577.761,1970.5Zm212.988.2a16.218,16.218,0,0,0-6.012,1.393,1.683,1.683,0,0,0-.275,1.129C4784.694,1972.3,4789.481,1970.9,4790.749,1970.7Zm-138.6.462c-.552.019-3.816.1-4.5.137a29.694,29.694,0,0,0,4.48.3C4652.176,1971.375,4652.275,1971.318,4652.148,1971.166Zm4.738.154c-.141.141-.045.207-.021.439a29.906,29.906,0,0,0,4.49.088C4660.68,1971.754,4657.436,1971.386,4656.886,1971.32Zm111.681.172c-.844-.015-1.705.039-2.278.039,1.408.339,4.51.129,4.682,1.187a.889.889,0,0,0-.218-.861A5.363,5.363,0,0,0,4768.567,1971.492Zm-216.516,1.284c1.245.3,5.693,1.233,5.845,2.17a1.906,1.906,0,0,0-.438-1.171A20.764,20.764,0,0,0,4552.051,1972.775Zm19.5.357a46.474,46.474,0,0,0-8.133,1.314c-.2.219-.594.785-.541,1.129C4563.106,1974.654,4570.281,1973.323,4571.547,1973.132Zm212.751.928c-.159.176-.042.247,0,.521a35.659,35.659,0,0,0,5.339-.159C4788.829,1974.351,4784.954,1974.107,4784.3,1974.06Zm-11.6,1.05a49.118,49.118,0,0,0,7.348.859c.093-.373.263-.458.064-.72C4779.2,1975.235,4773.826,1975.109,4772.7,1975.109Zm11.583.139c-.22.243-.058.344,0,.724,1.4-.358,6.056.057,7.4-.22C4790.562,1975.653,4785.193,1975.312,4784.286,1975.248Zm-229.03.184c-.845-.015-1.706.039-2.279.039,1.407.339,4.509.128,4.681,1.187a.9.9,0,0,0-.217-.862A5.37,5.37,0,0,0,4555.255,1975.432Zm10.989.608a11.093,11.093,0,0,0-3.134.3.9.9,0,0,0-.292.842c.264-1.041,5.187-.82,6.617-1.037C4568.865,1976.1,4567.55,1976.034,4566.245,1976.04Zm217.956.647c-.139.141-.045.207-.019.438a29.886,29.886,0,0,0,4.489.089C4788,1977.12,4784.751,1976.753,4784.2,1976.687Zm-4.431.086c-.552.018-3.816.1-4.5.138a29.827,29.827,0,0,0,4.479.3C4779.8,1976.982,4779.9,1976.925,4779.77,1976.773Zm4.562.9a.939.939,0,0,0,.023.934,9.021,9.021,0,0,0,4.151,1.565C4787.141,1979.5,4784.262,1978.8,4784.331,1977.675Zm-4.824.216a37.524,37.524,0,0,1-6.948,3.707c3.234-.465,5.611-2.292,6.871-2.819C4779.694,1978.484,4779.581,1978.349,4779.507,1977.891Zm-122.529.332c-.13.149-.032.208.007.438a29.827,29.827,0,0,0,4.485-.183C4660.791,1978.426,4657.53,1978.256,4656.978,1978.223Zm-4.851.1c-.55.053-3.8.335-4.481.41a29.945,29.945,0,0,0,4.491.029C4652.167,1978.527,4652.264,1978.464,4652.126,1978.319Zm131.962.618a1.056,1.056,0,0,0-.093,1.049c.728,1.105,5.27,3.613,7.8,3.963C4790.015,1983.172,4783.869,1980.188,4784.089,1978.937Zm-230.951.809a21.688,21.688,0,0,0,4.144.571c.067-.27.189-.332.045-.52C4556.67,1979.786,4553.95,1979.746,4553.138,1979.746Zm226.369.02c-2.286,1.708-5.52,6.1-8.54,6.571,3.182.224,7.2-5.155,8.462-5.682C4779.694,1980.36,4779.581,1980.225,4779.507,1979.766Zm-217.3.451c-.16.176-.042.249,0,.523a35.637,35.637,0,0,0,5.337-.159C4566.741,1980.51,4562.866,1980.264,4562.21,1980.217Zm89.937.285c-.553.018-3.817.1-4.5.138a29.8,29.8,0,0,0,4.48.3C4652.175,1980.711,4652.275,1980.654,4652.147,1980.5Zm4.844.208c-.139.141-.046.207-.02.438a29.925,29.925,0,0,0,4.489.089C4660.785,1981.143,4657.542,1980.776,4656.991,1980.71Zm-107.043.621a49.229,49.229,0,0,0,7.348.86c.092-.373.261-.459.062-.721C4556.448,1981.457,4551.071,1981.33,4549.948,1981.331Zm12.006.414c-.221.243-.059.343,0,.723,1.4-.358,6.055.057,7.4-.22C4568.231,1982.149,4562.862,1981.809,4561.954,1981.745Zm217.315.138c-.522,2.066-4.926,7.053-13.315,8.438,8.044-.589,12.04-4.151,13.215-7.061A2.713,2.713,0,0,0,4779.269,1981.882Zm19.12,1.12c-2.011-.01-3.531.946-5.209,1.134,2.2.032,4.938-.926,6.686-.951A6.4,6.4,0,0,0,4798.388,1983Zm-241.373.256c-.552.019-3.816.1-4.5.139a29.942,29.942,0,0,0,4.48.3C4557.043,1983.468,4557.144,1983.411,4557.015,1983.258Zm5,.261c-.141.141-.046.207-.022.438a29.908,29.908,0,0,0,4.49.089C4565.812,1983.953,4562.568,1983.586,4562.019,1983.52Zm-46.644,2.944a32.13,32.13,0,0,0,3.626,1.306c6.346,1.54,10.96.209,14.788.017C4528.365,1986.354,4525.618,1989.084,4515.375,1986.464Zm42.1.189c-.276,1.091-3.681.147-5.184.375,1.2.105,3.76.974,4.877.507A.938.938,0,0,0,4557.479,1986.653Zm4.586.054a.936.936,0,0,0,.229.906c1.073.563,2.869-.118,4.073-.119C4564.891,1987.138,4562.246,1987.82,4562.066,1986.707Zm95.433,1.172a.94.94,0,0,0,.292.887c1.111.484,2.855-.325,4.056-.413C4660.346,1988.1,4657.758,1988.976,4657.5,1987.879Zm-4.618.125c-.2,1.11-4.613.519-6.1.854,1.2.019,4.773.6,5.855.049A.938.938,0,0,0,4652.88,1988Zm-90.771.666a1.058,1.058,0,0,0,.256,1.02c1.209.633,6.586.238,7.943.236C4568.643,1989.526,4562.313,1989.924,4562.109,1988.67Zm-4.667.023c-.311,1.231-4.883.107-6.578.363,1.352.119,4.976,1.157,6.234.63A1.05,1.05,0,0,0,4557.442,1988.694Zm100.315.99a1.055,1.055,0,0,0,.33,1c1.25.545,9.21-.163,10.563-.261C4666.96,1990.141,4658.05,1990.919,4657.757,1989.684Zm-4.69.4c-.221,1.25-8.9.459-10.567.837,1.356.021,9.077.8,10.295.179A1.055,1.055,0,0,0,4653.067,1990.079Zm-94.75.174c-.522,2.065-9.713.161-12.555.59,2.268.2,9.865,1.962,11.978,1.078A1.773,1.773,0,0,0,4558.317,1990.252Zm3.453.229a1.773,1.773,0,0,0,.431,1.713c2.028,1.063,11.007-.186,13.283-.188C4572.69,1991.332,4562.005,1993.54,4561.77,1990.482Zm96.154,1.033a1.775,1.775,0,0,0,.554,1.677c2.1.914,10.41-.615,12.681-.78C4668.323,1991.941,4658.416,1993.587,4657.924,1991.515Zm-4.209.432c-.373,2.1-9.678.859-12.481,1.492,2.276.035,9.979,1.248,12.023.214A1.776,1.776,0,0,0,4653.715,1991.947Z" transform="translate(-7.765 -2.949)" fill="#aab9c0"/>
    <path id="Trazado_2797" data-name="Trazado 2797" d="M4658.131,1958.95c1.272-.277,1.666-.486,2.311-.187-2.411,6.691-.945,29.178-.4,36.137a3.563,3.563,0,0,1-1.774.021C4656.706,1987.862,4655.164,1966.407,4658.131,1958.95Z" transform="translate(-11.229 -3.029)" fill="#aab9c0"/>
    <path id="Trazado_2798" data-name="Trazado 2798" d="M4787.236,1970.55c1.094,3.911.507,5.379.3,9.732a3.652,3.652,0,0,0,1.811.1c.091-2.32,1.062-6.11.414-9.692A2.788,2.788,0,0,0,4787.236,1970.55Z" transform="translate(-14.441 -3.316)" fill="#aab9c0"/>
    <path id="Trazado_2799" data-name="Trazado 2799" d="M4518.912,2000.01v5.552l268.255,64.1v-5.553Z" transform="translate(-7.852 -4.045)" fill="#aab9c0"/>
    <path id="Trazado_2800" data-name="Trazado 2800" d="M4518.911,1998.663v68.483h5.4v-68.483Zm262.854,0v68.483h5.4v-68.483Z" transform="translate(-7.852 -4.012)" fill="#aab9c0"/>
    <path id="Trazado_2801" data-name="Trazado 2801" d="M4787.167,2000.01v5.552l-268.255,64.1v-5.553Z" transform="translate(-7.852 -4.045)" fill="#aab9c0"/>
    <path id="Trazado_2802" data-name="Trazado 2802" d="M4535.746,2077.58a14.428,14.428,0,1,1-4.226-10.2A14.428,14.428,0,0,1,4535.746,2077.58Z" transform="translate(-7.557 -5.596)"/>
    <path id="Trazado_2803" data-name="Trazado 2803" d="M4528.14,2077.777a6.628,6.628,0,1,1-1.941-4.685A6.628,6.628,0,0,1,4528.14,2077.777Z" transform="translate(-7.753 -5.792)" fill="#fca"/>
    <path id="Trazado_2804" data-name="Trazado 2804" d="M4805.216,2077.58a14.428,14.428,0,1,1-4.226-10.2A14.428,14.428,0,0,1,4805.216,2077.58Z" transform="translate(-14.174 -5.596)"/>
    <path id="Trazado_2805" data-name="Trazado 2805" d="M4797.61,2077.777a6.627,6.627,0,1,1-1.941-4.685A6.628,6.628,0,0,1,4797.61,2077.777Z" transform="translate(-14.37 -5.792)" fill="#fca"/>
    <rect id="Rectángulo_1098" data-name="Rectángulo 1098" width="336.283" height="8.402" transform="translate(4476.794 1989.589)" fill="#fca"/>
    <path id="Trazado_2806" data-name="Trazado 2806" d="M4637.245,2148.036c0,2.214-6.385,4.337-17.751,5.9a376.9,376.9,0,0,1-85.71,0c-11.366-1.566-17.75-3.688-17.75-5.9,0-4.61,27.134-8.347,60.606-8.347a333.579,333.579,0,0,1,42.854,2.446C4630.859,2143.7,4637.245,2145.823,4637.245,2148.036Z" transform="translate(-7.781 -7.475)" fill="#cecfcf"/>
    <ellipse id="Elipse_594" data-name="Elipse 594" cx="60.606" cy="8.347" rx="60.606" ry="8.347" transform="translate(4816.916 2132.214)" fill="#cecfcf"/>
    <path id="Trazado_2807" data-name="Trazado 2807" d="M4890.3,2005.207c5.12-5.2,14.053-9.585,25.51-8.315.293,5.138-3.709,13-3.188,15,.367,1.407,3.935,4.967,5.751,7.7-7.812-.94-11.134,2.933-16.776,1.543-5.762-1.419-12.949-8.035-12.064-8.7-.194,3.809-1,9.327-3.661,11.635-3.291,2.849-8.271,4.444-14.683,5.527a1051.823,1051.823,0,0,1-128.694,4.07,10.9,10.9,0,0,1-5.179-2.041,4.857,4.857,0,0,1-3.924,2.554c-36.132-.564-72.132-.83-108.857-2.723a4.536,4.536,0,0,1-2.625-2.293c-.635.941-.854,2.1-2.648,2.428,0,0-27.134-1.6-35.171-2.849s-11.632-4.229-11.632-4.229a27.785,27.785,0,0,1-11.176-5.879c-1.623-10.486-.916-24.37.247-29.5,1.592-7.025,7.809-6.24,9.576-3.036,1.619,2.932,6.031,9.193,13.767,11.313,8.637,2.367,31.259,5.67,32.549,5.407,2.488.07,4.26,1.771,5.42,4.866,1.994-1.918,2.51-4.415,8.381-4.813,14.651-.737,30.579-2.771,43.179-1.419,19.9-4.094,42.45-14.081,59.567-12.017,1.243.207,2.505-.047,3.7,1.338,2.1-2.187,3.622-2.882,4.949-3.06.736-2.21,59.322.794,62.057,3.846,3.573.54,13.251,1.746,15.817-.469,4.389-3.791,11.333-7.05,19.291-8.647,5.069-1.018,10.515-.593,16.007.028,7.269.822,14.593,2.568,20.978,7.452C4880.428,1992.732,4884.477,1996.57,4890.3,2005.207Z" transform="translate(-8.869 -3.599)" fill="#fff"/>
    <path id="Trazado_2808" data-name="Trazado 2808" d="M4889.241,2004.053c-18.335-.027-2,31.27-72.832,14.569-8.324,3.436-46.206,16.238-79.074-7.972l-1.759.019s-23.559,14.194-63.848,14.707-48.9-10.249-48.9-10.249l-1.415,2.861s-9.061,7.282-18.89,5.9-20.934-4.181-28.4-18.765c-2.192-2.337-1.624-.226-1.55,1.025.777,13.153-8.291,12.6-8.319,12.608a31.527,31.527,0,0,0,8.451,3.765s3.6,2.981,11.633,4.229,35.171,2.85,35.171,2.85c1.794-.326,2.013-1.489,2.648-2.429a4.541,4.541,0,0,0,2.624,2.294c38.395-.417,72.182-.021,108.314.543a4.857,4.857,0,0,0,3.925-2.554,10.9,10.9,0,0,0,5.179,2.041c48.177-.665,88.375,1.047,129.238-1.891,6.411-1.082,11.392-2.678,14.682-5.528,2.589-2.242,3.414-7.5,3.638-11.291a3.239,3.239,0,0,0,.6.932v-1.743s5.532-1.569,8.308-1.217c4.866.618,13.563,5.706,13.563,5.706s-3.075-3.3-3.074-5.361c0-2.175,3.25-5.661,3.25-5.661s-3.228,2.521-5.153,3.034c-4.99,1.329-15.488-.175-15.488-.175Z" transform="translate(-8.965 -4.129)" fill="#e7e7e7"/>
    <path id="Trazado_2809" data-name="Trazado 2809" d="M4623.1,2005.814a3.577,3.577,0,0,1,2.9.573c-2,8.222-1.272,16.563-1.388,24.868a4.306,4.306,0,0,1-2.146.025C4622.035,2023.121,4621.181,2015.181,4623.1,2005.814Z" transform="translate(-10.381 -4.185)" fill="#aab9c0"/>
    <path id="Trazado_2810" data-name="Trazado 2810" d="M4842.39,1985.439c-10.388.208-19.163,8.773-23.057,8.689,6.48.7,15.67-8.509,25.154-8.615A18.432,18.432,0,0,0,4842.39,1985.439Zm-84.343,3.113c-2.9.195-14.764-.6-17.326,2.7l-.113,1.539C4744.1,1987.968,4754.758,1989.763,4758.047,1988.552Zm-27.515,2.433a51.521,51.521,0,0,0-9.932,1.106c4.618-.449,13.2-.965,14.125,1.442l-.294-1.516C4733.957,1991.3,4732.443,1991.017,4730.532,1990.984Zm18.5,1.416c-2.651.081-7.238.753-8.11,1.689-.241.266-.719.951-.652,1.366.281-1.419,8.959-3.022,10.491-2.954a3.045,3.045,0,0,0-.728-.1C4749.748,1992.39,4749.41,1992.389,4749.031,1992.4Zm-17.691,1.107a29,29,0,0,0-4.34.317c1.549.049,7.046.057,7.457,1.129.017-.419-.54-1.044-.81-1.28A10.21,10.21,0,0,0,4731.34,1993.508Zm72.66.406c2.089,1.014,9.907,2.737,10.457.086C4813.751,1994.9,4805.5,1994.318,4804,1993.914Zm74.635,1.566c2.628,1.563,8.986,8.109,9.4,10.652l.021-1.767C4887.2,2002.239,4881.637,1996.053,4878.635,1995.479Zm-130.236,0c-2.08-.031-6.764.2-7.89.673a1.08,1.08,0,0,0-.352,1.016c.319-1.258,7.225-1.4,8.956-1.66C4748.94,1995.5,4748.7,1995.488,4748.4,1995.484Zm-15.991.5a28.612,28.612,0,0,0-4.239.81c1.75.054,5.371-.96,5.835.252a1.081,1.081,0,0,0-.469-.969,2.694,2.694,0,0,0-.56-.09A4.97,4.97,0,0,0,4732.408,1995.98Zm173.786,3.33c-3.984.063-10.993,3.01-12.319,4.686l-.112,1.539c.631-2.5,9.579-5.772,13.185-6.2A6.915,6.915,0,0,0,4906.194,1999.311Zm-177.608.963a26.186,26.186,0,0,0,5.011.691c.081-.326.229-.4.055-.629C4732.856,2000.323,4729.565,2000.272,4728.585,2000.273Zm11.187.506c-.191.213-.051.3,0,.632a43.036,43.036,0,0,0,6.456-.192C4745.251,2001.134,4740.563,2000.836,4739.772,2000.78Zm-15.137,1.321a59.625,59.625,0,0,0,8.887,1.039c.112-.452.317-.555.077-.872C4732.5,2002.251,4725.995,2002.1,4724.635,2002.1Zm14.9.461c-.267.294-.071.415,0,.875,1.689-.433,7.323.068,8.943-.267C4747.128,2003.052,4740.635,2002.641,4739.539,2002.562Zm141.723.1c1.506.363,6.885,4.251,7.069,5.385a2.305,2.305,0,0,0-.532-1.418C4886.888,2004.856,4882.488,2002.665,4881.262,2002.666Zm-269.4.991c3.309.972,7.636,1.393,8.048,3.936l.022-1.542C4619.078,2003.927,4614.86,2004.23,4611.858,2003.657Zm31.857.064c-3.041.311-16.3.656-17.327,2.7l-.112,1.538C4626.909,2005.461,4640.335,2004.4,4643.716,2003.722Zm257.594.243c-1.222-.107-5.811.758-7.269,1.684a2.032,2.032,0,0,0-.333,1.366C4893.989,2005.9,4899.779,2004.2,4901.31,2003.965Zm-167.628.558c-.668.023-4.616.125-5.439.167a36.085,36.085,0,0,0,5.418.364C4733.715,2004.776,4733.836,2004.708,4733.682,2004.523Zm5.73.187c-.169.17-.054.25-.024.53a36.149,36.149,0,0,0,5.43.107C4744,2005.234,4740.077,2004.79,4739.412,2004.71Zm135.074.208c-1.022-.018-2.063.047-2.756.047,1.7.411,5.454.155,5.662,1.436a1.078,1.078,0,0,0-.263-1.043A6.487,6.487,0,0,0,4874.486,2004.917Zm-261.865,1.552c1.507.363,6.887,1.491,7.071,2.625a2.318,2.318,0,0,0-.532-1.417A25.159,25.159,0,0,0,4612.621,2006.469Zm23.58.432a56.31,56.31,0,0,0-9.837,1.588c-.24.266-.718.951-.653,1.365C4625.992,2008.742,4634.668,2007.133,4636.2,2006.9Zm257.311,1.121c-.193.213-.053.3,0,.63a42.838,42.838,0,0,0,6.457-.192C4898.991,2008.375,4894.3,2008.079,4893.511,2008.022Zm-14.025,1.27a59.487,59.487,0,0,0,8.887,1.04c.112-.451.317-.555.077-.871C4887.349,2009.445,4880.845,2009.292,4879.486,2009.292Zm14.009.168c-.266.295-.071.417,0,.875,1.689-.433,7.323.069,8.944-.266C4901.085,2009.95,4894.593,2009.538,4893.5,2009.46Zm-277,.222c-1.021-.018-2.062.048-2.756.048,1.7.411,5.454.155,5.662,1.436a1.083,1.083,0,0,0-.262-1.043A6.5,6.5,0,0,0,4616.5,2009.683Zm13.292.735a13.407,13.407,0,0,0-3.79.365,1.082,1.082,0,0,0-.353,1.017c.317-1.257,6.272-.991,8-1.252C4632.957,2010.486,4631.366,2010.411,4629.787,2010.418Zm263.605.782c-.169.17-.055.25-.023.53a36.139,36.139,0,0,0,5.429.107C4897.982,2011.724,4894.058,2011.281,4893.393,2011.2Zm-5.359.1c-.668.022-4.616.126-5.439.167a36.09,36.09,0,0,0,5.418.364C4888.067,2011.557,4888.189,2011.488,4888.034,2011.3Zm5.516,1.091a1.134,1.134,0,0,0,.028,1.129,10.915,10.915,0,0,0,5.02,1.894C4896.949,2014.606,4893.467,2013.756,4893.55,2012.4Zm-5.833.261a45.368,45.368,0,0,1-8.406,4.482c3.913-.563,6.787-2.772,8.31-3.409C4887.943,2013.375,4887.8,2013.211,4887.717,2012.657Zm-148.193.4c-.159.181-.04.253.008.531a36.052,36.052,0,0,0,5.425-.221C4744.135,2013.3,4740.191,2013.1,4739.523,2013.058Zm-5.867.117c-.665.063-4.6.4-5.419.5a36.224,36.224,0,0,0,5.431.035C4733.706,2013.426,4733.821,2013.349,4733.657,2013.175Zm159.6.748a1.275,1.275,0,0,0-.112,1.267c.879,1.338,6.372,4.371,9.428,4.793C4900.424,2019.044,4892.99,2015.434,4893.257,2013.923Zm-279.321.977a26.2,26.2,0,0,0,5.011.69c.082-.326.229-.4.055-.629C4618.207,2014.949,4614.917,2014.9,4613.937,2014.9Zm273.78.025c-2.767,2.066-6.677,7.381-10.329,7.947,3.848.271,8.71-6.235,10.233-6.872C4887.943,2015.644,4887.8,2015.479,4887.717,2014.925Zm-262.81.545c-.192.213-.051.3,0,.632a43.081,43.081,0,0,0,6.456-.192C4630.387,2015.824,4625.7,2015.528,4624.907,2015.47Zm108.773.344c-.668.023-4.617.126-5.439.167a36.111,36.111,0,0,0,5.419.364C4733.714,2016.068,4733.836,2016,4733.681,2015.814Zm5.859.251c-.169.17-.055.25-.025.531a36.157,36.157,0,0,0,5.43.107C4744.128,2016.59,4740.206,2016.146,4739.54,2016.065Zm-129.463.752a59.6,59.6,0,0,0,8.888,1.041c.112-.452.315-.555.075-.872C4617.938,2016.969,4611.435,2016.816,4610.077,2016.817Zm14.521.5c-.266.295-.072.415,0,.874,1.689-.433,7.324.07,8.944-.265C4632.188,2017.807,4625.7,2017.4,4624.6,2017.317Zm262.83.167c-.631,2.5-5.956,8.531-16.1,10.205,9.728-.712,14.562-5.021,15.982-8.539A3.285,3.285,0,0,0,4887.427,2017.484Zm23.124,1.354c-2.432-.012-4.271,1.144-6.3,1.372,2.66.038,5.973-1.12,8.088-1.151A7.74,7.74,0,0,0,4910.551,2018.838Zm-291.926.31c-.669.023-4.616.126-5.439.167a36.129,36.129,0,0,0,5.418.364C4618.657,2019.4,4618.779,2019.333,4618.625,2019.148Zm6.051.316c-.169.171-.056.25-.026.531a36.277,36.277,0,0,0,5.43.106C4629.264,2019.989,4625.34,2019.544,4624.676,2019.464Zm-56.413,3.56a39.023,39.023,0,0,0,4.385,1.58c7.676,1.863,13.257.253,17.886.021C4583.974,2022.893,4580.652,2026.194,4568.263,2023.025Zm50.923.228c-.334,1.322-4.451.178-6.269.454,1.45.127,4.547,1.178,5.9.613A1.132,1.132,0,0,0,4619.186,2023.253Zm5.547.066a1.133,1.133,0,0,0,.276,1.1c1.3.681,3.472-.143,4.927-.144C4628.15,2023.839,4624.952,2024.665,4624.733,2023.319Zm115.42,1.417a1.137,1.137,0,0,0,.353,1.072c1.344.585,3.453-.392,4.906-.5C4743.6,2025.01,4740.467,2026.062,4740.153,2024.737Zm-5.585.151c-.237,1.342-5.579.627-7.373,1.032,1.457.022,5.775.72,7.082.059A1.13,1.13,0,0,0,4734.568,2024.888Zm-109.783.806a1.28,1.28,0,0,0,.31,1.234c1.461.766,7.966.288,9.607.286C4632.688,2026.728,4625.031,2027.209,4624.786,2025.694Zm-5.644.028c-.376,1.489-5.908.13-7.956.439,1.633.143,6.017,1.4,7.54.762A1.274,1.274,0,0,0,4619.142,2025.722Zm121.325,1.2a1.279,1.279,0,0,0,.4,1.209c1.513.659,11.139-.2,12.777-.316C4751.6,2027.472,4740.82,2028.413,4740.466,2026.919Zm-5.673.479c-.268,1.512-10.759.555-12.781,1.011,1.641.025,10.98.963,12.453.218A1.277,1.277,0,0,0,4734.793,2027.4Zm-114.595.209c-.631,2.5-11.746.2-15.184.714,2.743.241,11.93,2.373,14.485,1.3A2.147,2.147,0,0,0,4620.2,2027.606Zm4.177.278a2.144,2.144,0,0,0,.521,2.071c2.453,1.287,13.313-.224,16.065-.227C4637.583,2028.914,4624.66,2031.583,4624.375,2027.885Zm116.292,1.249a2.145,2.145,0,0,0,.669,2.028c2.539,1.106,12.591-.742,15.337-.942C4753.246,2029.649,4741.262,2031.641,4740.668,2029.133Zm-5.092.524c-.449,2.537-11.7,1.039-15.094,1.8,2.753.043,12.069,1.509,14.541.259A2.145,2.145,0,0,0,4735.576,2029.657Z" transform="translate(-9.064 -3.687)" fill="#aab9c0"/>
    <path id="Trazado_2811" data-name="Trazado 2811" d="M4740.919,1989.749c1.539-.336,2.014-.587,2.795-.227-2.916,8.092-1.143,35.291-.479,43.706a4.3,4.3,0,0,1-2.146.026C4739.194,2024.717,4737.332,1998.768,4740.919,1989.749Z" transform="translate(-13.254 -3.783)" fill="#aab9c0"/>
    <path id="Trazado_2812" data-name="Trazado 2812" d="M4897.063,2003.779c1.324,4.729.613,6.505.366,11.771a4.433,4.433,0,0,0,2.191.116c.11-2.806,1.284-7.389.5-11.722A3.372,3.372,0,0,0,4897.063,2003.779Z" transform="translate(-17.138 -4.131)" fill="#aab9c0"/>
    <path id="Trazado_2813" data-name="Trazado 2813" d="M4572.54,2039.408v6.715l324.439,77.521v-6.716Z" transform="translate(-9.169 -5.013)" fill="#aab9c0"/>
    <path id="Trazado_2814" data-name="Trazado 2814" d="M4572.54,2037.779v82.826h6.532v-82.826Zm317.908,0v82.826h6.532v-82.826Z" transform="translate(-9.169 -4.973)" fill="#aab9c0"/>
    <path id="Trazado_2815" data-name="Trazado 2815" d="M4896.979,2039.408v6.715l-324.439,77.521v-6.716Z" transform="translate(-9.169 -5.013)" fill="#aab9c0"/>
    <path id="Trazado_2816" data-name="Trazado 2816" d="M4592.9,2133.225a17.448,17.448,0,1,1-5.11-12.339A17.449,17.449,0,0,1,4592.9,2133.225Z" transform="translate(-8.812 -6.888)"/>
    <path id="Trazado_2817" data-name="Trazado 2817" d="M4583.7,2133.462a8.014,8.014,0,1,1-2.347-5.666A8.02,8.02,0,0,1,4583.7,2133.462Z" transform="translate(-9.049 -7.125)" fill="#fca"/>
    <path id="Trazado_2818" data-name="Trazado 2818" d="M4918.809,2133.225a17.449,17.449,0,1,1-5.11-12.339A17.448,17.448,0,0,1,4918.809,2133.225Z" transform="translate(-16.814 -6.888)"/>
    <path id="Trazado_2819" data-name="Trazado 2819" d="M4909.611,2133.462a8.015,8.015,0,1,1-2.347-5.666A8.014,8.014,0,0,1,4909.611,2133.462Z" transform="translate(-17.052 -7.125)" fill="#fca"/>
    <rect id="Rectángulo_1099" data-name="Rectángulo 1099" width="406.715" height="10.161" transform="translate(4521.929 2026.685)" fill="#fca"/>
    <path id="Trazado_2820" data-name="Trazado 2820" d="M4713.932,2220.969c0,2.745-7.916,5.376-22.006,7.317s-33.2,3.031-53.128,3.031-39.037-1.09-53.127-3.031-22.006-4.572-22.006-7.317c0-5.715,33.638-10.347,75.134-10.347,19.928,0,39.038,1.09,53.128,3.031S4713.932,2218.225,4713.932,2220.969Z" transform="translate(-8.951 -9.217)" fill="#cecfcf"/>
    <path id="Trazado_2821" data-name="Trazado 2821" d="M5106.221,2220.969c0,2.745-7.916,5.376-22.006,7.317s-33.2,3.031-53.127,3.031-39.037-1.09-53.127-3.031-22.007-4.572-22.007-7.317,7.917-5.377,22.007-7.317,33.2-3.031,53.127-3.031,39.038,1.09,53.127,3.031S5106.221,2218.225,5106.221,2220.969Z" transform="translate(-18.584 -9.217)" fill="#cecfcf"/>
    <path id="Trazado_2822" data-name="Trazado 2822" d="M5027.645,2043.9c6.348-6.443,17.422-11.883,31.627-10.308.362,6.371-4.6,16.116-3.954,18.6.453,1.745,4.878,6.158,7.129,9.541-9.685-1.166-13.8,3.636-20.8,1.913-7.142-1.759-16.052-9.961-14.957-10.781-.24,4.722-1.233,11.563-4.538,14.425-4.079,3.532-10.255,5.51-18.2,6.852a1303.98,1303.98,0,0,1-159.546,5.045,13.521,13.521,0,0,1-6.42-2.53c-.866,1.82-2.576,2.787-4.865,3.166-44.794-.7-89.422-1.028-134.952-3.374a5.631,5.631,0,0,1-3.254-2.844c-.788,1.167-1.058,2.606-3.283,3.01,0,0-33.64-1.986-43.6-3.533s-14.42-5.242-14.42-5.242c-5.176-1.543-9.962-3.707-13.854-7.289-2.012-13-1.137-30.212.306-36.576,1.974-8.709,9.679-7.736,11.872-3.763,2.005,3.635,7.476,11.4,17.067,14.025,10.707,2.935,38.75,7.03,40.351,6.7,3.085.087,5.282,2.2,6.719,6.033,2.474-2.377,3.113-5.473,10.392-5.967,18.164-.913,37.908-3.436,53.53-1.759,24.666-5.075,52.625-17.456,73.846-14.9,1.542.256,3.107-.057,4.584,1.659,2.6-2.712,4.49-3.574,6.135-3.793.913-2.74,73.542.984,76.933,4.768,4.429.67,16.428,2.165,19.609-.582,5.44-4.7,14.049-8.739,23.914-10.72,6.285-1.262,13.038-.735,19.845.035,9.011,1.02,18.09,3.184,26.007,9.239C5015.411,2028.434,5020.43,2033.193,5027.645,2043.9Z" transform="translate(-10.299 -4.412)" fill="#fff"/>
    <path id="Trazado_2823" data-name="Trazado 2823" d="M5026.335,2042.471c-22.731-.035-2.478,38.766-90.29,18.061-10.32,4.26-57.283,20.13-98.029-9.884l-2.182.023s-29.207,17.6-79.153,18.232-60.626-12.705-60.626-12.705l-1.754,3.545s-11.233,9.028-23.417,7.309-25.954-5.183-35.211-23.262c-2.716-2.9-2.013-.281-1.922,1.271.963,16.306-10.278,15.621-10.312,15.63a39.055,39.055,0,0,0,10.477,4.668s4.458,3.7,14.421,5.242,43.6,3.534,43.6,3.534c2.225-.4,2.5-1.845,3.283-3.012a5.628,5.628,0,0,0,3.253,2.844c47.6-.517,89.484-.024,134.278.674,2.29-.38,4-1.345,4.866-3.166a13.509,13.509,0,0,0,6.419,2.531c59.728-.826,109.563,1.3,160.22-2.345,7.947-1.341,14.122-3.321,18.2-6.853,3.209-2.779,4.232-9.3,4.509-14a4.022,4.022,0,0,0,.738,1.156V2049.8s6.857-1.946,10.3-1.509c6.034.767,16.816,7.075,16.816,7.075s-3.813-4.093-3.812-6.647c0-2.7,4.029-7.017,4.029-7.017s-4,3.124-6.388,3.76c-6.184,1.647-19.2-.217-19.2-.217Z" transform="translate(-10.419 -5.069)" fill="#e7e7e7"/>
    <path id="Trazado_2824" data-name="Trazado 2824" d="M4696.395,2044.652a4.442,4.442,0,0,1,3.591.709c-2.485,10.194-1.578,20.535-1.721,30.83a5.331,5.331,0,0,1-2.66.032C4695.076,2066.108,4694.017,2056.264,4696.395,2044.652Z" transform="translate(-12.174 -5.138)" fill="#aab9c0"/>
    <path id="Trazado_2825" data-name="Trazado 2825" d="M4968.254,2019.393c-12.878.259-23.755,10.876-28.583,10.773,8.033.863,19.425-10.55,31.184-10.681A23.194,23.194,0,0,0,4968.254,2019.393Zm-104.561,3.859c-3.592.242-18.3-.74-21.479,3.346l-.138,1.908C4846.4,2022.529,4859.614,2024.754,4863.693,2023.252Zm-34.111,3.016a63.916,63.916,0,0,0-12.313,1.372c5.725-.556,16.368-1.2,17.512,1.787l-.364-1.88C4833.828,2026.661,4831.952,2026.309,4829.582,2026.268Zm22.933,1.756c-3.286.1-8.973.933-10.053,2.1-.3.33-.891,1.178-.81,1.692.349-1.76,11.107-3.747,13.006-3.662a3.711,3.711,0,0,0-.9-.122C4853.4,2028.011,4852.985,2028.009,4852.515,2028.024Zm-21.931,1.372a36.188,36.188,0,0,0-5.38.393c1.921.06,8.734.071,9.244,1.4.02-.52-.668-1.294-1-1.586A12.576,12.576,0,0,0,4830.583,2029.4Zm90.079.5c2.588,1.258,12.283,3.393,12.963.106C4932.75,2031.129,4922.516,2030.4,4920.662,2029.9Zm92.526,1.941c3.259,1.937,11.14,10.052,11.652,13.206l.026-2.191C5023.813,2040.221,5016.909,2032.552,5013.188,2031.841Zm-161.457.006c-2.577-.038-8.385.251-9.781.835a1.338,1.338,0,0,0-.436,1.259c.4-1.56,8.956-1.733,11.1-2.058C4852.4,2031.864,4852.1,2031.851,4851.732,2031.847Zm-19.825.615a35.56,35.56,0,0,0-5.254,1c2.17.068,6.659-1.19,7.234.312a1.337,1.337,0,0,0-.582-1.2,3.321,3.321,0,0,0-.694-.111A6.03,6.03,0,0,0,4831.907,2032.462Zm215.446,4.129c-4.938.078-13.626,3.732-15.271,5.809l-.14,1.909c.783-3.1,11.877-7.157,16.346-7.686A8.52,8.52,0,0,0,5047.353,2036.591Zm-220.185,1.193a32.61,32.61,0,0,0,6.213.856c.1-.4.283-.5.068-.779C4832.464,2037.846,4828.385,2037.783,4827.168,2037.784Zm13.87.628c-.239.263-.063.372,0,.783a53.341,53.341,0,0,0,8-.239C4847.83,2038.85,4842.02,2038.483,4841.038,2038.412Zm-18.766,1.637c1.958.617,8.821,1.2,11.017,1.288.139-.559.394-.688.1-1.08C4832.019,2040.235,4823.957,2040.048,4822.272,2040.049Zm18.475.573c-.331.365-.089.515,0,1.083,2.094-.536,9.079.086,11.087-.331C4850.157,2041.228,4842.107,2040.719,4840.747,2040.622Zm175.7.129c1.868.451,8.537,5.271,8.765,6.676a2.873,2.873,0,0,0-.659-1.76C5023.419,2043.466,5017.965,2040.749,5016.444,2040.75Zm-333.984,1.228c4.1,1.206,9.467,1.727,9.978,4.88l.027-1.912C4691.411,2042.312,4686.181,2042.69,4682.46,2041.979Zm39.494.08c-3.769.386-20.2.814-21.48,3.348l-.139,1.907C4701.117,2044.216,4717.762,2042.905,4721.954,2042.058Zm319.346.3c-1.516-.133-7.2.94-9.013,2.087a2.521,2.521,0,0,0-.413,1.693C5032.223,2044.759,5039.4,2042.647,5041.3,2042.36Zm-207.813.692c-.828.028-5.722.155-6.743.207a44.838,44.838,0,0,0,6.717.451C4833.528,2043.367,4833.679,2043.281,4833.487,2043.052Zm7.1.231c-.209.212-.067.31-.03.657a44.813,44.813,0,0,0,6.731.133C4846.279,2043.934,4841.415,2043.383,4840.591,2043.284Zm167.453.257c-1.267-.021-2.558.058-3.417.06,2.109.508,6.762.191,7.02,1.779a1.34,1.34,0,0,0-.327-1.293A8.045,8.045,0,0,0,5008.044,2043.541Zm-324.639,1.925c1.867.45,8.537,1.85,8.765,3.255a2.873,2.873,0,0,0-.659-1.758C4690.155,2046.253,4684.927,2045.464,4683.405,2045.466Zm29.231.535a69.743,69.743,0,0,0-12.2,1.969c-.3.33-.89,1.178-.81,1.692C4699.981,2048.283,4710.737,2046.288,4712.636,2046Zm318.994,1.39c-.237.263-.064.371,0,.781a53.444,53.444,0,0,0,8-.238C5038.425,2047.828,5032.614,2047.461,5031.63,2047.391Zm-17.387,1.574c1.958.616,8.823,1.206,11.018,1.29.14-.56.394-.689.1-1.081C5023.992,2049.154,5015.928,2048.964,5014.243,2048.965Zm17.369.207c-.331.366-.089.517,0,1.086,2.093-.536,9.078.086,11.087-.331C5041.021,2049.781,5032.971,2049.27,5031.612,2049.172Zm-343.4.277c-1.266-.022-2.557.058-3.417.059,2.11.508,6.761.191,7.018,1.779a1.343,1.343,0,0,0-.325-1.292A8.04,8.04,0,0,0,4688.208,2049.449Zm16.479.912a16.61,16.61,0,0,0-4.7.451,1.344,1.344,0,0,0-.437,1.261c.394-1.56,7.776-1.229,9.922-1.553C4708.615,2050.446,4706.644,2050.353,4704.687,2050.361Zm326.8.969c-.208.212-.067.31-.029.657a44.886,44.886,0,0,0,6.732.133C5037.172,2051.98,5032.309,2051.429,5031.484,2051.33Zm-6.644.129c-.828.028-5.723.156-6.744.207a44.8,44.8,0,0,0,6.717.451C5024.881,2051.773,5025.033,2051.688,5024.84,2051.459Zm6.839,1.354a1.4,1.4,0,0,0,.036,1.4,13.515,13.515,0,0,0,6.223,2.348C5035.893,2055.552,5031.577,2054.5,5031.679,2052.813Zm-7.232.323a56.242,56.242,0,0,1-10.42,5.557c4.85-.7,8.414-3.437,10.3-4.225C5024.727,2054.026,5024.556,2053.823,5024.447,2053.135Zm-183.72.5c-.194.223-.047.312.011.657a44.834,44.834,0,0,0,6.726-.275C4846.445,2053.938,4841.557,2053.683,4840.728,2053.634Zm-7.271.144c-.826.078-5.7.5-6.719.614a44.772,44.772,0,0,0,6.732.044C4833.517,2054.088,4833.66,2053.995,4833.457,2053.778Zm197.859.927a1.586,1.586,0,0,0-.139,1.572c1.092,1.658,7.9,5.418,11.688,5.942C5040.2,2061.054,5030.985,2056.58,5031.315,2054.7Zm-346.28,1.212a32.45,32.45,0,0,0,6.213.855c.1-.4.283-.5.068-.779C4690.331,2055.977,4686.251,2055.916,4685.035,2055.917Zm339.412.031c-3.429,2.56-8.277,9.151-12.8,9.852,4.77.336,10.8-7.731,12.687-8.52C5024.727,2056.839,5024.556,2056.635,5024.447,2055.948Zm-325.811.676c-.238.264-.063.373,0,.783a53.243,53.243,0,0,0,8-.238C4705.43,2057.063,4699.62,2056.694,4698.637,2056.624Zm134.849.427c-.829.028-5.722.156-6.744.208a44.879,44.879,0,0,0,6.717.451C4833.526,2057.365,4833.679,2057.279,4833.485,2057.05Zm7.264.312c-.21.211-.068.309-.03.657a44.844,44.844,0,0,0,6.731.132C4846.438,2058.012,4841.574,2057.461,4840.75,2057.362Zm-160.5.933c1.959.615,8.823,1.2,11.019,1.288.139-.559.391-.688.093-1.08C4690,2058.482,4681.936,2058.293,4680.25,2058.295Zm18,.618c-.33.366-.088.515,0,1.085,2.094-.538,9.079.087,11.088-.329C4707.664,2059.522,4699.614,2059.011,4698.252,2058.913Zm325.836.208c-.782,3.1-7.384,10.575-19.963,12.651,12.061-.883,18.052-6.224,19.814-10.586A4.083,4.083,0,0,0,5024.088,2059.121Zm28.666,1.679c-3.014-.015-5.293,1.418-7.809,1.7,3.3.048,7.405-1.387,10.026-1.426A9.569,9.569,0,0,0,5052.754,2060.8Zm-361.907.384c-.828.028-5.722.156-6.743.207a44.843,44.843,0,0,0,6.717.45C4690.889,2061.5,4691.041,2061.413,4690.848,2061.184Zm7.5.391c-.209.212-.069.31-.031.658a44.8,44.8,0,0,0,6.73.132C4704.037,2062.226,4699.174,2061.676,4698.35,2061.575Zm-69.935,4.414a48.26,48.26,0,0,0,5.436,1.959c9.516,2.31,16.434.313,22.174.025C4647.891,2065.826,4643.772,2069.918,4628.415,2065.989Zm63.128.284c-.414,1.638-5.517.221-7.771.562,1.8.158,5.637,1.461,7.313.76A1.407,1.407,0,0,0,4691.543,2066.273Zm6.878.082a1.41,1.41,0,0,0,.343,1.359c1.608.843,4.3-.177,6.108-.179C4702.656,2067,4698.691,2068.022,4698.421,2066.355Zm143.088,1.757a1.409,1.409,0,0,0,.438,1.33c1.665.725,4.28-.487,6.081-.617C4845.78,2068.45,4841.9,2069.755,4841.509,2068.111Zm-6.923.188c-.294,1.663-6.917.777-9.141,1.279,1.805.027,7.159.893,8.778.073A1.4,1.4,0,0,0,4834.586,2068.3Zm-136.1,1a1.584,1.584,0,0,0,.384,1.529c1.813.95,9.874.357,11.909.355C4708.282,2070.58,4698.79,2071.177,4698.486,2069.3Zm-7,.034c-.466,1.845-7.324.161-9.863.545,2.026.178,7.46,1.735,9.348.945A1.58,1.58,0,0,0,4691.488,2069.333Zm150.41,1.485a1.582,1.582,0,0,0,.494,1.5c1.876.818,13.81-.243,15.839-.391C4855.7,2071.5,4842.336,2072.669,4841.9,2070.817Zm-7.033.593c-.332,1.874-13.338.689-15.844,1.255,2.034.031,13.612,1.193,15.438.269A1.58,1.58,0,0,0,4834.864,2071.41Zm-142.064.26c-.782,3.1-14.562.241-18.824.886,3.4.3,14.79,2.941,17.958,1.615A2.658,2.658,0,0,0,4692.8,2071.67Zm5.178.344a2.657,2.657,0,0,0,.646,2.567c3.041,1.595,16.5-.279,19.917-.282C4714.35,2073.29,4698.33,2076.6,4697.978,2072.014Zm144.17,1.548a2.66,2.66,0,0,0,.829,2.514c3.149,1.371,15.61-.92,19.015-1.169C4857.74,2074.2,4842.885,2076.671,4842.148,2073.562Zm-6.312.649c-.558,3.146-14.508,1.289-18.712,2.238,3.413.053,14.963,1.87,18.027.32A2.662,2.662,0,0,0,4835.836,2074.211Z" transform="translate(-10.541 -4.521)" fill="#aab9c0"/>
    <path id="Trazado_2826" data-name="Trazado 2826" d="M4842.459,2024.737c1.908-.416,2.5-.729,3.465-.282-3.615,10.032-1.417,43.75-.594,54.183a5.324,5.324,0,0,1-2.66.032C4840.321,2068.086,4838.011,2035.918,4842.459,2024.737Z" transform="translate(-15.735 -4.64)" fill="#aab9c0"/>
    <path id="Trazado_2827" data-name="Trazado 2827" d="M5036.035,2042.129c1.64,5.864.76,8.065.454,14.593a5.491,5.491,0,0,0,2.717.145c.135-3.479,1.59-9.161.619-14.532A4.183,4.183,0,0,0,5036.035,2042.129Z" transform="translate(-20.55 -5.071)" fill="#aab9c0"/>
    <path id="Trazado_2828" data-name="Trazado 2828" d="M4633.716,2086.3v8.325l402.215,96.105V2182.4Z" transform="translate(-10.671 -6.164)" fill="#aab9c0"/>
    <path id="Trazado_2829" data-name="Trazado 2829" d="M4633.715,2084.281v102.681h8.1V2084.281Zm394.117,0v102.681h8.1V2084.281Z" transform="translate(-10.671 -6.115)" fill="#aab9c0"/>
    <path id="Trazado_2830" data-name="Trazado 2830" d="M5035.931,2086.3v8.325l-402.215,96.105V2182.4Z" transform="translate(-10.671 -6.164)" fill="#aab9c0"/>
    <path id="Trazado_2831" data-name="Trazado 2831" d="M4658.955,2202.608a21.633,21.633,0,1,1-6.336-15.3A21.632,21.632,0,0,1,4658.955,2202.608Z" transform="translate(-10.229 -8.489)"/>
    <path id="Trazado_2832" data-name="Trazado 2832" d="M4647.552,2202.9a9.934,9.934,0,1,1-2.91-7.026A9.934,9.934,0,0,1,4647.552,2202.9Z" transform="translate(-10.523 -8.783)" fill="#fca"/>
    <path id="Trazado_2833" data-name="Trazado 2833" d="M5062.993,2202.608a21.633,21.633,0,1,1-6.336-15.3A21.632,21.632,0,0,1,5062.993,2202.608Z" transform="translate(-20.15 -8.489)"/>
    <path id="Trazado_2834" data-name="Trazado 2834" d="M5051.589,2202.9a9.934,9.934,0,1,1-2.91-7.026A9.934,9.934,0,0,1,5051.589,2202.9Z" transform="translate(-20.444 -8.783)" fill="#fca"/>
    <rect id="Rectángulo_1100" data-name="Rectángulo 1100" width="504.214" height="12.597" transform="translate(4571.667 2070.576)" fill="#fca"/>
    <path id="Trazado_2835" data-name="Trazado 2835" d="M4360.488,1966.178l.337,4.723c.3,3.588-.771,2.429-1.575,2.194-1.2-1.54-2.015-1.526-2.925-1.406a2.555,2.555,0,0,0-2.081,3.712c2.376,4.132,5.005,9.02,5.343,12.373.19,1.886-.534,2.7.113,6.3.495,2.753,2.243,2.774,3.6,2.587l1.125,10.123-5.511,9.111-.562,6.748,23.733,18.333s12.147,3.712,19.121.787,10.13-5.122,12.753-10.451a59.609,59.609,0,0,0,3.5-8.272l-2.757-5.01,6.58-16.927s.675,3.205,2.306,3.037,3.712-.563,4.668-3.6,2.756-7.817,5.229-10.742,5.766-6.923,4.294-9.508-3.7-4.971-5.369-4.732a11.81,11.81,0,0,0-3.181.994s.795-18.333-12.089-25.172-26.4-12.421-38.881-4.885A48,48,0,0,0,4360.488,1966.178Z" transform="translate(-3.802 -2.643)" fill="#fca"/>
    <path id="Trazado_2836" data-name="Trazado 2836" d="M4367.891,1983.179c7.56-2.475,21.248-1.779,24.408-1.687,3.262-.112,3.941-1.425,5.961-1.237,2.26.21,6.3,2.587,6.3,2.587,5.174.45,9.468.019,15.522,1.349a7.3,7.3,0,0,1,2.865,2.067c.379,3.172.79,6.345-.278,9.518a3.084,3.084,0,0,1-.337,3.262,20.78,20.78,0,0,1-.225,8.1c1.057,2.138.1,4.025-.45,5.961.159,3.429-8.516,7.815-10.56,10.939-1.63,2.489-8.96,12.925-17.975,9.226-6.61-2.713-19.087-5.409-21.791-11.93s-4.454-10.816-4.454-10.816c-.035-2.485.365-4.827,2.227-6.681-.357-1.061-.869-2.121,0-3.182-.221-1.272-.633-2.545.159-3.817a2.219,2.219,0,0,1-.8-2.386C4368.273,1990.822,4368.082,1987.217,4367.891,1983.179Z" transform="translate(-4.119 -3.56)" fill="#d3ffff"/>
    <path id="Trazado_2837" data-name="Trazado 2837" d="M4421.383,1998.345c-6.547-.737-11.669-1.758-20.95-1.947,1.929,1.264,2.809,2.829.562,5.286Z" transform="translate(-4.943 -3.956)" fill="#58c6c6"/>
    <path id="Trazado_2838" data-name="Trazado 2838" d="M4371.26,1996.608c7.865,1.269,15.859-1.789,21.821-.45,2.149.483,3.16,3.152.787,5.286a11.885,11.885,0,0,0-6.749-1.912C4381.258,1999.551,4376.237,1998.048,4371.26,1996.608Z" transform="translate(-4.227 -3.942)" fill="#58c6c6"/>
    <path id="Trazado_2839" data-name="Trazado 2839" d="M4420.292,2007.445a205,205,0,0,0-21.315,1.113c-.853,1.683-1.784,3.36.875,5.249C4406.622,2011.788,4412.948,2009.307,4420.292,2007.445Z" transform="translate(-4.886 -4.227)" fill="#58c6c6"/>
    <path id="Trazado_2840" data-name="Trazado 2840" d="M4371.6,2004.754c6.114,1.923,12.33-.042,17.5,2.386,4.613,2.167,1.6,5.732.08,6.363C4387.863,2008.766,4379.075,2009.284,4371.6,2004.754Z" transform="translate(-4.235 -4.162)" fill="#58c6c6"/>
    <path id="Trazado_2841" data-name="Trazado 2841" d="M4416.515,2016.984c-6.337,4.744-17.168,7.526-19.564,7.317-1.269-.11-10.117.261-16.385-3.5-2.117,1.455,12.592,8.088,18.293,7C4405.043,2026.619,4412.771,2021.914,4416.515,2016.984Z" transform="translate(-4.45 -4.462)" fill="#58c6c6"/>
    <path id="Trazado_2842" data-name="Trazado 2842" d="M4395.263,1982.907a13.485,13.485,0,0,1,1.35,5.849,8.775,8.775,0,0,1-5.174.112s-.112-3.15.788-4.387A5.341,5.341,0,0,1,4395.263,1982.907Z" transform="translate(-4.721 -3.625)" fill="#58c6c6"/>
    <path id="Trazado_2843" data-name="Trazado 2843" d="M4427.379,1986.546a69.088,69.088,0,0,1,6.186-5.849c1.8-1.238,3.486-1.012,3.712.9s-.057,2.981-2.475,4.836-5.556,4.828-6.59,7.929.095,3.318-1.283,4.7-1.125-3.009-.451-4.471S4427.379,1986.546,4427.379,1986.546Z" transform="translate(-5.569 -3.552)" fill="#a58671"/>
    <path id="Trazado_2844" data-name="Trazado 2844" d="M4435.417,1977.531a5.571,5.571,0,0,0-.8.014c-2.521.219-5.849,4.612-6.917,6.243s1.077,1.3,1.077,1.3l.006.009a44.166,44.166,0,0,1,4.821-4.46,4.552,4.552,0,0,1,1.405-.669l.007-.011c3.229-1.029,3.574,1.98,4.251,4.523C4440.3,1982.168,4439.248,1977.752,4435.417,1977.531Z" transform="translate(-5.605 -3.493)" fill="#eae7d5"/>
    <path id="Trazado_2845" data-name="Trazado 2845" d="M4361.7,1972.943a31.934,31.934,0,0,0,4.3,5.647c1.829,1.591,5.408,4.216,5.408,4.216l-2.943,1.034s-3.817-2.7-5.168-4.693a49.552,49.552,0,0,1-3.023-5.647C4360.192,1972.485,4361.085,1972.093,4361.7,1972.943Z" transform="translate(-3.957 -3.369)" fill="#fff"/>
    <path id="Trazado_2846" data-name="Trazado 2846" d="M4423.9,1987.108a33.654,33.654,0,0,1,3.181-5.17,24.591,24.591,0,0,1,2.465-2.267c.144-.679-.4-.323-.635-.437a9.481,9.481,0,0,0-3.858,3.1c-1.59,2.227-3.22,4.613-3.22,4.613Z" transform="translate(-5.468 -3.535)" fill="#fff"/>
    <path id="Trazado_2847" data-name="Trazado 2847" d="M4358.452,2017.109c4.486,14.811,17.125,23.444,26.319,25.195,6.494,1.236,16.331,3.651,27.9-10.123,1.864-2.22,2.183-5.357,2.292-8.317,0,0,10.26,6.6,17.417,9.464s24.156,10.213,26.068,11.113,3.6.393,4.667.393,2.7.337,2.644.844-1.013,1.181-1.462,1.35.675-1.574,3.937,3.711,5.961,10.236,7.311,14.4,10.918,35.954,10.918,35.954,6.2,14.475,7.635,19.725,3.023,11.612,4.932,15.27,3.817,6.2,2.7,8.272a12.131,12.131,0,0,0-1.433,7c.319,2.227,2.228,5.09,1.75,6.363s-.954.795.318,3.181a6.5,6.5,0,0,1,.636,5.886c-.636,2.386-1.908,7-4.454,9.862s-3.022,3.977-3.5,7-27.719,13.539-27.719,13.539l-3.037,11.36,14.734,35.093-192.991,1.09,5.409-19.407,1.909-16.225s-12.622,2.26-16.784-3.475-2.474-9.111-5.511-12.486-5.382-9.807-7.927-12.034-.477-13.2.637-17.179.318-7.477,2.066-11.772,4.932-11.452,4.932-11.452,3.341-18.929,5.25-25.927,4.772-14.475,4.772-14.475,2.386-17.5,4.771-21.951,7.159-13.2,7.159-13.2l2.864-8.749s2.545-5.249,9.7-8.43a166.893,166.893,0,0,0,18.751-9.483c4.049-2.587,6.524-2.136,7.648-2.587a11.248,11.248,0,0,0,5.062-3.486c1.8-2.249,6.524-4.612,6.524-4.612a31.032,31.032,0,0,1,4.088-7.191c2.545-3.182,4.613-4.693,5.965-5.17S4358.452,2017.109,4358.452,2017.109Z" transform="translate(-1.542 -4.422)" fill="#009891"/>
    <path id="Trazado_2848" data-name="Trazado 2848" d="M4360.344,1967.627c6.214-7.091,10.485-16.514,19.882-19.724,13.642-4.661,22.547-2.291,30.7,2.068,15.7,8.391,16.216,17.765,18.292,26.245a7.461,7.461,0,0,1,2.7-1.431s.955-19.724.477-21.951-.7-14.56-13.109-20.763-27.272-11.563-38.634-3.914-12.371,10.46-14.958,18C4359.322,1953.214,4359.829,1967.563,4360.344,1967.627Z" transform="translate(-3.951 -2.188)" fill="#009891"/>
    <path id="Trazado_2849" data-name="Trazado 2849" d="M4396.261,1944.676c-1.691-.039-3.426.031-5.266.16-7.357.517-13.481,2.545-18.65,6.84s-9.274,11.633-10.006,12.7a22.51,22.51,0,0,1-2.223,2.519c.053.756.14,1.217.229,1.228,6.216-7.09,10.485-16.512,19.882-19.724,13.641-4.661,22.547-2.29,30.7,2.069,15.7,8.391,16.215,17.764,18.292,26.244a11.347,11.347,0,0,1,1.25-.837c-.231-.8-1.548-5.338-3.406-10.4-2.028-5.528-7.585-11.615-15.289-16.17A29.914,29.914,0,0,0,4396.261,1944.676Z" transform="translate(-3.953 -2.686)" fill="#d3ffff"/>
    <path id="Trazado_2850" data-name="Trazado 2850" d="M4360.391,2016.89l.253,1.2a28.921,28.921,0,0,0,3.608,8.6c2.664,4.136,9.814,14.461,22.636,16.879s19.264-1.125,23.161-5.021,5.836-4.623,7.079-7.238a16.226,16.226,0,0,0,1.726-6.483c-.818-.508-1.477-.927-1.477-.927-.109,2.959-.429,6.1-2.293,8.317-11.565,13.774-21.4,11.358-27.894,10.122-9.2-1.751-21.833-10.383-26.319-25.194C4360.871,2017.148,4360.634,2017.019,4360.391,2016.89Z" transform="translate(-3.959 -4.46)" fill="#d3ffff"/>
    <path id="Trazado_2851" data-name="Trazado 2851" d="M4358.464,1981.775c-.169-.033,2.134,1.855,3.858,3.619a6.219,6.219,0,0,1,1.312,3.062s-.239,1.67-.478,3.1-.635,2.545-1.192,2.147-.716-.477-.478-1.829.478-2.068,0-3.1S4358.464,1981.775,4358.464,1981.775Z" transform="translate(-3.912 -3.597)" fill="#a58671"/>
    <path id="Trazado_2852" data-name="Trazado 2852" d="M4472.022,2200.429s-6.456-20.965-4.656-25.464.9-10.348.9-10.348l-2.7-17.1a57.247,57.247,0,0,0-.591,10.593c.318,4.772.954,12.248.954,12.248s1.114,2.545-1.113,3.5-11.771-1.749-11.771-1.749l10.657,3.5-3.021,2.7,3.18-.318-.954,2.7,1.273-.159s4.93,12.885,4.453,16.224.352,15.024.352,15.024Z" transform="translate(-6.234 -7.667)" fill="#137070"/>
    <path id="Trazado_2853" data-name="Trazado 2853" d="M4294.146,2212.229s5.935-15.2,6.232-17.573.252-15.506.252-15.506,3.567-14.215,5.916-17.972c2.011-4.545,9.178-18.172,9.178-18.172s-7.037,17.862-8.273,21.288-3.06,7.32-3.05,9.041-2.127,6.326-.662,6.286,5.894-2.613,5.894-2.613l-5.679,5.055,5.4.723-5.833,1.249,1.192,5.792-2.413-1.765s.619,4.333.038,6.489-2.97,9.469-3.495,10.5,4.055-.024,4.055-.024l-3.793,2.019,4.216.818-5.829.815Z" transform="translate(-2.333 -7.556)" fill="#137070"/>
  </g>
</svg>
