<svg xmlns="http://www.w3.org/2000/svg" width="920" height="411.421" viewBox="0 0 920 411.421">
  <g id="Grupo_3545" data-name="Grupo 3545" transform="translate(-110 -1160.579)">
    <rect id="Rectángulo_867" data-name="Rectángulo 867" width="920" height="284" transform="translate(110 1288)" fill="#3caea4"/>
    <g id="Grupo_3068" data-name="Grupo 3068" transform="translate(-682.852 762.86)">
      <path id="Trazado_1602" data-name="Trazado 1602" d="M1367.118,1832.53s-2.581,10.756-4.653,12.311-7.434,5.181-7.434,12.169h29.193s1.3,0,1.3-11.133c0-5.958-2.9-13.347-2.9-13.347Z" transform="translate(-63.816 -1074.956)" fill="#fff"/>
      <path id="Trazado_1603" data-name="Trazado 1603" d="M1362.465,1844.84c-2.072,1.554-7.434,5.181-7.434,12.17h5.449a5.675,5.675,0,0,1,.048-2.425c1.107-4.3.641-7.1,6.609-8.991-.179-.861,2.963-9.8,2.979-12.151a5.353,5.353,0,0,1,.089-.913h-3.088S1364.537,1843.286,1362.465,1844.84Z" transform="translate(-63.816 -1074.956)" opacity="0.1"/>
      <path id="Trazado_1604" data-name="Trazado 1604" d="M1588.791,1844.841c-2.073-1.554-4.913-12.311-4.913-12.311h-15.247s-2.9,7.389-2.9,13.347c0,11.133,1.3,11.133,1.3,11.133h29.193C1596.225,1850.021,1590.864,1846.395,1588.791,1844.841Z" transform="translate(-221.676 -1074.956)" fill="#fff"/>
      <path id="Trazado_1605" data-name="Trazado 1605" d="M1570.462,1845.972a38.46,38.46,0,0,1,1.483-13.424l.007-.019h-3.32s-2.9,7.389-2.9,13.347c0,11.133,1.3,11.133,1.3,11.133h6.572c-.144-.115-.285-.235-.422-.364C1570.439,1854.055,1570.623,1849.468,1570.462,1845.972Z" transform="translate(-221.676 -1074.956)" opacity="0.1"/>
      <rect id="Rectángulo_860" data-name="Rectángulo 860" width="29.333" height="2.829" transform="translate(1291.215 782.051)" fill="#ebeef0"/>
      <rect id="Rectángulo_861" data-name="Rectángulo 861" width="29.333" height="2.829" transform="translate(1345.216 782.051)" fill="#ebeef0"/>
      <g id="Grupo_3050" data-name="Grupo 3050" transform="translate(1269.852 397.719)">
        <g id="Grupo_3042" data-name="Grupo 3042" transform="translate(105.159 187.912)">
          <path id="Trazado_1606" data-name="Trazado 1606" d="M1704.069,1146.96h-5.061a3.761,3.761,0,0,0-3.307,1.966,44.99,44.99,0,0,0-3.074,6.584c-.872,2.85-1.53,9.647-1.749,10.744s-2.4,6.989-1.535,7.674c1.206.949,4.6-1.973,5.043-4.385s1.316-4.166,2.412-3.947,1.1,4.166,1.315,5.482-1.4,5.659-2.059,6.536-5.938,4.549-2.884,7.058l2.531-1.1,1.423.728c.417-.439,7.978-6.847,9.454-9.1,1.873-2.854.814-17.1.8-19.087C1707.343,1152.373,1705.74,1146.96,1704.069,1146.96Z" transform="translate(-1689.139 -1146.96)" fill="#00808a"/>
          <path id="Trazado_1607" data-name="Trazado 1607" d="M1704.069,1146.96h-5.061a3.761,3.761,0,0,0-3.307,1.966,44.99,44.99,0,0,0-3.074,6.584c-.872,2.85-1.53,9.647-1.749,10.744s-2.4,6.989-1.535,7.674c.438.345,1.166.177,1.936-.29a68.456,68.456,0,0,1,2.72-7.88c2.223-4.821,6.694-7.959,11.658-9.483a7.346,7.346,0,0,1,1.715-.31C1707.3,1152.226,1705.718,1146.96,1704.069,1146.96Z" transform="translate(-1689.139 -1146.96)" opacity="0.1"/>
          <path id="Trazado_1608" data-name="Trazado 1608" d="M1723.861,1252.4a23.042,23.042,0,0,1-1.159,2.306l-7.4,7.4s7.131-6.14,7.667-6.942a12.141,12.141,0,0,0,1.654-2.854C1724.762,1251.6,1724.129,1251.589,1723.861,1252.4Z" transform="translate(-1708.741 -1225.494)" fill="#1d1d1b" opacity="0.2"/>
        </g>
        <g id="Grupo_3043" data-name="Grupo 3043" transform="translate(1.249 187.564)">
          <path id="Trazado_1609" data-name="Trazado 1609" d="M1287.456,1146.714c-.562-.73-9.242-1.14-9.242-1.14s-1.329,3.478-1.623,4.682c-1.35,5.518-2.6,17.7-1.025,22.7.412,1.3,7.611,8.726,9.97,8.971,0,0,.786,1.29.885,1.419a1.084,1.084,0,0,0,.765.284,1.413,1.413,0,0,0,1.473-1.094,4.338,4.338,0,0,0-.041-2.606c-2.394-5.473-3.706-8.917-3.647-10.036.364-6.944,2.576-5.456,2.635-4.121s1.224,5.914,2.543,7.16c1.488,1.405,2.422.163,2.422.163s-.916-15.245-.978-17.485C1291.49,1151.894,1288.018,1147.443,1287.456,1146.714Z" transform="translate(-1274.83 -1145.574)" fill="#00808a"/>
          <path id="Trazado_1610" data-name="Trazado 1610" d="M1278.214,1145.574s-1.329,3.478-1.623,4.682c-1.35,5.518-2.6,17.7-1.025,22.7.242.768,2.846,3.664,5.425,5.962a38.188,38.188,0,0,1-2.808-5.613c-2.583-6.392-1.253-13.266,1.9-19.178,1.933-3.623,6.4-4.688,10.01-3.355a28.071,28.071,0,0,0-2.638-4.058C1286.894,1145.984,1278.214,1145.574,1278.214,1145.574Z" transform="translate(-1274.83 -1145.574)" opacity="0.1"/>
          <path id="Trazado_1611" data-name="Trazado 1611" d="M1298.657,1256.609c-.832-.591-.432.752-.432.752l5.651,9.059-4.863-9.4A1.161,1.161,0,0,0,1298.657,1256.609Z" transform="translate(-1292.286 -1228.649)" fill="#1d1d1b" opacity="0.2"/>
        </g>
        <path id="Trazado_1612" data-name="Trazado 1612" d="M1295.9,650.081a11.247,11.247,0,0,0-11.017,4.736,25.062,25.062,0,0,0-2.5,6c-.865,2.538-1.647,5.112-2.35,7.7-1.517,5.58-4.541,10.089-5.644,15.763-2.292,11.8-2.062,23.534-2.748,35.524-.339,5.928-1.695,13.48-1.785,19.417-.076,4.992,1.059,9.752,1.2,14.743.108,3.735.28,5.574.432,9.307.055,1.35.092,2.7.149,4.051a11.209,11.209,0,0,0,1.656,4.961,8.748,8.748,0,0,0,4,3.983,6.94,6.94,0,0,0,5.893-.842,7.312,7.312,0,0,0,3.3-5.057c.114-.715.206-1.433.326-2.147.918-5.5,1.86-9.109,2.771-14.613.468-2.826.936-5.651,1.368-8.482.583-3.824.909-7.682,1.314-11.527,1.279-12.13,2.683-24.211,4.762-36.238q1.52-8.793,3.517-17.5c1.207-5.238,2.423-10.526,4.083-15.647a10.734,10.734,0,0,0,.244-5.94A11.1,11.1,0,0,0,1295.9,650.081Z" transform="translate(-1269.852 -586.683)" fill="#ebeef0"/>
        <path id="Trazado_1613" data-name="Trazado 1613" d="M1284.881,659.894a25.062,25.062,0,0,0-2.5,6c-.865,2.538-1.647,5.112-2.35,7.7-1.517,5.58-4.541,10.089-5.644,15.763-2.292,11.8-2.062,23.534-2.748,35.523-.339,5.928-1.695,13.48-1.785,19.417-.076,4.992,1.059,9.752,1.2,14.743.108,3.735.28,5.574.432,9.308.055,1.35.092,2.7.149,4.051a11.209,11.209,0,0,0,1.656,4.961,8.747,8.747,0,0,0,4,3.983,6.94,6.94,0,0,0,5.893-.842,7.311,7.311,0,0,0,3.3-5.043,7.772,7.772,0,0,1-3.524-.142,8.1,8.1,0,0,1-3.562-2.04,7.9,7.9,0,0,1-2.076-3.5,28.037,28.037,0,0,1-2.411-10.288c-.5-6.58-.047-13.191.014-19.777.033-3.621-.306-7.259.036-10.873a33.3,33.3,0,0,1,1.268-7.025,58.252,58.252,0,0,1,2.6-6.146c1.938-13.392-3.468-12.731-1.147-26.713,1.071-6.449,5.081-12.009,7.778-17.922a29.117,29.117,0,0,0,1.589-5.221,18.234,18.234,0,0,0,.006-2.607,8.691,8.691,0,0,1,.836-5.983c.093-.173.2-.339.3-.5A10.863,10.863,0,0,0,1284.881,659.894Z" transform="translate(-1269.852 -591.761)" fill="#d8dde2"/>
        <path id="Trazado_1614" data-name="Trazado 1614" d="M1340.607,656.121c.014-.07.026-.141.04-.212a11.066,11.066,0,0,0-1.268.856A6.571,6.571,0,0,1,1340.607,656.121Z" transform="translate(-1321.941 -591.154)" fill="#ced4db"/>
        <path id="Trazado_1615" data-name="Trazado 1615" d="M1662.4,687.391c-.993-5.291-3.9-10.3-5.3-15.5a123.2,123.2,0,0,0-4.19-13.07,10.963,10.963,0,0,0-3.54-4.659,11.3,11.3,0,0,0-11.6-1.207,10.989,10.989,0,0,0-6.235,9.363,16.78,16.78,0,0,0,1.051,5.5c.712,2.42,1.364,4.856,1.995,7.3,1.367,5.292,2.5,10.63,3.606,15.979,2.283,11,3.944,22.19,5.118,33.356.6,5.682,1.179,11.367,1.791,17.048.511,4.739.9,9.531,1.64,14.241.862,5.479,2.138,8.993,3.189,14.438a22.668,22.668,0,0,0,.615,3.22,7.342,7.342,0,0,0,3.878,4.232,7.47,7.47,0,0,0,9.918-3.908,11.5,11.5,0,0,0,.6-3.349c.138-1.553.269-1.208.386-2.763.327-4.327,1.606-10.855,1.635-15.192.073-11.2-1.238-20.265-2.053-31.439S1664.468,698.425,1662.4,687.391Z" transform="translate(-1540.812 -588.137)" fill="#ebeef0"/>
        <path id="Trazado_1616" data-name="Trazado 1616" d="M1661.616,772.09c-4.238-1.024-6.965-2.7-8.218-6.613a26.983,26.983,0,0,1-1-7.744,62.226,62.226,0,0,1,.308-6.544c.148-1.617.45-3.258.458-4.882a74.213,74.213,0,0,0-.357-8.293,43.6,43.6,0,0,0-2.607-9.085l.814,1.9a26.666,26.666,0,0,1-2.381-8.584,23.732,23.732,0,0,1,.463-6.293c.466-2.71,2.026-10.125,1.955-11.19-.656-2.894-2.184-5.528-2.79-8.444-.465-2.238-7.339-20.732-8.49-24.537-1.072-3.542-.731-7.5-.24-11.1a47.749,47.749,0,0,1,1.975-8.6,10.958,10.958,0,0,0-9.975,10.384,16.781,16.781,0,0,0,1.051,5.5c.712,2.42,1.364,4.856,1.995,7.3,1.367,5.292,2.5,10.63,3.606,15.979,2.283,11,3.944,22.19,5.118,33.356.6,5.682,1.179,11.367,1.791,17.048.511,4.739.9,9.532,1.64,14.241.862,5.479,2.138,8.993,3.189,14.438a22.668,22.668,0,0,0,.615,3.22,7.341,7.341,0,0,0,3.878,4.232,7.47,7.47,0,0,0,9.918-3.908,7.254,7.254,0,0,0,.422-1.625A8.53,8.53,0,0,1,1661.616,772.09Z" transform="translate(-1540.812 -588.286)" fill="#d8dde2"/>
        <path id="Trazado_1617" data-name="Trazado 1617" d="M1485.726,443.25c-.758,0-1.341.864-1.557,1.236l-.011.019-.181.366.787-9.953-4.951-6.6-10.425-4.164h-3.441l-10.425,4.164-4.951,6.6.788,9.954-.182-.366-.011-.019c-.215-.372.69,12.917,2.055,12.917a1.59,1.59,0,0,0,.284-.026l.122.489c.445,1.791.807,3.294,1.032,4.239a8.854,8.854,0,0,0,1.16,2.741c.638.994,1.707.21,3.176,2.044a9.124,9.124,0,0,0,6.061,3.644h5.225a9.124,9.124,0,0,0,6.061-3.644c1.469-1.835,2.538-1.051,3.176-2.044a8.842,8.842,0,0,0,1.16-2.741c.224-.941.585-2.441,1.032-4.239q.06-.243.122-.489a1.587,1.587,0,0,0,.284.026h0c1.365,0,2.089-1.731,2.167-1.931C1484.282,455.473,1486.037,443.25,1485.726,443.25Z" transform="translate(-1405.247 -417.525)" fill="#db9b74"/>
        <path id="Trazado_1618" data-name="Trazado 1618" d="M1420.256,604.31a39.057,39.057,0,0,0-14.441-8.056l-29.473-8.145v-.155l-.235.078-.235-.078v.155l-29.835,8.137a41.7,41.7,0,0,0-15.413,9.179c-2.377,2.19-3.153,4.662-2.878,6.316.706,4.252,10.935,25.414,10.935,25.414l-2.825,81.685s-.193,12.73.505,69.46c.062,5-1.91,12.911-1.808,17.356.042,1.848,5.146,26.567,5.2,28.323.058,2.085-2.311,5.813-2.245,7.771,2.2,65.108,9.652,59.513,9.652,59.513h15.506c3.993-8.991,5.966-26.781,7.828-40.343.68-4.954,2.212-6.785,2.59-11.052.418-4.711-1.491-10.511-1.354-15.2.068-2.3,1.472-6.229,1.526-8.458.037-1.516-1.217-3.191-1.183-4.662.252-10.963,1.375-19.551,1.916-26.078,1.632-19.656.367-23.218,1.339-26.312h1.986c.572,3.453.857,13.252,1.857,25.288.747,8.993.079,26.56,1.166,45.062.139,2.362,1.658,4.91,1.81,7.281.189,2.948-.987,5.7-.774,8.608,1.642,22.452,5.411,42.793,9.328,45.87h14.364s7.2-6.673,9.245-61.415c.082-2.2,1.882-5.679,1.946-8.027.058-2.137-1.46-7.034-1.417-9.294,0,0,1.936-3.936,1.765-6.765-3.454-57.263-.711-96.921-.711-96.921l-2.825-81.685s10.594-23.7,11.3-27.948A22.222,22.222,0,0,0,1420.256,604.31Z" transform="translate(-1313.186 -540.242)" fill="#ebeef0"/>
        <path id="Trazado_1619" data-name="Trazado 1619" d="M1357.606,608.436l-11.569,3.155a41.7,41.7,0,0,0-15.414,9.179c-2.377,2.189-3.153,4.662-2.878,6.316a28.459,28.459,0,0,0,1.535,4.6,33.237,33.237,0,0,1,4.862-7.945,27.573,27.573,0,0,1,8.763-7.049c3.147-1.611,6.51-2.733,9.788-4.041a30.993,30.993,0,0,0,3.837-2.048,7.217,7.217,0,0,1,1.129-.585c-.032-.25-.056-.5-.067-.758A6.766,6.766,0,0,1,1357.606,608.436Z" transform="translate(-1313.186 -555.588)" fill="#d8dde2"/>
        <path id="Trazado_1620" data-name="Trazado 1620" d="M1366.449,1059.624a63.586,63.586,0,0,1-2.542-16.6c-.227-5.213-.034-10.435.259-15.641.3-5.25.943-10.58.407-15.829-.53-3.306-1.343-6.556-2.149-9.805-.759-3.06-1.32-6.154-2.347-9.138-1.293-3.753-2.159-7.7-.918-11.614a18.2,18.2,0,0,1,2.462-4.974,33.7,33.7,0,0,0,2.01-3.026c.091-.294.173-.59.242-.89a17.768,17.768,0,0,0-.052-2.334c-.478-2.733-1.239-5.41-1.652-8.156a78.759,78.759,0,0,1-.506-11.766c-.011-13.182-.109-26.369-.834-39.535a83.168,83.168,0,0,1-.322-9.166,71.882,71.882,0,0,1,1.414-10.213c1.074-5.321-.478-18.62,5.586-9.429.313-2.776-1.8-12.054-2.059-14.836a52.378,52.378,0,0,0-2.9-9.309,36.482,36.482,0,0,1-2.457-11.391c-.223-4.693.4-9.373-.031-14.06a17.619,17.619,0,0,0-.515-2.12l-.125-.176a8.35,8.35,0,0,1-.65-.554l-2.435,70.416s-.193,12.73.505,69.459c.061,5-1.91,12.911-1.808,17.356.042,1.848,5.146,26.567,5.195,28.323.058,2.085-2.311,5.813-2.245,7.771,2.2,65.108,9.651,59.513,9.651,59.513h15.506a36.9,36.9,0,0,0,1.33-3.53,24.8,24.8,0,0,1-9.292-4.834C1370.828,1070.087,1368.117,1064.819,1366.449,1059.624Z" transform="translate(-1333.668 -720.881)" fill="#d8dde2"/>
        <path id="Trazado_1621" data-name="Trazado 1621" d="M1537.107,1407.445c-.057-1.041-.044-2.081-.005-3.121-.279-.13-.557-.268-.829-.422a11.575,11.575,0,0,1-5.278-7.858,28.078,28.078,0,0,1-.336-7.415c.2-2.458,1.122-4.649,1.745-6.95-.5-1.045-1-2.086-1.409-3.184a16.055,16.055,0,0,1-.815-4.727,33.5,33.5,0,0,1,.785-8.02c.786-4.112,2.15-8.091,2.861-12.218a22.112,22.112,0,0,0,.063-3.552q-.146-.715-.348-1.42a17.909,17.909,0,0,1-2.62-1.945,10.834,10.834,0,0,1-3.07-5.265,28.27,28.27,0,0,1-.5-4.319,42.332,42.332,0,0,1-.089-10.666c.331-3.108.694-6.185.846-9.309a106.336,106.336,0,0,0-.2-16.957,42.942,42.942,0,0,0-2.316-8.843,33.45,33.45,0,0,0-1.625-3.106q-.628-1.056-1.334-2.062c-.087-.124-.173-.25-.261-.377l-.186-.221c-.532-.639-1.085-1.268-1.662-1.874-.806,2.213-1.42,4.489-2.148,6.728h1.793c.571,3.453.857,13.252,1.857,25.288.747,8.993.079,26.559,1.165,45.062.138,2.363,1.658,4.91,1.811,7.281.189,2.948-.987,5.7-.774,8.608,1.642,22.453,5.411,42.793,9.328,45.87h14.364a1.944,1.944,0,0,0,.18-.211,7.861,7.861,0,0,1-3.868-1.005C1539.2,1418.352,1537.405,1412.917,1537.107,1407.445Z" transform="translate(-1456.047 -1061.429)" fill="#d8dde2"/>
        <path id="Trazado_1622" data-name="Trazado 1622" d="M1437.012,1496.268c4.709,10.123,17.4,25.52,15.119,18.77S1437.012,1496.268,1437.012,1496.268Z" transform="translate(-1395.088 -1220.749)" fill="#d8dde2" opacity="0.5"/>
        <path id="Trazado_1623" data-name="Trazado 1623" d="M1460.725,1565.864c2.085.047-5.991-16.517-9.821-22.686C1450.9,1543.178,1457.343,1565.788,1460.725,1565.864Z" transform="translate(-1405.496 -1255.894)" fill="#d8dde2" opacity="0.5"/>
        <path id="Trazado_1624" data-name="Trazado 1624" d="M1591.664,976.028c-4.058-.178-17.056,33.982-17.056,33.982C1583.8,1001.073,1595.721,976.206,1591.664,976.028Z" transform="translate(-1498.174 -830.986)" fill="#d8dde2" opacity="0.5"/>
        <path id="Trazado_1625" data-name="Trazado 1625" d="M1617.465,1065.007c-2.72.389-12.8,11.656-12.8,11.656C1615.182,1072.778,1620.184,1064.618,1617.465,1065.007Z" transform="translate(-1520.694 -897.639)" fill="#d8dde2" opacity="0.5"/>
        <path id="Trazado_1626" data-name="Trazado 1626" d="M1380.595,979.052s7.687,19.2,15.111,28.148C1395.706,1007.2,1384.869,964.5,1380.595,979.052Z" transform="translate(-1352.82 -830.986)" fill="#d8dde2"/>
        <path id="Trazado_1627" data-name="Trazado 1627" d="M1389.444,788.83c4.274-1.166,15.542-7.383,15.111-9.714S1383.06,790.571,1389.444,788.83Z" transform="translate(-1358.548 -683.261)" fill="#d8dde2"/>
        <path id="Trazado_1628" data-name="Trazado 1628" d="M1383.716,749.553c-3.5,1.943-3.109,13.988-3.109,13.988C1384.276,755.119,1387.213,747.61,1383.716,749.553Z" transform="translate(-1352.82 -661.08)" fill="#d8dde2"/>
        <path id="Trazado_1629" data-name="Trazado 1629" d="M1485.823,568.136v-.155l-.516.077-.516-.077v.155l-9.294,1.394L1473.45,581.4l1.69,1.3a16.719,16.719,0,0,0,20.823-.317l1.2-.987-2.048-11.875Z" transform="translate(-1422.387 -525.279)" fill="#fff"/>
        <path id="Trazado_1630" data-name="Trazado 1630" d="M1488.837,521.955c-2.444,0-4.859-.055-5.651-.762-1.2-1.067-2.071-1.76-2.923-1.756a6.543,6.543,0,0,0-2.721,1.756c-.792.707-3.208.762-5.651.762s-5.357,2.749-5.012,7.649c.335,4.749,3.035,8.478,13.111,8.325h.749c10.076.153,12.775-3.576,13.11-8.325C1494.194,524.7,1491.28,521.955,1488.837,521.955Z" transform="translate(-1417.442 -488.909)" fill="#00808a"/>
        <path id="Trazado_1631" data-name="Trazado 1631" d="M1458,561.358h-.32c-7.7-.173-15.786-6.218-15.786-6.218l-5.106,15.154,20.435,5.918v.357l.617-.179.617.179v-.357l20.435-5.918-5.106-15.154S1465.7,561.185,1458,561.358Z" transform="translate(-1394.923 -515.658)" fill="#ebeef0"/>
        <g id="Grupo_3044" data-name="Grupo 3044" transform="translate(45.969 19.557)">
          <path id="Trazado_1632" data-name="Trazado 1632" d="M1486.846,479.736c-.907-.548-1.614-.952-4.389-1.214-.058-.005-.119-.008-.177-.008h-20.135c-.058,0-.119,0-.176.008-2.775.262-3.482.666-4.389,1.214-3.157,1.909-2.116,13.916,7.177,14.175,3.667.1,4.795-2.847,5.909-4.918a1.761,1.761,0,0,1,3.093,0c1.115,2.071,2.242,5.02,5.909,4.918C1488.961,493.652,1490,481.645,1486.846,479.736Z" transform="translate(-1455.26 -477.807)" fill="#7095af" opacity="0.5"/>
          <path id="Trazado_1633" data-name="Trazado 1633" d="M1485.089,477.022c-1.061-.642-1.907-1.051-4.691-1.313-.079-.007-.162-.011-.24-.011h-20.135c-.079,0-.162,0-.243.012-2.782.263-3.627.671-4.688,1.313-1.795,1.085-2.459,4.516-1.544,7.981,1.207,4.574,4.6,7.379,9.068,7.5,3.762.1,5.185-2.658,6.229-4.676.109-.21.215-.416.321-.613a1.055,1.055,0,0,1,1.85,0c.106.2.212.4.321.613,1.025,1.98,2.421,4.679,6.023,4.679l.206,0c4.471-.124,7.861-2.93,9.068-7.5C1487.548,481.538,1486.884,478.107,1485.089,477.022Zm.179,7.62c-.5,1.889-2.251,6.3-7.742,6.452-2.872.085-3.919-1.95-4.935-3.913-.112-.217-.222-.429-.332-.633a2.467,2.467,0,0,0-4.337,0c-.11.2-.22.416-.332.633-1.016,1.963-2.065,3.991-4.936,3.913-5.49-.152-7.243-4.563-7.742-6.452-.8-3.024-.174-5.756.91-6.412.83-.5,1.429-.865,4.088-1.116.037,0,.075-.005.112-.005h20.135c.036,0,.075,0,.11.005,2.661.251,3.26.614,4.09,1.116C1485.442,478.886,1486.066,481.618,1485.268,484.642Z" transform="translate(-1453.139 -475.697)" fill="#28597a"/>
        </g>
        <path id="Trazado_1634" data-name="Trazado 1634" d="M1473.506,437.192c.371-8.946,8.042-39.473-18.179-39.467,0,0-.1,0-.157,0s-.1,0-.157,0v.006c-23.132.628-18.071,26.128-17.286,39.78.285,4.951-3.739,12.713-3.739,12.713,3.424,8.344,19.48,12.532,21.215,12.316,1.734.216,18.936-3.789,22.3-12.133C1477.5,450.4,1473.3,442.146,1473.506,437.192Zm-10.966,7.985c-4.839,3.936-11.218,1.887-14.3,0-8.037-4.925-9.535-21.6-8.946-27.194.328-3.114,9.972-6,16.35-6.074,4.3-.05,15.894,3.666,16.222,6.781C1472.455,424.279,1471.281,438.067,1462.54,445.176Z" transform="translate(-1392.822 -397.719)" fill="#ebeef0"/>
        <path id="Trazado_1635" data-name="Trazado 1635" d="M1473.5,452.151a28.642,28.642,0,0,1-12.779,9.047c-5.376,1.738-11.833.653-15.828-3.528-3.3-3.457-4.059-8.114-4.124-12.716-.036-2.591-.122-5.182-.193-7.773a46.84,46.84,0,0,1-1.279-14.012,3.5,3.5,0,0,1,1.757-2.224,38.227,38.227,0,0,1,5.587-16.3c-13.377,6.041-9.583,26.376-8.911,38.05.285,4.951-3.739,12.713-3.739,12.713,3.424,8.344,19.48,12.532,21.215,12.316,1.734.216,18.936-3.789,22.3-12.133a54.9,54.9,0,0,1-2.383-5.585A26.432,26.432,0,0,1,1473.5,452.151Z" transform="translate(-1392.822 -402.906)" fill="#ced4db"/>
        <g id="Grupo_3045" data-name="Grupo 3045" transform="translate(43.055 12.993)">
          <path id="Trazado_1636" data-name="Trazado 1636" d="M1484.308,449.525h-29.618a2.465,2.465,0,0,0-2.465,2.465V484.1a4.261,4.261,0,0,0,4.261,4.261h26.026a4.261,4.261,0,0,0,4.261-4.261V451.99A2.465,2.465,0,0,0,1484.308,449.525Z" transform="translate(-1449.541 -449.525)" fill="#ebeef0" opacity="0.3"/>
          <path id="Trazado_1637" data-name="Trazado 1637" d="M1572.592,449.525h-2.223c0,.117.009.234.009.352v36.093a9.469,9.469,0,0,1-.315,2.394h.733a4.261,4.261,0,0,0,4.261-4.261V451.99A2.465,2.465,0,0,0,1572.592,449.525Z" transform="translate(-1537.825 -449.525)" fill="#ebeef0" opacity="0.5"/>
          <path id="Trazado_1638" data-name="Trazado 1638" d="M1479.963,449.563v38.8h9.573V449.525h-9.574C1479.962,449.538,1479.963,449.55,1479.963,449.563Z" transform="translate(-1470.321 -449.525)" fill="#ebeef0" opacity="0.5"/>
          <rect id="Rectángulo_862" data-name="Rectángulo 862" width="39.572" height="2.392" fill="#1586a3"/>
        </g>
        <g id="Grupo_3046" data-name="Grupo 3046" transform="translate(60.799 64.816)">
          <path id="Trazado_1639" data-name="Trazado 1639" d="M1512.268,791.514c0,.958,1,27.841,1.339,28.737h1.986c.358-.919.912-27.621.912-28.607V656.155h-4.237Z" transform="translate(-1512.268 -656.155)" fill="#00808a"/>
        </g>
        <g id="Grupo_3047" data-name="Grupo 3047" transform="translate(38.516 50.774)">
          <path id="Trazado_1640" data-name="Trazado 1640" d="M1447.141,612.063c-12.35-1.308-20.226-11.793-20.3-11.9l-3.415,2.508c.368.5,9.188,12.317,23.672,13.644l.329.03.322-.071c.657-.145,16.172-3.666,23.959-13.344l-3.3-2.657C1462.115,608.088,1449.3,611.529,1447.141,612.063Z" transform="translate(-1423.422 -600.163)" fill="#00808a"/>
        </g>
        <g id="Grupo_3048" data-name="Grupo 3048" transform="translate(23.767 140.433)">
          <path id="Trazado_1641" data-name="Trazado 1641" d="M1364.791,957.654c0,1.46-.149,4.129-.177,4.3a228.006,228.006,0,0,0,26.693,4.07q9.226.848,17.523.847c12.928,0,24.378-1.546,33.7-4.617-.015-.132-.259-3.255-.259-4.6C1413.759,967.658,1371.931,959.248,1364.791,957.654Z" transform="translate(-1364.614 -957.654)" fill="#00808a"/>
        </g>
        <g id="Grupo_3049" data-name="Grupo 3049" transform="translate(60.229 0.003)">
          <rect id="Rectángulo_863" data-name="Rectángulo 863" width="4.237" height="13.013" fill="#00808a"/>
        </g>
        <path id="Trazado_1642" data-name="Trazado 1642" d="M1281.3,1146.169l12.6-.628v-4.5l-11.816-.409Z" transform="translate(-1278.43 -954.309)" fill="#ebeef0"/>
        <path id="Trazado_1643" data-name="Trazado 1643" d="M1282.084,1140.634l-.783,5.535,4.719-.235a9.314,9.314,0,0,1-.155-1.321,7.346,7.346,0,0,1,.9-3.817Z" transform="translate(-1278.43 -954.309)" fill="#d8dde2"/>
        <path id="Trazado_1644" data-name="Trazado 1644" d="M1710.285,1149.237h12.121v-4.864h-11.88Z" transform="translate(-1599.823 -957.11)" fill="#ebeef0"/>
        <path id="Trazado_1645" data-name="Trazado 1645" d="M1710.526,1144.373l-.241,4.865h5.274a9.318,9.318,0,0,1-.329-2.074,7.191,7.191,0,0,1,.437-2.791Z" transform="translate(-1599.823 -957.11)" fill="#d8dde2"/>
      </g>
      <path id="Trazado_1646" data-name="Trazado 1646" d="M1623.653,1577.152s-1.34,2.218,1.755,10.711c.982,2.695,8.3,6.553,8.3,6.553S1622.183,1571.852,1623.653,1577.152Z" transform="translate(-264.851 -883.023)" fill="#d8dde2" opacity="0.5"/>
      <path id="Trazado_1647" data-name="Trazado 1647" d="M1636.346,1554.651c-3.408-1.993-11.832-7.359-11.832-7.359C1628.3,1556.242,1633.872,1554.454,1636.346,1554.651Z" transform="translate(-265.713 -861.257)" fill="#d8dde2" opacity="0.5"/>
      <path id="Trazado_1648" data-name="Trazado 1648" d="M1672.587,1576.9a1.673,1.673,0,0,0-.9-.271C1673.021,1577.412,1673.588,1577.676,1672.587,1576.9Z" transform="translate(-301.056 -883.239)" fill="#d8dde2" opacity="0.5"/>
      <path id="Trazado_1649" data-name="Trazado 1649" d="M1380.6,1867.176c-.277.374-4.929,1.227-7.63,1.857-3.935.917-13.651-.52-13.058-2.893,0,0-6.634,4.493-8.08,6.3s-5.13,11.78-1.481,12.576,32.2,0,32.2,0,2.474-2.332,2.006-7.47C1384.241,1874.027,1380.717,1867.024,1380.6,1867.176Z" transform="translate(-59.142 -1100.137)" fill="#b3e1e4"/>
      <path id="Trazado_1650" data-name="Trazado 1650" d="M1369.877,1880.8c-.214,1.382.4,2.233,2.335,0a9.223,9.223,0,0,0,2.154-4.785S1370.091,1879.42,1369.877,1880.8Z" transform="translate(-74.908 -1107.537)" fill="#80cdd2" opacity="0.5"/>
      <path id="Trazado_1651" data-name="Trazado 1651" d="M1452.462,1891.508c.342,1.487,1.3,2.105,2.356-.938a10.092,10.092,0,0,0,.241-5.717S1452.12,1890.02,1452.462,1891.508Z" transform="translate(-136.791 -1114.157)" fill="#80cdd2" opacity="0.5"/>
      <path id="Trazado_1652" data-name="Trazado 1652" d="M1467.057,1881.806c0,1.4,2,7.148,2.808,5.863S1467.057,1878.915,1467.057,1881.806Z" transform="translate(-147.746 -1111.379)" fill="#80cdd2" opacity="0.5"/>
      <path id="Trazado_1653" data-name="Trazado 1653" d="M1410.883,1864.036c-.591-.323-7.127,2.316-12.5,1.978-5.781-.364-7.042-2.434-7.708-2.619-1.446-.4-1.06,1.227-1.06,1.227a9,9,0,0,0,6.013,2.88c8.942.344,15.447-1.859,15.768-2.083S1411.474,1864.359,1410.883,1864.036Z" transform="translate(-89.69 -1098.032)" fill="#80cdd2"/>
      <path id="Trazado_1654" data-name="Trazado 1654" d="M1381.453,1882.666a19.714,19.714,0,0,1-8.147,2.123,32.109,32.109,0,0,1-7.171-.551,27.919,27.919,0,0,1-4.381-1.032,8.256,8.256,0,0,1-5.637-9.929,7.676,7.676,0,0,1,3.6-4.725q-.27-.2-.523-.422c-1.76,1.219-6.2,4.362-7.354,5.8-1.446,1.807-5.13,11.78-1.481,12.576s32.2,0,32.2,0,2.1-1.985,2.063-6.323A11.422,11.422,0,0,1,1381.453,1882.666Z" transform="translate(-59.142 -1101.627)" opacity="0.05"/>
      <path id="Trazado_1655" data-name="Trazado 1655" d="M1583.949,1872.33a49.065,49.065,0,0,1-10.484,1.8c-3.373.184-11.455-2.411-11.455-2.411s-1.395,4.714-1.234,7.16-.521,10.157,2.39,10.317,30.056,0,30.86,0C1596.275,1889.2,1595.127,1876.627,1583.949,1872.33Z" transform="translate(-217.95 -1104.317)" fill="#b3e1e4"/>
      <path id="Trazado_1656" data-name="Trazado 1656" d="M1585.619,1870.847c-.946.49-6.125,1.374-10.289,1.808s-10.3-1.961-11.151-1.768-.4,1.494-.4,1.494,8.162,2.49,11.543,2.312,11.187-2.368,11.532-2.931S1587,1870.132,1585.619,1870.847Z" transform="translate(-220.119 -1103.485)" fill="#80cdd2"/>
      <path id="Trazado_1657" data-name="Trazado 1657" d="M1578.858,1891.326s-1.6,4.512-1.324,5.629S1580.143,1890.684,1578.858,1891.326Z" transform="translate(-230.49 -1118.977)" fill="#80cdd2" opacity="0.5"/>
      <path id="Trazado_1658" data-name="Trazado 1658" d="M1589,1894.68a.232.232,0,0,0-.453.085c.107,2.345.249,4.532.7,4.724.562.241,1.044-1.285.482-2.731C1589.49,1896.143,1589.226,1895.368,1589,1894.68Z" transform="translate(-238.767 -1121.399)" fill="#80cdd2" opacity="0.5"/>
      <path id="Trazado_1659" data-name="Trazado 1659" d="M1592.1,1890.89c-4.893-.181-9.851.058-14.742.255a16.351,16.351,0,0,1-8.137-1.525c-3.158-1.58-5-4.644-6.106-7.867a6.906,6.906,0,0,1,.254-5.064,7.764,7.764,0,0,1-1.668-.4,23.524,23.524,0,0,0-.922,6.014c.16,2.446-.521,10.157,2.39,10.317s30.056,0,30.86,0c.553,0,.955-.9,1.068-2.295A7.08,7.08,0,0,1,1592.1,1890.89Z" transform="translate(-217.95 -1107.738)" opacity="0.05"/>
    </g>
    <path id="Trazado_1702" data-name="Trazado 1702" d="M0,115.207,920,.934V141H0Z" transform="translate(110 1431)" fill="#dedede" opacity="0.251"/>
    <g id="Grupo_3069" data-name="Grupo 3069" transform="translate(34.356 953.136)">
      <rect id="Rectángulo_864" data-name="Rectángulo 864" width="6.558" height="0.059" transform="translate(219.721 488.817)" fill="#fff"/>
      <path id="Trazado_1660" data-name="Trazado 1660" d="M216.191,478.6H501.643a10.286,10.286,0,0,0,8.607-15.942,3.237,3.237,0,0,1-1.557.41H176.688l6.329,6.85a3.242,3.242,0,0,1-.149,4.638l-4.429,4.043h37.752Z" transform="translate(10.088 10.218)" fill="#59b5a9"/>
      <path id="Trazado_1661" data-name="Trazado 1661" d="M509.289,463.7a3.237,3.237,0,0,0,1.557-.41h0c-.022-.032-.037-.07-.059-.1a10.3,10.3,0,0,0-8.5-4.5H440.329a3.2,3.2,0,0,1-1.352.306H172.921l4.351,4.708H509.289Z" transform="translate(9.493 9.59)" fill="#fff"/>
      <path id="Trazado_1662" data-name="Trazado 1662" d="M433.359,436.375v23.267H293.04a3.188,3.188,0,0,0-2.444-1.135,8.43,8.43,0,0,1-.857-16.816l106.478-11.014a3.231,3.231,0,0,0-.66-6.428l-106.49,11.014a14.868,14.868,0,0,0-12.033,20.916,14.025,14.025,0,0,0,1.436,2.5c.232.336.475.649.73.961H168.472c-.069,0-.127.012-.2.012l-1.691-1.818.2-.232a19.368,19.368,0,0,0,1.645-21.425,19.664,19.664,0,0,0-3.5-4.493c-.081-.081-.2-.1-.278-.174,22.78-1.853,69.65-5.165,120.92-8.686.486.046.961.127,1.448.127a14.312,14.312,0,0,0,3.637-.475c45.074-3.081,93.009-6.289,130.66-8.767a28.571,28.571,0,0,1,3.139,2.444,27.273,27.273,0,0,1,8.906,20.221Z" transform="translate(8.185 2.478)" fill="#ffcb96"/>
      <path id="Trazado_1663" data-name="Trazado 1663" d="M148.609,432.723a11.068,11.068,0,0,0-2.712,5.31,9.5,9.5,0,0,0-.315,5.026,7.8,7.8,0,0,0,.716,1.8l4.718-4.718a3.067,3.067,0,0,1,2.348-.946,3.229,3.229,0,0,1,2.308,1.039l9.52,10.3a12.881,12.881,0,0,0-1.682-16.665,3.156,3.156,0,0,1-.8-1.34,3.2,3.2,0,0,1,.632-3.142c-5.561.474-9.035.82-9.936,1.009A11.029,11.029,0,0,0,148.609,432.723Z" transform="translate(5.134 4.957)" fill="#ffcb96"/>
      <path id="Trazado_1664" data-name="Trazado 1664" d="M268.989,415.949l-.161.01a8.3,8.3,0,0,0,4.492-.307l-.24.016Z" transform="translate(24.658 2.785)" fill="#fff"/>
      <path id="Trazado_1665" data-name="Trazado 1665" d="M455.054,413.714a23.507,23.507,0,0,0-13.486-5.915A21.574,21.574,0,0,0,430.419,410a20.737,20.737,0,0,0-9.925,11.254,19.932,19.932,0,0,0-.482,11.907c1.089,3.866,3.214,6.29,7.073,10.693a63.109,63.109,0,0,0,8.093,7.7,24.325,24.325,0,0,0,28.643-24.133v-.031A28.3,28.3,0,0,0,455.054,413.714Z" transform="translate(48.455 1.535)" fill="#ffcb96"/>
      <path id="Trazado_1666" data-name="Trazado 1666" d="M430.949,451.057a3.149,3.149,0,0,0,3.161.388,30.6,30.6,0,0,1-3.408-.585C430.786,450.924,430.865,450.993,430.949,451.057Z" transform="translate(50.255 8.353)" fill="#fff"/>
      <path id="Trazado_1668" data-name="Trazado 1668" d="M427.7,444.51c-3.859-4.4-5.984-6.827-7.073-10.693a19.932,19.932,0,0,1,.482-11.907,20.737,20.737,0,0,1,9.925-11.254,21.574,21.574,0,0,1,11.148-2.205,23.507,23.507,0,0,1,13.486,5.915,28.3,28.3,0,0,1,8.766,13.68c.015.051.028.1.043.152,0-.021,0-.041,0-.061a24.528,24.528,0,1,0-28.6,24.14l-.083-.066A63.109,63.109,0,0,1,427.7,444.51Z" transform="translate(47.842 0.882)" fill="#fff"/>
      <rect id="Rectángulo_865" data-name="Rectángulo 865" width="6.263" height="92.645" transform="translate(485.305 495.338)" fill="#fff"/>
      <path id="Trazado_1669" data-name="Trazado 1669" d="M174.346,482.052h-1.687l-4.576,4.178V574.7h6.263Z" transform="translate(8.728 13.285)" fill="#fff"/>
      <path id="Trazado_1670" data-name="Trazado 1670" d="M437.4,459.8a31.041,31.041,0,0,0,34.417-30.778c0-.332-.039-.654-.05-.984A30.963,30.963,0,1,0,434,459.213,30.6,30.6,0,0,0,437.4,459.8Zm3.437-6.258a24.508,24.508,0,1,1,24.519-24.52c0,.021,0,.041,0,.061A24.545,24.545,0,0,1,440.842,453.539Z" transform="translate(46.96)" fill="#272727"/>
      <path id="Trazado_1671" data-name="Trazado 1671" d="M511.773,460.861H448.006V437.906a33.905,33.905,0,0,0-36.828-33.759l-101.313,7.817-96.542,7.713-54.085,3.9a21.032,21.032,0,0,0-15.588,33.076l-29.81,29.81a3.229,3.229,0,0,0-.139,4.424l29.694,33.736a3.257,3.257,0,0,0,2.247,1.089h.185A3.251,3.251,0,0,0,148,524.87l22.34-20.406v85.864a3.232,3.232,0,0,0,3.231,3.231H186.35a3.232,3.232,0,0,0,3.231-3.231v-95.94H478.847v95.94a3.232,3.232,0,0,0,3.231,3.231h12.763a3.232,3.232,0,0,0,3.231-3.231v-95.94h13.7a16.764,16.764,0,1,0,0-33.528ZM159.725,430.031,281.1,421.253a3.132,3.132,0,0,0,1.274-.371l24.6-2.212,104.741-8.084a27.037,27.037,0,0,1,17.789,4.656,28.574,28.574,0,0,1,3.139,2.444,27.272,27.272,0,0,1,8.906,20.221v23.267H301.225a3.188,3.188,0,0,0-2.444-1.135,8.43,8.43,0,0,1-.857-16.816L404.4,432.208a3.231,3.231,0,0,0-.66-6.428l-106.49,11.014a14.868,14.868,0,0,0-12.033,20.916,14.027,14.027,0,0,0,1.436,2.5c.232.336.475.649.73.961H176.656c-.069,0-.127.012-.2.012l-1.691-1.818.2-.232a19.368,19.368,0,0,0,1.645-21.425,19.664,19.664,0,0,0-3.5-4.493c-.081-.081-.2-.1-.278-.174a3.2,3.2,0,0,0-4.3.266.649.649,0,0,1-.058.093,3.337,3.337,0,0,0,.162,4.482,12.878,12.878,0,0,1,1.679,16.665l-9.52-10.307a3.212,3.212,0,0,0-2.3-1.031,3.1,3.1,0,0,0-2.351.938l-4.714,4.725-3.115,3.115a12.535,12.535,0,0,1-.869-1.714,14.543,14.543,0,0,1,12.276-20.244ZM183.119,587.1h-6.312V498.569l4.575-4.181h1.737Zm-37.049-69.21-25.525-29h.012l37.79-37.79,27.807,30.1.046.046ZM491.61,587.1h-6.3V494.388h6.3Zm20.163-99.171H188.458l.069-.058,4.424-4.042a3.219,3.219,0,0,0,1.054-2.247,3.147,3.147,0,0,0-.51-1.876,3.341,3.341,0,0,0-.347-.452l-6.381-6.914-4.355-4.7H448.47a3.145,3.145,0,0,0,1.355-.313h61.948a10.293,10.293,0,0,1,8.5,4.505l.069.1a10.277,10.277,0,0,1-8.57,15.994Z" transform="translate(0 0.946)" fill="#272727"/>
      <path id="Trazado_1672" data-name="Trazado 1672" d="M424.942,414.361c-37.651,2.478-85.586,5.686-130.66,8.767a14.312,14.312,0,0,1-3.637.475c-.486,0-.961-.081-1.448-.127-51.27,3.521-98.14,6.833-120.92,8.686a3.2,3.2,0,0,0-4.3.266.65.65,0,0,1-.058.093c-5.559.475-9.033.822-9.937,1.008a11,11,0,0,0-4.795,2.328,11.118,11.118,0,0,0-2.722,5.3,9.655,9.655,0,0,0-.313,5.026,7.842,7.842,0,0,0,.718,1.807l-3.115,3.115a12.535,12.535,0,0,1-.869-1.714,14.543,14.543,0,0,1,12.276-20.244l121.372-8.779a3.131,3.131,0,0,0,1.274-.371l24.6-2.212L407.153,409.7A27.038,27.038,0,0,1,424.942,414.361Z" transform="translate(4.557 1.828)" fill="#fff"/>
    </g>
    <g id="Grupo_3076" data-name="Grupo 3076" transform="translate(0 489)">
      <path id="Sustracción_1" data-name="Sustracción 1" d="M8.107,16.213A8.106,8.106,0,0,1,2.374,2.374,8.106,8.106,0,1,1,13.838,13.838,8.052,8.052,0,0,1,8.107,16.213Zm1.823-3.661a1.681,1.681,0,0,0-.474.07c-.683.2-1.117.783-.967,1.294a1.013,1.013,0,0,0,1.041.632,1.671,1.671,0,0,0,.474-.07c.683-.2,1.118-.782.968-1.293A1.013,1.013,0,0,0,9.929,12.552ZM3.88,11.12a.821.821,0,0,0-.614.244.859.859,0,0,0-.2.757,1.531,1.531,0,0,0,.47.835,1.481,1.481,0,0,0,.992.432.82.82,0,0,0,.613-.244,1.17,1.17,0,0,0-.274-1.593A1.48,1.48,0,0,0,3.88,11.12Zm9.893-2.958A1.249,1.249,0,0,0,12.7,9.212a1.17,1.17,0,0,0,.634,1.487.716.716,0,0,0,.174.021A1.25,1.25,0,0,0,14.582,9.67a1.532,1.532,0,0,0-.059-.956.858.858,0,0,0-.575-.53A.737.737,0,0,0,13.773,8.163ZM8.108,6.509A1.6,1.6,0,0,0,7.169,9.4a1.6,1.6,0,1,0,.939-2.89ZM2.682,5.494A1.245,1.245,0,0,0,1.612,6.55a1.169,1.169,0,0,0,.643,1.482.735.735,0,0,0,.17.02A1.245,1.245,0,0,0,3.495,7a1.169,1.169,0,0,0-.643-1.482A.74.74,0,0,0,2.682,5.494ZM11.7,2.814a.816.816,0,0,0-.608.24,1.168,1.168,0,0,0,.264,1.594,1.479,1.479,0,0,0,1,.437.83.83,0,0,0,.608-.239,1.168,1.168,0,0,0-.265-1.594A1.477,1.477,0,0,0,11.7,2.814ZM6.645,1.641a1.671,1.671,0,0,0-.484.073c-.683.206-1.114.789-.96,1.3a1.011,1.011,0,0,0,1.035.625,1.671,1.671,0,0,0,.483-.073,1.536,1.536,0,0,0,.794-.536.857.857,0,0,0,.165-.764A1.008,1.008,0,0,0,6.645,1.641Z" transform="translate(259.282 851.488)" fill="#11808a" stroke="rgba(0,0,0,0)" stroke-miterlimit="10" stroke-width="1"/>
      <g id="Grupo_3064" data-name="Grupo 3064" transform="translate(254.993 847.199)">
        <path id="Trazado_1684" data-name="Trazado 1684" d="M290.75,194.174c-.121-.4-1-.492-1.962-.2s-1.644.851-1.523,1.253c.077.254.456.384.968.371a1.479,1.479,0,0,1,.526.132c.721.536.935,3.1.935,3.1l.977-.295s-1.253-2.255-.935-3.1a1.365,1.365,0,0,1,.347-.374C290.557,194.778,290.831,194.441,290.75,194.174Z" transform="translate(-280.079 -193.802)" fill="#11808a"/>
        <path id="Trazado_1685" data-name="Trazado 1685" d="M253.608,244.467c-.16-.2-.678-.05-1.157.334s-.736.858-.576,1.058c.1.126.346.113.633-.011a.9.9,0,0,1,.328-.046c.531.139,1.238,1.541,1.238,1.541l.486-.39s-1.225-.99-1.238-1.541a.834.834,0,0,1,.111-.291C253.637,244.853,253.715,244.6,253.608,244.467Z" transform="translate(-247.109 -240.876)" fill="#11808a"/>
        <path id="Trazado_1686" data-name="Trazado 1686" d="M362.664,214.663c.028-.255-.444-.515-1.054-.582s-1.127.086-1.155.341c-.018.161.165.324.455.44a.9.9,0,0,1,.264.2c.277.473-.214,1.965-.214,1.965l.62.068s-.166-1.566.214-1.965a.836.836,0,0,1,.284-.128C362.411,214.957,362.645,214.833,362.664,214.663Z" transform="translate(-348.212 -212.663)" fill="#11808a"/>
        <path id="Trazado_1687" data-name="Trazado 1687" d="M451.166,263.728c.2-.161.05-.679-.334-1.157s-.858-.736-1.058-.576c-.126.1-.113.346.011.633a.9.9,0,0,1,.046.328c-.139.531-1.541,1.238-1.541,1.238l.39.486s.99-1.225,1.541-1.238a.835.835,0,0,1,.291.111C450.78,263.756,451.033,263.834,451.166,263.728Z" transform="translate(-429.966 -257.228)" fill="#11808a"/>
        <path id="Trazado_1688" data-name="Trazado 1688" d="M480.116,372.783c.255.028.515-.444.582-1.054s-.086-1.127-.341-1.155c-.161-.018-.324.165-.44.455a.9.9,0,0,1-.2.264c-.473.277-1.965-.214-1.965-.214l-.067.62s1.566-.166,1.965.214a.836.836,0,0,1,.128.284C479.823,372.53,479.947,372.764,480.116,372.783Z" transform="translate(-457.325 -358.331)" fill="#11808a"/>
        <path id="Trazado_1689" data-name="Trazado 1689" d="M435.025,461.285c.161.2.678.05,1.157-.334s.736-.858.576-1.058c-.1-.126-.346-.113-.633.011a.9.9,0,0,1-.328.046c-.531-.138-1.238-1.541-1.238-1.541l-.486.39s1.225.99,1.238,1.541a.834.834,0,0,1-.111.291C435,460.9,434.918,461.152,435.025,461.285Z" transform="translate(-416.733 -440.085)" fill="#11808a"/>
        <path id="Trazado_1690" data-name="Trazado 1690" d="M332.964,490.234c-.028.255.444.515,1.055.582s1.127-.086,1.155-.341c.018-.161-.165-.324-.455-.44a.9.9,0,0,1-.264-.2c-.277-.473.214-1.965.214-1.965l-.62-.068s.166,1.566-.214,1.965a.836.836,0,0,1-.284.128C333.217,489.941,332.983,490.065,332.964,490.234Z" transform="translate(-322.625 -467.444)" fill="#11808a"/>
        <path id="Trazado_1691" data-name="Trazado 1691" d="M234.348,445.144c-.2.16-.05.678.334,1.157s.858.736,1.058.576c.126-.1.113-.346-.011-.633a.9.9,0,0,1-.046-.328c.138-.531,1.541-1.238,1.541-1.238l-.39-.486s-.99,1.225-1.541,1.238a.834.834,0,0,1-.291-.111C234.733,445.115,234.48,445.037,234.348,445.144Z" transform="translate(-230.757 -426.852)" fill="#11808a"/>
        <path id="Trazado_1692" data-name="Trazado 1692" d="M204.545,343.083c-.255-.028-.515.444-.582,1.054s.086,1.127.341,1.155c.161.018.324-.165.44-.455a.9.9,0,0,1,.2-.264c.473-.277,1.965.214,1.965.214l.068-.62s-1.566.166-1.965-.214a.833.833,0,0,1-.128-.284C204.838,343.336,204.714,343.1,204.545,343.083Z" transform="translate(-202.544 -332.745)" fill="#11808a"/>
        <path id="Trazado_1693" data-name="Trazado 1693" d="M413.575,206.2c.2-.37-.359-1.055-1.244-1.53s-1.765-.561-1.963-.191c-.125.234.051.594.422.947a1.48,1.48,0,0,1,.279.465c.131.889-1.531,2.853-1.531,2.853l.9.483s.709-2.48,1.531-2.853a1.367,1.367,0,0,1,.51-.02C413.012,206.489,413.443,206.444,413.575,206.2Z" transform="translate(-393.896 -203.524)" fill="#11808a"/>
        <path id="Trazado_1694" data-name="Trazado 1694" d="M473.757,300.869c.4-.121.492-1,.2-1.962s-.851-1.644-1.253-1.523c-.254.077-.384.456-.371.968a1.481,1.481,0,0,1-.132.526c-.536.721-3.1.935-3.1.935l.295.977s2.255-1.253,3.1-.935a1.365,1.365,0,0,1,.374.347C473.154,300.676,473.491,300.95,473.757,300.869Z" transform="translate(-449.338 -290.198)" fill="#11808a"/>
        <path id="Trazado_1695" data-name="Trazado 1695" d="M462.382,423.694c.37.2,1.055-.359,1.53-1.244s.561-1.765.191-1.963c-.234-.125-.594.051-.947.422a1.478,1.478,0,0,1-.465.279c-.889.131-2.853-1.531-2.853-1.531l-.483.9s2.48.709,2.853,1.531a1.367,1.367,0,0,1,.02.51C462.092,423.131,462.136,423.562,462.382,423.694Z" transform="translate(-440.265 -404.016)" fill="#11808a"/>
        <path id="Trazado_1696" data-name="Trazado 1696" d="M387.386,483.875c.121.4,1,.492,1.962.2s1.645-.851,1.523-1.253c-.077-.254-.456-.384-.968-.371a1.478,1.478,0,0,1-.526-.132c-.721-.536-.935-3.1-.935-3.1l-.977.295s1.253,2.255.935,3.1a1.367,1.367,0,0,1-.347.374C387.579,483.272,387.305,483.609,387.386,483.875Z" transform="translate(-373.266 -459.456)" fill="#11808a"/>
        <path id="Trazado_1697" data-name="Trazado 1697" d="M256.974,472.5c-.2.37.359,1.055,1.244,1.53s1.765.561,1.963.191c.125-.234-.051-.594-.422-.947a1.478,1.478,0,0,1-.279-.465c-.131-.889,1.531-2.853,1.531-2.853l-.9-.483s-.709,2.48-1.531,2.853a1.364,1.364,0,0,1-.51.019C257.537,472.211,257.105,472.255,256.974,472.5Z" transform="translate(-251.861 -450.384)" fill="#11808a"/>
        <path id="Trazado_1698" data-name="Trazado 1698" d="M184.055,397.5c-.4.121-.492,1-.2,1.962s.851,1.645,1.253,1.523c.254-.077.384-.456.371-.968a1.479,1.479,0,0,1,.132-.526c.536-.721,3.1-.935,3.1-.935l-.295-.977s-2.255,1.253-3.1.934a1.364,1.364,0,0,1-.374-.347C184.659,397.7,184.322,397.424,184.055,397.5Z" transform="translate(-183.683 -383.385)" fill="#11808a"/>
        <path id="Trazado_1699" data-name="Trazado 1699" d="M196.079,267.093c-.37-.2-1.055.359-1.53,1.244s-.561,1.765-.191,1.963c.234.126.594-.051.947-.422a1.481,1.481,0,0,1,.465-.279c.889-.131,2.853,1.531,2.853,1.531l.483-.9s-2.48-.709-2.853-1.531a1.365,1.365,0,0,1-.02-.51C196.37,267.656,196.325,267.224,196.079,267.093Z" transform="translate(-193.405 -261.98)" fill="#11808a"/>
      </g>
    </g>
    <g id="Grupo_3077" data-name="Grupo 3077" transform="translate(127 617)">
      <path id="Sustracción_1-2" data-name="Sustracción 1" d="M12.351,24.7A12.35,12.35,0,0,1,3.618,3.617,12.35,12.35,0,1,1,21.083,21.082,12.266,12.266,0,0,1,12.351,24.7Zm2.777-5.577a2.561,2.561,0,0,0-.722.106c-1.041.308-1.7,1.192-1.474,1.972a1.544,1.544,0,0,0,1.586.963,2.546,2.546,0,0,0,.723-.107c1.041-.308,1.7-1.192,1.474-1.97A1.543,1.543,0,0,0,15.128,19.122ZM5.912,16.941a1.251,1.251,0,0,0-.936.372,1.309,1.309,0,0,0-.3,1.154,2.333,2.333,0,0,0,.716,1.272,2.257,2.257,0,0,0,1.511.658,1.25,1.25,0,0,0,.934-.372A1.782,1.782,0,0,0,7.421,17.6,2.255,2.255,0,0,0,5.912,16.941Zm15.072-4.506a1.9,1.9,0,0,0-1.633,1.6,1.782,1.782,0,0,0,.965,2.265,1.091,1.091,0,0,0,.265.032,1.9,1.9,0,0,0,1.634-1.6,2.334,2.334,0,0,0-.09-1.457,1.308,1.308,0,0,0-.875-.807A1.123,1.123,0,0,0,20.984,12.435Zm-8.63-2.519a2.433,2.433,0,0,0-1.43,4.4,2.433,2.433,0,1,0,1.43-4.4ZM4.086,8.37a1.9,1.9,0,0,0-1.63,1.608,1.78,1.78,0,0,0,.979,2.258,1.12,1.12,0,0,0,.259.03,1.9,1.9,0,0,0,1.63-1.608A1.781,1.781,0,0,0,4.346,8.4,1.127,1.127,0,0,0,4.086,8.37ZM17.82,4.287a1.244,1.244,0,0,0-.926.365,1.779,1.779,0,0,0,.4,2.428,2.254,2.254,0,0,0,1.516.666,1.264,1.264,0,0,0,.927-.365,1.78,1.78,0,0,0-.4-2.428A2.251,2.251,0,0,0,17.82,4.287ZM10.125,2.5a2.546,2.546,0,0,0-.737.111c-1.041.313-1.7,1.2-1.463,1.98A1.541,1.541,0,0,0,9.5,5.544a2.545,2.545,0,0,0,.736-.111,2.34,2.34,0,0,0,1.21-.816A1.306,1.306,0,0,0,11.7,3.453,1.536,1.536,0,0,0,10.125,2.5Z" transform="translate(261.527 853.733)" fill="#11808a" stroke="rgba(0,0,0,0)" stroke-miterlimit="10" stroke-width="1"/>
      <g id="Grupo_3064-2" data-name="Grupo 3064" transform="translate(254.993 847.199)">
        <path id="Trazado_1684-2" data-name="Trazado 1684" d="M292.582,194.369c-.185-.612-1.523-.75-2.989-.308s-2.505,1.3-2.321,1.909c.117.387.695.584,1.474.566a2.254,2.254,0,0,1,.8.2c1.1.817,1.424,4.722,1.424,4.722l1.489-.449s-1.908-3.435-1.424-4.722a2.079,2.079,0,0,1,.528-.57C292.288,195.288,292.7,194.775,292.582,194.369Z" transform="translate(-276.324 -193.802)" fill="#11808a"/>
        <path id="Trazado_1685-2" data-name="Trazado 1685" d="M254.54,244.513c-.245-.3-1.034-.076-1.763.509s-1.122,1.307-.877,1.611c.155.192.527.172.964-.017a1.372,1.372,0,0,1,.5-.07c.809.211,1.886,2.347,1.886,2.347l.74-.595s-1.866-1.508-1.886-2.348a1.271,1.271,0,0,1,.169-.444C254.584,245.1,254.7,244.715,254.54,244.513Z" transform="translate(-244.639 -239.042)" fill="#11808a"/>
        <path id="Trazado_1686-2" data-name="Trazado 1686" d="M363.821,214.976c.042-.388-.677-.785-1.606-.886s-1.717.131-1.76.519c-.027.245.251.494.694.67a1.374,1.374,0,0,1,.4.3c.423.721-.326,2.994-.326,2.994l.944.1s-.253-2.386.326-2.994a1.272,1.272,0,0,1,.433-.194C363.437,215.423,363.793,215.234,363.821,214.976Z" transform="translate(-341.804 -211.928)" fill="#11808a"/>
        <path id="Trazado_1687-2" data-name="Trazado 1687" d="M452.671,264.659c.3-.245.076-1.034-.509-1.763s-1.307-1.122-1.611-.877c-.193.155-.172.527.017.964a1.371,1.371,0,0,1,.07.5c-.211.809-2.347,1.886-2.347,1.886l.595.74s1.508-1.866,2.348-1.886a1.272,1.272,0,0,1,.443.169C452.084,264.7,452.469,264.822,452.671,264.659Z" transform="translate(-420.374 -254.758)" fill="#11808a"/>
        <path id="Trazado_1688-2" data-name="Trazado 1688" d="M481.388,373.94c.388.042.785-.677.886-1.606s-.131-1.717-.519-1.76c-.245-.027-.494.251-.67.694a1.374,1.374,0,0,1-.3.4c-.721.423-2.994-.326-2.994-.326l-.1.944s2.386-.253,2.993.326a1.275,1.275,0,0,1,.194.433C480.941,373.555,481.13,373.912,481.388,373.94Z" transform="translate(-446.668 -351.923)" fill="#11808a"/>
        <path id="Trazado_1689-2" data-name="Trazado 1689" d="M435.523,462.79c.245.3,1.034.076,1.763-.509s1.122-1.307.877-1.611c-.155-.192-.527-.172-.964.017a1.371,1.371,0,0,1-.5.07c-.809-.211-1.886-2.347-1.886-2.347l-.74.595s1.866,1.508,1.886,2.348a1.271,1.271,0,0,1-.169.443C435.479,462.2,435.361,462.588,435.523,462.79Z" transform="translate(-407.657 -430.493)" fill="#11808a"/>
        <path id="Trazado_1690-2" data-name="Trazado 1690" d="M332.965,491.507c-.042.388.677.785,1.606.886s1.717-.131,1.76-.519c.027-.245-.251-.494-.694-.67a1.374,1.374,0,0,1-.4-.3c-.423-.721.326-2.994.326-2.994l-.944-.1s.253,2.386-.326,2.994a1.273,1.273,0,0,1-.433.194C333.349,491.06,332.993,491.249,332.965,491.507Z" transform="translate(-317.214 -456.787)" fill="#11808a"/>
        <path id="Trazado_1691-2" data-name="Trazado 1691" d="M234.394,445.642c-.3.245-.076,1.034.509,1.763s1.307,1.122,1.611.877c.192-.155.172-.527-.017-.964a1.374,1.374,0,0,1-.07-.5c.211-.809,2.347-1.886,2.347-1.886l-.595-.74s-1.508,1.866-2.348,1.886a1.271,1.271,0,0,1-.444-.169C234.982,445.6,234.6,445.48,234.394,445.642Z" transform="translate(-228.923 -417.776)" fill="#11808a"/>
        <path id="Trazado_1692-2" data-name="Trazado 1692" d="M204.858,343.084c-.388-.042-.785.677-.886,1.606s.131,1.717.519,1.76c.245.027.494-.251.67-.694a1.376,1.376,0,0,1,.3-.4c.721-.423,2.994.326,2.994.326l.1-.944s-2.386.253-2.994-.327a1.269,1.269,0,0,1-.194-.433C205.3,343.469,205.115,343.112,204.858,343.084Z" transform="translate(-201.81 -327.333)" fill="#11808a"/>
        <path id="Trazado_1693-2" data-name="Trazado 1693" d="M415.688,207.22c.3-.564-.546-1.607-1.9-2.331s-2.688-.855-2.991-.291c-.191.356.078.9.643,1.442a2.255,2.255,0,0,1,.425.708c.2,1.355-2.332,4.346-2.332,4.346l1.37.735s1.08-3.778,2.332-4.346a2.082,2.082,0,0,1,.777-.03C414.83,207.662,415.488,207.594,415.688,207.22Z" transform="translate(-385.709 -203.145)" fill="#11808a"/>
        <path id="Trazado_1694-2" data-name="Trazado 1694" d="M476.193,302.7c.612-.185.75-1.523.308-2.989s-1.3-2.505-1.909-2.321c-.387.117-.584.695-.565,1.474a2.257,2.257,0,0,1-.2.8c-.817,1.1-4.722,1.424-4.722,1.424l.449,1.489s3.435-1.908,4.722-1.424a2.08,2.08,0,0,1,.57.528C475.274,302.407,475.787,302.823,476.193,302.7Z" transform="translate(-438.992 -286.443)" fill="#11808a"/>
        <path id="Trazado_1695-2" data-name="Trazado 1695" d="M463.966,425.807c.564.3,1.607-.546,2.331-1.9s.854-2.688.291-2.991c-.356-.191-.9.078-1.442.643a2.253,2.253,0,0,1-.708.425c-1.355.2-4.346-2.332-4.346-2.332l-.735,1.37s3.778,1.08,4.346,2.332a2.085,2.085,0,0,1,.03.777C463.524,424.949,463.592,425.607,463.966,425.807Z" transform="translate(-430.272 -395.828)" fill="#11808a"/>
        <path id="Trazado_1696-2" data-name="Trazado 1696" d="M387.393,486.311c.185.612,1.523.75,2.989.308s2.505-1.3,2.321-1.909c-.117-.387-.695-.584-1.474-.566a2.252,2.252,0,0,1-.8-.2c-1.1-.817-1.424-4.722-1.424-4.722l-1.489.449s1.908,3.435,1.424,4.722a2.083,2.083,0,0,1-.528.57C387.687,485.392,387.271,485.9,387.393,486.311Z" transform="translate(-365.883 -449.11)" fill="#11808a"/>
        <path id="Trazado_1697-2" data-name="Trazado 1697" d="M256.995,474.085c-.3.563.546,1.607,1.9,2.331s2.688.855,2.991.291c.191-.356-.078-.9-.643-1.443a2.251,2.251,0,0,1-.425-.708c-.2-1.355,2.332-4.346,2.332-4.346l-1.37-.736s-1.08,3.778-2.332,4.346a2.078,2.078,0,0,1-.777.03C257.853,473.643,257.2,473.711,256.995,474.085Z" transform="translate(-249.206 -440.391)" fill="#11808a"/>
        <path id="Trazado_1698-2" data-name="Trazado 1698" d="M184.25,397.512c-.612.185-.75,1.523-.308,2.989s1.3,2.505,1.909,2.321c.387-.117.584-.694.566-1.474a2.253,2.253,0,0,1,.2-.8c.817-1.1,4.722-1.424,4.722-1.424l-.449-1.489s-3.435,1.908-4.722,1.424a2.079,2.079,0,0,1-.57-.528C185.169,397.806,184.656,397.39,184.25,397.512Z" transform="translate(-183.683 -376.002)" fill="#11808a"/>
        <path id="Trazado_1699-2" data-name="Trazado 1699" d="M197.1,267.114c-.563-.3-1.607.546-2.331,1.9s-.855,2.689-.291,2.991c.356.191.9-.078,1.442-.643a2.256,2.256,0,0,1,.708-.425c1.355-.2,4.346,2.332,4.346,2.332l.735-1.37s-3.778-1.08-4.346-2.332a2.079,2.079,0,0,1-.03-.777C197.543,267.972,197.475,267.314,197.1,267.114Z" transform="translate(-193.026 -259.325)" fill="#11808a"/>
      </g>
    </g>
    <g id="Grupo_3078" data-name="Grupo 3078" transform="translate(217 490.791)">
      <path id="Sustracción_1-3" data-name="Sustracción 1" d="M7.187,14.373A7.186,7.186,0,0,1,2.105,2.1,7.186,7.186,0,1,1,12.268,12.268,7.138,7.138,0,0,1,7.187,14.373ZM8.8,11.127a1.49,1.49,0,0,0-.42.062c-.606.179-.991.694-.858,1.147a.9.9,0,0,0,.923.56,1.481,1.481,0,0,0,.42-.062c.606-.179.991-.693.858-1.147A.9.9,0,0,0,8.8,11.127ZM3.44,9.858a.728.728,0,0,0-.544.216.762.762,0,0,0-.173.671,1.357,1.357,0,0,0,.416.74,1.313,1.313,0,0,0,.879.383.727.727,0,0,0,.543-.216,1.037,1.037,0,0,0-.243-1.412A1.312,1.312,0,0,0,3.44,9.858Zm8.77-2.622a1.107,1.107,0,0,0-.95.93,1.037,1.037,0,0,0,.562,1.318.635.635,0,0,0,.154.018,1.108,1.108,0,0,0,.951-.93,1.358,1.358,0,0,0-.052-.848.761.761,0,0,0-.509-.47A.654.654,0,0,0,12.211,7.236ZM7.188,5.77a1.416,1.416,0,0,0-.832,2.562A1.416,1.416,0,1,0,7.188,5.77Zm-4.811-.9a1.1,1.1,0,0,0-.949.936A1.036,1.036,0,0,0,2,7.121a.652.652,0,0,0,.151.018A1.1,1.1,0,0,0,3.1,6.2a1.036,1.036,0,0,0-.57-1.314A.656.656,0,0,0,2.378,4.871Zm7.991-2.376a.724.724,0,0,0-.539.213,1.035,1.035,0,0,0,.234,1.413,1.311,1.311,0,0,0,.882.388.736.736,0,0,0,.539-.212,1.036,1.036,0,0,0-.235-1.413A1.31,1.31,0,0,0,10.369,2.494ZM5.892,1.455a1.482,1.482,0,0,0-.429.065c-.606.182-.987.7-.851,1.152a.9.9,0,0,0,.918.555,1.481,1.481,0,0,0,.428-.065,1.362,1.362,0,0,0,.7-.475.76.76,0,0,0,.146-.677A.894.894,0,0,0,5.892,1.455Z" transform="translate(258.795 851.001)" fill="#11808a" stroke="rgba(0,0,0,0)" stroke-miterlimit="10" stroke-width="1"/>
      <g id="Grupo_3064-3" data-name="Grupo 3064" transform="translate(254.993 847.199)">
        <path id="Trazado_1684-3" data-name="Trazado 1684" d="M290.353,194.132c-.107-.356-.886-.437-1.739-.179s-1.458.755-1.35,1.111c.068.225.4.34.858.329a1.312,1.312,0,0,1,.466.117c.639.475.829,2.748.829,2.748l.867-.261s-1.11-2-.828-2.748a1.209,1.209,0,0,1,.307-.332C290.182,194.667,290.424,194.368,290.353,194.132Z" transform="translate(-280.893 -193.802)" fill="#11808a"/>
        <path id="Trazado_1685-3" data-name="Trazado 1685" d="M253.406,244.457c-.142-.177-.6-.044-1.026.3s-.653.761-.51.938c.09.112.307.1.561-.01a.8.8,0,0,1,.291-.041c.471.123,1.1,1.366,1.1,1.366l.431-.346s-1.086-.878-1.1-1.366a.74.74,0,0,1,.1-.258C253.432,244.8,253.5,244.574,253.406,244.457Z" transform="translate(-247.645 -241.273)" fill="#11808a"/>
        <path id="Trazado_1686-3" data-name="Trazado 1686" d="M362.413,214.6c.025-.226-.394-.457-.935-.516s-1,.076-1.024.3c-.016.143.146.288.4.39a.8.8,0,0,1,.234.177c.246.42-.19,1.742-.19,1.742l.549.06s-.147-1.388.19-1.742a.74.74,0,0,1,.252-.113C362.189,214.856,362.4,214.746,362.413,214.6Z" transform="translate(-349.601 -212.822)" fill="#11808a"/>
        <path id="Trazado_1687-3" data-name="Trazado 1687" d="M450.839,263.525c.177-.142.044-.6-.3-1.026s-.761-.653-.938-.51c-.112.09-.1.307.01.561a.8.8,0,0,1,.041.291c-.123.471-1.366,1.1-1.366,1.1l.346.431s.878-1.086,1.366-1.1a.741.741,0,0,1,.258.1C450.5,263.551,450.722,263.62,450.839,263.525Z" transform="translate(-432.045 -257.764)" fill="#11808a"/>
        <path id="Trazado_1688-3" data-name="Trazado 1688" d="M479.84,372.532c.226.025.457-.394.516-.935s-.076-1-.3-1.024c-.143-.016-.288.146-.39.4a.8.8,0,0,1-.177.234c-.42.246-1.742-.19-1.742-.19l-.06.549s1.388-.147,1.742.19a.742.742,0,0,1,.113.252C479.58,372.308,479.69,372.516,479.84,372.532Z" transform="translate(-459.636 -359.72)" fill="#11808a"/>
        <path id="Trazado_1689-3" data-name="Trazado 1689" d="M434.917,460.958c.142.177.6.044,1.026-.3s.653-.761.51-.938c-.09-.112-.307-.1-.561.01a.8.8,0,0,1-.291.041c-.471-.123-1.1-1.366-1.1-1.366l-.431.346s1.086.878,1.1,1.366a.74.74,0,0,1-.1.258C434.891,460.616,434.822,460.841,434.917,460.958Z" transform="translate(-418.701 -442.164)" fill="#11808a"/>
        <path id="Trazado_1690-3" data-name="Trazado 1690" d="M332.964,489.959c-.025.226.394.457.935.516s1-.076,1.024-.3c.016-.143-.146-.288-.4-.39a.8.8,0,0,1-.234-.177c-.246-.42.19-1.742.19-1.742l-.549-.06s.147,1.388-.19,1.742a.74.74,0,0,1-.252.113C333.188,489.7,332.981,489.809,332.964,489.959Z" transform="translate(-323.799 -469.755)" fill="#11808a"/>
        <path id="Trazado_1691-3" data-name="Trazado 1691" d="M234.338,445.036c-.177.142-.044.6.3,1.026s.761.653.938.51c.112-.09.1-.307-.01-.561a.8.8,0,0,1-.041-.291c.123-.471,1.366-1.1,1.366-1.1l-.346-.431s-.878,1.086-1.366,1.1a.741.741,0,0,1-.258-.1C234.68,445.01,234.455,444.941,234.338,445.036Z" transform="translate(-231.154 -428.82)" fill="#11808a"/>
        <path id="Trazado_1692-3" data-name="Trazado 1692" d="M204.477,343.083c-.226-.025-.457.394-.516.935s.076,1,.3,1.024c.143.016.288-.146.39-.4a.8.8,0,0,1,.177-.234c.42-.246,1.742.19,1.742.19l.06-.549s-1.388.147-1.742-.19a.738.738,0,0,1-.113-.252C204.737,343.307,204.627,343.1,204.477,343.083Z" transform="translate(-202.704 -333.918)" fill="#11808a"/>
        <path id="Trazado_1693-3" data-name="Trazado 1693" d="M413.116,205.977c.176-.328-.318-.935-1.1-1.357s-1.564-.5-1.74-.169c-.111.207.045.526.374.839a1.312,1.312,0,0,1,.247.412c.116.788-1.357,2.529-1.357,2.529l.8.428s.628-2.2,1.357-2.529a1.211,1.211,0,0,1,.452-.017C412.617,206.234,413,206.194,413.116,205.977Z" transform="translate(-395.671 -203.606)" fill="#11808a"/>
        <path id="Trazado_1694-3" data-name="Trazado 1694" d="M473.229,300.472c.356-.107.437-.886.179-1.739s-.755-1.458-1.111-1.35c-.225.068-.34.4-.329.858a1.314,1.314,0,0,1-.117.466c-.475.639-2.748.829-2.748.829l.261.867s2-1.11,2.748-.828a1.212,1.212,0,0,1,.332.307C472.694,300.3,472.993,300.543,473.229,300.472Z" transform="translate(-451.582 -291.012)" fill="#11808a"/>
        <path id="Trazado_1695-3" data-name="Trazado 1695" d="M462.038,423.235c.328.176.935-.318,1.357-1.1s.5-1.564.169-1.74c-.207-.111-.526.045-.839.374a1.311,1.311,0,0,1-.412.247c-.788.116-2.529-1.357-2.529-1.357l-.428.8s2.2.628,2.529,1.357a1.213,1.213,0,0,1,.017.452C461.781,422.736,461.821,423.119,462.038,423.235Z" transform="translate(-442.432 -405.791)" fill="#11808a"/>
        <path id="Trazado_1696-3" data-name="Trazado 1696" d="M387.384,483.347c.107.356.886.436,1.739.179s1.458-.755,1.351-1.111c-.068-.225-.4-.34-.858-.329a1.31,1.31,0,0,1-.466-.117c-.639-.475-.829-2.748-.829-2.748l-.867.261s1.11,2,.828,2.748a1.212,1.212,0,0,1-.307.332C387.555,482.812,387.313,483.111,387.384,483.347Z" transform="translate(-374.867 -461.7)" fill="#11808a"/>
        <path id="Trazado_1697-3" data-name="Trazado 1697" d="M256.969,472.157c-.176.328.318.935,1.1,1.357s1.564.5,1.74.169c.111-.207-.045-.526-.374-.839a1.31,1.31,0,0,1-.247-.412c-.116-.788,1.357-2.529,1.357-2.529l-.8-.428s-.628,2.2-1.357,2.529a1.208,1.208,0,0,1-.452.017C257.468,471.9,257.086,471.94,256.969,472.157Z" transform="translate(-252.437 -452.551)" fill="#11808a"/>
        <path id="Trazado_1698-3" data-name="Trazado 1698" d="M184.013,397.5c-.356.107-.437.886-.179,1.739s.755,1.458,1.111,1.35c.225-.068.34-.4.329-.858a1.312,1.312,0,0,1,.117-.466c.475-.639,2.748-.829,2.748-.829l-.261-.867s-2,1.11-2.748.828a1.21,1.21,0,0,1-.332-.307C184.548,397.674,184.249,397.432,184.013,397.5Z" transform="translate(-183.683 -384.986)" fill="#11808a"/>
        <path id="Trazado_1699-3" data-name="Trazado 1699" d="M195.858,267.088c-.328-.176-.935.318-1.357,1.1s-.5,1.564-.169,1.74c.207.111.526-.045.839-.374a1.313,1.313,0,0,1,.412-.247c.788-.116,2.529,1.357,2.529,1.357l.428-.8s-2.2-.628-2.529-1.357a1.209,1.209,0,0,1-.017-.452C196.115,267.587,196.075,267.2,195.858,267.088Z" transform="translate(-193.487 -262.556)" fill="#11808a"/>
      </g>
    </g>
    <g id="Grupo_3082" data-name="Grupo 3082" transform="translate(-4 -191)">
      <path id="Trazado_1703" data-name="Trazado 1703" d="M248.7,143.759a89.579,89.579,0,1,0,89.579,89.579A89.579,89.579,0,0,0,248.7,143.759Zm0,171.847a82.267,82.267,0,1,1,82.267-82.267A82.267,82.267,0,0,1,248.7,315.606Z" transform="translate(592.402 1299.564)" fill="#0e737c"/>
      <ellipse id="Elipse_540" data-name="Elipse 540" cx="77.068" cy="77.068" rx="77.068" ry="77.068" transform="translate(764.032 1455.835)" fill="#0e737c"/>
      <g id="Grupo_3081" data-name="Grupo 3081" transform="translate(814.902 1466.814)">
        <rect id="Rectángulo_870" data-name="Rectángulo 870" width="53.947" height="100.42" rx="5" transform="translate(0 31.442)" fill="#ffc22a"/>
        <rect id="Rectángulo_871" data-name="Rectángulo 871" width="41.923" height="5.85" transform="translate(6.012 97.869)" fill="#fff"/>
        <rect id="Rectángulo_872" data-name="Rectángulo 872" width="41.923" height="5.85" transform="translate(6.012 106.481)" fill="#fff"/>
        <path id="Trazado_1704" data-name="Trazado 1704" d="M815.322,607.649h-46.8a3.575,3.575,0,0,1-3.575-3.575h0a3.575,3.575,0,0,1,3.575-3.575h46.8a3.575,3.575,0,0,1,3.575,3.575h0A3.575,3.575,0,0,1,815.322,607.649Z" transform="translate(-764.95 -576.207)" fill="#a1a1a1"/>
        <path id="Trazado_1705" data-name="Trazado 1705" d="M1192.891,600.5h-6.256a3.575,3.575,0,0,1,0,7.15h6.256a3.575,3.575,0,1,0,0-7.15Z" transform="translate(-1142.519 -576.207)" fill="#d1d1d1" style="mix-blend-mode: multiply;isolation: isolate"/>
        <path id="Trazado_1706" data-name="Trazado 1706" d="M871.4,558.431H836.912a2.458,2.458,0,0,1-2.458-2.458h0a2.458,2.458,0,0,1,2.458-2.458H871.4a2.458,2.458,0,0,1,2.458,2.458h0A2.458,2.458,0,0,1,871.4,558.431Z" transform="translate(-827.182 -534.139)" fill="#ffc22a"/>
        <rect id="Rectángulo_874" data-name="Rectángulo 874" width="20.799" height="19.377" transform="translate(16.574 0)" fill="#707070"/>
        <rect id="Rectángulo_875" data-name="Rectángulo 875" width="4.144" height="19.377" transform="translate(33.23 0)" fill="#d1d1d1" style="mix-blend-mode: multiply;isolation: isolate"/>
        <path id="Trazado_1707" data-name="Trazado 1707" d="M928.248,388.707a4.875,4.875,0,0,0-4.875-4.875v9.75A4.875,4.875,0,0,0,928.248,388.707Z" transform="translate(-906.799 -382.207)" fill="#a1a1a1"/>
        <path id="Trazado_1708" data-name="Trazado 1708" d="M771.612,769.259h40.623A6.662,6.662,0,0,0,818.9,762.6V675.5a6.662,6.662,0,0,0-6.662-6.662c8.937,8.775-14.949,100.095-47.285,91.808v1.95A6.662,6.662,0,0,0,771.612,769.259Z" transform="translate(-764.95 -637.397)" fill="#f7f7f7" style="mix-blend-mode: multiply;isolation: isolate"/>
        <path id="Trazado_1709" data-name="Trazado 1709" d="M1154.688,668.839h-7.271a6.662,6.662,0,0,1,6.662,6.662v87.1a6.662,6.662,0,0,1-6.662,6.662h7.271a6.662,6.662,0,0,0,6.662-6.662V675.5A6.662,6.662,0,0,0,1154.688,668.839Z" transform="translate(-1107.403 -637.397)" fill="#e6e6e6" style="mix-blend-mode: multiply;isolation: isolate"/>
        <path id="Trazado_1710" data-name="Trazado 1710" d="M771.612,668.839h7.271a6.662,6.662,0,0,0-6.662,6.662v87.1a6.662,6.662,0,0,0,6.662,6.662h-7.271a6.662,6.662,0,0,1-6.662-6.662V675.5A6.662,6.662,0,0,1,771.612,668.839Z" transform="translate(-764.95 -637.397)" fill="#333" style="mix-blend-mode: screen;isolation: isolate"/>
        <rect id="Rectángulo_876" data-name="Rectángulo 876" width="6.012" height="94.733" transform="translate(12.999 35.504)" fill="#333" style="mix-blend-mode: screen;isolation: isolate"/>
      </g>
      <path id="Unión_2" data-name="Unión 2" d="M63.878,156.47a79.392,79.392,0,1,1,15.08,1.445A78.964,78.964,0,0,1,63.878,156.47ZM51.895,145.611A71.921,71.921,0,0,0,133.562,32.144L32.144,133.562A71.242,71.242,0,0,0,51.895,145.611ZM65.222,8.356A71.9,71.9,0,0,0,24.354,125.771L125.771,24.354a71.541,71.541,0,0,0-33.078-16,72.3,72.3,0,0,0-27.472,0Z" transform="translate(760.325 1453.694)" fill="#eb4a3f" stroke="rgba(0,0,0,0)" stroke-miterlimit="10" stroke-width="1"/>
      <path id="Trazado_1711" data-name="Trazado 1711" d="M211,190.788l-30.158-11.764a7.885,7.885,0,0,0-13.438-7.466A15.185,15.185,0,0,0,140.012,183a15.192,15.192,0,0,0,1.159,29.762,15.2,15.2,0,1,0,30.117,3.693,11.335,11.335,0,0,0,15.8-9.845L211,197.158Z" transform="translate(619.907 1280.463)" fill="#cdebfa"/>
      <path id="Trazado_1712" data-name="Trazado 1712" d="M145.388,188.517a15.25,15.25,0,0,0,.252,2.692,15.229,15.229,0,0,0-10.954,10.377c2.2-4.768,9.757-8.89,14.874-6.715-2.82-3.333-.944-13.875,5.762-20.6A15.2,15.2,0,0,0,145.388,188.517Z" transform="translate(614.278 1272.249)" fill="#cdebfa" style="mix-blend-mode: multiply;isolation: isolate"/>
      <path id="Trazado_1713" data-name="Trazado 1713" d="M438.095,604.716c-3.967,2.4-11.911,2.487-15.564-2.833,1.427,3.678-3.915,18.721-10.54,19.758a15.2,15.2,0,0,0,13.219-14.1,11.316,11.316,0,0,0,12.886-2.828Z" transform="translate(365.986 889.369)" fill="#cdebfa" style="mix-blend-mode: multiply;isolation: isolate"/>
      <path id="Trazado_1714" data-name="Trazado 1714" d="M291.556,486.108c-7.124.578-6.543,7.156-2.164,7.333-3.034,1.621-2.553,7.782,3.7,8.648-8.664.385-8.841-6.068-6.956-7.509C282.313,492.462,285.2,485.723,291.556,486.108Z" transform="translate(480.209 993.045)" fill="#cdebfa" style="mix-blend-mode: multiply;isolation: isolate"/>
      <path id="Trazado_1715" data-name="Trazado 1715" d="M472.391,327.535c-4.525-4.075.578-7.349,3.562-5.038.578-3.081,5.905-3.466,7.959.193-1.412-1.155-7.09-1.444-6.658,2.118C474.413,323.46,470.466,322.946,472.391,327.535Z" transform="translate(313.51 1141.703)" fill="#cdebfa" style="mix-blend-mode: multiply;isolation: isolate"/>
    </g>
  </g>
</svg>
