<svg xmlns="http://www.w3.org/2000/svg" width="920" height="411.421" viewBox="0 0 920 411.421">
  <g id="Grupo_3548" data-name="Grupo 3548" transform="translate(-110 -3083.579)">
    <rect id="Rectángulo_879" data-name="Rectángulo 879" width="920" height="284" transform="translate(110 3211)" fill="#3caea4"/>
    <g id="Grupo_3127" data-name="Grupo 3127" transform="translate(-762.852 2685.86)">
      <path id="Trazado_1602" data-name="Trazado 1602" d="M1367.118,1832.53s-2.581,10.756-4.653,12.311-7.434,5.181-7.434,12.169h29.193s1.3,0,1.3-11.133c0-5.958-2.9-13.347-2.9-13.347Z" transform="translate(-63.816 -1074.956)" fill="#fff"/>
      <path id="Trazado_1603" data-name="Trazado 1603" d="M1362.465,1844.84c-2.072,1.554-7.434,5.181-7.434,12.17h5.449a5.675,5.675,0,0,1,.048-2.425c1.107-4.3.641-7.1,6.609-8.991-.179-.861,2.963-9.8,2.979-12.151a5.353,5.353,0,0,1,.089-.913h-3.088S1364.537,1843.286,1362.465,1844.84Z" transform="translate(-63.816 -1074.956)" opacity="0.1"/>
      <path id="Trazado_1604" data-name="Trazado 1604" d="M1588.791,1844.841c-2.073-1.554-4.913-12.311-4.913-12.311h-15.247s-2.9,7.389-2.9,13.347c0,11.133,1.3,11.133,1.3,11.133h29.193C1596.225,1850.021,1590.864,1846.395,1588.791,1844.841Z" transform="translate(-221.676 -1074.956)" fill="#fff"/>
      <path id="Trazado_1605" data-name="Trazado 1605" d="M1570.462,1845.972a38.46,38.46,0,0,1,1.483-13.424l.007-.019h-3.32s-2.9,7.389-2.9,13.347c0,11.133,1.3,11.133,1.3,11.133h6.572c-.144-.115-.285-.235-.422-.364C1570.439,1854.055,1570.623,1849.468,1570.462,1845.972Z" transform="translate(-221.676 -1074.956)" opacity="0.1"/>
      <rect id="Rectángulo_860" data-name="Rectángulo 860" width="29.333" height="2.829" transform="translate(1291.215 782.051)" fill="#ebeef0"/>
      <rect id="Rectángulo_861" data-name="Rectángulo 861" width="29.333" height="2.829" transform="translate(1345.216 782.051)" fill="#ebeef0"/>
      <g id="Grupo_3050" data-name="Grupo 3050" transform="translate(1269.852 397.719)">
        <g id="Grupo_3042" data-name="Grupo 3042" transform="translate(105.159 187.912)">
          <path id="Trazado_1606" data-name="Trazado 1606" d="M1704.069,1146.96h-5.061a3.761,3.761,0,0,0-3.307,1.966,44.99,44.99,0,0,0-3.074,6.584c-.872,2.85-1.53,9.647-1.749,10.744s-2.4,6.989-1.535,7.674c1.206.949,4.6-1.973,5.043-4.385s1.316-4.166,2.412-3.947,1.1,4.166,1.315,5.482-1.4,5.659-2.059,6.536-5.938,4.549-2.884,7.058l2.531-1.1,1.423.728c.417-.439,7.978-6.847,9.454-9.1,1.873-2.854.814-17.1.8-19.087C1707.343,1152.373,1705.74,1146.96,1704.069,1146.96Z" transform="translate(-1689.139 -1146.96)" fill="#00808a"/>
          <path id="Trazado_1607" data-name="Trazado 1607" d="M1704.069,1146.96h-5.061a3.761,3.761,0,0,0-3.307,1.966,44.99,44.99,0,0,0-3.074,6.584c-.872,2.85-1.53,9.647-1.749,10.744s-2.4,6.989-1.535,7.674c.438.345,1.166.177,1.936-.29a68.456,68.456,0,0,1,2.72-7.88c2.223-4.821,6.694-7.959,11.658-9.483a7.346,7.346,0,0,1,1.715-.31C1707.3,1152.226,1705.718,1146.96,1704.069,1146.96Z" transform="translate(-1689.139 -1146.96)" opacity="0.1"/>
          <path id="Trazado_1608" data-name="Trazado 1608" d="M1723.861,1252.4a23.042,23.042,0,0,1-1.159,2.306l-7.4,7.4s7.131-6.14,7.667-6.942a12.141,12.141,0,0,0,1.654-2.854C1724.762,1251.6,1724.129,1251.589,1723.861,1252.4Z" transform="translate(-1708.741 -1225.494)" fill="#1d1d1b" opacity="0.2"/>
        </g>
        <g id="Grupo_3043" data-name="Grupo 3043" transform="translate(1.249 187.564)">
          <path id="Trazado_1609" data-name="Trazado 1609" d="M1287.456,1146.714c-.562-.73-9.242-1.14-9.242-1.14s-1.329,3.478-1.623,4.682c-1.35,5.518-2.6,17.7-1.025,22.7.412,1.3,7.611,8.726,9.97,8.971,0,0,.786,1.29.885,1.419a1.084,1.084,0,0,0,.765.284,1.413,1.413,0,0,0,1.473-1.094,4.338,4.338,0,0,0-.041-2.606c-2.394-5.473-3.706-8.917-3.647-10.036.364-6.944,2.576-5.456,2.635-4.121s1.224,5.914,2.543,7.16c1.488,1.405,2.422.163,2.422.163s-.916-15.245-.978-17.485C1291.49,1151.894,1288.018,1147.443,1287.456,1146.714Z" transform="translate(-1274.83 -1145.574)" fill="#00808a"/>
          <path id="Trazado_1610" data-name="Trazado 1610" d="M1278.214,1145.574s-1.329,3.478-1.623,4.682c-1.35,5.518-2.6,17.7-1.025,22.7.242.768,2.846,3.664,5.425,5.962a38.188,38.188,0,0,1-2.808-5.613c-2.583-6.392-1.253-13.266,1.9-19.178,1.933-3.623,6.4-4.688,10.01-3.355a28.071,28.071,0,0,0-2.638-4.058C1286.894,1145.984,1278.214,1145.574,1278.214,1145.574Z" transform="translate(-1274.83 -1145.574)" opacity="0.1"/>
          <path id="Trazado_1611" data-name="Trazado 1611" d="M1298.657,1256.609c-.832-.591-.432.752-.432.752l5.651,9.059-4.863-9.4A1.161,1.161,0,0,0,1298.657,1256.609Z" transform="translate(-1292.286 -1228.649)" fill="#1d1d1b" opacity="0.2"/>
        </g>
        <path id="Trazado_1612" data-name="Trazado 1612" d="M1295.9,650.081a11.247,11.247,0,0,0-11.017,4.736,25.062,25.062,0,0,0-2.5,6c-.865,2.538-1.647,5.112-2.35,7.7-1.517,5.58-4.541,10.089-5.644,15.763-2.292,11.8-2.062,23.534-2.748,35.524-.339,5.928-1.695,13.48-1.785,19.417-.076,4.992,1.059,9.752,1.2,14.743.108,3.735.28,5.574.432,9.307.055,1.35.092,2.7.149,4.051a11.209,11.209,0,0,0,1.656,4.961,8.748,8.748,0,0,0,4,3.983,6.94,6.94,0,0,0,5.893-.842,7.312,7.312,0,0,0,3.3-5.057c.114-.715.206-1.433.326-2.147.918-5.5,1.86-9.109,2.771-14.613.468-2.826.936-5.651,1.368-8.482.583-3.824.909-7.682,1.314-11.527,1.279-12.13,2.683-24.211,4.762-36.238q1.52-8.793,3.517-17.5c1.207-5.238,2.423-10.526,4.083-15.647a10.734,10.734,0,0,0,.244-5.94A11.1,11.1,0,0,0,1295.9,650.081Z" transform="translate(-1269.852 -586.683)" fill="#ebeef0"/>
        <path id="Trazado_1613" data-name="Trazado 1613" d="M1284.881,659.894a25.062,25.062,0,0,0-2.5,6c-.865,2.538-1.647,5.112-2.35,7.7-1.517,5.58-4.541,10.089-5.644,15.763-2.292,11.8-2.062,23.534-2.748,35.523-.339,5.928-1.695,13.48-1.785,19.417-.076,4.992,1.059,9.752,1.2,14.743.108,3.735.28,5.574.432,9.308.055,1.35.092,2.7.149,4.051a11.209,11.209,0,0,0,1.656,4.961,8.747,8.747,0,0,0,4,3.983,6.94,6.94,0,0,0,5.893-.842,7.311,7.311,0,0,0,3.3-5.043,7.772,7.772,0,0,1-3.524-.142,8.1,8.1,0,0,1-3.562-2.04,7.9,7.9,0,0,1-2.076-3.5,28.037,28.037,0,0,1-2.411-10.288c-.5-6.58-.047-13.191.014-19.777.033-3.621-.306-7.259.036-10.873a33.3,33.3,0,0,1,1.268-7.025,58.252,58.252,0,0,1,2.6-6.146c1.938-13.392-3.468-12.731-1.147-26.713,1.071-6.449,5.081-12.009,7.778-17.922a29.117,29.117,0,0,0,1.589-5.221,18.234,18.234,0,0,0,.006-2.607,8.691,8.691,0,0,1,.836-5.983c.093-.173.2-.339.3-.5A10.863,10.863,0,0,0,1284.881,659.894Z" transform="translate(-1269.852 -591.761)" fill="#d8dde2"/>
        <path id="Trazado_1614" data-name="Trazado 1614" d="M1340.607,656.121c.014-.07.026-.141.04-.212a11.066,11.066,0,0,0-1.268.856A6.571,6.571,0,0,1,1340.607,656.121Z" transform="translate(-1321.941 -591.154)" fill="#ced4db"/>
        <path id="Trazado_1615" data-name="Trazado 1615" d="M1662.4,687.391c-.993-5.291-3.9-10.3-5.3-15.5a123.2,123.2,0,0,0-4.19-13.07,10.963,10.963,0,0,0-3.54-4.659,11.3,11.3,0,0,0-11.6-1.207,10.989,10.989,0,0,0-6.235,9.363,16.78,16.78,0,0,0,1.051,5.5c.712,2.42,1.364,4.856,1.995,7.3,1.367,5.292,2.5,10.63,3.606,15.979,2.283,11,3.944,22.19,5.118,33.356.6,5.682,1.179,11.367,1.791,17.048.511,4.739.9,9.531,1.64,14.241.862,5.479,2.138,8.993,3.189,14.438a22.668,22.668,0,0,0,.615,3.22,7.342,7.342,0,0,0,3.878,4.232,7.47,7.47,0,0,0,9.918-3.908,11.5,11.5,0,0,0,.6-3.349c.138-1.553.269-1.208.386-2.763.327-4.327,1.606-10.855,1.635-15.192.073-11.2-1.238-20.265-2.053-31.439S1664.468,698.425,1662.4,687.391Z" transform="translate(-1540.812 -588.137)" fill="#ebeef0"/>
        <path id="Trazado_1616" data-name="Trazado 1616" d="M1661.616,772.09c-4.238-1.024-6.965-2.7-8.218-6.613a26.983,26.983,0,0,1-1-7.744,62.226,62.226,0,0,1,.308-6.544c.148-1.617.45-3.258.458-4.882a74.213,74.213,0,0,0-.357-8.293,43.6,43.6,0,0,0-2.607-9.085l.814,1.9a26.666,26.666,0,0,1-2.381-8.584,23.732,23.732,0,0,1,.463-6.293c.466-2.71,2.026-10.125,1.955-11.19-.656-2.894-2.184-5.528-2.79-8.444-.465-2.238-7.339-20.732-8.49-24.537-1.072-3.542-.731-7.5-.24-11.1a47.749,47.749,0,0,1,1.975-8.6,10.958,10.958,0,0,0-9.975,10.384,16.781,16.781,0,0,0,1.051,5.5c.712,2.42,1.364,4.856,1.995,7.3,1.367,5.292,2.5,10.63,3.606,15.979,2.283,11,3.944,22.19,5.118,33.356.6,5.682,1.179,11.367,1.791,17.048.511,4.739.9,9.532,1.64,14.241.862,5.479,2.138,8.993,3.189,14.438a22.668,22.668,0,0,0,.615,3.22,7.341,7.341,0,0,0,3.878,4.232,7.47,7.47,0,0,0,9.918-3.908,7.254,7.254,0,0,0,.422-1.625A8.53,8.53,0,0,1,1661.616,772.09Z" transform="translate(-1540.812 -588.286)" fill="#d8dde2"/>
        <path id="Trazado_1617" data-name="Trazado 1617" d="M1485.726,443.25c-.758,0-1.341.864-1.557,1.236l-.011.019-.181.366.787-9.953-4.951-6.6-10.425-4.164h-3.441l-10.425,4.164-4.951,6.6.788,9.954-.182-.366-.011-.019c-.215-.372.69,12.917,2.055,12.917a1.59,1.59,0,0,0,.284-.026l.122.489c.445,1.791.807,3.294,1.032,4.239a8.854,8.854,0,0,0,1.16,2.741c.638.994,1.707.21,3.176,2.044a9.124,9.124,0,0,0,6.061,3.644h5.225a9.124,9.124,0,0,0,6.061-3.644c1.469-1.835,2.538-1.051,3.176-2.044a8.842,8.842,0,0,0,1.16-2.741c.224-.941.585-2.441,1.032-4.239q.06-.243.122-.489a1.587,1.587,0,0,0,.284.026h0c1.365,0,2.089-1.731,2.167-1.931C1484.282,455.473,1486.037,443.25,1485.726,443.25Z" transform="translate(-1405.247 -417.525)" fill="#db9b74"/>
        <path id="Trazado_1618" data-name="Trazado 1618" d="M1420.256,604.31a39.057,39.057,0,0,0-14.441-8.056l-29.473-8.145v-.155l-.235.078-.235-.078v.155l-29.835,8.137a41.7,41.7,0,0,0-15.413,9.179c-2.377,2.19-3.153,4.662-2.878,6.316.706,4.252,10.935,25.414,10.935,25.414l-2.825,81.685s-.193,12.73.505,69.46c.062,5-1.91,12.911-1.808,17.356.042,1.848,5.146,26.567,5.2,28.323.058,2.085-2.311,5.813-2.245,7.771,2.2,65.108,9.652,59.513,9.652,59.513h15.506c3.993-8.991,5.966-26.781,7.828-40.343.68-4.954,2.212-6.785,2.59-11.052.418-4.711-1.491-10.511-1.354-15.2.068-2.3,1.472-6.229,1.526-8.458.037-1.516-1.217-3.191-1.183-4.662.252-10.963,1.375-19.551,1.916-26.078,1.632-19.656.367-23.218,1.339-26.312h1.986c.572,3.453.857,13.252,1.857,25.288.747,8.993.079,26.56,1.166,45.062.139,2.362,1.658,4.91,1.81,7.281.189,2.948-.987,5.7-.774,8.608,1.642,22.452,5.411,42.793,9.328,45.87h14.364s7.2-6.673,9.245-61.415c.082-2.2,1.882-5.679,1.946-8.027.058-2.137-1.46-7.034-1.417-9.294,0,0,1.936-3.936,1.765-6.765-3.454-57.263-.711-96.921-.711-96.921l-2.825-81.685s10.594-23.7,11.3-27.948A22.222,22.222,0,0,0,1420.256,604.31Z" transform="translate(-1313.186 -540.242)" fill="#ebeef0"/>
        <path id="Trazado_1619" data-name="Trazado 1619" d="M1357.606,608.436l-11.569,3.155a41.7,41.7,0,0,0-15.414,9.179c-2.377,2.189-3.153,4.662-2.878,6.316a28.459,28.459,0,0,0,1.535,4.6,33.237,33.237,0,0,1,4.862-7.945,27.573,27.573,0,0,1,8.763-7.049c3.147-1.611,6.51-2.733,9.788-4.041a30.993,30.993,0,0,0,3.837-2.048,7.217,7.217,0,0,1,1.129-.585c-.032-.25-.056-.5-.067-.758A6.766,6.766,0,0,1,1357.606,608.436Z" transform="translate(-1313.186 -555.588)" fill="#d8dde2"/>
        <path id="Trazado_1620" data-name="Trazado 1620" d="M1366.449,1059.624a63.586,63.586,0,0,1-2.542-16.6c-.227-5.213-.034-10.435.259-15.641.3-5.25.943-10.58.407-15.829-.53-3.306-1.343-6.556-2.149-9.805-.759-3.06-1.32-6.154-2.347-9.138-1.293-3.753-2.159-7.7-.918-11.614a18.2,18.2,0,0,1,2.462-4.974,33.7,33.7,0,0,0,2.01-3.026c.091-.294.173-.59.242-.89a17.768,17.768,0,0,0-.052-2.334c-.478-2.733-1.239-5.41-1.652-8.156a78.759,78.759,0,0,1-.506-11.766c-.011-13.182-.109-26.369-.834-39.535a83.168,83.168,0,0,1-.322-9.166,71.882,71.882,0,0,1,1.414-10.213c1.074-5.321-.478-18.62,5.586-9.429.313-2.776-1.8-12.054-2.059-14.836a52.378,52.378,0,0,0-2.9-9.309,36.482,36.482,0,0,1-2.457-11.391c-.223-4.693.4-9.373-.031-14.06a17.619,17.619,0,0,0-.515-2.12l-.125-.176a8.35,8.35,0,0,1-.65-.554l-2.435,70.416s-.193,12.73.505,69.459c.061,5-1.91,12.911-1.808,17.356.042,1.848,5.146,26.567,5.195,28.323.058,2.085-2.311,5.813-2.245,7.771,2.2,65.108,9.651,59.513,9.651,59.513h15.506a36.9,36.9,0,0,0,1.33-3.53,24.8,24.8,0,0,1-9.292-4.834C1370.828,1070.087,1368.117,1064.819,1366.449,1059.624Z" transform="translate(-1333.668 -720.881)" fill="#d8dde2"/>
        <path id="Trazado_1621" data-name="Trazado 1621" d="M1537.107,1407.445c-.057-1.041-.044-2.081-.005-3.121-.279-.13-.557-.268-.829-.422a11.575,11.575,0,0,1-5.278-7.858,28.078,28.078,0,0,1-.336-7.415c.2-2.458,1.122-4.649,1.745-6.95-.5-1.045-1-2.086-1.409-3.184a16.055,16.055,0,0,1-.815-4.727,33.5,33.5,0,0,1,.785-8.02c.786-4.112,2.15-8.091,2.861-12.218a22.112,22.112,0,0,0,.063-3.552q-.146-.715-.348-1.42a17.909,17.909,0,0,1-2.62-1.945,10.834,10.834,0,0,1-3.07-5.265,28.27,28.27,0,0,1-.5-4.319,42.332,42.332,0,0,1-.089-10.666c.331-3.108.694-6.185.846-9.309a106.336,106.336,0,0,0-.2-16.957,42.942,42.942,0,0,0-2.316-8.843,33.45,33.45,0,0,0-1.625-3.106q-.628-1.056-1.334-2.062c-.087-.124-.173-.25-.261-.377l-.186-.221c-.532-.639-1.085-1.268-1.662-1.874-.806,2.213-1.42,4.489-2.148,6.728h1.793c.571,3.453.857,13.252,1.857,25.288.747,8.993.079,26.559,1.165,45.062.138,2.363,1.658,4.91,1.811,7.281.189,2.948-.987,5.7-.774,8.608,1.642,22.453,5.411,42.793,9.328,45.87h14.364a1.944,1.944,0,0,0,.18-.211,7.861,7.861,0,0,1-3.868-1.005C1539.2,1418.352,1537.405,1412.917,1537.107,1407.445Z" transform="translate(-1456.047 -1061.429)" fill="#d8dde2"/>
        <path id="Trazado_1622" data-name="Trazado 1622" d="M1437.012,1496.268c4.709,10.123,17.4,25.52,15.119,18.77S1437.012,1496.268,1437.012,1496.268Z" transform="translate(-1395.088 -1220.749)" fill="#d8dde2" opacity="0.5"/>
        <path id="Trazado_1623" data-name="Trazado 1623" d="M1460.725,1565.864c2.085.047-5.991-16.517-9.821-22.686C1450.9,1543.178,1457.343,1565.788,1460.725,1565.864Z" transform="translate(-1405.496 -1255.894)" fill="#d8dde2" opacity="0.5"/>
        <path id="Trazado_1624" data-name="Trazado 1624" d="M1591.664,976.028c-4.058-.178-17.056,33.982-17.056,33.982C1583.8,1001.073,1595.721,976.206,1591.664,976.028Z" transform="translate(-1498.174 -830.986)" fill="#d8dde2" opacity="0.5"/>
        <path id="Trazado_1625" data-name="Trazado 1625" d="M1617.465,1065.007c-2.72.389-12.8,11.656-12.8,11.656C1615.182,1072.778,1620.184,1064.618,1617.465,1065.007Z" transform="translate(-1520.694 -897.639)" fill="#d8dde2" opacity="0.5"/>
        <path id="Trazado_1626" data-name="Trazado 1626" d="M1380.595,979.052s7.687,19.2,15.111,28.148C1395.706,1007.2,1384.869,964.5,1380.595,979.052Z" transform="translate(-1352.82 -830.986)" fill="#d8dde2"/>
        <path id="Trazado_1627" data-name="Trazado 1627" d="M1389.444,788.83c4.274-1.166,15.542-7.383,15.111-9.714S1383.06,790.571,1389.444,788.83Z" transform="translate(-1358.548 -683.261)" fill="#d8dde2"/>
        <path id="Trazado_1628" data-name="Trazado 1628" d="M1383.716,749.553c-3.5,1.943-3.109,13.988-3.109,13.988C1384.276,755.119,1387.213,747.61,1383.716,749.553Z" transform="translate(-1352.82 -661.08)" fill="#d8dde2"/>
        <path id="Trazado_1629" data-name="Trazado 1629" d="M1485.823,568.136v-.155l-.516.077-.516-.077v.155l-9.294,1.394L1473.45,581.4l1.69,1.3a16.719,16.719,0,0,0,20.823-.317l1.2-.987-2.048-11.875Z" transform="translate(-1422.387 -525.279)" fill="#fff"/>
        <path id="Trazado_1630" data-name="Trazado 1630" d="M1488.837,521.955c-2.444,0-4.859-.055-5.651-.762-1.2-1.067-2.071-1.76-2.923-1.756a6.543,6.543,0,0,0-2.721,1.756c-.792.707-3.208.762-5.651.762s-5.357,2.749-5.012,7.649c.335,4.749,3.035,8.478,13.111,8.325h.749c10.076.153,12.775-3.576,13.11-8.325C1494.194,524.7,1491.28,521.955,1488.837,521.955Z" transform="translate(-1417.442 -488.909)" fill="#00808a"/>
        <path id="Trazado_1631" data-name="Trazado 1631" d="M1458,561.358h-.32c-7.7-.173-15.786-6.218-15.786-6.218l-5.106,15.154,20.435,5.918v.357l.617-.179.617.179v-.357l20.435-5.918-5.106-15.154S1465.7,561.185,1458,561.358Z" transform="translate(-1394.923 -515.658)" fill="#ebeef0"/>
        <g id="Grupo_3044" data-name="Grupo 3044" transform="translate(45.969 19.557)">
          <path id="Trazado_1632" data-name="Trazado 1632" d="M1486.846,479.736c-.907-.548-1.614-.952-4.389-1.214-.058-.005-.119-.008-.177-.008h-20.135c-.058,0-.119,0-.176.008-2.775.262-3.482.666-4.389,1.214-3.157,1.909-2.116,13.916,7.177,14.175,3.667.1,4.795-2.847,5.909-4.918a1.761,1.761,0,0,1,3.093,0c1.115,2.071,2.242,5.02,5.909,4.918C1488.961,493.652,1490,481.645,1486.846,479.736Z" transform="translate(-1455.26 -477.807)" fill="#7095af" opacity="0.5"/>
          <path id="Trazado_1633" data-name="Trazado 1633" d="M1485.089,477.022c-1.061-.642-1.907-1.051-4.691-1.313-.079-.007-.162-.011-.24-.011h-20.135c-.079,0-.162,0-.243.012-2.782.263-3.627.671-4.688,1.313-1.795,1.085-2.459,4.516-1.544,7.981,1.207,4.574,4.6,7.379,9.068,7.5,3.762.1,5.185-2.658,6.229-4.676.109-.21.215-.416.321-.613a1.055,1.055,0,0,1,1.85,0c.106.2.212.4.321.613,1.025,1.98,2.421,4.679,6.023,4.679l.206,0c4.471-.124,7.861-2.93,9.068-7.5C1487.548,481.538,1486.884,478.107,1485.089,477.022Zm.179,7.62c-.5,1.889-2.251,6.3-7.742,6.452-2.872.085-3.919-1.95-4.935-3.913-.112-.217-.222-.429-.332-.633a2.467,2.467,0,0,0-4.337,0c-.11.2-.22.416-.332.633-1.016,1.963-2.065,3.991-4.936,3.913-5.49-.152-7.243-4.563-7.742-6.452-.8-3.024-.174-5.756.91-6.412.83-.5,1.429-.865,4.088-1.116.037,0,.075-.005.112-.005h20.135c.036,0,.075,0,.11.005,2.661.251,3.26.614,4.09,1.116C1485.442,478.886,1486.066,481.618,1485.268,484.642Z" transform="translate(-1453.139 -475.697)" fill="#28597a"/>
        </g>
        <path id="Trazado_1634" data-name="Trazado 1634" d="M1473.506,437.192c.371-8.946,8.042-39.473-18.179-39.467,0,0-.1,0-.157,0s-.1,0-.157,0v.006c-23.132.628-18.071,26.128-17.286,39.78.285,4.951-3.739,12.713-3.739,12.713,3.424,8.344,19.48,12.532,21.215,12.316,1.734.216,18.936-3.789,22.3-12.133C1477.5,450.4,1473.3,442.146,1473.506,437.192Zm-10.966,7.985c-4.839,3.936-11.218,1.887-14.3,0-8.037-4.925-9.535-21.6-8.946-27.194.328-3.114,9.972-6,16.35-6.074,4.3-.05,15.894,3.666,16.222,6.781C1472.455,424.279,1471.281,438.067,1462.54,445.176Z" transform="translate(-1392.822 -397.719)" fill="#ebeef0"/>
        <path id="Trazado_1635" data-name="Trazado 1635" d="M1473.5,452.151a28.642,28.642,0,0,1-12.779,9.047c-5.376,1.738-11.833.653-15.828-3.528-3.3-3.457-4.059-8.114-4.124-12.716-.036-2.591-.122-5.182-.193-7.773a46.84,46.84,0,0,1-1.279-14.012,3.5,3.5,0,0,1,1.757-2.224,38.227,38.227,0,0,1,5.587-16.3c-13.377,6.041-9.583,26.376-8.911,38.05.285,4.951-3.739,12.713-3.739,12.713,3.424,8.344,19.48,12.532,21.215,12.316,1.734.216,18.936-3.789,22.3-12.133a54.9,54.9,0,0,1-2.383-5.585A26.432,26.432,0,0,1,1473.5,452.151Z" transform="translate(-1392.822 -402.906)" fill="#ced4db"/>
        <g id="Grupo_3045" data-name="Grupo 3045" transform="translate(43.055 12.993)">
          <path id="Trazado_1636" data-name="Trazado 1636" d="M1484.308,449.525h-29.618a2.465,2.465,0,0,0-2.465,2.465V484.1a4.261,4.261,0,0,0,4.261,4.261h26.026a4.261,4.261,0,0,0,4.261-4.261V451.99A2.465,2.465,0,0,0,1484.308,449.525Z" transform="translate(-1449.541 -449.525)" fill="#ebeef0" opacity="0.3"/>
          <path id="Trazado_1637" data-name="Trazado 1637" d="M1572.592,449.525h-2.223c0,.117.009.234.009.352v36.093a9.469,9.469,0,0,1-.315,2.394h.733a4.261,4.261,0,0,0,4.261-4.261V451.99A2.465,2.465,0,0,0,1572.592,449.525Z" transform="translate(-1537.825 -449.525)" fill="#ebeef0" opacity="0.5"/>
          <path id="Trazado_1638" data-name="Trazado 1638" d="M1479.963,449.563v38.8h9.573V449.525h-9.574C1479.962,449.538,1479.963,449.55,1479.963,449.563Z" transform="translate(-1470.321 -449.525)" fill="#ebeef0" opacity="0.5"/>
          <rect id="Rectángulo_862" data-name="Rectángulo 862" width="39.572" height="2.392" fill="#1586a3"/>
        </g>
        <g id="Grupo_3046" data-name="Grupo 3046" transform="translate(60.799 64.816)">
          <path id="Trazado_1639" data-name="Trazado 1639" d="M1512.268,791.514c0,.958,1,27.841,1.339,28.737h1.986c.358-.919.912-27.621.912-28.607V656.155h-4.237Z" transform="translate(-1512.268 -656.155)" fill="#00808a"/>
        </g>
        <g id="Grupo_3047" data-name="Grupo 3047" transform="translate(38.516 50.774)">
          <path id="Trazado_1640" data-name="Trazado 1640" d="M1447.141,612.063c-12.35-1.308-20.226-11.793-20.3-11.9l-3.415,2.508c.368.5,9.188,12.317,23.672,13.644l.329.03.322-.071c.657-.145,16.172-3.666,23.959-13.344l-3.3-2.657C1462.115,608.088,1449.3,611.529,1447.141,612.063Z" transform="translate(-1423.422 -600.163)" fill="#00808a"/>
        </g>
        <g id="Grupo_3048" data-name="Grupo 3048" transform="translate(23.767 140.433)">
          <path id="Trazado_1641" data-name="Trazado 1641" d="M1364.791,957.654c0,1.46-.149,4.129-.177,4.3a228.006,228.006,0,0,0,26.693,4.07q9.226.848,17.523.847c12.928,0,24.378-1.546,33.7-4.617-.015-.132-.259-3.255-.259-4.6C1413.759,967.658,1371.931,959.248,1364.791,957.654Z" transform="translate(-1364.614 -957.654)" fill="#00808a"/>
        </g>
        <g id="Grupo_3049" data-name="Grupo 3049" transform="translate(60.229 0.003)">
          <rect id="Rectángulo_863" data-name="Rectángulo 863" width="4.237" height="13.013" fill="#00808a"/>
        </g>
        <path id="Trazado_1642" data-name="Trazado 1642" d="M1281.3,1146.169l12.6-.628v-4.5l-11.816-.409Z" transform="translate(-1278.43 -954.309)" fill="#ebeef0"/>
        <path id="Trazado_1643" data-name="Trazado 1643" d="M1282.084,1140.634l-.783,5.535,4.719-.235a9.314,9.314,0,0,1-.155-1.321,7.346,7.346,0,0,1,.9-3.817Z" transform="translate(-1278.43 -954.309)" fill="#d8dde2"/>
        <path id="Trazado_1644" data-name="Trazado 1644" d="M1710.285,1149.237h12.121v-4.864h-11.88Z" transform="translate(-1599.823 -957.11)" fill="#ebeef0"/>
        <path id="Trazado_1645" data-name="Trazado 1645" d="M1710.526,1144.373l-.241,4.865h5.274a9.318,9.318,0,0,1-.329-2.074,7.191,7.191,0,0,1,.437-2.791Z" transform="translate(-1599.823 -957.11)" fill="#d8dde2"/>
      </g>
      <path id="Trazado_1646" data-name="Trazado 1646" d="M1623.653,1577.152s-1.34,2.218,1.755,10.711c.982,2.695,8.3,6.553,8.3,6.553S1622.183,1571.852,1623.653,1577.152Z" transform="translate(-264.851 -883.023)" fill="#d8dde2" opacity="0.5"/>
      <path id="Trazado_1647" data-name="Trazado 1647" d="M1636.346,1554.651c-3.408-1.993-11.832-7.359-11.832-7.359C1628.3,1556.242,1633.872,1554.454,1636.346,1554.651Z" transform="translate(-265.713 -861.257)" fill="#d8dde2" opacity="0.5"/>
      <path id="Trazado_1648" data-name="Trazado 1648" d="M1672.587,1576.9a1.673,1.673,0,0,0-.9-.271C1673.021,1577.412,1673.588,1577.676,1672.587,1576.9Z" transform="translate(-301.056 -883.239)" fill="#d8dde2" opacity="0.5"/>
      <path id="Trazado_1649" data-name="Trazado 1649" d="M1380.6,1867.176c-.277.374-4.929,1.227-7.63,1.857-3.935.917-13.651-.52-13.058-2.893,0,0-6.634,4.493-8.08,6.3s-5.13,11.78-1.481,12.576,32.2,0,32.2,0,2.474-2.332,2.006-7.47C1384.241,1874.027,1380.717,1867.024,1380.6,1867.176Z" transform="translate(-59.142 -1100.137)" fill="#b3e1e4"/>
      <path id="Trazado_1650" data-name="Trazado 1650" d="M1369.877,1880.8c-.214,1.382.4,2.233,2.335,0a9.223,9.223,0,0,0,2.154-4.785S1370.091,1879.42,1369.877,1880.8Z" transform="translate(-74.908 -1107.537)" fill="#80cdd2" opacity="0.5"/>
      <path id="Trazado_1651" data-name="Trazado 1651" d="M1452.462,1891.508c.342,1.487,1.3,2.105,2.356-.938a10.092,10.092,0,0,0,.241-5.717S1452.12,1890.02,1452.462,1891.508Z" transform="translate(-136.791 -1114.157)" fill="#80cdd2" opacity="0.5"/>
      <path id="Trazado_1652" data-name="Trazado 1652" d="M1467.057,1881.806c0,1.4,2,7.148,2.808,5.863S1467.057,1878.915,1467.057,1881.806Z" transform="translate(-147.746 -1111.379)" fill="#80cdd2" opacity="0.5"/>
      <path id="Trazado_1653" data-name="Trazado 1653" d="M1410.883,1864.036c-.591-.323-7.127,2.316-12.5,1.978-5.781-.364-7.042-2.434-7.708-2.619-1.446-.4-1.06,1.227-1.06,1.227a9,9,0,0,0,6.013,2.88c8.942.344,15.447-1.859,15.768-2.083S1411.474,1864.359,1410.883,1864.036Z" transform="translate(-89.69 -1098.032)" fill="#80cdd2"/>
      <path id="Trazado_1654" data-name="Trazado 1654" d="M1381.453,1882.666a19.714,19.714,0,0,1-8.147,2.123,32.109,32.109,0,0,1-7.171-.551,27.919,27.919,0,0,1-4.381-1.032,8.256,8.256,0,0,1-5.637-9.929,7.676,7.676,0,0,1,3.6-4.725q-.27-.2-.523-.422c-1.76,1.219-6.2,4.362-7.354,5.8-1.446,1.807-5.13,11.78-1.481,12.576s32.2,0,32.2,0,2.1-1.985,2.063-6.323A11.422,11.422,0,0,1,1381.453,1882.666Z" transform="translate(-59.142 -1101.627)" opacity="0.05"/>
      <path id="Trazado_1655" data-name="Trazado 1655" d="M1583.949,1872.33a49.065,49.065,0,0,1-10.484,1.8c-3.373.184-11.455-2.411-11.455-2.411s-1.395,4.714-1.234,7.16-.521,10.157,2.39,10.317,30.056,0,30.86,0C1596.275,1889.2,1595.127,1876.627,1583.949,1872.33Z" transform="translate(-217.95 -1104.317)" fill="#b3e1e4"/>
      <path id="Trazado_1656" data-name="Trazado 1656" d="M1585.619,1870.847c-.946.49-6.125,1.374-10.289,1.808s-10.3-1.961-11.151-1.768-.4,1.494-.4,1.494,8.162,2.49,11.543,2.312,11.187-2.368,11.532-2.931S1587,1870.132,1585.619,1870.847Z" transform="translate(-220.119 -1103.485)" fill="#80cdd2"/>
      <path id="Trazado_1657" data-name="Trazado 1657" d="M1578.858,1891.326s-1.6,4.512-1.324,5.629S1580.143,1890.684,1578.858,1891.326Z" transform="translate(-230.49 -1118.977)" fill="#80cdd2" opacity="0.5"/>
      <path id="Trazado_1658" data-name="Trazado 1658" d="M1589,1894.68a.232.232,0,0,0-.453.085c.107,2.345.249,4.532.7,4.724.562.241,1.044-1.285.482-2.731C1589.49,1896.143,1589.226,1895.368,1589,1894.68Z" transform="translate(-238.767 -1121.399)" fill="#80cdd2" opacity="0.5"/>
      <path id="Trazado_1659" data-name="Trazado 1659" d="M1592.1,1890.89c-4.893-.181-9.851.058-14.742.255a16.351,16.351,0,0,1-8.137-1.525c-3.158-1.58-5-4.644-6.106-7.867a6.906,6.906,0,0,1,.254-5.064,7.764,7.764,0,0,1-1.668-.4,23.524,23.524,0,0,0-.922,6.014c.16,2.446-.521,10.157,2.39,10.317s30.056,0,30.86,0c.553,0,.955-.9,1.068-2.295A7.08,7.08,0,0,1,1592.1,1890.89Z" transform="translate(-217.95 -1107.738)" opacity="0.05"/>
    </g>
    <path id="Trazado_1802" data-name="Trazado 1802" d="M0,115.207,920,.934V141H0Z" transform="translate(110 3354)" fill="#dedede" opacity="0.251"/>
    <g id="Grupo_3132" data-name="Grupo 3132" transform="translate(804.75 3279.466)">
      <path id="Trazado_1795" data-name="Trazado 1795" d="M2451.374,417.272a3.874,3.874,0,1,0,7.747,0c0-2.139-3.873-7.331-3.873-7.331S2451.374,415.132,2451.374,417.272Z" transform="translate(-2451.374 -406.054)" fill="#3caea4"/>
      <path id="Trazado_1796" data-name="Trazado 1796" d="M2468.75,442.582a3.874,3.874,0,0,0,7.747,0c0-2.14-3.873-7.331-3.873-7.331S2468.75,440.442,2468.75,442.582Z" transform="translate(-2461.003 -420.08)" fill="#3caea4"/>
      <path id="Trazado_1797" data-name="Trazado 1797" d="M2475.129,408.554a3.874,3.874,0,1,0,7.747,0c0-2.139-3.873-7.331-3.873-7.331S2475.129,406.414,2475.129,408.554Z" transform="translate(-2464.538 -401.223)" fill="#3caea4"/>
    </g>
    <g id="Grupo_3138" data-name="Grupo 3138" transform="translate(867 3293)">
      <g id="Grupo_3136" data-name="Grupo 3136" transform="translate(0)" opacity="0.8">
        <ellipse id="Elipse_546" data-name="Elipse 546" cx="51.048" cy="51.048" rx="51.048" ry="51.048" transform="matrix(0.975, -0.221, 0.221, 0.975, 0, 22.584)" fill="#fff"/>
      </g>
      <g id="Grupo_3137" data-name="Grupo 3137" transform="translate(38.447 29.205)">
        <path id="Trazado_1803" data-name="Trazado 1803" d="M4004.472,842.452l-4.719-8.173a1.21,1.21,0,0,0-2.1,0l-4.719,8.173-4.719,8.173a1.21,1.21,0,0,0,1.048,1.815h18.875a1.21,1.21,0,0,0,1.048-1.815Zm-4.825,6.4h-1.885v-1.573h1.885Zm0-2.869h-1.885v-5.226h1.885Z" transform="translate(-3976.077 -806.886)" fill="#00808f"/>
        <path id="Trazado_1804" data-name="Trazado 1804" d="M3971.375,857.031h32.768l3.31-48.188h-39.387Zm3.9-21.158,4.719-8.173,4.719-8.173a3.521,3.521,0,0,1,6.1,0l4.719,8.173,4.718,8.173a3.52,3.52,0,0,1-3.049,5.281h-18.875a3.521,3.521,0,0,1-3.049-5.281Z" transform="translate(-3965.13 -793.289)" fill="#00808f"/>
        <path id="Trazado_1805" data-name="Trazado 1805" d="M4000.347,780.752h-9.179V777.5a3.044,3.044,0,0,0-3.041-3.041h-7.844a3.044,3.044,0,0,0-3.041,3.041v3.25h-9.179a6.487,6.487,0,0,0-6.487,6.487h45.257A6.487,6.487,0,0,0,4000.347,780.752Zm-11.894-1.357h-8.5V777.5a.326.326,0,0,1,.326-.326h7.844a.326.326,0,0,1,.326.326Z" transform="translate(-3961.577 -774.461)" fill="#00808f"/>
      </g>
    </g>
    <g id="Grupo_3140" data-name="Grupo 3140" transform="translate(644 3293)">
      <g id="Grupo_3139" data-name="Grupo 3139" transform="translate(0 0)" opacity="0.8">
        <ellipse id="Elipse_547" data-name="Elipse 547" cx="51.048" cy="51.048" rx="51.048" ry="51.048" transform="translate(0 22.273) rotate(-12.601)" fill="#fff"/>
      </g>
      <path id="Trazado_1806" data-name="Trazado 1806" d="M2036.008,801.651s-.014-.422-.037-1.16c-.012-.37-.026-.818-.043-1.333s-.027-1.1-.065-1.73-.086-1.322-.133-2.05q-.035-.546-.073-1.12c-.03-.382-.075-.773-.114-1.171-.086-.795-.151-1.617-.26-2.453s-.238-1.687-.357-2.536l-.47-2.539q-.145-.629-.288-1.246c-.1-.411-.178-.817-.3-1.216-.23-.8-.432-1.571-.7-2.3l-.188-.542c-.061-.178-.121-.353-.2-.525l-.413-1c-.133-.319-.3-.626-.438-.917-.073-.145-.14-.287-.214-.425l-.233-.4a12.223,12.223,0,0,0-.892-1.355c-.156-.193-.288-.36-.422-.512-.149-.158-.273-.287-.385-.4-.172-.156-.312-.268-.406-.342l-.062-.047c-.04-.031-.087-.065-.13-.094a2.441,2.441,0,0,0-1.288-.415c-.136-.059-.278-.116-.429-.173,0,0-.241-.062-.654-.151h.054c.026-.029.054-.058.078-.089l-.588-.473-.016-.034-.021-.047-.053-.12-.023-.053c-.019-.045-.039-.091-.059-.14l-.024-.058c-.021-.051-.042-.1-.062-.157-.009-.02-.016-.04-.024-.061-.022-.057-.044-.116-.066-.176a4.785,4.785,0,0,1-.357-1.658c.077-1.844,1.616-8.019-3.432-8.338v-.016h-.9v.027a4.233,4.233,0,0,0-1.36.345l0,0-.027.015a3.1,3.1,0,0,0-.438.245l-.054.038a3.008,3.008,0,0,0-.7.685l-.028.037a3.476,3.476,0,0,0-.246.4l-.031.06a4.14,4.14,0,0,0-.193.443c0,.012-.008.024-.012.037q-.085.236-.147.486l0,.013c-.041.166-.075.337-.1.51,0,.023-.008.045-.011.067q-.039.255-.063.516c0,.021,0,.043-.005.065-.03.361-.041.731-.037,1.1,0,.019,0,.039,0,.059q0,.269.015.536c0,.025,0,.051,0,.076.008.179.018.357.03.532l0,.032c.012.181.025.36.039.535v.018q.023.283.046.553c.014.16.026.316.038.467l.005.075c.012.154.023.3.031.448a1.97,1.97,0,0,1,0,.2,3.97,3.97,0,0,1-.158.885c-.063.225-.139.447-.216.65-.088.231-.176.435-.249.6l-.007-.01-.723.531c.008.011.044.057.09.114-.49.1-.793.18-.793.18-.141.06-.273.121-.4.183a2.441,2.441,0,0,0-1.264.5l-.062.047c-.095.074-.234.186-.407.342-.111.11-.235.239-.385.4-.134.152-.265.319-.422.512a12.274,12.274,0,0,0-.892,1.355l-.233.4c-.074.138-.141.28-.214.425-.139.291-.306.6-.438.917l-.413,1c-.076.172-.136.347-.2.525l-.188.542c-.272.731-.474,1.5-.7,2.3-.123.4-.2.805-.3,1.216s-.191.826-.288,1.246l-.47,2.539c-.12.85-.239,1.7-.357,2.536s-.175,1.658-.26,2.453c-.038.4-.083.789-.114,1.171s-.049.756-.073,1.12c-.048.727-.092,1.415-.133,2.05s-.044,1.216-.065,1.73-.031.964-.043,1.333c-.024.738-.037,1.16-.037,1.16a1.58,1.58,0,0,0,.092.576c-.018.044-.04.086-.055.132a17.986,17.986,0,0,0-.623,2.532,11.054,11.054,0,0,0,1.272,4.518.745.745,0,0,0,.428-.932c-.15-.745-.453-2.428.135-2.551.416-.087.216,1.487.416,1.74s.5-.074.5-.54.05-1.491,0-1.91c-.035-.292.121-1.3.127-2.113a1.575,1.575,0,0,0,.852-1.249l0-.049.111-1.128c.035-.358.078-.793.127-1.293s.1-1.064.173-1.674.167-1.271.259-1.969l.141-1.074c.053-.365.121-.735.183-1.113.132-.753.246-1.537.4-2.321l.493-2.367.59-2.323q.17-.562.337-1.113c.114-.365.21-.735.342-1.075.06-.164.118-.328.176-.489.313,2.472.617,5.075.7,6.464.14,2.32.066,8.313.028,10.738,0,.02-.006.04-.008.06,0,0,0,.156-.01.449,0,.271-.005.654,0,1.137.005.964-.263,2.323-.21,3.942s.13,3.5.23,5.513c.054,1.006.109,2.046.166,3.1q.046.787.093,1.585.023.4.048.81l.053.8c.567,8.517,1.425,14.4,1.425,14.4v.013a1.78,1.78,0,0,0,.312.888,4.25,4.25,0,0,0-2,3.414h5.258v-3.944l-.058-.009a1.773,1.773,0,0,0,.065-.458s.662-5.9.738-14.433l.007-.8q.007-.393.013-.785.013-.8.026-1.584c.023-1.042.046-2.068.068-3.06.051-1.986.113-3.837.182-5.415s.144-2.886.206-3.786c.022-.316.042-.579.059-.789h.583c.017.209.038.472.059.789.063.9.138,2.207.206,3.786s.131,3.429.182,5.415c.022.992.045,2.018.068,3.06q.012.787.026,1.584.007.392.013.785l.007.8c.076,8.534.739,14.433.739,14.433a1.765,1.765,0,0,0,.065.451c-.068.01-.107.017-.107.017v3.944h5.258a4.266,4.266,0,0,0-1.961-3.394,1.782,1.782,0,0,0,.327-.915v-.006s.859-5.881,1.425-14.4l.053-.8q.024-.405.048-.81.047-.8.093-1.585c.057-1.056.112-2.1.166-3.1.1-2.011.179-3.893.23-5.513s-.216-2.978-.211-3.942c0-.223,0-.422,0-.6h0s0-.074-.005-.205,0-.235,0-.33c-.007-.293-.01-.449-.01-.449,0-.019-.005-.038-.007-.057-.056-2.423-.175-8.422-.052-10.745.076-1.441.38-4.191.686-6.745.092.254.183.513.278.774.133.341.228.711.343,1.075s.223.738.337,1.113l.59,2.323c.165.793.331,1.586.493,2.367s.27,1.568.4,2.321c.062.378.13.747.183,1.113s.1.725.141,1.074l.259,1.969c.077.611.12,1.176.173,1.674s.092.935.127,1.293c.071.718.111,1.128.111,1.128l.005.054a1.57,1.57,0,0,0,.5.995c-.032.836.162,2.039.123,2.362-.05.419,0,1.444,0,1.91s.3.792.5.54,0-1.827.416-1.74c.588.123.285,1.806.135,2.551a.745.745,0,0,0,.428.932,11.052,11.052,0,0,0,1.272-4.518,16.575,16.575,0,0,0-.537-2.256A1.569,1.569,0,0,0,2036.008,801.651Zm-10.9-33.54a1.851,1.851,0,0,1-.875,1.174,1.714,1.714,0,0,1-.764.192.918.918,0,0,1-.864-.5c-.066-.1-.123-.214-.181-.325-.023-.046-.047-.091-.07-.134a.522.522,0,0,0-.917,0c-.024.043-.047.088-.071.134-.057.11-.115.221-.181.325a.921.921,0,0,1-.864.5,1.712,1.712,0,0,1-.764-.192,1.849,1.849,0,0,1-.875-1.174c-.169-.64-.037-1.218.192-1.357a1.633,1.633,0,0,1,.865-.236h4.309a1.63,1.63,0,0,1,.866.236C2025.141,766.893,2025.273,767.472,2025.1,768.112Z" transform="translate(-1960.703 -738.674)" fill="#005c78"/>
    </g>
    <g id="Grupo_3142" data-name="Grupo 3142" transform="translate(265 3294)">
      <g id="Grupo_3141" data-name="Grupo 3141" transform="translate(0 0)" opacity="0.8">
        <ellipse id="Elipse_548" data-name="Elipse 548" cx="51.048" cy="51.048" rx="51.048" ry="51.048" transform="translate(0 23.457) rotate(-13.283)" fill="#fff"/>
      </g>
      <path id="Trazado_1807" data-name="Trazado 1807" d="M2031,1167.9h-50.19a2.5,2.5,0,1,0,0,5h.357v37.011a13.9,13.9,0,0,0,13.889,13.888h21.7a13.9,13.9,0,0,0,13.887-13.888v-37.011H2031a2.5,2.5,0,1,0,0-5Zm-3.216,42.013a11.042,11.042,0,0,1-11.029,11.03h-21.7a11.042,11.042,0,0,1-11.03-11.03v-18.971c.083.474.181.955.312,1.449,1.618,6.131,6.176,9.892,12.191,10.059.1,0,.192,0,.286,0,5.051,0,7.021-3.807,8.333-6.341.134-.258.265-.511.4-.754a.417.417,0,0,1,.723,0c.131.243.262.5.4.754,1.337,2.582,3.364,6.487,8.619,6.338,6.016-.167,10.573-3.928,12.192-10.059.131-.495.229-.976.312-1.449Zm-3.766-18.434c-.572,2.167-2.578,7.225-8.837,7.4-2.819.08-3.9-1.613-5.346-4.408-.143-.276-.283-.546-.422-.8a3.989,3.989,0,0,0-7.015,0c-.139.259-.279.529-.422.805-1.446,2.795-2.518,4.489-5.347,4.408-6.258-.174-8.264-5.232-8.836-7.4-.913-3.461-.176-6.468.732-7.018.97-.586,1.61-.974,4.734-1.269l.053,0H2018.5a.515.515,0,0,1,.053,0c3.123.295,3.764.682,4.734,1.269h0C2024.192,1185.015,2024.928,1188.022,2024.015,1191.483Zm3.766-5.63a6.626,6.626,0,0,0-2.649-4.445h0c-1.437-.869-2.575-1.422-6.248-1.769-.127-.012-.26-.018-.389-.018h-25.187c-.127,0-.261.006-.388.018-3.673.346-4.811.9-6.248,1.769a6.628,6.628,0,0,0-2.649,4.445v-12.947h43.758Z" transform="translate(-1944.491 -1134.443)" fill="#005c78"/>
    </g>
    <g id="Grupo_3145" data-name="Grupo 3145" transform="translate(153 3294)">
      <g id="Grupo_3143" data-name="Grupo 3143" transform="translate(0 0)" opacity="0.8">
        <ellipse id="Elipse_549" data-name="Elipse 549" cx="51.048" cy="51.048" rx="51.048" ry="51.048" transform="matrix(0.977, -0.215, 0.215, 0.977, 0, 21.902)" fill="#fff"/>
      </g>
      <g id="Grupo_3144" data-name="Grupo 3144" transform="translate(24.381 36.447)">
        <path id="Trazado_1808" data-name="Trazado 1808" d="M2016.076,419a84.334,84.334,0,0,0-7.437-5.936c-5.772-4.509-8.723-8.038-13.237-8.338,0-.009,0-.019,0-.028-.066,0-.128.011-.193.014s-.127-.013-.192-.014c0,.009,0,.018,0,.028-4.514.3-7.464,3.828-13.236,8.338a84.211,84.211,0,0,0-7.437,5.936,15.589,15.589,0,1,0,6.571,29.734,25.456,25.456,0,0,0,14.1,4.68v.012c.064,0,.127-.005.19-.006s.127.005.19.006v-.012a25.454,25.454,0,0,0,14.108-4.682A15.586,15.586,0,1,0,2016.076,419Zm-41.706,28.483a12.893,12.893,0,0,1-2.284-25.582,13.946,13.946,0,0,0-1.68,7.16,23.908,23.908,0,0,0,8.086,17.742A12.82,12.82,0,0,1,1974.37,447.483Zm20.84-6.015a12.406,12.406,0,1,1,12.406-12.406A12.42,12.42,0,0,1,1995.21,441.467Zm20.84,6.015a12.816,12.816,0,0,1-4.121-.68,23.908,23.908,0,0,0,8.085-17.742,13.946,13.946,0,0,0-1.68-7.16,12.893,12.893,0,0,1-2.284,25.582Z" transform="translate(-1958.781 -404.698)" fill="#005c78"/>
        <ellipse id="Elipse_550" data-name="Elipse 550" cx="9.325" cy="9.325" rx="9.325" ry="9.325" transform="translate(27.104 15.038)" fill="#005c78"/>
      </g>
    </g>
    <g id="Grupo_3148" data-name="Grupo 3148" transform="translate(754 3293)">
      <g id="Grupo_3146" data-name="Grupo 3146" transform="translate(0 0)" opacity="0.8">
        <ellipse id="Elipse_551" data-name="Elipse 551" cx="51.048" cy="51.048" rx="51.048" ry="51.048" transform="translate(0 25.227) rotate(-14.305)" fill="#fff"/>
      </g>
      <g id="Grupo_3147" data-name="Grupo 3147" transform="translate(27.355 30.338)">
        <path id="Trazado_1809" data-name="Trazado 1809" d="M3585.087,416.212c-.022-.559-.029-1.189-.07-1.877s-.093-1.435-.144-2.224q-.039-.593-.08-1.216c-.032-.415-.082-.839-.123-1.27-.093-.863-.164-1.755-.282-2.662s-.258-1.83-.388-2.752c-.171-.923-.342-1.847-.51-2.756q-.159-.682-.313-1.351c-.108-.446-.193-.887-.327-1.32-.25-.866-.469-1.7-.764-2.5q-.1-.3-.2-.588c-.066-.193-.132-.383-.213-.57l-.449-1.081c-.144-.347-.324-.679-.475-.995-.079-.158-.152-.312-.231-.462l-.253-.437a11.823,11.823,0,0,0-2.034-2.816c-.654-.535-4.519-1.072-4.519-1.072a4.628,4.628,0,0,1-8.227-.044,26.068,26.068,0,0,0-3.8,1.052l-.067.052c-.1.08-.254.2-.441.371-.121.12-.255.26-.418.432-.144.164-.288.346-.458.556a13.439,13.439,0,0,0-.968,1.47l-.253.437c-.08.15-.152.3-.232.462-.151.316-.332.648-.475.995s-.294.708-.448,1.081c-.081.186-.147.377-.214.57l-.2.588c-.295.794-.514,1.632-.764,2.5-.134.432-.219.874-.327,1.32s-.208.9-.313,1.351l-.51,2.756c-.13.922-.26,1.844-.388,2.752s-.19,1.8-.282,2.662c-.042.431-.091.855-.123,1.27s-.054.821-.079,1.216c-.052.789-.1,1.535-.145,2.224s-.048,1.319-.07,1.877-.034,1.045-.047,1.446c-.026.8-.041,1.26-.041,1.26a1.7,1.7,0,0,0,.065.491c.086,0,.167-.013.254-.013a6.419,6.419,0,0,1,2.768.587,1.7,1.7,0,0,0,.326-.844l.005-.053s.044-.445.12-1.223c.038-.389.085-.861.138-1.4s.1-1.154.188-1.817.181-1.379.281-2.137q.074-.569.153-1.166c.057-.4.132-.8.2-1.207.143-.817.266-1.668.436-2.518l.535-2.569.641-2.52q.184-.61.365-1.208c.124-.4.228-.8.372-1.167q.1-.267.19-.531c.339,2.683.669,5.507.76,7.014.153,2.518-.276,15.958-.219,17.715s.141,3.8.249,5.982c.058,1.092.119,2.22.18,3.366q.051.854.1,1.72.026.438.052.879l.058.866c.465,6.994,1.112,12.347,1.4,14.539h4.133c.2-2.125.64-7.555.7-14.682l.008-.868q.007-.426.014-.852.014-.864.028-1.719c.025-1.131.049-2.244.073-3.321.055-2.156.123-4.163.2-5.876s.156-3.131.224-4.108c.023-.343.046-.628.064-.856h.632q.029.341.065.856c.068.977.15,2.395.224,4.108s.143,3.721.2,5.876c.024,1.077.049,2.19.073,3.321q.014.854.028,1.719.007.425.014.852l.008.868c.063,7.127.5,12.556.7,14.682h4.133c.287-2.192.934-7.545,1.4-14.539l.058-.866q.025-.44.052-.879.051-.865.1-1.72c.061-1.146.121-2.275.18-3.366.109-2.183.194-4.224.25-5.982s-.441-15.2-.307-17.719c.083-1.563.412-4.548.745-7.319.1.276.2.556.3.84.144.37.248.771.372,1.167l.365,1.208c.211.832.426,1.676.641,2.52.179.861.358,1.721.535,2.569s.292,1.7.435,2.518c.067.41.141.811.2,1.207s.1.787.153,1.166c.1.758.194,1.475.281,2.137s.13,1.276.188,1.817.1,1.014.138,1.4l.12,1.223.005.059a1.692,1.692,0,0,0,.48,1.01,6.57,6.57,0,0,1,2.323-.406c.142,0,.274.013.41.02a1.692,1.692,0,0,0,.2-.853l-.041-1.26C3585.121,417.258,3585.1,416.771,3585.087,416.212Z" transform="translate(-3554.416 -388.221)" fill="#00808f"/>
        <path id="Trazado_1810" data-name="Trazado 1810" d="M3658.722,414.757v-8.987a2.759,2.759,0,0,0-2.756-2.756h-6.347a2.758,2.758,0,0,0-2.755,2.756v8.99c-.2,3.389-1.09,10.9-4.9,14.838h-5.283v2.463h5.179v21.05h21.875v-21.05h5.179V429.6h-5.284C3659.811,425.661,3658.926,418.145,3658.722,414.757Zm-1.739-1.734H3648.6v-7.253a1.018,1.018,0,0,1,1.017-1.017h6.347a1.018,1.018,0,0,1,1.017,1.017Z" transform="translate(-3599.462 -396.322)" fill="#00808f"/>
      </g>
    </g>
    <g id="Grupo_3151" data-name="Grupo 3151" transform="translate(-1527.083 1811.008)">
      <g id="Grupo_3149" data-name="Grupo 3149" transform="translate(1906.083 1482.992)" opacity="0.8">
        <circle id="Elipse_552" data-name="Elipse 552" cx="52.014" cy="52.014" r="52.014" transform="translate(0 20.916) rotate(-11.599)" fill="#fff"/>
      </g>
      <g id="Grupo_3150" data-name="Grupo 3150" transform="translate(1933.458 1507.994)">
        <path id="Trazado_1811" data-name="Trazado 1811" d="M1999.8,1621.671v-18.965a13.083,13.083,0,0,1-1.863-4.65l-1.233-1.233a2.153,2.153,0,0,0-.2-.241l-17.444-17.443a2.038,2.038,0,0,0-2.882,2.882l13.239,13.24-1.281,1.281-14.921-14.921a2.038,2.038,0,0,0-2.882,2.883l14.921,14.921-1.281,1.281-14.441-14.44a2.038,2.038,0,1,0-2.883,2.882l14.441,14.44-1.281,1.281-11.078-11.078a2.038,2.038,0,0,0-2.882,2.882l11.077,11.078-.018.018,8.921,8.973a10.738,10.738,0,0,0,6.238,3.268l12.255,12.255,10.595-10.594H1999.8Z" transform="translate(-1965.253 -1559.449)" fill="#005c78"/>
        <path id="Trazado_1812" data-name="Trazado 1812" d="M2072.139,1564.571c-.883,0-2.1.521-3.76,2.122-2.3,2.219-3.813,2.681-4.675,2.681a1.467,1.467,0,0,1-.9-.236V1566.4a2.018,2.018,0,0,0,.027-.314v-24.668a2.038,2.038,0,0,0-4.077,0v18.723h-1.812v-21.1a2.038,2.038,0,0,0-4.077,0v21.1h-1.812v-20.422a2.038,2.038,0,0,0-4.077,0v20.422h-1.812V1544.47a2.038,2.038,0,1,0-4.077,0v15.666h-.025l-.037,12.653a10.742,10.742,0,0,0,2.1,6.722v17.33h17.665V1581.95a10.179,10.179,0,0,0,2.723-2.342l10.752-13.219S2073.788,1564.571,2072.139,1564.571Z" transform="translate(-2006.2 -1536.997)" fill="#005c78"/>
      </g>
    </g>
  </g>
</svg>
