<svg xmlns="http://www.w3.org/2000/svg" width="920" height="367.338" viewBox="0 0 920 367.338">
  <g id="Grupo_3550" data-name="Grupo 3550" transform="translate(-110 -4428.662)">
    <rect id="Rectángulo_946" data-name="Rectángulo 946" width="920" height="284" transform="translate(110 4512)" fill="#3caea4"/>
    <path id="Trazado_1987" data-name="Trazado 1987" d="M0,114.1,920,.934V141H0Z" transform="translate(110 4655)" fill="#dedede" opacity="0.251"/>
    <g id="Grupo_3377" data-name="Grupo 3377" transform="translate(804.75 4580.466)">
      <path id="Trazado_1795" data-name="Trazado 1795" d="M2451.374,417.272a3.874,3.874,0,1,0,7.747,0c0-2.139-3.873-7.331-3.873-7.331S2451.374,415.132,2451.374,417.272Z" transform="translate(-2451.374 -406.054)" fill="#3caea4"/>
      <path id="Trazado_1796" data-name="Trazado 1796" d="M2468.75,442.582a3.874,3.874,0,0,0,7.747,0c0-2.14-3.873-7.331-3.873-7.331S2468.75,440.442,2468.75,442.582Z" transform="translate(-2461.003 -420.08)" fill="#3caea4"/>
      <path id="Trazado_1797" data-name="Trazado 1797" d="M2475.129,408.554a3.874,3.874,0,1,0,7.747,0c0-2.139-3.873-7.331-3.873-7.331S2475.129,406.414,2475.129,408.554Z" transform="translate(-2464.538 -401.223)" fill="#3caea4"/>
    </g>
    <g id="Grupo_3378" data-name="Grupo 3378" transform="translate(-1428.935 3613.612)">
      <path id="Trazado_1988" data-name="Trazado 1988" d="M3182.259,1284.234a5.581,5.581,0,1,1-1.635-3.946A5.58,5.58,0,0,1,3182.259,1284.234Z" transform="translate(-1015.634 -258.484)" fill="#fca"/>
      <path id="Trazado_1991" data-name="Trazado 1991" d="M2617.308,998.381c5.346-5.426,14.674-10.008,26.637-8.682.305,5.366-3.874,13.574-3.33,15.666.383,1.47,4.109,5.186,6,8.036-8.156-.982-11.625,3.062-17.517,1.611-6.015-1.482-13.52-8.389-12.6-9.08-.2,3.978-1.04,9.739-3.822,12.149-3.436,2.975-8.637,4.641-15.331,5.771a1098.122,1098.122,0,0,1-134.375,4.249,11.376,11.376,0,0,1-5.407-2.131,5.073,5.073,0,0,1-4.1,2.667c-37.727-.589-75.315-.866-113.662-2.842a4.741,4.741,0,0,1-2.741-2.394c-.663.982-.891,2.2-2.765,2.535,0,0-28.333-1.673-36.724-2.975s-12.146-4.416-12.146-4.416a29.015,29.015,0,0,1-11.669-6.138c-1.694-10.949-.957-25.446.258-30.806,1.662-7.335,8.153-6.516,10-3.17,1.689,3.061,6.3,9.6,14.375,11.812,9.018,2.472,32.638,5.921,33.986,5.646,2.6.073,4.448,1.85,5.659,5.081,2.083-2,2.622-4.61,8.752-5.025,15.3-.769,31.928-2.894,45.086-1.482,20.774-4.275,44.323-14.7,62.2-12.547,1.3.215,2.616-.049,3.861,1.4,2.188-2.284,3.781-3.011,5.167-3.2.769-2.308,61.939.829,64.8,4.016,3.73.564,13.836,1.823,16.515-.491,4.582-3.957,11.833-7.36,20.142-9.029,5.292-1.063,10.979-.62,16.714.03,7.59.859,15.236,2.682,21.9,7.782C2607,985.355,2611.231,989.363,2617.308,998.381Z" transform="translate(-253.51)" fill="#fff"/>
      <path id="Trazado_1992" data-name="Trazado 1992" d="M2638.453,1119.747c-19.145-.029-2.087,32.65-76.047,15.212-8.692,3.588-48.246,16.955-82.564-8.324l-1.837.019s-24.6,14.82-66.666,15.356-51.062-10.7-51.062-10.7l-1.477,2.987s-9.461,7.6-19.723,6.156-21.859-4.365-29.655-19.593c-2.288-2.44-1.7-.236-1.619,1.071.812,13.733-8.657,13.156-8.686,13.164a32.93,32.93,0,0,0,8.824,3.931s3.755,3.113,12.146,4.415,36.724,2.976,36.724,2.976c1.874-.34,2.1-1.554,2.765-2.536a4.744,4.744,0,0,0,2.74,2.4c40.089-.436,75.368-.021,113.095.568a5.073,5.073,0,0,0,4.1-2.667,11.371,11.371,0,0,0,5.407,2.13c50.3-.695,92.277,1.093,134.943-1.974,6.693-1.13,11.895-2.8,15.33-5.772,2.7-2.341,3.565-7.831,3.8-11.79a3.367,3.367,0,0,0,.622.973v-1.82s5.776-1.64,8.675-1.271c5.08.646,14.162,5.958,14.162,5.958s-3.211-3.447-3.211-5.6c0-2.271,3.394-5.91,3.394-5.91s-3.37,2.632-5.38,3.167c-5.209,1.388-16.171-.182-16.171-.182Z" transform="translate(-275.858 -123.124)" fill="#e7e7e7"/>
      <path id="Trazado_1993" data-name="Trazado 1993" d="M2687.64,1134.473a3.741,3.741,0,0,1,3.025.6c-2.093,8.585-1.329,17.3-1.449,25.966a4.494,4.494,0,0,1-2.24.027C2686.529,1152.544,2685.638,1144.254,2687.64,1134.473Z" transform="translate(-604.414 -136.071)" fill="#aab9c0"/>
      <path id="Trazado_1994" data-name="Trazado 1994" d="M2612.306,998.172c-10.846.218-20.008,9.161-24.074,9.073,6.766.727,16.361-8.885,26.264-9A19.492,19.492,0,0,0,2612.306,998.172Zm-88.065,3.25c-3.025.2-15.417-.623-18.091,2.818l-.117,1.607C2509.676,1000.814,2520.806,1002.688,2524.241,1001.423Zm-28.73,2.541a53.811,53.811,0,0,0-10.37,1.155c4.821-.468,13.785-1.007,14.749,1.5l-.306-1.583C2499.087,1004.294,2497.507,1004,2495.51,1003.963Zm19.316,1.479c-2.768.085-7.558.786-8.468,1.764-.251.278-.75.993-.682,1.426.294-1.482,9.355-3.155,10.955-3.084a3.169,3.169,0,0,0-.761-.1C2515.575,1005.431,2515.222,1005.43,2514.826,1005.442Zm-18.471,1.156a30.313,30.313,0,0,0-4.531.331c1.617.051,7.355.06,7.785,1.18.017-.438-.563-1.09-.845-1.336A10.619,10.619,0,0,0,2496.355,1006.6Zm75.868.423c2.18,1.06,10.345,2.858,10.918.089C2582.4,1008.057,2573.784,1007.445,2572.222,1007.021Zm77.93,1.635c2.744,1.631,9.382,8.466,9.813,11.122l.022-1.845C2659.1,1015.715,2653.286,1009.255,2650.152,1008.657Zm-135.985,0c-2.171-.032-7.062.211-8.238.7a1.125,1.125,0,0,0-.366,1.061c.332-1.314,7.542-1.46,9.35-1.733C2514.732,1008.676,2514.477,1008.666,2514.167,1008.661Zm-16.7.519a29.867,29.867,0,0,0-4.425.846c1.827.057,5.608-1,6.093.262a1.127,1.127,0,0,0-.489-1.011,2.839,2.839,0,0,0-.584-.094A5.266,5.266,0,0,0,2497.469,1009.18Zm181.457,3.477c-4.159.066-11.476,3.144-12.862,4.893l-.117,1.608c.659-2.609,10-6.028,13.766-6.472A7.09,7.09,0,0,0,2678.926,1012.657Zm-185.448,1.005a27.368,27.368,0,0,0,5.232.721c.084-.34.238-.418.057-.656C2497.938,1013.714,2494.5,1013.662,2493.478,1013.663Zm11.681.529c-.2.222-.053.313,0,.66a44.857,44.857,0,0,0,6.741-.2C2510.88,1014.561,2505.986,1014.251,2505.159,1014.191Zm-15.8,1.379a62.184,62.184,0,0,0,9.278,1.084c.117-.471.331-.579.08-.91C2497.564,1015.727,2490.773,1015.569,2489.355,1015.57Zm15.56.482c-.278.307-.074.433,0,.913,1.763-.452,7.646.072,9.338-.278C2512.84,1016.563,2506.06,1016.134,2504.915,1016.052Zm147.979.108c1.573.379,7.19,4.439,7.382,5.622a2.414,2.414,0,0,0-.555-1.481C2658.769,1018.448,2654.175,1016.16,2652.894,1016.161ZM2371.6,1017.2c3.455,1.015,7.973,1.454,8.4,4.11l.022-1.611C2379.137,1017.476,2374.733,1017.794,2371.6,1017.2Zm33.263.067c-3.174.325-17.015.686-18.091,2.819l-.117,1.606C2387.313,1019.08,2401.332,1017.975,2404.862,1017.263Zm268.967.254c-1.277-.112-6.067.792-7.592,1.758a2.129,2.129,0,0,0-.347,1.426C2666.183,1019.538,2672.229,1017.758,2673.829,1017.516Zm-175.029.583c-.7.024-4.819.131-5.679.174a37.732,37.732,0,0,0,5.658.38C2498.835,1018.364,2498.961,1018.292,2498.8,1018.1Zm5.983.195c-.176.178-.056.261-.025.554a37.738,37.738,0,0,0,5.669.111C2509.574,1018.842,2505.477,1018.379,2504.783,1018.294Zm141.036.217c-1.067-.018-2.154.049-2.878.05,1.777.428,5.7.162,5.913,1.5a1.128,1.128,0,0,0-.276-1.089A6.783,6.783,0,0,0,2645.819,1018.511Zm-273.424,1.621c1.573.379,7.19,1.558,7.382,2.742a2.413,2.413,0,0,0-.555-1.48A26.249,26.249,0,0,0,2372.4,1020.132Zm24.62.451a58.725,58.725,0,0,0-10.272,1.659c-.251.278-.75.993-.682,1.426C2386.355,1022.505,2395.415,1020.825,2397.015,1020.583Zm268.67,1.171c-.2.222-.055.312,0,.658a44.873,44.873,0,0,0,6.742-.2C2671.406,1022.122,2666.512,1021.813,2665.685,1021.754Zm-14.644,1.326a62.177,62.177,0,0,0,9.279,1.086c.117-.471.331-.58.081-.91C2659.251,1023.239,2652.459,1023.079,2651.041,1023.08Zm14.628.174c-.278.308-.074.435,0,.914,1.764-.452,7.647.072,9.338-.278C2673.594,1023.767,2666.814,1023.336,2665.668,1023.255Zm-289.228.233c-1.067-.018-2.154.049-2.878.05,1.777.428,5.694.162,5.911,1.5a1.13,1.13,0,0,0-.274-1.089A6.785,6.785,0,0,0,2376.441,1023.487Zm13.878.768a13.978,13.978,0,0,0-3.958.381,1.13,1.13,0,0,0-.368,1.062c.332-1.314,6.55-1.035,8.356-1.309C2393.628,1024.327,2391.968,1024.248,2390.318,1024.255Zm275.243.816c-.176.178-.057.261-.025.554a37.708,37.708,0,0,0,5.669.112C2670.353,1025.619,2666.256,1025.156,2665.561,1025.072Zm-5.6.108c-.7.024-4.819.131-5.679.174a37.717,37.717,0,0,0,5.657.379C2660,1025.445,2660.128,1025.373,2659.965,1025.18Zm5.76,1.14a1.185,1.185,0,0,0,.029,1.178,11.4,11.4,0,0,0,5.241,1.978C2669.274,1028.627,2665.639,1027.74,2665.725,1026.32Zm-6.091.272a47.369,47.369,0,0,1-8.776,4.68c4.085-.587,7.087-2.894,8.677-3.559C2659.87,1027.342,2659.726,1027.172,2659.634,1026.592Zm-154.736.419c-.165.188-.04.263.009.554a37.675,37.675,0,0,0,5.665-.232C2509.714,1027.268,2505.6,1027.053,2504.9,1027.012Zm-6.125.121c-.695.066-4.8.422-5.659.517a37.756,37.756,0,0,0,5.671.036C2498.824,1027.395,2498.945,1027.316,2498.774,1027.133Zm166.646.781a1.336,1.336,0,0,0-.117,1.323c.92,1.4,6.655,4.564,9.846,5.005C2672.9,1033.261,2665.141,1029.493,2665.419,1027.914Zm-291.651,1.021a27.381,27.381,0,0,0,5.232.719c.084-.34.238-.418.057-.656C2378.228,1028.986,2374.792,1028.935,2373.768,1028.936Zm285.866.025c-2.888,2.157-6.972,7.707-10.785,8.3,4.018.284,9.1-6.51,10.685-7.176C2659.87,1029.711,2659.726,1029.539,2659.634,1028.96Zm-274.411.57c-.2.222-.053.313,0,.659a44.871,44.871,0,0,0,6.74-.2C2390.945,1029.9,2386.052,1029.59,2385.224,1029.531Zm113.575.359c-.7.024-4.82.131-5.68.174a37.737,37.737,0,0,0,5.657.38C2498.833,1030.154,2498.961,1030.082,2498.8,1029.889Zm6.118.262c-.177.178-.058.261-.025.554a37.758,37.758,0,0,0,5.669.111C2509.708,1030.7,2505.612,1030.235,2504.917,1030.152Zm-135.178.785a62.182,62.182,0,0,0,9.28,1.086c.117-.471.33-.579.079-.91C2377.948,1031.1,2371.157,1030.936,2369.738,1030.937Zm15.162.522c-.278.308-.074.433,0,.913,1.764-.452,7.647.073,9.338-.277C2392.826,1031.971,2386.047,1031.541,2384.9,1031.459Zm274.433.174c-.659,2.609-6.219,8.907-16.814,10.656,10.158-.744,15.2-5.242,16.688-8.917A3.428,3.428,0,0,0,2659.333,1031.633Zm24.144,1.414c-2.539-.012-4.459,1.195-6.578,1.432,2.778.04,6.237-1.169,8.445-1.2A8.086,8.086,0,0,0,2683.476,1033.047Zm-304.813.324c-.7.024-4.82.131-5.679.174a37.728,37.728,0,0,0,5.657.379C2378.7,1033.636,2378.825,1033.564,2378.663,1033.371Zm6.319.33c-.176.178-.058.261-.027.554a37.779,37.779,0,0,0,5.669.111C2389.772,1034.248,2385.676,1033.785,2384.982,1033.7Zm-58.9,3.718a40.532,40.532,0,0,0,4.579,1.65c8.014,1.946,13.842.264,18.676.022C2342.483,1037.28,2339.015,1040.727,2326.079,1037.418Zm53.17.239c-.348,1.379-4.647.186-6.545.473,1.515.133,4.748,1.231,6.158.64A1.184,1.184,0,0,0,2379.25,1037.657Zm5.792.069a1.185,1.185,0,0,0,.289,1.144c1.354.71,3.624-.15,5.145-.151C2388.609,1038.269,2385.27,1039.13,2385.042,1037.726Zm120.514,1.48a1.184,1.184,0,0,0,.37,1.12c1.4.611,3.6-.41,5.121-.52C2509.153,1039.49,2505.885,1040.59,2505.556,1039.206Zm-5.83.158c-.248,1.4-5.826.654-7.7,1.077,1.52.023,6.029.752,7.394.061A1.183,1.183,0,0,0,2499.726,1039.364Zm-114.63.841a1.335,1.335,0,0,0,.324,1.288c1.526.8,8.317.3,10.03.3C2393.348,1041.285,2385.353,1041.787,2385.1,1040.205Zm-5.893.029c-.393,1.554-6.168.135-8.307.458,1.707.15,6.283,1.461,7.873.8A1.332,1.332,0,0,0,2379.2,1040.234Zm126.681,1.25a1.334,1.334,0,0,0,.416,1.262c1.58.688,11.632-.205,13.34-.33C2517.506,1042.062,2506.253,1043.044,2505.883,1041.484Zm-5.923.5c-.28,1.578-11.235.58-13.345,1.057,1.713.026,11.464,1,13,.227A1.334,1.334,0,0,0,2499.961,1041.984Zm-119.653.218c-.659,2.608-12.265.2-15.855.746,2.864.251,12.457,2.477,15.125,1.361A2.24,2.24,0,0,0,2380.308,1042.2Zm4.36.29a2.24,2.24,0,0,0,.544,2.163c2.562,1.343,13.9-.235,16.775-.238C2398.458,1043.567,2384.965,1046.354,2384.668,1042.493Zm121.427,1.3a2.239,2.239,0,0,0,.7,2.118c2.652,1.155,13.147-.776,16.015-.985C2519.227,1044.335,2506.715,1046.414,2506.094,1043.8Zm-5.316.547c-.47,2.649-12.22,1.085-15.761,1.885,2.875.044,12.6,1.575,15.184.27A2.241,2.241,0,0,0,2500.778,1044.343Z" transform="translate(-298.733 -20.525)" fill="#aab9c0"/>
      <path id="Trazado_1995" data-name="Trazado 1995" d="M3474.365,1024.864c1.607-.35,2.1-.613,2.919-.237-3.045,8.449-1.195,36.848-.5,45.635a4.492,4.492,0,0,1-2.241.027C3472.565,1061.375,3470.619,1034.281,3474.365,1024.864Z" transform="translate(-1271.117 -42.816)" fill="#aab9c0"/>
      <path id="Trazado_1996" data-name="Trazado 1996" d="M4534.858,1119.758c1.382,4.938.641,6.793.382,12.29a4.623,4.623,0,0,0,2.288.122c.115-2.93,1.34-7.716.522-12.239A3.523,3.523,0,0,0,4534.858,1119.758Z" transform="translate(-2172.628 -123.423)" fill="#aab9c0"/>
      <path id="Trazado_1997" data-name="Trazado 1997" d="M2354.81,1367.76l306.737,73.292,32.024,7.652Z" transform="translate(-323.108 -328.132)" fill="#272727"/>
      <path id="Trazado_1998" data-name="Trazado 1998" d="M2354.808,1349.806v86.482h6.821v-86.482Zm331.941,0v86.482h6.821v-86.482Z" transform="translate(-323.107 -318.849)" fill="#1a6a63"/>
      <path id="Trazado_2000" data-name="Trazado 2000" d="M2293.568,1891.979a18.22,18.22,0,1,1-5.336-12.884A18.22,18.22,0,0,1,2293.568,1891.979Z" transform="translate(-240.236 -763.363)" fill="#1a6a63"/>
      <path id="Trazado_2001" data-name="Trazado 2001" d="M2338.845,1947.109a8.368,8.368,0,1,1-2.451-5.917A8.367,8.367,0,0,1,2338.845,1947.109Z" transform="translate(-295.365 -818.492)" fill="#a5d2ce"/>
      <path id="Trazado_2002" data-name="Trazado 2002" d="M4482.936,1891.979a18.219,18.219,0,1,1-5.336-12.884A18.22,18.22,0,0,1,4482.936,1891.979Z" transform="translate(-2097.663 -763.363)" fill="#1a6a63"/>
      <path id="Trazado_2003" data-name="Trazado 2003" d="M4528.215,1947.109a8.368,8.368,0,1,1-2.451-5.917A8.368,8.368,0,0,1,4528.215,1947.109Z" transform="translate(-2152.793 -818.492)" fill="#a5d2ce"/>
      <rect id="Rectángulo_947" data-name="Rectángulo 947" width="424.669" height="10.61" rx="5.305" transform="translate(1988.43 1024.565)" fill="#1a6a63"/>
      <rect id="Rectángulo_951" data-name="Rectángulo 951" width="261.669" height="10.61" transform="translate(2096.43 1041.565)" fill="#eaeaea" opacity="0.607"/>
    </g>
    <g id="Grupo_3383" data-name="Grupo 3383" transform="translate(93.962 4245.609)">
      <path id="Trazado_2004" data-name="Trazado 2004" d="M224.894,399.073c-3.026,9.344-5.509,18.9-7.793,28.47-1.075,4.463-2.112,8.935-3.131,13.388q-1.584,6.865-3.045,13.759v.009q-3.511,16.485-6.366,33.066-.871,5.067-1.684,10.124c-2.227,13.711-4.139,27.451-5.861,41.22a.057.057,0,0,0-.01.038q-1.185,9.42-2.255,18.85H135.793c.362-3.53.657-6.956.847-10.191,1.836-32.076,1.218-63.476,7.346-95.038,2.95-15.177,11.047-27.242,15.1-42.172,1.884-6.918,3.977-13.8,6.29-20.591,1.836-5.414,3.464-11.247,6.689-16.052.238-.352.476-.695.733-1.028.086-.133.181-.257.285-.39.19-.257.39-.5.6-.752a.132.132,0,0,0,.029-.038c.124-.152.247-.3.381-.447.228-.276.466-.542.714-.809.143-.152.285-.3.428-.438.209-.228.419-.438.638-.647.476-.476.98-.923,1.494-1.361.295-.247.6-.495.9-.733.1-.086.219-.162.324-.247.295-.219.59-.438.894-.638.086-.067.162-.124.247-.181.4-.276.8-.542,1.208-.79a30.2,30.2,0,0,1,20.477-4.2h.01c.038.009.067.009.1.019a29.68,29.68,0,0,1,24.007,21.9A28.754,28.754,0,0,1,224.894,399.073Z" transform="translate(0 -8.621)" fill="#e6eaec"/>
      <path id="Trazado_2005" data-name="Trazado 2005" d="M180.943,365.687c-.019.019-.029.048-.048.067v.01c-.1.162-.219.314-.324.485v.009c-.152.257-.3.5-.447.771-2.788,5.176-3.283,10.267-2.236,16a46.409,46.409,0,0,1,.019,6.194c0,.257-.019.523-.038.78a66.958,66.958,0,0,1-2.027,7.793c-.657,2.084-1.408,4.139-2.227,6.175-7.213,15.814-17.946,30.687-20.81,47.947-6.2,37.395,8.259,35.635,3.073,71.46-2.455,5.424-5.138,10.781-6.956,16.442a87.658,87.658,0,0,0-3.359,18.4h-9.772c.362-3.53.657-6.956.847-10.191,1.836-32.076,1.218-63.476,7.346-95.038,2.95-15.177,11.047-27.242,15.1-42.172,1.884-6.918,3.977-13.8,6.29-20.591,1.836-5.414,3.464-11.247,6.689-16.052.238-.352.476-.695.733-1.028.086-.133.181-.257.285-.39.19-.257.39-.5.6-.752a.132.132,0,0,0,.029-.038c.124-.152.247-.3.381-.447.228-.276.466-.542.714-.809.143-.152.285-.3.428-.438.209-.228.419-.438.638-.647.476-.476.98-.923,1.494-1.361.295-.247.6-.495.9-.733.1-.086.219-.162.324-.247.295-.219.59-.438.894-.638.086-.067.162-.124.247-.181C180.134,366.2,180.534,365.934,180.943,365.687Z" transform="translate(0 -8.853)" fill="#ced4db"/>
      <path id="Trazado_2006" data-name="Trazado 2006" d="M183.966,365.681c.036-.187.07-.377.106-.565a29.562,29.562,0,0,0-3.39,2.289A17.625,17.625,0,0,1,183.966,365.681Z" transform="translate(-2.176 -8.825)" fill="#c3cbd3"/>
      <path id="Trazado_2007" data-name="Trazado 2007" d="M476.85,558.063h-58.49c-.057-.552-.114-1.113-.171-1.665q-1.955-18.6-4.615-37.214c-2.5-17.432-5.509-34.816-9.078-52.02-2.969-14.311-5.985-28.584-9.639-42.743-1.694-6.537-3.435-13.055-5.338-19.525-1.437-4.891-3.035-9.534-2.816-14.711a29.4,29.4,0,0,1,16.68-25.044c.333-.162.666-.3,1-.447.771-.333,1.541-.628,2.331-.885.181-.067.362-.124.552-.181a29.386,29.386,0,0,1,4.843-1.075q.642-.086,1.285-.143a30.235,30.235,0,0,1,21.029,5.957,29.15,29.15,0,0,1,5.281,5.214,28.56,28.56,0,0,1,4.187,7.251A329.077,329.077,0,0,1,455.1,415.791c3.759,13.911,11.532,27.328,14.187,41.477,5.547,29.526,4.52,59.918,6.7,89.843Q476.4,552.706,476.85,558.063Z" transform="translate(-12.162 -8.688)" fill="#e6eaec"/>
      <path id="Trazado_2008" data-name="Trazado 2008" d="M432.451,550.125a65.185,65.185,0,0,0,1.256,7.945H418.359c-.057-.552-.114-1.113-.171-1.665q-1.955-18.6-4.615-37.214c-2.5-17.432-5.509-34.816-9.078-52.02-2.969-14.311-5.985-28.584-9.639-42.743-1.694-6.537-3.435-13.055-5.338-19.525-1.437-4.891-3.035-9.534-2.816-14.711a29.4,29.4,0,0,1,16.68-25.044c.333-.162.666-.3,1-.447.771-.333,1.541-.628,2.331-.885.181-.067.362-.124.552-.181a29.386,29.386,0,0,1,4.843-1.075q.642-.086,1.285-.143a128.248,128.248,0,0,0-5.29,23c-1.313,9.629-2.227,20.229.647,29.707,1.132,3.768,4.368,12.9,8.05,23.236,6.28,17.594,13.873,38.632,14.663,42.4,1.618,7.8,5.709,14.853,7.46,22.589.19,2.855-3.987,22.694-5.233,29.944C432.737,538.868,431.909,544.472,432.451,550.125Z" transform="translate(-12.162 -8.695)" fill="#ced4db"/>
      <path id="Trazado_2009" data-name="Trazado 2009" d="M353.136,252.778c-2.029,0-3.588,2.313-4.165,3.307l-.03.051-.485.978,2.107-26.628-13.245-17.652-27.889-11.14h-9.205l-27.89,11.14-13.244,17.652,2.107,26.628-.485-.978-.03-.051c-.577-.994,1.846,34.557,5.5,34.557a4.253,4.253,0,0,0,.759-.069q.166.657.326,1.306c1.19,4.792,2.158,8.812,2.759,11.342a23.694,23.694,0,0,0,3.1,7.332c1.707,2.659,4.567.561,8.5,5.469,7.292,9.107,15.853,9.728,16.214,9.75l.052,0h13.875l.051,0c.362-.022,8.923-.643,16.215-9.75,3.93-4.908,6.79-2.811,8.5-5.469a23.694,23.694,0,0,0,3.1-7.332c.6-2.519,1.564-6.531,2.759-11.342q.161-.649.326-1.306a4.254,4.254,0,0,0,.759.069h0c3.651,0,5.587-4.631,5.8-5.165C349.273,285.477,353.968,252.778,353.136,252.778Z" transform="translate(-5.977 -0.904)" fill="#d4885f"/>
      <path id="Trazado_2010" data-name="Trazado 2010" d="M406.414,436.166c-3.3,7.565-5.585,12.655-5.585,12.655L403.188,517l1.342,38.879h-206.4l.657-18.888,2-58.015,1.047-30.154s-15.8-32.685-24.216-53.371c-.324-.79-.638-1.57-.932-2.322-.723-1.827-1.38-3.54-1.941-5.091-.124-.352-.247-.685-.362-1.018-.324-.933-.628-1.808-.875-2.607q-.442-1.384-.685-2.455c-.038-.133-.067-.266-.1-.4s-.057-.257-.076-.371-.048-.238-.067-.352a10.729,10.729,0,0,1-.143-1.789c0-.238.01-.476.029-.723,0-.114.01-.219.019-.333.01-.162.029-.324.048-.495s.048-.371.076-.561c.01-.057.019-.1.029-.162.038-.238.086-.485.143-.733s.1-.476.171-.723.133-.485.209-.733q.086-.3.2-.6a21.6,21.6,0,0,1,2.093-4.32.132.132,0,0,0,.029-.038c.152-.238.3-.476.466-.714a26.623,26.623,0,0,1,1.627-2.15c.2-.238.4-.476.618-.714q.956-1.07,2.084-2.112c11.513-10.609,26.272-20,41.23-24.559l17.223-4.7,6.451-1.751,1.541-.428,4.282-1.161,1.456-.4,11.7-3.188,2.56-.7,5.976-1.627,1.9-.514,4.586-1.256,11.485-3.13.666-.181,8.878-2.417,1.1-.3V317.2l.638.209.628-.209v.419l9.886,2.731.79.219,9.268,2.56h.009l8.7,2.407,4.177,1.151,4.32,1.2,2.817.78,9.325,2.569,5.386,1.494,1.608.447,5.4,1.484,17.166,4.748a104.3,104.3,0,0,1,38.632,21.552,60.957,60.957,0,0,1,9.249,10.438c1.142,1.637,1.741,2.664,1.741,2.664C429.707,382.205,414.778,417.06,406.414,436.166Z" transform="translate(-1.777 -6.503)" fill="#e6eaec"/>
      <path id="Trazado_2011" data-name="Trazado 2011" d="M252.466,331.64l-30.949,8.442c-14.961,4.554-29.717,13.948-41.235,24.556-6.36,5.859-8.435,12.474-7.7,16.9.4,2.4,1.935,6.82,4.107,12.295a88.853,88.853,0,0,1,13.007-21.253,73.758,73.758,0,0,1,23.443-18.857c8.42-4.309,17.417-7.312,26.185-10.811a82.881,82.881,0,0,0,10.267-5.479,19.262,19.262,0,0,1,3.02-1.564c-.087-.669-.149-1.344-.18-2.028A18.361,18.361,0,0,1,252.466,331.64Z" transform="translate(-1.776 -7.203)" fill="#ced4db"/>
      <path id="Trazado_2012" data-name="Trazado 2012" d="M212.66,564.119H199.443l.647-18.85,2.008-58.053q.828.771,1.741,1.484c.114.162.219.3.333.466a47.83,47.83,0,0,1,1.38,5.671c.285,3.064.4,6.118.409,9.173.067,9.477-.78,18.945-.324,28.441A97.49,97.49,0,0,0,212.2,562.93C212.355,563.33,212.507,563.72,212.66,564.119Z" transform="translate(-3.085 -14.744)" fill="#ced4db"/>
      <path id="Trazado_2013" data-name="Trazado 2013" d="M218.355,478.507c11.434-3.118,41.58-19.75,40.427-25.987S201.277,483.165,218.355,478.507Z" transform="translate(-3.846 -13.028)" fill="#ced4db"/>
      <path id="Trazado_2014" data-name="Trazado 2014" d="M218.094,431.758c-9.354,5.2-8.315,37.422-8.315,37.422C219.591,446.649,227.449,426.561,218.094,431.758Z" transform="translate(-3.585 -12.016)" fill="#ced4db"/>
      <path id="Trazado_2015" data-name="Trazado 2015" d="M308.323,303.527l0-.414-1.381.207-1.382-.207,0,.414-24.864,3.73-5.479,31.768,4.521,3.488a44.728,44.728,0,0,0,55.708-.847l3.216-2.641-5.479-31.768Z" transform="translate(-6.759 -5.82)" fill="#fff"/>
      <path id="Trazado_2016" data-name="Trazado 2016" d="M329.387,275.621c-6.537,0-13-.148-15.118-2.04-3.2-2.856-5.54-4.708-7.821-4.7-1.262.006-4.083,1.843-7.281,4.7-2.118,1.892-8.581,2.04-15.118,2.04s-14.332,7.354-13.407,20.463c.9,12.706,8.118,22.68,35.074,22.271h2c26.956.408,34.177-9.566,35.074-22.271C343.718,282.975,335.924,275.621,329.387,275.621Z" transform="translate(-6.533 -4.16)" fill="#086f79"/>
      <path id="Trazado_2017" data-name="Trazado 2017" d="M306.118,310.693c-.143,0-.285,0-.428,0s-.284,0-.427,0c-20.592-.461-42.232-16.634-42.232-16.634l-13.66,40.54,54.669,15.833v.956l1.65-.478,1.651.478v-.956L362.01,334.6l-13.66-40.54S326.71,310.231,306.118,310.693Z" transform="translate(-5.506 -5.381)" fill="#e6eaec"/>
      <g id="Grupo_3379" data-name="Grupo 3379" transform="translate(254.834 235.375)">
        <path id="Trazado_2018" data-name="Trazado 2018" d="M345.494,243.3c-2.426-1.468-4.318-2.548-11.743-3.249-.154-.015-.317-.023-.472-.023H279.413c-.155,0-.318.008-.472.023-7.425.7-9.316,1.78-11.743,3.249-8.445,5.107-5.66,37.229,19.2,37.921,9.811.273,12.827-7.617,15.809-13.157a4.712,4.712,0,0,1,8.274,0c2.982,5.54,6,13.43,15.809,13.157C351.154,280.526,353.939,248.4,345.494,243.3Z" transform="translate(-260.995 -238.136)" fill="#5a84a0" opacity="0.5"/>
        <path id="Trazado_2019" data-name="Trazado 2019" d="M346.375,241.583c-2.839-1.718-5.1-2.811-12.548-3.514-.21-.019-.433-.03-.644-.03H279.316c-.212,0-.434.01-.65.03-7.443.7-9.7,1.8-12.542,3.513-4.8,2.9-6.578,12.083-4.132,21.351,3.229,12.237,12.3,19.742,24.258,20.074,10.064.26,13.871-7.111,16.665-12.509.291-.562.576-1.112.859-1.64a2.823,2.823,0,0,1,4.948,0c.285.528.569,1.078.86,1.64,2.742,5.3,6.477,12.516,16.114,12.516.181,0,.365,0,.55-.008,11.961-.332,21.03-7.838,24.259-20.074C352.952,253.667,351.177,244.488,346.375,241.583Zm.479,20.386c-1.334,5.055-6.022,16.854-20.711,17.263-7.685.226-10.486-5.217-13.2-10.47-.3-.58-.594-1.148-.888-1.694a6.6,6.6,0,0,0-11.6,0c-.294.545-.588,1.113-.888,1.694-2.719,5.252-5.526,10.677-13.2,10.47-14.689-.408-19.377-12.208-20.711-17.263-2.135-8.089-.465-15.4,2.434-17.153,2.219-1.343,3.823-2.313,10.937-2.985.1-.009.2-.013.3-.013h53.867c.1,0,.2,0,.294.013,7.118.672,8.723,1.642,10.943,2.985C347.318,246.569,348.988,253.881,346.853,261.97Z" transform="translate(-260.898 -238.04)" fill="#194868"/>
      </g>
      <path id="Trazado_2020" data-name="Trazado 2020" d="M353.114,288.654c.994-23.933,21.516-105.6-48.633-105.584,0,0-.277-.01-.42-.009s-.277-.009-.42-.009v.017c-61.883,1.68-48.344,69.9-46.244,106.423.762,13.244-10,34.011-10,34.011,9.161,22.323,52.115,33.527,56.756,32.95,4.641.577,50.66-10.137,59.645-32.458C363.8,324,352.564,301.909,353.114,288.654Zm-29.336,21.361c-12.947,10.529-30.011,5.049-38.251,0-21.5-13.175-25.508-57.8-23.935-72.752.877-8.332,26.678-16.052,43.741-16.25,11.508-.133,42.521,9.807,43.4,18.14C350.3,254.108,347.164,291,323.778,310.015Z" transform="translate(-5.41 0)" fill="#e6eaec"/>
      <path id="Trazado_2021" data-name="Trazado 2021" d="M353.094,315.031c-8.983,10.733-20.767,19.864-34.186,24.2-14.383,4.651-31.655,1.748-42.345-9.436-8.838-9.247-10.859-21.708-11.033-34.018-.1-6.932-.327-13.864-.517-20.795-3.586-14.814-4.216-29.932-3.422-37.485.217-2.055,1.954-4.073,4.7-5.951,2.019-15.478,6.349-30.58,14.947-43.613C245.451,204.1,255.6,258.5,257.4,289.73c.762,13.244-10,34.011-10,34.011,9.161,22.323,52.115,33.527,56.756,32.95,4.641.577,50.66-10.137,59.645-32.458a146.865,146.865,0,0,1-6.375-14.94A70.9,70.9,0,0,1,353.094,315.031Z" transform="translate(-5.41 -0.237)" fill="#c3cbd3"/>
      <g id="Grupo_3380" data-name="Grupo 3380" transform="translate(247.039 217.813)">
        <path id="Trazado_2022" data-name="Trazado 2022" d="M346.084,219.584H266.849a6.6,6.6,0,0,0-6.6,6.6v85.909a11.4,11.4,0,0,0,11.4,11.4h69.626a11.4,11.4,0,0,0,11.4-11.4V226.179A6.6,6.6,0,0,0,346.084,219.584Z" transform="translate(-253.072 -219.584)" fill="#e6eaec" opacity="0.3"/>
        <path id="Trazado_2023" data-name="Trazado 2023" d="M350.111,219.584h-5.948c.012.314.026.627.026.941v96.557a25.344,25.344,0,0,1-.842,6.406h1.96a11.4,11.4,0,0,0,11.4-11.4V226.179A6.6,6.6,0,0,0,350.111,219.584Z" transform="translate(-257.1 -219.584)" fill="#e6eaec" opacity="0.5"/>
        <path id="Trazado_2024" data-name="Trazado 2024" d="M279.816,219.686v103.8h25.608v-103.9H279.813C279.813,219.618,279.816,219.652,279.816,219.686Z" transform="translate(-254.021 -219.584)" fill="#e6eaec" opacity="0.5"/>
        <rect id="Rectángulo_948" data-name="Rectángulo 948" width="105.867" height="6.399" transform="translate(0 0)" fill="#087593"/>
      </g>
      <rect id="Rectángulo_949" data-name="Rectángulo 949" width="11.333" height="192.922" transform="translate(294.507 356.454)" fill="#086f79"/>
      <g id="Grupo_3381" data-name="Grupo 3381" transform="translate(234.894 318.886)">
        <path id="Trazado_2025" data-name="Trazado 2025" d="M303.4,357.641c-33.041-3.5-54.109-31.55-54.32-31.835l-9.136,6.71c.986,1.344,24.582,32.951,63.328,36.5l.879.08.861-.19c1.757-.387,43.264-9.807,64.1-35.7l-8.831-7.106C343.458,347.009,309.178,356.212,303.4,357.641Z" transform="translate(-239.943 -325.806)" fill="#086f79"/>
      </g>
      <g id="Grupo_3382" data-name="Grupo 3382" transform="translate(292.985 183.062)">
        <rect id="Rectángulo_950" data-name="Rectángulo 950" width="11.335" height="34.813" fill="#086f79"/>
      </g>
    </g>
  </g>
</svg>
