<svg xmlns="http://www.w3.org/2000/svg" width="449" height="157" viewBox="0 0 449 157">
  <g id="Grupo_3552" data-name="Grupo 3552" transform="translate(-581 -5032)">
    <g id="Grupo_3391" data-name="Grupo 3391" transform="translate(0 -49)">
      <rect id="Rectángulo_953" data-name="Rectángulo 953" width="449" height="97" transform="translate(581 5141)" fill="#3caea4"/>
      <path id="Trazado_2034" data-name="Trazado 2034" d="M0,79.308,448.532.934v97H0Z" transform="translate(581 5140.066)" fill="#dedede" opacity="0.251"/>
      <g id="Grupo_3389" data-name="Grupo 3389" transform="translate(746 5080.527)">
        <circle id="Elipse_562" data-name="Elipse 562" cx="60" cy="60" r="60" transform="translate(0 0.473)" fill="#fff"/>
        <g id="Grupo_3387" data-name="Grupo 3387" transform="translate(22 20.182)">
          <path id="Trazado_2035" data-name="Trazado 2035" d="M2573.289,730.806c2.1,1.133,7.423,1.3,11.464-2.836,3.558-5.752,6.679-1.19,7.744,2.378s.957,9.094-5.173,6.234c-5.647-1.245-10.01,1.816-11.142,3.913" transform="translate(-2519.323 -703.432)" fill="none" stroke="#1a6a63" stroke-linecap="round" stroke-linejoin="round" stroke-width="3"/>
          <path id="Trazado_2036" data-name="Trazado 2036" d="M2520.246,652.175a25.389,25.389,0,0,0-5.655-5.581c.736-2.447,2.064-4.668,4.432-5.529,6.356-2.312,2.525-6.3-.75-8.066s-8.708-2.789-7.157,3.795c.578,2.453-.552,4.781-2.194,6.738a25.382,25.382,0,0,0-8-1.681" transform="translate(-2462.202 -629.577)" fill="none" stroke="#1a6a63" stroke-linecap="round" stroke-linejoin="round" stroke-width="3"/>
          <path id="Trazado_2037" data-name="Trazado 2037" d="M2383.094,872.995a25.385,25.385,0,0,0,5.656,5.581c-.736,2.447-2.064,4.668-4.432,5.529-6.357,2.313-2.525,6.3.75,8.066s8.708,2.789,7.157-3.795c-.578-2.453.551-4.781,2.194-6.738a25.388,25.388,0,0,0,8,1.681" transform="translate(-2367.452 -820.067)" fill="none" stroke="#1a6a63" stroke-linecap="round" stroke-linejoin="round" stroke-width="3"/>
          <path id="Trazado_2038" data-name="Trazado 2038" d="M2333.918,804.322c-1.133,2.1-5.495,5.158-11.142,3.913-6.13-2.86-6.239,2.667-5.173,6.234s4.186,8.13,7.744,2.378c4.041-4.138,9.367-3.969,11.464-2.837" transform="translate(-2317.09 -765.859)" fill="none" stroke="#1a6a63" stroke-linecap="round" stroke-linejoin="round" stroke-width="3"/>
          <path id="Trazado_2039" data-name="Trazado 2039" d="M2415.728,642.727c1.245-2.211,1.567-8.911-2.945-11.991-6.177-3.672-.408-7.232,3.456-8.386s10.641-1.338,7.488,5.119c-1.824,5.558,1.858,10.477,4.111,11.643" transform="translate(-2390.484 -621.725)" fill="none" stroke="#1a6a63" stroke-linecap="round" stroke-linejoin="round" stroke-width="3"/>
          <path id="Trazado_2040" data-name="Trazado 2040" d="M2330.171,716.167a25.391,25.391,0,0,1,1.67-7.768c-1.957-1.643-4.285-2.772-6.738-2.194-6.584,1.551-5.564-3.882-3.795-7.157s5.754-7.107,8.066-.75c.862,2.368,3.083,3.7,5.529,4.432a25.383,25.383,0,0,1,5.766-5.79" transform="translate(-2319.373 -679.464)" fill="none" stroke="#1a6a63" stroke-linecap="round" stroke-linejoin="round" stroke-width="3"/>
          <path id="Trazado_2041" data-name="Trazado 2041" d="M2530.708,804.767a5.056,5.056,0,1,0-5.562,7.85" transform="translate(-2478.52 -764.606)" fill="none" stroke="#1a6a63" stroke-linecap="round" stroke-linejoin="round" stroke-width="3"/>
          <path id="Trazado_2042" data-name="Trazado 2042" d="M2503.236,739.643a5.055,5.055,0,1,0-3.4,6.29A5.055,5.055,0,0,0,2503.236,739.643Z" transform="translate(-2456.21 -711.954)" fill="none" stroke="#1a6a63" stroke-linecap="round" stroke-linejoin="round" stroke-width="3"/>
          <path id="Trazado_2043" data-name="Trazado 2043" d="M2422,747.2a5.055,5.055,0,1,0-3.4,6.29A5.055,5.055,0,0,0,2422,747.2Z" transform="translate(-2392.087 -717.918)" fill="none" stroke="#1a6a63" stroke-linecap="round" stroke-linejoin="round" stroke-width="3"/>
          <path id="Trazado_2044" data-name="Trazado 2044" d="M2452.554,821.566a5.055,5.055,0,1,0-3.4,6.29A5.055,5.055,0,0,0,2452.554,821.566Z" transform="translate(-2416.204 -776.621)" fill="none" stroke="#1a6a63" stroke-linecap="round" stroke-linejoin="round" stroke-width="3"/>
          <path id="Trazado_2045" data-name="Trazado 2045" d="M2527.592,863.333h11.8a1.883,1.883,0,0,0,1.368-2.94l-16.859-26.6a1.58,1.58,0,0,0-2.736,0l-16.859,26.6a1.884,1.884,0,0,0,1.368,2.94h11.8" transform="translate(-2464.629 -788.497)" fill="none" stroke="#1a6a63" stroke-linejoin="round" stroke-width="3"/>
          <line id="Línea_20" data-name="Línea 20" y2="13.481" transform="translate(57.908 56.299)" fill="none" stroke="#1a6a63" stroke-linejoin="round" stroke-width="3"/>
          <line id="Línea_21" data-name="Línea 21" y2="3.37" transform="translate(57.908 73.151)" fill="none" stroke="#1a6a63" stroke-linejoin="round" stroke-width="3"/>
        </g>
      </g>
    </g>
  </g>
</svg>
