<svg xmlns="http://www.w3.org/2000/svg" width="918" height="281.217" viewBox="0 0 918 281.217">
  <g id="Grupo_3722" data-name="Grupo 3722" transform="translate(-112 -1405)">
    <rect id="Rectángulo_972" data-name="Rectángulo 972" width="918" height="281" transform="translate(112 1405)" fill="#3caea4"/>
    <path id="Trazado_1716" data-name="Trazado 1716" d="M0,115.207,917.99,45.823V141H0Z" transform="translate(112 1543)" fill="#dedede" opacity="0.251"/>
    <path id="Trazado_1997" data-name="Trazado 1997" d="M2354.81,1367.76l264.619,63.228,27.627,6.6Z" transform="translate(-1632.582 224.594)" fill="#272727"/>
    <g id="Grupo_3371" data-name="Grupo 3371" transform="translate(166.041 -2493.888)" opacity="0.879">
      <path id="Trazado_1971" data-name="Trazado 1971" d="M1442.991,791.646c-.1.187-.152.3-.152.3s.429.268,1.122.677A7.1,7.1,0,0,1,1442.991,791.646Z" transform="translate(-1049.254 3253.95)" fill="#42727d" opacity="0.2"/>
      <path id="Trazado_1973" data-name="Trazado 1973" d="M989.013,714.047l-12.732-7.358c-6.589-3.808-12.423-5.845-15.329-1.465-1.845,2.78.05,6.993,4.232,9.41l21.451,12.4c4.182,2.417,9.068,2.122,10.912-.658C1000.453,721.992,995.6,717.855,989.013,714.047Z" transform="translate(-702.616 3323.016)" fill="#fffffc"/>
      <g id="Grupo_3365" data-name="Grupo 3365" transform="translate(287.033 4113.751)">
        <rect id="Rectángulo_941" data-name="Rectángulo 941" width="12.967" height="32.554" transform="translate(13.313 8.248)" fill="#fffffc"/>
        <rect id="Rectángulo_942" data-name="Rectángulo 942" width="12.967" height="36.048" transform="translate(231.147 8.248)" fill="#fffffc"/>
        <rect id="Rectángulo_943" data-name="Rectángulo 943" width="228.608" height="22.668" transform="translate(15.506 8.248)" fill="#fffffc"/>
        <g id="Grupo_3359" data-name="Grupo 3359" transform="translate(0 37.845)">
          <g id="Grupo_3356" data-name="Grupo 3356" transform="translate(13.317)">
            <g id="Grupo_3355" data-name="Grupo 3355">
              <path id="Trazado_1974" data-name="Trazado 1974" d="M1023.2,1285.551a12.959,12.959,0,0,0,12.959-12.959v-5.741H1023.2Z" transform="translate(-1023.197 -1266.851)" fill="#fff"/>
            </g>
          </g>
          <g id="Grupo_3357" data-name="Grupo 3357" transform="translate(0 6.513)">
            <circle id="Elipse_558" data-name="Elipse 558" cx="10.677" cy="10.677" r="10.677" transform="translate(0 21.344) rotate(-88.253)" fill="#1c5161"/>
          </g>
          <g id="Grupo_3358" data-name="Grupo 3358" transform="translate(4.098 10.61)">
            <path id="Trazado_1975" data-name="Trazado 1975" d="M988.767,1314.417a6.9,6.9,0,1,0,6.9,6.9A6.9,6.9,0,0,0,988.767,1314.417Z" transform="translate(-981.867 -1314.417)" fill="#95c7d6"/>
          </g>
        </g>
        <g id="Grupo_3364" data-name="Grupo 3364" transform="translate(217.863 37.845)">
          <g id="Grupo_3361" data-name="Grupo 3361" transform="translate(13.302)">
            <g id="Grupo_3360" data-name="Grupo 3360">
              <path id="Trazado_1976" data-name="Trazado 1976" d="M1999.82,1285.551a12.959,12.959,0,0,0,12.959-12.959v-5.741H1999.82Z" transform="translate(-1999.82 -1266.851)" fill="#fff"/>
            </g>
          </g>
          <g id="Grupo_3362" data-name="Grupo 3362" transform="translate(0 6.527)">
            <circle id="Elipse_559" data-name="Elipse 559" cx="10.677" cy="10.677" r="10.677" transform="translate(0 21.345) rotate(-88.333)" fill="#1c5161"/>
          </g>
          <g id="Grupo_3363" data-name="Grupo 3363" transform="translate(4.083 10.61)">
            <path id="Trazado_1977" data-name="Trazado 1977" d="M1965.39,1314.417a6.9,6.9,0,1,0,6.9,6.9A6.9,6.9,0,0,0,1965.39,1314.417Z" transform="translate(-1958.49 -1314.417)" fill="#95c7d6"/>
          </g>
        </g>
        <rect id="Rectángulo_944" data-name="Rectángulo 944" width="204.867" height="8.248" transform="translate(26.28)" fill="#cfe1e6"/>
      </g>
      <g id="Grupo_3366" data-name="Grupo 3366" transform="translate(236.706 4026.248)">
        <path id="Trazado_1978" data-name="Trazado 1978" d="M1201.115,756.03H974.671L885.3,706.6c-5.565-3.079-13.093-1.839-16.813,2.77s-2.221,10.841,3.346,13.921l96.89,53.66h231.257c6.695,0,13.258-5.34,13.258-10.883S1207.81,756.03,1201.115,756.03Z" transform="translate(-866.443 -704.907)" fill="#b3d8e3"/>
      </g>
      <g id="Grupo_3367" data-name="Grupo 3367" transform="translate(236.708 4032.292)" opacity="0.6">
        <path id="Trazado_1979" data-name="Trazado 1979" d="M1201.123,777.083H992.6a6.571,6.571,0,0,1,.306,1.491,9.267,9.267,0,0,1-5.926,9.46c-4.163,1.706-8.893,1.314-13.266.421a83.81,83.81,0,0,1-11.873-3.618c-3.895-1.419-7.7-3.012-11.445-4.676-5.9-2.618-11.62-5.48-17.4-8.271-10.458-5.051-21.091-9.8-31.248-15.278-11.791-6.354-23.438-13.442-32.7-22.281A6.326,6.326,0,0,1,867.454,732c-2.295,4.366-.566,9.6,4.386,12.338L968.73,798h231.257c6.7,0,13.258-5.34,13.258-10.883S1207.818,777.083,1201.123,777.083Z" transform="translate(-866.454 -732.003)" fill="#95c7d6"/>
      </g>
      <g id="Grupo_3368" data-name="Grupo 3368" transform="translate(249.723 4058.94)">
        <path id="Trazado_1980" data-name="Trazado 1980" d="M924.8,854.375l35.745,48.34,4.091-2.906-35.745-48.34Z" transform="translate(-924.797 -851.469)" fill="#fffffc"/>
      </g>
      <rect id="Rectángulo_945" data-name="Rectángulo 945" width="383.591" height="10.036" transform="translate(216.844 4103.715)" fill="#fffffc"/>
      <g id="Grupo_3369" data-name="Grupo 3369" transform="translate(226.67 4039.825)">
        <path id="Trazado_1981" data-name="Trazado 1981" d="M1184.1,824.019H934.215l-102.288-57.3a7.574,7.574,0,0,0-9.339,1.558c-2.066,2.592-1.234,6.1,1.858,7.831l105.685,59.2H1184.1c3.719,0,6.733-2.527,6.733-5.645S1187.82,824.019,1184.1,824.019Z" transform="translate(-821.452 -765.773)" fill="#fffffc"/>
      </g>
      <path id="Trazado_1982" data-name="Trazado 1982" d="M2194.6,827.243a4.384,4.384,0,0,0-4.384,4.383v55.832h8.767V831.626A4.383,4.383,0,0,0,2194.6,827.243Z" transform="translate(-1598.546 3226.293)" fill="#fffffc"/>
      <path id="Trazado_1983" data-name="Trazado 1983" d="M743.667,607.4a6.1,6.1,0,0,0-6.1,6.1V716.653h12.191V613.495A6.1,6.1,0,0,0,743.667,607.4Z" transform="translate(-529.612 3397.098)" fill="#fffffc"/>
      <path id="Trazado_1985" data-name="Trazado 1985" d="M1377.581,956.225a78.623,78.623,0,0,1-17.447-.588,7.271,7.271,0,0,1-3.158-1.024,5.764,5.764,0,0,1-.767-.336v13.2h38.818q-.084-8.67-.2-17.34C1390.189,954.244,1383.733,955.66,1377.581,956.225Z" transform="translate(-982.241 3130.81)" fill="#95c7d6" opacity="0.3"/>
      <g id="Grupo_3370" data-name="Grupo 3370" transform="translate(217.889 4059.337)">
        <path id="Trazado_1986" data-name="Trazado 1986" d="M948.957,853.247H797.335a15.264,15.264,0,0,0-15.247,15.247v29.131a2.509,2.509,0,0,0,2.509,2.509h177.1a2.509,2.509,0,0,0,2.509-2.509V868.495A15.264,15.264,0,0,0,948.957,853.247Zm10.229,41.87H787.106V868.495a10.241,10.241,0,0,1,10.229-10.229H948.957a10.241,10.241,0,0,1,10.229,10.229Z" transform="translate(-782.088 -853.247)" fill="#fffffc"/>
      </g>
    </g>
    <g id="Grupo_3491" data-name="Grupo 3491" transform="translate(661.04 1450.822)">
      <ellipse id="Elipse_573" data-name="Elipse 573" cx="14.5" cy="14.5" rx="14.5" ry="14.5" transform="translate(11.59 61.178)" fill="none" stroke="#fff" stroke-miterlimit="10" stroke-width="3"/>
      <path id="Trazado_2256" data-name="Trazado 2256" d="M344.119,220l17.7,17.7a18.5,18.5,0,0,1,5.417,13.078v52.448a6.935,6.935,0,0,1-6.936,6.936H327.936A6.935,6.935,0,0,1,321,303.228V262.735a13.869,13.869,0,0,1,4.062-9.807l12.658-12.658a5.778,5.778,0,0,0,0-8.175l-2.848-2.848" transform="translate(-318.688 -203.817)" fill="none" stroke="#fff" stroke-miterlimit="10" stroke-width="3"/>
      <path id="Trazado_2257" data-name="Trazado 2257" d="M330.692,227.05a5.782,5.782,0,0,0,0,8.175l5.16,5.16,18.5-18.5-5.16-5.16a5.778,5.778,0,0,0-8.175,0Z" transform="translate(-324.293 -210.33)" fill="none" stroke="#fff" stroke-miterlimit="10" stroke-width="3"/>
      <path id="Trazado_2258" data-name="Trazado 2258" d="M342.7,228.647l-5.78-5.78a5.78,5.78,0,0,1,8.175-8.175l5.78,5.78" transform="translate(-335.232 -213)" fill="none" stroke="#fff" stroke-miterlimit="10" stroke-width="3"/>
    </g>
    <rect id="Rectángulo_965" data-name="Rectángulo 965" width="290" height="250" transform="translate(695 1432)" fill="none"/>
    <g id="Grupo_3669" data-name="Grupo 3669" transform="translate(-740.353 59.044)">
      <path id="Trazado_2315" data-name="Trazado 2315" d="M1609.168,1581.653l-2.276-3.13c2.829-3.477,3.41-8.463,1.628-14.081a35.469,35.469,0,0,0-10.9-15.609,41.633,41.633,0,0,0-4.338-3.26l-.029-.018-1.886-1.155-.063-.036a21.2,21.2,0,0,0-2.182-1l6.386-12.158a1.2,1.2,0,0,0-.032-1.168c-.085-.142-.17-.287-.256-.432-.9-1.523-1.826-3.1-3.348-3.435a6.186,6.186,0,0,0-3.747.78,5.688,5.688,0,0,1-2.35.683c-.447-.047-1.269-.881-1.869-1.49-1.052-1.067-2.244-2.276-3.742-2.276s-2.691,1.209-3.742,2.276c-.6.609-1.422,1.443-1.869,1.49a5.685,5.685,0,0,1-2.35-.683,6.19,6.19,0,0,0-3.748-.779c-1.521.336-2.449,1.911-3.347,3.433-.086.145-.171.29-.257.433a1.2,1.2,0,0,0-.033,1.169l6.386,12.158a21.068,21.068,0,0,0-2.234,1.029l-.061.035-1.827,1.121-.027.017a41.6,41.6,0,0,0-4.349,3.268,35.465,35.465,0,0,0-10.9,15.609c-1.782,5.618-1.2,10.6,1.628,14.081l-2.276,3.13c-.416.532-5.977,7.849-2.871,14.263,2.739,5.658,11.263,8.526,25.338,8.526H1586.7c14.073,0,22.6-2.869,25.338-8.526C1615.145,1589.5,1609.584,1582.185,1609.168,1581.653Zm-37.913-52.513a7.273,7.273,0,0,0,3.547.867c1.3-.135,2.328-1.18,3.323-2.189.651-.66,1.542-1.564,2.041-1.564s1.39.9,2.041,1.564c1,1.009,2.024,2.053,3.323,2.188a7.275,7.275,0,0,0,3.547-.867,4.834,4.834,0,0,1,2.282-.638c.482.107,1.211,1.31,1.726,2.182l-6.257,11.913a25.6,25.6,0,0,0-13.325,0l-6.257-11.912c.515-.872,1.244-2.075,1.726-2.182A4.837,4.837,0,0,1,1571.255,1529.14Zm38.635,65.735c-2.274,4.7-10.292,7.179-23.189,7.179h-13.07c-12.888,0-20.907-2.48-23.185-7.171-2.51-5.167,2.557-11.7,2.607-11.768l.029-.038,2.079-2.858a13.334,13.334,0,0,0,6.939,2.669l.127-1.188.126-1.188a10.941,10.941,0,0,1-5.785-2.228,8.346,8.346,0,0,1-1.661-1.778c-1.962-2.816-2.259-6.8-.819-11.34a33.06,33.06,0,0,1,10.178-14.519,39.116,39.116,0,0,1,4.085-3.07l1.781-1.094a19.05,19.05,0,0,1,2.193-.992q.562-.213,1.142-.393a21.968,21.968,0,0,1,4.532-.894q1.07-.1,2.166-.1t2.165.1a21.944,21.944,0,0,1,4.533.895q.58.18,1.143.393a18.8,18.8,0,0,1,2.146.966l1.839,1.126a39.221,39.221,0,0,1,4.074,3.063,33.059,33.059,0,0,1,10.177,14.519c1.44,4.54,1.143,8.525-.819,11.34a8.664,8.664,0,0,1-.532.69,8.561,8.561,0,0,1-1.129,1.088,10.942,10.942,0,0,1-5.785,2.228l.126,1.188.127,1.188a13.332,13.332,0,0,0,6.939-2.669l2.079,2.859.029.038C1607.329,1583.179,1612.4,1589.689,1609.889,1594.874Z" fill="#fff"/>
      <path id="Trazado_2316" data-name="Trazado 2316" d="M1669.8,1708.334c-3.847.381-8.581.566-14.469.566h-.139c-5.953,0-10.732-.193-14.608-.581a1.195,1.195,0,0,0-1.314,1.188l0,14.709a1.194,1.194,0,0,0,1.075,1.189c4.42.442,9.553.677,14.844.68h.1c5.258,0,10.356-.23,14.75-.664a1.2,1.2,0,0,0,1.077-1.189l0-14.709a1.194,1.194,0,0,0-1.312-1.189Zm-1.08,14.81c-4.065.362-8.682.552-13.437.552h-.094c-4.789,0-9.44-.2-13.532-.566l0-12.314c3.7.314,8.15.469,13.531.472s9.827-.148,13.532-.458Z" transform="translate(-75.022 -150.553)" fill="#fff"/>
    </g>
    <g id="Grupo_3685" data-name="Grupo 3685" transform="translate(836.26 1632) rotate(180)">
      <path id="Trazado_2296" data-name="Trazado 2296" d="M229,170.55V159h48.51v11.55" transform="translate(20.96 55.02)" fill="none" stroke="#fff" stroke-miterlimit="10" stroke-width="3"/>
      <path id="Trazado_2297" data-name="Trazado 2297" d="M250.24,153.03V127.62a4.62,4.62,0,0,0-9.24,0v25.41" transform="translate(36.68 7.86)" fill="none" stroke="#fff" stroke-miterlimit="10" stroke-width="3"/>
      <path id="Trazado_2298" data-name="Trazado 2298" d="M246.24,155.65V125.62a4.62,4.62,0,0,0-9.24,0v30.03" transform="translate(31.44 5.24)" fill="none" stroke="#fff" stroke-miterlimit="10" stroke-width="3"/>
      <path id="Trazado_2299" data-name="Trazado 2299" d="M247.31,202.23V186.688a22.576,22.576,0,0,0,6.93-16.272v-39.8a4.62,4.62,0,0,0-9.24,0V149.1" transform="translate(41.92 11.79)" fill="none" stroke="#fff" stroke-miterlimit="10" stroke-width="3"/>
      <path id="Trazado_2300" data-name="Trazado 2300" d="M254.03,151.72v-23.1a4.62,4.62,0,1,0-9.24,0v33.532a3.442,3.442,0,0,1-6.415,1.737l-5.77-9.875a4.614,4.614,0,1,0-7.97,4.652l15.008,25.754a22.559,22.559,0,0,0,5.147,6.034v14.4" transform="translate(14.41 9.17)" fill="none" stroke="#fff" stroke-miterlimit="10" stroke-width="3"/>
      <g id="Grupo_3502" data-name="Grupo 3502" transform="translate(213 117)">
        <path id="Trazado_2301" data-name="Trazado 2301" d="M268.542,129.9c-1.347-1.2-2.668-2.435-3.929-3.74a30.022,30.022,0,1,0-29.836,49.73,74.115,74.115,0,0,1,11.543,4.426" transform="translate(-213 -117)" fill="none" stroke="#fff" stroke-miterlimit="10" stroke-width="3"/>
        <path id="Trazado_2302" data-name="Trazado 2302" d="M246,188.646a30.024,30.024,0,0,0,8.254-58.894c-.448-.129-.878-.3-1.324-.437" transform="translate(-169.77 -100.866)" fill="none" stroke="#fff" stroke-miterlimit="10" stroke-width="3"/>
      </g>
      <line id="Línea_65" data-name="Línea 65" y2="28" transform="translate(212.953 197.57)" fill="none" stroke="#fff" stroke-miterlimit="10" stroke-width="3"/>
      <line id="Línea_66" data-name="Línea 66" y2="23" transform="translate(212.953 170.57)" fill="none" stroke="#fff" stroke-miterlimit="10" stroke-width="3"/>
      <line id="Línea_67" data-name="Línea 67" y2="14" transform="translate(221.953 211.57)" fill="none" stroke="#fff" stroke-miterlimit="10" stroke-width="3"/>
      <line id="Línea_68" data-name="Línea 68" y2="15" transform="translate(221.953 191.57)" fill="none" stroke="#fff" stroke-miterlimit="10" stroke-width="3"/>
      <line id="Línea_69" data-name="Línea 69" y2="6" transform="translate(221.953 179.57)" fill="none" stroke="#fff" stroke-miterlimit="10" stroke-width="3"/>
      <line id="Línea_70" data-name="Línea 70" y2="19" transform="translate(231.953 206.57)" fill="none" stroke="#fff" stroke-miterlimit="10" stroke-width="3"/>
      <line id="Línea_71" data-name="Línea 71" y2="19" transform="translate(231.953 183.57)" fill="none" stroke="#fff" stroke-miterlimit="10" stroke-width="3"/>
      <line id="Línea_72" data-name="Línea 72" y2="4" transform="translate(240.953 221.57)" fill="none" stroke="#fff" stroke-miterlimit="10" stroke-width="3"/>
      <line id="Línea_73" data-name="Línea 73" y2="16" transform="translate(240.953 200.57)" fill="none" stroke="#fff" stroke-miterlimit="10" stroke-width="3"/>
      <line id="Línea_74" data-name="Línea 74" y2="10" transform="translate(240.953 185.57)" fill="none" stroke="#fff" stroke-miterlimit="10" stroke-width="3"/>
      <line id="Línea_75" data-name="Línea 75" y2="7" transform="translate(316.953 218.57)" fill="none" stroke="#fff" stroke-miterlimit="10" stroke-width="3"/>
      <line id="Línea_76" data-name="Línea 76" y2="14" transform="translate(316.953 200.57)" fill="none" stroke="#fff" stroke-miterlimit="10" stroke-width="3"/>
      <line id="Línea_77" data-name="Línea 77" y2="14" transform="translate(307.953 211.57)" fill="none" stroke="#fff" stroke-miterlimit="10" stroke-width="3"/>
    </g>
  </g>
</svg>
